<svg width="100" height="87" viewBox="0 0 100 87" xmlns="http://www.w3.org/2000/svg"><title>Essay</title><path d="M81 6c0 3.3-3.15 6-7 6H7c-3.85 0-7-2.7-7-6s3.15-6 7-6h67c3.85 0 7 2.7 7 6zM56 81c0 3.3-3.15 6-7 6H7c-3.85 0-7-2.7-7-6s3.15-6 7-6h42c3.85 0 7 2.7 7 6zm44-56.5c0 3.575-3.15 6.5-7 6.5H7c-3.85 0-7-2.925-7-6.5S3.15 18 7 18h86c3.85 0 7 2.925 7 6.5zm0 19c0 3.575-3.15 6.5-7 6.5H7c-3.85 0-7-2.925-7-6.5S3.15 37 7 37h86c3.85 0 7 2.925 7 6.5zm0 18.5c0 3.3-3.15 6-7 6H7c-3.85 0-7-2.7-7-6s3.15-6 7-6h86c3.85 0 7 2.7 7 6z" fill-rule="evenodd"/></svg>