<svg xmlns="http://www.w3.org/2000/svg" xmlns:xlink="http://www.w3.org/1999/xlink" viewBox="176 76 48 48"><linearGradient id="a" gradientUnits="userSpaceOnUse" x1="71.366" y1="132.875" x2="71.366" y2="121.375" gradientTransform="matrix(4.1667 0 0 -4.1667 -97.318 629.646)"><stop offset="0" stop-color="#a6e6fb"/><stop offset="1" stop-color="#1e86bc"/></linearGradient><path fill="url(#a)" d="M224 117.928a5.99 5.99 0 0 1-5.989 5.989h-35.938a5.99 5.99 0 0 1-5.99-5.989V81.99a5.99 5.99 0 0 1 5.99-5.99h35.938A5.99 5.99 0 0 1 224 81.99v35.938z"/><defs><path id="b" d="M224 117.928a5.99 5.99 0 0 1-5.989 5.989h-35.938a5.99 5.99 0 0 1-5.99-5.989V81.99a5.99 5.99 0 0 1 5.99-5.99h35.938A5.99 5.99 0 0 1 224 81.99v35.938z"/></defs><clipPath id="c"><use xlink:href="#b" overflow="visible"/></clipPath><linearGradient id="d" gradientUnits="userSpaceOnUse" x1="199.812" y1="86.624" x2="199.812" y2="115.251"><stop offset="0" stop-color="#3186c2"/><stop offset="1" stop-color="#1d649c"/></linearGradient><path opacity=".7" clip-path="url(#c)" fill="url(#d)" d="M200.312 115.25h-.002a2.503 2.503 0 0 1-1.812-.78l-12.125-12.791a2.501 2.501 0 0 1 .149-3.585l12.125-10.833a2.5 2.5 0 0 1 3.495.16l11.125 11.938a2.5 2.5 0 0 1-.019 3.428l-11.125 11.688a2.501 2.501 0 0 1-1.811.775z"/><path clip-path="url(#c)" fill="#FFF" d="M218.062 75.688l-18.021 24.562-2.624-4.25s-5.854 1.293-6.042 5.709L200 108.75l24-20.125s-.5-12.938 0-12.938l-5.938.001z"/><linearGradient id="e" gradientUnits="userSpaceOnUse" x1="189.27" y1="85.416" x2="189.27" y2="101.71"><stop offset="0" stop-color="#d5ea8d"/><stop offset="1" stop-color="#a5c82d"/></linearGradient><circle clip-path="url(#c)" fill="url(#e)" cx="189.271" cy="93.562" r="8.146"/><path clip-path="url(#c)" fill="#236EB4" d="M200.042 109.375a.757.757 0 0 1-.475-.169l-7.763-6.347a9.577 9.577 0 0 1-2.492.328c-5.273 0-9.562-4.29-9.562-9.562s4.29-9.562 9.562-9.562 9.562 4.29 9.562 9.562c0 .916-.129 1.819-.384 2.689l1.583 2.749 17.331-23.755a.75.75 0 1 1 1.211.884l-18.011 24.688a.733.733 0 0 1-.646.307.748.748 0 0 1-.609-.375l-2.292-3.979a.757.757 0 0 1-.098-.432l.015-.198a.725.725 0 0 1 .032-.167 8.042 8.042 0 0 0 .367-2.412c0-4.446-3.617-8.062-8.062-8.062s-8.062 3.617-8.062 8.062 3.617 8.062 8.062 8.062c.768 0 1.526-.107 2.257-.319a.736.736 0 0 1 .843.051l7.626 6.234 23.8-19.745c.317-.264.474.042.738.362a.748.748 0 0 1-.099 1.056L200.518 109.2a.728.728 0 0 1-.476.175z"/></svg>