<svg xmlns="http://www.w3.org/2000/svg" viewBox="456 256 48 48"><linearGradient id="a" gradientUnits="userSpaceOnUse" x1="351.366" y1="312.875" x2="351.366" y2="301.375" gradientTransform="matrix(4.1667 0 0 -4.1667 -983.994 1559.654)"><stop offset="0" stop-color="#ebe9d6"/><stop offset="1" stop-color="#e1dcb7"/></linearGradient><path fill="url(#a)" d="M504 297.928a5.99 5.99 0 0 1-5.989 5.989h-35.938a5.99 5.99 0 0 1-5.99-5.989V261.99a5.99 5.99 0 0 1 5.99-5.99h35.938a5.99 5.99 0 0 1 5.989 5.99v35.938z"/><path fill-rule="evenodd" clip-rule="evenodd" fill="#D3CCA7" d="M486.288 265.06l.142-2.417h3.518c.033.206.087.378.087.55-.007 7.088.028 14.177-.057 21.266-.027 2.266-.233 4.568-1.615 6.527-1.481 2.102-3.577 3.21-6.071 3.607-2.808.448-5.571.355-8.174-.937-2.519-1.249-3.787-3.57-3.423-6.289 1.074.161 2.152.306 3.222.5.205.036.501.237.542.412.626 2.691 2.729 3.11 4.987 3.238 3.187.18 5.497-1.193 6.154-3.851.368-1.491.352-3.079.507-4.572-1.53.786-2.832 1.745-4.288 2.152-4.124 1.149-8.189-.563-10.23-4.324-2.661-4.905-2.534-9.917.292-14.684 2.854-4.813 9.684-5.609 13.753-1.793.155.149.313.295.654.615zm-12.521 8.238c.178 1.568.224 2.712.449 3.82.565 2.793 2.577 4.781 4.995 5.057 2.669.304 5.059-.849 6.087-3.21 1.443-3.311 1.502-6.75.041-10.05-1.028-2.318-2.944-3.623-5.612-3.489-2.524.127-4.203 1.538-5.059 3.786-.536 1.41-.668 2.973-.901 4.086z"/><path fill-rule="evenodd" clip-rule="evenodd" fill="#532D0B" d="M486.288 267.06l.142-2.417h3.518c.033.206.087.378.087.55-.007 7.088.028 14.177-.057 21.266-.027 2.266-.233 4.568-1.615 6.527-1.481 2.102-3.577 3.21-6.071 3.607-2.808.448-5.571.355-8.174-.937-2.519-1.249-3.787-3.57-3.423-6.289 1.074.161 2.152.306 3.222.5.205.036.501.237.542.412.626 2.691 2.729 3.11 4.987 3.238 3.187.18 5.497-1.193 6.154-3.851.368-1.491.352-3.079.507-4.572-1.53.786-2.832 1.745-4.288 2.152-4.124 1.149-8.189-.563-10.23-4.324-2.661-4.905-2.534-9.917.292-14.684 2.854-4.813 9.684-5.609 13.753-1.793.155.149.313.295.654.615zm-12.521 8.238c.178 1.568.224 2.712.449 3.82.565 2.793 2.577 4.781 4.995 5.057 2.669.304 5.059-.849 6.087-3.21 1.443-3.311 1.502-6.75.041-10.05-1.028-2.318-2.944-3.623-5.612-3.489-2.524.127-4.203 1.538-5.059 3.786-.536 1.41-.668 2.973-.901 4.086z"/></svg>