<svg xmlns="http://www.w3.org/2000/svg" viewBox="176 76 48 48"><linearGradient id="a" gradientUnits="userSpaceOnUse" x1="71.366" y1="132.875" x2="71.366" y2="121.375" gradientTransform="matrix(4.1667 0 0 -4.1667 -97.318 629.646)"><stop offset="0" stop-color="#f93c2d"/><stop offset="1" stop-color="#d32d20"/></linearGradient><path fill="url(#a)" d="M224 117.928a5.99 5.99 0 0 1-5.989 5.989h-35.938a5.99 5.99 0 0 1-5.99-5.989V81.99a5.99 5.99 0 0 1 5.99-5.99h35.938A5.99 5.99 0 0 1 224 81.99v35.938z"/><path fill-rule="evenodd" clip-rule="evenodd" fill="#CD2D20" d="M193.948 112.906c-7.297-2.956-11.001-11.932-8.097-19.44 3.029-7.828 11.745-11.815 19.592-8.964 7.977 2.899 12.046 11.452 9.296 19.539-2.563 7.541-11.246 12.019-18.544 9.665l2.395-7.257c2.345 2.137 5.455 2.21 8.177.124 3.365-2.579 4.861-8.568 3.064-12.42-1.447-3.101-3.979-4.847-7.301-5.281-4.384-.573-8.258.533-10.974 4.258-1.955 2.682-2.363 5.655-.994 8.761.435.987 1.173 1.722 2.143 2.212.568.288.923.159 1.124-.48.269-.859.255-1.559-.298-2.402-1.149-1.752-.829-3.673-.067-5.494 1.803-4.308 8.004-5.829 11.474-2.852 1.141.979 1.711 2.257 1.808 3.711.146 2.202-.195 4.335-1.256 6.306-.63 1.17-1.495 2.086-2.842 2.413-2.047.495-3.567-.987-3.07-3.028.334-1.371.76-2.719 1.125-4.082.094-.35.144-.72.159-1.083.045-1.047-.446-1.932-1.23-2.274-.844-.368-1.949-.127-2.659.648-1.296 1.416-1.36 3.083-.981 4.863.125.582.142 1.236.017 1.816-.582 2.71-1.26 5.398-1.839 8.109-.18.83-.15 1.705-.222 2.632z"/><path fill-rule="evenodd" clip-rule="evenodd" fill="#FFF" d="M193.948 114.906c-7.297-2.956-11.001-11.932-8.097-19.44 3.029-7.828 11.745-11.815 19.592-8.964 7.977 2.899 12.046 11.452 9.296 19.539-2.563 7.541-11.246 12.019-18.544 9.665l2.395-7.257c2.345 2.137 5.455 2.21 8.177.124 3.365-2.579 4.861-8.568 3.064-12.42-1.447-3.101-3.979-4.847-7.301-5.281-4.384-.573-8.258.533-10.974 4.258-1.955 2.682-2.363 5.655-.994 8.761.435.987 1.173 1.722 2.143 2.212.568.288.923.159 1.124-.48.269-.859.255-1.559-.298-2.402-1.149-1.752-.829-3.673-.067-5.494 1.803-4.308 8.004-5.829 11.474-2.852 1.141.979 1.711 2.257 1.808 3.711.146 2.203-.195 4.335-1.256 6.306-.63 1.17-1.495 2.086-2.842 2.413-2.047.495-3.567-.987-3.07-3.028.334-1.371.76-2.719 1.125-4.082.094-.35.144-.72.159-1.083.045-1.047-.446-1.932-1.23-2.274-.844-.368-1.949-.127-2.659.648-1.296 1.416-1.36 3.083-.981 4.863.125.582.142 1.236.017 1.816-.582 2.71-1.26 5.398-1.839 8.109-.18.83-.15 1.705-.222 2.632z"/></svg>