<?xml version="1.0" encoding="UTF-8"?>
<svg width="38px" height="48px" viewBox="0 0 38 48" version="1.1" xmlns="http://www.w3.org/2000/svg" xmlns:xlink="http://www.w3.org/1999/xlink" xmlns:sketch="http://www.bohemiancoding.com/sketch/ns">
    <title>Article</title>
    <defs></defs>
    <g id="Page-1" stroke="none" stroke-width="1" fill="none" fill-rule="evenodd" sketch:type="MSPage">
        <g id="noun_1091930_cc" sketch:type="MSLayerGroup" transform="translate(1.000000, 0.000000)" fill="#000000">
            <g id="Group" sketch:type="MSShapeGroup">
                <path d="M33.4,0 L2.6,0 C0.9,0 -0.4,1.3 -0.4,3 L-0.4,45 C-0.4,46.7 0.9,48 2.6,48 L33.4,48 C35.1,48 36.4,46.7 36.4,45 L36.4,3 C36.4,1.3 35.1,0 33.4,0 L33.4,0 Z M33.7,45 L2.3,45 L2.3,3 L33.6,3 L33.6,45 L33.7,45 Z" id="Shape"></path>
                <rect id="Rectangle" x="5" y="5" width="8.6" height="13.9"></rect>
                <rect id="Rectangle" x="23" y="34" width="8.6" height="8.4"></rect>
                <rect id="Rectangle" x="16" y="6" width="15.6" height="2.4"></rect>
                <rect id="Rectangle" x="16" y="11" width="15.6" height="2.4"></rect>
                <rect id="Rectangle" x="16" y="17" width="15.6" height="2.4"></rect>
                <rect id="Rectangle" x="5" y="23" width="26.7" height="2.4"></rect>
                <rect id="Rectangle" x="5" y="29" width="26.7" height="2.4"></rect>
                <rect id="Rectangle" x="5" y="34" width="12.9" height="2.4"></rect>
                <rect id="Rectangle" x="5" y="40" width="12.9" height="2.4"></rect>
            </g>
        </g>
    </g>
</svg>