<svg xmlns="http://www.w3.org/2000/svg" viewBox="0 0 26.442 26.442" width="28" height="28"><path d="M25.78 9.086c-.49-1.489-1.152-2.72-2.157-4.024-.43-.56-1.647-1.776-2.206-2.207C19.335 1.249 17.105.357 14.464.07c-.423-.045-1.897-.09-1.927-.06-.011.011-.23.041-.491.064a13.342 13.342 0 0 0-7.119 2.88c-.49.396-1.583 1.488-1.98 1.98a13.268 13.268 0 0 0-2.837 6.74c-.027.22-.065.56-.083.756-.05.4-.027 1.428.037 2.04.284 2.668 1.255 5.052 2.883 7.08.397.492 1.489 1.584 1.98 1.98 1.9 1.524 4.115 2.476 6.582 2.827.563.08 2.237.114 2.88.057 1.923-.17 3.88-.794 5.501-1.746 1.024-.604 1.78-1.194 2.679-2.093 1.545-1.542 2.543-3.155 3.212-5.177.472-1.424.661-2.614.661-4.156s-.189-2.732-.661-4.156Zm-8.093 4.179-2.063 3.812H11.17c-2.448 0-4.45-.011-4.45-.022 0-.012.929-1.739 2.066-3.836l2.063-3.812h4.455c2.448 0 4.451.011 4.451.023 0 .01-.93 1.738-2.067 3.835Z"/></svg>