<?xml version="1.0" encoding="UTF-8"?>
<svg width="82px" height="65px" viewBox="0 0 82 65" version="1.1" xmlns="http://www.w3.org/2000/svg" xmlns:xlink="http://www.w3.org/1999/xlink" xmlns:sketch="http://www.bohemiancoding.com/sketch/ns">
    <title>Book</title>
    <style>
        #noun_76944_cc { fill: black; }
        @media (prefers-color-scheme: dark) { #noun_76944_cc { fill: #fffcf4; } }
    </style>
    <defs></defs>
    <g id="Page-1" stroke="none" stroke-width="1" fill="none" fill-rule="evenodd" sketch:type="MSPage">
        <g id="noun_76944_cc" sketch:type="MSLayerGroup" transform="translate(1.000000, 0.000000)">
            <path d="M40,64.5 C37.6,64.5 34.3,63.2 33.2,60.5 L3.9,60.5 C1.6,60.5 -0.3,58.6 -0.3,56.3 L-0.3,11.3 C-0.3,9 1.6,7.1 3.9,7.1 L9.9,7.1 C11.1,7.1 12.1,8.1 12.1,9.3 C12.1,10.5 11.1,11.5 9.9,11.5 L4.1,11.5 L4.1,56 L35,56 C36.2,56 37.2,57 37.2,58.2 C37.2,59.8 39.9,60 40,60 C40.3,60 42.8,60 42.8,58.2 C42.8,57 43.8,56 45,56 L75.9,56 L75.9,11.5 L70,11.5 C68.8,11.5 67.8,10.5 67.8,9.3 C67.8,8.1 68.8,7.1 70,7.1 L76.1,7.1 C78.4,7.1 80.3,9 80.3,11.3 L80.3,56.3 C80.3,58.6 78.4,60.5 76.1,60.5 L46.8,60.5 C45.8,63.3 42.8,64.5 40,64.5 L40,64.5 Z" id="Shape" sketch:type="MSShapeGroup"></path>
            <g id="Group" transform="translate(8.000000, 0.000000)" sketch:type="MSShapeGroup">
                <path d="M31.7,55.4 C31.2,55.4 30.6,55.2 30.2,54.8 C30.1,54.7 22.2,48.2 2,48.2 C0.8,48.2 -0.2,47.2 -0.2,46 L-0.2,2.2 C-0.2,1 0.8,0 2,0 C24.3,0 32.9,7.4 33.2,7.7 C33.7,8.1 34,8.7 34,9.4 L34,53.2 C34,54.1 33.5,54.9 32.7,55.3 C32.4,55.3 32.1,55.4 31.7,55.4 L31.7,55.4 Z M4.3,43.8 C17.3,44.1 25.3,47 29.5,49.1 L29.5,10.5 C27.2,9 19.6,4.9 4.3,4.5 L4.3,43.8 L4.3,43.8 Z" id="Shape"></path>
                <path d="M32.3,55.4 C31.7,55.4 31.1,55.1 30.6,54.6 C29.8,53.7 29.9,52.3 30.8,51.4 C31.1,51.1 39.1,44.2 59.8,43.7 L59.8,4.5 C41,5 33.8,11 33.7,11.1 C32.8,11.9 31.3,11.8 30.5,10.9 C29.7,10 29.8,8.6 30.7,7.7 C31.1,7.4 39.7,0 62,0 C63.2,0 64.2,1 64.2,2.2 L64.2,46 C64.2,47.2 63.2,48.2 62,48.2 C41.6,48.2 33.8,54.7 33.8,54.8 C33.3,55.2 32.8,55.4 32.3,55.4 L32.3,55.4 Z" id="Shape"></path>
            </g>
            <g id="Group" transform="translate(16.000000, 9.000000)" sketch:type="MSShapeGroup">
                <path d="M16.3,8 C16,8 15.8,8 15.5,7.9 C11.6,6.5 7,5.5 1.9,5 C0.7,4.9 -0.2,3.8 -0.1,2.5 C-8.8817842e-16,1.2 1.1,0.4 2.4,0.5 C7.9,1 12.9,2.1 17.1,3.7 C18.3,4.1 18.9,5.4 18.4,6.6 C18.1,7.5 17.2,8 16.3,8 L16.3,8 Z" id="Shape"></path>
                <path d="M16.3,16.3 C16,16.3 15.8,16.3 15.5,16.2 C11.6,14.8 7,13.8 1.9,13.3 C0.7,13.2 -0.2,12.1 -0.1,10.8 C-8.8817842e-16,9.5 1.1,8.7 2.4,8.8 C7.9,9.3 12.9,10.4 17.1,12 C18.3,12.4 18.9,13.7 18.4,14.9 C18.1,15.8 17.2,16.3 16.3,16.3 L16.3,16.3 Z" id="Shape"></path>
                <path d="M16.3,24.6 C16,24.6 15.8,24.6 15.5,24.5 C11.6,23.1 7,22.1 1.9,21.6 C0.7,21.5 -0.2,20.4 -0.1,19.1 C-8.8817842e-16,17.8 1.1,17 2.4,17.1 C7.9,17.6 12.9,18.7 17.1,20.3 C18.3,20.7 18.9,22 18.4,23.2 C18.1,24 17.2,24.6 16.3,24.6 L16.3,24.6 Z" id="Shape"></path>
                <path d="M31.7,8 C30.8,8 29.9,7.4 29.6,6.5 C29.2,5.3 29.8,4 30.9,3.6 C35.2,2 40.1,1 45.6,0.4 C46.8,0.3 47.9,1.2 48.1,2.4 C48.2,3.6 47.3,4.7 46.1,4.9 C41,5.4 36.4,6.4 32.5,7.8 C32.2,8 32,8 31.7,8 L31.7,8 Z" id="Shape"></path>
                <path d="M31.7,16.3 C30.8,16.3 29.9,15.7 29.6,14.8 C29.2,13.6 29.8,12.3 30.9,11.9 C35.2,10.3 40.1,9.3 45.6,8.7 C46.8,8.6 47.9,9.5 48.1,10.7 C48.2,11.9 47.3,13 46.1,13.2 C41,13.7 36.4,14.7 32.5,16.1 C32.2,16.3 32,16.3 31.7,16.3 L31.7,16.3 Z" id="Shape"></path>
                <path d="M31.7,24.6 C30.8,24.6 29.9,24 29.6,23.1 C29.2,21.9 29.8,20.6 30.9,20.2 C35.2,18.6 40.1,17.6 45.6,17 C46.8,16.9 47.9,17.8 48.1,19 C48.2,20.2 47.3,21.3 46.1,21.5 C41,22 36.4,23 32.5,24.4 C32.2,24.6 32,24.6 31.7,24.6 L31.7,24.6 Z" id="Shape"></path>
            </g>
        </g>
    </g>
</svg>