<svg xmlns="http://www.w3.org/2000/svg" viewBox="0 0 72.34346 94.9727"><title>Books</title><style>
        path { fill: black; }
        @media (prefers-color-scheme: dark) { path { fill: #fffcf4; } }
    </style>
    <path d="M70.04346,35.0727l-2.9-1.7,1.3-1.1a4.59947,4.59947,0,0,0,1.7-3.6v-8.3a4.6672,4.6672,0,0,0-2.2-3.9l-26.3-15.8a4.51188,4.51188,0,0,0-5.3.4l-34.4,27.7a4.59947,4.59947,0,0,0-1.7,3.6v8.3a4.98187,4.98187,0,0,0,2.2,4l2.9,1.7-1.3,1a4.59949,4.59949,0,0,0-1.7,3.6v8.3a4.83369,4.83369,0,0,0,2.3,4h0l-3.3,3.5a4.48791,4.48791,0,0,0-1.3,3.8l1,8.2a4.42331,4.42331,0,0,0,2.7,3.6l26.9,12a5.8344,5.8344,0,0,0,2.6.6,6.59506,6.59506,0,0,0,4.6-1.9l29.9-30.9a4.8138,4.8138,0,0,0,1.3-3.8l-.7-5.6,2.3-1.8a4.59946,4.59946,0,0,0,1.7-3.6v-8.3A4.93713,4.93713,0,0,0,70.04346,35.0727Zm-36.7-20.8,4.8-3.8a1.79873,1.79873,0,0,1,2.2-.1l13.8,8.3a1.9173,1.9173,0,0,1,.2,3.2l-4.8,3.8a1.96641,1.96641,0,0,1-2.2.2l-13.8-8.4A2.02032,2.02032,0,0,1,33.34346,14.27271Zm-28.9,27.2c-.3-.1-.4-.4-.4-.8v-6.3l24.8,14.9a5.13374,5.13374,0,0,0,2.4.7,5.33873,5.33873,0,0,0,2.9-1l32.3-26.1v5.9a.90783.90783,0,0,1-.3.7l-33.4,27a2.56543,2.56543,0,0,1-3,.2Zm60.6,18.1-29.9,30.9a2.79372,2.79372,0,0,1-3,.6l-26.8-12a1.05727,1.05727,0,0,1-.6-.7l-.7-6.2,26.4,11.8a4.33325,4.33325,0,0,0,1.9.4,4.70557,4.70557,0,0,0,3.3-1.4l16.3-16.8,13-10.5.4,3.3A1.1005,1.1005,0,0,1,65.04346,59.5727Zm3.5-12.2a.90783.90783,0,0,1-.3.7l-33.4,27a2.56541,2.56541,0,0,1-3,.2l-25.3-15.2c-.3-.1-.4-.4-.4-.8v-6.3l24.8,14.9a5.13376,5.13376,0,0,0,2.4.7,4.45071,4.45071,0,0,0,2.9-1l32.4-26.1v5.9Z"/></svg>