<svg xmlns="http://www.w3.org/2000/svg" viewBox="0 0 48 48" width="24" height="24"><title>Chat</title><style>
        path { fill: black; }
        @media (prefers-color-scheme: dark) { path { fill: #fffcf4; } }
    </style>
    <path d="M48,14.3C48,6.4,39.2,0,28.4,0S8.8,6.4,8.8,14.3s8.8,14.3,19.6,14.3a21.19233,21.19233,0,0,0,4.4-.4L41,36l-.2-10.5C45.2,22.8,48,18.8,48,14.3ZM19,16.8a2.5,2.5,0,1,1,2.5-2.5A2.47572,2.47572,0,0,1,19,16.8Zm9.4,0a2.5,2.5,0,1,1,2.5-2.5A2.47572,2.47572,0,0,1,28.4,16.8Zm9.4,0a2.5,2.5,0,1,1,2.5-2.5A2.41609,2.41609,0,0,1,37.8,16.8Z"/><path d="M28.4,30.6C17,30.6,7.6,23.9,6.9,15.5,2.7,18.1,0,22,0,26.4c0,4.5,2.8,8.5,7.3,11.1L7,48l8.1-7.7a21.19233,21.19233,0,0,0,4.4.4c6.9,0,13-2.6,16.5-6.6l-3.9-3.7C30.9,30.5,29.6,30.6,28.4,30.6Z"/></svg>