<svg xmlns="http://www.w3.org/2000/svg" viewBox="0 0 337.54 165.67" width="28" height="28"><path d="M49.03 30.96H31.59v104.47h17.45c10.15-.55 17.36-8.67 17.47-17.41V48.37c-.7-10.36-7.8-17.27-17.48-17.41Zm45.73 87.25c0 18.81-11.61 47.31-48.36 47.25H0V0h47.38c35.44 0 47.36 28.46 47.37 47.28l.01 70.93Zm100.68-88.66h-53.28v38.42h32.57v29.57h-32.57v38.41h53.29v29.57h-62.18a20.2 20.2 0 0 1-20.72-19.67V20.72A20.22 20.22 0 0 1 132.26.03h63.19l-.01 29.52Zm103.64 115.29c-13.2 30.75-36.85 24.63-47.44 0L213.11.04h32.57l29.71 113.72L304.96.04h32.58l-38.46 144.8Z"/></svg>