<svg xmlns="http://www.w3.org/2000/svg" width="28" height="28" viewBox="0 0 28 28"><path d="M14 .542c-.049 0-.073 0-.122-.025A.261.261 0 0 0 14 .542zM10.256 14c0-2.114 1.689-3.831 3.769-3.831s3.768 1.717 3.768 3.831c0 2.115-1.688 3.831-3.768 3.831S10.256 16.115 10.256 14zm.171 0c0 2.015 1.615 3.657 3.598 3.657s3.597-1.642 3.597-3.657-1.615-3.657-3.597-3.657c-2.007 0-3.598 1.642-3.598 3.657z"/><path d="M14.612 14a.6.6 0 0 1-.588.597.6.6 0 0 1-.587-.597.6.6 0 0 1 .587-.597.6.6 0 0 1 .588.597z"/><path d="M7.222 14c0 1.965.807 3.707 2.08 4.975l1.272-1.418.025.025c-.93-.895-1.493-2.164-1.493-3.582 0-2.761 2.202-5 4.918-5 .906 0 1.738.248 2.447.671l.906-1.691a6.696 6.696 0 0 0-3.353-.896c-3.743 0-6.802 3.11-6.802 6.916zm11.696 0c0 2.761-2.202 5-4.894 5-.832 0-1.59-.199-2.275-.572l-.93 1.667a6.683 6.683 0 0 0 3.206.82c3.743 0 6.802-3.109 6.802-6.915 0-1.89-.758-3.607-1.957-4.851l-1.297 1.418A5.005 5.005 0 0 1 18.918 14z"/><path d="M5.069 14a9.182 9.182 0 0 0 2.79 6.592l1.296-1.418a7.136 7.136 0 0 1-2.178-5.15c0-3.955 3.157-7.164 7.048-7.164 1.272 0 2.447.349 3.474.946l.93-1.692a8.769 8.769 0 0 0-4.404-1.17C9.082 4.896 5.069 8.975 5.069 14zm15.978 0c0 3.955-3.156 7.165-7.047 7.165a6.903 6.903 0 0 1-3.328-.846l-.93 1.691A8.824 8.824 0 0 0 14 23.105c4.943 0 8.956-4.08 8.956-9.105a9.095 9.095 0 0 0-2.643-6.443l-1.297 1.418c1.273 1.293 2.031 3.06 2.031 5.025z"/><path d="M23.2 14c0 5.15-4.135 9.354-9.2 9.354a8.97 8.97 0 0 1-4.38-1.12l-.954 1.717c1.59.87 3.401 1.393 5.334 1.393 6.142 0 11.11-5.075 11.11-11.294 0-3.16-1.273-6.02-3.329-8.06l-1.296 1.443C22.173 9.049 23.2 11.413 23.2 14zM2.89 14c0 3.234 1.346 6.145 3.475 8.21l1.297-1.443A9.366 9.366 0 0 1 4.8 14c0-5.15 4.135-9.354 9.2-9.354 1.64 0 3.181.448 4.502 1.22l.93-1.717A10.954 10.954 0 0 0 14 2.706C7.882 2.68 2.89 7.756 2.89 14z"/><path d="M23.25 4.348 21.977 5.74a11.614 11.614 0 0 1 3.426 8.234c0 6.369-5.09 11.543-11.354 11.543A11.13 11.13 0 0 1 8.617 24.1l-.955 1.717a13.124 13.124 0 0 0 6.363 1.666c7.316 0 13.262-6.045 13.262-13.483a13.705 13.705 0 0 0-4.037-9.652zM2.646 14C2.646 7.632 7.736 2.457 14 2.457c2.007 0 3.915.547 5.555 1.493l.905-1.667A12.79 12.79 0 0 0 14.196.566h-.22C6.682.566.785 6.537.712 13.926v.124c0 3.856 1.615 7.338 4.184 9.801l1.321-1.443C4.016 20.27 2.646 17.308 2.646 14z"/></svg>