<svg xmlns="http://www.w3.org/2000/svg" viewBox="0 0 26.617 25.96" width="28" height="28"><path d="M13.308 0C5.955 0 0 5.955 0 13.308c0 5.89 3.81 10.863 9.1 12.627.665.116.915-.283.915-.633 0-.316-.017-1.364-.017-2.478-3.344.615-4.209-.815-4.475-1.564-.15-.383-.799-1.564-1.364-1.88-.466-.25-1.131-.865-.017-.881 1.048-.017 1.797.964 2.046 1.364 1.198 2.013 3.111 1.447 3.876 1.098.117-.865.466-1.448.849-1.78-2.961-.333-6.055-1.48-6.055-6.571 0-1.448.515-2.645 1.364-3.577-.133-.333-.6-1.697.133-3.527 0 0 1.114-.349 3.66 1.364 1.064-.299 2.195-.449 3.327-.449s2.262.15 3.327.45c2.545-1.73 3.66-1.365 3.66-1.365.731 1.83.266 3.194.133 3.527.848.932 1.364 2.113 1.364 3.577 0 5.107-3.111 6.238-6.072 6.57.482.417.898 1.215.898 2.463 0 1.78-.017 3.21-.017 3.66 0 .349.25.765.915.632 5.257-1.764 9.067-6.754 9.067-12.627C26.617 5.955 20.66 0 13.308 0Z"/></svg>