<svg xmlns="http://www.w3.org/2000/svg" viewBox="0 0 71.016 70.989"><title>Keynote</title><path d="M35.507,0A14.39961,14.39961,0,0,0,21.08,14.31a14.1228,14.1228,0,0,0,3.187,8.86,22.98974,22.98974,0,0,0-11.966,14.7H2.404a2.36286,2.36286,0,1,0,0,4.725H4.333l4.222,26.41a2.44794,2.44794,0,0,0,2.349,1.984H60.112a2.41957,2.41957,0,0,0,2.321-1.984l4.249-26.41h1.93a2.36285,2.36285,0,1,0,0-4.725H67.046V24.455a5.58338,5.58338,0,0,0-5.535-5.534c-.112.028-.252.028-.392.056a4.71335,4.71335,0,1,0-.224,4.612,2.48575,2.48575,0,0,0,.615.083.74234.74234,0,0,1,.811.783V37.87H58.686A22.98732,22.98732,0,0,0,46.72,23.17a14.12274,14.12274,0,0,0,3.187-8.86A14.379,14.379,0,0,0,35.507,0Zm0,4.724a9.5865,9.5865,0,0,1,9.674,9.586,9.423,9.423,0,0,1-3.998,7.714,2.44157,2.44157,0,0,0-.951,2.292,2.36973,2.36973,0,0,0,1.594,1.9A18.50822,18.50822,0,0,1,53.597,37.87H17.39A18.48928,18.48928,0,0,1,29.188,26.216a2.375,2.375,0,0,0,.615-4.192,9.42157,9.42157,0,0,1-3.998-7.714,9.61049,9.61049,0,0,1,9.702-9.586ZM9.086,42.595H61.901L58.098,66.267H12.888Z"/></svg>