<svg xmlns="http://www.w3.org/2000/svg" viewBox="0 0 26.586 14.77" width="28" height="28"><path d="m11.725 13.156-.975-2.65s-1.584 1.767-3.959 1.767c-2.101 0-3.593-1.827-3.593-4.751 0-3.746 1.888-5.086 3.745-5.086 2.68 0 3.533 1.736 4.264 3.96l.974 3.045c.975 2.953 2.802 5.329 8.07 5.329 3.777 0 6.335-1.157 6.335-4.203 0-2.466-1.401-3.745-4.02-4.355l-1.95-.426c-1.34-.304-1.735-.853-1.735-1.766 0-1.036.822-1.645 2.162-1.645 1.462 0 2.254.549 2.375 1.858l3.046-.366C26.22 1.127 24.332 0 21.226 0c-2.74 0-5.42 1.035-5.42 4.355 0 2.07 1.004 3.38 3.532 3.99l2.07.486c1.554.366 2.071 1.005 2.071 1.889 0 1.126-1.096 1.583-3.167 1.583-3.076 0-4.354-1.614-5.085-3.837L14.222 5.42C12.942 1.46 10.902 0 6.852 0 2.375 0 0 2.832 0 7.644c0 4.629 2.375 7.126 6.639 7.126 3.44 0 5.086-1.614 5.086-1.614Z"/></svg>