<svg xmlns="http://www.w3.org/2000/svg" viewBox="0 0 24.582 26.194" width="28" height="28"><path d="M24.483 5.8C24.104 2.984 21.65.766 18.743.336 18.253.264 16.394 0 12.088 0h-.032C7.75 0 6.826.264 6.335.337 3.508.755.926 2.747.3 5.595 0 6.998-.033 8.553.023 9.98c.08 2.045.095 4.087.28 6.124a28.81 28.81 0 0 0 .671 4.017c.595 2.44 3.005 4.471 5.367 5.3a14.393 14.393 0 0 0 7.851.414c.287-.066.57-.144.85-.232.633-.2 1.375-.426 1.92-.821a.062.062 0 0 0 .025-.048V22.76a.059.059 0 0 0-.046-.056.058.058 0 0 0-.025 0c-1.67.399-3.38.599-5.096.596-2.953 0-3.747-1.402-3.974-1.985A6.15 6.15 0 0 1 7.5 19.75a.057.057 0 0 1 .021-.048.057.057 0 0 1 .05-.01 21.43 21.43 0 0 0 5.013.595c.406 0 .81 0 1.217-.011 1.698-.048 3.487-.135 5.158-.46.042-.01.083-.016.119-.027 2.635-.506 5.143-2.094 5.398-6.116.009-.158.033-1.658.033-1.823.001-.558.18-3.96-.026-6.05Zm-4.175 10.153h-2.77V9.167c0-1.429-.596-2.157-1.807-2.157-1.331 0-1.998.862-1.998 2.564v3.715h-2.754V9.574c0-1.702-.668-2.564-2-2.564-1.204 0-1.805.728-1.805 2.157v6.786h-2.77V8.961c0-1.429.365-2.564 1.095-3.405.752-.84 1.74-1.27 2.965-1.27 1.418 0 2.49.545 3.204 1.634l.69 1.158.69-1.158c.714-1.089 1.786-1.634 3.202-1.634 1.224 0 2.211.43 2.966 1.27.729.84 1.093 1.976 1.092 3.405v6.992Z"/></svg>