<svg xmlns="http://www.w3.org/2000/svg" viewBox="0 0 49.99252 41.56"><title>Microphone</title><style>
        path { fill: black; }
        @media (prefers-color-scheme: dark) { path { fill: #fffcf4; } }
    </style>
    <path d="M10.74,0a10.748,10.748,0,0,0-7.6,18.34,10.64667,10.64667,0,0,0,5.35944,2.89917L21.239,8.49957A10.7245,10.7245,0,0,0,10.74,0Z"/><path d="M36.24,29.07,21.82,10.75,10.75,21.82,29.06,36.24a5.10311,5.10311,0,0,0,6,.24l3.37,3.36A5.869,5.869,0,1,0,46.73,31.54L33.52,18.33a2.8885,2.8885,0,0,1-.85-2.06,2.84867,2.84867,0,0,1,.85-2.05,2.98443,2.98443,0,0,1,4.12,0L48.29,24.87a.997.997,0,0,0,1.41-1.41l-10.65-10.66a4.90732,4.90732,0,1,0-6.94,6.94L45.32,32.95a3.88089,3.88089,0,0,1,0,5.48,3.97568,3.97568,0,0,1-5.48,0l-3.37-3.37A5.09472,5.09472,0,0,0,36.24,29.07Z"/></svg>