<svg xmlns="http://www.w3.org/2000/svg" viewBox="0 0 67.80278 100"><path d="M59.50278,6.4h-2.6V5.1a5.12147,5.12147,0,0,0-5.1-5.1h-50.9a.89626.89626,0,0,0-.9.9V76.1c0,1.6-.1,2.6.9,3.5l11.4,10a2.732,2.732,0,0,0,1.9.8h3.6V100l7.1-8.7,7,8.7V90.4h27.5a8.3861,8.3861,0,0,0,8.4-8.4V14.7A8.27955,8.27955,0,0,0,59.50278,6.4Zm-43.9,77.5-7.3-6.4h9.5v6.4Zm45.7-1.8a1.89871,1.89871,0,0,1-1.9,1.9h-27.5V77.6h19.8a5.12147,5.12147,0,0,0,5.1-5.1V12.9h2.6a1.79252,1.79252,0,0,1,1.8,1.8V82.1Z"/><path d="M14.40278,90.4h0Z"/></svg>