<svg xmlns="http://www.w3.org/2000/svg" viewBox="0 0 26.803 26.516" width="28" height="28"><path d="M0 21.13V5.386C0 2.403 2.429 0 5.444 0h15.914c3.015 0 5.444 2.403 5.444 5.386v7.623c0 2.983-2.429 5.386-5.444 5.386h-3.099v2.735c0 2.983-2.429 5.386-5.444 5.386H5.444C2.429 26.516 0 24.113 0 21.13ZM8.376 8.369H1.424V5.303c0-2.154 1.759-3.977 4.02-3.977h2.932v7.043Zm12.983 8.701h-2.931V9.944h6.952v3.149c0 2.154-1.759 3.977-4.02 3.977Zm-8.543 8.121H9.884v-6.546h6.952v2.569c0 2.154-1.759 3.977-4.02 3.977ZM9.884 17.07h6.952V9.944H9.884v7.126Zm8.543-8.701h6.952V5.386c0-2.237-1.843-3.977-4.02-3.977h-2.931V8.37Zm-1.592 0H9.883V1.326h6.952v7.043ZM1.34 18.561v2.569c0 2.237 1.843 3.977 4.02 3.977h3.015v-6.546H1.34Zm7.036-1.492H1.34V9.943h7.036v7.126Z" style="fill-rule:evenodd"/></svg>