<?xml version="1.0" encoding="utf-8"?>
<!-- Generator: Adobe Illustrator 27.9.0, SVG Export Plug-In . SVG Version: 6.00 Build 0)  -->
<svg version="1.1" id="Icon" xmlns="http://www.w3.org/2000/svg" xmlns:xlink="http://www.w3.org/1999/xlink" x="0px" y="0px"
	 viewBox="0 0 48 48" style="enable-background:new 0 0 48 48;" xml:space="preserve">
<style type="text/css">
	.st0{display:none;fill-rule:evenodd;clip-rule:evenodd;fill:url(#SVGID_1_);}
	.st1{display:none;fill:#E8621D;}
</style>
<linearGradient id="SVGID_1_" gradientUnits="userSpaceOnUse" x1="24" y1="50" x2="24" y2="2" gradientTransform="matrix(1 0 0 -1 0 50)">
	<stop  offset="0" style="stop-color:#F2A833"/>
	<stop  offset="1" style="stop-color:#E8621D"/>
</linearGradient>
<path class="st0" d="M48,42c0,3.3-2.7,6-6,6H6c-3.3,0-6-2.7-6-6V6c0-3.3,2.7-6,6-6h36c3.3,0,6,2.7,6,6V42z"/>
<path class="st1" d="M10,8.5c0,0,27.3-1.3,29.4,27.4h-5.5c0,0,1.1-21-23.9-22.8C10,13.1,10,8.5,10,8.5z"/>
<path class="st1" d="M10,18c0,0,16-0.5,19.1,17.9h-5.5c0,0-0.7-10.9-13.6-13.3C10,22.6,10,18,10,18z"/>
<path class="st1" d="M13,30c1.9,0,3.5,1.6,3.5,3.5c0,1.9-1.6,3.5-3.5,3.5c-1.9,0-3.5-1.6-3.5-3.5C9.5,31.6,11.1,30,13,30z"/>
<path d="M10,9.6c0,0,27.3-1.3,29.4,27.4h-5.5c0,0,1.1-21-23.9-22.8C10,14.2,10,9.6,10,9.6z"/>
<path d="M10,19.1c0,0,16-0.5,19.1,17.9h-5.5c0,0-0.7-10.9-13.6-13.3C10,23.7,10,19.1,10,19.1z"/>
<path d="M13,31.1c1.9,0,3.5,1.6,3.5,3.5c0,1.9-1.6,3.5-3.5,3.5c-1.9,0-3.5-1.6-3.5-3.5C9.5,32.7,11.1,31.1,13,31.1z"/>
</svg>
