<svg width="24" height="23" preserveAspectRatio="xMidYMid" viewBox="0 0 24 23" xmlns="http://www.w3.org/2000/svg"><path fill-rule="evenodd" clip-rule="evenodd" d="M24 21.194V22.4H13.227v-1.206c1.801-.032 2.686-.412 2.686-1.428 0-.349-.131-.762-.296-1.238l-1.214-2.957H6.017a775.27 775.27 0 01-1.3 3.275c-.787 1.927.293 2.162 2.147 2.347l.011.001h.002L6.875 22.4H0v-1.206c.883-.159 1.604-.316 1.898-1.174L8.906 2.506 7.857 0h5.927l8.285 20.02c.146.396.4.65.733.824.331.175.74.27 1.198.35zm-10.105-8.226l-3.218-8.252c-.528 1.408-1.901 5.067-3.098 8.252h6.316z"/></svg>