<svg width="82" height="65" viewBox="0 0 82 65" xmlns="http://www.w3.org/2000/svg"><style></style><g transform="translate(1)" fill="#000" fill-rule="evenodd"><path d="M40 64.5c-2.4 0-5.7-1.3-6.8-4H3.9c-2.3 0-4.2-1.9-4.2-4.2v-45c0-2.3 1.9-4.2 4.2-4.2h6c1.2 0 2.2 1 2.2 2.2 0 1.2-1 2.2-2.2 2.2H4.1V56H35c1.2 0 2.2 1 2.2 2.2 0 1.6 2.7 1.8 2.8 1.8.3 0 2.8 0 2.8-1.8 0-1.2 1-2.2 2.2-2.2h30.9V11.5H70c-1.2 0-2.2-1-2.2-2.2 0-1.2 1-2.2 2.2-2.2h6.1c2.3 0 4.2 1.9 4.2 4.2v45c0 2.3-1.9 4.2-4.2 4.2H46.8c-1 2.8-4 4-6.8 4z" id="Shape"/><g id="Group" transform="translate(8)"><path d="M31.7 55.4c-.5 0-1.1-.2-1.5-.6-.1-.1-8-6.6-28.2-6.6-1.2 0-2.2-1-2.2-2.2V2.2C-.2 1 .8 0 2 0c22.3 0 30.9 7.4 31.2 7.7.5.4.8 1 .8 1.7v43.8c0 .9-.5 1.7-1.3 2.1-.3 0-.6.1-1 .1zM4.3 43.8c13 .3 21 3.2 25.2 5.3V10.5c-2.3-1.5-9.9-5.6-25.2-6v39.3z" id="Shape"/><path d="M32.3 55.4c-.6 0-1.2-.3-1.7-.8-.8-.9-.7-2.3.2-3.2.3-.3 8.3-7.2 29-7.7V4.5C41 5 33.8 11 33.7 11.1c-.9.8-2.4.7-3.2-.2-.8-.9-.7-2.3.2-3.2.4-.3 9-7.7 31.3-7.7 1.2 0 2.2 1 2.2 2.2V46c0 1.2-1 2.2-2.2 2.2-20.4 0-28.2 6.5-28.2 6.6-.5.4-1 .6-1.5.6z" id="Shape"/></g><g id="Group" transform="translate(16 9)"><path d="M16.3 8c-.3 0-.5 0-.8-.1C11.6 6.5 7 5.5 1.9 5 .7 4.9-.2 3.8-.1 2.5 0 1.2 1.1.4 2.4.5c5.5.5 10.5 1.6 14.7 3.2 1.2.4 1.8 1.7 1.3 2.9-.3.9-1.2 1.4-2.1 1.4zM16.3 16.3c-.3 0-.5 0-.8-.1-3.9-1.4-8.5-2.4-13.6-2.9-1.2-.1-2.1-1.2-2-2.5.1-1.3 1.2-2.1 2.5-2 5.5.5 10.5 1.6 14.7 3.2 1.2.4 1.8 1.7 1.3 2.9-.3.9-1.2 1.4-2.1 1.4zM16.3 24.6c-.3 0-.5 0-.8-.1-3.9-1.4-8.5-2.4-13.6-2.9-1.2-.1-2.1-1.2-2-2.5.1-1.3 1.2-2.1 2.5-2 5.5.5 10.5 1.6 14.7 3.2 1.2.4 1.8 1.7 1.3 2.9-.3.8-1.2 1.4-2.1 1.4zM31.7 8c-.9 0-1.8-.6-2.1-1.5-.4-1.2.2-2.5 1.3-2.9C35.2 2 40.1 1 45.6.4c1.2-.1 2.3.8 2.5 2 .1 1.2-.8 2.3-2 2.5-5.1.5-9.7 1.5-13.6 2.9-.3.2-.5.2-.8.2zM31.7 16.3c-.9 0-1.8-.6-2.1-1.5-.4-1.2.2-2.5 1.3-2.9 4.3-1.6 9.2-2.6 14.7-3.2 1.2-.1 2.3.8 2.5 2 .1 1.2-.8 2.3-2 2.5-5.1.5-9.7 1.5-13.6 2.9-.3.2-.5.2-.8.2zM31.7 24.6c-.9 0-1.8-.6-2.1-1.5-.4-1.2.2-2.5 1.3-2.9 4.3-1.6 9.2-2.6 14.7-3.2 1.2-.1 2.3.8 2.5 2 .1 1.2-.8 2.3-2 2.5-5.1.5-9.7 1.5-13.6 2.9-.3.2-.5.2-.8.2z" id="Shape"/></g></g></svg>