<svg xmlns="http://www.w3.org/2000/svg" viewBox="0 0 72.343 94.973"><style>@media (prefers-color-scheme:dark){path{fill:#fffcf4}}</style><path d="M70.043 35.073l-2.9-1.7 1.3-1.1a4.6 4.6 0 001.7-3.6v-8.3a4.667 4.667 0 00-2.2-3.9l-26.3-15.8a4.512 4.512 0 00-5.3.4l-34.4 27.7a4.6 4.6 0 00-1.7 3.6v8.3a4.982 4.982 0 002.2 4l2.9 1.7-1.3 1a4.6 4.6 0 00-1.7 3.6v8.3a4.834 4.834 0 002.3 4l-3.3 3.5a4.488 4.488 0 00-1.3 3.8l1 8.2a4.423 4.423 0 002.7 3.6l26.9 12a5.834 5.834 0 002.6.6 6.595 6.595 0 004.6-1.9l29.9-30.9a4.814 4.814 0 001.3-3.8l-.7-5.6 2.3-1.8a4.6 4.6 0 001.7-3.6v-8.3a4.937 4.937 0 00-2.3-4zm-36.7-20.8l4.8-3.8a1.799 1.799 0 012.2-.1l13.8 8.3a1.917 1.917 0 01.2 3.2l-4.8 3.8a1.966 1.966 0 01-2.2.2l-13.8-8.4a2.02 2.02 0 01-.2-3.2zm-28.9 27.2c-.3-.1-.4-.4-.4-.8v-6.3l24.8 14.9a5.134 5.134 0 002.4.7 5.339 5.339 0 002.9-1l32.3-26.1v5.9a.908.908 0 01-.3.7l-33.4 27a2.565 2.565 0 01-3 .2zm60.6 18.1l-29.9 30.9a2.794 2.794 0 01-3 .6l-26.8-12a1.057 1.057 0 01-.6-.7l-.7-6.2 26.4 11.8a4.333 4.333 0 001.9.4 4.706 4.706 0 003.3-1.4l16.3-16.8 13-10.5.4 3.3a1.1 1.1 0 01-.3.6zm3.5-12.2a.908.908 0 01-.3.7l-33.4 27a2.565 2.565 0 01-3 .2l-25.3-15.2c-.3-.1-.4-.4-.4-.8v-6.3l24.8 14.9a5.134 5.134 0 002.4.7 4.45 4.45 0 002.9-1l32.4-26.1v5.9z"/></svg>