<svg xmlns="http://www.w3.org/2000/svg" width="82" height="65" viewBox="0 0 82 65"><title>Book</title><g fill="none" fill-rule="evenodd" style="fill:#000"><path d="M41 64.5c-2.4 0-5.7-1.3-6.8-4H4.9c-2.3 0-4.2-1.9-4.2-4.2v-45C.7 9 2.6 7.1 4.9 7.1h6c1.2 0 2.2 1 2.2 2.2s-1 2.2-2.2 2.2H5.1V56H36c1.2 0 2.2 1 2.2 2.2 0 1.6 2.7 1.8 2.8 1.8.3 0 2.8 0 2.8-1.8 0-1.2 1-2.2 2.2-2.2h30.9V11.5H71c-1.2 0-2.2-1-2.2-2.2s1-2.2 2.2-2.2h6.1c2.3 0 4.2 1.9 4.2 4.2v45c0 2.3-1.9 4.2-4.2 4.2H47.8c-1 2.8-4 4-6.8 4"/><path d="M40.7 55.4c-.5 0-1.1-.2-1.5-.6-.1-.1-8-6.6-28.2-6.6-1.2 0-2.2-1-2.2-2.2V2.2C8.8 1 9.8 0 11 0c22.3 0 30.9 7.4 31.2 7.7.5.4.8 1 .8 1.7v43.8c0 .9-.5 1.7-1.3 2.1-.3 0-.6.1-1 .1M13.3 43.8c13 .3 21 3.2 25.2 5.3V10.5c-2.3-1.5-9.9-5.6-25.2-6z"/><path d="M41.3 55.4c-.6 0-1.2-.3-1.7-.8-.8-.9-.7-2.3.2-3.2.3-.3 8.3-7.2 29-7.7V4.5C50 5 42.8 11 42.7 11.1c-.9.8-2.4.7-3.2-.2s-.7-2.3.2-3.2c.4-.3 9-7.7 31.3-7.7 1.2 0 2.2 1 2.2 2.2V46c0 1.2-1 2.2-2.2 2.2-20.4 0-28.2 6.5-28.2 6.6q-.75.6-1.5.6M33.3 17c-.3 0-.5 0-.8-.1-3.9-1.4-8.5-2.4-13.6-2.9-1.2-.1-2.1-1.2-2-2.5s1.2-2.1 2.5-2c5.5.5 10.5 1.6 14.7 3.2 1.2.4 1.8 1.7 1.3 2.9-.3.9-1.2 1.4-2.1 1.4M33.3 25.3c-.3 0-.5 0-.8-.1-3.9-1.4-8.5-2.4-13.6-2.9-1.2-.1-2.1-1.2-2-2.5s1.2-2.1 2.5-2c5.5.5 10.5 1.6 14.7 3.2 1.2.4 1.8 1.7 1.3 2.9-.3.9-1.2 1.4-2.1 1.4M33.3 33.6c-.3 0-.5 0-.8-.1-3.9-1.4-8.5-2.4-13.6-2.9-1.2-.1-2.1-1.2-2-2.5s1.2-2.1 2.5-2c5.5.5 10.5 1.6 14.7 3.2 1.2.4 1.8 1.7 1.3 2.9-.3.8-1.2 1.4-2.1 1.4"/><path d="M48.7 17c-.9 0-1.8-.6-2.1-1.5-.4-1.2.2-2.5 1.3-2.9 4.3-1.6 9.2-2.6 14.7-3.2 1.2-.1 2.3.8 2.5 2 .1 1.2-.8 2.3-2 2.5-5.1.5-9.7 1.5-13.6 2.9-.3.2-.5.2-.8.2M48.7 25.3c-.9 0-1.8-.6-2.1-1.5-.4-1.2.2-2.5 1.3-2.9 4.3-1.6 9.2-2.6 14.7-3.2 1.2-.1 2.3.8 2.5 2 .1 1.2-.8 2.3-2 2.5-5.1.5-9.7 1.5-13.6 2.9-.3.2-.5.2-.8.2M48.7 33.6c-.9 0-1.8-.6-2.1-1.5-.4-1.2.2-2.5 1.3-2.9 4.3-1.6 9.2-2.6 14.7-3.2 1.2-.1 2.3.8 2.5 2 .1 1.2-.8 2.3-2 2.5-5.1.5-9.7 1.5-13.6 2.9-.3.2-.5.2-.8.2"/></g></svg>