<svg xmlns="http://www.w3.org/2000/svg" viewBox="0 0 48 48" width="24" height="24"><style>path{fill:#000}@media (prefers-color-scheme:dark){path{fill:#fffcf4}}</style><path d="M48 14.3C48 6.4 39.2 0 28.4 0S8.8 6.4 8.8 14.3s8.8 14.3 19.6 14.3a21.192 21.192 0 004.4-.4L41 36l-.2-10.5c4.4-2.7 7.2-6.7 7.2-11.2zm-29 2.5a2.5 2.5 0 112.5-2.5 2.476 2.476 0 01-2.5 2.5zm9.4 0a2.5 2.5 0 112.5-2.5 2.476 2.476 0 01-2.5 2.5zm9.4 0a2.5 2.5 0 112.5-2.5 2.416 2.416 0 01-2.5 2.5z"/><path d="M28.4 30.6C17 30.6 7.6 23.9 6.9 15.5 2.7 18.1 0 22 0 26.4c0 4.5 2.8 8.5 7.3 11.1L7 48l8.1-7.7a21.192 21.192 0 004.4.4c6.9 0 13-2.6 16.5-6.6l-3.9-3.7c-1.2.1-2.5.2-3.7.2z"/></svg>