<svg xmlns="http://www.w3.org/2000/svg" viewBox="0 0 1200 1200"><path d="M600.04 24.852a575.196 575.196 0 00-319.58 96.898A575.117 575.117 0 0068.58 379.87a575.196 575.196 0 00419.138 784.3 575.146 575.146 0 00332.34-32.719 575.176 575.176 0 00258.15-211.84 575.178 575.178 0 0096.941-319.57c-.164-152.48-60.809-298.68-168.62-406.51a575.835 575.835 0 00-406.48-168.68zM64.05 600.042a536.61 536.61 0 01535.99-535.99v1071.9c-142.09-.145-278.33-56.648-378.81-157.12-100.48-100.47-157.01-236.7-157.18-378.79z"/></svg>