<svg width="24" height="20" viewBox="0 0 100 87" xmlns="http://www.w3.org/2000/svg"><style></style><g fill="#000" fill-rule="evenodd"><path d="M81 6c0 3.3-3.15 6-7 6H7c-3.85 0-7-2.7-7-6s3.15-6 7-6h67c3.85 0 7 2.7 7 6zM56 81c0 3.3-3.15 6-7 6H7c-3.85 0-7-2.7-7-6s3.15-6 7-6h42c3.85 0 7 2.7 7 6zM100 24.5c0 3.575-3.15 6.5-7 6.5H7c-3.85 0-7-2.925-7-6.5S3.15 18 7 18h86c3.85 0 7 2.925 7 6.5zM100 43.5c0 3.575-3.15 6.5-7 6.5H7c-3.85 0-7-2.925-7-6.5S3.15 37 7 37h86c3.85 0 7 2.925 7 6.5zM100 62c0 3.3-3.15 6-7 6H7c-3.85 0-7-2.7-7-6s3.15-6 7-6h86c3.85 0 7 2.7 7 6z" id="Shape"/></g></svg>