<svg xmlns="http://www.w3.org/2000/svg" viewBox="0 0 19.589 7.927" width="28" height="28"><path d="M17.576 6.63c-.037.098-.2.149-.324.149-.121 0-.202-.048-.243-.145-.04-.096-.06-.315-.06-.658V3.913c0-.356.017-.578.053-.666.036-.088.114-.132.235-.132.124 0 .29.05.332.15.042.102.064.317.064.648v2c-.013.411-.032.65-.057.716zm-2.581 1.178h1.826l.126-.498c.165.2.347.35.547.45.198.1.496.15.726.15.32 0 .597-.084.83-.252.233-.169.382-.368.445-.597.063-.229.094-.577.094-1.046v-2.19c0-.472-.01-.78-.031-.924s-.083-.291-.187-.442a1.006 1.006 0 00-.451-.351 1.784 1.784 0 00-.7-.125c-.233 0-.531.046-.73.138-.2.092-.38.232-.541.419V0h-1.954v7.808zM5.86 3.716l-.29-1.984A57.785 57.785 0 005.328.068h-2.63v7.808h1.777l.007-5.156.747 5.156h1.266l.709-5.27.006 5.27h1.77V.068H6.33l-.47 3.648zm6.469-2.024c.022.1.034.326.034.679v3.027c0 .52-.034.838-.101.955-.068.117-.247.175-.539.175V1.403c.221 0 .372.024.452.07.08.047.132.12.154.22zm.916 6.104a1.44 1.44 0 00.608-.279c.165-.133.28-.318.345-.554.067-.235.106-.703.106-1.404V2.818c0-.739-.03-1.234-.074-1.486a1.405 1.405 0 00-.338-.686c-.18-.205-.443-.353-.79-.443-.346-.09-.91-.135-1.892-.135H9.697v7.808h2.457c.566-.018.93-.044 1.091-.08zM0 .12h2.028v7.807H0V.119z"/></svg>