<svg xmlns="http://www.w3.org/2000/svg" viewBox="0 0 28 28" width="28" height="28"><path d="M13.455 2.424c3.593 0 4.019.014 5.438.079 1.311.06 2.024.279 2.498.463.584.216 1.113.56 1.547 1.007.447.434.79.962 1.007 1.547.184.474.403 1.186.463 2.498.065 1.42.078 1.845.078 5.437s-.013 4.019-.078 5.438c-.06 1.312-.28 2.024-.463 2.498a4.456 4.456 0 01-2.554 2.554c-.474.184-1.187.403-2.498.463-1.419.065-1.845.079-5.438.079s-4.018-.014-5.437-.079c-1.312-.06-2.024-.279-2.498-.463a4.169 4.169 0 01-1.547-1.007 4.169 4.169 0 01-1.007-1.547c-.184-.474-.403-1.186-.463-2.498-.065-1.42-.079-1.845-.079-5.438s.014-4.018.079-5.437c.06-1.312.279-2.024.463-2.498a4.169 4.169 0 011.007-1.547A4.167 4.167 0 015.52 2.966c.474-.184 1.186-.403 2.498-.463 1.42-.065 1.845-.079 5.437-.079m0-2.424C9.801 0 9.343.015 7.908.081c-1.432.065-2.41.293-3.266.625a6.596 6.596 0 00-2.383 1.552A6.596 6.596 0 00.706 4.642c-.332.855-.56 1.834-.625 3.266C.015 9.343 0 9.8 0 13.455s.015 4.113.081 5.548c.066 1.432.293 2.41.626 3.266a6.596 6.596 0 001.552 2.383 6.595 6.595 0 002.383 1.552c.856.333 1.834.56 3.266.626 1.435.065 1.893.08 5.548.08s4.112-.015 5.547-.08c1.432-.066 2.41-.293 3.266-.626a6.88 6.88 0 003.935-3.935c.333-.856.56-1.834.626-3.266.065-1.435.08-1.893.08-5.548s-.015-4.112-.08-5.547c-.066-1.432-.293-2.41-.626-3.266a6.595 6.595 0 00-1.552-2.384A6.596 6.596 0 0022.27.706c-.856-.332-1.834-.56-3.266-.625C17.568.015 17.11 0 13.455 0z"/><path d="M13.455 6.546a6.91 6.91 0 106.91 6.91 6.91 6.91 0 00-6.91-6.91zm0 11.394a4.485 4.485 0 110-8.97 4.485 4.485 0 010 8.97z"/><circle cx="20.638" cy="6.273" r="1.615"/></svg>