<svg xmlns="http://www.w3.org/2000/svg" viewBox="0 0 71.016 70.989"><style>@media (prefers-color-scheme:dark){path{fill:#fffcf4}}</style><path d="M35.507 0A14.4 14.4 0 0021.08 14.31a14.123 14.123 0 003.187 8.86 22.99 22.99 0 00-11.966 14.7H2.404a2.363 2.363 0 100 4.725h1.929l4.222 26.41a2.448 2.448 0 002.349 1.984h49.208a2.42 2.42 0 002.321-1.984l4.249-26.41h1.93a2.363 2.363 0 100-4.725h-1.566V24.455a5.583 5.583 0 00-5.535-5.534c-.112.028-.252.028-.392.056a4.713 4.713 0 10-.224 4.612 2.486 2.486 0 00.615.083.742.742 0 01.811.783V37.87h-3.635a22.987 22.987 0 00-11.966-14.7 14.123 14.123 0 003.187-8.86A14.379 14.379 0 0035.507 0zm0 4.724a9.586 9.586 0 019.674 9.586 9.423 9.423 0 01-3.998 7.714 2.442 2.442 0 00-.951 2.292 2.37 2.37 0 001.594 1.9A18.508 18.508 0 0153.597 37.87H17.39a18.49 18.49 0 0111.798-11.654 2.375 2.375 0 00.615-4.192 9.422 9.422 0 01-3.998-7.714 9.61 9.61 0 019.702-9.586zM9.086 42.595h52.815l-3.803 23.672h-45.21z"/></svg>