<svg xmlns="http://www.w3.org/2000/svg" viewBox="0 0 49.993 41.56" width="24" height="24"><style>path{fill:#000}@media (prefers-color-scheme:dark){path{fill:#fffcf4}}</style><path d="M10.74 0a10.748 10.748 0 00-7.6 18.34 10.647 10.647 0 005.36 2.9L21.238 8.5A10.725 10.725 0 0010.74 0zM36.24 29.07L21.82 10.75 10.75 21.82l18.31 14.42a5.103 5.103 0 006 .24l3.37 3.36a5.869 5.869 0 108.3-8.3L33.52 18.33a2.889 2.889 0 01-.85-2.06 2.849 2.849 0 01.85-2.05 2.984 2.984 0 014.12 0l10.65 10.65a.997.997 0 001.41-1.41L39.05 12.8a4.907 4.907 0 10-6.94 6.94l13.21 13.21a3.88 3.88 0 010 5.48 3.976 3.976 0 01-5.48 0l-3.37-3.37a5.095 5.095 0 00-.23-5.99z"/></svg>