<svg xmlns="http://www.w3.org/2000/svg" viewBox="0 0 67.803 100"><style>path{fill:#000}@media (prefers-color-scheme:dark){path{fill:#fffcf4}}</style><path d="M59.503 6.4h-2.6V5.1a5.121 5.121 0 00-5.1-5.1H.903a.896.896 0 00-.9.9v75.2c0 1.6-.1 2.6.9 3.5l11.4 10a2.732 2.732 0 001.9.8h3.6v9.6l7.1-8.7 7 8.7v-9.6h27.5a8.386 8.386 0 008.4-8.4V14.7a8.28 8.28 0 00-8.3-8.3zm-43.9 77.5l-7.3-6.4h9.5v6.4zm45.7-1.8a1.899 1.899 0 01-1.9 1.9h-27.5v-6.4h19.8a5.121 5.121 0 005.1-5.1V12.9h2.6a1.793 1.793 0 011.8 1.8v67.4zM14.403 90.4z"/></svg>