<svg xmlns="http://www.w3.org/2000/svg" viewBox="0 0 26.621 18.447" width="28" height="28"><path d="M6.93.065c-2.687.231-4.7 1.045-4.91 1.97-.044.176.033.572.176.99.396 1.167.21 2.586-1.111 8.364C-.158 16.803-.246 17.651.38 18.19c.309.275.32.275 1.805.198.815-.044 2.19-.121 3.038-.165 2.167-.11 2.134-.088 2.3-1.937.22-2.388 1.463-6.559 2.64-8.848 1.233-2.388 3.038-3.664 4.04-2.872.78.605.715 1.684-.276 4.622-.825 2.465-1.001 3.39-.935 4.908.033.98.077 1.156.407 1.772.66 1.232 1.904 2.124 3.4 2.443 1.552.33 3.676.044 5.25-.704 1.629-.77 3.73-2.696 4.347-3.973.319-.65.297-1.288-.066-1.574-.528-.418-.859-.297-1.827.617-.737.682-1.2.913-1.915.913-1.364 0-1.948-.935-1.695-2.773.066-.484.386-1.805.716-2.928.693-2.454.88-3.5.792-4.567-.077-.957-.275-1.474-.814-2.068-.65-.716-1.376-1.035-2.829-1.2-2.41-.286-5.392.902-7.835 3.125l-.671.606.143-.683c.23-1.09.198-2.08-.088-2.443-.473-.594-1.42-.77-3.379-.594z"/></svg>