<svg xmlns="http://www.w3.org/2000/svg" viewBox="0 0 448.003 446.746"><path d="M362.065 172.023c47.523 0 85.938-38.559 85.938-85.941C448.003 38.559 409.59 0 362.065 0s-86.082 38.559-86.082 86.082c0 7.406 1.235 14.477 3.008 21.34l-99.09 50.582c-18.699-22.031-46.531-36.051-77.711-36.051C45.78 121.953 0 167.726 0 224.143c0 56.246 45.777 102.02 102.19 102.02 28.617 0 54.418-11.812 72.93-30.758l65.164 38.715c-2.773 8.453-4.652 17.312-4.652 26.688 0 47.383 38.559 85.938 86.082 85.938s85.938-38.559 85.938-85.938c0-47.523-38.418-86.082-85.938-86.082-24.688 0-46.805 10.547-62.504 27.211l-63.266-37.582a101.633 101.633 0 008.27-40.211c0-11.816-2.102-23.117-5.786-33.676l97.648-49.848c15.793 19.008 39.328 31.398 65.984 31.398l.005.005z"/></svg>