<svg xmlns="http://www.w3.org/2000/svg" width="28" height="28" viewBox="0 0 28 28"><path d="M24.253 8.756C24.69 17.08 18.297 24.182 9.97 24.62a15.086 15.086 0 01-8.86-2.32c2.702.18 5.375-.648 7.507-2.32a5.421 5.421 0 01-4.49-3.64c.802.13 1.62.077 2.4-.154a5.416 5.416 0 01-4.412-5.11 5.412 5.412 0 002.168.387 5.415 5.415 0 01-1.394-6.965 15.084 15.084 0 0010.913 5.572 5.183 5.183 0 013.434-6.48 5.179 5.179 0 015.546 1.682 9.088 9.088 0 003.33-1.317 5.043 5.043 0 01-2.4 2.942 9.095 9.095 0 003.02-.85 5.058 5.058 0 01-2.48 2.71z"/></svg>