<svg xmlns="http://www.w3.org/2000/svg" viewBox="456 256 48 48"><linearGradient id="a" gradientUnits="userSpaceOnUse" x1="351.366" y1="312.875" x2="351.366" y2="301.375" gradientTransform="matrix(4.1667 0 0 -4.1667 -983.994 1559.654)"><stop offset="0" stop-color="#ec9728"/><stop offset="1" stop-color="#df4c18"/></linearGradient><path fill="url(#a)" d="M504 297.928a5.99 5.99 0 0 1-5.989 5.989h-35.938a5.99 5.99 0 0 1-5.99-5.989V261.99a5.99 5.99 0 0 1 5.99-5.99h35.938a5.99 5.99 0 0 1 5.989 5.99v35.938z"/><g fill="#DF4C18"><path d="M488.796 294.601h-20.963v-12.948h2.629v10.331h15.705v-10.331h2.629z"/><path d="M472.302 287.277h12.091v2.614h-12.091zm.116-4.7l12.043 1.064-.23 2.606-12.043-1.064zm12.179.138l-11.636-3.268.714-2.518 11.636 3.269zm1.027-3.268l-10.477-6.006 1.312-2.267 10.478 6.005zm2.049-2.79l-6.995-9.812 2.143-1.514 6.996 9.813zm2.741-1.799l-2.144-11.841 2.586-.464 2.146 11.842z"/></g><g fill="#FFF"><path d="M488.796 296.591h-20.963v-12.947h2.629v10.331h15.705v-10.331h2.629z"/><path d="M472.302 289.268h12.091v2.615h-12.091zm.116-4.701l12.043 1.064-.23 2.606-12.043-1.064zm12.179.138l-11.636-3.267.714-2.519 11.636 3.269zm1.027-3.267l-10.477-6.007 1.312-2.267 10.478 6.005zm2.049-2.791l-6.995-9.812 2.143-1.514 6.996 9.813zm2.741-1.799l-2.144-11.841 2.586-.464 2.146 11.842z"/></g></svg>