<svg xmlns="http://www.w3.org/2000/svg" viewBox="0 0 48 48"><linearGradient id="a" gradientUnits="userSpaceOnUse" x1="24" y1="0" x2="24" y2="48.001"><stop offset="0" stop-color="#9fe8ff"/><stop offset="1" stop-color="#59d6ff"/></linearGradient><path fill-rule="evenodd" clip-rule="evenodd" fill="url(#a)" d="M48 42a6 6 0 01-6 6H6a6 6 0 01-6-6V6a6 6 0 016-6h36a6 6 0 016 6v36z"/><path fill-rule="evenodd" clip-rule="evenodd" fill="#B0F0FF" d="M27.675 19.093s-3.847-.246-1.063-2.619c2.782-2.373 7.037-3.437 10.637-.982 3.602 2.455 3.684 6.056 0 5.646 0 0-1.881 5.483-6.137 10.066-4.255 4.583-9.083 11.946-13.338 3.764-4.255-8.183-2.864-10.311-4.992-14.238 0 0-8.511 1.555-3.846-1.801 4.665-3.354 10.147-6.219 10.474-2.127.328 4.092 1.801 13.748 4.501 13.174 2.701-.572 5.483-6.382 5.729-8.673.245-2.292-1.965-2.21-1.965-2.21z"/><path fill-rule="evenodd" clip-rule="evenodd" fill="#212121" d="M27.675 17.093s-3.847-.246-1.063-2.619c2.782-2.373 7.037-3.437 10.637-.982 3.602 2.455 3.684 6.056 0 5.646 0 0-1.881 5.483-6.137 10.066-4.255 4.583-9.083 11.946-13.338 3.764-4.255-8.183-2.864-10.311-4.992-14.238 0 0-8.511 1.555-3.846-1.801 4.665-3.354 10.147-6.219 10.474-2.127.328 4.092 1.801 13.748 4.501 13.174 2.701-.572 5.483-6.382 5.729-8.673.245-2.292-1.965-2.21-1.965-2.21z"/></svg>