<svg xmlns="http://www.w3.org/2000/svg" viewBox="0 0 40 40"><linearGradient id="a" gradientUnits="userSpaceOnUse" x1="367.1" y1="-410.1" x2="367.1" y2="-458.1" gradientTransform="matrix(.8333 0 0 -.8333 -285.917 -341.75)"><stop offset="0" stop-color="#424140"/><stop offset="1" stop-color="#333332"/></linearGradient><path fill="url(#a)" d="M40 35a5 5 0 01-5 5H5a5 5 0 01-5-5V5a5 5 0 015-5h30a5 5 0 015 5v30z"/><path fill="#30302F" d="M17.816 26.413l-2.927-11.439v9.178h.932v2.261H10.5v-2.261h.931V13.91H10.5v-2.261h7.316l2.394 10.056 2.128-10.056H29.5v2.261h-.931v10.242h.931v2.261h-5.786v-2.261h.931v-9.178l-2.926 11.439z"/><path fill="#FFF" d="M17.816 27.351l-2.927-11.439v9.178h.932v2.261H10.5V25.09h.931V14.848H10.5v-2.261h7.316l2.394 10.057 2.128-10.057H29.5v2.261h-.931V25.09h.931v2.261h-5.786V25.09h.931v-9.178l-2.926 11.439z"/></svg>