<svg xmlns="http://www.w3.org/2000/svg" viewBox="282 372 48 48"><linearGradient id="a" gradientUnits="userSpaceOnUse" x1="24.464" y1="770.423" x2="24.464" y2="766.657" gradientTransform="matrix(12.75 0 0 -12.75 -5.875 10194.875)"><stop offset="0" stop-color="#517fa4"/><stop offset="1" stop-color="#467391"/></linearGradient><path fill="url(#a)" d="M330.086 413.998a6.008 6.008 0 0 1-6.011 6.002h-36.064a6.008 6.008 0 0 1-6.011-6.002v-36.01a6.008 6.008 0 0 1 6.011-6.002h36.064a6.008 6.008 0 0 1 6.011 6.002v36.01z"/><path fill="#467391" d="M316.917 380.371h-21.605a3.644 3.644 0 0 0-3.644 3.644v21.866a3.643 3.643 0 0 0 3.644 3.644h21.605a3.643 3.643 0 0 0 3.644-3.644v-21.866a3.644 3.644 0 0 0-3.644-3.644zm-4.858 14.578a5.952 5.952 0 0 1-5.944 5.945 5.952 5.952 0 0 1-5.945-5.945c0-.986.245-1.913.671-2.733a5.948 5.948 0 0 1 5.274-3.212 5.945 5.945 0 0 1 5.273 3.212c.426.819.671 1.747.671 2.733zm5.248 9.829c0 .825-.669 1.494-1.494 1.494h-19.269a1.494 1.494 0 0 1-1.494-1.494v-12.563h2.465a8.982 8.982 0 0 0-.426 2.733c0 4.976 4.048 9.024 9.024 9.024 4.976 0 9.024-4.048 9.024-9.024 0-.953-.151-1.87-.426-2.733h2.595v12.563zm0-17.266c0 .825-.669 1.494-1.494 1.494h-2.263a1.494 1.494 0 0 1-1.494-1.494v-2.469a1.49 1.49 0 0 1 1.011-1.407h2.745c.825 0 1.494.669 1.494 1.494v2.382z"/><path fill="#FFF" d="M316.917 382.201h-21.605a3.644 3.644 0 0 0-3.644 3.644v21.866a3.643 3.643 0 0 0 3.644 3.644h21.605a3.643 3.643 0 0 0 3.644-3.644v-21.866a3.644 3.644 0 0 0-3.644-3.644zm-4.858 14.578a5.952 5.952 0 0 1-5.944 5.945 5.952 5.952 0 0 1-5.945-5.945c0-.986.245-1.913.671-2.733a5.948 5.948 0 0 1 5.274-3.212 5.945 5.945 0 0 1 5.273 3.212c.426.819.671 1.747.671 2.733zm5.248 9.829c0 .825-.669 1.494-1.494 1.494h-19.269a1.494 1.494 0 0 1-1.494-1.494v-12.563h2.465a8.982 8.982 0 0 0-.426 2.733c0 4.976 4.048 9.024 9.024 9.024 4.976 0 9.024-4.048 9.024-9.024 0-.953-.151-1.87-.426-2.733h2.595v12.563zm0-17.267c0 .825-.669 1.494-1.494 1.494h-2.263a1.494 1.494 0 0 1-1.494-1.494v-2.469a1.49 1.49 0 0 1 1.011-1.407h2.745c.825 0 1.494.669 1.494 1.494v2.382z"/></svg>