<svg version="1.1" id="Icon" xmlns="http://www.w3.org/2000/svg" x="0" y="0" viewBox="0 0 48 48" xml:space="preserve"><style>.st1{display:none;fill:#e8621d}</style><linearGradient id="SVGID_1_" gradientUnits="userSpaceOnUse" x1="24" y1="50" x2="24" y2="2" gradientTransform="matrix(1 0 0 -1 0 50)"><stop offset="0" stop-color="#f2a833"/><stop offset="1" stop-color="#e8621d"/></linearGradient><path class="st1" d="M10 8.5s27.3-1.3 29.4 27.4h-5.5S35 14.9 10 13.1V8.5z"/><path class="st1" d="M10 18s16-.5 19.1 17.9h-5.5S22.9 25 10 22.6V18zM13 30c1.9 0 3.5 1.6 3.5 3.5S14.9 37 13 37s-3.5-1.6-3.5-3.5S11.1 30 13 30z"/><path d="M10 9.6S37.3 8.3 39.4 37h-5.5S35 16 10 14.2V9.6z"/><path d="M10 19.1s16-.5 19.1 17.9h-5.5S22.9 26.1 10 23.7v-4.6zM13 31.1c1.9 0 3.5 1.6 3.5 3.5s-1.6 3.5-3.5 3.5-3.5-1.6-3.5-3.5 1.6-3.5 3.5-3.5z"/></svg>