<svg xmlns="http://www.w3.org/2000/svg" viewBox="0 0 48 48"><linearGradient id="a" gradientUnits="userSpaceOnUse" x1="24" x2="24" y2="48.001"><stop offset="0" stop-color="#41b8d0"/><stop offset="1" stop-color="#256fbb"/></linearGradient><path fill-rule="evenodd" clip-rule="evenodd" fill="url(#a)" d="M48 42a6 6 0 0 1-6 6H6a6 6 0 0 1-6-6V6a6 6 0 0 1 6-6h36a6 6 0 0 1 6 6v36z"/><path fill="#257EAA" d="M13.237 33.891h4.988V16.842h-4.988v17.049zm2.494-23.925c-1.608 0-2.658 1.083-2.625 2.527-.033 1.378 1.018 2.494 2.593 2.494 1.641 0 2.691-1.116 2.691-2.494-.033-1.444-1.051-2.527-2.659-2.527zm15.981 7.115c-1.595 0-3.222-.329-4.956 2.36h-.099l-.087-2.599h-4.417c.065 1.411.074 3.518.074 5.52v11.529h4.988v-9.855c0-.46.065-.919.196-1.248.328-.919 1.149-1.871 2.527-1.871 1.805 0 2.527 1.411 2.527 3.479v9.495h4.988V23.773c.002-4.726-2.46-6.692-5.741-6.692z"/><path fill="#FFF" d="M15.731 11.633c-1.608 0-2.658 1.083-2.625 2.527-.033 1.378 1.018 2.494 2.593 2.494 1.641 0 2.691-1.116 2.691-2.494-.033-1.444-1.051-2.527-2.659-2.527zm-2.494 23.924h4.988V18.508h-4.988v17.049zm18.475-16.809c-1.595 0-3.222-.329-4.956 2.36h-.099l-.087-2.599h-4.417c.065 1.411.074 3.518.074 5.52v11.529h4.988v-9.854c0-.46.065-.919.196-1.248.328-.919 1.149-1.871 2.527-1.871 1.805 0 2.527 1.411 2.527 3.479v9.494h4.988V25.439c.002-4.726-2.46-6.691-5.741-6.691z"/></svg>