<svg xmlns="http://www.w3.org/2000/svg" viewBox="176 76 48 48"><linearGradient id="a" gradientUnits="userSpaceOnUse" x1="71.366" y1="132.875" x2="71.366" y2="121.375" gradientTransform="matrix(4.1667 0 0 -4.1667 -97.318 629.646)"><stop offset="0" stop-color="#f93c2d"/><stop offset="1" stop-color="#d32d20"/></linearGradient><path fill="url(#a)" d="M224 117.928a5.99 5.99 0 01-5.989 5.989h-35.938a5.99 5.99 0 01-5.99-5.989V81.99a5.99 5.99 0 015.99-5.99h35.938A5.99 5.99 0 01224 81.99v35.938z"/><g fill-rule="evenodd" clip-rule="evenodd" fill="#CD2D20"><path d="M200.462 89.261c0 1.92-.019 3.841.01 5.762.011.766-.176 1.481-.988 1.499-.548.012-1.295-.308-1.628-.733-1.356-1.731-2.583-3.562-3.862-5.354-.865-1.213-1.717-2.437-2.609-3.63-1.189-1.591-.895-2.594 1.032-3.172a143.908 143.908 0 015.518-1.53c1.54-.396 2.46.328 2.471 1.893.012 1.755.002 3.51.002 5.265h.054zM186.789 101.04c.182-1.318.28-2.401.494-3.462.22-1.091 1.261-1.536 2.289-1.115 2.239.917 4.517 1.748 6.723 2.737.537.241 1.03.897 1.237 1.471.262.727-.308 1.204-.996 1.436-1.411.473-2.823.938-4.237 1.399-1.074.351-2.159.667-3.227 1.039-.724.254-1.643-.089-1.815-.828-.224-.952-.342-1.932-.468-2.677zM213.985 107.02c-.211.417-.475 1.253-.989 1.882-.881 1.076-1.882 2.064-2.903 3.013-.693.645-1.562.542-2.062-.239-1.432-2.239-2.784-4.531-4.214-6.772-.417-.649-.217-1.234.202-1.594.391-.334 1.117-.63 1.559-.494 2.575.791 5.115 1.701 7.654 2.604.792.28.798.362.753 1.6zM204.498 99.61c-.295-.235-.946-.524-1.177-1.012-.173-.362.072-1.072.353-1.472a124.214 124.214 0 014.058-5.521c1.332-1.705 1.834-1.745 3.238-.19 1.13 1.25 1.937 2.809 2.786 4.287.538.935.135 1.577-.934 1.871-1.728.474-3.438 1.011-5.171 1.459-.916.238-1.864.348-3.153.578zM200.421 109.715c0 1.292.01 2.585-.003 3.877-.01.933-.635 1.546-1.554 1.385-1.874-.33-3.724-.738-5.361-1.818-1.254-.827-1.46-1.688-.506-2.779a390.027 390.027 0 014.642-5.237c.545-.603 1.138-1.027 2.069-.545.545.282.722.601.719 1.144-.007 1.325-.002 2.649-.002 3.975-.001-.002-.003-.002-.004-.002z"/></g><g fill-rule="evenodd" clip-rule="evenodd" fill="#FFF"><path d="M200.462 91.3c0 1.92-.019 3.841.01 5.761.011.766-.176 1.481-.988 1.5-.548.012-1.295-.308-1.628-.734-1.356-1.731-2.583-3.562-3.862-5.354-.865-1.213-1.717-2.437-2.609-3.63-1.189-1.591-.895-2.594 1.032-3.172a143.895 143.895 0 015.518-1.529c1.54-.396 2.46.327 2.471 1.893.012 1.755.002 3.51.002 5.266l.054-.001zM186.789 103.079c.182-1.318.28-2.401.494-3.462.22-1.091 1.261-1.536 2.289-1.115 2.239.917 4.517 1.749 6.723 2.737.537.241 1.03.896 1.237 1.472.262.727-.308 1.204-.996 1.436-1.411.473-2.823.938-4.237 1.399-1.074.351-2.159.667-3.227 1.039-.724.254-1.643-.09-1.815-.828-.224-.954-.342-1.934-.468-2.678zM213.985 109.058c-.211.418-.475 1.254-.989 1.883-.881 1.076-1.882 2.063-2.903 3.013-.693.644-1.562.541-2.062-.239-1.432-2.239-2.784-4.531-4.214-6.772-.417-.65-.217-1.234.202-1.594.391-.334 1.117-.63 1.559-.495 2.575.792 5.115 1.702 7.654 2.604.792.281.798.362.753 1.6zM204.498 101.648c-.295-.235-.946-.523-1.177-1.012-.173-.362.072-1.072.353-1.472a124.214 124.214 0 014.058-5.521c1.332-1.705 1.834-1.745 3.238-.19 1.13 1.249 1.937 2.808 2.786 4.287.538.935.135 1.577-.934 1.871-1.728.474-3.438 1.01-5.171 1.459-.916.239-1.864.349-3.153.578zM200.421 111.754c0 1.292.01 2.584-.003 3.877-.01.933-.635 1.546-1.554 1.385-1.874-.33-3.724-.738-5.361-1.818-1.254-.827-1.46-1.688-.506-2.779a390.027 390.027 0 014.642-5.237c.545-.603 1.138-1.027 2.069-.545.545.282.722.601.719 1.143-.007 1.325-.002 2.65-.002 3.976-.001-.002-.003-.002-.004-.002z"/></g></svg>