<svg xmlns="http://www.w3.org/2000/svg" viewBox="-14 -14 48 48"><linearGradient id="a" gradientUnits="userSpaceOnUse" x1="90.053" y1="-99.76" x2="90.053" y2="-106.381" gradientTransform="matrix(7.2338 0 0 -7.2338 -641.5 -735.562)"><stop offset="0" stop-color="#4b71b8"/><stop offset="1" stop-color="#293f7e"/></linearGradient><path fill="url(#a)" d="M33.931 27.993c0 3.304-2.689 5.983-6.002 5.983H-8.082c-3.315 0-6.001-2.683-6.001-5.983V-7.928c0-3.308 2.687-5.988 6.001-5.988h36.011c3.312 0 6.002 2.681 6.002 5.988v35.921z"/><path fill="#FFF" d="M25.613-4.557h-6.166c-3.662 0-7.732 1.535-7.732 6.835.019 1.845 0 3.613 0 5.603H7.481v6.728h4.366v19.37h8.021V14.48h5.295l.479-6.618h-5.913s.016-2.946 0-3.8c0-2.093 2.184-1.974 2.312-1.974 1.042 0 3.059.003 3.578 0v-6.646h-.006z"/></svg>