<svg xmlns="http://www.w3.org/2000/svg" viewBox="176 76 48 48"><linearGradient id="a" gradientUnits="userSpaceOnUse" x1="71.366" y1="132.875" x2="71.366" y2="121.375" gradientTransform="matrix(4.1667 0 0 -4.1667 -97.318 629.646)"><stop offset="0" stop-color="#e01257"/><stop offset="1" stop-color="#b50f39"/></linearGradient><path fill="url(#a)" d="M224 117.928a5.99 5.99 0 0 1-5.989 5.989h-35.938a5.99 5.99 0 0 1-5.99-5.989V81.99a5.99 5.99 0 0 1 5.99-5.99h35.938A5.99 5.99 0 0 1 224 81.99v35.938z"/><path fill-rule="evenodd" clip-rule="evenodd" fill="#B50F39" d="M199.366 102.304c.63.481 1.204.931 1.792 1.36.216.159.225.271.055.482-1.282 1.62-2.878 2.78-4.84 3.406-1.443.459-2.935.579-4.408.315-3.042-.543-5.386-2.11-6.852-4.953-.994-1.929-1.279-3.974-.958-6.061.507-3.306 2.273-5.759 5.299-7.208 1.822-.873 3.777-1.043 5.714-.719 3.104.52 5.405 2.327 6.859 5.117.981 1.88 1.762 3.867 2.628 5.807.519 1.164.969 2.362 1.558 3.486.77 1.465 2.415 2.314 4.193 1.984 1.062-.196 1.979-.562 2.543-1.536.826-1.431.259-3.255-1.254-3.89-.877-.366-1.815-.581-2.715-.897-1.602-.562-2.996-1.415-3.848-2.971-.475-.869-.633-1.806-.566-2.797.064-.955.275-1.852.859-2.625.808-1.073 1.902-1.629 3.214-1.738.854-.071 1.705-.114 2.551.15 1.411.44 2.366 1.387 3.021 2.679.036.073-.047.285-.131.333-.608.342-1.227.668-1.856.97-.071.034-.279-.086-.341-.187-.312-.509-.672-.947-1.23-1.208-.858-.398-2.305-.223-2.957.363-.577.518-.585 1.206-.538 1.88.099 1.425 1.141 2.057 2.277 2.518.868.352 1.799.544 2.679.869 1.766.651 3.072 1.78 3.588 3.691.807 2.992-.854 5.75-3.573 6.653-1.234.409-2.494.54-3.757.293-1.837-.357-3.32-1.338-4.239-2.995-.67-1.211-1.165-2.521-1.74-3.785-.916-2.011-1.759-4.06-2.772-6.018-.838-1.618-2.192-2.759-3.937-3.336-1.496-.494-2.996-.463-4.497.052-1.943.667-3.288 1.972-4.055 3.869-.416 1.027-.519 2.119-.466 3.235a6.84 6.84 0 0 0 1.426 3.916c.894 1.174 2.076 1.926 3.485 2.296 3.04.799 5.527-.131 7.538-2.51.072-.086.147-.17.251-.29z"/><path fill-rule="evenodd" clip-rule="evenodd" fill="#FFF" d="M199.366 104.304c.63.481 1.204.931 1.792 1.36.216.159.225.271.055.482-1.282 1.62-2.878 2.78-4.84 3.406-1.443.459-2.935.579-4.408.315-3.042-.543-5.386-2.11-6.852-4.953-.994-1.929-1.279-3.974-.958-6.061.507-3.306 2.273-5.759 5.299-7.208 1.822-.873 3.777-1.043 5.714-.719 3.104.52 5.405 2.327 6.859 5.117.981 1.88 1.762 3.867 2.628 5.807.519 1.164.969 2.362 1.558 3.486.77 1.465 2.415 2.314 4.193 1.984 1.062-.196 1.979-.562 2.543-1.536.826-1.431.259-3.255-1.254-3.89-.877-.366-1.815-.581-2.715-.897-1.602-.562-2.996-1.415-3.848-2.971-.475-.869-.633-1.806-.566-2.797.064-.955.275-1.852.859-2.625.808-1.073 1.902-1.629 3.214-1.738.854-.071 1.705-.114 2.551.15 1.411.44 2.366 1.387 3.021 2.679.036.073-.047.285-.131.333-.608.342-1.227.668-1.856.97-.071.034-.279-.086-.341-.187-.312-.509-.672-.947-1.23-1.208-.858-.398-2.305-.223-2.957.363-.577.518-.585 1.206-.538 1.88.099 1.425 1.141 2.057 2.277 2.518.868.352 1.799.544 2.679.869 1.766.651 3.072 1.78 3.588 3.691.807 2.992-.854 5.75-3.573 6.653-1.234.409-2.494.54-3.757.293-1.837-.357-3.32-1.338-4.239-2.995-.67-1.211-1.165-2.521-1.74-3.785-.916-2.011-1.759-4.06-2.772-6.018-.838-1.618-2.192-2.759-3.937-3.336-1.496-.494-2.996-.463-4.497.052-1.943.667-3.288 1.972-4.055 3.869-.416 1.027-.519 2.119-.466 3.235a6.84 6.84 0 0 0 1.426 3.916c.894 1.174 2.076 1.926 3.485 2.296 3.04.799 5.527-.131 7.538-2.51.072-.086.147-.17.251-.29z"/></svg>