<svg xmlns="http://www.w3.org/2000/svg" viewBox="0 0 48 48"><linearGradient id="a" gradientUnits="userSpaceOnUse" x1="24" y1="0" x2="24" y2="48.001"><stop offset="0" stop-color="#4bd0ef"/><stop offset="1" stop-color="#29aae1"/></linearGradient><path fill-rule="evenodd" clip-rule="evenodd" fill="url(#a)" d="M48 42a6 6 0 01-6 6H6a6 6 0 01-6-6V6a6 6 0 016-6h36a6 6 0 016 6v36z"/><path fill="#29AAE1" d="M40.231 13.413a12.47 12.47 0 01-3.588.984 6.267 6.267 0 002.747-3.457 12.48 12.48 0 01-3.968 1.516 6.238 6.238 0 00-4.56-1.972 6.246 6.246 0 00-6.246 6.247c0 .49.055.966.161 1.424a17.739 17.739 0 01-12.876-6.528 6.217 6.217 0 00-.846 3.141 6.242 6.242 0 002.779 5.199 6.22 6.22 0 01-2.83-.781v.079a6.25 6.25 0 005.011 6.125 6.328 6.328 0 01-2.822.109 6.256 6.256 0 005.835 4.338 12.538 12.538 0 01-9.249 2.586 17.679 17.679 0 009.576 2.808c11.49 0 17.774-9.519 17.774-17.774 0-.271-.006-.54-.019-.809a12.664 12.664 0 003.121-3.235z"/><path fill="#FFF" d="M40.231 14.739a12.47 12.47 0 01-3.588.984 6.265 6.265 0 002.747-3.456 12.48 12.48 0 01-3.968 1.516 6.238 6.238 0 00-4.56-1.972 6.246 6.246 0 00-6.246 6.247c0 .489.055.966.161 1.424a17.738 17.738 0 01-12.876-6.527 6.217 6.217 0 00-.846 3.141 6.244 6.244 0 002.779 5.199 6.22 6.22 0 01-2.83-.781v.079a6.25 6.25 0 005.011 6.125 6.328 6.328 0 01-2.822.109 6.255 6.255 0 005.835 4.338 12.532 12.532 0 01-9.249 2.586 17.679 17.679 0 009.576 2.808c11.49 0 17.774-9.519 17.774-17.774 0-.271-.006-.54-.019-.808a12.725 12.725 0 003.121-3.238z"/></svg>