<svg xmlns="http://www.w3.org/2000/svg" viewBox="0 0 375.99997 454.66344"><style>
        svg { background-color: white; } path { fill: black; }
        @media (prefers-color-scheme: dark) { svg { background-color: #454545; } path { fill: #fffcf4; } }
    </style>
    <path d="M464.6,73.2c-2,18.6-10.3,37.6-21.9,50.6-9,10-14.6,14.4-26.5,20.6l-9.1,4.6-3.1-4.5c-5.8-8.4-13.1-16.5-14.8-16.5a7.95857,7.95857,0,0,0-3.8,1.5c-2.9,2.2-3.2,1.8-2.1-2.3.6-2.2.8-4.6.5-5.4-1-2.5-13.7-11.5-22.8-16.2a112.29345,112.29345,0,0,0-40-12.2,41.12972,41.12972,0,0,1-11.6-3c-6.4-3-9.9-3-15.5-.1A34.04569,34.04569,0,0,1,283,93.4c-19.6,2.2-41.2,11.1-57.8,23.8-7.4,5.7-19.9,19.1-25.7,27.6-2.6,4-5.5,7.2-6.3,7.2-2.8,0-17.3-8.5-22.7-13.3-7.4-6.5-20-21.7-23-27.7-2.8-5.5-10.6-27.9-12.5-35.8-.8-3.3-1.7-5.2-2.7-5.2-2.3,0-11.7,9.5-14.6,14.8-3.3,6-5.7,15.9-5.7,23.2,0,11.6,4.5,33,9.7,46,7.7,19.3,26.3,43.5,42.1,54.7,4.4,3.2,6.1,5,5.8,6.2-3.4,11.3-7.6,40.4-7.6,52.9v7.3l6.3-.6c5.6-.4,23.2-1.7,42.7-3,75.4-5.1,121.8-4.6,213.5,2.5,6.6.5,12.3,1,12.8,1,2.5.1-.8-38-5-57.8-.8-4-1.4-7.4-1.2-7.6.2-.1,3.3-2.3,6.9-4.8,12-8.5,25.5-24.2,35.5-41.3,10-17.2,14.5-32.4,14.5-49.6,0-12-1.4-18-6.7-28.1C478.1,79.6,467.8,67,466.00005,67,465.6,67,465.00005,69.8,464.6,73.2ZM133,87c4.4,15,10.1,28,15.2,34.8,13.7,18.1,22.5,25.6,38.7,33.4l8.4,4-.6,6.9c-.5,5.4-1.6,9.1-5.2,16.7-4.9,10.5-14.3,25.2-16,25.2-2.4,0-11.4-6.7-18.1-13.4-8.4-8.4-14.7-16.9-21.9-29.1-6.3-10.9-8.7-17-12-30-5-19.7-5.1-35.2-.3-45.7,2.8-6.1,7.7-12.3,8.8-11.1.4.4,1.7,4.2,3,8.3Zm344,2.1c5.1,9.9,6.3,16.1,5.7,28.4-1.1,21.9-11.6,44.7-31,67.4-6.1,7.1-16,15.9-21.2,18.7-4.1,2.2-4.9,1.6-10.5-6.6-8.5-12.6-14-26.8-14-36.5,0-5.2.4-5.7,7.2-8.7,20.8-9.5,37.1-24.5,46.3-42.8a131.54276,131.54276,0,0,0,9.1-27.4l.7-4,2.4,3a61.43321,61.43321,0,0,1,5.3,8.5Zm-187.4,25.6c-1,24.9-2.5,61.6-3.6,88.7-.7,18-1.4,25.2-2.2,25.8-.7.4-6.5.8-12.8.8-23.2.1-69.6,5.4-91.8,10.5-8.8,2.1-8.5,2.2-7.8-3.3,1.8-12.8,4.9-23.7,7.7-26.9,6.2-7.1,15.4-23.7,19-34.2a41.669,41.669,0,0,0,1.9-13.1c0-7.6,0-7.7,5.1-14.9,18-25.6,43.5-42.2,73.1-47.6,4-.7,8.4-1.4,9.7-1.4l2.4-.1-.7,15.7Zm44.4-12.5c14.3,3.5,31.2,11.7,41.3,20.1l2.8,2.3-3.5,9c-1.9,4.9-4.6,11.6-6.1,14.9s-3.1,7.1-3.7,8.5c-.5,1.5,4.1-2.5,11.6-9.9l12.4-12.4,6.2,8.5,6.2,8.4.3,10c.2,7,.9,11.6,2.4,15.7a106.77767,106.77767,0,0,0,15.8,28.1l5.5,6.9,2.4,14c1.3,7.7,2.2,14.3,1.9,14.5-.2.2-4.8-.3-10.2-1.2-25.4-4.1-79.6-9.5-96.4-9.6-2.6,0-2.7-.2-3.3-7.8-.3-4.2-1.1-16-1.6-26.2-.6-10.2-1.5-25.7-2-34.5s-1.4-25-2-36c-.5-11-1.2-21.5-1.5-23.4l-.4-3.4,6.7.7a131.20439,131.20439,0,0,1,15.2,2.8Zm-28.6,2c1.5,2.4-.3,5.2-3.7,5.6-3.3.4-5.3-2.8-3.7-5.9,1.4-2.5,5.8-2.3,7.4.3Zm.2,28.3c1.5,2.3,1.5,2.7,0,5-3,4.5-8.6,2.8-8.6-2.7C297.00005,129.9,302.9,128.3,305.60005,132.5Zm-.4,33.2c3.5,3.2,1.3,9.3-3.4,9.3-2.6,0-5.8-2.7-5.8-4.9,0-2.7,3-6.1,5.2-6.1a6.48537,6.48537,0,0,1,4,1.7Zm1,39c2.4,2.8,2.9,5.3,1.6,7.6-1.5,3-2.7,3.7-6.5,3.7-5.6,0-8.4-6.9-4.3-11,2.5-2.5,7.2-2.6,9.2-.3Zm1.3,38.6c5.3,7.5-5.3,14.9-10.8,7.5-1.7-2.3-1.8-3.1-.7-5.7C298.00005,240.1,304.50005,239.1,307.50005,243.3Zm-44.5-.3c2.5,2.5,2.5,5.1.2,8-3.5,4.3-11.2,1.5-11.2-4.1,0-2.7,3.5-5.9,6.5-5.9A7.37885,7.37885,0,0,1,263.00005,243Zm87.5,1.2a6.24984,6.24984,0,0,1,3.2,7.2c-1,2.4-5.5,4.9-7.9,4.3-6.1-1.6-8.2-6.4-4.4-10.2,2.8-2.8,5.2-3.1,9.1-1.3Zm-127.5,2.8a6.91678,6.91678,0,0,1,2,4c0,2.5-3.4,6-5.9,6-1.9,0-6.1-4.3-6.1-6.2,0-1.5,4.8-5.8,6.5-5.8A6.72539,6.72539,0,0,1,223.00005,247Zm165.5.5c3,2.9,3.1,4.9.5,7.5-2.8,2.8-6.6,2.6-8.6-.5s-1.2-6.8,1.8-8.3c3.3-1.5,3.6-1.5,6.3,1.3Zm-204,4.1c3.9,4-1.4,11-6,8-2.7-1.8-3.2-6.6-.9-8.3A4.9755,4.9755,0,0,1,184.5,251.6Zm240.5.3c1.4,2.7,1.3,4.7-.6,6.5a5.05655,5.05655,0,0,1-8-.9c-1.5-2.3-1.5-2.7,0-5,2.1-3.1,7-3.5,8.6-.6ZM157,299.8c0,7.9.1,8.2,2.4,8.2,2.2,0,2.3.4,3,9.3.7,10.8,2.9,20.1,5.4,23.7,4.9,6.9,17.3,8.5,58.2,7.7,28.6-.6,44.3-2.1,51.3-5,7.3-3.1,11.8-11.8,14-27.2,1.2-8.1,1.5-9,3.7-9.6a23.64961,23.64961,0,0,1,12.1.1l3.6,1,.7,7.1c1.1,10.5,4.1,19.4,8.2,23.9,6.9,7.6,19.3,9.4,65.4,9.5,38.5,0,43.5-.6,48.6-6.1,3.7-3.9,6-12.2,6.9-25.7.7-8.4.8-8.7,3.1-8.7s2.4-.2,2.4-8.2v-8.1l-22.7.6c-12.6.4-36.5.9-53.3,1.2s-36.9.8-44.7,1.1c-13.5.6-14.2.7-14.5,2.8-.2,1.3-.9,2-1.8,1.7a84.02255,84.02255,0,0,0-9.2-.3c-6.9,0-7.8-.2-7.8-1.8s-1.4-1.8-14.2-2.4c-7.9-.3-28-.8-44.8-1.1s-40.7-.8-53.2-1.2l-22.8-.6v8.1Zm78.9,4.2c25,.6,45.7,1.2,45.9,1.5.9.9-2.1,18.3-3.8,22.2-2.6,5.9-5.4,7.3-17.8,8.9-24.4,3-76.1,2.7-82.1-.5-1.1-.6-2.4-2.6-3-4.3-1.1-3.3-3.1-19.6-3.1-25.6V303h9.3c5,0,29.6.5,54.6,1Zm193.8,11.2c-.6,13.7-1.8,19.3-4.8,20.8-8.5,4.6-89.4,2.7-95.8-2.2-4-3.2-6.4-10.1-7.7-22.1l-.6-6.7,7.8-.1c4.4-.1,21.2-.5,37.4-.9,16.2-.3,37.3-.7,46.9-.8l17.3-.2-.5,12.2Zm-259.6,48.8c-.4,7.9,6,39.3,8.6,42.2a4.19249,4.19249,0,0,1,.9,3.5c-.3,1.1.3,4.6,1.5,7.9a97.45955,97.45955,0,0,1,2.8,9.5,65.03447,65.03447,0,0,0,2.9,9,96.72306,96.72306,0,0,1,3.2,9.5,16.92085,16.92085,0,0,0,3.5,6.8,25.30246,25.30246,0,0,1,4,6.2c.8,1.9,2.5,3.8,3.9,4.3a8.17984,8.17984,0,0,1,3.7,4.5,8.24469,8.24469,0,0,0,4,4.7c1.5.6,4.8,3.2,7.3,5.7,5.7,5.8,12,11.2,13.3,11.2.5,0,2.2,1.3,3.8,3,1.6,1.6,3.6,3,4.5,3s2.7,1.1,4,2.5,2.9,2.5,3.7,2.5a5.40559,5.40559,0,0,1,3,2,6.16749,6.16749,0,0,0,3.9,2,9.67576,9.67576,0,0,1,4.5,1.7c6.5,4.8,17,10,21.6,10.9a33.27605,33.27605,0,0,1,6.5,2c1.5.8,5.5,1.5,9,1.7,3.6.2,7,.7,7.6,1.1,1.8,1.1,21.4-1.5,23.9-3.1,1.2-.8,2.6-1.2,3.1-.9s2.4-.6,4.2-1.9a12.75167,12.75167,0,0,1,6.1-2.5c1.4,0,4.3-1.2,6.2-2.8,5.7-4.3,10.7-7.2,12.3-7.2.9,0,3.3-1.7,5.5-3.7,6-5.7,7.8-7.3,8.7-7.3.4,0,1.8-1.6,3.2-3.5s3.3-3.7,4.2-4c2.6-.9,8.8-8.3,8.8-10.5,0-1.1.6-2,1.3-2,.8,0,2.2-1.8,3.2-4s2.2-4,2.7-4c.4,0,.8-1.1.8-2.4,0-1.4.5-2.8,1-3.1.6-.4,2.2-3,3.6-5.8a73.7437,73.7437,0,0,1,5.6-9c1.7-2,4.5-8,6.4-13.3,1.9-5.2,4.1-10.8,4.9-12.3a37.56653,37.56653,0,0,0,2.4-8.7c.6-3.3,2.9-12.8,5.1-21.3,3.8-14.8,6-26.2,4.6-25-.3.3-3.7,8.9-7.5,19.1-8,21.4-14,32.4-19.3,35.1-4.9,2.4-21.1,4.7-25.4,3.6-4-1.2-7-4.6-12.4-14.4-4.5-8.2-12.3-17.3-17.3-20.3-4.2-2.6-18-4.1-43.2-4.9-41.1-1.1-52.7,3.2-63.1,23.8-8.6,17.1-9.4,17.6-23.4,15.9-12.4-1.6-19.7-3.4-22.2-5.7-5.9-5.3-16.9-25.5-21.3-39.3-4.2-13.2-4.3-13.6-4.4-12Zm115.4,39.2a5.50839,5.50839,0,0,0,5,0,5.15331,5.15331,0,0,1,5.1,0c2,.9,3,.9,4.6-.1s2.3-1,3.8.4c1.4,1.3,2.2,1.4,4.3.4,2.1-.9,3-.9,4.2.1s2,.9,4.1-.5c2.6-1.7,2.8-1.7,4.4.4,1.2,1.7,2.2,2.1,4.2,1.6,1.9-.5,2.7-.2,3.2,1.1.6,1.6.8,1.5,2.7-.2,2.1-1.9,2.1-1.8,4,.6a42.87017,42.87017,0,0,0,3.8,4.5,24.00367,24.00367,0,0,1,3.5,7.2c2,6.1,1.1,9.1-3.7,12.7-2.7,2-4.3,2.1-29,2.5-37.2.5-51.7-1.5-51.7-7.1,0-3.8,2.3-10.8,3.5-10.8.7,0,2-1.1,2.9-2.5a5.41256,5.41256,0,0,1,3.7-2.5c1.3,0,2.4-1,3-3,.9-2.5,1.6-3,4.3-3a10.28439,10.28439,0,0,0,5.2-1.5c2.3-1.8,1.8-1.7,4.9-.3Z" transform="translate(-112.00002 -67)"/></svg>