<?xml version="1.0" encoding="UTF-8" standalone="no"?>
<svg
   xmlns:dc="http://purl.org/dc/elements/1.1/"
   xmlns:cc="http://creativecommons.org/ns#"
   xmlns:rdf="http://www.w3.org/1999/02/22-rdf-syntax-ns#"
   xmlns:svg="http://www.w3.org/2000/svg"
   xmlns="http://www.w3.org/2000/svg"
   xmlns:sodipodi="http://sodipodi.sourceforge.net/DTD/sodipodi-0.dtd"
   xmlns:inkscape="http://www.inkscape.org/namespaces/inkscape"
   width="978.99048"
   height="289.16653"
   viewBox="0 0 978.99048 289.16655"
   version="1.1"
   id="svg26"
   sodipodi:docname="Intuit 2016.svg"
   inkscape:version="1.0.2 (e86c870879, 2021-01-15, custom)">
  <metadata
     id="metadata30">
    <rdf:RDF>
      <cc:Work
         rdf:about="">
        <dc:format>image/svg+xml</dc:format>
        <dc:type
           rdf:resource="http://purl.org/dc/dcmitype/StillImage" />
        <dc:title>Intuit 2016</dc:title>
      </cc:Work>
    </rdf:RDF>
  </metadata>
  <sodipodi:namedview
     pagecolor="#ffffff"
     bordercolor="#666666"
     borderopacity="1"
     objecttolerance="10"
     gridtolerance="10"
     guidetolerance="10"
     inkscape:pageopacity="0"
     inkscape:pageshadow="2"
     inkscape:window-width="1440"
     inkscape:window-height="837"
     id="namedview28"
     showgrid="false"
     fit-margin-top="0"
     fit-margin-left="0"
     fit-margin-right="0"
     fit-margin-bottom="0"
     inkscape:zoom="1.0474537"
     inkscape:cx="470.96803"
     inkscape:cy="145.74874"
     inkscape:window-x="-8"
     inkscape:window-y="-8"
     inkscape:window-maximized="1"
     inkscape:current-layer="svg26" />
  <defs
     id="defs4">
    <style
       id="style2">.a{fill:#2f5ebf;}</style>
  </defs>
  <title
     id="title6">Intuit 2016</title>
  <g
     id="g130"
     transform="translate(0.09210528,-1.5914411)">
    <path
       d="m 209.13775,81.460748 c 51.48818,0 72.91183,39.576542 72.91183,79.928072 V 285.00634 H 232.6173 V 175.39571 c 0,-23.45399 -5.36332,-52.71903 -37.06652,-52.71903 -31.31602,0 -46.12486,27.17893 -46.12486,53.55349 V 285.00632 H 99.993885 V 87.24242 h 46.958945 v 31.70902 h 0.8045 c 8.67077,-19.758722 32.15035,-37.490584 61.38044,-37.490584"
       id="path32"
       style="mix-blend-mode:normal;fill:#2f5ebf;fill-rule:nonzero;stroke:none;stroke-width:2.70271;stroke-linecap:butt;stroke-linejoin:miter;stroke-miterlimit:10;stroke-dasharray:none;stroke-dashoffset:0" />
    <path
       d="M -0.09210528,285.00624 V 87.272125 H 49.339929 V 285.00624 Z"
       id="path34"
       style="mix-blend-mode:normal;fill:#2f5ebf;fill-rule:nonzero;stroke:none;stroke-width:2.70271;stroke-linecap:butt;stroke-linejoin:miter;stroke-miterlimit:10;stroke-dasharray:none;stroke-dashoffset:0" />
    <path
       d="M 978.89837,87.124544 V 130.93023 H 923.47415 V 285.0047 H 874.04333 V 130.93023 H 818.6233 V 87.124544 Z"
       id="path36"
       style="mix-blend-mode:normal;fill:#2f5ebf;fill-rule:nonzero;stroke:none;stroke-width:2.70271;stroke-linecap:butt;stroke-linejoin:miter;stroke-miterlimit:10;stroke-dasharray:none;stroke-dashoffset:0" />
    <path
       d="m 898.77427,61.344609 c -7.92227,0.003 -15.52165,-3.13986 -21.12633,-8.73992 -5.60471,-5.60006 -8.7556,-13.19763 -8.75957,-21.12131 -0.008,-16.50013 13.35866,-29.8828002 29.85585,-29.8910702 16.49718,-0.008 29.87749,13.3610002 29.88579,29.8611202 0.008,16.50013 -13.35856,29.88283 -29.85574,29.89118"
       id="path38"
       style="mix-blend-mode:normal;fill:#2f5ebf;fill-rule:nonzero;stroke:none;stroke-width:2.70271;stroke-linecap:butt;stroke-linejoin:miter;stroke-miterlimit:10;stroke-dasharray:none;stroke-dashoffset:0" />
    <path
       d="m 387.34977,61.344611 c -16.4841,-0.01081 -29.84422,-13.374161 -29.8559,-29.861232 -0.005,-12.0865 7.26951,-22.9859442 18.43285,-27.6140224 11.16332,-4.62807827 24.01489,-2.0729762 32.55984,6.4734654 8.54491,8.546442 11.09958,21.400311 6.47233,32.565645 -4.62725,11.165306 -15.52478,18.442171 -27.60912,18.436144"
       id="path40"
       style="mix-blend-mode:normal;fill:#2f5ebf;fill-rule:nonzero;stroke:none;stroke-width:2.70271;stroke-linecap:butt;stroke-linejoin:miter;stroke-miterlimit:10;stroke-dasharray:none;stroke-dashoffset:0" />
    <path
       d="M 734.56658,285.00624 V 87.272125 h 49.43204 V 285.00624 Z"
       id="path42"
       style="mix-blend-mode:normal;fill:#2f5ebf;fill-rule:nonzero;stroke:none;stroke-width:2.70271;stroke-linecap:butt;stroke-linejoin:miter;stroke-miterlimit:10;stroke-dasharray:none;stroke-dashoffset:0" />
    <path
       d="m 634.54016,87.242366 h 49.43225 V 285.00626 h -46.9592 V 253.2674 h -0.8343 c -8.64067,19.78835 -32.12028,37.49059 -61.35056,37.49059 -51.51777,0 -72.91164,-39.54689 -72.91164,-79.92804 V 87.242366 h 49.43195 V 196.82302 c 0,23.48354 5.33365,52.74885 37.06683,52.74885 31.28626,0 46.12464,-27.20899 46.12464,-53.55352 z"
       id="path44"
       style="mix-blend-mode:normal;fill:#2f5ebf;fill-rule:nonzero;stroke:none;stroke-width:2.70271;stroke-linecap:butt;stroke-linejoin:miter;stroke-miterlimit:10;stroke-dasharray:none;stroke-dashoffset:0" />
    <path
       d="M 307.22767,87.124544 H 467.50271 V 130.93023 H 412.08268 V 285.0047 H 362.64767 V 130.93023 h -55.42003 z"
       id="path46"
       style="mix-blend-mode:normal;fill:#2f5ebf;fill-rule:nonzero;stroke:none;stroke-width:2.70271;stroke-linecap:butt;stroke-linejoin:miter;stroke-miterlimit:10;stroke-dasharray:none;stroke-dashoffset:0" />
  </g>
</svg>
