<?xml version="1.0" encoding="UTF-8" standalone="no"?>
<!-- Generator: Adobe Illustrator 15.1.0, SVG Export Plug-In . SVG Version: 6.00 Build 0)  -->

<svg
   xmlns:dc="http://purl.org/dc/elements/1.1/"
   xmlns:cc="http://creativecommons.org/ns#"
   xmlns:rdf="http://www.w3.org/1999/02/22-rdf-syntax-ns#"
   xmlns:svg="http://www.w3.org/2000/svg"
   xmlns="http://www.w3.org/2000/svg"
   xmlns:sodipodi="http://sodipodi.sourceforge.net/DTD/sodipodi-0.dtd"
   xmlns:inkscape="http://www.inkscape.org/namespaces/inkscape"
   version="1.1"
   x="0px"
   y="0px"
   width="415.75"
   height="77"
   viewBox="0 0 415.75 77"
   enable-background="new 0 0 532.75 123"
   xml:space="preserve"
   id="svg2"
   inkscape:version="0.92.3 (2405546, 2018-03-11)"
   sodipodi:docname="Keurig_2015.svg"><metadata
   id="metadata148"><rdf:RDF><cc:Work
       rdf:about=""><dc:format>image/svg+xml</dc:format><dc:type
         rdf:resource="http://purl.org/dc/dcmitype/StillImage" /><dc:title></dc:title></cc:Work></rdf:RDF></metadata><defs
   id="defs146" /><sodipodi:namedview
   pagecolor="#ffffff"
   bordercolor="#666666"
   borderopacity="1"
   objecttolerance="10"
   gridtolerance="10"
   guidetolerance="10"
   inkscape:pageopacity="0"
   inkscape:pageshadow="2"
   inkscape:window-width="1366"
   inkscape:window-height="745"
   id="namedview144"
   showgrid="false"
   inkscape:zoom="1.0961989"
   inkscape:cx="263.99464"
   inkscape:cy="114.77897"
   inkscape:window-x="-8"
   inkscape:window-y="-8"
   inkscape:window-maximized="1"
   inkscape:current-layer="g47" />

<g
   id="Layer_2"
   display="none"
   style="display:none"
   transform="translate(0,-46)">
	<rect
   x="1881.527"
   y="1365.9821"
   display="inline"
   width="20.566"
   height="1.205"
   id="rect102"
   style="display:inline;fill:#ec008c" />
	<g
   display="inline"
   id="g104"
   style="display:inline;opacity:0.3">
		<path
   d="m 1901.395,1561.997 c 0,27.66 13.828,46.677 38.033,46.677 25.932,0 34.594,-15.564 34.594,-32.855 l -1.738,-1.73 h -34.582 l -1.725,-1.732 v -12.09 l 1.725,-1.739 h 51.871 l 1.74,1.739 v 60.506 l -1.74,1.729 h -10.375 l -1.725,-1.729 -1.738,-10.377 h -1.713 c -8.662,8.646 -19.019,13.84 -34.594,13.84 -34.568,0 -55.322,-25.932 -55.322,-62.237 0,-36.326 20.754,-62.256 57.059,-62.256 32.857,0 46.685,19.017 50.148,36.307 l -1.74,1.732 h -13.838 l -1.713,-1.732 c -3.465,-12.09 -13.839,-20.735 -32.857,-20.735 -25.942,0 -39.77,19.019 -39.77,46.682 z"
   id="path106"
   inkscape:connector-curvature="0"
   style="fill:#ec008c" />
	</g>
	<g
   display="inline"
   id="g108"
   style="display:inline;opacity:0.3">
		<path
   stroke-miterlimit="10"
   d="m 2108.707,1561.997 c 0,27.66 13.828,46.677 38.034,46.677 25.931,0 34.593,-15.564 34.593,-32.855 l -1.738,-1.73 h -34.582 l -1.725,-1.732 v -12.09 l 1.725,-1.739 h 51.871 l 1.74,1.739 v 60.506 l -1.74,1.729 h -10.375 l -1.724,-1.729 -1.739,-10.377 h -1.713 c -8.662,8.646 -19.019,13.84 -34.593,13.84 -34.569,0 -55.323,-25.932 -55.323,-62.237 0,-36.326 20.754,-62.256 57.059,-62.256 32.857,0 46.685,19.017 50.148,36.307 l -1.74,1.732 h -13.838 l -1.713,-1.732 c -3.465,-12.09 -13.84,-20.735 -32.857,-20.735 -25.942,0 -39.77,19.019 -39.77,46.682 z"
   id="path110"
   inkscape:connector-curvature="0"
   style="fill:#ec008c;stroke:#ec008c;stroke-width:2.6500001;stroke-miterlimit:10" />
	</g>
	
		<line
   display="inline"
   stroke-miterlimit="10"
   x1="2201.1221"
   y1="1534.96"
   x2="2199.9839"
   y2="1536.152"
   id="line112"
   style="display:inline;fill:none;stroke:#ea0b8c;stroke-width:0.15000001;stroke-miterlimit:10" />
	
		<line
   display="inline"
   stroke-miterlimit="10"
   x1="2199.9551"
   y1="1556.556"
   x2="2201.092"
   y2="1557.748"
   id="line114"
   style="display:inline;fill:none;stroke:#ea0b8c;stroke-width:0.15000001;stroke-miterlimit:10" />
	
		<line
   display="inline"
   stroke-miterlimit="10"
   x1="2199.9551"
   y1="1614.132"
   x2="2201.092"
   y2="1612.939"
   id="line116"
   style="display:inline;fill:none;stroke:#ea0b8c;stroke-width:0.15000001;stroke-miterlimit:10" />
	
		<line
   display="inline"
   stroke-miterlimit="10"
   x1="2159.8301"
   y1="1556.556"
   x2="2158.6919"
   y2="1557.748"
   id="line118"
   style="display:inline;fill:none;stroke:#ea0b8c;stroke-width:0.15000001;stroke-miterlimit:10" />
	
		<line
   display="inline"
   stroke-miterlimit="10"
   x1="2159.8301"
   y1="1575.988"
   x2="2158.6919"
   y2="1574.796"
   id="line120"
   style="display:inline;fill:none;stroke:#ea0b8c;stroke-width:0.15000001;stroke-miterlimit:10" />
	
		<line
   display="inline"
   stroke-miterlimit="10"
   x1="2181.033"
   y1="1534.96"
   x2="2182.1709"
   y2="1536.152"
   id="line122"
   style="display:inline;fill:none;stroke:#ea0b8c;stroke-width:0.15000001;stroke-miterlimit:10" />
	
		<line
   display="inline"
   stroke-miterlimit="10"
   x1="2405.8711"
   y1="1534.96"
   x2="2404.7339"
   y2="1536.152"
   id="line124"
   style="display:inline;fill:none;stroke:#ea0b8c;stroke-width:0.15000001;stroke-miterlimit:10" />
	
		<line
   display="inline"
   stroke-miterlimit="10"
   x1="2404.7051"
   y1="1556.556"
   x2="2405.843"
   y2="1557.748"
   id="line126"
   style="display:inline;fill:none;stroke:#ea0b8c;stroke-width:0.15000001;stroke-miterlimit:10" />
	
		<line
   display="inline"
   stroke-miterlimit="10"
   x1="2404.7051"
   y1="1614.132"
   x2="2405.843"
   y2="1612.939"
   id="line128"
   style="display:inline;fill:none;stroke:#ea0b8c;stroke-width:0.15000001;stroke-miterlimit:10" />
	
		<line
   display="inline"
   stroke-miterlimit="10"
   x1="2364.5801"
   y1="1556.556"
   x2="2363.4409"
   y2="1557.748"
   id="line130"
   style="display:inline;fill:none;stroke:#ea0b8c;stroke-width:0.15000001;stroke-miterlimit:10" />
	
		<line
   display="inline"
   stroke-miterlimit="10"
   x1="2364.5801"
   y1="1575.988"
   x2="2363.4409"
   y2="1574.796"
   id="line132"
   style="display:inline;fill:none;stroke:#ea0b8c;stroke-width:0.15000001;stroke-miterlimit:10" />
	
		<line
   display="inline"
   stroke-miterlimit="10"
   x1="2385.783"
   y1="1534.96"
   x2="2386.9199"
   y2="1536.152"
   id="line134"
   style="display:inline;fill:none;stroke:#ea0b8c;stroke-width:0.15000001;stroke-miterlimit:10" />
	<g
   display="inline"
   id="g136"
   style="display:inline;opacity:0.3">
		<g
   id="g138">
			<path
   d="m 2313.378,1561.997 c 0,27.66 13.828,46.677 38.034,46.677 25.931,0 34.592,-15.564 34.592,-32.855 l -1.738,-1.73 h -34.581 l -1.724,-1.732 v -12.09 l 1.724,-1.739 h 51.871 l 1.739,1.739 v 60.506 l -1.739,1.729 h -10.376 l -1.723,-1.729 -1.74,-10.377 h -1.713 c -8.661,8.646 -19.018,13.84 -34.592,13.84 -34.569,0 -55.324,-25.932 -55.324,-62.237 0,-36.326 20.755,-62.256 57.06,-62.256 32.856,0 46.685,19.017 50.147,36.307 l -1.739,1.732 h -13.839 l -1.713,-1.732 c -3.463,-12.09 -13.838,-20.735 -32.856,-20.735 -25.942,0 -39.77,19.019 -39.77,46.682 z"
   id="path140"
   inkscape:connector-curvature="0"
   style="fill:#ec008c" />
			<path
   d="m 2351.412,1625.56 c -17.094,0 -31.488,-6.212 -41.628,-17.964 -9.825,-11.388 -15.021,-27.155 -15.021,-45.599 0,-38.624 22.916,-63.581 58.384,-63.581 15.325,0 27.762,4.035 36.964,11.992 9.396,8.126 13.062,18.287 14.483,25.379 l 0.14,0.698 -2.633,2.62 h -14.938 l -2.34,-2.367 -0.093,-0.325 c -3.655,-12.753 -14.872,-19.775 -31.584,-19.775 -24.073,0 -38.444,16.957 -38.444,45.359 0,27.974 14.066,45.352 36.709,45.352 12.34,0 32.988,-4.043 33.264,-30.982 l -0.956,-0.953 h -34.587 l -2.498,-2.511 v -13.183 l 2.498,-2.519 h 52.972 l 2.517,2.516 v 61.605 l -2.52,2.504 h -11.471 l -2.411,-2.419 -1.671,-9.688 c -9.755,9.568 -20.616,13.841 -35.136,13.841 z m 1.735,-124.494 c -17.074,0 -31.304,5.898 -41.15,17.057 -9.54,10.812 -14.583,25.984 -14.583,43.874 0,37.003 21.195,60.912 53.998,60.912 13.955,0 24.334,-4.148 33.657,-13.452 l 0.388,-0.388 h 3.382 l 1.854,11.066 1.037,1.04 h 9.277 l 0.963,-0.955 v -59.406 l -0.964,-0.963 h -50.771 l -0.951,0.96 v 10.997 l 0.951,0.954 h 34.576 l 2.518,2.505 v 0.551 c 0,21.722 -13.092,34.181 -35.918,34.181 -24.277,0 -39.359,-18.394 -39.359,-48.002 0,-29.613 15.747,-48.01 41.095,-48.01 17.858,0 29.931,7.585 34.035,21.367 l 1.089,1.101 h 12.736 l 0.845,-0.84 c -1.437,-6.644 -4.946,-15.827 -13.475,-23.202 -8.706,-7.529 -20.56,-11.347 -35.23,-11.347 z"
   id="path142"
   inkscape:connector-curvature="0"
   style="fill:#ec008c" />
		</g>
	</g>
</g>
<g
   transform="matrix(1.3867401,0,0,1.3867401,-74.29683,-105.665)"
   id="g47"><path
     style="fill:#222021"
     inkscape:connector-curvature="0"
     d="m 114.6,78.713544 h 35.8 v 10.5 h -22.8 v 9 h 21 v 10.599996 h -21 v 9.79999 h 22.8 v 10.49999 H 114.6 Z M 195,112.71354 c 0,3.99999 -2.2,6.19999 -8.6,6.19999 -6.4,0 -8.5,-2.2 -8.5,-6.19999 V 78.713544 h -13 v 35.499996 c 0,7.89999 4.8,15.89998 21.5,15.89998 16.8,0 21.6,-7.89999 21.6,-15.89998 V 78.713544 h -13 z m 88.3,16.39998 h 13 V 78.713544 h -13 z m 57.3,-24.89998 v 14.19999 c -2.3,0.4 -4.9,0.7 -7.8,0.7 -6.7,0 -7.9,-2.3 -7.9,-6.59999 V 95.113544 c 0,-4.7 2.2,-6.2 7.8,-6.2 5.3,0 11.1,0.6 17.4,1.5 l 1.2,-10.9 c -6.4,-1.3 -12.4,-1.7 -18.2,-1.7 -14.8,0 -21,5 -21,15.7 v 20.899996 c 0,10.09999 5.6,15.69998 20.7,15.69998 6.7,0 13.9,-0.9 20,-2.59999 v -23.29999 z m -81,8 10.2,16.89998 h -14.6 l -8.1,-14.29999 h -9.9 v 14.29999 h -13 V 78.713544 H 248 c 13.6,0 17.9,5.3 17.9,14.5 v 7.099996 c 0.1,5.7 -1.5,9 -6.3,11.9 z m -6.2,-18.399996 c 0,-3.3 -1.6,-4.7 -5.4,-4.7 h -10.8 v 15.499996 h 10.5 c 4.2,0 5.7,-1.5 5.7,-4.899996 z M 62.7,113.91354 c -4.4,0 -8,3.59999 -8,8.09999 0,4.5 3.6,8.09999 8,8.09999 4.4,0 8,-3.59999 8,-8.09999 0,-4.5 -3.6,-8.09999 -8,-8.09999 z m 0,-18.099996 c -4.4,0 -8,3.6 -8,8.099996 0,4.5 3.6,8.1 8,8.1 4.4,0 8,-3.6 8,-8.1 0,-4.499996 -3.6,-8.099996 -8,-8.099996 z m 0,-18.1 c -4.4,0 -8,3.6 -8,8.1 0,4.5 3.6,8.1 8,8.1 4.4,0 8,-3.6 8,-8.1 0,-4.5 -3.6,-8.1 -8,-8.1 z m 39.6,1 H 87.7 l -14.8,25.199996 14.8,25.19998 h 14.6 L 87.1,103.91354 Z"
     id="path51-7"
     sodipodi:nodetypes="cccccccccccccsssccsssccscccccccssssccsssscccccccccccsscccssccssssssssssssssssssccccccc" /></g></svg>