<svg width="148" height="28" viewBox="0 0 148 28" fill="none" xmlns="http://www.w3.org/2000/svg">
<path d="M71.9547 18.1867L68.18 15.9761L67.9104 16.4115C67.0679 17.7513 65.8883 18.4211 64.4391 18.4211C61.9451 18.4211 60.0915 16.5455 60.0915 14.1005C60.0915 11.6221 61.9788 9.77997 64.4391 9.77997C65.922 9.77997 67.0005 10.4163 67.9104 11.7895L68.18 12.2249L71.9547 10.0144L71.6177 9.54552C69.7978 6.93308 67.4723 5.69385 64.4054 5.69385C58.6423 5.69385 55.5416 10.0479 55.5416 14.134C55.5416 18.2202 58.6423 22.5742 64.4054 22.5742C67.3375 22.5742 70.1011 21.1005 71.6177 18.6891L71.9547 18.1867Z" fill="#C01818"/>
<path d="M71.7525 22.5072H76.9427L78.493 18.689H86.2783L87.8286 22.5072H93.0525L83.7506 0.16748H79.0996L80.3466 3.14834L71.7525 22.5072ZM82.4362 8.97609L84.5257 14.2345H80.2792L82.4362 8.97609Z" fill="#C01818"/>
<path d="M95.2094 22.54H99.7593V12.4922H102.725V8.27206H99.7593V6.29598C99.7593 5.42517 100.332 4.52086 101.411 4.52086C101.984 4.52086 102.354 4.62134 102.691 4.75531L103.197 4.95627L105.084 0.83665L104.545 0.6022C103.702 0.267272 102.523 0.133301 101.68 0.133301C99.6245 0.133301 97.9056 0.803157 96.7598 2.07588C95.7487 3.18115 95.1757 4.72182 95.1757 6.42995V8.23857H93.1536V12.4587H95.1757L95.2094 22.54Z" fill="#C01818"/>
<path d="M34.0732 0.0332031V22.5069H39.0274V9.64565L43.8469 13.1959L48.6326 9.64565V22.5069H53.5869L53.6206 0.0332031L43.8469 7.36813L34.0732 0.0332031Z" fill="#C01818"/>
<path d="M113.038 5.72705C107.309 5.72705 104.208 10.0476 104.208 14.1337C104.208 18.2199 107.309 22.5404 113.038 22.5404C115.667 22.507 118.127 21.3347 120.048 19.1577L116.341 17.1481C115.397 18.1194 114.218 18.6218 112.937 18.6218C111.05 18.6218 109.398 17.3826 108.96 15.7414H121.363V14.6361C121.363 8.50695 116.476 5.72705 113.038 5.72705ZM109.061 12.0572C109.668 10.5165 110.948 9.64571 112.6 9.64571C114.285 9.64571 115.599 10.5165 116.273 12.0907L109.061 12.0572Z" fill="#C01818"/>
<path d="M131.675 5.72705C125.946 5.72705 122.845 10.0476 122.845 14.1337C122.845 18.2199 125.946 22.5404 131.675 22.5404C134.304 22.507 136.765 21.3347 138.686 19.1577L134.978 17.1481C134.035 18.1194 132.855 18.6218 131.574 18.6218C129.687 18.6218 128.036 17.3826 127.597 15.7414H140V14.6361C140 8.50695 135.147 5.72705 131.675 5.72705ZM127.699 12.0572C128.305 10.5165 129.586 9.61222 131.237 9.64571C132.922 9.64571 134.237 10.5165 134.911 12.0907L127.699 12.0572Z" fill="#C01818"/>
<path fill-rule="evenodd" clip-rule="evenodd" d="M12 5.62196L0 0V22.3732L11.9897 28L24 22.3732V0L12 5.62196ZM12 11.1148L12.0103 11.1196V11.1099L19.0507 7.80383V19.1914L12 22.5023L4.94931 19.1914V7.80383L11.9897 11.1099V11.1196L12 11.1148Z" fill="#C01818"/>
<path d="M142.892 5.91309V6.56065H141.81V9.91309H140.995V6.56065H139.913V5.91309H142.892Z" fill="#C01818"/>
<path d="M147.913 5.91309V9.91309H147.099V7.31137L146.011 9.91309H145.394L144.3 7.31137V9.91309H143.486V5.91309H144.411L145.702 8.8873L146.994 5.91309H147.913Z" fill="#C01818"/>
<title>McAfee</title>
</svg>
