<svg xmlns="http://www.w3.org/2000/svg" viewBox="0 0 670.55735 94.19066"><path d="M19.18109,52.16566V26.86691l-7.60625,3.4a25.04211,25.04211,0,0,0-1.59875,10.6425,26.159,26.159,0,0,0,5.13375,13.28ZM41.45484.07691a13.20152,13.20152,0,0,1,7.04,3.04625,9.08013,9.08013,0,0,1,2.06875,8.9125,9.0702,9.0702,0,0,1-4.43,6.22375,11.72849,11.72849,0,0,1-6.41,1.7975V32.24316l5.93,4.805-5.93125,4.7825.0025,16.6175a27.03442,27.03442,0,0,0,9.62625-11.03625s.15125-.41375.4975-1.21c.3275,2.05125.14125,6.18875-2.17125,11.49625a21.45141,21.45141,0,0,1-8.88,10.0475c-7.0375,3.8925-12.31625,4.26625-17.97625,3.1A25.50521,25.50521,0,0,1,4.06734,59.25816a27.703,27.703,0,0,1-4.06-15.61875c.2325-11.245,8.59375-20.93,18.2425-24.555a9.35123,9.35123,0,0,1,3.30875-.8725c-.7675.515-1.65625,1.18875-2.745,1.90625-3.1075,2.05-5.77125,6.115-6.9075,9.2475l18.73125-8.35375V47.20566l-15.105,7.5625c1.72125,2.3975,6.95125,6.01,11.42375,6.50875,7.61125.85,12.075-2.4775,12.075-2.4775l-.00125-16.96874-5.8975-4.78251,5.9-4.7875V20.05691a81.3868,81.3868,0,0,1-9.4075-2.005c-3.36-.825-14.56-3.96874-16.32-4.23-1.76-.2625-3.93125-.1875-5.245.995a5.197,5.197,0,0,0-1.5675,5.1375,5.76256,5.76256,0,0,0,1.59875,2.2925,4.90992,4.90992,0,0,1-1.8175-.75625,8.50038,8.50038,0,0,1-3.915-6.81875A11.2916,11.2916,0,0,1,7.06984,4.61566a14.2477,14.2477,0,0,1,9.90875-2.4925c5.51625.78125,12.9325,3.9075,19.53875,5.495,2.56.61376,4.54125.81875,6.34125-.22124a3.124,3.124,0,0,0,1.10625-4.2425c-1.40625-2.42126-4.10125-2.365-6.385-2.8a10.02726,10.02726,0,0,1,3.875-.2775" transform="translate(0 0)"/><path d="M114.3486,45.57191l-8.51125,6.23375V31.06816Zm-.24375-19.93625s-5.74125,3.485-9.6,5.77875c-3.8575,2.29375-9.035,4.82625-9.035,4.82625V60.38191l-3.45375,2.765.46.54375,3.3675-2.73,10.555,9.54625,18.345-14.52625-.43375-.535-10.13875,7.9625-8.33375-7.81125.00125-2.905,16.73875-12.315-8.4725-14.74125" transform="translate(0 0)"/><path d="M66.01862,79.58817a17.02186,17.02186,0,0,0,11.78-1.64125c5.67125-2.84125,8.52624-8.87251,8.48624-15.05l.24-8.7525.00251-19.13876,3.62375-2.76374-.42-.55-3.57,2.7025-8.23625-9.16125-10.565,9.06625V3.45567L54.15736,13.66941c.5875.3775,2.45875.71375,2.515,3.355v43.205l-5.59125,4.145.38.5775,2.7025-2.01375,7.51625,6.99625,11.835-9.425-.4275-.53875-2.7825,2.20625-2.945-2.9175.02875-24.07,3.44625-2.945,5.1425,6.3975s-.00875,15.575.005,20.75125c-.03749,5.515-.05624,12.40376-2.955,15.73251-2.89875,3.3275-4.05875,3.59125-7.00875,4.4625" transform="translate(0 0)"/><path d="M148.15359,77.41441c-4.72875-.5475-6.71249-3.40875-6.65875-5.66875a5.15861,5.15861,0,0,1,4.22376-4.6825c2.875-.3925,5.81.95125,8.29249,3.86875l10.91875-12.07125-.52625-.4725-2.93375,3.2825a19.10142,19.10142,0,0,0-11.42-6.14625V18.74317l28.36751,51.69125s.27.585,1.43625.59c1.005.005.7625-.82125.7625-.82125l-.0025-52.01a12.91683,12.91683,0,0,0,7.53-3.12125c5.46125-5.60875,3.23124-11.72875,2.63125-12.33124a5.91144,5.91144,0,0,1-5.82251,5.3825,10.0509,10.0509,0,0,1-7.25375-3.30875L166.7861,17.25317l.52124.47,3.12625-3.565a13.37392,13.37392,0,0,0,9.48875,4.035l-.00125,30.17875-21.0425-38.2375c-1.90374-3.1575-4.80375-5.935-9.35125-5.9675-5.2275-.035-8.96749,4.575-9.41375,8.545-.5075,4.48875.0525,5.5225.0525,5.5225s.76875-4.99875,3.85875-4.95375c2.7725.04125,4.21875,2.59375,5.33125,4.5075v11.0775c-2.86125.205-10.31125.52375-10.7675,8.28a9.13556,9.13556,0,0,0,3.325,6.93125,6.97594,6.97594,0,0,0,3.58875,1.29,3.3918,3.3918,0,0,1-1.69125-3.8225c.6475-2.27125,5.3775-2.64375,5.54875-1.69875V55.47691c-2.27625-.02125-9.56625.2175-12.8525,6.475-1.98125,3.77-1.86749,7.99625.25125,10.97875a10.97794,10.97794,0,0,0,11.395,4.48375" transform="translate(0 0)"/><path d="M208.30861,45.57191l-8.51125,6.23375V31.06816Zm-.24375-19.93625s-5.74125,3.485-9.6,5.77875c-3.8575,2.29375-9.035,4.82625-9.035,4.82625V60.38191l-3.4525,2.765.45875.54375,3.3675-2.73,10.555,9.54625,18.345-14.52625-.43375-.535-10.13875,7.9625-8.33375-7.81125.00125-2.905,16.73875-12.315-8.4725-14.74125" transform="translate(0 0)"/><path d="M233.70735,70.68816l-8.995-7.46625-3.95125,2.86-.40125-.56,4.01875-2.93375V41.67941c.195-8.59875-7.88-6.46375-7.4425-15.5975.19125-4.0125,4.0775-7.0475,6.0375-8.04875a10.71928,10.71928,0,0,1,4.36875-1.0675s-3.68375,2.305-2.78875,5.61875c1.37875,5.10375,10.10125,5.55375,10.265,12.35v23.7175l6.44125,5.1625,1.69375-1.33125V36.81066l-3.47125-3.44875,8.94-7.90875,8.17,7.2425-3.1175,3.38125V58.82066l7.64875,6.31,1.36125-.86V36.88441l-3.47875-3.26,8.96-8.18625,8.375,6.91875,3.345-2.9575.4525.525-7.52875,6.61v22.32l-19.27,11.89-9.855-7.8075-9.7775,7.75125" transform="translate(0 0)"/><path d="M628.13361,45.57191l-8.5125,6.23375V31.06816Zm-.24375-19.93625s-5.74125,3.485-9.6,5.77875-9.03625,4.82625-9.03625,4.82625l.00125,24.14125-3.4525,2.765.46.54375,3.36625-2.73,10.555,9.54625,18.345-14.52625-.435-.535-10.13875,7.9625-8.33375-7.81125v-2.905l16.74-12.315-8.47125-14.74125" transform="translate(0 0)"/><path d="M541.76236,35.74066l.45125.52125,3.455-2.9725,5.12625,5.795v19.9575l-2.4875,2.265,7.9925,9.04375,8.2-8.08875-3.37125-3.48125v-24.135l2.03875-1.63,5.67125,6.62875V59.52816l-2.1325,2.135,7.52375,8.4625,8.05-8.05-2.96-3.1075-.07375-24.2275,2.17125-1.7625,5.91375,6.51625V59.26816l-1.9475,1.945,8.31126,9.06375,11.15375-10.29875-.47125-.51-2.71,2.495-4.15375-4.605V34.77691l4.01125-3.05375-.4175-.55-4.015,3.05125-7.58875-8.51-10.85625,8.575-7.59875-8.27375-10.48125,8.19875-7.675-8.16375-11.13,9.69" transform="translate(0 0)"/><path d="M519.0511,35.11441l.4525.5225,2.9175-2.51625,4.56625,5.4025V61.32691l-3.21875,2.80875.44875.53375,3.3775-2.8925,7.36625,8.50125,10.64125-9.5025-.44875-.51875-3.1325,2.7575-4.4025-5.075v-22.3l3.71125-3.21-.44625-.53-3.52625,3.0375-7.74875-9.0325-10.5575,9.21" transform="translate(0 0)"/><path d="M525.0036,16.77191l7.87-7.205,6.39625,7.095-7.905,7.16875-6.36125-7.05875" transform="translate(0 0)"/><path d="M489.0761,52.16566V26.86691l-7.6075,3.4a25.05315,25.05315,0,0,0-1.6,10.6425,26.17051,26.17051,0,0,0,5.135,13.28ZM511.34734.07691a13.201,13.201,0,0,1,7.04125,3.04625,9.07386,9.07386,0,0,1,2.0675,8.9125,9.06262,9.06262,0,0,1-4.43,6.22375,11.72534,11.72534,0,0,1-6.40875,1.7975V32.24316l5.93125,4.805-5.9325,4.7825.0025,16.6175a27.03674,27.03674,0,0,0,9.625-11.03625s.1525-.41375.49875-1.21c.3275,2.05125.14126,6.18875-2.17,11.49625a21.4567,21.4567,0,0,1-8.8825,10.0475c-7.0375,3.8925-12.31625,4.26625-17.975,3.1a25.5,25.5,0,0,1-16.7525-11.5875,27.69388,27.69388,0,0,1-4.06125-15.61875c.23375-11.245,8.59375-20.93,18.24375-24.555a9.35126,9.35126,0,0,1,3.3075-.8725c-.76749.515-1.655,1.18875-2.74374,1.90625a20.33273,20.33273,0,0,0-6.9075,9.2475l18.73-8.35375V47.20566l-15.10376,7.5625c1.72,2.3975,6.95,6.01,11.425,6.50875,7.60875.85,12.0725-2.4775,12.0725-2.4775V41.83067l-5.89875-4.78251,5.89875-4.7875V20.05691a81.33422,81.33422,0,0,1-9.405-2.005c-3.36126-.825-14.5625-3.96874-16.32126-4.23-1.75875-.2625-3.93125-.1875-5.245.995a5.197,5.197,0,0,0-1.56749,5.1375,5.73766,5.73766,0,0,0,1.59875,2.2925,4.90113,4.90113,0,0,1-1.8175-.75625,8.4983,8.4983,0,0,1-3.91625-6.81875,11.29549,11.29549,0,0,1,4.7125-10.05625,14.2477,14.2477,0,0,1,9.90875-2.4925c5.515.78125,12.9325,3.9075,19.54,5.495,2.55875.61376,4.53875.81875,6.33875-.22124a3.12308,3.12308,0,0,0,1.1075-4.2425c-1.40625-2.42126-4.10125-2.365-6.385-2.8a10.0236,10.0236,0,0,1,3.87375-.2775" transform="translate(0 0)"/><path d="M651.76485,30.30816v11.9825l3.98625,3.48125s8.6675-6.945,11.81375-13.36625c0,0-3.895,5.28-9.13625,3.66875C654.0411,34.72566,651.76485,30.30816,651.76485,30.30816Zm-9.67625,31.7725s3.79625-6.27625,10.31375-4.9225c6.2525,1.29625,8.4225,7.90125,8.4225,7.90125V49.85566l-4.36125-3.80125C651.67235,50.86691,643.14735,57.84066,642.0886,62.08066Zm6.21375,11.5525c-1.21625.35625-6.49875-.925-7.7675-6.40375-1.2325-5.335,2.47125-8.94875,8.0675-14.64l-6.60625-6.03V35.02566s4.8525-2.425,8.66-4.8075c3.805-2.38125,7.7-4.965,7.7-4.965s2.835,3.58625,6.04125,3.30375c5.02625-.44,4.7925-4.40875,4.64875-5.34375.85625,1.53375,3.15,6.0875-5.675,16.26875l7.18625,5.805V60.26566a144.10135,144.10135,0,0,0-16.24625,10.11s-4.40875-5.5175-8.235-2.88375c-2.585,1.77875-1.405,4.79375,2.22625,6.14125" transform="translate(0 0)"/><path d="M359.38735,56.59067l9.28375,8.40625V39.28942l-9.28375-8.5925Zm19.14-20.995,3.23625-2.98.46875.52375-3.15625,2.93V59.88567s-5.9875,3.1825-10.1675,5.54c-4.175,2.35875-8.6375,5.12375-8.6375,5.12375l-10.98625-9.25-2.90625,2.52625-.46875-.53125,3.05625-2.6525V35.02442h.03875s5.1825-2.34375,9.55375-4.81125c3.9075-2.205,8.285-4.765,8.285-4.765l11.68375,10.1475" transform="translate(0 0)"/><path d="M400.12985,33.19316l6.9775-7.1375a10.64078,10.64078,0,0,0,1.8575,1.2825c.51125.25375,2.6225,1.3375,4.56125.2725a8.58955,8.58955,0,0,0,2.3525-1.8225c.2325,5.55-2.4275,9.46125-5.74875,11.07-1.3575.65875-5.32625,1.9325-9.48-3.1325v25.635l4.4175,3.9025,3.685-3.05125.42625.53-11.54625,9.64-8.785-7.995-3.16,2.98375-.52125-.55,4.81625-4.3475.03875-22.1325-3.69125-4.89375-3.175,2.80625-.45875-.51625,11.18375-10.05625,6.25,7.5125" transform="translate(0 0)"/><path d="M429.54985,43.87067l12.90375-18.785a9.80657,9.80657,0,0,0,4.6625,2.80125c4.02875,1.055,7.55-2.84,7.55-2.84-.675,5.02125-3.21875,10.725-8.4725,11.59375-4.63.765-8.935-2.83125-8.935-2.83125l-.8375,1.29125,17.91375,27.0625,3.5825-3.13625.46125.52125-12.2925,10.74-16.53625-26.4175" transform="translate(0 0)"/><path d="M418.8911,18.79441c0-4.04375-1.65875-6.5525-3.83-6.365l14.07375-9.88625V58.50691h.00125l3.7175,3.925,2.8125-2.445.445.52125-11.34125,9.90625-7.6825-7.20875-3.075,2.69625-.48625-.5225,5.365-4.67375V18.79441" transform="translate(0 0)"/><path d="M328.52735,34.53316a5.74071,5.74071,0,0,1-4,1.77125,5.91118,5.91118,0,0,1-4.0475-1.78v7.66375a5.91269,5.91269,0,0,1,4.0475-1.77875,5.84694,5.84694,0,0,1,4,1.68625Zm0-16.42875-5.4275-4.77375-2.62,2.07875V33.38316a5.71774,5.71774,0,0,0,4.06125,2.0425,5.51532,5.51532,0,0,0,3.98625-1.9675Zm-8.0475,50.91875a6.93277,6.93277,0,0,0,5.67125-1.09625,6.51792,6.51792,0,0,0,2.37625-5.26125v-19.39a5.50352,5.50352,0,0,0-3.98625-1.985,5.71287,5.71287,0,0,0-4.06125,2.05Zm-19.24-51.14625c-.00125-3.78-1.5375-5.89375-4.02375-5.9475-3.5775-.07875-4.425,4.97-4.425,4.97a9.432,9.432,0,0,1,2.60375-7.41875A10.43,10.43,0,0,1,305.9761,6.01941c5.51375,1.32625,7.0775,5.6075,7.0775,9.39V67.48316s2.085.24875,3.5125.55625c1.6575.35625,3.22875.79625,3.22875.79625v-62.79h.685v8.465L331.7836,5.40941l8.27875,7.36,3.8625-3.34125.4375.525-4.03375,3.485V61.84691c-.20125,3.16625-.71,6.37125-3.6925,8.21875-6.64875,3.94625-14.6725-.5975-21.82125-1.6425-5.3025-.77625-13.6325-1.7875-15.72375,3.085a4.51651,4.51651,0,0,0,1.7725,5.68c4.8275,3.2275,26.33375-5.4225,33.70875-1.98375,6.72375,3.1325,6.69875,8.0825,5.66,11.4825-1.74875,6.38625-9.8075,7.50375-9.8075,7.50375s3.9425-2.28,2.8175-6.075c-.56875-1.92-1.87125-2.4575-6.08875-1.98375-9.21875,1.0375-20.23625,5.51125-27.64,2.41375-3.815-1.595-6.5125-6.3625-6.2525-11.05.19-6.74251,7.97875-9.40751,7.97875-9.40751l-.00125-24.96c-.225-.9825-4.38125-.72-5.2875,1.10625-1.3825,2.7775,1.7175,4.04625,1.7175,4.04625a5.57293,5.57293,0,0,1-4.7225-2.10375c-1.0475-1.2075-3.2375-5.45375-.39-9.3925,2.34-3.23625,5.14375-3.80125,8.68375-4.195V17.8769" transform="translate(0 0)"/></svg>