<svg xmlns="http://www.w3.org/2000/svg" xmlns:xlink="http://www.w3.org/1999/xlink" width="1000" height="494.704" viewBox="-1.333 -1.333 90.28 44.629"><path d="M-1.333-1.35v44.662H44.29L88.947-1.345h-90.28z" style="fill:#06a5e5;fill-opacity:1;stroke:none"/><path d="M52.763 20.02h-1.957v-7.157h1.957c2.613 0 4.692.861 4.692 3.533 0 2.76-2.08 3.624-4.692 3.624m-21.061 5.116a8.127 8.127 0 0 1-2.847-.504l2.819-8.89h.06l2.76 8.914a8.297 8.297 0 0 1-2.79.48M52.245 7.05h-8.886v21.13L35.595 7.05h-7.694l-6.633 17.666c-.7-4.453-5.313-5.994-8.94-7.143-2.39-.77-4.934-1.9-4.91-3.152.02-1.024 1.366-1.973 4.022-1.831 1.79.09 3.368.235 6.503 1.75l3.087-5.377C18.17 7.5 14.207 6.584 10.965 6.577h-.02c-3.782 0-6.933 1.233-8.888 3.25C.698 11.24-.037 13.026-.07 15.014c-.05 2.723.952 4.656 3.051 6.202 1.776 1.3 4.041 2.138 6.042 2.766 2.47.761 4.484 1.426 4.461 2.843-.02.515-.212 1-.585 1.381-.615.639-1.559.875-2.865.904-2.518.05-4.385-.342-7.36-2.1L-.07 32.464A20.504 20.504 0 0 0 9.99 35.139h.463c3.118-.06 5.635-.95 7.648-2.568l.325-.284-.889 2.389h8.07l1.356-4.122c1.417.48 3.032.75 4.742.75 1.668 0 3.242-.252 4.634-.71l1.304 4.082h13.166v-8.537h2.873c6.939 0 11.047-3.532 11.047-9.458 0-6.597-3.99-9.623-12.485-9.623" style="fill:#fff;fill-opacity:1;fill-rule:evenodd;stroke:none"/></svg>