<svg version="1.1" xmlns="http://www.w3.org/2000/svg" xmlns:xlink="http://www.w3.org/1999/xlink" x="0px" y="0px" viewBox="0 0 747 316" style="height:45px; enable-background:new 0 0 747 316;" xml:space="preserve" role="img">
<style type="text/css">
	.st-blue{fill:#0766D1;}
</style>
<g>
	<path class="st-blue" d="M267,181c1.1,29.6,25,38.9,50.3,38.9c19.2,0,45.2-4.7,45.2-30c0-25.7-30.4-30-61.1-37.4
		c-30.4-7.4-61.1-18.3-61.1-56.8c0-40.5,37.3-57.2,69.8-57.2c41.3,0,74.2,14,76.7,63H356c-2.2-25.7-23.2-33.9-43.4-33.9
		c-18.5,0-39.8,5.5-39.8,25.7c0,23.7,32.6,27.6,61.2,35c30.8,7.4,61.2,18.3,61.2,57.2c0,47.9-41.6,63.4-79.6,63.4
		c-42,0-77.4-18.3-79.2-68.1L267,181L267,181z"></path>
	<path class="st-blue" d="M526.8,174.4c0,18.3-16.7,45.5-57.2,45.5c-18.8,0-36.2-7.8-36.2-29.6c0-24.5,17.4-32.3,37.6-36.2
		c20.6-3.9,43.8-4.3,55.7-13.6v33.9H526.8z M576.8,218c-4,1.6-6.9,1.9-9.4,1.9c-9.8,0-9.8-7-9.8-22.6V93.9
		c0-47.1-36.5-55.3-70.2-55.3c-41.6,0-77.5,17.5-79.3,67.3h30.8c1.5-29.6,20.6-38.1,46.7-38.1c19.5,0,41.6,4.7,41.6,33.5
		c0,24.9-28.9,22.6-63,29.6c-31.8,6.6-63.3,16.3-63.3,61.9c0,40.1,27.9,56.4,61.9,56.4c26,0,48.8-9.7,65.8-31.1
		c0,21.8,10.2,31.1,26.1,31.1c9.8,0,16.6-1.9,22.1-5.4L576.8,218L576.8,218z"></path>
	<path class="st-blue" d="M605.3,181c1.1,29.6,25,38.9,50.3,38.9c19.2,0,45.2-4.7,45.2-30c0-25.7-30.4-30-61.2-37.4
		c-30.4-7.4-61.2-18.3-61.2-56.8c0-40.5,37.3-57.2,69.8-57.2c41.3,0,74.2,14,76.7,63h-30.8c-2.2-25.7-23.2-33.9-43.4-33.9
		c-18.5,0-39.8,5.5-39.8,25.7c0,23.7,32.6,27.6,61.2,35c30.8,7.4,61.2,18.3,61.2,57.2c0,47.9-41.6,63.4-79.6,63.4
		c-42,0-77.5-18.3-79.3-68.1L605.3,181L605.3,181z"></path>
	<path class="st-blue" d="M137.4,98.3l-5.1-6.2c-7.1-8.5-18.7-8.4-27.2-1.4c-8.6,7.1-11.1,18.8-4,27.4c0,0,0.9,1,2.3,2.8"></path>
	<path class="st-blue" d="M103.2,120.8c16.3,19.6,38.2,45.9,38.2,45.9c27.3,33.1,15.1,74-21.9,97.2C86.9,284.4,27,277.1,6.4,243.5
		c16,47.2,69.6,78,128.9,63.2c51.4-12.8,108.9-79,46.1-155.2L134.6,95"></path>
	<path class="st-blue" d="M108.2,191.7C92.4,172.6,73,149.3,73,149.3c-27.3-33.1-15.1-74,21.9-97.2c32.6-20.5,92.5-13.2,113.1,20.4
		c-16-47.2-69.6-78-129-63.2c-51.3,12.9-108.8,79-46,155.3l44.5,53.8"></path>
	<path class="st-blue" d="M70.5,210.1l10.6,12.8c7.1,8.5,18.7,8.4,27.2,1.4c8.6-7.1,11.1-18.8,4-27.4c0,0-4.2-5-10.2-12.3"></path>
	<path class="st-blue" d="M720.8,243.9c0-5.6,4.2-9.9,9.7-9.9c5.3,0,9.6,4.2,9.6,9.9s-4.3,9.9-9.6,9.9
		C725,253.9,720.8,249.7,720.8,243.9 M730.5,255.8c6.5,0,12-5,12-11.9c0-6.8-5.5-11.9-12-11.9s-12.1,5-12.1,11.9
		S723.9,255.8,730.5,255.8 M727.9,244.9h2.4l3.6,6h2.3l-3.9-6c2-0.2,3.6-1.3,3.6-3.8c0-2.7-1.6-3.9-4.8-3.9h-5.2v13.7h2.1
		L727.9,244.9L727.9,244.9z M727.9,243.1v-4.3h2.8c1.5,0,3,0.3,3,2c0,2.1-1.5,2.2-3.3,2.2h-2.5V243.1z"></path>
	<path class="st-blue" d="M215.7,243.9c0-5.6,4.2-9.9,9.7-9.9c5.4,0,9.6,4.2,9.6,9.9s-4.3,9.9-9.6,9.9
		C219.9,253.9,215.7,249.7,215.7,243.9 M225.4,255.8c6.5,0,12-5,12-11.9c0-6.8-5.5-11.9-12-11.9s-12.1,5-12.1,11.9
		C213.3,250.8,218.9,255.8,225.4,255.8 M222.9,244.9h2.4l3.6,6h2.3l-3.9-6c2-0.2,3.6-1.3,3.6-3.8c0-2.7-1.6-3.9-4.9-3.9h-5.2v13.7
		h2.1L222.9,244.9L222.9,244.9z M222.9,243.1v-4.3h2.8c1.5,0,3,0.3,3,2c0,2.1-1.5,2.2-3.3,2.2h-2.5V243.1z"></path>
</g>
<path d="M516.1-381.9"></path>
<title>SAS Logo</title></svg>