<svg xmlns="http://www.w3.org/2000/svg" viewBox="0 0 243.43123 98.10173"><path d="M238.68225,95.72672a2.3745,2.3745,0,1,1,2.374,2.375h-.00088a2.37684,2.37684,0,0,1-2.37311-2.375m4.169,0a1.79866,1.79866,0,1,0-1.7959,1.91409,1.82248,1.82248,0,0,0,1.79806-1.84656q-.00045-.03378-.00216-.06753m-2.709-1.35251h1c.6445,0,.99219.22171.99219.78808a.67106.67106,0,0,1-.7012.7226l.72171,1.17779h-.5127l-.69531-1.1582h-.3028v1.1582h-.50189Zm.50189,1.15039h.43952c.29489,0,.5527-.04.5527-.4014,0-.31641-.289-.36911-.5469-.36911h-.44532Z" transform="translate(-0.00001 0.00001)"/><path d="M231.26724,56.66422c0-3.9228-3.63189-8.33-9.45309-6.55372-6.9336,2.11231-8.67969,12.89652-8.4473,20.71192.25391,8.5997,3.1416,18.0762,7.85349,18.709,3.1611.40531,5.03711-1.56048,5.05468-3.23239l-.0195-12.92581a3.59054,3.59054,0,0,0-3.4786-3.62891V64.634l13.98251.0029-.01569,32.91989-12.18359-2.02151c-12.3837-1.25189-19.2753-9.85932-21.15131-21.05759-2.72369-16.1904,5.90921-28.2319,20.4267-30.2251,0,0,9.6192-1.53219,12.74912-2.03118l.00387,14.40078-5.32129.042" transform="translate(-0.00001 0.00001)"/><path d="M53.63885,49.33221a13.46506,13.46506,0,0,1,10.3906,13.416c-.12891,11.49319-8.3335,14.51569-13.45509,14.48639l-8.519-.043.04491,7.44531c0,.7988.69241,2.10349,3.2344,2.70511l.02239,4.17279c-5.3252.626-10.3315,1.2002-15.75831,1.94049l.01421-4.78518a3.318,3.318,0,0,0,3.15041-3.17969V63.60663c-.02-1.0361-1.18169-1.8486-3.1118-2.00491l.01411-5.07911,12.40479,1.7793v13.462l7.166.0429c3.63621-.09759,5.9492-3.96289,6.00779-7.82708.08942-5.9151-3.3134-8.68659-7.2055-9.30371L14.19887,50.64084a2.7451,2.7451,0,0,0-2.0112.62311,2.89377,2.89377,0,0,0-.43851,3.2753s8.3335,16.55859,12.30469,24.15921c2.1074,3.961,2.6431,9.2041-.2578,12.71191-3.541,4.28909-9.67529,3.6387-23.66069,6.14651V84.15842l5.0567.03119a6.79786,6.79786,0,0,0,3.55471,6.0332,5.32673,5.32673,0,0,0,5.3598-.69919c3.2276-3.1719.0142-6.7803-2.9487-12.62112L.99037,56.30972c-.3506-.75479-2.4521-5.6669.8028-9.455a9.32063,9.32063,0,0,1,8.5522-2.979l43.29348,5.45651" transform="translate(-0.00001 0.00001)"/><path d="M202.93915,51.25211a3.67917,3.67917,0,0,0-3.44358,3.90057l.00208.03113V92.19449L188.77893,90.9631c-3.93069-8.8262-11.2207-26.74029-11.2207-26.74029l.01458,16.8594c0,2.75879,1.0459,4.2324,2.9737,4.70121V90.133c-9.06641-.85251-18.45511-1.59961-27.8233-2.14841l.04791-4.1358c2.2803-.124,3.4404-1.84671,3.4404-4.3086l.02151-21.05081a3.01221,3.01221,0,0,0-3.39908-2.56769l-.04229.0062-.04792-4.15921,12.10752-.85642-.0069,28.86911a3.65288,3.65288,0,0,0,3.172,4.07743q.16379.02046.329.02606c1.7734.1524,3.38479-1.0546,3.38479-2.57221l-.0303-23.7178c0-1.45209-1.25491-2.69919-3.2236-2.7471l.041-4.22949,13.02542-1.19138,12.05078,27.625-.00979-21.0625a3.33156,3.33156,0,0,0-3.413-3.24811l-.03625.0011.04681-4.16849s9.69831-1.17871,12.7598-1.48629v4.16449" transform="translate(-0.00001 0.00001)"/><path d="M151.59045,68.77848c-.43652-9.918-6.7929-15.81738-13.86523-15.86035L117.95612,52.84l.06213,4.6446c2.41107-.07819,3.3623,1.95208,3.3623,5.11322l.00531,24.33007,15.74268.09772C143.903,87.06071,152.14716,81.4025,151.59045,68.77848ZM135.65784,81.89762l-5.251.003V58.049l4.45221-.00287c4.48041-.15143,7.51068,5.25677,7.51068,12.748C142.36975,77.55882,139.33075,81.9221,135.65784,81.89762Z" transform="translate(-0.00001 0.00001)"/><path d="M118.40735,76.53526l-5.13519-.0293c-.02839,3.16125-1.50739,5.26575-4.0044,5.4375,0,0-2.72217-.1308-3.92041-.08386l-.00586-29.23639-12.52252-.498-.05066,4.539c1.3501-.03613,3.37347.8418,3.37891,2.61042l.0141,20.08587a2.47928,2.47928,0,0,1-2.28424,2.89362,2.33361,2.33361,0,0,1-2.44971-1.57031L81.09778,51.4846l-13.01123-.95319-.04779,4.69733c2.04291.19915,3.11468,1.53216,2.21093,3.27539l-8.28564,22.787a6.12,6.12,0,0,1-4.6192,3.93165l-.05908,5.06451L71.1535,89.01676V84.68864a2.25436,2.25436,0,0,1-2.46392-3.04792l.90917-2.16015,11.77393.00689.49078,2.37208c.3501,1.08392-.40771,1.90032-2.36621,1.8457l-.01416,4.72461c7.31195-.67188,31.91449-1.61719,38.92426-1.51081C118.41858,83.29118,118.40735,80.15635,118.40735,76.53526ZM71.636,74.035,75.76,62.647l3.86,11.461Z" transform="translate(-0.00001 0.00001)"/><path d="M125.91855,13.5563l1.1983-6.35888c-7.0762,1.2344-10.062,1.07519-12.17819,3.188a6.08394,6.08394,0,0,0-1.231,6.25738c.69238,1.9838,3.65329,10.98779,3.7739,11.3476a2.49452,2.49452,0,0,1-.83881,2.7832,2.76736,2.76736,0,0,1-2.688.34909,2.5938,2.5938,0,0,1-1.20361-2.84909l-2.4639.36179-1.2261,6.25439c7.07959-1.22949,10.0625-1.07519,12.1734-3.1821a6.07266,6.07266,0,0,0,1.23388-6.26321c-.68951-1.9809-3.17831-9.84369-3.51809-11.03949-.34281-1.18952-.5903-2.10651.58932-3.09131a2.43749,2.43749,0,0,1,3.91019,2.6225l2.46869-.37992" transform="translate(-0.00001 0.00001)"/><path d="M94.73206,14.55v.0639l.06689.02539c26.2197-16.539,45.63821-10.706,45.96439-.63669.23629,7.4629-4.3985,13.9473-15.36139,19.4278l-.0253.0752.0625.0361c15.52929-5.25,22.46869-12.55081,22.4541-20.67731-.01859-16.936-33.38431-17.9277-53.16119,1.68561" transform="translate(-0.00001 0.00001)"/><path d="M141.947,27.51871l-.08011-.021c-26.24951,16.74912-45.69781,10.87311-46.0293.80521-.24121-7.4643,4.50339-13.977,15.4751-19.4624l-.02051.0112.0366-.0781-.0669-.03659c-15.5195,5.25439-22.562,12.57861-22.55371,20.70511.022,16.93548,33.6958,17.6821,53.2388-1.855v-.06839" transform="translate(-0.00001 0.00001)"/></svg>