<?xml version="1.0" encoding="utf-8"?>
<!-- Generator: Adobe Illustrator 16.0.0, SVG Export Plug-In . SVG Version: 6.00 Build 0)  -->
<!DOCTYPE svg PUBLIC "-//W3C//DTD SVG 1.1//EN" "http://www.w3.org/Graphics/SVG/1.1/DTD/svg11.dtd">
<svg version="1.1" id="Layer_1" xmlns="http://www.w3.org/2000/svg" xmlns:xlink="http://www.w3.org/1999/xlink" x="0px" y="0px"
	 width="1000px" height="201.633px" viewBox="-364.296 -73.454 1000 201.633"
	 enable-background="new -364.296 -73.454 1000 201.633" xml:space="preserve">
<path fill="#15A6DF" d="M-17.092,15.368c22.103-41.799,80.636-24.471,80.58,11.69c-0.081,52.972-0.088,60.658-0.088,60.658
	c-0.185,32.609,6.466,29.677,15.076,32.434c3.729,1.187,3.302,4.563-1.621,4.563c-6.727,0-12.734,0-12.734,0H28.975
	c0,0-6.005,0-12.729,0c-5.351,0-4.742-3.4-1.445-4.563c8.846-3.135,15.791,1.011,15.375-32.434c0,0,0-49.129,0-56.814
	c0-10.093-2.722-17.297-10.174-21.863C12.556,4.473,3.604,5.574-3.058,9.762c-7.355,4.62-13.508,15.224-13.504,25.771l-0.018,0.719
	c-0.07,47.384-0.078,51.512-0.078,51.512c-0.18,32.613,6.462,29.677,15.073,32.433c3.737,1.195,3.301,4.563-1.617,4.563
	c-6.723,0-12.73,0-12.73,0h-35.15c0,0-6.005,0-12.729,0c-5.347,0-4.746-3.396-1.445-4.563c8.843-3.123,15.8,1.022,15.372-32.433
	c0,0,0-49.367,0-57.056c0-10.089-2.719-17.296-10.165-21.866c-7.446-4.563-16.337-3.364-23.065,0.723
	c-6.729,4.081-13.783,15.616-13.783,27.864c0,5.052,0,50.331,0,50.331c-0.178,32.613,6.948,29.677,15.558,32.434
	c3.729,1.194,3.301,4.563-1.621,4.563c-6.729,0-12.733,0-12.733,0h-35.147c0,0-5.526,0-12.253,0c-5.343,0-4.742-3.396-1.441-4.563
	c8.846-3.123,15.319,1.021,14.896-32.434c0,0,0-50.572,0-55.375c0-4.804-1.765-16.721-16.176-17.056
	c-5.165-0.122-4.803-4.681-0.239-4.803c5.527-0.144,21.819,1.475,43.482-17.3c3.604-3.12,5.658-3.033,5.658,1.536
	c0,5.048,0,20.542,0,20.542c20.021-37.867,69.276-27.073,78.716,2.123L-17.092,15.368z M-171.258-5.548
	c-17.136,16.599-33.639,16.095-44.934,16.217c-3.846,0.036-3.246,3.721-1.2,3.721c9.967,0,17.294,8.167,17.294,21.502V87.9
	c0.421,33.448-6.525,29.31-15.371,32.426c-3.301,1.173-3.909,4.569,1.441,4.569c6.723,0,12.729,0,12.729,0h35.146
	c0,0,5.288,0,12.016,0c4.922,0,5.354-3.375,1.617-4.569c-8.606-2.741-15.015,0.18-14.83-32.426V-3.925
	C-167.352-6.332-168.448-8.272-171.258-5.548z M-245.619,74.208V-64.165c30.991-2.878,67.987,11.838,73.752,49.73
	c0.604,3.994,4.561,2.763,4.561-0.72c0-2.645,0-57.897,0-57.897h-98.494h-98.497c0,0,0,55.256,0,57.897
	c0,3.483,3.954,4.714,4.564,0.72c5.759-37.892,42.764-52.612,73.752-49.73V87.665c0.601,32.912-10.158,29.847-18.26,32.664
	c-2.476,0.87-3.003,4.569,1.923,4.569c6.725,0,36.518,0,36.518,0l0.358-0.122c0,0,29.311,0,36.034,0
	c4.926,0,4.404-3.699,1.923-4.563c-8.101-2.828-18.856,0.244-18.26-32.668L-245.619,74.208z M264.531-35.337V87.665
	c0.476,33.628-10.117,29.958-18.257,32.664c-2.598,0.87-3.367,4.497,1.914,4.569c6.729,0.09,32.679,0,32.679,0s29.792,0,36.514,0
	c4.088,0,5.361-3.458,1.922-4.688c-8.074-2.875-18.38,1.685-18.257-32.549V-35.337l0.093-0.871
	c0.123-33.984,9.014-29.67,17.178-32.308c4.159-1.349,4.203-4.9-0.846-4.926c-6.721-0.029-36.514,0-36.514,0s-25.942-0.021-32.671,0
	c-5.526,0.029-4.135,3.955-1.087,4.804c8.736,2.439,17.66-0.115,17.426,32.43L264.531-35.337z M397.389,9.683
	c6.729-4.08,15.616-5.282,23.064-0.716c7.444,4.563,10.172,11.766,10.172,21.855c0,7.696,0,57.055,0,57.055
	c0.421,33.448-6.523,29.318-15.378,32.434c-3.3,1.166-3.897,4.563,1.446,4.563c6.721,0,12.729,0,12.729,0h35.146
	c0,0,6.01,0,12.738,0c4.922,0,5.354-3.367,1.615-4.563c-8.614-2.749-15.249,0.181-15.076-32.434c0,0,0.007-7.923,0.094-60.898
	c0.05-36.161-64.011-53.364-86.111-11.561c0,0,0-15.497,0-20.542c0-4.566-1.676-5.214-4.706-1.529
	c-16.616,20.222-38.913,16.979-44.44,17.3c-4.199,0.234-4.069,4.44,0.241,4.804c14.363,1.194,16.174,12.251,16.174,17.055
	s0,55.371,0,55.371c0.421,33.448-6.523,29.318-15.375,32.434c-3.296,1.166-3.9,4.563,1.442,4.563c6.729,0,12.73,0,12.73,0h35.154
	c0,0,6.001,0,12.729,0c4.923,0,5.354-3.367,1.623-4.563c-8.614-2.749-15.734,0.181-15.565-32.434c0,0,0-45.282,0-50.33
	C377.837,25.299,390.66,13.77,397.389,9.683z M579.75,11.86c1.763,3.307,0.561,6.729-0.468,9.027
	c-0.997,2.231-1.217,4.278-1.217,6.495c0,8.204,5.966,14.519,13.688,14.519c7.726,0,13.63-6.314,13.63-14.519
	c0-2.702-0.173-4.437-1.273-6.732l-0.856-1.598c-11.32-17.624-29.498-28.602-52.411-28.709
	c-33.844-0.166-65.601,30.195-65.601,68.012c0,37.813,25.064,67.778,62.197,68.814c27.188,0.756,51.014-11.011,62.772-39.784
	c2.008-5.812-2.684-7.995-5.922-1.396c-18.703,38.083-56.333,23.157-67.407,11.514c-9.535-10.038-16.293-22.809-17.235-42.134
	c-0.237-7.308,0.316-10.74,0.438-13.252C522,18.114,536.147-0.093,553.915-0.093c10.945,0,19.739,1.288,25.676,11.579L579.75,11.86z
	 M609.204,112.161c0,7.318,5.93,13.248,13.248,13.248c7.322,0,13.252-5.926,13.252-13.248c0-7.326-5.93-13.248-13.252-13.248
	C615.134,98.913,609.204,104.835,609.204,112.161z M215.626,53.814c-2.688-35.297-31.566-62.726-66.939-62.726
	c-37.142,0-67.262,30.656-67.262,68.469c0,37.809,30.482,67.619,67.618,68.58c29.073,0.763,50.677-8.614,63.965-39.651
	c1.647-5.156-3.455-8.261-6.865-1.76c-21.291,40.605-61.058,25.907-72.125,14.264c-9.798-10.313-15.258-25.331-15.891-45.549
	l1.838,0.011h92.981C215.831,55.451,215.626,53.814,215.626,53.814z M118.583,45.848c0.229-27.274,13.29-45.192,31.514-45.192
	c18.069,0,31.628,14.381,31.351,45.214h-59.011L118.583,45.848z"/>
</svg>
