<svg xmlns="http://www.w3.org/2000/svg" viewBox="0 0 425.3305 117.73353"><path d="M308.53129,97.61822c0,.58-.001,1.0107,0,1.4414.00871,4.1596-.0342,8.3203.04,12.479.0771,4.3408,2.4404,7.2016,6.6308,8.27339a10.628,10.628,0,0,0,9.4053-1.89989c.3203-.2388.64461-.47311,1.1992-.8804v3.0669h12.0508a3.76539,3.76539,0,0,1-2.1308-3.4961c-.0528-.5561-.084-1.1167-.085-1.6748q-.00735-10.37984-.0068-20.75919c0-.459-.045-.918-.0743-1.4532-4.0888.1714-8.0244.336-11.9589.501,1.8798.8858,2.1259,2.4946,2.14741,4.1255q.07918,5.87835-.00681,11.7588a9.02626,9.02626,0,0,1-.5108,2.811,3.10444,3.10444,0,0,1-2.8955,2.1612c-2.33789.1704-3.7773-1.2686-3.789-3.88089-.0244-5.35992-.0078-10.7197-.0088-16.0796v-1.3564c-.5088-.0254-.8994-.0616-1.28909-.0616q-13.25972-.0051-26.51951.001a16.15779,16.15779,0,0,0-8.8408,2.19968,8.68127,8.68127,0,0,0-1.6143,13.87452,38.08973,38.08973,0,0,0,4.06061,3.10989c-.79011.2305-1.71591.4692-2.61921.7725a1.68612,1.68612,0,0,0-1.2402,1.935,5.83463,5.83463,0,0,0,5.7881,5.5952c.7578.0391,1.52631-.0556,2.27731.024a34.28855,34.28855,0,0,1,5.53609.7514,3.51569,3.51569,0,0,1,2.4961,3.586,3.75583,3.75583,0,0,1-2.4306,3.894,9.06986,9.06986,0,0,1-6.7901.2456,4.04539,4.04539,0,0,1-2.8847-2.8042c-.3487-1.4761.3066-2.58691,1.8027-3.3804-2.7598-.4028-5.2656-.5449-7.6367.6304-3.4609,1.7148-3.8779,5.7163-.7461,7.9507a16.47251,16.47251,0,0,0,4.2617,2.123c4.1455,1.3999,8.4424,1.1807,12.7129.8106a16.594,16.594,0,0,0,8.4375-2.8081,8.082,8.082,0,0,0-.7217-13.7925,11.053,11.053,0,0,0-4.1718-1.3667c-2.7764-.2676-5.586-.1855-8.3799-.2827-.9522-.03321-2.1787-.0103-2.2578-1.2529-.0831-1.3091,1.1757-1.1246,2.0449-1.2432a25.669,25.669,0,0,0,9.4746-2.83011,7.84113,7.84113,0,0,0,2.5273-11.91258c-.1758-.2407-.3427-.4888-.5791-.8276.3418-.0371.5332-.0752.7246-.0757C304.07809,97.61672,306.19629,97.61822,308.53129,97.61822Z" transform="translate(-6.0845 -16.55762)" fill="#fff" fill-rule="evenodd"/><path d="M218.22849,99.92822c2.0996-.5674,4.0733-1.1997,6.0908-1.61622a6.222,6.222,0,0,1,4.9659.75932c1.4414.9961,1.4824,2.6269-.002,3.5386a12.00411,12.00411,0,0,1-2.9941,1.13808c-2.6436.75442-5.3897,1.22762-7.9375,2.21732a6.65472,6.65472,0,0,0-4.3848,6.32429c-.1152,3.0209,1.86821,5.5527,5.2187,6.8725,2.9922,1.1782,6.1182,1.0264,9.2334.9956a.80109.80109,0,0,0,.6094-.2749c.6494-1.2436,1.2549-2.5107,1.8252-3.6719a19.57728,19.57728,0,0,1-3.7764-.5517,3.28436,3.28436,0,0,1-1.0917-5.69879,9.8373,9.8373,0,0,1,4.8115-1.8198c0,1.3233-.001,2.4776,0,3.63138.0058,4.51561,2.2705,7.31591,6.6787,8.17231a14.71853,14.71853,0,0,0,2.7441.22169c5.8799.01911,11.7588.00981,17.6387.00981h1.2734c-1.8496-1.0103-2.2109-2.6572-2.2216-4.439-.0274-4.0796-.0118-8.15869-.0039-12.23829a7.07513,7.07513,0,0,1,.1132-1.1914,3.79211,3.79211,0,0,1,4.1543-3.4516c1.9961.14648,2.9375,1.3652,2.9453,3.8911.0137,4.43938.00391,8.87889.00391,13.31829v4.024h12.13289a4.19859,4.19859,0,0,1-2.3702-4.125c-.0146-.3994-.00969-.7998-.00969-1.1997-.002-4.43949.04-8.87939-.01661-13.31839-.0596-4.5889-2.6289-7.5942-7.0908-8.5093a10.61067,10.61067,0,0,0-8.7237,1.98148c-.3066.22312-.6133.44822-1.0781.78852-.04879-1.08352-.0889-1.9736-.13479-2.9858-4.05661.1655-8.01561.3267-11.97361.4878,2.0127.9043,2.14061,2.66448,2.1533,4.3931.0391,5.7993.0156,11.5986.0108,17.39789,0,.3438-.0547.687-.0811,1.00249-4.0947.75241-6.375-1.12989-6.3945-5.16018-.0117-2.6792-.0303-5.3589-.0694-8.0381-.0752-5.0952-2.3261-8.0449-7.2343-9.4092a24.74432,24.74432,0,0,0-12.3389.0889,1.32135,1.32135,0,0,0-.8184.7202C219.43159,96.085,218.84859,97.99122,218.22849,99.92822Z" transform="translate(-6.0845 -16.55762)" fill="#fff" fill-rule="evenodd"/><path d="M369.93459,93.20512c1.5869.7265,1.9648,2.081,2.1299,3.563a9.72153,9.72153,0,0,1,.0332,1.0786q-.00735,8.5203-.0225,17.04c-.001.38229-.0449.7647-.0674,1.1172-4.2812.7593-6.4814-1.0771-6.5156-5.27591-.0234-2.87888-.0195-5.76118-.1651-8.63518-.1884-3.7085-1.6875-6.6367-5.3457-8.084-4.6962-1.8574-9.4755-1.5762-14.27439-.5039a1.06723,1.06723,0,0,0-.67281.57808c-.66019,1.95122-1.2696,3.91942-1.8838,5.85062,2.05761-.5601,4.0283-1.18562,6.04-1.6162a6.47286,6.47286,0,0,1,4.7754.5967c1.7188,1.0171,1.791,2.8105.0869,3.8086a11.0917,11.0917,0,0,1-2.7929,1.017c-2.2383.587-4.541.9629-6.7373,1.6739-3.6944,1.1963-5.6856,3.8657-5.6368,7.18649.0459,3.0464,2.1641,5.50589,5.73931,6.749,2.82909.9834,5.75389.8277,8.668.8086a.917.917,0,0,0,.69919-.3315c.6406-1.2115,1.2246-2.4536,1.79-3.6094a27.09652,27.09652,0,0,1-3.7871-.54881,3.18593,3.18593,0,0,1-2.2597-2.83989,2.896,2.896,0,0,1,1.455-3.07179,42.73424,42.73424,0,0,1,4.5694-1.8774c0,1.8716-.0567,3.3462.0117,4.81539a6.83948,6.83948,0,0,0,4.6572,6.6236,13.33486,13.33486,0,0,0,4.3184.8208c6.1582.0879,12.3193.0385,18.4785.0337.3135,0,.626-.04841.9385-.0743-1.878-.8452-2.1182-2.4775-2.1475-4.0913-.0703-3.9184-.0889-7.84081-.002-11.75881a4.71194,4.71194,0,0,1,4.6006-4.90378,32.43743,32.43743,0,0,1,3.3623-.019c0-1.8911-.039-3.76222.0176-5.6299.0254-.8349-.2969-1.1348-1.083-1.1914a6.66007,6.66007,0,0,0-6.2002,2.6777c-.16889.2246-.3672.4273-.79589.9209v-3.3818C377.82129,92.88622,373.87789,93.04542,369.93459,93.20512Z" transform="translate(-6.0845 -16.55762)" fill="#fff" fill-rule="evenodd"/><path d="M409.20509,94.41892a1.40456,1.40456,0,0,1-.28909-.0141c-.35741-.17682-.70991-.3609-1.06641-.5366a10.94626,10.94626,0,0,0-11.89159.9199c-6.56741,4.6367-7.49611,15.85588-1.88181,21.77979a11.4398,11.4398,0,0,0,9.9795,3.9038c.6006-.0655,1.4345-.2046,1.7138-.6143.9307-1.3637,1.6582-2.8667,2.501-4.3828-4.1123-.0312-6.06149-1.5444-7.0928-5.40869a14.3152,14.3152,0,0,1,.0274-7.58592,7.32411,7.32411,0,0,1,1.4023-2.73488,3.548,3.548,0,0,1,6.1358,1.0205,9.06512,9.06512,0,0,1,.5224,3.1592c.0518,4.958.0215,9.91749.02541,14.876,0,.4219.03519.8437.05469,1.2763h12.2412a3.19191,3.19191,0,0,1-2.083-2.7724,12.4358,12.4358,0,0,1-.1592-2.0249q-.0249-16.55489-.0283-33.11129c-.001-.46,0-.92052,0-1.4551-4.2002.1719-8.2002.3359-12.1992.4995a3.4502,3.4502,0,0,1,2.0625,3.2392C409.25679,87.75542,409.20509,91.062,409.20509,94.41892Z" transform="translate(-6.0845 -16.55762)" fill="#fff" fill-rule="evenodd"/><path d="M181.86469,80.72362c-.0229.0967-.0459.19238-.0688.2891,1.8809.9526,2.645,2.69628,3.2998,4.5254,2.9756,8.3125,6.0259,16.5996,8.9146,24.9424,2.07171,5.98239,6.8261,8.37109,12.4882,9.82909q6.69585-19.76954,13.3833-39.51709h-10.5659c2.7984,1.9604,3.1646,3.0747,2.1729,6.2339q-1.63335,5.203-3.2725,10.4048c-1.1558,3.686-2.3066,7.374-3.5742,11.4262-.2837-.7661-.45309-1.19242-.6006-1.626q-4.3176-12.70965-8.6128-25.4277a1.31551,1.31551,0,0,0-1.5015-1.1035c-2.7983.0635-5.5991.0234-8.3989.0234Z" transform="translate(-6.0845 -16.55762)" fill="#fff" fill-rule="evenodd"/><path d="M308.53129,97.61822c-2.335,0-4.4532-.0015-6.5704.0029-.1914.0005-.3828.0386-.7246.0757.2364.3388.4033.5869.5791.8276a7.84113,7.84113,0,0,1-2.5273,11.91258,25.669,25.669,0,0,1-9.4746,2.83011c-.8692.1186-2.128-.0659-2.0449,1.2432.0791,1.2426,1.3056,1.21969,2.2578,1.2529,2.7939.0972,5.6035.0151,8.3799.2827a11.053,11.053,0,0,1,4.1718,1.3667,8.082,8.082,0,0,1,.7217,13.7925,16.594,16.594,0,0,1-8.4375,2.8081c-4.2705.3701-8.5674.5893-12.7129-.8106a16.47251,16.47251,0,0,1-4.2617-2.123c-3.1318-2.2344-2.7148-6.2359.7461-7.9507,2.3711-1.1753,4.8769-1.0332,7.6367-.6304-1.4961.79349-2.1514,1.9043-1.8027,3.3804a4.04539,4.04539,0,0,0,2.8847,2.8042,9.06986,9.06986,0,0,0,6.7901-.2456,3.75583,3.75583,0,0,0,2.4306-3.894,3.51569,3.51569,0,0,0-2.4961-3.586,34.28855,34.28855,0,0,0-5.53609-.7514c-.751-.0796-1.51951.0151-2.27731-.024a5.83463,5.83463,0,0,1-5.7881-5.5952,1.68612,1.68612,0,0,1,1.2402-1.935c.9033-.3033,1.8291-.542,2.61921-.7725a38.08973,38.08973,0,0,1-4.06061-3.10989,8.68127,8.68127,0,0,1,1.6143-13.87452,16.15779,16.15779,0,0,1,8.8408-2.19968q13.2597-.014,26.51951-.001c.38969,0,.78029.0362,1.28909.0616v1.3564c.001,5.3599-.0156,10.71968.0088,16.0796.0117,2.61229,1.45111,4.05129,3.789,3.88089a3.10444,3.10444,0,0,0,2.8955-2.1612,9.02626,9.02626,0,0,0,.5108-2.811q.08355-5.8785.00681-11.7588c-.02151-1.6309-.26761-3.2397-2.14741-4.1255,3.9345-.165,7.8701-.3296,11.9589-.501.0293.5352.0743.9942.0743,1.4532q.0072,10.3791.0068,20.75919c.001.5581.0322,1.1187.085,1.6748a3.76539,3.76539,0,0,0,2.1308,3.4961h-12.0508v-3.0669c-.55459.40729-.8789.6416-1.1992.8804a10.628,10.628,0,0,1-9.4053,1.89989c-4.1904-1.07179-6.5537-3.93259-6.6308-8.27339-.0742-4.15869-.03129-8.31939-.04-12.479C308.53029,98.62892,308.53129,98.19822,308.53129,97.61822Zm-14.5108,4.9297a15.65486,15.65486,0,0,0-.9043-3.04692,3.02573,3.02573,0,0,0-5.0303-.51268c-1.332,1.6211-1.4951,5.4253-.2793,7.1553a3.19569,3.19569,0,0,0,3.0723,1.48038,2.79306,2.79306,0,0,0,2.499-2.09808C293.668,104.627,293.78519,103.67292,294.02049,102.54792Z" transform="translate(-6.0845 -16.55762)" fill="#c41230" fill-rule="evenodd"/><path d="M218.22849,99.92822c.6201-1.937,1.2031-3.84322,1.8574-5.7246a1.32135,1.32135,0,0,1,.8184-.7202,24.74432,24.74432,0,0,1,12.3389-.0889c4.9082,1.3643,7.1591,4.314,7.2343,9.4092.0391,2.6792.0577,5.3589.0694,8.0381.0195,4.03029,2.2998,5.91259,6.3945,5.16018.0264-.31549.0811-.65869.0811-1.00249.0048-5.79929.0283-11.59859-.0108-17.39789-.01269-1.72862-.1406-3.4888-2.1533-4.3931,3.958-.1611,7.917-.3223,11.97361-.4878.04589,1.0122.086,1.90228.13479,2.9858.4648-.3403.7715-.5654,1.0781-.78852a10.61067,10.61067,0,0,1,8.7237-1.98148c4.4619.9151,7.0312,3.9204,7.0908,8.5093.05661,4.439.01461,8.8789.01661,13.31839,0,.3999-.00491.8003.00969,1.1997a4.19859,4.19859,0,0,0,2.3702,4.125H264.123v-4.024c0-4.4394.00979-8.87891-.00391-13.31829-.0078-2.5259-.9492-3.74462-2.9453-3.8911a3.79211,3.79211,0,0,0-4.1543,3.4516,7.07513,7.07513,0,0,0-.1132,1.1914c-.0079,4.0796-.0235,8.15869.0039,12.23829.0107,1.7818.372,3.4287,2.2216,4.439h-1.2734c-5.8799,0-11.7588.0093-17.6387-.00981a14.71853,14.71853,0,0,1-2.7441-.22169c-4.4082-.8564-6.6729-3.6567-6.6787-8.17231-.001-1.15378,0-2.30808,0-3.63138a9.8373,9.8373,0,0,0-4.8115,1.8198,3.28436,3.28436,0,0,0,1.0917,5.69879,19.57728,19.57728,0,0,0,3.7764.5517c-.5703,1.1612-1.1758,2.4283-1.8252,3.6719a.80109.80109,0,0,1-.6094.2749c-3.1152.0308-6.2412.1826-9.2334-.9956-3.35049-1.3198-5.3339-3.8516-5.2187-6.8725a6.65472,6.65472,0,0,1,4.3848-6.32429c2.5478-.9897,5.2939-1.4629,7.9375-2.21732a12.00411,12.00411,0,0,0,2.9941-1.13808c1.4844-.9117,1.4434-2.5425.002-3.5386a6.222,6.222,0,0,0-4.9659-.75932C222.30179,98.72852,220.32809,99.36082,218.22849,99.92822Z" transform="translate(-6.0845 -16.55762)" fill="#c41230" fill-rule="evenodd"/><path d="M369.93459,93.20512c3.9433-.1597,7.8867-.3189,11.98141-.4844v3.3818c.42869-.4936.627-.6963.79589-.9209a6.66007,6.66007,0,0,1,6.2002-2.6777c.7861.0566,1.1084.3565,1.083,1.1914-.0566,1.86768-.0176,3.7388-.0176,5.6299a32.43743,32.43743,0,0,0-3.3623.019,4.71194,4.71194,0,0,0-4.6006,4.90378c-.0869,3.918-.0683,7.84041.002,11.75881.0293,1.6138.2695,3.2461,2.1475,4.0913-.3125.02589-.625.0743-.9385.0743-6.1592.0048-12.3203.0542-18.4785-.0337a13.33486,13.33486,0,0,1-4.3184-.8208,6.83948,6.83948,0,0,1-4.6572-6.6236c-.0684-1.46919-.0117-2.94379-.0117-4.81539a42.73424,42.73424,0,0,0-4.5694,1.8774,2.896,2.896,0,0,0-1.455,3.07179,3.18593,3.18593,0,0,0,2.2597,2.83989,27.09652,27.09652,0,0,0,3.7871.54881c-.5654,1.1558-1.1494,2.3979-1.79,3.6094a.917.917,0,0,1-.69919.3315c-2.91411.0191-5.83891.1748-8.668-.8086-3.57521-1.24311-5.69341-3.7026-5.73931-6.749-.0488-3.32079,1.9424-5.99019,5.6368-7.18649,2.1963-.711,4.499-1.0869,6.7373-1.6739a11.0917,11.0917,0,0,0,2.7929-1.017c1.7041-.9981,1.6319-2.7915-.0869-3.8086a6.47286,6.47286,0,0,0-4.7754-.5967c-2.0117.43058-3.98239,1.0561-6.04,1.6162.6142-1.9312,1.22361-3.8994,1.8838-5.85062a1.06723,1.06723,0,0,1,.67281-.57808c4.79889-1.0723,9.57819-1.3535,14.27439.5039,3.6582,1.4473,5.1573,4.3755,5.3457,8.084.1456,2.874.1417,5.7563.1651,8.63518.0342,4.19881,2.2344,6.03521,6.5156,5.27591.0225-.3525.0664-.73491.0674-1.1172q.01755-8.51956.0225-17.04a9.72153,9.72153,0,0,0-.0332-1.0786C371.89939,95.28612,371.52149,93.93162,369.93459,93.20512Z" transform="translate(-6.0845 -16.55762)" fill="#c41230" fill-rule="evenodd"/><path d="M409.20509,94.41892c0-3.35692.0517-6.6635-.0254-9.9668a3.4502,3.4502,0,0,0-2.0625-3.2392c3.999-.1636,7.999-.3276,12.1992-.4995,0,.53458-.001.9951,0,1.4551q.0102,16.5564.0283,33.11129a12.4358,12.4358,0,0,0,.1592,2.0249,3.19191,3.19191,0,0,0,2.083,2.7724h-12.2412c-.0195-.4326-.05469-.8544-.05469-1.2763-.00391-4.9585.02639-9.918-.02541-14.876a9.06512,9.06512,0,0,0-.5224-3.1592,3.548,3.548,0,0,0-6.1358-1.0205,7.32411,7.32411,0,0,0-1.4023,2.73488,14.3152,14.3152,0,0,0-.0274,7.58592c1.03131,3.86429,2.9805,5.37749,7.0928,5.40869-.8428,1.5161-1.5703,3.0191-2.501,4.3828-.2793.4097-1.1132.5488-1.7138.6143a11.4398,11.4398,0,0,1-9.9795-3.9038c-5.6143-5.92391-4.6856-17.14309,1.88181-21.77979a10.94626,10.94626,0,0,1,11.89159-.9199c.3565.1757.709.35978,1.06641.5366A1.40456,1.40456,0,0,0,409.20509,94.41892Z" transform="translate(-6.0845 -16.55762)" fill="#c41230" fill-rule="evenodd"/><path d="M181.86469,80.72362h3.6636c2.7998,0,5.6006.0401,8.3989-.0234a1.31551,1.31551,0,0,1,1.5015,1.1035q4.2708,12.72585,8.6128,25.4277c.14751.43358.3169.8599.6006,1.626,1.2676-4.0522,2.4184-7.7402,3.5742-11.4262q1.6326-5.20395,3.2725-10.4048c.9917-3.1592.6255-4.2735-2.1729-6.2339h10.5659q-6.69568,19.7709-13.3833,39.51709c-5.6621-1.458-10.41649-3.8467-12.4882-9.82909-2.8887-8.3428-5.939-16.6299-8.9146-24.9424-.6548-1.82912-1.4189-3.5728-3.2998-4.5254C181.81879,80.916,181.84179,80.82032,181.86469,80.72362Z" transform="translate(-6.0845 -16.55762)" fill="#c41230" fill-rule="evenodd"/><path d="M294.02049,102.54792c-.2353,1.125-.35249,2.07908-.6426,2.978a2.79306,2.79306,0,0,1-2.499,2.09808,3.19569,3.19569,0,0,1-3.0723-1.48038c-1.2158-1.73-1.0527-5.5342.2793-7.1553a3.02573,3.02573,0,0,1,5.0303.51268A15.65486,15.65486,0,0,1,294.02049,102.54792Z" transform="translate(-6.0845 -16.55762)" fill="#fff" fill-rule="evenodd"/><path d="M426.98049,80.12062a4.43455,4.43455,0,1,0,4.43451,4.4346A4.43481,4.43481,0,0,0,426.98049,80.12062Zm0,8.2393a3.8047,3.8047,0,1,1,3.8047-3.8047A3.80435,3.80435,0,0,1,426.98049,88.35992Z" transform="translate(-6.0845 -16.55762)" fill="#c41230" fill-rule="evenodd"/><path d="M425.24319,86.52732v-3.9438h1.748a2.327,2.327,0,0,1,.80181.1064.87325.87325,0,0,1,.43839.375,1.122,1.122,0,0,1,.1641.5948.98923.98923,0,0,1-.27149.7075,1.3716,1.3716,0,0,1-.83881.3657,1.35285,1.35285,0,0,1,.3144.1963,2.73274,2.73274,0,0,1,.4336.5249l.6856,1.0732h-.6563L427.54,85.707q-.22846-.35517-.37591-.54338a1.20581,1.20581,0,0,0-.2647-.2637.79682.79682,0,0,0-.2383-.105,1.55721,1.55721,0,0,0-.291-.019h-.6055v1.7514Zm.5214-2.2031h1.1221a1.68387,1.68387,0,0,0,.5596-.07422.59336.59336,0,0,0,.3066-.23678.6368.6368,0,0,0,.1055-.3535.58964.58964,0,0,0-.2031-.46.9519.9519,0,0,0-.6416-.1802h-1.2491Z" transform="translate(-6.0845 -16.55762)" fill="#c41230"/><path d="M86.3965,114.31251h3.769c.0762-.3452.149-.6753.2349-1.0649h1.4668c.0644.372.1221.7026.1846,1.061h3.833c.0835-.3447.164-.6763.2368-.978.706-.4673,1.4702-.0435,1.6792.9511h3.8222c.084-.3462.1646-.6792.25-1.0288.8267-.1113,1.6485-.33691,1.5049,1.0176h3.9409c.0591-.3193.1207-.6509.1905-1.0264h1.4287c.0757.3111.1558.6402.2578,1.0586,3.2476.085,6.5542.4712,9.31249-2.2802-4.353.9296-8.60349.5107-12.83009.5171-26.8359.039-53.6723.0092-80.5083.0512-1.3052.002-2.0976-.228-2.3818-1.60839a2.16573,2.16573,0,0,0-1.9761-1.9531c-.25-.0269-.4546-.4741-.9228-1h8.6889l.0674-.3731a4.88873,4.88873,0,0,0-1.0659-.2597c-1.7192-.0274-3.44-.044-5.1587.0024a1.137,1.137,0,0,1-1.3198-.8764,2.69337,2.69337,0,0,0-1.7324-1.9966c-.2818-.0884-.4502-.5362-.8135-1.002h3.414c-.8569-1.1718-1.5922-2.2495-2.417-3.2534a1.7815,1.7815,0,0,0-1.0659-.3857c-3.7221-.5113-7.4477-.9971-11.1718-1.4971-.4126-.0552-.8199-.1519-1.23-.229q.00735-.20658.0141-.4126a9.871,9.871,0,0,1,1.127.0063c1.707.1973,3.418.3785,5.1152.64258a2.81775,2.81775,0,0,0,2.8374-.76318,4.19586,4.19586,0,0,1,.5596-.4516c1.4927-1.1958,1.4775-1.1905.8149-2.9585-3.3042-8.8203-3.185-17.5098,1.0235-26.03472.2602-.52678.5727-1.02778.9214-1.64838,2.3154,1.54538,4.5146,3.0581,6.769,4.4839a3.46718,3.46718,0,0,0,1.8691.52,60.90874,60.90874,0,0,0,7.6446-.7329c-.6446-.3457-1.2896-.6909-1.7447-.93462a16.03137,16.03137,0,0,0,1.3814-1.252c3.1509-3.54288,3.4575-8.13078,4.5283-12.43648.1826-.7344.3272-1.47752.4463-2.01952-1.3809-.627-2.6855-1.21918-3.771-1.71188,2.2456-2.24512,4.7905-4.1402,5.919-7.07912-1.4742-.61038-2.6578-1.10058-3.8125-1.57858a7.09289,7.09289,0,0,0,1.2285-1c1.5547-2.0728,3.0664-4.1773,4.4819-6.1187a29.30559,29.30559,0,0,1,3.5591.8984c1.581.6084,2.5547.1363,3.6684-1.1005,5.6455-6.2705,11.4063-12.4375,17.1182-18.6485a15.8174,15.8174,0,0,0,.9619-1.2705c.6836.35938,1.4048.8003,2.1729,1.1333q16.3842,7.10445,32.7724,14.2002c.753.3276,1.1617.3101,1.6558-.418,1.251-1.8422,2.603-3.6162,4.1558-5.749,3.8339,3.9898,7.6103,8.1026,11.58149,12.0176q21.44235,21.13992,42.9736,42.1909c.9156.9009,1.667,1.5742,2.8824.6021.0742-.0601.2207-.03572.3339-.0376.0313-.0005.063.0454.003-.0015-5.482,4.6152-10.0923,10.1299-15.127,15.2153-5.063,5.1148-10.00539,10.3492-14.9951,15.53708-.3232.336-.5962.72071-.834,1.01031a4.2278,4.2278,0,0,0-1.0171-.5615c-3.0254-.74509-6.0683-1.419-9.0874-2.188a1.98721,1.98721,0,0,0-2.2856,1.0459c-1.16119,1.604-2.2373,3.27639-3.4834,4.811a9.0713,9.0713,0,0,0-2.3657,4.2237c-.03809.2368-.41019.4834-.68119.59859a2.292,2.292,0,0,1-.8311.02291H24.6216c-.5078-2.3813,1.1728-4.7436-.4903-7.0127h5.4498c-.2198.3472-.4161.6582-.6778,1.07279h3.9756c-.0474-.07129-.0947-.14259-.1426-.21389.4326-.2915.8404-.7387,1.3081-.8139.2696-.043.6363.5151.8091,1.042h3.7769c.0771-.28321.1645-.607.2754-1.0166h1.434c.0621.3208.126.6523.1988,1.0273h3.8301c.0737-.29691.1547-.623.2558-1.0313h1.4512c.063.3086.1304.6397.209,1.02539h3.8989c.0483-.34619.0947-.67719.145-1.03949.8594-.083,1.7603-.417,1.6143,1.0317h3.9414c.0605-.3183.1235-.6489.1777-.9345.6758-.504,1.4854-.0479,1.6694.9365h3.7828c-.0464-.07521-.0928-.1509-.1392-.2261.3911-.292.7651-.7788,1.1787-.8149.3369-.0293.7207.4799,1.084.7509q-.07905.15015-.1587.3008h3.7837c.0747-.29291.1587-.622.2632-1.0322H68.936c.0801.3379.1592.6709.2466,1.04h3.832c-.0537-1.1601.6285-1.2841,1.6187-1.04.0752.2895.1602.6182.2632,1.0151h3.8564c.0586-.332.1172-.6635.1831-1.0366h1.4292c.0703.3276.1407.6582.2242,1.0479h3.7983c-.0503-.1045-.1001-.2095-.1504-.314.4238-.2637.8301-.68511,1.2778-.7354.2876-.0322.6368.4825.958.752C86.4473,114.09861,86.4219,114.20611,86.3965,114.31251Zm50.66839-20.251c.5679.0996,1.2456.4502,1.68311.2569,2.17439-.961,4.28519-2.065,6.41849-3.1187-.04-.0869-.0801-.1743-.1196-.26172q-3.9735,1.58133-7.9434,3.16552c-1.0317.3877-2.063.7754-3.1836,1.1963.2525.4458.44.7769.6216,1.0977C136.89449,95.54592,137.03519,95.41412,137.06489,94.06152Zm-15.29589,12.562c.90579-.18452,1.81159-.3686,2.81989-.5737v2.0796c1.5605-.439,2.0366-1.814,2.9594-2.7212a13.51936,13.51936,0,0,0-2.9755.2466,27.83339,27.83339,0,0,0-2.8243.9458c-2.0151,1.0337-4.02969,2.06738-6.34469,3.2549C118.21919,110.21092,119.74659,109.36822,121.769,106.62352ZM61.9653,25.03082a1.55525,1.55525,0,0,0-.4135.2329q-5.81625,6.30165-11.6172,12.6176c-.0464.0508-.0425.147-.0869.3179,1.8242.4146,3.643.832,5.4638,1.2403,2.7549.6171,2.772.624,4.2193-1.8252a3.59646,3.59646,0,0,0,.1406-1.3038c1.9355-.20552,5.8125-5.7968,6.2554-9.6142-1.7334.373-2.793-.8159-3.9952-1.69832,1.2715-.02968,2.5445-.02828,3.8125-.11128.3204-.0215.8306-.251.9014-.4892.6045-2.0396,1.1284-4.1036,1.6763-6.1602a35.91636,35.91636,0,0,0-3.6558,3.6406C63.7437,22.90922,62.8643,23.97852,61.9653,25.03082Zm28.6236,82.6796c.2397-3.7919.4868-7.3339.6533-10.8803a1.81559,1.81559,0,0,0-.6968-1.1309c-2.188-1.9306-4.5293-3.7036-6.5835-5.7641a7.81142,7.81142,0,0,0-6.4639-2.3228c-3.5454.147-6.9912.1895-10.0166,2.3433a.368.368,0,0,1-.1079.0522c-.6338.1821-.83.5869-.8149,1.251.0454,1.958.0166,3.9175.0166,5.8769v9.2979a10.20423,10.20423,0,0,1,1.292.56538c.3686.22712.6499.59722,1.0205.81892a2.12567,2.12567,0,0,0,1.063.3647C76.7744,107.97172,83.6284,108.71582,90.5889,107.71042Zm28.20849-39.3642c2.0615,3.6802,4.1132,7.15378,5.9619,10.7319.7793,1.5088,1.6675,2.3155,3.3955,1.9741a2.39652,2.39652,0,0,1,.7637.1055c.02.0786.04051.1577.061.23628-.5508.26912-1.1011.53762-1.7573.858a3.36785,3.36785,0,0,0,.1274,1.31442c2.0703,3.7778,4.1919,7.5278,6.3399,11.3589,5.3266-2.0845,10.58251-4.1411,16.0083-6.2642-13.0943-12.2905-26.0435-24.4453-38.99269-36.5996,2.6572,3.791,5.5298,7.3784,8.26759,11.0664,1.1074,1.4917,2.186,2.709,4.248,2.2647.0249-.0059.0742.10538.0928.1328C121.84569,66.44192,120.37649,67.35992,118.79739,68.34622Zm-1.79539-23.231c.4277.502.8125.9576,1.20109,1.4092q16.61355,19.3257,33.2276,38.6509c1.7768,2.0669,1.77631,2.07268,4.2627.853,2.34761-1.1509,4.6914-2.311,7.1259-3.5107-.374-.3452-.6284-.5943-.8974-.8257q-21.25483-18.32445-42.4966-36.665A1.48618,1.48618,0,0,0,117.002,45.11522Zm35.77139,42.2901c-12.0703-14.0391-24.0742-28.001-35.87839-41.7315-2.2304.6787-4.249,1.2744-6.2514,1.9199-.3604.11628-.8809.40428-.9214.6744-.0537.35488.2978.7695.4658,1.1621a1.65084,1.65084,0,0,1,.022.3877c-.17.1123-.4278.2827-.7037.4653.2745.2793.4629.4844.6651.67478q19.237,18.05793,38.47649,36.11432C150.42289,88.73882,150.42289,88.73882,152.77339,87.40532Zm-45.68159,20.2241a14.2,14.2,0,0,0,3.4121-.2158,28.22626,28.22626,0,0,0,5.4863-2.2749c4.35989-2.4873,8.62019-5.1485,13.09089-7.8428-.4058-.33592-.7159-.5776-1.0098-.8384-3.0181-2.6792-6.0942-5.2969-9.02-8.0727-1.20119-1.1397-2.32129-1.6206-3.90189-1.0337a8.81779,8.81779,0,0,1-2.0049.331c-2.0053.2417-4.0122.4663-6.0527.7017Zm3.9199-70.4175c.1909.1699.3946.356.6035.53608q25.43338,21.92448,50.85059,43.86722c1.0474.90578,1.6343.3316,2.45021-.2607q-26.13136-25.6143-52.1118-51.0801l-.2153.208c1.2378,1.3228,1.9663,3.084,3.7729,4.2954C114.583,35.58692,112.8369,36.38182,111.0117,37.21192Zm-39.3994,6.4463a1.75728,1.75728,0,0,0,.2896.15478,60.40937,60.40937,0,0,0,26.9443.80912,4.88654,4.88654,0,0,0,2.2671-.8599c1.6562-1.4976,3.1738-3.1499,4.7158-4.771a4.03289,4.03289,0,0,0,.4883-1.0933c-.9014.0567-1.5757.1548-2.2461.1314-3.5029-.1235-7.041-.0088-10.4985-.4775a53.34875,53.34875,0,0,1-20.1792-7.5069A4.491,4.491,0,0,0,72.3555,29.73a4.02859,4.02859,0,0,0,.4424,1.07962q1.92765,2.37075,3.937,4.6748a7.66735,7.66735,0,0,0,1.2299.9619C75.9453,38.73882,73.8008,41.17382,71.6123,43.65822Zm23.4673,21.7261q.0483-.13848.0976-.2764-12.544-9.93525-25.0888-19.8701a1.98529,1.98529,0,0,0,.3862,1.0234c2.8765,4.3262,5.8037,8.6197,8.6084,12.9912.9404,1.4659,1.832,2.68458,3.8115,2.2193.0508-.01172.1221.0669.1319.0727-3.4732,2.2315-6.9663,4.47558-10.584,6.7993,2.353,2.1231,4.5654,4.1348,6.8066,6.11428a1.10131,1.10131,0,0,0,.8687.17922,38.97117,38.97117,0,0,0,14.7993-7.5229,3.99531,3.99531,0,0,0-.7481-1.0528,4.53688,4.53688,0,0,0-1.249-.4101q.03-.13335.0601-.2671ZM73.3384,28.49412c.2763.1495.5107.294.7593.4087a58.49078,58.49078,0,0,0,15.5913,4.9414,109.04147,109.04147,0,0,0,11.1963.8809c1.4252.0688,2.8603-.28612,3.4018-2.1216q-17.0976-7.3923-34.2256-14.7978a25.03822,25.03822,0,0,0,2.687,3.936c.9649,1.147,1.4912,2.6968,2.9981,3.3604a2.18978,2.18978,0,0,0-.5366.4243C74.5776,26.49272,73.9746,27.47852,73.3384,28.49412ZM18.6528,67.23442c-5.331,8.78758-4.9082,20.7148-.9038,28.32858,1.1314-.89838,2.2246-1.833,3.3902-2.667a1.859,1.859,0,0,0,.8164-1.81838c-.2842-6.581-.6241-13.1621-.731-19.7465C21.1919,69.29052,20.5278,68.02,18.6528,67.23442Zm53.333-21.4185c-.0488.0825-.0981.1655-.1469.24808,8.1157,6.42722,16.2314,12.85452,24.4321,19.34912,1.5308-2.0874,3.0068-4.10012,4.5459-6.1983C91.1138,54.70512,81.5498,50.26072,71.9858,45.81592Zm1.084.01808c9.3169,4.33062,18.6343,8.66112,28.2461,13.12942.8164-3.4033,1.5957-6.6499,2.417-10.0738A66.79224,66.79224,0,0,1,73.0698,45.834Zm-50.75,23.88472c.6363,7.0479,1.2412,13.7476,1.8701,20.7144,2.6827-2.1372,5.1709-4.1186,7.5054-5.9785-1.8369-.8345-3.6011-1.6358-5.3647-2.437.0263-.09962.0532-.1988.0796-.2984.4233,0,.8481.0225,1.2695-.0053.5864-.0391,1.3769.1049,1.7182-.21492,1.3868-1.30118,2.6348-2.75,3.9683-4.18108C29.8667,74.91062,26.2319,72.41022,22.3198,69.71872Zm88.8374,39.6182H29.0479c.3769.6489.6547,1.1265.9321,1.6035.248-.333.4961-.6665.8179-1.0996h1.2172c.0743.4014.1368.7368.1997,1.07618h3.8081c.1109-.38968.2129-.75.3077-1.08348h1.3813c.086.3896.1592.7246.2334,1.061H41.793c.084-.4013.1548-.7387.2251-1.0722h1.3911c.1015.3989.1929.7568.2783,1.0923h3.8223q.1443-.5868.2651-1.07962h1.4253c.0522.38572.0977.72072.1431,1.05612h3.8916c.0786-.394.1445-.728.207-1.0444H54.917c.0718.4018.1309.7334.1841,1.0327h3.8647c.0982-.4087.1778-.7398.253-1.0537h1.4155c.0683.3784.1294.7148.1924,1.0639H64.686c.0874-.3925.1617-.7255.2344-1.0517H66.271c.1011.3979.186.7334.2671,1.0532H70.377c.1049-.4004.1928-.7344.2773-1.0566H72.019c.0782.3896.1456.7236.2134,1.06248h3.8594c.0825-.397.1523-.73338.2187-1.05178h1.4449c.0898.4043.164.7363.2319,1.0401h3.8501c.0855-.4102.1553-.7457.2217-1.065h1.414c.0982.3975.1875.7573.2686,1.0835h3.8516c.0532-.375.101-.709.1523-1.0674h1.5171c.0513.3863.0957.7222.1396,1.0542h3.8951c.0796-.3935.1479-.728.2172-1.0683h1.3965c.0826.3784.1563.7168.2349,1.0781h3.8408c.0772-.3916.1441-.729.2144-1.0845h1.3886c.1123.3902.2159.7495.3145,1.0908h3.7725c.0908-.3872.1704-.726.249-1.059h1.4184c.0992.4072.1792.7397.2579,1.0654h4.9125C111.3896,110.36182,111.2773,109.86572,111.1572,109.33692ZM80.0557,61.45122c-3.6255-5.44922-7.0845-10.6494-10.544-15.8487-.1338-.0053-.2671-.0102-.4009-.0156a5.769,5.769,0,0,0-.5161,1.6245c-.019,2.5152.0684,5.0313.0889,7.5469.0195,2.4243.0039,4.8486.0039,7.4106,1.752,0,3.2988.0025,4.8457-.0034.1963-.00052.522.0176.5689-.0791.478-.9829,1.3603-.5927,2.0888-.622C77.3784,61.416,78.5698,61.45122,80.0557,61.45122Zm18.9946,7.2309c-1.2319-.5488-2.3081-1.0278-3.4575-1.54a40.59438,40.59438,0,0,1-15.5078,7.9878c1.3662,1.4663,2.5415,2.77,4.7104,2.4599,1.7319-.2475,3.5073-.1806,5.2603-.2954.8764-.0576,1.7461-.20942,2.8735-.3506-1.0439-.90182-1.8481-1.5971-2.6519-2.2915q.13485-.16035.2706-.3198c.9824.7686,1.9648,1.5371,2.9628,2.3179,1.3628-.9736,2.67-1.8901,3.9522-2.8399A1.46847,1.46847,0,0,0,98,73.07572C98.3804,71.60992,98.7095,70.13092,99.0503,68.68212Zm65.062,13.96288a2.30485,2.30485,0,0,0-.5171.07622c-3.1816,1.6704-6.3647,3.3384-9.5337,5.0322a3.03973,3.03973,0,0,0-.8808.7857q-8.01645,9.933-16.0254,19.8725a2.94474,2.94474,0,0,0-.4492,2.6665C145.89059,101.54932,154.93989,92.16162,164.11229,82.645Zm-46.125,4.26472c3.7236,3.309,7.3589,6.5512,11.0205,9.7636a1.01547,1.01547,0,0,0,.90821.0948c1.10009-.5484,2.16109-1.1744,3.28709-1.8003q-2.74725-4.911-5.4917-9.8203c-1.2358-2.21052-1.2275-2.1978-3.2895-.9087a12.69651,12.69651,0,0,1-2.0161,1.0498C121.001,85.84812,119.56689,86.335,117.98729,86.90972ZM109.0459,78.583c.0234.11912,0,.32622.0903.40972,1.5796,1.4658,2.9566,3.3022,5.5635,2.7876a13.19348,13.19348,0,0,1,2.3926-.0274c.2373-.00192.6089.0518.6909-.0722.71289-1.07472,1.78369-.5699,2.69869-.6221,1.2798-.0732,2.5669-.01862,3.8506-.01862-3.7099-3.15128-7.42529-6.04828-11.15529-8.92568a1.10052,1.10052,0,0,0-.8403-.2496c-.9761.3467-1.9267.7691-2.8686,1.2032a.737.737,0,0,0-.3765.521c-.0342,1.1757-.0176,2.353-.0176,3.47308.6431.13282,1.0415.21492,1.4404.29692q.0447.16035.0889.3208C110.1279,77.95562,109.6519,78.23142,109.0459,78.583Zm-4.834-32.13818a10.07781,10.07781,0,0,1-2.7178-1.0351,2.2903,2.2903,0,0,0-2.1616-.4654,58.02534,58.02534,0,0,1-21.0786.5713c-2.2314-.3247-4.4404-.8027-6.9873-1.2715.5835.2715.8618.4175,1.1528.5342a60.84788,60.84788,0,0,0,29.6265,3.853C104.0371,48.416,104.0332,48.37842,104.2119,46.44482Zm2.3838-9.893c-.9619-.3081-1.856-.59382-2.749-.8814a6.94374,6.94374,0,0,0-1.7988-.5552c-1.712-.0439-3.4327.1509-5.1412.0669a63.11777,63.11777,0,0,1-22.83-5.8047c-.3365-.1503-.6861-.2729-1.0293-.4087a1.799,1.799,0,0,0,.8388.84228c2.4102,1.24122,4.771,2.59922,7.2534,3.67632a47.51272,47.51272,0,0,0,24.2906,4.0176C106.1494,37.42822,106.7051,37.312,106.5957,36.55182Zm-58.167,50.2773a38.62973,38.62973,0,0,1-4.1709,3.7886,5.1034,5.1034,0,0,0-2.417,5.4336,22.82212,22.82212,0,0,1,.0235,3.1045c1.4448-.4366,2.6142-.8423,3.8115-1.1324A1.71839,1.71839,0,0,0,47.0869,96.645c.6704-2.41938,1.3706-4.83448,2.1777-7.21088A1.92943,1.92943,0,0,0,48.4287,86.82912ZM32.269,84.56352c-1.519,1.207-3.0844,2.43548-4.6318,3.68648-1.1143.90092-2.6719,1.63232-3.1738,2.80662-.5034,1.1778.0381,2.8116.1557,4.2422.1089,1.3218.2627,2.63918.4327,4.314C28.1855,94.66652,32.3369,90.65822,32.269,84.56352Zm59.0284,11.1806c.2573-3.1479.4946-6.0576.7353-9.0014a8.41775,8.41775,0,0,0-2.5864-.5415c-2.5029.3359-4.9795.8681-7.6484,1.3579C84.9805,90.30182,88.0474,92.94382,91.2974,95.74412Zm17.6425-44.0932c0,3.5786-.0224,6.855.0323,10.1299a1.47057,1.47057,0,0,0,.7055,1.0454q2.2896,1.17765,4.669,2.1782a14.88827,14.88827,0,0,0,2.3628.5229C114.0337,60.748,111.5488,56.30962,108.9399,51.65092Zm4.2159,19.8764c4.0102,3.1163,7.89549,6.1358,11.78069,9.1553l.1782-.16062q-3.31485-5.91357-6.6352-11.83648C116.6743,69.64892,114.9902,70.54792,113.1558,71.52732Zm-69.7017-2.1586c2.3433-.566,4.4438-1.0728,6.6689-1.6099-2.2553-3.4649-4.3945-6.752-6.6689-10.2471Zm26.1245,5.6752a23.4044,23.4044,0,0,0,9.4009-.206c-1.3106-1.1831-2.4302-2.1948-3.5498-3.2061-1.1138-1.0044-2.228-2.00882-3.3062-2.9809-3.4716,2.1289-3.4716,2.1289-3.0615,4.8086.4766.0566.9619.1142,1.707.2026C70.3027,74.20412,69.9897,74.56692,69.5786,75.04392Zm-2.9585,11.5547c4.1563,1.6045,7.3667-.1015,10.4038-2.4394a3.65977,3.65977,0,0,0-3.6216-1.6128c-1.3466.1191-2.7128.0249-4.0703.0249H66.6201Zm-14.7256,9.8472c-1.6069.5303-2.9663.957-4.3051,1.4404a1.13989,1.13989,0,0,0-.6255.625c-.6787,2.1612-1.313,4.3365-1.9932,6.6153,1.5713.1089,3.0298.2099,4.582.3173C50.3208,102.49272,51.0713,99.60992,51.8945,96.44582Zm-6.937-51.1367c1.4668,1.3384,3.0366,2.7993,4.6519,4.2085a1.25733,1.25733,0,0,0,.9897.12838c2.4683-.65278,2.5879-3.21678,4.2202-4.74018-2.0776-.3174-3.809-.5855-5.542-.8413a1.35648,1.35648,0,0,0-.5854.0332C47.4756,44.481,46.2646,44.88232,44.9575,45.30912Zm91.69729,62.6611.2446.0864q6.9045-8.57805,13.8091-17.1557c-4.6157,4.1572-9.0689,8.4565-13.5093,12.769a1.2275,1.2275,0,0,0-.3315.7222C136.77149,105.58252,136.72169,106.77732,136.65479,107.97022Zm-78.918-50.3896a16.92745,16.92745,0,0,1-1.5112-1.4151c-.5752-.6826-1.0996-.60352-1.8511-.2558-1.626.7514-3.3071,1.3867-4.98,2.0327-.7407.28558-1.5161.4819-2.5488.8037,2.7808.8135,5.2598,1.5586,7.7559,2.2417a1.13121,1.13121,0,0,0,.9668-.32182C56.3228,59.69432,56.9927,58.65672,57.7368,57.58062Zm69.31349,50.625c3.0698.27338,6.0444.539,9.0195.8042v-4.5537C132.37739,104.03612,129.52249,105.48882,127.05029,108.20562ZM63.0571,61.82472c.9898-4.4946,1.9229-8.7319,2.856-12.9692q-.16185-.12315-.3247-.2451c-.9004.89058-2.2363,1.6284-2.6138,2.70258a69.44882,69.44882,0,0,0-1.9375,7.89942,1.20851,1.20851,0,0,0,.2183.9351C61.7515,60.70312,62.3428,61.17382,63.0571,61.82472Zm-5.4717-21.4062c-2.8168-.6397-5.3369-1.2217-7.8652-1.7676a.92374.92374,0,0,0-.7226.2402c-.6934.7026-1.3409,1.4512-2.0323,2.2134.5147.6953.9346,1.3281,1.4292,1.89548a1.03435,1.03435,0,0,0,.7974.31882A31.20069,31.20069,0,0,0,57.5854,40.41852Zm14.3077-9.979c-1.8028,1.5913-3.4795,3.0908-2.4556,5.7568h7.2998C75.0518,34.19342,73.499,32.34772,71.8931,30.43952ZM54.0439,65.24322c-3.2592-2.4883-6.3242-4.8277-9.3891-7.1675,1.5718,2.8852,3.312,5.5649,5.0537,8.2431.9082,1.397,1.3188,1.6055,2.7656.8287C53.1021,66.81012,53.4634,65.97612,54.0439,65.24322Zm76.28669,33.3803c-.5459-.9057-1.0674-.979-1.8985-.4463-2.2177,1.4214-4.5039,2.7349-6.7612,4.09378q-3.0513,1.83618-6.09959,3.67872.0468.15525.0942.311a13.471,13.471,0,0,0,3.65139-.6298c2.9116-1.3926,5.70411-3.0342,8.5478-4.5796-.07469-.376-.1386-.7002-.2021-1.0205C128.58109,99.54592,129.42579,99.10062,130.33059,98.62352ZM95.6938,99.74612q.2037-.0315.4063-.063,2.3862-5.69235,4.7729-11.3852c-1.7876.2202-.8461,2.0756-1.9941,2.9589.2158-1.1826.3901-2.1396.5796-3.1797-.6953-.0786-1.2759-.1445-1.8398-.2089a1.96777,1.96777,0,0,0-.2032.3842c-.7553,3.3482-1.5342,6.691-2.2192,10.0533C95.1094,98.73442,95.5161,99.26372,95.6938,99.74612Zm-1.0078-1.2676c.794-3.5874,1.5723-7.104,2.3702-10.7099-.6924-.1104-1.2637-.2007-1.9122-.3038-.4096,1.7579-.8002,3.4327-1.1909,5.1075-.1162-.0254-.2324-.05132-.3486-.0767.3462-1.6831.6924-3.3662,1.0605-5.1548-.4594-.06-.8164-.1069-1.4296-.1875,0,3.0215.0688,5.88668-.0333,8.7456A2.31145,2.31145,0,0,0,94.686,98.47852ZM49.9766,88.46832c-.9258,3.0815-1.794,5.9731-2.7022,8.9975.4063-.1094.5967-.1543.7832-.2119,4.0318-1.2505,4.0401-1.2505,4.1314-5.4468a1.876,1.876,0,0,0-.3086-1.0854C51.3433,89.99372,50.7168,89.33112,49.9766,88.46832Zm5.8769,5.8906c.4751-2.1558.9307-4.2451,1.3955-6.3325.5982-2.6856.6016-2.6851-2.2392-3.5542-.3399,1.6772-.7535,3.33-.9927,5.0083C53.7534,91.33352,53.7622,93.17092,55.8535,94.35892Zm-.6694-39.0957c-1.0484-.9668-1.9092-1.6714-2.6587-2.4795a1.19327,1.19327,0,0,0-1.7774-.1221c-1.9897,1.3311-2.831,3.52738-4.2031,5.3247q.1275.2088.2544.4185C49.5195,57.38572,52.2393,56.36622,55.1841,55.26322ZM77.98,84.25242c.9995.8672,1.9155,1.6841,2.8618,2.4644a1.11493,1.11493,0,0,0,.7544.2529c2.2358-.2861,4.4678-.6098,6.7007-.9228-2.5313-1.2222-5.0381-2.2373-7.5576-3.2178a1.01329,1.01329,0,0,0-.7588.123C79.3335,83.33012,78.7197,83.76512,77.98,84.25242Zm-35.9834,7.8741c2.1533-1.9634,4.1636-3.7954,6.2334-5.6827-.5821-.6845-1.0606-1.2475-1.5196-1.7866-4.7661,2.2163-5.0161,2.5869-4.8256,7.0381C41.8862,91.73292,41.9028,91.76952,41.9966,92.12652Zm-.1279,12.6928c2.5839.5088,2.5839.5088,3.289-1.8398.1719-.5728.3443-1.145.5117-1.7188.2827-.9663.562-1.9336.8853-3.0478-1.4961.4463-2.7627.7959-4.0059,1.2158-.2705.09128-.6421.4258-.6504.6602C41.8408,101.67292,41.8687,103.26072,41.8687,104.81932ZM75.877,38.33892H69.2832a29.7034,29.7034,0,0,0,.0391,3.457,3.11614,3.11614,0,0,0,.8676,1.5469c.1412.1543.8287.0713,1.0347-.1353C72.7646,41.66312,74.2461,40.061,75.877,38.33892Zm39.625,5.7133c-2.0137-2.3437-3.8628-4.496-5.856-6.8159v6.8159Zm4.54,21.1197c-3.3081-4.2613-6.5855-8.48292-9.8628-12.7051a1.84906,1.84906,0,0,0,.2935,1.021c1.8115,3.2388,3.7426,6.4175,5.3935,9.7358C116.7729,65.04692,117.8691,65.86572,120.042,65.17192ZM52.54,48.98972c.0567.0874.1138.1744.1704.26128,2.1846-.68408,4.3536-1.42578,6.5596-2.03128a2.199,2.199,0,0,0,1.8892-2.3774c-1.8272,0-3.6524-.0098-5.4771.01368a.83049.83049,0,0,0-.5893.30422C54.2241,46.42482,53.3867,47.71042,52.54,48.98972Zm-23.2285,51.5582c1.1929-.3726,2.0962-.5826,2.3306-1.8057.3901-2.0381.8569-4.062,1.2832-6.0933.3442-1.6406.6763-3.2842,1.0137-4.9258a9.89324,9.89324,0,0,0-2.4458,3.5498C30.6187,94.208,30.0669,97.23932,29.3115,100.54792Zm4.8135-2.8013a2.81015,2.81015,0,0,0,2.0659-2.4487c.1465-1.3038.5308-2.5801.8008-3.8711q.74055-3.545,1.4697-7.09382-.1509-.15957-.3017-.31928c-.4512.2734-1.2232.4736-1.3037.831C35.896,89.084,35.0391,93.34672,34.125,97.74662Zm75.459-70.4995v7.0678h5.4018C113.165,31.93262,111.4609,29.70312,109.584,27.24712ZM69.1973,24.833h5.2944c-1.7871-2.38818-3.4546-4.61718-5.2944-7.07708ZM52.5488,52.23882c.8926.8125,1.731,1.5957,2.5987,2.3447a.81489.81489,0,0,0,.6328.1416,5.26684,5.26684,0,0,0,4.0737-5.2676C57.4692,50.36522,55.0654,51.28082,52.5488,52.23882Zm96.8462,39.0263c-.041-.063-.08151-.1259-.12211-.1889-3.5737,2.71678-7.0888,5.5161-10.7504,8.1089-1.479,1.0473-1.7041,2.2695-1.5259,4.04C141.21879,99.15192,145.30709,95.20852,149.395,91.26512ZM36.4316,84.333q-.20865-.12957-.417-.25978a2.37938,2.37938,0,0,1-.2993.6275c-1.1548,1.2588-1.2729,2.88328-1.6015,4.435-.6983,3.2984-1.399,6.5957-2.1123,9.9595a2.38332,2.38332,0,0,0,1.8593-2.0625c.6954-3.6865,1.4903-7.3545,2.2452-11.0298C36.2202,85.44732,36.3232,84.88962,36.4316,84.333ZM22.0532,92.70952c-1.5903,1.2636-2.917,2.3178-4.2148,3.3486,1.4121,3.273,1.7514,3.5273,4.2148,3.3247Zm30.0572-20.8799q.1032-.15165.206-.3032c.499.3198.9981.6401,1.6084,1.0312.2734-1.1118.5107-2.0757.7847-3.1899-.6748.2114-1.1372.334-1.583.501-.5752.21528-1.3863.3046-1.6607.7294-1.0742,1.6646-1.9775,3.44-2.9643,5.2105.3769.3115.6694.5532.9799.8105,1.4473-1.1186,2.8272-2.185,4.2901-3.3164C53.1465,72.748,52.6284,72.28912,52.1104,71.82962Zm-8.5367,5.8501c.4561.1015.7945.1899,1.1372.25.6143.1079,1.4991.4971,1.792.2344a7.66424,7.66424,0,0,0,1.3252-2.208c.0376-.0708-.1142-.2818-.2212-.3829-1.2866-1.2133-2.581-2.4184-4.0332-3.7753Zm73.0786,9.0605q.047-.21015.0943-.4199c-.4512-.2734-.8955-.771-1.3535-.7832-2.7422-.0742-5.4873-.03712-8.2295-.03712v2.48682C110.4194,87.55912,113.5356,87.14942,116.6523,86.74022ZM55.5225,44.50292c2.0058-.0937,3.667-.1523,5.3237-.271a.92859.92859,0,0,0,.6562-.5102c.2471-.70272.3916-1.4409.5987-2.2549-1.2227-.29-2.3335-.584-3.4605-.7954a.97134.97134,0,0,0-.7846.3481C57.1172,42.04932,56.438,43.12112,55.5225,44.50292Zm3.6577,24.9033a19.1439,19.1439,0,0,0-1.021,2.0127c-.2495.6656-.2456,1.4332-.5303,2.0777-.5508,1.2451-.0732,1.9492.9639,2.6255.8418.5488,1.2217.3672,1.4272-.5176a33.41813,33.41813,0,0,1,.7735-3.374C61.2734,70.84372,60.8032,70.03912,59.1802,69.40622Zm90.09319,21.1172c-.0493-.0576-.0981-.1157-.14739-.1733q-4.60111,2.42355-9.20271,4.8472c-1.8442.97068-1.96429,1.2519-1.435,3.5278C142.10549,95.97412,145.68949,93.249,149.27339,90.52342ZM72.1416,68.07912c1.71-1.1387,3.3062-2.2012,5.0298-3.3486H68.8638c-.0386.0898-.0772.1801-.1162.27C69.8525,66.00292,70.9575,67.00492,72.1416,68.07912ZM30.6982,92.47172q-.10395-.047-.208-.0933c-1.6728,2.4624-3.3452,4.9243-5.1215,7.5391,1.2949.1611,2.3486.29148,3.5346.4389C29.5107,97.688,30.1045,95.07962,30.6982,92.47172Zm20.4229-41.7818q.0681.3135.1367.627c.5479.0737,1.1646.3477,1.6323.187,2.1836-.75,4.3218-1.63092,6.4849-2.4414A1.526,1.526,0,0,0,60.4736,47.356c-2.4931.729-4.9458,1.40182-7.3642,2.18062A10.548,10.548,0,0,0,51.1211,50.68992Zm-29.3013,18.649q-.1692.0204-.3384.041.5736,11.0193,1.1465,22.039.222.036.4439.0718a3.77786,3.77786,0,0,0,.397-1.271c-.4742-6.6469-.9874-13.291-1.4971-19.9355C21.9473,69.96732,21.8716,69.65382,21.8198,69.33892ZM50.4604,71.373H44.2007c-.0318.10652-.063.21242-.0947.31842,1.3335,1.2437,2.6674,2.4873,4.0688,3.7944C49.0132,73.97712,49.7622,72.62892,50.4604,71.373Zm40.25,14.08452c-1.2119-.4643-2.1528-.7641-3.0385-1.1811-.8975-.42342-1.7403-.96342-2.4463-1.36142-.8174-.60248-1.4868-1.09568-2.2173-1.63378,1.644-.5087,3.3848.4151,4.7886-.7216-2.417-.0767-5.0039-.7295-6.8008,2.0302,2.7627.9873,5.5205,1.9883,8.2944,2.9419A4.69936,4.69936,0,0,0,90.7104,85.45752Zm-46.4892-28.977c.0078-.0078-.1792.1938-.3853.416.6812.51848,1.2798.9746,1.9414,1.47848,1.0176-1.53468,1.9761-2.97948,2.9869-4.50338H43.8008C43.9424,54.75,44.0654,55.51272,44.2212,56.48052ZM41.8301,58.499c-2.8213,3.13092-2.3755,7.28272-3.6455,10.94732.8286.2573,1.33.30368,1.5166-.6455C40.3765,65.36042,41.1152,61.93162,41.8301,58.499ZM55.6338,95.25592q-.15675-.13488-.3135-.2691c-.4902.3843-1.3872.7515-1.4048,1.1563-.1235,2.8476-.0654,5.7031-.0654,8.7036.9526-2.8052,1.8862-5.5039,2.7607-8.22172.0723-.22558-.2587-.58058-.5317-1.14108-.4922,2.105-.9014,3.8545-1.3105,5.604-.1192-.0274-.2383-.0542-.3575-.0816Q55.02265,98.131,55.6338,95.25592Zm51.5044-43.5518c-1.1968,1.2734-2.4097,2.4795-2.6138,4.3052a26.8208,26.8208,0,0,1-.5571,2.6855c-.336,1.5449-.3374,1.5445,1.3447,1.9331Q106.22535,56.16317,107.1382,51.70412ZM56.3828,94.02692c.1065.0717.2134.1435.3198.2158.3272-.2495.835-.4331.9532-.7583.8676-2.3843,1.6572-4.79742,2.4931-7.2642-.706-.2051-1.2651-.3677-1.9204-.5576C57.5962,88.52692,56.9897,91.27692,56.3828,94.02692Zm-12.498-43.1553c1.4956-.2549,2.8271-.4815,4.3686-.7437-1.5112-1.6865-2.8559-3.1875-4.3686-4.8755Zm20.1045-14.3945c1.1777-.5572,2.1211-.898,2.4008-1.9869.5523-2.1533,1.0562-4.3188,1.6001-6.5615C65.187,30.03562,64.7432,33.125,63.9893,36.47712Zm62.038,72.0942q-.02625.2292-.0532.458c3.3574.7949,6.71491,1.5894,10.1328,2.39839v-1.97459C132.70609,109.15532,129.36669,108.86332,126.02729,108.57132ZM82.4106,78.29492l-.0014-.2456c-2.1983-.2358-4.4082-.3945-6.5913-.73-2.1914-.3364-4.3555-.8486-6.5318-1.2837a37.7607,37.7607,0,0,0,4.6158,2.7642c.5795.2817,1.8208.3857,1.9956.1016.5625-.9156,1.3071-.56642,1.9755-.5899C79.3838,78.25932,80.8979,78.29492,82.4106,78.29492Zm-27.3598-15.145c-.918-.5693-1.7144-1.063-2.6665-1.6533.5727-.0283.957-.0474,1.3413-.0664q.02055-.10035.0405-.2007-3.03-.88185-6.0615-1.7637l-.1377.2783c2.1582,1.648,4.3169,3.29588,6.5762,5.0205C54.4868,64.15332,54.7705,63.64892,55.0508,63.14992Zm-27.8867,8.854c-.0122.0938-.0249.1875-.0376.2817.8256.5528,1.6342,1.1348,2.4873,1.6412a1.28355,1.28355,0,0,0,.9697.1259c1.4556-.5498,2.8838-1.1718,4.3257-1.7578a7.26368,7.26368,0,0,1,.7949-.227q-.2-.28788-.3994-.5757Q31.2346,71.74782,27.1641,72.00392Zm82.6279-3.4355q-.0549.12735-.1094.2548c.8736.67878,1.7398,1.3672,2.627,2.0284.1718.12738.4843.2671.6313.1953,1.5357-.7495,3.0513-1.5406,4.5723-2.3203-.0396-.0528-.0791-.1055-.1192-.1582ZM67.3506,47.59722c-.8945.5224-3.6187,11.2866-3.6162,14.5571a1.4301,1.4301,0,0,0,.686-.7998c.6567-3.4448,1.272-6.89752,1.9063-10.3462.0708-.3838.1899-.7588.2866-1.1377.1001.02538.2002.0513.3003.0767q-.2622,1.664-.5249,3.3281.17.1098.3393.2212c.2075-.2427.5869-.48.5948-.7285C67.376,51.06882,67.3506,49.36722,67.3506,47.59722Zm14.1597,30.0581c-1.0411-1.814-2.3169-2.8174-4.2774-2.0264a1.63105,1.63105,0,0,1-.5928.0576q-2.9325.0051-5.8657.002-.019.18015-.0376.3608Q76.12375,76.85212,81.5103,77.65532Zm-1.2461,9.5239c.0327-.0923.0659-.1841.0986-.2764-.8296-.7129-1.6494-1.4384-2.4985-2.1269a.68991.68991,0,0,0-.6172-.0825c-1.3872.7807-2.7539,1.5981-4.2652,2.4858Zm13.8286,15.6831q-.16995-.04248-.3408-.084a21.67987,21.67987,0,0,1,.5542-2.4756c.3793-1.1049-.0674-1.686-1.2076-2.208v8.7437c.9146-2.1822,1.7603-4.1109,2.5074-6.0767.1167-.3061-.2149-.7822-.3389-1.1802-.1123.0269-.2251.0533-.3374.0801Q94.5115,101.262,94.0928,102.86232ZM52.3477,90.21782c.1782-2.1607.352-4.2681.5307-6.4375-.8847.1294-1.52.1504-1.8764,1.1035C50.2207,86.97172,49.8589,88.85062,52.3477,90.21782Zm53.3535-41.4004q-.145-.1794-.2896-.3589c-.4551.3096-1.2055.5376-1.3169.9419-.6738,2.4404-1.2011,4.9214-1.7998,7.4849C104.9922,54.74952,104.959,51.62652,105.7012,48.81742ZM40.2217,83.958c-.5518.30622-1.2534.46192-1.3379.78132-.4771,1.7983-.8052,3.63668-1.1846,5.4609q.19635.08355.3916.1675c1.3164-.4688.3711-2.1465,1.3125-3.11872-.0835,1.167-.1499,2.09082-.2158,3.01522.1289.0669.2583.1342.3872.2016.2158-.2729.6089-.541.6182-.82082C40.25,87.895,40.2217,86.14212,40.2217,83.958Zm22.6958,3.90482c.208-1.80182.4018-3.4819.6367-5.52-.791.2856-1.6343.3374-1.7866.6889-.668,1.5371-1.1358,3.1617-1.6738,4.7481.9086.3227,1.2202-.0171,1.3491-.7529.1469-.83792.3808-1.6607.5766-2.4903.1138.0298.2281.0591.3418.0889-.209,1.0591-.4175,2.1186-.6377,3.2373Zm1.9482-23.1909c-2.0146.0859-2.1714.2134-2.2524,1.7676.6352-.4361,1.2451-.85452,1.855-1.273l.1713.2461a3.76586,3.76586,0,0,1-.6762.58938,4.38289,4.38289,0,0,0-2.2119,3.56682,1.18366,1.18366,0,0,0,.958,1.5704c.3174-1.4263.6167-2.7725.916-4.1187q.1494.033.2988.0669c-.0537.4897-.1074.9795-.1655,1.5117h1.1069ZM41.1104,53.99612q-.1356-.1662-.2715-.332c-.3345.2036-.9014.3496-.9688.6196-.7168,2.876-1.354,5.7715-2.0688,8.90328C40.4717,60.47222,40.1489,57.01562,41.1104,53.99612Zm21.0898-1.7119c-.0635-.03422-.127-.0679-.1904-.1016-1.2217,1.7686-2.4429,3.5371-3.6817,5.3311.7398.6738,1.3775,1.2544,2.1587,1.96628C61.0884,56.95512,61.644,54.61912,62.2002,52.28422Zm21.4067,25.8076c-.0185.0698-.0371.1401-.0551.2104h3.5087l.0821.2872c-.6367.3579-1.273.7158-2.0796,1.1694a6.45528,6.45528,0,0,0,6.8633-2.1445C89.0806,77.77732,86.3438,77.93462,83.6069,78.09182ZM104.21,66.02152c.332-1.6362.6455-3.1831.9677-4.77052-.561-.25688-1.0454-.479-1.6201-.74168-.4204,1.9048-.811,3.6709-1.2178,5.5122Zm10.2817-.022c.043-.1206.085-.2417.1279-.3628-1.812-.8428-3.6235-1.6855-5.54-2.5766v2.9394Zm-79.2915,6.6514c-1.645.6816-3.0532,1.26508-4.6494,1.9267,1.2988.8579,2.4087,1.5909,3.6543,2.4136C34.542,75.522,34.8398,74.22362,35.2002,72.65092Zm66.4199-12.9263c-.4292,1.8281-.8598,3.6616-1.2993,5.5342.6362.0874,1.1294.1553,1.6807.2314.2837-1.2905.4839-2.6318.8877-3.9091C103.2705,60.37452,102.8159,59.89652,101.6201,59.72462Zm31.70659,40.083c-1.4981,1.6538-2.84869,3.1445-4.3155,4.7642,2.5406.1753,3.6895-1.6675,5.3604-2.7212C134.04,101.20262,133.77249,100.67972,133.32669,99.80762ZM64.0806,74.583c-1.9502.17772-2.9507,1.5-4.4375,2.27492,1.063.7769,1.9487,1.4243,2.9414,2.1509C63.085,77.52782,63.5386,76.18552,64.0806,74.583ZM36.3394,69.86332c.6718-.3189,1.4096-.44532,1.4838-.7398.5679-2.2451,1.0059-4.5229,1.5289-6.999C37.1997,64.29742,36.9331,66.92092,36.3394,69.86332Zm5.0932-5.5928.3291.0132c-.0473.5542-.0947,1.1089-.1738,2.0337.4531-.3819.8433-.5557.8467-.7373.042-2.2105.0273-4.4219.0273-6.6328-.0957-.0059-.1909-.0108-.2866-.0161q-1.08255,5.2689-2.165,10.5385.219.04542.4384.0918Q40.941,66.91612,41.4326,64.27052Zm59.6719-4.2744c-.0679-.0532-.1353-.1065-.2031-.1597-1.2974,1.7735-2.5952,3.5469-3.9834,5.4439h2.9326C100.2788,63.47562,100.6914,61.73582,101.1045,59.99612ZM52.562,105.72952q.22785-.10995.4556-.2207v-9.5977c-.232.3072-.5479.5327-.5669.7813-.2119,2.7495-.396,5.5024-.5244,8.2573C51.9146,105.19922,52.3398,105.46922,52.562,105.72952Zm-2.2583-62.0361-.0454.1777c1.523.1548,3.0449.3193,4.5698.4482a.68414.68414,0,0,0,.4702-.3056c.5772-.8365,1.1285-1.6905,1.8057-2.7154C54.687,42.14942,52.4951,42.92092,50.3037,43.69342Zm57.9014-6.2788c-2.5591,1.7856-2.0405,4.41838-2.7525,6.663.5386-.0234,1.2627-.1064,1.3306-.3632C107.3062,41.73832,107.7017,39.729,108.2051,37.41462ZM54.2983,72.90532c1.274-.9829,2.3716-1.77932,3.4087-2.648.6636-.5556.6909-2.0386.2803-1.9184a5.80762,5.80762,0,0,0-2.7935,1.393C54.5996,70.44042,54.6147,71.66022,54.2983,72.90532Zm51.419-32.5049c-1.1445,1.0478-2.5415,2.3262-4.0718,3.72658a19.95441,19.95441,0,0,0,2.5205-.03418,1.22672,1.22672,0,0,0,.815-.7232C105.3247,42.24612,105.5537,41.08792,105.7173,40.40042Zm-59.335.6533c-.8467-1.1304-1.6186-2.1606-2.4741-3.3032v5.9766C44.8613,42.69782,45.5825,41.918,46.3823,41.05372Zm56.8384,29.3906c-2.5503.854-2.5791,2.9385-2.8774,4.9341,1.3886.0073,2.1552-.4912,2.2622-1.9062A24.36556,24.36556,0,0,1,103.2207,70.44432Zm-42.6758,35.7129c.1817-1.0195.3404-1.90922.502-2.8149H58.1997c-.1616.8589-.3125,1.65968-.4868,2.5845C58.6724,106.00492,59.5244,106.07422,60.5449,106.15722Zm-36.332-6.5595c-.2124-2.6929-.4175-5.2906-.6226-7.8892-.1299-.0278-.2592-.0557-.3896-.084a3.73644,3.73644,0,0,0-.4702,1.27048c.0615,1.99612.2383,3.98832.3183,5.98442C23.0806,99.66992,23.4116,99.835,24.2129,99.59772Zm93.95069-55.6202c-2.46679-2.1289-4.80759-4.1494-7.149-6.1694,1.3243,1.8857,2.855,3.5664,4.254,5.3501A2.43259,2.43259,0,0,0,118.16359,43.97752ZM59.8452,52.19432c2.2056-.8359,3.4253-2.289,3.334-4.6582C60.6455,48.60942,60.3325,49.03762,59.8452,52.19432Zm-20.8096-8.7246a12.23906,12.23906,0,0,0,2.0577-.0302,1.26626,1.26626,0,0,0,.8696-.667c.3965-1.4468.6865-2.9224,1.0146-4.3882-.3134-.0049-.3833.1826-.4961.3388C41.395,40.22852,40.3008,41.729,39.0356,43.46972Zm18.5845,59.8999c-3.1289-.1562-2.7817-.5761-3.4087,2.2583C57.8013,106.15142,56.9448,106.16892,57.6201,103.36962ZM105.9141,61.146q.1941-.00507.3881-.01028.3816-2.4807.7627-4.9614l.3194.0528c-.0679.83688-.1353,1.6738-.2134,2.6357.7603-.5562.9282-7.0376.3662-7.9981a13.05287,13.05287,0,0,1-.1206,1.5381c-.501,2.5816-1.0391,5.1558-1.54,7.7368A4.37235,4.37235,0,0,0,105.9141,61.146Zm-.7925-28.66408c.8037.3467,1.4687.6338,2.2407.9673.438-1.873.8423-3.604,1.2466-5.3349l-.2315-.0879C107.3301,29.45952,106.2827,30.89312,105.1216,32.48192ZM92.3003,97.08642c-.1216.0279-.2437.0552-.3652.0825-.1841,3.2574-.3746,6.5147-.5352,9.773-.0098.2026.2192.417.3364.626.1538-.2686.4297-.5313.4424-.8057.1304-2.8686.2266-5.7388.3081-8.6099A5.278,5.278,0,0,0,92.3003,97.08642Zm-38.8955-22.644c-.0742-.0405-.1489-.0816-.2236-.1221-1.1197.8633-2.2393,1.7271-3.4214,2.63868a7.98069,7.98069,0,0,0,1.2309,1.11132c.5425.3115,1.2451.5879,1.5337-.313C52.873,76.66992,53.1162,75.54882,53.4048,74.44242Zm1.1601-.3867v4.0092c.5064.2842.8907.4996,1.2676.7115C57.0215,75.75832,56.8994,75.24462,54.5649,74.05572Zm6.9634,29.3061c-.0884.9668-.1694,1.8569-.2554,2.7969.8565.0679,1.5679.1304,2.2798.1767a3.9851,3.9851,0,0,0,.562-.0366A2.48868,2.48868,0,0,0,61.5283,103.36182Zm62.9107,1.6333c3.20889.5762,5.05709-1.062,6.65719-3.6225C128.78469,102.63042,126.67719,103.77732,124.439,104.99512ZM96.1328,83.22662c.272.5683.4287,1.3007.669,1.3291a13.66,13.66,0,0,0,3.2143-.0118c.2124-.0253.3379-.7783.5513-1.3173Zm5.0596-14.5918H99.519c-.3276,1.4057-.6503,2.7915-.9858,4.2304C100.6714,72.15872,101.1021,70.54882,101.1924,68.63482Zm.937,6.9668c-2.2212.27138-2.394.521-2.6001,3.5551,1.7783.1289,1.8242.0996,2.165-1.46772C101.8364,77.03422,101.9678,76.37742,102.1294,75.60162Zm13.6279,7.6386h-4.4741c.3086.5967.4849,1.3203.729,1.34378a14.7247,14.7247,0,0,0,3.2446-.07468C115.4517,84.48442,115.5591,83.771,115.7573,83.24022Zm.0904-.0791c.2973.6407.4511,1.375.6806,1.3994a17.42532,17.42532,0,0,0,3.24809-.0166c.1533-.0122.3647-.5732.3535-.873-.0064-.1772-.3902-.4766-.6153-.4868C118.40719,83.13332,117.2959,83.16112,115.8477,83.16112Zm-54.5-.51612H58.9155c-.187.833-.3745,1.66652-.5786,2.57522.7119.2041,1.3047.3735,1.961.5615C60.6636,84.68992,60.9888,83.71732,61.3477,82.645Zm45.4423.51322c.3418.688.5093,1.4175.751,1.4424a14.82894,14.82894,0,0,0,3.1382-.05962c.167-.01808.3433-.63518.3594-.98288.0053-.12212-.4522-.3706-.7056-.3813C109.3008,83.13282,108.2651,83.15822,106.79,83.15822ZM57.2852,61.58692c1.0874-.4883,2.2397.5908,2.8686-.7475.4116-.876-.2427-1.6841-1.9917-2.6333C57.8936,59.24072,57.6294,60.25932,57.2852,61.58692ZM44.5581,37.45212c-.0513.0733-.102.146-.1528.2188.748.9932,1.4961,1.9868,2.2939,3.0469.7237-.7925,1.3467-1.4746,2.0996-2.2993C47.229,38.061,45.8936,37.75632,44.5581,37.45212Zm20.1631,4.149c.2588-1.14212.4824-2.1294.706-3.1172-2.0576-.438-2.2231-.2691-2.6416,2.63908C63.3735,41.26862,63.9712,41.416,64.7212,41.60112ZM33.9541,78.125c-.0728-.03268-.145-.06538-.2178-.09768-1.1489,1.209-2.2983,2.418-3.5058,3.6885.7832,0,1.5678.0484,2.3398-.02782a.988.988,0,0,0,.6763-.58638C33.5332,80.124,33.7261,79.11962,33.9541,78.125ZM67.2905,38.39992c-1.4902-.1323-1.8481.4946-1.999,3.3208.6299.1294,1.271.2617,1.999.4116Zm2.0645,41.9932c.2832.5888.4536,1.3364.6841,1.3554a16.43088,16.43088,0,0,0,3.3574-.1006c.1763-.02192.2666-.7373.4624-1.3305-1.419,0-2.5337-.002-3.648.0019C70.0542,80.31982,69.8984,80.34472,69.355,80.39312Zm-30.6138-7.0215c-1.5869,1.0908-1.5766,1.1499-2.1973,4.0986-.1879.895.0289,1.3535,1.0064,1.5757C37.9429,77.17582,38.332,75.32282,38.7412,73.37162Zm31.7344,5.6045c.0415-.0972.083-.1949.124-.2915-1.3696-.43262-1.9458-2.5821-3.957-1.708v1.9995ZM53.2056,80.415c.2505.56112.3867,1.24322.5932,1.26522a16.43616,16.43616,0,0,0,3.3301.0239c.1953-.0186.3189-.7783.5107-1.28912Zm4.5459-.00288c.2993.5938.4687,1.3135.7085,1.33788a14.45467,14.45467,0,0,0,3.248-.05658c.1895-.0245.2832-.79842.4395-1.2813Zm54.5166-9.019c-1.1162-.8687-2.084-1.6216-3.1397-2.4429v3.7705C110.2002,72.26762,111.1357,71.87212,112.2681,71.39312ZM71.5508,30.02782c-.7749-.90482-1.4556-1.6997-2.2295-2.6035v4.9922C70.1548,31.52342,70.8022,30.83012,71.5508,30.02782Zm.2124,38.2945c-.978-.8814-1.8447-1.6621-2.8106-2.53232v4.38872C69.9697,69.50632,70.8125,68.94972,71.7632,68.32232ZM31.9229,89.08942c1.103-1.4893,2.6582-2.6968,2.6914-5.0489-.6363.2212-1.5069.2847-1.6119.6016C32.5249,86.08592,32.2627,87.60012,31.9229,89.08942Zm67.5415-12.8169c-1.98.1836-2.3672.7143-2.3057,3.1567C99.1274,79.54982,99.3232,79.28172,99.4644,76.27252Zm-41.108,24.3916c-2.6059-.3633-2.7851-.2417-3.2124,2.0927h2.7349C58.0415,102.04442,58.1909,101.38922,58.3564,100.66412Zm42.6934-18.9019h4.0576v-2.5874C103.7607,80.03322,102.5376,80.81352,101.0498,81.76222Zm3.8623,6.0459c.1133-.853-.8833-2.2812-1.7378-2.2646-1.4072.0278-.9785,1.4243-1.6665,2.2646ZM66.6177,89.894c1.4585-.72748,2.7461-1.36958,4.0332-2.01168-.0196-.0747-.0386-.1499-.0581-.2251-1.3067-.11722-2.6138-.2343-3.9751-.3564Zm42.1147-52.01848c-.0517-.0186-.104-.0371-.1562-.0557-.4488,2.0601-.897,4.1201-1.3755,6.3189.6308-.03272,1.0439-.05372,1.5317-.0791Zm27.35549,63.2314c-1.4082,1.0713-2.6211,1.9947-3.834,2.9175l.0952.2329c1.2344-.146,2.4683-.292,3.7388-.4424Zm-27.291-21.7768c-.4434.9306-2.3316.64788-1.6074,2.2998h4.1811C110.4448,80.80272,109.7051,80.14162,108.7969,79.33012Zm-3.8496-8.2202c.122-.00592.2446-.0113.3667-.0171.0327-.7183.0649-1.4361.1064-2.3487-2.6792,1.4356-1.8076,3.9795-2.4258,5.9468,1.2139-1.0825.7808-2.7837,1.4698-4.1323C104.667,70.79,104.8071,70.94972,104.9473,71.10992ZM61.0679,36.26762a9.72971,9.72971,0,0,0,1.7202-.0239c.3174-.0669.7641-.2989.8491-.5572.3818-1.1592.6548-2.35452,1.0327-3.7842-.3681.3921-.5678.5801-.7387.7915C63.0386,33.79982,62.1528,34.91212,61.0679,36.26762Zm-2.6075,46.3677c-.4614-.0274-.7744-.0572-1.0883-.0616-.5943-.0083-1.1885-.0024-1.7456-.0024-.6079,1.5171-.4331,1.6973,2.2719,2.3999C58.0732,84.24412,58.248,83.51812,58.4604,82.63532Zm-8.4936-30.7574c-.6636-.5473-1.1514-1.2812-1.5947-1.2553a33.39973,33.39973,0,0,0-4.3159.7192c-.085.0166-.128.249-.2642.5361Zm43.0068,35.1319-.5512-.0264q-.2103,4.78125-.4195,9.5635.26805.0087.5357.0176Q92.7561,91.78762,92.9736,87.00982Zm-75.5439,9.3681c-.9414.7676-1.7651,1.439-2.77,2.2583,1.5512.1851,2.7915.3335,4.1972.5015C18.3481,98.15432,17.9316,97.34862,17.4297,96.37792Zm80.4736-20.4218c2.0347-.1812,2.3057-.5787,2.4199-3.503A3.39006,3.39006,0,0,0,97.9033,75.95612ZM40.5566,51.03862q.1707.16257.3423.3247c.3003-.2549.7901-.461.8692-.7725.3935-1.5459.6792-3.1201,1.0454-4.8911C40.8364,47.168,41.1606,49.28322,40.5566,51.03862ZM62.2544,41.022c.2412-.96288.4546-1.813.668-2.66358-.0821-.064-.1636-.12842-.2456-.19242-1.1573.666-2.314,1.33252-3.6827,2.12012C60.2041,40.55962,61.1313,40.76862,62.2544,41.022ZM45.3555,69.37842c.0166.0571.0327.1138.0493.1709h5.6601q.09525-.13548.1905-.27c-.4405-.3428-.9326-1.0249-1.313-.9678C48.395,68.54392,46.8813,69.00292,45.3555,69.37842Zm12.3852,1.7681q-.11415-.082-.2275-.1641c-.9151.7129-1.8296,1.4253-2.8355,2.209.7979.5859,1.4502,1.0649,2.2036,1.6182C57.1992,73.45512,57.4697,72.30082,57.7407,71.14652Zm.6216,31.6743c.7671,0,1.4331-.02882,2.0952.0073.794.0435.9644-.6162.7417-.9912a3.14172,3.14172,0,0,0-1.4858-1.2602c-.8613-.3233-1.023.417-1.1211,1.0815C58.541,102.00152,58.4585,102.33982,58.3623,102.82082Zm3.0991-31.7407c-.3344,1.5224-.6552,2.9844-1.0395,4.7353.7636-.5,1.2832-.8403,1.5293-1.00142.1587-.72558.2339-1.17188.3559-1.605C62.543,72.37162,62.813,71.53962,61.4614,71.08012ZM40.7612,48.10252c-.0654-.0327-.1308-.0654-.1963-.0986-1.0546,1.1489-2.1093,2.2974-3.353,3.6514.9746-.1026,1.6489-.1294,2.3008-.2647a.95348.95348,0,0,0,.6172-.5488C40.3867,49.94192,40.5581,49.01762,40.7612,48.10252Zm23.8311,34.5533c-.1582-.0274-.3159-.0552-.4741-.0826a20.21311,20.21311,0,0,0-.5391,5.3521c.4307-.1382.959-.3848.9736-.6592C64.6343,85.73292,64.5923,84.19342,64.5923,82.65582Zm-30.1885-4.4966c-.2715,1.2095-.5181,2.3086-.7969,3.54978.7447-.12108,1.4654.43022,1.7632-.63228C35.96,78.97072,35.9863,78.97852,34.4038,78.15922Zm59.0327,29.3403c2.3701.2612,2.5733.1167,2.8218-1.9453C94.1152,105.24222,93.9878,105.32712,93.4365,107.49952Zm-29.1772-4.7988v-2.0772H61.8721C61.7261,102.18852,62.6001,102.94432,64.2593,102.70072Zm43.6963-54.0869-.4839-.541c-.4624.3501-1.1758.6108-1.3389,1.0678a32.42579,32.42579,0,0,0-.8965,3.7925c1.7383-1.7183,2.0825-2.4526,1.7974-3.3877C107.3848,49.19042,107.6699,48.90232,107.9556,48.61382Zm-70.8741,56.0298c.0782-.8428.1421-1.5284.211-2.2681-.7686-.0874-1.3775-.1568-2.0581-.2339-.1441.8193-.2652,1.5049-.4048,2.2988C35.5879,104.50882,36.2432,104.56792,37.0815,104.64362Zm21.8892-51.2041c-1.1709.6743-2.0806,1.1982-3.1226,1.7978.7207.65768,1.3414,1.2236,2.1177,1.9316C58.3101,55.89012,58.6016,54.80862,58.9707,53.43952Zm8.1484,11.2417c-.5962.3457-.8398,4.3149-.4189,6.81678C67.3696,71.06642,67.6514,66.48492,67.1191,64.68122Zm7.3233,15.4331q-.2037.22995-.4077.4589c.1938.4122.2812,1.0362.6015,1.1983a2.95491,2.95491,0,0,0,3.3462-.4048Q76.2121,80.74047,74.4424,80.11432Zm26.9883,27.4755c.1064-.7397.2021-1.40382.2988-2.0781-2.3477-.1582-2.3477-.1582-2.4028,2.0274.3095.0166.6225.041.9355.0488C100.6147,107.59672,100.9678,107.58982,101.4307,107.58982ZM62.002,44.07032c2.2529-.1821,2.2529-.1821,2.5195-2.0376-.6201-.1533-1.251-.3086-1.9326-.477-.2085.73628-.3868,1.3437-.5489,1.9555A3.33494,3.33494,0,0,0,62.002,44.07032Zm-9.8101,25.4072c2.3179-.0376,3.02-.6093,2.9731-2.4209C53.0674,67.32712,52.8184,67.52982,52.1919,69.47752Zm-17.249,6.4903c1.9253-1.3946,2.165-1.86182,2.2138-4.0659C34.7178,72.35642,35.6294,74.60162,34.9429,75.96782Zm11.0468,3.4384c-.9209-.3203-1.8701-1.4028-2.5576-.2319-.6894,1.1753.7408,1.5659,1.3614,2.3584C45.23,80.75632,45.5972,80.10452,45.9897,79.40622Zm.2408.4664c-.3599.6572-.6358,1.1611-.9429,1.7231H49.542q.03735-.16335.0747-.32572C48.499,80.80862,47.3809,80.34722,46.2305,79.87262Zm-12.7202,21.3237c.6606-.2778,1.392-.3618,1.5112-.67732a18.85187,18.85187,0,0,0,.6445-2.92918C33.897,97.99512,33.6768,99.31742,33.5103,101.19632Zm4.0332,3.4683h2.3437v-1.9063c-.6846-.0918-1.3335-.1782-2.0605-.2759C37.7275,103.25,37.6426,103.90142,37.5435,104.66462Zm61.4057.8896c-2.1206-.2715-2.2109-.1973-2.4389,1.9316C98.6343,107.77692,98.7148,107.71582,98.9492,105.55422Zm-34.6557-5.4985v-1.8291H62.1108c-.0478.6279-.0908,1.1963-.1386,1.8291Zm-8.2207-.0694c2.0717.3506,2.5288.2471,2.5556-.7241a1.32749,1.32749,0,0,0-.685-1.0537C56.6582,97.86962,56.4297,98.13382,56.0728,99.98632ZM42.313,71.50592q-.15165.019-.3042.038v6.2247c.1016-.001.2031-.003.3042-.0044Zm20.1304,24.227c-.0757.62208-.1499,1.2324-.231,1.8999H64.356v-1.8999ZM61.7241,97.644c.0894-.664.1675-1.24458.2451-1.81928-2.0283-.40972-2.2588-.2285-2.3408,1.81928Zm58.70359-14.40958c.2481.5205.3267,1.0649.61231,1.2148.84619.4434,2.60649-.2534,3.21589-1.2148ZM35.6489,100.76512c2.1177-.4365,2.2754-.6489,1.9541-2.5366C35.8218,98.07232,35.6123,98.334,35.6489,100.76512Zm4.8252-41.79c.4092-.9419,2.0479-1.4077,1.3843-2.5112a9.65182,9.65182,0,0,0,.5298-1.7442c.0288-.29-.2627-.6113-.4097-.9184-.1953.2514-.5014.477-.5679.7592C41.0649,56.02392,40.7803,57.502,40.4741,58.97512Zm63.6782-3.1758c-.0654-.0434-.1313-.0874-.1967-.1304-.5083.6939-1.0196,1.3858-1.5244,2.08208-.9634,1.32862-.8892,1.51222.8427,1.95512Q103.7134,57.75042,104.1523,55.79932Zm-47.539,8.2656c-.1846.7315-.3516,1.396-.5191,2.06008,1.0899-.46528,2.6285.14792,3.1934-1.44818C58.2993,64.45072,57.5,64.26762,56.6133,64.06492Zm34.9985,19.1665H87.7256a2.99571,2.99571,0,0,0,3.103,1.2364C91.126,84.34812,91.2578,83.81692,91.6118,83.23142Zm1.5005-5.749c-1.1206.7988-2.1167,1.5083-3.1123,2.2178l.1025.2637c.9878-.0625,1.9756-.1245,3.0098-.1895Zm11.5503,27.4951v-1.8706h-2.0542c-.0855.6568-.1602,1.22708-.2441,1.8706Zm-8.3691-24.9087a11.16174,11.16174,0,0,0-1.6475.1314,5.38272,5.38272,0,0,0-1.1099.5342c.312.47258.3311,1.0918,1.2129,1.1523C96.126,81.98192,96.2061,81.17872,96.2935,80.06882ZM56.5313,78.938h4.6406c-.855-.65718-1.5015-1.15378-2.1529-1.65478C58.1997,77.82862,57.4614,78.31932,56.5313,78.938Zm36.9843,4.271v1.59572c1.8242.2842,2.499-.2036,2.2007-1.59572Zm3.6333,19.88962c-2.1762-.2055-2.2768-.1318-2.5932,1.8365C96.6709,105.22662,96.7241,105.19042,97.1489,103.09862ZM68.3887,24.832V20.147c-.0318-.01218-.0635-.02488-.0948-.03708-.415,1.541-.83,3.082-1.2719,4.72208Zm29.624,60.71682c-.1177.5987-.2339,1.189-.3613,1.8379.7158.0996,1.2861.1792,1.9409.27.1426-.7612.2617-1.3969.3955-2.1079Zm-35.9976,9.6724c.0791-.65822.1524-1.2661.2246-1.8687-1.8847-.2978-2.0219-.1674-2.0473,1.8687Zm-8.4863-11.5498c-.7036,1.9267-.8081,7.3091,0,7.7954ZM104.7183,100.397c-.6626.03662-1.189.06492-1.7686.09712-.0718.75788-.1289,1.3672-.189,2.003h1.9576ZM69.1274,80.46682H66.6675v1.564C68.6489,82.15432,69.1489,81.84422,69.1274,80.46682ZM102.2412,102.499c.0615-.43648.1089-.75.1484-1.06388.0376-.2984.0674-.5977.0997-.8926-1.8204-.27-1.8623-.22952-2.0723,1.95648ZM64.6743,78.98192V74.814l-.2016-.022c-.4527,1.37012-.9053,2.74022-1.3838,4.18992Zm2.585-18.3027c-2.252-.3638-2.522-.1895-2.2505,1.4194h2.2505Zm21.1103,20.1226q.05355.1647.1075.3305c1.2646,0,2.5302.0254,3.7934-.0195.2822-.0103.5557-.2676.8325-.4111a2.64942,2.64942,0,0,0-.8999-.4063,19.5396,19.5396,0,0,0-2.6074.1001A5.84009,5.84009,0,0,0,88.3696,80.80182Zm-24.0307,14.413v-1.9482H62.7451c-.0893.6509-.1728,1.2607-.2676,1.9482Zm-31.0533,6.6319c-.1821.8779-.3378,1.6284-.5175,2.4946.6103.0278,1.0615.0479,1.5727.0713.1382-.8335.2573-1.5537.3838-2.3213C34.209,102.00392,33.8262,101.93852,33.2856,101.84672Zm63.8028,3.2119c.9717-.2358,2.0581.626,2.3657-.897.1235-.6094.0537-1.01662-.6299-1.1401C97.3086,102.74762,97.5029,103.98832,97.0884,105.05862ZM53.2095,80.47612H49.2842c.8501.9721,2.458,1.5498,3.2822,1.1401C52.8398,81.48052,52.9355,80.98682,53.2095,80.47612Zm51.479-14.6216q.123.1494.2466.2988c.2544-.1777.6499-.3022.7402-.542.5601-1.48.5254-3.6201-.0894-4.0669C105.2808,63.01072,104.9844,64.43262,104.6885,65.85452Zm-64.1577,6.605c-.0381-.0074-.0767-.0152-.1148-.023q-.46215,2.6031-.9248,5.2056l.2993.2524c.2466-.2412.6968-.4736.7071-.7246C40.5635,75.60212,40.5308,74.03032,40.5308,72.45952Zm-.752-.1978a14.9343,14.9343,0,0,0-1.2417,5.4917C39.5439,76.07082,39.5967,74.15042,39.7788,72.26172ZM65.459,58.25882c-.1138.646-.2075,1.17818-.313,1.7773h2.0674v-1.7773Zm2.8545-29.062c-.0586-.0103-.1177-.0205-.1763-.0303q-.5991,2.53422-1.1982,5.0679.13905.0732.2783.146c.3652-.4395.9907-.8492,1.0459-1.3252A33.65144,33.65144,0,0,0,68.3135,29.19682ZM104.1772,66.854c-.8505,0-1.642-.04588-2.4218.03082-.2066.02-.376.4179-.5625.6416a7.8781,7.8781,0,0,0,1.8286.5234C103.5825,68.07622,104.3804,68.04592,104.1772,66.854Zm-.997,21.60012c-1.8863-.4009-1.9048-.3896-2.3858,1.4614C102.9136,90.29052,102.9741,90.25342,103.1802,88.45412Zm.2656-13.1475q-.21165-.09375-.4233-.187c-.8716,1.0625-.7671,2.44338-1.1241,3.8623.9092-.1982,1.5845-.3452,2.5025-.5454-1.105-.2588-2.1441-.3032-1.2266-1.64552A3.887,3.887,0,0,0,103.4458,75.30662ZM40.04,95.74562H38.5215c-.0742.6499-.1402,1.229-.2149,1.8809H40.04Zm61.7637-12.5342a9.06838,9.06838,0,0,0,1.4673,1.1358,1.76679,1.76679,0,0,0,1.3252.1572c.2827-.1509.3096-.7808.4809-1.293Zm12.0093-16.5591c-.0308.066-.062.1319-.0923.1978a1.81609,1.81609,0,0,0-.5879.0107,10.14248,10.14248,0,0,0-.9927.48,10.07271,10.07271,0,0,0,.9239.689.73984.73984,0,0,0,.5737.07318c.5259-.21918,1.0273-.498,1.5381-.75438Q114.49465,67.00077,113.813,66.65232ZM48.1309,43.44192c-.5684-.7695-.9947-1.3472-1.4966-2.02692-.6177.70512-1.1328,1.29352-1.7754,2.02692Zm56.79,47.1763c-1.8057-.2803-1.8569-.2344-2.0044,1.625h2.0044ZM82.4155,80.42682H78.4829c.3467.539.4819,1.0087.7793,1.1611C80.0684,82.00242,81.5469,81.45312,82.4155,80.42682ZM25.3169,102.812c1.0376-.50488,1.9683-.95748,2.8989-1.41058-.0224-.0845-.0449-.169-.0669-.2535-.9819-.1093-1.9638-.2187-3.0102-.3354C25.2012,101.51272,25.2471,102.02592,25.3169,102.812Zm-2.9868-2.40668c-.7759-.1118-1.4214-.2051-2.4048-.3472.8745,1.1411,1.5459,2.0176,2.4048,3.1382Zm48.1162-73.6016q-.0417.1128-.0825.2246c.8266.4195,1.6528.8394,2.5278,1.2832.4243-.6504.7686-1.1772,1.1235-1.7207C72.7202,26.668,71.583,26.73582,70.4463,26.80372Zm28.583,53.0225a6.26743,6.26743,0,0,0,.4526,1.5136c.1138.1895.8033.3047.8853.1944a18.73537,18.73537,0,0,0,1.1777-2.044C100.5522,79.62262,99.9756,79.69972,99.0293,79.82622Zm2.3828-8.7744c.7876-.8467,2.126-.9537,2.1118-2.3951C101.5845,68.45172,101.4409,68.60842,101.4121,71.05182Zm-29.498-8.0816c-.1851,1.2695.7329,1.1582,1.4223,1.1519.7085-.0059,1.6719.16788,1.5948-1.1519Zm28.4194,37.5049c-.9741-.0674-1.9507-.3594-2.019.8838-.0445.8135.6455,1.1318,1.519,1.1943C99.9922,101.89162,100.145,101.25732,100.3335,100.47512ZM97.542,85.59622c-2.125-.2368-2.2422-.1533-2.0982,1.4702.5455.0723,1.108.1465,1.7071.22558C97.2959,86.66312,97.4087,86.17382,97.542,85.59622ZM38.251,98.20412c-.0825.6641-.1563,1.2578-.2373,1.9092,2.1494-.3789,2.1494-.3789,1.9004-1.9092ZM107.1338,73.311c.1177.01812.2353.03672.3525.05472.6646-1.11472.1831-2.4306.295-3.6372a4.23036,4.23036,0,0,0-.2281-1.1723c-.1396.0283-.2798.0561-.4194.0844Zm6.6909,38.22021c.6152-1.40329-.8501-1.85929-1.0234-2.90621C111.6704,109.81152,112.0156,110.75,113.8247,111.53121ZM61.6729,98.25882H59.3594c.4302,1.417,1.0205,1.8799,2.0967,1.67918C61.5244,99.40972,61.5942,98.86772,61.6729,98.25882ZM94.1929,77.21c.9223.71192,1.6045,1.23872,2.4282,1.87452.1875-.8843.3296-1.5557.5015-2.3677C96.1523,76.87992,95.3481,77.01562,94.1929,77.21Zm8.8755,22.70212h1.6919v-1.8935h-1.4087C103.2559,98.65872,103.1738,99.20562,103.0684,99.91212Zm-43.625-4.2456a7.53291,7.53291,0,0,0-1.5552.0308c-.2193.05068-.5576.5693-.5112.6328.395.5356.8662,1.0151,1.5444,1.7661C59.1445,97.05712,59.2793,96.43072,59.4434,95.66652ZM34.439,82.46392c-.1812,1.165.6548,1.1548,1.3227,1.1587.6978.00438,1.6275.1377,1.4619-1.1587Zm64.3725,15.5644c-1.6323-.23532-1.8437-.0512-2.1284,1.8535C98.4287,100.10742,98.4653,100.07572,98.8115,98.02832ZM40.5181,82.752q-.10695-.17217-.2129-.34428a21.06788,21.06788,0,0,0-2.2295.0337c-.1709.0181-.2964.4585-.4424.70458a9.24631,9.24631,0,0,0,1.9868.39362C39.9209,83.53812,40.2188,83.03032,40.5181,82.752Zm4.1587-.25738H41.8955c-.0454,1.2896.8638,1.1397,1.5532,1.1245C44.0723,83.60552,44.9136,83.64892,44.6768,82.49462Zm17.497-15.749q-.15015-.1926-.2998-.3848c-.8506.3936-1.7231.7486-2.5371,1.2071-.2114.11908-.2964.55808-.3169.8589-.0058.082.5391.3471.6465.27C60.5273,68.08152,61.3438,67.40382,62.1738,66.74562Zm73.81549,31.9756c-.6421.3599-1.2325.6899-1.8697,1.0464.31841.6045.5689,1.0815.8067,1.5332C136.26949,100.82812,136.25679,99.895,135.98929,98.72122ZM63.7109,62.98972H60.769c-.0888,1.3057.8526,1.1319,1.5386,1.1319C62.9614,64.12162,63.8594,64.24612,63.7109,62.98972Zm-.1621-13.8603c1.0928-1.5259,2.1304-2.9746,3.168-4.4233C65.3994,45.94532,63.3003,46.603,63.5488,49.12942Zm-12.0869,51.6147-.2319.0015q-.5889,2.28375-1.1782,4.56738c.0888.08742.1772.17432.2661.26172.2705-.228.7431-.4292.7778-.6885C51.2783,103.51372,51.3511,102.12652,51.4619,100.74412Zm52.3609-66.4824h3.3281c.0249-.1103.0503-.21972.0757-.3296-.7637-.354-1.5274-.7075-2.3453-1.0869C104.5244,33.32322,104.2188,33.73192,103.8228,34.26172ZM61.6611,51.91362c-2.0757.5561-2.5815,1.9878-2.7563,3.9863C59.8955,54.46732,60.728,53.26272,61.6611,51.91362Zm-15.082,30.2588c-.5391.26358-1,.4892-1.4614.7148.4604.2534.9297.7212,1.3794.7036.5049-.0205.9922-.4804,1.4868-.749C47.5459,82.63332,47.1079,82.42432,46.5791,82.17242Zm52.3272,17.6591c1.6367.3399,1.7324.25148,1.9213-1.769C99.3018,97.77342,99.2681,97.80422,98.9063,99.83152Zm-75.7925.8096c.0708.958.1362,1.8438.1992,2.6983,1.0849.0844,1.2734-.4102,1.0786-1.1792C24.2266,101.50882,24.7393,100.36822,23.1138,100.64112Zm9.7207-18.501c-.5865.2857-1.0244.4986-1.4619.7115.457.2646.9052.7172,1.374.7392.4355.021.893-.417,1.3408-.6533C33.6919,82.686,33.2969,82.43462,32.8345,82.14012ZM97.521,97.39842c1.7676.1524,1.8188.1011,2.1279-1.9497C97.8887,94.90972,98.1099,96.48,97.521,97.39842ZM63.8623,44.40192c-2.2144.1127-2.2144.1127-2.4062,1.7866C63.2451,45.75832,63.8276,45.32572,63.8623,44.40192Zm45.0269-10.4712v-4.3736c-.4097,1.086-.647,2.2056-.9566,3.3047C107.7197,33.61912,108.0112,33.89992,108.8892,33.93072Zm-2.7442,12.3437c-1.4804-.1699-1.6611.0601-1.6313,1.9649C105.9912,48.21,106.0039,48.19532,106.145,46.27442ZM58.5264,92.66462c1.7109.228,1.7109.228,1.9321-1.7579C58.9922,90.64842,58.9922,90.64842,58.5264,92.66462ZM107.7158,66.019V64.146c-1.4868-.188-1.6177-.01118-1.4433,1.873ZM97.6416,74.23292c-1.1406.8286-2.1035,1.5288-3.231,2.3477C97.1982,76.54642,97.3286,76.45362,97.6416,74.23292Zm16.2251,34.4346c1.2993-.70752,2.459-1.3389,3.8086-2.0733C115.3101,106.45952,114.0522,106.88822,113.8667,108.66752Zm-48.0293-52.648c-.0737.6221-.1396,1.1758-.2051,1.7266H67.249v-1.7266ZM34.4712,69.38282c.064.1358.1279.2725.1919.4087.4546-.2407,1.1479-.37452,1.3144-.7446a12.54843,12.54843,0,0,0,.5948-2.5098q-.129-.0966-.2583-.1934a2.75806,2.75806,0,0,1-.1836.4468C35.583,67.65772,35.0254,68.519,34.4712,69.38282Zm67.0933,26.1089c-1.4283-.1855-1.5499-.0493-1.837,1.939h1.337C101.2285,96.79392,101.3848,96.18952,101.5645,95.49172ZM48.3296,82.44342c-.0752,1.4101.8765,1.1801,1.6074,1.1635.6865-.0151,1.2339-.2465.9385-1.1635Zm9.3672,12.685c1.9414.3677,2.249.1118,2.0439-1.7339C58.9634,93.88532,57.7314,93.76072,57.6968,95.12842ZM68.8071,63.001c.2862,1.27442,1.1426,1.29592,2.0142,1.04152.333-.0972.562-.5513,1.0268-1.04152Zm33.959,34.99362c-1.521-.11862-1.5967-.0288-1.6592,1.8789C102.751,100.10642,102.8071,100.04492,102.7661,97.99462Zm-71.956,4.5948c-1.8921-.0406-2.1148.1137-2.084,1.458.5625.0371,1.1323.0747,1.748.1157C30.6001,103.57232,30.7031,103.08982,30.8101,102.58942Zm74.0283-5.1622v-1.9726c-1.2608-.084-1.4024.15138-1.2295,1.9726ZM54.0718,74.11872c-.0371-.0093-.0738-.0191-.1109-.0289-.3545,1.355-.7094,2.71-1.0971,4.19.4541-.0259.7832-.0444,1.208-.0689Zm25.7573,8.163c-1.2998.1148-2.394.212-3.5732.316C77.626,84.20512,77.8472,84.18852,79.8291,82.28172Zm-48.751,21.816c1.3614.2832,1.6626-.1216,1.5083-2.0279C31.1641,102.23342,31.1167,102.29692,31.0781,104.09772Zm11.6382-17.6265c1.2344-.76122,2.2788-1.4053,3.5083-2.1636C43.7183,84.041,43.6089,84.10942,42.7163,86.47122Zm50.9307-8.9556v2.2525c.7534-.0347,1.5005-.0689,2.5859-.1187C95.2578,78.84472,94.5684,78.27592,93.647,77.51562ZM36.7402,95.15482c1.5098.1914,1.7442-.1489,1.377-1.8779C36.9326,93.22362,36.9326,93.22362,36.7402,95.15482ZM100.0474,87.709c1.7099.02342,1.3911-1.35158,1.9897-2.12888H100.481C100.3403,86.271,100.2148,86.88672,100.0474,87.709Zm9.019-20.85258c.5864,1.0772,1.3145,1.47758,2.2676,1.0557a.93716.93716,0,0,0,.4223-.6108c.025-.11432-.2514-.4156-.4038-.42432C110.5923,66.832,109.8286,66.85642,109.0664,66.85642Zm-50.231-27.3476q.1128.1047.2251.209c.8736-.4932,1.7476-.9864,2.7022-1.5259-.563-.3755-.9551-.6367-1.4297-.9536C59.8223,38.01272,59.3291,38.76072,58.8354,39.50882Zm42.7833,57.894h1.3388c.0635-.3803.1221-.6884.1636-.9995.0405-.3008.064-.6045.0942-.90332C101.959,95.33012,101.959,95.33012,101.6187,97.40282Zm16.54779-30.5473c-.854,0-1.51019-.0264-2.16109.01748a.62389.62389,0,0,0-.4615.37262.72.72,0,0,0,.2457.5835C116.4165,68.29542,117.6255,67.89792,118.16649,66.85552ZM50.0981,84.30812H46.9922c.5825.6743,1.0141,1.1738,1.5102,1.7481C49.062,85.44342,49.5361,84.92382,50.0981,84.30812Zm22.7447-5.5264q-2.1123-1.2399-4.2241-2.4799-.0792.139-.1573.2783C69.9497,77.30812,70.7588,79.20172,72.8428,78.78172ZM98.1426,66.856c.6103,1.04632,1.8227,1.43552,2.4409.96822a.73084.73084,0,0,0,.251-.5908.64179.64179,0,0,0-.4844-.36042C99.6929,66.83012,99.0308,66.856,98.1426,66.856ZM73.1924,25.67382H69.1069C69.8516,26.48932,72.1831,26.519,73.1924,25.67382Zm36.561,21.6807c1.2363-.3281,2.3677-.6279,3.4986-.9282l-.0455-.2124h-3.4531Zm-14.2954,55.041c.0674.10548.1348.21048.2022.3159q.9375-.263,1.8759-.52542c-.3652-.53608-.7304-1.07268-1.2378-1.81878C95.9268,101.26372,95.6924,101.82962,95.458,102.39552ZM64.4829,90.26662v-1.8291H63.272c-.0489.64448-.0918,1.2144-.1382,1.8291Zm61.79049,17.354c.0635.083.1275.1665.1914.2495,1.1778-.894,2.355-1.78812,3.7188-2.8242C127.89789,104.88482,127.41549,106.68122,126.27339,107.62062ZM61.5635,88.40772c-.127.6279-.2471,1.2227-.3902,1.9287.5767-.02542.9922-.04442,1.4644-.0659.0635-.6797.1172-1.2529.1743-1.8628Zm2.001-42.4165c-.9688.5742-2.5621.36278-2.6954,2.3135C61.9258,47.51712,63.1528,47.26812,63.5645,45.99122Zm11.749,16.9829c-.3072.8706.2666,1.0742.8374,1.0581.6792-.0185,1.5556.0967,1.6997-1.0581ZM36.1514,79.39652c-.146.7983-.2749,1.5073-.4151,2.2754h1.1939C37.2754,80.73732,37.6997,79.83012,36.1514,79.39652Zm30.1997-43.4756q.1728.1311.3452.2627H68.186v-2.3301C67.4194,34.71732,66.8853,35.31882,66.3511,35.92092ZM59.2705,90.208c1.5835.189,1.6597.09912,1.6699-1.78508C59.3853,88.05812,59.7051,89.39842,59.2705,90.208Zm6.5606-60.56928c.8579-1.085,1.5019-1.8994,2.1948-2.7764C66.4072,26.65482,66.4072,26.65482,65.8311,29.63872Zm65.74459,66.6582c-.6538.4096-1.168.7319-1.6611,1.041.75141,1.3164,1.5043.8779,2.3437.2212C132.04349,97.16212,131.84279,96.79052,131.57569,96.29692ZM58.6382,76.98932c-.5484-.417-.9986-.7598-1.5493-1.1788-.2046.9278-.3633,1.6456-.5728,2.5948C57.3257,77.86522,57.937,77.457,58.6382,76.98932ZM42.9966,47.00442c-.2715,1.3057-.543,2.6113-.8233,3.959C43.2378,50.84862,43.2378,50.84862,42.9966,47.00442Zm9.5405,48.5151c.1084.04248.2163.08448.3247.127.1533-.27052.4512-.5513.4336-.8106-.0615-.917.4317-1.9502-.5703-2.7221Q52.63135,93.81659,52.5371,95.51952Zm12.2778-26.2881c-1.6132-.4951-1.312.6968-1.5131,1.5557h1.5131Zm-5.542-2.0849c1.1221-.5928,2.064-1.0899,3.0054-1.5869C59.8071,65.541,59.4644,65.73492,59.2729,67.14652Zm-1.3623-4.1577a1.30288,1.30288,0,0,0,1.7373,1.0171c.3262-.0982.5552-.5186.8282-.792-.0801-.0752-.1607-.1504-.2407-.2251ZM36.0171,97.38332q.10695.13995.2129.2803h1.6045c.0674-.5962.1308-1.1577.1943-1.7198l-.2417-.142Q36.9024,96.59277,36.0171,97.38332Zm18.4888-32.3682c.3754.2837.7265.5494,1.1162.8438.6914-2.0191.6914-2.0191-.187-2.4566C55.1626,63.875,54.8887,64.35112,54.5059,65.01512Zm66.17229,20.3623c-1.3125.05858-2.6255.1177-4.02.1802C117.5142,86.55082,118.91749,86.44922,120.67819,85.37742ZM98.6387,94.79982c1.8574.43118,1.5229-.9727,1.9311-1.7954C98.9106,92.60552,99.1416,93.97752,98.6387,94.79982Zm6.2959-6.3857c-1.5108-.3604-1.3487.6831-1.4898,1.5693h1.4898Zm2.4135-11.2964a4.44264,4.44264,0,0,0,.1817-3.28372C106.8325,74.84372,107.1187,75.98292,107.3481,77.11772Zm-56.6679,7.4936-.1919-.0761c-.5464.6044-1.0928,1.2089-1.6861,1.8657.3091.354.5811.6655.9771,1.11908C50.1138,86.43992,50.397,85.52542,50.6802,84.61132Zm11.9692-4.4809c-.2246,1.6635.375,2.1025,2.2744,1.7143C64.1094,81.231,63.4717,80.75052,62.6494,80.13042Zm-23.2305-8.5625c-1.7348-.1172-1.9492.2055-1.8212,2.2177C38.2129,73.03612,38.7217,72.41652,39.4189,71.56792Zm68.2979-4.2476c.0146-.103.0293-.2065.0435-.31h-3.1724c-.002.1035-.0034.207-.0059.31ZM35.9712,78.17682c.208-1.0103.3726-1.8106.5371-2.6109-.0654-.0464-.1309-.0932-.1958-.1396-.5396.6049-1.0786,1.2094-1.6646,1.8672C35.0469,77.56012,35.4312,77.81642,35.9712,78.17682Zm3.9443,21.6884c-.831.53178-1.4077.9009-1.9843,1.2701.6137.208,1.227.4155,1.9843.6723Zm60.5645-5.0893c1.3271.2724,1.4907.0708,1.5298-1.8145C100.4507,92.73542,100.9556,94.12792,100.48,94.77592Zm7.5893-47.1231c-.3047-.5649-.5796-1.4297-.7949-1.415-1.102.07518-.6357,1.0434-.9082,1.7974C106.936,47.90722,107.3374,47.81692,108.0693,47.65282ZM40.126,92.73142v-2.0361c-.4385.1611-.9688.2061-1.0406.4121a6.58329,6.58329,0,0,0-.166,1.624Zm61.7871,12.1504c.0766-.7505.1289-1.2646.1826-1.7905H99.895C100.6558,103.76612,101.1914,104.24122,101.9131,104.88182ZM38.7183,90.79742c-1.7437.0014-1.2412,1.124-1.4781,1.9047C39.0723,92.99952,38.2559,91.60842,38.7183,90.79742Zm22.2949.0141c-.106.5469-.2031,1.0489-.3198,1.6538,1.7827-.622,1.7827-.622,1.6699-1.6538Zm3.2148-41.8271c1.3272-.6065,2.3877-1.3819,2.2022-3.1631C65.6401,46.95612,64.9341,47.97022,64.228,48.98442Zm-21.9311-5.6016c1.0512-.0566,1.249-.9741.851-3.6807C42.8301,41.07672,42.5757,42.17582,42.2969,43.38282Zm54.5229,36.812c-.1274.5835-.23,1.0513-.3398,1.5528h2.2441c-.459-.397-.747-.6568-1.0469-.9024C97.438,80.64892,97.1846,80.47022,96.8198,80.19482Zm7.6299-1.1484c-2.7524.2099-2.9014.312-2.7012,1.7622C102.5928,80.25782,103.4004,79.731,104.4497,79.04642Zm9.7598-34.1499h-2.5889C112.3462,45.92922,113.2197,45.94972,114.2095,44.89652Zm-8.6167,30.4668c-.3555-.7554-.5977-1.2705-.8399-1.7852-.3364.5176-.6728,1.0352-1.1601,1.7852Zm-80.0957,28.1269c1.8637.7774,2.5381.625,2.6645-.521C27.248,103.14792,26.3726,103.31932,25.4971,103.49022Zm76.7309-8.7011c1.2393.1933,1.4414-.1455,1.1724-1.8809C102.0293,92.97222,102.5444,94.10992,102.228,94.78912Zm-.7978-4.253c-1.5684-.1074-1.2876,1.12988-1.771,1.8565C101.356,92.68552,100.9258,91.32372,101.4302,90.53612Zm2.622-45.6875c-.0385.1695-.0771.33838-.1157.5078a8.59738,8.59738,0,0,0,1.6109.2798c.2539-.0009.5073-.3427.7607-.53022-.0464-.086-.0928-.17138-.1387-.25738ZM58.9917,66.28372c-.0776-.0742-.1553-.1489-.2329-.2232q-.97125.25635-1.9419.5132l-.0718.2886c.4932.2231,1.0069.645,1.4722.59668C58.5127,67.42872,58.7358,66.69922,58.9917,66.28372Zm43.0742,41.1924h2.1831c-.7231-.6187-1.2612-1.0796-1.9497-1.6685C102.2065,106.47312,102.1382,106.96,102.0659,107.47612ZM43.9053,81.65282c.0556-.1069.1113-.21482.167-.3222a5.38395,5.38395,0,0,0-1.4707-.8028c-.2163-.0444-.5655.5547-.854.8609l.2099.2641Zm-.0078-37.5014c.0004.0991.0014.1982.0024.2973H47.001c-.0015-.0991-.0025-.1982-.0039-.2973Zm60.9292,48.7705c-1.3174.14108-.6646,1.2568-1.0406,1.8418C105.0259,94.99272,105.0884,94.87892,104.8267,92.92192Zm-2.1329,12.5625c.7071.6357,1.2447,1.1191,1.9292,1.7343v-1.7343Zm-65.0322,1.792v-1.0088c-1.5537-.16362-1.5537-.16362-1.3921,1.0088Zm55.854-21.7281c-.3193,1.3306.4668,1.26568,1.2945,1.2569.0835-.4473.1533-.8208.2343-1.2569ZM67.27,53.87792c-1.4848-.1723-1.0835.8345-1.2319,1.5684H67.27Zm40.9068,9.6685c-.5205-.729-.8516-1.19242-1.1822-1.6558-.1045.0508-.209.1021-.313.1529-.081.479-.1621.958-.2544,1.5029ZM33.4575,98.76172c-.7641.7476-1.8359.7324-1.643,1.94628.4062.03522.7836.06792,1.2124.10452C33.1592,100.18212,33.2715,99.64752,33.4575,98.76172Zm10.0928,8.5186c-.1421-.44632-.1626-.9341-.3525-1.0127a1.53088,1.53088,0,0,0-1.1343.0327c-.1729.0835-.1436.5879-.2212.98Zm-11.7315.2685c.3155-1.0971.0909-1.5141-.6772-1.3467-.2769.0601-.4912.4102-.7344.628C30.8477,107.05422,31.2881,107.27832,31.8188,107.54882Zm101.22909-10.2285c.4204-.2505.7177-.4277,1.0952-.6528-.2354-.4087-.4419-.7666-.6856-1.189-.41749.1929-.7519.3477-1.1396.5274C132.57229,96.46392,132.77779,96.83352,133.04789,97.32032Zm-85.38679,9.9273h1.4263q.11055-.175.2222-.3497c-.294-.2407-.5557-.6167-.8872-.6943C47.6416,106.02152,47.437,106.46782,47.6611,107.24762Zm44.9092-22.3208q.19485-.13923.3897-.2789v-1.3886H91.3779C91.9087,84.00152,92.2397,84.46392,92.5703,84.92682Zm8.6543,7.5219c1.6714.00828,1.1797-1.1538,1.5601-2.0219C101.4155,90.59182,101.6519,91.624,101.2246,92.44872ZM40.7939,69.19042q.118.1656.2349.3311h1.3389q.1266-.14655.2534-.294c-.269-.29-.5889-.851-.7969-.81252C41.4458,68.48582,41.1338,68.91262,40.7939,69.19042ZM29.0415,82.40432q-.05715.1992-.1143.3994a8.58907,8.58907,0,0,0,1.4317.5171c.1987.0371.4585-.2559.6909-.3979-.1992-.17292-.3789-.4576-.6011-.4957A8.5002,8.5002,0,0,0,29.0415,82.40432Zm10.2734-2.1655c.0865-.4287.168-.8316.2579-1.2769-.5303-.1372-.9722-.251-1.4185-.3662C37.9824,79.61912,37.9824,79.61912,39.3149,80.23882Zm24.1695-54.6206c1.9087.96378,2.5918.956,2.9687,0Zm-6.0313,42.2334c-.5693-.4234-.9917-.7373-1.5478-1.1509-.1675.7021-.2896,1.2124-.458,1.917C56.2007,68.33012,56.7378,68.125,57.4531,67.85162Zm2.4263,1.312c.5317.37738.8892.6318,1.3398.9516.1724-.7983.3086-1.42722.5113-2.36622C60.9922,68.31352,60.5117,68.68022,59.8794,69.16362Zm5.1523-27.0684c-.1001.5664-.1713.9673-.2841,1.6045.7363-.2915,1.2753-.5044,1.8144-.7178-.001-.1245-.0024-.249-.0034-.3735C66.0889,42.45072,65.6187,42.29252,65.0317,42.09522ZM41.9756,84.251v2.36912c.5259-.9668.8721-1.6045,1.2876-2.36912ZM55.5972,61.45652c2.0356.0103,1.2881-1.5659,1.6757-2.3974C56.7681,59.78172,56.2627,60.50442,55.5972,61.45652Zm7.0883.6231c-.7158-.648-1.2509-1.1318-1.8422-1.667C60.5371,61.51462,61.2593,62.18122,62.6855,62.07962Zm42.4727,15.0483v-1.1733h-1.3564c-.0572.4062-.1055.7466-.1656,1.1733Zm-64.8931-6.4477q-.05055-.293-.102-.586-1.0818.1356-2.1626.2705.0462.3267.0918.6539Q39.1792,70.84942,40.2651,70.68022Zm66.3863-9.8599c1.3115.3579,1.2026-.32032,1.1552-.852a2.27876,2.27876,0,0,0-.3579-.729C107.1992,59.73392,106.9497,60.229,106.6514,60.82032Zm-53.251,22.0459q-.04905-.2292-.0986-.458a10.54087,10.54087,0,0,0-1.502.0244c-.1811.02638-.3227.3301-.4819.5073.1631.1368.3525.4117.4848.3868A15.778,15.778,0,0,0,53.4004,82.86622Zm-7.898-12.5835c1.0386.9824,1.6612.9624,2.3902,0Zm-4.3994-2.728q.2718.2556.544.5122c.2739-.2686.6357-.4981.7827-.8237.0674-.1495-.2871-.4893-.4502-.7427Q41.5415,67.02717,41.103,67.55472Zm23.6328,5.3047v-1.4492h-1.872C63.6235,71.998,64.1021,72.36872,64.7358,72.85942ZM55.2827,94.728c-.4385-.52188-.8056-.95848-1.3491-1.60588v2.0302C54.3809,95.01172,54.7446,94.89752,55.2827,94.728ZM105.334,71.78662c-.1397-.0981-.2798-.1958-.4199-.2944-.2154.478-.4307.9556-.7281,1.6147C105.709,73.23492,105.2246,72.31692,105.334,71.78662Zm-40.5249,1.6939c-.7305-.5606-1.209-.9278-1.7881-1.3726-.1196.5488-.2022.9258-.2993,1.3726Zm-42.5059,31.4629q-.2058.15375-.4111.3081c.229.518-.0547,1.4853,1.3667,1.1631C22.8921,105.85012,22.5977,105.39652,22.3032,104.94342ZM71.9326,37.043l-.2192.30422c.3164.1557.6323.436.9492.4375a5.95236,5.95236,0,0,0,1.3833-.3096q-.0447-.216-.0903-.43212ZM67.2529,63.38332c-.0009-.1035-.0024-.207-.0034-.3105H64.1802q.00285.15525.0063.3105ZM37.5034,81.60642h2.1143c-.7393-.5073-1.2364-.8486-1.8545-1.27242C37.6553,80.86232,37.5815,81.22272,37.5034,81.60642Zm26.9121,9.7178c-.6738.4151-1.1909.7334-1.708,1.0513q.0813.1545.1616.3091h1.5464Zm-.915-54.3198q-.05415.24975-.1079.5a7.85259,7.85259,0,0,0,1.5273.2661c.2627-.0034.5225-.3223.7837-.49852-.0444-.08938-.0889-.17828-.1333-.26758Zm51.9736,75.17679c.4014-1.53079.4014-1.53079-1.1606-1.47321C114.7451,111.25541,115.0327,111.62061,115.4741,112.18121Zm-91.4917-7.24709q-.202.1809-.4033.3618c.2808.4639.0288,1.4463,1.4619,1.1045C24.6089,105.80222,24.2954,105.36822,23.9824,104.93412Zm1.7017-.0039q-.2037.18375-.4072.3672c.3139.4297.0366,1.4389,1.4794,1.09758C26.3145,105.791,25.9995,105.36042,25.6841,104.93022Zm5.2749-3.0708c-1.7188-.69442-1.7261-.6919-1.9019.4594C29.7207,102.15872,30.3398,102.00882,30.959,101.85942Zm38.0908-64.8482c1.6602,1.0376,1.9531,1.023,2.3916,0Z" transform="translate(-6.0845 -16.55762)" fill-rule="evenodd"/></svg>