<?xml version="1.0" encoding="UTF-8" standalone="no"?>
<!-- Created with Inkscape (http://www.inkscape.org/) -->

<svg
   xmlns:dc="http://purl.org/dc/elements/1.1/"
   xmlns:cc="http://creativecommons.org/ns#"
   xmlns:rdf="http://www.w3.org/1999/02/22-rdf-syntax-ns#"
   xmlns:svg="http://www.w3.org/2000/svg"
   xmlns="http://www.w3.org/2000/svg"
   xmlns:sodipodi="http://sodipodi.sourceforge.net/DTD/sodipodi-0.dtd"
   xmlns:inkscape="http://www.inkscape.org/namespaces/inkscape"
   version="1.1"
   id="svg7"
   xml:space="preserve"
   width="2000"
   height="442.95508"
   viewBox="0 0 2000 442.95508"
   sodipodi:docname="A.svg"
   inkscape:version="0.92.4 (5da689c313, 2019-01-14)"><metadata
     id="metadata13"><rdf:RDF><cc:Work
         rdf:about=""><dc:format>image/svg+xml</dc:format><dc:type
           rdf:resource="http://purl.org/dc/dcmitype/StillImage" /><dc:title></dc:title></cc:Work></rdf:RDF></metadata><defs
     id="defs11"><linearGradient
       x1="0"
       y1="0"
       x2="1"
       y2="0"
       gradientUnits="userSpaceOnUse"
       gradientTransform="matrix(0,20.64155,-20.64155,0,26.207999,724.39531)"
       spreadMethod="pad"
       id="linearGradient37"><stop
         style="stop-opacity:1;stop-color:#a41c23"
         offset="0"
         id="stop31" /><stop
         style="stop-opacity:1;stop-color:#a41c23"
         offset="0.29807814"
         id="stop33" /><stop
         style="stop-opacity:1;stop-color:#6e1417"
         offset="1"
         id="stop35" /></linearGradient><clipPath
       clipPathUnits="userSpaceOnUse"
       id="clipPath47"><path
         d="M 18,720.72 H 68.091 V 774 H 18 Z"
         id="path45"
         inkscape:connector-curvature="0" /></clipPath><clipPath
       clipPathUnits="userSpaceOnUse"
       id="clipPath77"><path
         d="M 18,720.72 H 68.091 V 774 H 18 Z"
         id="path75"
         inkscape:connector-curvature="0" /></clipPath><clipPath
       clipPathUnits="userSpaceOnUse"
       id="clipPath99"><path
         d="m 122.161,360.84 h 46.986 v 14.998 h -46.986 z"
         id="path97"
         inkscape:connector-curvature="0" /></clipPath><clipPath
       clipPathUnits="userSpaceOnUse"
       id="clipPath157"><path
         d="m 122.161,442.405 h 47.634 v 15.031 h -47.634 z"
         id="path155"
         inkscape:connector-curvature="0" /></clipPath><clipPath
       clipPathUnits="userSpaceOnUse"
       id="clipPath173"><path
         d="m 122.161,360.84 h 46.986 v 14.998 h -46.986 z"
         id="path171"
         inkscape:connector-curvature="0" /></clipPath><clipPath
       clipPathUnits="userSpaceOnUse"
       id="clipPath189"><path
         d="m 122.161,278.346 h 47.634 v 15.925 h -47.634 z"
         id="path187"
         inkscape:connector-curvature="0" /></clipPath><clipPath
       clipPathUnits="userSpaceOnUse"
       id="clipPath225"><path
         d="m 122.161,278.346 h 47.634 v 15.925 h -47.634 z"
         id="path223"
         inkscape:connector-curvature="0" /></clipPath><clipPath
       clipPathUnits="userSpaceOnUse"
       id="clipPath245"><path
         d="m 122.161,442.405 h 47.634 v 15.031 h -47.634 z"
         id="path243"
         inkscape:connector-curvature="0" /></clipPath><clipPath
       clipPathUnits="userSpaceOnUse"
       id="clipPath281"><path
         d="m 332.417,352.741 h 64.686 v 19.209 h -64.686 z"
         id="path279"
         inkscape:connector-curvature="0" /></clipPath><clipPath
       clipPathUnits="userSpaceOnUse"
       id="clipPath297"><path
         d="m 332.417,352.741 h 64.687 v 19.209 h -64.687 z"
         id="path295"
         inkscape:connector-curvature="0" /></clipPath><clipPath
       clipPathUnits="userSpaceOnUse"
       id="clipPath417"><path
         d="m 332.417,438.518 h 43.528 v 18.919 h -43.528 z"
         id="path415"
         inkscape:connector-curvature="0" /></clipPath><clipPath
       clipPathUnits="userSpaceOnUse"
       id="clipPath437"><path
         d="m 332.417,266.613 h 73.715 v 19.561 h -73.715 z"
         id="path435"
         inkscape:connector-curvature="0" /></clipPath><clipPath
       clipPathUnits="userSpaceOnUse"
       id="clipPath449"><path
         d="m 332.417,352.741 h 64.687 v 19.209 h -64.687 z"
         id="path447"
         inkscape:connector-curvature="0" /></clipPath><clipPath
       clipPathUnits="userSpaceOnUse"
       id="clipPath465"><path
         d="m 332.417,266.613 h 73.715 v 19.561 h -73.715 z"
         id="path463"
         inkscape:connector-curvature="0" /></clipPath><clipPath
       clipPathUnits="userSpaceOnUse"
       id="clipPath487"><path
         d="M 297,27 H 585 V 63.346 H 297 Z"
         id="path485"
         inkscape:connector-curvature="0" /></clipPath></defs><sodipodi:namedview
     pagecolor="#ffffff"
     bordercolor="#666666"
     borderopacity="1"
     objecttolerance="10"
     gridtolerance="10"
     guidetolerance="10"
     inkscape:pageopacity="0"
     inkscape:pageshadow="2"
     inkscape:window-width="1920"
     inkscape:window-height="1017"
     id="namedview9"
     showgrid="false"
     fit-margin-top="0"
     fit-margin-left="0"
     fit-margin-right="0"
     fit-margin-bottom="0"
     inkscape:zoom="0.27654839"
     inkscape:cx="716.86442"
     inkscape:cy="296.28901"
     inkscape:window-x="1912"
     inkscape:window-y="-8"
     inkscape:window-maximized="1"
     inkscape:current-layer="g15" /><g
     id="g15"
     inkscape:groupmode="layer"
     inkscape:label="537030-044_ARxWP_CoB_Fertility_DiscountProgramsBrochure_45x9_020218_accessible"
     transform="matrix(1.3333333,0,0,-1.3333333,-395.99985,487.40373)"><g
       id="g71"><g
         id="g73"
         clip-path="url(#clipPath77)" /></g><g
       id="g151"><g
         id="g153"
         clip-path="url(#clipPath157)" /></g><g
       id="g167"><g
         id="g169"
         clip-path="url(#clipPath173)" /></g><g
       id="g443"><g
         id="g445"
         clip-path="url(#clipPath449)" /></g><g
       id="g459"><g
         id="g461"
         clip-path="url(#clipPath465)" /></g><g
       id="g573"
       transform="matrix(12.310006,0,0,12.310006,511.39096,294.47125)"><path
         d="m 0,0 c 0.636,0.313 0.447,-0.634 0.447,-0.634 -0.089,-1.073 -0.863,-2.353 -1.416,-3.336 -0.567,-1.004 -2.555,-3.374 -3.423,-3.887 0.033,1.431 1.557,4.561 2.338,5.755 C -1.656,-1.4 -0.636,-0.313 0,0 m -4.024,-14.149 c 6.05,-1.1 10.463,4.772 13.285,9.849 1.13,2.036 2.839,7.36 0.903,9.364 C 8.392,7.004 7.031,4.447 5.986,3.593 L 6.797,2.638 c 1.622,-2.036 0.227,-5.917 -0.726,-7.991 -1.43,-2.553 -4.134,-6.42 -7.305,-5.89 -0.689,0.16 -1.262,0.826 -1.503,1.527 1.703,1.695 3.717,4.669 4.848,6.647 0.949,1.611 2.59,4.718 1.065,5.993 C 1.909,3.797 -0.619,2.529 -1.972,1.381 -2.794,0.636 -3.349,0.026 -3.989,-0.843 c -1.738,-2.37 -3.39,-6.431 -3.207,-9.553 -0.837,-0.608 -1.791,-1.217 -2.93,-0.871 -1.128,0.248 -1.334,1.208 -1.496,1.96 -0.73,4.524 3.79,10.248 6.325,13.537 0,0 -2.006,-0.549 -3.47,-0.614 -3.367,-0.153 -5.873,1.407 -7.688,-0.849 -0.547,-0.803 -0.861,-1.646 -0.961,-2.645 0.746,0.639 1.852,0.49 2.909,0.431 1.827,-0.156 2.728,-0.373 4.376,0.076 -1.463,-2.075 -3.898,-6.163 -4.342,-8.713 -0.233,-1.69 -0.204,-4.356 1.244,-5.548 2.399,-1.586 4.774,-0.467 6.895,1.006 0.631,-0.73 1.412,-1.365 2.31,-1.523"
         style="fill:#e51636;fill-opacity:1;fill-rule:nonzero;stroke:none"
         id="path575"
         inkscape:connector-curvature="0" /></g><g
       id="g577"
       transform="matrix(12.310006,0,0,12.310006,1351.0577,192.10125)"><path
         d="M 0,0 V 0 C 0.172,1.232 1.963,3.069 1.981,3.087 2.578,3.692 3.355,4.18 4.11,4.436 4.419,4.57 4.718,4.543 4.902,4.367 4.97,4.293 5.068,4.157 5.069,3.933 5.069,3.806 5.039,3.654 4.962,3.463 4.772,2.984 3.328,1.579 2.916,1.217 2.459,0.783 1.209,-0.093 0.246,-0.251 c 0,0 -0.18,-0.029 -0.29,-0.046 C -0.03,-0.203 0,0 0,0 m -11.638,-0.344 v 0 c 0.094,0.824 1.323,2.423 1.98,3.093 0.596,0.604 1.373,1.096 2.126,1.345 0.397,0.096 0.716,0.021 0.881,-0.211 0.066,-0.096 0.101,-0.208 0.103,-0.329 0,-0.148 -0.053,-0.305 -0.15,-0.461 -0.818,-1.296 -2.937,-3.121 -4.666,-3.673 0,0 -0.202,-0.065 -0.317,-0.107 0.013,0.111 0.043,0.343 0.043,0.343 m 39.773,6.121 v 0 C 27.803,5.337 26.673,4.1 26.304,3.713 26.288,3.697 26.116,3.532 26.116,3.532 23.061,0.45 20.725,-1.339 19.368,-1.63 c -0.923,-0.205 -1.346,-0.26 -1.782,0.572 -0.005,0.017 -0.017,0.045 -0.017,0.045 0,0.006 -0.046,0.392 -0.046,0.392 -0.002,1.108 1.43,3.594 3.351,5.261 0.734,0.644 0.819,0.929 0.829,1 C 21.429,6.07 21.261,6.273 20.888,6.426 20.351,6.453 19.532,5.883 18.992,5.502 18.609,5.239 17.525,4.236 16.375,3.179 15.418,2.296 14.428,1.382 13.875,0.926 c 0,0 -0.77,-0.634 -0.936,-0.774 0.007,0.162 0.025,0.489 0.025,0.489 0.02,0.572 0.618,1.525 1.472,2.812 0.31,0.473 1.075,1.816 1.166,2.053 L 15.613,5.53 15.601,5.552 C 15.351,5.96 14.872,6.276 14.491,6.294 14.45,6.279 14.149,6.03 14.149,6.03 13.504,5.5 12.126,4.251 10.796,3.042 9.573,1.93 8.421,0.884 8.133,0.676 5.89,-1.001 3.942,-2.095 2.022,-2.777 c -0.345,-0.1 -1.519,-0.387 -2.101,0.267 0,0 -0.133,0.147 -0.202,0.23 0.086,0.042 0.276,0.122 0.276,0.122 1.678,0.72 3.793,1.709 5.327,3.03 C 5.343,0.892 7.674,2.9 7.668,4.874 7.668,4.962 7.66,5.044 7.655,5.13 7.508,5.839 6.901,6.055 6.037,6.162 3.212,6.137 0.678,4.392 -0.637,2.906 L -0.868,2.652 c -0.61,-0.668 -2.463,-2.693 -3.214,-4.49 0,0 -0.033,-0.082 -0.043,-0.095 -0.006,0.005 -0.07,-0.024 -0.07,-0.024 -1.273,-0.541 -2.655,-1.063 -4.193,-1.228 -0.829,-0.106 -2.006,-0.18 -2.664,0.419 0,0 -0.164,0.142 -0.235,0.209 0.13,0.07 3.208,1.727 3.208,1.727 2.537,1.549 4.234,3.902 4.231,5.125 -0.059,1.419 -1.386,1.737 -2.493,1.75 -1.646,-0.015 -3.16,-0.626 -5.071,-2.041 -1.107,-0.821 -3.425,-3.482 -4.039,-6.21 0,0 -0.016,-0.088 -0.029,-0.128 -0.049,-0.016 -0.241,-0.061 -0.241,-0.061 -1.215,-0.305 -3.257,-0.806 -3.637,0.379 -0.611,1.929 1.317,3.791 2.862,5.286 0,0.002 0.869,0.859 0.869,0.859 0.122,0.138 0.269,0.457 0.228,0.708 -0.018,0.119 -0.077,0.207 -0.185,0.272 -0.828,0.363 -1.624,0.078 -2.465,-0.225 -0.632,-0.224 -1.288,-0.455 -1.98,-0.408 0,0 -0.135,0.016 -0.218,0.021 0.008,0.073 0.019,0.222 0.019,0.222 0.037,0.408 0.271,0.653 0.484,0.867 0.004,10e-4 0.067,0.073 0.067,0.073 0.037,0.044 0.058,0.128 0.058,0.224 0,0.087 -0.015,0.183 -0.053,0.266 -0.056,0.13 -0.14,0.207 -0.24,0.214 -0.488,0.061 -1.323,-0.421 -2.083,-1.192 -0.73,-0.746 -1.186,-1.551 -1.184,-2.103 l 0.007,-0.113 c 0.004,-0.015 0.002,-0.046 0.002,-0.046 -0.087,-1.251 -1.172,-2.453 -2.681,-4.12 l -0.656,-0.726 c 0.003,0 -0.251,-0.261 -0.251,-0.261 -0.906,-0.929 -1.477,-1.623 -1.653,-2.007 l -0.053,-0.111 0.125,0.033 c 0.641,0.196 2.487,1.093 5.785,5.268 0,0 0.049,0.059 0.07,0.096 0.043,-0.005 0.123,-0.018 0.123,-0.018 0.155,-0.019 0.344,0.062 0.544,0.14 0.336,0.136 0.722,0.286 1.086,0.047 0,0 0.14,-0.09 0.2,-0.131 -0.063,-0.079 -0.647,-0.829 -0.647,-0.829 -0.92,-1.16 -1.864,-2.351 -1.86,-3.776 0,-0.272 0.034,-0.554 0.116,-0.845 0.177,-0.836 1.034,-1.228 1.713,-1.314 1.375,-0.233 3.097,0.531 4.617,1.202 l 0.77,0.34 c 0.43,0.119 0.554,-0.144 0.646,-0.334 0.105,-0.227 0.258,-0.547 0.922,-0.833 2.223,-1.001 5.483,-0.496 9.69,1.502 0,0 0.126,0.061 0.205,0.098 0.03,-0.074 0.085,-0.221 0.085,-0.221 0.306,-0.816 0.879,-1.318 1.81,-1.584 3.629,-0.474 6.615,1.609 9.5,3.622 0.004,0.002 1.317,1.007 1.533,1.173 C 8.622,-0.733 8.861,-0.988 8.892,-1.03 8.845,-1.1 7.625,-2.824 7.625,-2.824 7.199,-3.451 6.802,-4.038 6.553,-4.698 c 0,0.002 -0.072,-0.279 -0.072,-0.279 l 0.033,-0.144 c 0.064,-0.113 0.218,-0.19 0.445,-0.222 2.202,0.31 4.317,2.113 5.713,3.302 l 0.418,0.356 c 0.602,0.527 1.175,1.018 1.405,1.069 0,0 0.087,0.026 0.131,0.038 0.032,-0.038 0.101,-0.115 0.101,-0.115 0.008,-0.008 0.008,-0.023 0.008,-0.034 0,-0.109 -0.16,-0.363 -0.279,-0.54 l -0.218,-0.359 c -0.187,-0.392 -0.559,-1.165 -0.557,-1.848 0,-0.249 0.052,-0.492 0.188,-0.696 0.663,-1.017 1.238,-1.048 1.859,-1.083 l 0.221,-0.011 c 2.598,0.174 5.141,2.434 7.604,4.624 l 1.836,1.598 c 0,0 1.481,1.302 1.782,1.572 0.041,-0.093 0.104,-0.268 0.104,-0.268 0.187,-0.475 0.228,-0.908 0.228,-1.186 L 27.46,0.559 c -0.028,-0.229 -0.434,-1.83 -0.993,-2.286 -0.004,0 -0.118,-0.064 -0.118,-0.064 -0.004,0 -0.357,-0.092 -0.357,-0.092 -1.359,-0.351 -2.896,-0.747 -3.466,-2.104 -0.003,-0.006 -0.051,-0.308 -0.051,-0.308 10e-4,-0.183 0.071,-0.445 0.379,-0.649 0.96,-0.244 1.953,-0.004 2.826,0.209 l 1.128,0.244 c 0.917,-0.003 1.813,-0.11 2.677,-0.21 1.203,-0.14 2.335,-0.276 3.537,-0.15 1.553,0.41 2.79,2.18 3.17,3.643 l 0.034,0.118 -0.116,-0.057 c -1.929,-0.961 -4.158,-1.009 -5.967,-0.129 0,0 -0.126,0.063 -0.183,0.093 0.025,0.06 0.081,0.2 0.081,0.2 0.013,0.028 1.106,2.72 1.097,6.206 -0.001,0.159 -0.003,0.32 -0.009,0.481 h 0.008 c -0.022,0.085 -0.033,0.163 -0.033,0.241 -0.002,0.321 0.161,0.584 0.308,0.824 0.15,0.238 0.276,0.447 0.276,0.694 0,0.037 -0.003,0.073 -0.005,0.112 -0.007,0.004 -0.007,0.014 -0.007,0.021 0,0.029 0.009,0.07 0.009,0.07 0.003,0.004 0.003,0.009 0.003,0.015 C 31.687,7.766 31.553,7.81 31.486,7.827 29.974,8.206 29.12,7.082 28.135,5.777"
         style="fill:#e51636;fill-opacity:1;fill-rule:nonzero;stroke:none"
         id="path579"
         inkscape:connector-curvature="0" /></g><g
       id="g581"
       transform="matrix(12.310006,0,0,12.310006,915.50628,163.02625)"><path
         d="m 0,0 -0.036,0.023 c -0.576,0.416 -0.76,1 -0.521,1.69 0.211,0.803 2.43,3.267 4.19,3.615 C 5.23,5.641 5.87,5.103 6.177,4.847 6.177,4.842 6.346,4.712 6.426,4.641 6.359,4.569 5.564,3.711 5.564,3.711 4.394,2.051 1.464,-0.676 0,0 m -4.187,9.261 c 0.665,0.823 1.762,1.551 2.091,1.706 0.252,0.12 0.387,-0.021 0.423,-0.067 0.056,-0.067 0.074,-0.16 0.076,-0.253 0,-0.108 -0.033,-0.217 -0.072,-0.263 l 0.013,-0.002 C -2.236,8.337 -5.926,3.994 -8.05,2.47 c 0,0 -0.256,-0.18 -0.407,-0.29 0.021,0.163 0.064,0.491 0.064,0.491 0.176,1.453 2.92,5.003 4.206,6.59 M -20.506,4.924 c 1.378,0.677 3.102,0.633 4.39,-0.114 0,0 0.147,-0.084 0.222,-0.129 -0.059,-0.087 -0.943,-1.324 -0.943,-1.324 -1.455,-1.777 -4.267,-3.544 -5.472,-3.437 v 0.003 c -0.561,0.046 -0.954,0.321 -1.052,0.739 l -0.021,0.354 c -0.004,1.2 1.588,3.06 2.423,3.628 -0.01,-0.004 0.453,0.28 0.453,0.28 M 0.048,13.722 H 0.046 c -1.953,-0.186 -3.79,-1.28 -5.956,-3.543 -0.883,-0.843 -4.972,-5.955 -5.637,-9.836 0,0 -0.01,-0.075 -0.017,-0.106 -0.029,-0.014 -0.093,-0.05 -0.093,-0.05 -0.595,-0.32 -2.382,-1.093 -3.515,-0.811 -0.34,0.084 -0.594,0.26 -0.748,0.52 -0.174,0.337 -0.26,0.68 -0.26,1.044 -0.003,0.846 0.461,1.601 0.864,2.28 0.005,0.003 0.216,0.359 0.232,0.383 0.007,-0.006 0.077,0.015 0.077,0.015 1.048,0.304 2.687,2.309 3.101,3.533 l 0.012,0.035 -0.032,0.02 c -1.224,0.747 -2.867,0.724 -4.026,0.578 -1.911,-0.228 -4.082,-1.074 -5.815,-2.263 -2.084,-1.432 -3.88,-4.339 -4.252,-6.158 -0.201,-1.039 -0.332,-2.093 0.386,-2.58 1.496,-0.863 4.427,0.72 6.427,2.644 0,0 0.26,0.25 0.416,0.4 -0.014,-0.211 -0.063,-0.783 -0.063,-0.783 -0.024,-0.248 -0.047,-0.532 -0.046,-0.813 0.002,-0.53 0.092,-1.062 0.442,-1.391 1.655,-1.307 5.054,0.139 6.928,1.427 0,0 0.11,0.077 0.168,0.115 0.045,-0.055 0.127,-0.161 0.127,-0.161 0.6,-0.737 1.307,-1.53 2.108,-1.661 2.097,-0.288 3.736,0.926 5.192,2.277 0,0 0.19,0.176 0.284,0.267 0.03,-0.155 0.144,-0.674 0.144,-0.674 0.109,-0.54 0.208,-1.05 0.627,-1.386 1.062,-0.817 3.43,0.305 4.763,1.256 0,0 0.309,0.217 0.485,0.347 C 2.324,-1.54 2.223,-1.928 2.223,-1.928 1.997,-2.811 1.579,-3.658 1.17,-4.477 L 0.807,-5.226 0.746,-5.324 0.639,-5.5 C 0.071,-6.413 -0.979,-8.121 -2.006,-8.274 l -0.071,-0.01 c -0.264,0.094 -0.433,0.242 -0.523,0.44 l -0.077,0.381 c -0.002,0.462 0.238,0.984 0.451,1.449 l 0.043,0.091 -0.099,-0.007 c -0.478,-0.074 -0.902,-0.277 -1.37,-0.519 -0.948,-0.564 -1.922,-1.837 -1.92,-2.98 0,-0.237 0.04,-0.461 0.122,-0.668 0.197,-0.436 0.714,-0.447 0.93,-0.436 6.508,0.626 10.142,8.019 12.793,13.419 L 8.794,3.953 C 8.956,4.166 8.981,4.294 8.981,4.369 L 8.976,4.433 C 8.966,4.442 8.876,4.554 8.876,4.554 8.884,4.546 8.81,4.941 8.81,4.941 c 0.106,0.522 1.366,1.622 1.379,1.635 0,-0.003 0.159,0.12 0.159,0.12 0.129,0.084 0.21,0.171 0.212,0.24 0,0.075 -0.084,0.174 -0.213,0.255 C 10.09,7.356 9.813,7.473 8.754,7.764 6.797,8.306 3.434,7.886 0.392,4.923 0.071,4.616 -0.516,3.87 -0.994,3.271 L -1.61,2.502 c -1.483,-1.739 -3.01,-3.544 -5.546,-3.048 -0.331,0.136 -0.684,0.415 -0.82,0.756 -0.072,0.197 -0.068,0.394 0.014,0.571 l 0.032,0.063 c 1.403,0.99 2.843,2.273 4.32,3.829 2.484,2.669 5.521,7.153 5.117,8.263 -0.3,0.774 -1.189,0.799 -1.459,0.786"
         style="fill:#e51636;fill-opacity:1;fill-rule:nonzero;stroke:none"
         id="path583"
         inkscape:connector-curvature="0" /></g></g></svg>