<svg xmlns="http://www.w3.org/2000/svg" viewBox="0 0 225.808 71.985"><path d="M6.215 11.08a40.962 40.962 0 002.143-1.024c.78-.3 1.53-.601 2.32-.93.753-.373 1.48-.748 2.239-1.154.77-.405 1.508-.803 2.271-1.216.734-.313 1.419-.617 2.15-.943 1.003-.359 1.966-.71 2.97-1.095 1.013-.17 1.975-.333 2.99-.507.614.144 1.2.275 1.812.407.267.313.516.603.774.911-.162.07-.32.142-.484.215-.144.704-.279 1.364-.43 2.047.118.628.23 1.216.35 1.814.756-.078 1.492-.15 2.245-.246.757-.037 1.486-.082 2.241-.119.698-.21 1.373-.418 2.075-.638.91-.198 1.785-.385 2.697-.593a704.52 704.52 0 002.73-.35c.916-.162 1.796-.309 2.722-.482.928.08 1.823.16 2.758.23.927 0 1.83.012 2.758.016.928.165 1.812.32 2.74.49.923.096 1.807.185 2.743.29.924.135 1.816.263 2.74.405.806.174 1.569.34 2.373.518.075-.87.155-1.756.23-2.673-.075-.678-.14-1.332-.216-2.015-.916-.13-1.807-.25-2.735-.384-.923-.14-1.8-.288-2.719-.42-.923-.158-1.8-.293-2.726-.445-.932-.047-1.825-.092-2.76-.143-.94.032-1.823.056-2.756.087-.824-.02-1.613-.055-2.426-.07-.827.015-1.611.034-2.43.054-.823.107-1.597.224-2.42.336-.764.171-1.497.309-2.264.47-.835.348-1.637.666-2.478 1.013-.914.114-1.791.22-2.723.349-.809.117-1.58.229-2.384.352.016.672.04 1.316.058 1.97-.007.62-.016 1.19-.023 1.78.192-.756.378-1.5.574-2.298.196-.773.381-1.527.578-2.336-.15-.809-.309-1.594-.457-2.436-.517-.607-1.015-1.202-1.547-1.834-.727-.158-1.42-.32-2.144-.483-.884.265-1.719.518-2.589.784-.824.366-1.601.708-2.408 1.062-.858.31-1.678.61-2.534.925-.77.534-1.51 1.03-2.281 1.535-.749.432-1.471.823-2.225 1.236A75.02 75.02 0 018.29 6.899c-.748.352-1.476.682-2.228 1.008.023.601.04 1.142.066 1.686 0 .51-.01.962-.011 1.403a.73.73 0 01.097.084" fill="#ffe666"/><path d="M13.333 21.492a18.387 18.387 0 015.683 14.824c-.293.224.663.686.958.022.598-1.548 3.381-4.944 3.992-5.602.294-.886-.757-1.728-1.05-2.61q-2.258-5.98-8.989-9.954a51.44 51.44 0 00-12.86-5.096c-1.199-.212-1.199.894-.904 1.333.905.667 2.392.667 3.595.889a27.66 27.66 0 019.575 6.194" fill="#00498f"/><path d="M21.411 36.088c-1.193 1.992-2.994 3.98-2.687 6.187 0 .453.59.677 1.494.677.3 0 .3.439.3.439-1.795.224-1.502 1.33-2.1 1.982-1.196 1.116.895 1.774.598 2.88 0 .448-.896 1.112-1.19 1.55v2.211c-.9 6.198-2.702 11.951-3.297 18.138-.302.444.895.896 1.197.672 4.491-4.423 4.791-9.734 5.39-14.83.294-.438.889-.658 1.197-1.096 0-.891.603-1.33.895-1.993.597-1.774 1.497-3.322 1.193-5.086 0-.223.903-.672.903-.448a4.637 4.637 0 01.299 1.993c.3.881 1.791.881 1.791 1.324-.294 1.112.306 2.216.599 3.538 0 .672 1.496.672 1.496 1.11 1.205 4.868 2.705 9.287 4.198 14.159.192.64.591 1.992 2.086 1.553.603-.452.991-.869.902-1.553-.845-6.42-3.288-12.609-3.884-19.25 0-.881-.606-1.767-.606-2.65-.3-.223-.3-.448-.596-.67-.599-1.984 1.201-4.196-1.193-5.965-.297-.672 1.489-1.518.297-1.96-1.204-.22-1.974.9-2.868 1.338-.3.22-.126.622-.126.842-1.796.448-2.396 2.212-4.188 2.212 2.392-2.212 5.376-4.2 7.182-6.85.589-.896-.154-2.034-1.652-1.595a38.464 38.464 0 00-4.036 2.249c-.606.223 0-.219-.301-.444 1.793-1.324 4.09-2.536 5.283-4.081 1.497-1.992 3-3.765 4.497-5.978a37.009 37.009 0 0114.46-12.283c.6-.438-.263-1.254-.6-1.108-15.38 7.066-26.03 21.675-26.933 22.786" fill="#0080c5"/><path d="M28.598 20.825c0-.477.315-1.174 0-1.646-.954-.697-2.219 0-2.857.471-.953 1.174-2.217 2.577-1.91 3.985 0 .95-.946 2.353 0 2.576 3.178.95 6.663-1.408 6.663-3.509v-.942c-.628-.238-1.581-.47-1.896-.935m-.634 1.53c-1.273.232-.637 1.64-1.905 2.102h-.953a3.152 3.152 0 011.586-3.984c.953-.47 1.273.467 1.906.937.315.464-.2.857-.634.944zM122.506 58.38a.24.24 0 00-.192-.088h-1.357a.238.238 0 00-.229.17c-1.84 7.202-6.63 11.511-12.804 11.511-6.185 0-8.827-3.153-8.827-10.547v-9.245h22.583a.231.231 0 00.238-.233v-.019c-.641-9.382-7.586-16.726-15.813-16.726-8.813 0-15.716 8.61-15.716 19.61 0 10.566 7.701 19.172 17.17 19.172 7.218 0 12.833-5.018 14.992-13.4a.274.274 0 00-.045-.205m-23.41-13.715c0-6.534 2.185-9.72 6.652-9.72 4.718 0 6.818 2.605 6.818 8.45v5.04h-13.47v-3.77zM223.313 66.5l-.991-.91a.231.231 0 00-.177-.054.25.25 0 00-.174.092c-1.608 2.12-2.85 3.354-4.423 3.354-1.673 0-2.49-1.792-2.49-5.48V45.306c0-4.223-.355-6.344-3.803-8.889a17.023 17.023 0 00-10.28-3.213c-8.6 0-13.73 5.05-13.73 9.922a4.201 4.201 0 004.402 4.492c2.507 0 4.127-1.764 4.127-4.492a4.162 4.162 0 00-1.917-3.327c-.29-.242-.623-.512-.623-.658 0-1.283 2.853-4.195 7.553-4.195 4.79 0 6.737 1.82 6.737 6.274v8.917h-.216c-14.423 0-22.695 4.547-22.695 12.463 0 5.291 4.58 9.3 10.653 9.3 6.046 0 10.329-1.93 12.77-5.69a7.121 7.121 0 007.338 5.41c2.929 0 5.244-1.393 7.972-4.794a.24.24 0 00-.033-.325m-15.79-2.6a9.602 9.602 0 01-8.451 5.52c-3.88 0-6.108-2.843-6.108-7.816 0-6.64 3.843-9.724 12.083-9.724.738 0 1.577 0 2.478.073l-.001 11.946z" fill="#00498f"/><path d="M95.991 69.138h-1.56c-2.958 0-2.944-.681-3.716-2.335-3.798-10.571-19.178-53.431-19.178-53.431a.21.21 0 00-.215-.162h-.945a.228.228 0 00-.217.166L53.648 64.18c-1.177 3.71-1.579 4.958-5.898 4.958h-1.108a.242.242 0 00-.238.243v1.183a.236.236 0 00.238.238h14.774a.235.235 0 00.235-.238v-1.183a.24.24 0 00-.235-.243c-5.56 0-6.681-.384-6.681-1.815a5.687 5.687 0 01.331-1.453c0-.004 4.422-14.098 4.939-15.73H75.46c.079.233 3.743 10.347 5.697 15.73a5.89 5.89 0 01.332 1.458c0 1.385-.224 1.81-5.482 1.81h-.676a.251.251 0 00-.24.243v1.183a.244.244 0 00.24.238h.272s.016.018.029.018h20.112c.014 0 .016-.018.016-.018h.231a.239.239 0 00.237-.238v-1.183a.246.246 0 00-.237-.243m-35.41-20.66c.194-.581 6.425-19.679 6.823-20.895.427 1.197 7.248 20.295 7.46 20.894zM144.554 64.637a.257.257 0 00-.197-.105h-1.356a.241.241 0 00-.22.156c-1.055 3.08-3.319 4.83-6.214 4.83-2.698 0-3.651-1.38-3.651-5.288V36.03h7.74a.238.238 0 00.237-.233v-1.274a.244.244 0 00-.238-.234h-3.823c-3.184 0-3.854.046-3.916-2.732v-9.073a.238.238 0 00-.24-.233h-1.084a.241.241 0 00-.241.2c-1.26 8.296-4.792 11.838-11.81 11.838a.239.239 0 00-.23.234v1.274a.232.232 0 00.23.233h6.016v26.844c0 2.34.157 4.424 2.067 6.238a10.906 10.906 0 007.584 2.788c4.655 0 7.991-2.514 9.378-7.06a.243.243 0 00-.032-.202" fill="#00498f"/><path d="M185.622 69.07l-1.097-.005c-2.292 0-3.164.04-3.235-2.687V44.766c0-7.143-4.5-11.562-11.75-11.562-5.184 0-9.174 2.417-12.521 7.522v-7.289a.24.24 0 00-.105-.196.26.26 0 00-.217-.023c-1.782.713-4.583 1.07-8.337 1.07h-4.353a.241.241 0 00-.231.233v1.274a.23.23 0 00.23.229h4.922s.012 23.59.012 30.111c0 3.003-.927 2.93-3.592 2.93v.004h-.99a.227.227 0 00-.232.233v1.262a.23.23 0 00.232.238h17.406a.229.229 0 00.228-.238v-1.262a.225.225 0 00-.228-.233h-.82v-.005c-3.118 0-3.867.046-3.924-2.737V44.1c3.205-5.863 6.978-8.706 11.537-8.706 3.405 0 4.593 1.394 4.725 5.818.01.289.012.6.012.919v24.006h-.003c0 3.003-.822 2.93-3.925 2.93v.004h-.905a.231.231 0 00-.235.233v1.262a.235.235 0 00.235.238h17.162a.23.23 0 00.229-.238v-1.262a.228.228 0 00-.23-.234M217.758 37.258a4.026 4.026 0 114.035 4.121 4.078 4.078 0 01-4.035-4.121m7.349 0a3.326 3.326 0 10-3.313 3.464 3.423 3.423 0 003.313-3.464zm-4.917-2.34h1.666c.95 0 1.702.379 1.702 1.133a1.402 1.402 0 01-.976 1.275l1.442 1.873-.806.192-1.361-1.896h-.878v1.814l-.789.004v-4.395zm.788 2.133h.485c1.03 0 1.242-.575 1.242-.95 0-.534-.478-.74-1.01-.74h-.717v1.69z" fill="#00498f"/><path d="M217.758 37.258a4.026 4.026 0 114.035 4.121 4.078 4.078 0 01-4.035-4.121m7.349 0a3.326 3.326 0 10-3.313 3.464 3.423 3.423 0 003.313-3.464zm-4.917-2.34h1.666c.95 0 1.702.379 1.702 1.133a1.402 1.402 0 01-.976 1.275l1.442 1.873-.806.192-1.361-1.896h-.878v1.814l-.789.004v-4.395zm.788 2.133h.485c1.03 0 1.242-.575 1.242-.95 0-.534-.478-.74-1.01-.74h-.717v1.69z" fill="#00498f"/></svg>