<svg xmlns="http://www.w3.org/2000/svg" version="1.0" width="282.162" height="176.072" viewBox="0 0 282.162 176.072"><ellipse cx="150.247" cy="99.193" rx="135.579" ry="82.536" fill="#00186d" transform="translate(-9.167 -11.156)"/><g fill="none"><path d="M42.064 64.705c2.537.333 4.858.904 6.958 1.711.187-2.301.452-4.894.825-7.789a294.844 294.844 0 00-6.604 3.306zM150.56 40.867c-1.648 0-3.306-.214-3.836-.289l-7.256-.686c.207.292.407.608.597.962 3.572.227 6.276 1.388 8.046 3.46 1.063 1.244 2.209 3.327 2.031 6.425l.291-.307 1.496-5.944.026-.104.03-.104c.473-1.584 1.057-2.813 1.699-3.775-1.081.296-2.175.362-3.124.362zM128.388 38.845c-.562-.009-1.125-.013-1.692-.013-11.754 0-24.748 1.84-38.619 5.467l-.03.008-.03.007c-7.368 1.83-15.383 4.478-23.86 7.882-.81 5.883-1.402 10.921-1.775 15.1 1.763-2.256 3.008-5.114 3.773-8.657.478-3.611 3.237-6.01 6.971-6.01h.34l.337.046c1.902.259 3.517 1.2 4.548 2.647.104.145.208.305.31.48 1.996-1.631 3.858-2.335 5.797-2.335 2.937 0 4.678 1.308 5.632 2.431 3.759-4.534 5.59-5.033 7.517-5.033 2.262 0 4.264.856 5.636 2.411a7.196 7.196 0 011.311 2.151c.809-1.648 1.769-3.185 2.844-4.518l.06-.074.063-.072c3.866-4.437 8.102-6.687 12.59-6.687 3.204 0 5.821 1.167 7.6 3.23-.59-1.568-.725-3.059-.413-4.504a6.766 6.766 0 012.367-3.836zM197.327 46.318a.46.46 0 01.01-.035c-1.988 2.263-2.893 3.957-3.291 5.11.868-1.147 1.959-2.774 3.281-5.075zM176.047 51.531a6.388 6.388 0 01-.978-1.55c-1.656 2.244-2.495 4.219-2.495 5.885 0 .651.047 1.117.101 1.436.735-.23 2.51-1.072 5.475-4.159a6.423 6.423 0 01-2.103-1.612z"/></g><path d="M104.449 101.614a80.277 80.277 0 00-1.313 2.531l-2.692 7.785a19.893 19.893 0 01-.37 1.729c.977-2.237 1.794-4.416 2.488-6.365.755-2.159 1.376-4.04 1.887-5.68zM115.649 133.476c0 .386.017.705.041.972.967-.689 2.667-2.121 5.333-5.041.32-1.803.78-3.955 1.367-6.403-.958.604-1.881 1.362-2.782 2.276-2.701 2.742-3.959 5.346-3.959 8.196zM154.396 130.213c-.776 2.074-1.056 3.477-1.131 4.377.642-.361 1.461-.979 2.4-1.939l.072-.074.076-.071c2.517-2.365 4.152-4.712 5.004-7.181.396-1.141.91-3.228 1.181-4.699-.604.382-1.392.988-2.378 1.957-2.141 2.137-3.849 4.635-5.224 7.63z" fill="none"/><path d="M155.737 132.576l.076-.071c2.517-2.365 4.152-4.712 5.004-7.181.396-1.141.91-3.228 1.181-4.699-.604.382-1.392.988-2.378 1.957-2.141 2.138-3.85 4.636-5.225 7.631-.776 2.074-1.056 3.477-1.131 4.377.642-.361 1.461-.979 2.4-1.939zM121.023 129.407c.32-1.803.78-3.955 1.367-6.403-.958.604-1.881 1.362-2.782 2.276-2.701 2.742-3.959 5.347-3.959 8.196 0 .386.017.705.041.972.967-.69 2.667-2.122 5.333-5.041zM100.444 111.93a19.893 19.893 0 01-.37 1.729c.977-2.237 1.794-4.416 2.488-6.365a173.305 173.305 0 001.887-5.68 80.277 80.277 0 00-1.313 2.531zM42.064 64.705c2.537.333 4.858.904 6.958 1.711.187-2.301.452-4.894.825-7.789a294.844 294.844 0 00-6.604 3.306zM176.047 51.531a6.388 6.388 0 01-.978-1.55c-1.656 2.244-2.495 4.219-2.495 5.885 0 .651.047 1.117.101 1.436.735-.23 2.51-1.072 5.475-4.159a6.423 6.423 0 01-2.103-1.612zM197.327 46.318a.46.46 0 01.01-.035c-1.988 2.263-2.893 3.957-3.291 5.11.868-1.147 1.959-2.774 3.281-5.075zM146.724 40.578l-7.256-.686c.207.292.407.608.597.962 3.572.227 6.276 1.388 8.046 3.46 1.063 1.244 2.209 3.327 2.031 6.425l.291-.307 1.496-5.944.026-.104.03-.104c.473-1.584 1.057-2.813 1.699-3.775-1.082.296-2.176.362-3.125.362-1.648 0-3.305-.214-3.835-.289zM126.696 38.832c-11.754 0-24.748 1.84-38.619 5.467l-.03.008-.03.007c-7.368 1.83-15.383 4.478-23.86 7.882-.81 5.883-1.402 10.921-1.775 15.1 1.763-2.256 3.008-5.114 3.773-8.657.478-3.611 3.237-6.01 6.971-6.01h.34l.337.046c1.902.259 3.517 1.2 4.548 2.647.104.145.208.305.31.48 1.996-1.631 3.858-2.335 5.797-2.335 2.937 0 4.678 1.308 5.632 2.431 3.759-4.534 5.59-5.033 7.517-5.033 2.262 0 4.264.856 5.636 2.411a7.196 7.196 0 011.311 2.151c.809-1.648 1.769-3.185 2.844-4.518l.06-.074.063-.072c3.866-4.437 8.102-6.687 12.59-6.687 3.204 0 5.821 1.167 7.6 3.23-.59-1.568-.725-3.059-.413-4.504a6.766 6.766 0 012.367-3.836l-1.277-.121c-.562-.009-1.125-.013-1.692-.013z" fill="none"/><path d="M247.013 43.269c-.277-2.971-2.628-5.128-5.587-5.128-.907 0-1.807.199-2.718.604.02-.062.036-.123.053-.18l.174-.589.023-.614c.111-2.831-.604-5.075-2.141-6.671-1.33-1.389-3.192-2.151-5.246-2.151-.37 0-.754.024-1.143.072-1.771.206-3.66 1.028-6.232 3.411-1.064-1.395-2.656-2.281-4.5-2.502l-.047-.006-.049-.005a7.297 7.297 0 00-.724-.036c-1.651 0-3.599.652-5.003 2.298a6.62 6.62 0 00-.626-.831c-1.397-1.569-3.438-2.365-6.065-2.365-6.926 0-13.281 2.552-18.895 7.584l-.063.057-.063.06c-.53.51-1.034 1.026-1.513 1.549-1.65-2.645-4.727-4.493-7.854-4.493-3.625 0-7.168 1.544-10.572 4.585a6.977 6.977 0 00.193-1.606 7.018 7.018 0 00-7.01-7.01 6.975 6.975 0 00-4.442 1.592c-1.026-1.285-2.544-2.242-4.31-2.626l-.188-.041-.189-.026c-.616-.085-15.203-2.096-22.575-2.291a109.046 109.046 0 00-3.295-.047c-17.857 0-37.664 3.772-60.553 11.531l-.043.015-.043.016-1.119.403c-.477-2.188-1.331-3.908-2.583-5.244-1.636-1.747-3.819-2.669-6.312-2.669-7.215 0-14.269 6.859-22.139 21.555-4.558 2.425-9.804 5.446-15.62 8.995a575.808 575.808 0 00-11.018 6.909c-.124.08-1.127 13.308 1.542 13.308.438 0 .882-.036 1.319-.106 1.007-.163 2.02-.309 3.03-.454.677-.098 1.353-.195 2.024-.296a561.4 561.4 0 017.18-1.025c-1.042 3.05-1.77 5.575-2.176 7.551-.728 2.563-.078 4.453.615 5.604.585.976 2.002 2.687 4.914 3.203a6.22 6.22 0 001.113.102c1.204 0 5.242-.438 6.646-6.054l.018-.072.016-.072c.425-1.94 1.425-5.512 3.771-11.832 8.661.316 10.966 4.277 11.993 7.747l.024.083.027.082c1.179 3.532 3.809 5.644 7.033 5.644.411 0 .828-.037 1.241-.108l.062-.011.062-.014a6.224 6.224 0 004.54-3.691c.88 1.124 2.116 1.922 3.583 2.285a6.333 6.333 0 001.686.228c2.834 0 5.224-1.715 7.104-5.096.344-.617.687-1.224 1.027-1.82a6.24 6.24 0 004.126 3.417c.656.17 1.28.253 1.905.253 3.771 0 5.6-2.887 6.479-4.274l.097-.153.085-.16a77.04 77.04 0 011.018-1.836c1.099 1.985 2.985 3.227 4.856 3.784l.104.031.105.026a7.143 7.143 0 001.735.212c2.278 0 4.533-1.036 6.894-3.168l.126-.114.118-.122 2.411-2.495a9.737 9.737 0 004.656 2.806c-3.297.106-6.613 1.722-10.403 5.09l-.059.052-.057.054c-3.381 3.2-6.366 7.498-9.125 13.139l-.014.027-.013.028c-2.142 4.519-3.494 8.232-4.02 11.049-.439 2.039-1.644 7.908 3.019 10.063l.376.176.4.108c.708.192 1.42.292 2.117.292 1.521 0 3.723-.438 5.508-2.533-.975 1.801-2.07 3.567-3.305 5.221-1.854 2.479-6.104 7.352-8.268 9.479-1.055 1.037-2.081 1.607-2.89 1.607-.037 0-.074-.002-.11-.004l-2.496-.449-.439-.078h-.447c-1.938 0-3.655.738-4.835 2.085-.859.979-1.809 2.707-1.458 5.383l.042.322.083.313c.494 1.854 2.433 6.172 9.749 6.172 6.268 0 12.504-4.018 18.952-12.221 1.049 11.297 9.38 12.227 12.052 12.227 2.489 0 5.101-.906 7.979-2.806 2.093 2.515 5.013 2.806 6.24 2.806 1.957 0 4.372-.562 12.489-6.366.164.334.34.661.531.981l.043.073.047.072c2.259 3.518 5.82 5.454 10.035 5.454 4.213 0 8.412-1.748 12.479-5.195 3.137-2.711 5.382-5.283 7.125-8.217-.979 2.65-1.406 4.473-1.406 5.951 0 4.267 2.979 7.246 7.245 7.246 2.305 0 5.039-1.041 12.178-6.349l7.32-5.146.094-.066.092-.07c1.457-1.129 5.864-4.541 4.397-9.248-.737-2.506-2.955-4.178-5.569-4.178-1.74 0-3.483.696-5.66 2.26l-.89.646c1.271-3.22 2.656-6.64 4.022-10.015 2.584-6.383 5.023-12.414 6.559-16.721 1.038-2.914 3.523-11.258 3.629-11.611l.208-.698v-.729c-.003-3.953-2.78-6.819-6.608-6.819-5.051 0-7.075 5.761-7.855 8.056l-8.785 22.904c-.854 1.354-2.392 3.181-5.16 5.447a13.934 13.934 0 00-1.521-3.797c-2.14-3.625-5.757-5.619-10.188-5.619-4.184 0-8.459 1.843-12.709 5.477l-.084.072-.08.074c-3.892 3.635-6.863 7.84-8.836 12.5l-.076.183-.063.188-.365 1.096-3.44 2.289c3.046-5.074 5.884-10.844 8.48-17.244 4.205-10.484 6.246-17.93 6.246-22.778 0-8.599-6.12-8.847-6.818-8.847-3.598 0-6.724 2.724-10.791 9.401l-.053.087-.049.089c-2.817 5.08-5.66 11.531-8.468 19.214-4.066.451-7.773 1.702-11.108 3.709a130.663 130.663 0 001.494-4.313l.092-.282.058-.295 2.886-14.646.094-.479v-.488c.001-6.376-3.102-9.481-6.678-10.489 3.725-.071 7.309-1.381 10.383-3.819 2.482-1.968 7.222-6.401 9.298-9.268l.186-.258c.122 1.756.776 3.366 1.91 4.648 1.479 1.674 3.605 2.595 5.987 2.595 2.396 0 4.99-1.01 9.151-5.052 1.416 1.346 3.38 2.113 5.709 2.113 2.277 0 4.634-1.177 8.376-4.389 2.099 1.58 4.746 2.411 7.817 2.411 4.223 0 8.443-1.827 12.803-5.559 1.855 1.525 4.232 2.353 6.977 2.353 2.4 0 5.565-.688 8.729-3.391a7.847 7.847 0 002.363.363c.674 0 1.389-.078 2.123-.232 1.795-.372 3.604-1.208 5.441-2.523.705.48 1.512.813 2.38.977.56.134 1.118.202 1.668.202 1.31 0 3.786-.406 5.703-3.128l.135-.19.116-.202c.622-1.086 1.246-2.14 1.871-3.162.271 1.096.74 2.176 1.511 3.133 1.31 1.627 3.188 2.53 5.293 2.542 2.294 0 4.367-1.215 8.563-5.002a115.012 115.012 0 006.123-5.983c2.299-2.45 3.358-4.82 3.151-7.043zM49.022 66.416c-2.1-.807-4.421-1.378-6.958-1.711l1.179-2.772a294.844 294.844 0 016.604-3.306 166.526 166.526 0 00-.825 7.789zm53.54 40.877c-.694 1.949-1.511 4.128-2.488 6.365.141-.535.265-1.11.37-1.729l2.692-7.785c.46-.924.897-1.766 1.313-2.531a173.305 173.305 0 01-1.887 5.68zm51.834 22.92c1.375-2.995 3.084-5.493 5.225-7.631.986-.969 1.773-1.575 2.378-1.957-.271 1.472-.785 3.559-1.181 4.699-.852 2.469-2.487 4.815-5.004 7.181l-.076.071-.072.074c-.939.961-1.759 1.578-2.4 1.939.074-.899.353-2.302 1.13-4.376zm-34.788-4.933c.901-.914 1.824-1.672 2.782-2.276-.587 2.448-1.047 4.601-1.367 6.403-2.666 2.92-4.366 4.352-5.333 5.041a10.797 10.797 0 01-.041-.972c0-2.85 1.258-5.454 3.959-8.196zm7.691-82.478c-.312 1.445-.177 2.936.413 4.504-1.779-2.063-4.396-3.23-7.6-3.23-4.488 0-8.724 2.25-12.59 6.687l-.063.072-.06.074c-1.075 1.333-2.035 2.87-2.844 4.518a7.196 7.196 0 00-1.311-2.151c-1.372-1.555-3.374-2.411-5.636-2.411-1.927 0-3.758.499-7.517 5.033-.954-1.123-2.695-2.431-5.632-2.431-1.939 0-3.801.704-5.797 2.335a6.058 6.058 0 00-.31-.48c-1.031-1.447-2.646-2.388-4.548-2.647l-.337-.046h-.34c-3.734 0-6.493 2.399-6.971 6.01-.766 3.543-2.01 6.4-3.773 8.657.373-4.178.965-9.217 1.775-15.1 8.477-3.404 16.492-6.052 23.86-7.882l.03-.007.03-.008c13.871-3.627 26.865-5.467 38.619-5.467.567 0 1.13.004 1.692.013l1.277.121a6.76 6.76 0 00-2.367 3.836zm24.686 1.478l-.03.104-.026.104-1.496 5.944-.291.307c.178-3.098-.969-5.181-2.031-6.425-1.771-2.072-4.475-3.233-8.046-3.46a8.906 8.906 0 00-.597-.962l7.256.686c.53.075 2.188.289 3.836.289.949 0 2.043-.066 3.125-.362-.643.962-1.227 2.191-1.7 3.775zm20.69 13.022a8.707 8.707 0 01-.101-1.436c0-1.666.839-3.641 2.495-5.885a6.358 6.358 0 003.081 3.162c-2.965 3.087-4.74 3.929-5.475 4.159zm24.652-10.984c-1.322 2.301-2.413 3.928-3.281 5.075.398-1.153 1.303-2.847 3.291-5.11a.46.46 0 00-.01.035z" fill="#0348c1"/><g><g transform="translate(-9.167 -11.156)"><path d="M280.327 99.194c.019-20.816-14.188-40.031-37.756-54.144-23.531-14.089-56.234-22.896-92.324-22.89-36.09-.006-68.791 8.801-92.323 22.89C34.356 59.163 20.15 78.378 20.169 99.194c-.019 20.815 14.188 40.029 37.755 54.143 23.532 14.088 56.232 22.896 92.323 22.891 36.088.006 68.793-8.803 92.324-22.891 23.568-14.114 37.775-33.328 37.756-54.143z" fill="none"/><path d="M248.977 36.134c-26.545-16.153-61.567-24.974-98.729-24.978-37.164.004-72.186 8.825-98.729 24.978C24.452 52.588 9.169 74.981 9.167 99.192c.002 24.21 15.285 46.603 42.352 63.059 26.542 16.151 61.565 24.97 98.729 24.977 37.164-.007 72.182-8.825 98.729-24.977 27.066-16.456 42.348-38.849 42.352-63.059-.005-24.211-15.288-46.604-42.352-63.058zm-98.73 140.094c-36.09.006-68.791-8.803-92.323-22.891-23.568-14.114-37.774-33.328-37.755-54.143-.019-20.816 14.187-40.031 37.755-54.144 23.532-14.089 56.232-22.896 92.323-22.89 36.09-.006 68.793 8.801 92.324 22.89 23.567 14.113 37.774 33.328 37.756 54.144.019 20.815-14.188 40.029-37.756 54.143-23.531 14.088-56.236 22.896-92.324 22.891z" fill="#0348c1"/><ellipse cx="150.247" cy="99.193" rx="135.579" ry="82.536" fill="none" stroke="#06c7ff" stroke-width="4"/></g></g><g><path d="M157.646 36.311a3.76 3.76 0 117.52 0 3.76 3.76 0 01-3.756 3.761 3.762 3.762 0 01-3.764-3.761zM151.831 31.415l.063.008.069.014a4.593 4.593 0 011.985.982c.543.482 1.117 1.176 1.146 2.282.018.783-.426 1.588-.998 2.039-1.302.929-2.367.803-3.539.871-1.555-.004-3.08-.215-3.432-.264l-18.555-1.755a85.281 85.281 0 00-1.897-.016c-12.01-.002-25.199 1.852-39.445 5.579-8.027 1.993-16.675 4.884-26.038 8.731-1.688 11.951-2.537 20.737-2.535 26.219 0 1.394.056 2.569.159 3.509.367 1.502.57 2.763.574 3.88-.006.84-.107 1.625-.502 2.389-.375.768-1.226 1.429-2.097 1.577l-.043.007-.027.006a4.334 4.334 0 01-.657.054c-.972.015-1.94-.425-2.583-1.077-.655-.651-1.067-1.452-1.386-2.399-1.03-3.439-2.807-5.849-5.424-7.519-2.622-1.666-6.199-2.576-10.82-2.576-.364 0-.735.006-1.112.018-2.471 6.469-4.026 11.308-4.71 14.443-.239.935-.56 1.724-1.105 2.397-.516.657-1.408 1.188-2.346 1.188l-.043-.001c-.165 0-.352-.014-.545-.049-.789-.145-1.572-.438-2.208-1.061-.645-.615-.97-1.545-.954-2.364 0-.487.088-.952.227-1.408.557-2.758 1.831-6.814 3.9-12.262a.11.11 0 01-.018.002c-4.189.563-8.378 1.118-12.532 1.747-1.709.259-3.42.486-5.093.756a4.85 4.85 0 01-.797.063 4.724 4.724 0 01-1.018-.112c-.363-.084.534-6.73 1.234-7.21 10.7-6.869 19.819-12.312 27.286-16.234 3.475-6.601 6.745-11.608 9.902-15.081 3.227-3.526 6.417-5.6 9.831-5.628 1.987-.058 3.88 1.071 4.798 2.825.917 1.661 1.265 3.729 1.301 6.298l5.046-1.815c20.993-7.117 40.768-11.359 59.508-11.361 1.075 0 2.146.016 3.21.043 7.389.203 22.185 2.263 22.22 2.265M51.956 71.602c.197-4.84.778-10.979 1.967-18.48a275.001 275.001 0 00-13.215 6.465l-3.412 8.026c5.856.108 10.865 1.365 14.66 3.989zm-27.813-2.825l5.442-.635 1.443-3.347a247.862 247.862 0 00-6.885 3.982zm26.96-26.025c-1.267 1.44-2.684 3.335-4.206 5.642 2.993-1.439 5.775-2.685 8.428-3.728.155-1.305.234-2.389.234-3.237.008-1.077-.15-1.771-.257-1.966l-.002-.003a.325.325 0 00-.033-.002c-.455-.001-2.207.974-4.164 3.294z" fill="#06c7ff"/><path d="M66.388 86.106c-.676-.152-1.387-.521-1.87-1.147-.504-.641-.687-1.424-.683-2.125.002-.696.154-1.368.394-2.073l.562-2.363c-.125.017-.253.03-.385.037a2.778 2.778 0 01-1.368-.35c-1.08-.57-2.184-1.584-2.202-3.131.035-1.37.801-2.29 1.68-3.089 3.384-2.958 5.664-7.125 6.847-12.692.09-.864.441-1.772 1.169-2.408.758-.668 1.717-.889 2.594-.887h.114l.119.017c.731.096 1.53.387 2.124 1.039.597.647.814 1.505.806 2.24 0 .352-.042.695-.113 1.056l-.947 4.575a51.623 51.623 0 012.565-3.476c2.281-2.707 4.109-4.49 6.666-4.611.417-.004.851.039 1.274.147l.346.103a3.496 3.496 0 011.459.948c.81.906 1.02 2.03 1.022 3.133 0 .712-.089 1.468-.241 2.294l-.095.515c2.775-4.017 4.929-6.742 6.543-8.263.878-.737 1.445-1.374 2.841-1.48 1.141-.015 2.373.368 3.191 1.303.814.929 1.08 2.109 1.08 3.31 0 .385-.027.785-.077 1.203l-.009.058L99.79 70.32c.347-.332.645-.621.853-.83.971-.973 3.517-3.718 4.503-4.786.42-3.818 1.993-8.271 4.824-11.807 3.056-3.52 6.455-5.568 10.14-5.571 2.044-.019 3.963.677 5.208 2.161 1.243 1.474 1.724 3.438 1.726 5.683-.017 2.929-1.803 5.487-4.659 7.837-2.825 2.493-5.94 4.244-9.763 4.975.178 2.161.625 3.479.84 3.784 1.106-.031 2.202-.414 3.599-1.357 1.438-.974 3.12-2.554 5.121-4.708 4.294-4.742 7.459-10.532 9.544-17.655-.81-1.256-1.315-2.434-1.338-3.738-.051-1.261.733-2.578 1.824-3.182.578-.417 1.268-.745 2.102-.75 1.328-.008 2.329.928 2.813 1.823.318.557.561 1.175.761 1.877.285-.011.564-.016.838-.016 2.323.009 4.251.365 5.789 1.372 1.562.995 2.438 2.818 2.396 4.677 0 .433-.037.875-.106 1.322l-.008.048-2.074 9.684 8.656-9.111 1.709-6.791.018-.05c.367-1.222.766-2.208 1.336-3.031.539-.793 1.47-1.586 2.715-1.59.225 0 .441.027.646.074.704.078 1.49.411 2.009 1.052.559.683.715 1.486.713 2.198-.004.81-.184 1.612-.477 2.498l-2.236 9.208a98.788 98.788 0 00-1.024 4.119l3.679-3.132v-.527c-.002-4.4 1.826-8.762 5.334-13.054 3.477-4.09 7.137-6.424 11.012-6.443 2.793.106 4.979 1.955 5.707 4.363.313 1.266.328 2.804.338 3.97 0 .77-.021 1.326-.021 1.34l-.002.031-.004.05c-.012.115-.021.229-.034.34 1.133-2.864 3.042-5.58 5.677-8.098 4.896-4.407 10.557-6.766 16.723-6.755 1.062.011 2.027.133 2.945.693.94.543 1.543 1.757 1.492 2.788a3.87 3.87 0 01-.021.441c-.059.866-.426 1.822-1.185 2.444-.751.623-1.659.812-2.493.81-.416 0-.834-.044-1.267-.121l-.047-.011a8.574 8.574 0 00-1.761-.185c-2.797-.002-5.879 1.393-9.215 4.638-3.604 3.843-5.168 7.169-5.142 9.604-.009 1.805.247 3.081.552 3.689.354.61.359.537.682.604l.045.002.045.004c.059.006.109.01.15.008.506.04 1.696-.473 3.217-2.132 1.488-1.595 3.244-4.129 5.185-7.552.921-3.35 1.649-5.481 2.923-6.898.449-.472 1.145-.961 2.125-.968.905.004 1.941.417 2.559 1.224.621.797.805 1.729.808 2.654-.008 1.322-.367 2.779-1.021 4.503-.603 1.617-1.029 2.975-1.32 4.11 2.115-1.865 4.683-5.078 7.646-9.794l1.266-6.167c.16-.891.447-1.715 1.063-2.41.607-.706 1.601-1.102 2.468-1.079.137-.002.271.006.432.023.813.081 1.738.485 2.307 1.251.57.758.729 1.626.729 2.457 0 .554-.068 1.126-.189 1.738l-.021.114-.035.106a50.43 50.43 0 00-.41 1.264 62.838 62.838 0 012.986-3.53c2.32-2.438 3.983-3.968 6.115-4.305.264-.036.524-.054.782-.054a4.1 4.1 0 011.17.143l.224.067c.711.237 1.369.671 1.814 1.299.732 1.011.934 2.186.938 3.468 0 .135 0 .29-.006.456l-.012.218-.061.208c0 .006-.705 2.418-1.483 5.25a189.344 189.344 0 00-1.369 5.217l6.113-5.75.11-.075c.75-.492 1.424-.873 2.414-.904a2.359 2.359 0 011.639.641c.482.469.672 1.068.712 1.541l.006.052.002.054c-.002 0 .003.052.003.154-.042 1.157-.509 1.855-.938 2.554-.449.679-.953 1.27-1.359 1.703a111.857 111.857 0 01-5.07 5.006c-2.029 1.865-3.992 3.579-5.539 4.442-.479.237-.879.479-1.674.51h-.013c-1.378.036-2.647-.872-3.164-1.905-.562-1.028-.71-2.131-.718-3.257 0-.866.107-1.749.291-2.613.32-1.501.912-4.341 1.468-7.026-3.253 4.018-6.367 8.651-9.39 13.921l-.039.066-.051.075c-.617.939-1.762 1.773-3.045 1.744a3.801 3.801 0 01-.974-.125c-.717-.107-1.479-.513-1.935-1.149a3.234 3.234 0 01-.568-1.359c-2.256 2.186-4.438 3.552-6.688 4.051-.494.1-.976.16-1.453.16-1.039.018-2.151-.331-2.936-1.097-2.326 2.634-5.09 4.131-8.154 4.126-1.934.01-3.748-.552-5.119-1.768a7.383 7.383 0 01-1.598-2.032c-4.408 4.472-8.688 6.971-13.061 7.007-3.209.07-5.977-1.273-7.684-3.653-1.613 1.501-2.998 2.695-4.193 3.595-1.633 1.168-2.727 1.953-4.318 2.036-1.334.011-2.689-.385-3.633-1.393-.789-.843-1.15-1.923-1.245-3.063-1.438 1.618-2.747 2.968-3.938 4.058-2.246 1.984-3.928 3.248-6.043 3.337a5.182 5.182 0 01-1.382-.176l-.673-.236a4.273 4.273 0 01-1.315-.893c-.872-.864-1.303-2.08-1.297-3.304 0-.241.015-.483.046-.729l.01-.073 3.269-15.56c-.271-.082-.761-.166-1.421-.197-1.539 4.822-4.034 10.121-7.95 15.526-1.93 2.633-6.234 6.666-8.687 8.628-1.78 1.416-4.721 3.128-8.68 3.128-1.967.019-3.922-.76-5.254-2.342-.697-.816-1.227-1.799-1.601-2.937l-5.439 5.628-.038.033c-1.549 1.37-2.975 2.292-4.715 2.329-.313 0-.631-.037-.943-.114l-.052-.015-.023-.006c-1.007-.295-1.94-.841-2.581-1.69-.647-.843-.916-1.894-.912-2.92 0-.645.096-1.299.258-1.955l1.459-6.229c-3.175 4.48-5.826 8.579-7.89 12.426l-.031.06-.033.05c-.441.689-.824 1.274-1.393 1.813-.545.541-1.461.974-2.34.949a4.42 4.42 0 01-1.093-.148c-.748-.179-1.474-.714-1.853-1.38-.387-.664-.494-1.353-.498-2.009.002-.666.115-1.325.299-2.011l1.694-8.162c-2.602 3.626-5.43 8.115-8.448 13.533-.522.933-1.062 1.701-1.72 2.317-.645.602-1.505 1.104-2.543 1.105h-.019a2.924 2.924 0 01-.848-.11zm49.193-29.555l-.046.054-.025.027c-1.37 1.483-2.232 3.07-2.704 4.894 1.717-.489 3.149-1.37 4.852-2.693 1.676-1.355 2.59-2.309 2.644-4.186v-.1c0-.414-.05-.702-.1-.862a1.362 1.362 0 00-.046-.129l-.043-.001h-.045c-1.124-.002-2.69.803-4.487 2.996zm57.833-9.73c-2.851 3.46-4.099 6.468-4.091 9.045-.008 1.996.382 3.27.837 3.88.46.585.914.855 2.116.891 2.214.124 6.393-2.611 11.324-8.789a17.28 17.28 0 01.365-2.525c-.543.815-1.678 1.352-2.568 1.292l-.152-.002c-.896-.029-1.848-.302-2.557-1.008-.715-.704-.979-1.676-.974-2.523 0-.21.017-.416.04-.625l.002-.022.01-.05c.24-1.436.385-2.561.383-3.243 0-.128-.006-.24-.015-.334-.839.164-2.656 1.305-4.72 4.013zm-49.879 7.881l-.001-.024h-1.481zM79.268 144.296c-1.183-.574-2.118-1.671-2.435-2.94l-.027-.1-.015-.107a4.712 4.712 0 01-.05-.707c-.008-.718.185-1.6.857-2.265.677-.662 1.547-.843 2.261-.839v1.75l-.2 1.107.2-1.107v-1.75h.153l2.762.497c.194.022.387.034.578.032 1.429-.004 3.185-.602 5.168-2.539 2.269-2.226 6.69-7.299 8.593-9.852 3.733-4.986 6.299-10.886 8.514-17.113 2.978-8.455 4.419-14.352 4.392-16.953.003-.403-.059-.653-.095-.754a.935.935 0 00-.133-.008c-.7-.045-2.108.631-3.843 2.704-1.714 2.021-3.685 5.218-5.817 9.528l-2.853 8.248c-.281 1.773-.693 3.203-1.424 4.371-.71 1.195-2.077 2.127-3.547 2.091a4.85 4.85 0 01-1.259-.174l-.145-.039-.13-.063c-.729-.336-1.164-.994-1.353-1.545-.201-.568-.252-1.113-.254-1.707.002-.927.149-1.979.41-3.191.485-2.631 1.762-6.069 3.783-10.346 2.47-5.041 5.236-9.17 8.481-12.245 3.021-2.665 5.717-4.259 8.593-4.29 1.861-.029 3.671.702 4.758 2.166 1.089 1.45 1.476 3.302 1.48 5.464v.17l-2.937 14.908-.035.105c-2.76 8.498-6.021 15.743-9.875 21.745-7.027 10.647-13.56 16.451-20.385 16.562-1.61 0-2.989-.22-4.171-.814zm.281-3.485l.009-.049zm.034-.186l.051-.281zm30.319-50.017c.001 0 .001 0 0 0 .001 0 .001 0 0 0zM144.476 141.321c-.836-1.397-1.319-2.99-1.479-4.713-5.265 3.95-9.031 6.479-11.552 7.693-1.017.468-1.797.791-2.781.813-1.663.054-3.353-.83-4.188-2.295-.405-.678-.68-1.425-.859-2.25-3.34 2.871-6.25 4.482-9.171 4.545-2.76.031-5.251-1.039-6.773-3.142-1.524-2.081-2.133-4.868-2.139-8.28-.021-5.871 2.396-11.195 7.057-15.426 4.393-4.257 9.852-6.527 16.162-6.777 3.04-8.559 6.034-15.429 9-20.773 1.456-2.386 2.756-4.214 3.978-5.527 1.234-1.273 2.344-2.243 4.039-2.313 1.313-.05 2.51.949 2.93 1.979.482 1.044.631 2.209.639 3.617-.025 4.682-2.081 11.717-6.009 21.559-3.863 9.524-8.204 17.485-12.961 23.832l-.22 2.635a6.58 6.58 0 00.066.992l13.817-9.195.738-2.221.027-.065c1.866-4.412 4.645-8.199 8.12-11.444 3.493-2.986 7.019-4.688 10.599-4.695 3.127-.049 5.898 1.404 7.389 4.02 1.061 1.805 1.558 3.939 1.556 6.266 0 .655-.039 1.33-.114 2.021 5.491-3.647 9.18-7.116 10.971-10.144l8.918-23.252c.563-1.639 1.121-2.92 1.781-3.92.651-.953 1.496-1.921 3.014-1.978.828-.017 1.837.263 2.512 1.033.669.762.845 1.684.845 2.533v.254s-2.575 8.773-3.61 11.68c-1.452 4.079-3.022 7.625-6.465 16.182-2.951 7.335-6.182 15.561-7.927 20.607 1.015-.73 2.173-1.567 3.325-2.399 3.164-2.289 6.279-4.55 6.29-4.556 1.375-.944 2.354-1.59 3.765-1.653a2.568 2.568 0 011.604.541c.47.374.736.886.863 1.334.084.279.137.584.137.908-.143 2.104-1.506 3.256-3.416 4.825l-.025.019-7.376 5.188c-2.438 1.813-4.454 3.191-6.089 4.148-1.676.938-2.799 1.538-4.203 1.596-1.029.006-2.139-.26-2.953-1.086-.808-.828-1.046-1.916-1.041-2.908.03-1.566.639-3.379 1.662-6.02l3.768-9.938-8.84 6.018c-1.912 4.09-4.504 7.006-7.662 9.723-3.34 2.843-6.797 4.429-10.377 4.427h-.137c-3.011-.009-5.633-1.481-7.205-4.018zm5.509-6.17c0 1.146.229 1.959.549 2.484.419.518.435.551 1.29.611.127.004.209.008.249.006 1.482.017 3.523-.887 5.964-3.381 2.542-2.387 4.713-5.18 5.853-8.487.527-1.499 1.385-5.09 1.514-6.576.014-.174.021-.329.021-.464-.01-.941-.271-1.445-.604-1.876-.568-.628-.635-.688-1.307-.737v.002c-1.484-.031-3.629 1.019-6.193 3.551-2.549 2.552-4.453 5.44-5.928 8.685-.964 2.529-1.414 4.632-1.408 6.182zm-32.692-12.153c-3.356 3.43-4.883 6.779-4.893 10.479-.008 1.973.369 3.266.816 3.887.458.601.857.849 1.976.885.265.051 1.509-.396 3.118-1.705 1.549-1.227 3.492-3.119 5.761-5.659.479-2.995 1.442-7.274 2.957-12.897-3.636.435-6.791 2.049-9.735 5.01zm17.441-8.55c3.062-6.049 5.177-11.547 6.355-16.465-2.324 4.6-4.447 10.091-6.355 16.465z" fill="#06c7ff"/></g><g><circle cx="170.574" cy="47.468" r="2.01" fill="#fff" transform="translate(-9.167 -11.156)"/><path d="M151.593 33.149s-14.843-2.056-22.022-2.245c-19.396-.512-40.036 3.742-62.111 11.225l-7.43 2.673c.428-6.576-.962-9.889-4.276-9.889-5.238 0-11.385 6.734-18.44 20.258-7.483 3.901-16.729 9.407-27.634 16.409-.816.524-1.815 1.035-2.394 1.843-1.205 1.685.281 2.454 1.755 2.216 1.698-.274 3.416-.503 5.103-.758 4.177-.632 8.375-1.188 12.563-1.75.989-.132 1.977-.287 2.963-.427-2.726 6.896-4.33 11.866-4.917 14.861-.481 1.496.053 2.404 1.55 2.671.855.158 1.604-.533 2.031-2.246.749-3.421 2.459-8.659 5.185-15.714 11.065-.642 17.853 3.153 20.258 11.278.535 1.603 1.444 2.405 2.673 2.191 1.337-.268 1.55-2.191.642-5.826-.588-5.131.267-15.554 2.512-31.269 9.782-4.063 18.815-7.109 27.207-9.193 15.126-3.956 29.13-5.827 41.852-5.613l18.656 1.763s4.578.697 5.664-.212c.965-.809-.162-1.978-1.39-2.246zM30.792 69.763l-14.251 1.664c5.613-3.582 11.364-7.009 18.099-10.59zm25.124-31.961c1.497.481 1.708 3.043 1.014 8.122-4.383 1.658-9.163 3.921-14.722 6.753 5.958-10.291 10.958-15.708 13.708-14.875zM39.344 58.325c5.719-2.994 11.332-5.719 16.837-8.125-1.924 11.119-2.557 19.467-2.557 25.186-3.902-4.383-10.432-6.317-18.984-5.996z" fill="#fff"/><path d="M206.97 37.157c1.762.321 2.777-.16 2.887-1.55.16-1.389-.75-2.03-2.674-2.03-5.721 0-10.904 2.138-15.555 6.307-4.063 3.902-6.146 8.125-6.309 12.615-5.237 6.575-9.62 9.889-13.043 9.889-3.152 0-4.702-2.138-4.702-6.521 0-3.153 1.497-6.521 4.489-10.156 2.672-3.421 5.006-4.905 6.771-4.637 1.333.292 1.248 2.125.66 5.599-.16 1.336.426 2.14 1.817 2.191 1.146.042 1.604-.749 1.764-2.672 0 0 .134-3.289-.262-4.806-.396-1.521-2.196-3.052-4.016-3.052-3.102 0-6.361 1.924-9.676 5.826-3.313 4.063-4.917 8.017-4.917 11.92v1.336l-7.911 6.735c-.104-.695.43-3.742 1.816-8.979l2.246-9.248c.746-2.191.48-3.42-.854-3.527-1.069-.32-1.979.802-2.728 3.314l-1.816 7.216-13.254 13.951 3.366-15.715c.642-4.062-2.244-5.826-8.55-5.238-.642-3.42-1.765-4.543-3.368-3.314-1.497.855-1.337 2.619.481 5.132-2.138 7.697-5.506 14.004-10.156 19.135-4.113 4.425-6.991 6.644-10.145 6.644-1.497 0-2.37-2.221-2.531-7.031 4.223-.481 7.383-2.125 10.43-4.797 2.727-2.246 4.062-4.383 4.062-6.521 0-4.01-1.763-6.094-5.185-6.094-2.994 0-5.933 1.657-8.82 4.971-2.673 3.314-4.189 7.828-4.457 11.41 0 0-3.674 3.988-4.95 5.268-1.176 1.18-4.841 4.576-4.841 4.576l3.023-15.587c.321-2.566-.534-3.849-2.458-3.849-1.497 0-5.815 5.395-12.649 16.103l1.637-8.94c.588-3.153 0-4.56-2.137-4.56-2.833 0-7 5.333-12.958 15.708l2.962-14.302c.267-1.336-.16-2.084-1.336-2.245-1.229 0-1.924.588-2.031 1.816-1.23 5.881-3.688 10.477-7.43 13.738-1.497 1.336-1.443 2.459.214 3.368.748.427 1.923-.16 3.581-1.817l-1.55 6.521c-.642 1.817-.321 2.886.909 3.153 1.016.32 2.084-.535 3.154-2.459 4.917-8.819 9.345-15.234 13.194-19.564l-3.206 15.456c-.482 1.763-.289 3.012.792 3.292 1.321.343 1.891-.254 2.906-1.857 3.154-5.881 7.588-12.237 13.094-19.56l-3.419 14.588c-.588 2.406.053 3.902 2.031 4.49 1.069.268 2.405-.32 4.063-1.817l7.753-8.021c.321 4.972 2.627 7.188 5.75 7.188 3.439 0 5.992-1.479 7.594-2.75 2.305-1.828 6.656-5.938 8.355-8.283 4.139-5.714 6.628-11.278 8.071-16.249 3.314-.106 4.81.535 4.49 2.032l-3.313 15.768c-.243 1.967.909 3.368 2.886 3.368 2.298 0 6.468-3.848 12.613-11.492l-.907 5.185c0 2.245 1.07 3.368 3.154 3.368 1.39 0 4.33-2.245 8.979-6.735 1.229 3.154 3.637 4.757 7.217 4.757 4.168 0 8.766-2.886 13.736-8.551.75 3.581 2.778 5.345 6.041 5.345 3.152 0 6.039-1.924 8.551-5.826.162 2.245 1.338 3.154 3.637 2.672 2.833-.587 6.146-3.313 9.888-8.285l-1.122 4.705c-.16 1.175.213 1.924 1.122 2.031.908.267 1.604 0 2.245-.909 4.383-7.644 8.979-14.004 13.951-19.136 0 0-2.076 10.095-2.801 13.478-.584 2.729-.229 5.646 1.891 5.658 1.609.009 8.533-6.768 11.011-9.407.726-.772 1.903-2.248 1.818-3.154-.073-.785-.854-.802-2.031 0l-8.071 7.589-1.175.962c-.268-.16-.425-.869-.214-2.085.576-3.321 3.42-13.042 3.42-13.042.107-2.672-.854-3.848-2.938-3.581-2.406.267-6.735 5.025-13.099 14.165.644-3.421 1.443-6.734 2.513-9.888.429-2.139 0-3.208-1.336-3.368-1.068-.107-1.766.534-2.03 2.031l-1.337 6.521c-4.65 7.376-8.275 11.433-11.588 12.608 0-1.763.524-4.286 1.969-8.188 1.496-3.903 1.094-5.969-.75-6.025-1.068 0-2.191 2.299-3.368 6.789-4.222 7.484-7.644 11.064-10.368 10.744-1.924-.107-2.886-2.138-2.886-6.04 0-3.153 1.868-6.788 5.61-10.797 4.327-4.225 8.55-5.829 12.614-4.975zm-84.918 17.52c-.045 2.626-1.563 4.156-3.313 5.531-2.497 1.962-4.801 3.202-8.063 3.469.267-3.154 1.362-5.886 3.553-8.238 1.978-2.405 3.955-3.635 5.879-3.635 1.194-.002 1.978.842 1.944 2.873zM79.861 139.089c-1.069 0-1.497.589-1.336 1.817.427 1.604 2.031 2.459 4.917 2.459 5.666 0 12.026-5.238 18.922-15.77 3.741-5.826 6.948-12.938 9.674-21.328l2.886-14.646c0-3.899-1.497-5.878-4.49-5.878-2.138 0-4.543 1.283-7.43 3.849-2.993 2.833-5.666 6.788-8.071 11.705-1.977 4.17-3.207 7.538-3.634 9.889-.588 2.729-.481 4.225.214 4.547 2.138.586 3.475-1.072 4.062-5.025l2.94-8.5c4.383-8.872 8.125-13.31 11.278-13.31 1.336 0 1.977.855 1.977 2.513 0 3.101-1.497 8.979-4.489 17.531-2.245 6.309-4.868 12.375-8.766 17.586-1.997 2.67-6.389 7.711-8.766 10.049-2.543 2.502-5.078 3.263-7.216 2.994zM198.63 86.44c0-1.229-.535-1.816-1.604-1.816-1.017 0-2.084 1.603-3.153 4.756l-8.979 23.412c-2.393 4.093-7.477 8.468-15.09 13.041 1.336-4.546 1.192-8.339-.41-11.063-1.229-2.085-3.207-3.154-5.881-3.154-2.992 0-6.146 1.444-9.459 4.277-3.262 3.047-5.881 6.627-7.646 10.797l-.908 2.728-15.501 10.313c-1.069 0-1.603-1.121-1.603-3.313l.267-3.206c4.758-6.253 9.141-14.22 13.042-23.841 3.901-9.729 5.88-16.729 5.88-20.898 0-2.511-.643-3.847-1.818-3.847-1.494 0-3.688 2.35-6.521 7.001-2.994 5.396-6.093 12.563-9.248 21.594-6.467 0-11.813 2.085-16.195 6.311-4.383 4.006-6.521 8.766-6.521 14.164 0 6.414 2.405 9.674 7.162 9.674 2.727 0 6.254-2.191 10.637-6.521v.643c0 3.955 1.175 5.879 3.581 5.879 1.816 0 7.163-3.42 16.196-10.371-.428 2.994-.053 5.453 1.121 7.433 1.338 2.085 3.262 3.154 5.826 3.154 3.047 0 6.094-1.336 9.246-4.011 3.154-2.727 5.588-5.5 7.405-9.562l13.833-9.417-5.737 15.13c-1.015 2.563-1.549 4.384-1.549 5.397 0 1.498.692 2.244 2.245 2.244 1.336 0 4.436-1.816 9.246-5.397l7.376-5.187c2.139-1.655 2.994-2.885 2.673-3.849-.27-1.015-1.441-.802-3.525.695 0 0-12.496 9.062-12.83 9.248-.31.175-.612-.747-.211-2.032 2.896-9.292 11.664-29.347 15.168-39.188 1.006-2.826 3.485-11.218 3.485-11.218zm-69.54 29.668h.266c-1.977 7.106-3.153 12.293-3.635 15.553-4.917 5.562-8.445 8.341-10.529 8.341-3.046 0-4.543-2.192-4.543-6.522 0-4.222 1.817-8.068 5.397-11.703 3.743-3.801 8.073-5.669 13.044-5.669zm34.423-1.125c1.229 0 1.994.547 2.672 1.391.633.789 1.117 1.931.963 3.58-.168 1.789-1.019 5.309-1.604 7.006-1.268 3.669-3.635 6.682-6.309 9.191-2.672 2.729-5.185 3.955-7.43 3.851-1.229 0-2.084-.431-2.728-1.392-1.335-2.191-1.067-5.666.696-10.314 1.55-3.424 3.58-6.521 6.308-9.247 2.729-2.676 5.186-4.066 7.432-4.066zm-33.728 11.707c3.635-16.464 8.338-28.757 14.165-36.882-.16 9.782-4.918 22.075-14.165 36.882z" fill="#fff"/></g><g fill="#06c7ff"><path d="M201.729 138.877h.961v-.695h-2.727v.695h.854v2.885h.91v-2.885zM203.763 139.304h.269l.905 2.458h.43l.908-2.458v2.458h.695v-3.58h-1.125l-.748 2.458-.854-2.458h-1.123v3.58h.643z"/></g></svg>