<svg xmlns="http://www.w3.org/2000/svg" viewBox="0 0 187.09065 50.73956"><path d="M10.57379,80.4433a2.03223,2.03223,0,0,1,1.00006,1.82611L9.35632,82.052a7.339,7.339,0,0,0-5.08676,1.52161,3.87328,3.87328,0,0,0-1.43492,3.08694,4.01062,4.01062,0,0,0,.78267,2.56534A3.78122,3.78122,0,0,0,6.00859,90.7912l2.26091.30414,1.30423-.087,2.00012-2.43469v2.17389h5.08679V81.61716c0-2.56507-1.30423-4.13034-4-4.78263l-2.43467-.2174L6.3564,77.052,4.05211,81.09528a10.55744,10.55744,0,0,1,4.43481-1.1738,3.61282,3.61282,0,0,1,2.08686.52185Zm1.00006,4.65222v2.5217l-1.6523.30414c-1.30423,0-1.95646-.43454-1.95646-1.39121,0-.78268.43481-1.21747,1.39123-1.43463l1.00006-.174Z" transform="translate(-2.83061 -71.008)" fill="#195087" fill-rule="evenodd"/><path d="M32.44339,76.87787V90.7475H27.18254V87.26941L24.70422,90.7475l-2.30429.34784a4.33173,4.33173,0,0,1-3.21759-1.17383,4.57594,4.57594,0,0,1-1.30423-3.6088V76.87787H23.1823V84.4433a4.23114,4.23114,0,0,0,.3481,1.95645,1.73744,1.73744,0,0,0,1.478.69562,4.152,4.152,0,0,0,2.17417-.78266V76.87787Z" transform="translate(-2.83061 -71.008)" fill="#195087" fill-rule="evenodd"/><path d="M34.052,80.74747l1.86945-3.8696h.39146V74.57358l5.26082-1.652v3.95626h3.26068v3.8696H41.57373v3.6088a3.88521,3.88521,0,0,0,.39119,1.95645A2.14141,2.14141,0,0,0,43.965,87.31276l1.9131-.2608-2.60872,3.73922-2.47833.30414a4.02809,4.02809,0,0,1-4.47818-4.47815V80.74745Z" transform="translate(-2.83061 -71.008)" fill="#195087" fill-rule="evenodd"/><path d="M54.18227,76.6171a8.215,8.215,0,0,0-5.8694,2.08688,7.05039,7.05039,0,0,0-2.08689,5.1304,6.958,6.958,0,0,0,2.52172,5.65231,8.29146,8.29146,0,0,0,5.3042,1.60865c2.91316,0,5-.86939,6.39125-2.52173a7.60143,7.60143,0,0,0,1.5653-4.86963,6.47635,6.47635,0,0,0-2.21728-5.21716A8.23543,8.23543,0,0,0,54.18227,76.6171ZM54.1389,87.48682c-1.52162,0-2.26089-1.26114-2.26089-3.65244,0-2.5217.73927-3.73889,2.26089-3.73889s2.21724,1.21719,2.21724,3.69553C56.35614,86.22568,55.66055,87.48682,54.1389,87.48682Z" transform="translate(-2.83061 -71.008)" fill="#195087" fill-rule="evenodd"/><path d="M68.92157,71.00848H63.48672V89.4433a18.094,18.094,0,0,0,6.99985,1.652c3.348,0,5.73932-1.21747,7.13059-3.60852a8.78744,8.78744,0,0,0,1-4.13065,7.69164,7.69164,0,0,0-1.43488-4.65219,5.46284,5.46284,0,0,0-4.56518-2.08688l-1.47829.13037-2.21729,3.348v-9.087Zm1.652,9.30442a2.06763,2.06763,0,0,1,1.86975,1.08679,3.82375,3.82375,0,0,1,.60859,2.21759,5.11445,5.11445,0,0,1-.52186,2.478,2.35012,2.35012,0,0,1-2.08685,1.17413,2.53313,2.53313,0,0,1-1.52167-.43482V80.87811a3.27216,3.27216,0,0,1,1.652-.56521Z" transform="translate(-2.83061 -71.008)" fill="#195087" fill-rule="evenodd"/><path d="M94.26926,76.87787l-5,13.261a12.67635,12.67635,0,0,1-2.60874,4.43481,8.93362,8.93362,0,0,1-5.95648,1.739l-2.5217-.30441L79.617,92.39981l.95664.13037a2.36872,2.36872,0,0,0,1.6087-.47821,2.63884,2.63884,0,0,0,1.00006-1.39151L78.05194,76.87784h5.652l2.60877,9.087,2.5217-9.087Z" transform="translate(-2.83061 -71.008)" fill="#195087" fill-rule="evenodd"/><path d="M100.48676,80.74747v3.60879a3.88551,3.88551,0,0,0,.39117,1.95645,2.14142,2.14142,0,0,0,2.00012,1.00006l1.91287-.2608-2.60873,3.73923-2.39133.30414a4.63648,4.63648,0,0,1-3.34771-1.08683,4.54041,4.54041,0,0,1-1.2175-3.39132V80.74747H93.05179l1.78271-3.8696h.39115V74.57358l5.26111-1.652v3.95626h3.26071v3.8696Z" transform="translate(-2.83061 -71.008)" fill="#195087" fill-rule="evenodd"/><path d="M106.66064,78.791a7.29227,7.29227,0,0,0-1.86972,5.1304,6.68828,6.68828,0,0,0,1.30451,4.13037,7.15981,7.15981,0,0,0,3.60849,2.60874l3.56543.43484,4.1737-.43484,2.348-4.04331a12.7501,12.7501,0,0,1-4.78266,1,4.86054,4.86054,0,0,1-3.78253-1.3045l-.73929-1.39124h9.73929a9.48793,9.48793,0,0,0-1.73932-6.08682c-1.30426-1.522-3.34775-2.21756-6.04346-2.21756a7.44655,7.44655,0,0,0-5.7824,2.17389Zm7.5217,1.3045a2.70965,2.70965,0,0,1,.95642,2.17392h-4.78262a3.34392,3.34392,0,0,1,.78268-1.95651,2.16284,2.16284,0,0,1,1.60865-.65222A2.4261,2.4261,0,0,1,114.18234,80.0955Z" transform="translate(-2.83061 -71.008)" fill="#195087" fill-rule="evenodd"/><polygon points="118.829 0 124.351 0 124.351 19.739 118.829 19.739 118.829 0 118.829 0" fill="#195087" fill-rule="evenodd"/><path d="M131.22565,91.0083a2.8207,2.8207,0,0,1-2.82614-2.73913,2.42592,2.42592,0,0,1,.73931-1.86942,2.71778,2.71778,0,0,1,1.99982-.826,2.81768,2.81768,0,0,1,2.04349.826,2.36552,2.36552,0,0,1,.73932,1.86942,2.62086,2.62086,0,0,1-.73932,1.95678A2.6546,2.6546,0,0,1,131.22565,91.0083Z" transform="translate(-2.83061 -71.008)" fill="#ed2129" fill-rule="evenodd"/><path d="M142.617,76.53006a10.21222,10.21222,0,0,1,4.26072.86969V81.7475a4.30973,4.30973,0,0,0-3.17368-1.4346,3.24664,3.24664,0,0,0-2.4783.913,3.84561,3.84561,0,0,0,0,5.1738,3.93833,3.93833,0,0,0,3.04358,1.13043l3.17361-.69559-1.99978,3.8259-3.261.43485a7.20314,7.20314,0,0,1-7.55679-6.8312q-.012-.23636-.0083-.47313a6.76826,6.76826,0,0,1,2.13049-5A7.416,7.416,0,0,1,142.617,76.53Z" transform="translate(-2.83061 -71.008)" fill="#195087" fill-rule="evenodd"/><path d="M150.44315,78.704a6.91958,6.91958,0,0,0-2.1305,5.13041,6.78107,6.78107,0,0,0,2.60871,5.65231,8.29128,8.29128,0,0,0,5.30416,1.60864c2.82618,0,5.00007-.86938,6.39161-2.52173a7.60281,7.60281,0,0,0,1.565-4.86963,6.47629,6.47629,0,0,0-2.21729-5.21716,8.55482,8.55482,0,0,0-5.60861-1.86972A8.11127,8.11127,0,0,0,150.44315,78.704Zm5.86941,8.78284c-1.52161,0-2.26092-1.26114-2.26092-3.65243,0-2.5217.73931-3.7389,2.26092-3.7389,1.43491,0,2.17389,1.2172,2.17389,3.69553C158.48645,86.22569,157.74744,87.48683,156.31256,87.48683Z" transform="translate(-2.83061 -71.008)" fill="#195087" fill-rule="evenodd"/><path d="M173.09509,76.9649l2.69574-.43484a4.80493,4.80493,0,0,1,3.13062.95673,4.18966,4.18966,0,0,1,1.34756,2.6521l2.34793-3.174,2.73914-.43485a4.14693,4.14693,0,0,1,3.39136,1.30454l.826,1.3042.21746,1.95647V90.7475H184.269V83.1824l-.34781-1.86972a1.79023,1.79023,0,0,0-1.739-.86938,2.91769,2.91769,0,0,0-1.91312.65195V90.7475h-5.47824V83.13879c0-1.7391-.65194-2.60849-2.04349-2.60849a4.19563,4.19563,0,0,0-1.95645.565v9.65225h-5.4346V76.87787h5.4346v3.261l2.30426-3.174Z" transform="translate(-2.83061 -71.008)" fill="#195087" fill-rule="evenodd"/><path d="M132.39951,118.83435l5.78268-.56528,2.73911-2.9562,2.60873,2.39129-5.34784.56491-.08707.08707,1.73938-.17377,33.78244-3.52179c3.34772-.52185,5.52161-1.04339,6.43467-1.69568.65225-.43484.95669-.913.73928-1.5653-.13043-.65192-.65225-1.17383-1.60867-1.69565a37.55936,37.55936,0,0,0-8.04358-2.30429l-6.08685-.95639,2.04349.30411,3.78253.52188.13043.04336.087-.04336-.43482-.087-3.13031-.52157-7.261-.91306h-.21743l6.26089.69565,2.95654.43481,2.08686.39118a33.19815,33.19815,0,0,1,8.47845,2.30429l.86939.56524a2.35034,2.35034,0,0,1,.95666,1.17377,1.15727,1.15727,0,0,1-.43481,1.43491,1.22625,1.22625,0,0,0,.30414-1.56528,3.47107,3.47107,0,0,0-1.82605-1.52161l-.95643-.43484-.43484-.17377,1.3045.60861a3.12192,3.12192,0,0,1,1.82612,1.739c.21737.65228-.087,1.2175-.73929,1.73938l-1.34787.65194-5.39121,1.08707-23.95645,2.6521h-.43484l-3.13031.39117-1.30448.04371-7.47809.826.43451-.43481-5.78238.56522.08677-.087Z" transform="translate(-2.83061 -71.008)" fill="#ed2129" fill-rule="evenodd"/><path d="M133.92145,119.22577l-10.73911,1.21753h.3042l2.95651-.34781,1.30448-.1741-2.82608.43487,12.60849-1.3479,9-.826,15.2175-1.52194-.52185.087h-.652l-8.261.78262-1.73907.21744-.86966.087h-.34781l.43484-.087,3.6955-.34784-15.82581,1.43466.21741.087-3.95657.30441Zm29.78247-2.78275,4.04364-.65194,6.60837-.65229,1.08712-.1304a17.07343,17.07343,0,0,0,6.0001-1.82608,1.66338,1.66338,0,0,0,.86938-1.56528,2.45549,2.45549,0,0,0-.99979-1.47824h.04337l.65222.65223a1.52994,1.52994,0,0,1,0,2.04348l-.47848.43488a14.41862,14.41862,0,0,1-5.21714,1.60861l-.86966.1304-1.04345.1304-9.13037,1.08707Z" transform="translate(-2.83061 -71.008)" fill="#ed2129" fill-rule="evenodd"/><path d="M126.31265,120.22586l-1.1738.1304h-.087l1.26083-.1304Zm21.52179-2.17389,2.08686-.21741-.30414.0867Z" transform="translate(-2.83061 -71.008)" fill="#ed2129" fill-rule="evenodd"/><path d="M170.48663,107.18225h.08676l.65223.087h.08706a40.25777,40.25777,0,0,1,8.39112,2.39132,4.56924,4.56924,0,0,1,1.65231,1.13044l-.86969-.78266-.913-.52185-.08677-.04336-2.6087-.95639-4.69586-1.0871-2.17389-.34781h-.17377l.65222.1304Z" transform="translate(-2.83061 -71.008)" fill="#ed2129" fill-rule="evenodd"/><path d="M128.96475,116.443l7.6958-.56494,29.13022-3.261,3.82623-.52186,2.91285-.56524.087-.1304-.17373-.21741a18.75966,18.75966,0,0,0-4.60886-1.17383L152.53,108.05188l-1.43494-.087,4.78263.52189,3.08694.3041,1.52194.21744.39115.04367-7.39133-.78265.13071.087,13.99969,1.78244,3.69586.86966.69562.21741v.17374h0l-.21741.0437-1.3479.30414-4.087.56524-7.65213.9567-10.39124,1.21719-10.3479,1.08707-9,.86938Zm18.04367-8.73895-.34781-.087h-.087Z" transform="translate(-2.83061 -71.008)" fill="#ed2129" fill-rule="evenodd"/><polygon points="132.656 47.479 149.482 45.87 145.916 43.566 142.004 44.131 138.047 44.566 122.743 46.261 120.917 48.783 126.003 48.218 132.656 47.479 132.656 47.479" fill="#ed2129" fill-rule="evenodd"/><path d="M159.70392,116.53006l13.56521-1.6087.65229-.04337c3.391-.52182,5.652-1.1741,6.565-1.826.65228-.52188.95673-1.00006.73929-1.65234a3.20219,3.20219,0,0,0-1.73908-1.739,28.84364,28.84364,0,0,0-6.3045-1.91311l-.43485-.0434-.30413-.087,4.087,1.00006,2.73914,1.08682-3.04361-1.08682.78268.30447,2.04349.86935c1.08682.52186,1.73907,1.1738,1.82608,1.86973a1.54358,1.54358,0,0,1-.86966,1.30422c-.95642.65229-3.04358,1.17383-6.3913,1.69568l-1.5216.21741-.1304.04337-.9567.087-11.73914,1.30423-15.95648,1.60864-19.13049,2.3046,12.8262-1.39151,7.78256-.86938,14.913-1.43491Zm-35.52179,3.6958h.17407l1.08679-.21741-2.39129.30411-.21717.0437Z" transform="translate(-2.83061 -71.008)" fill="#ed2129" fill-rule="evenodd"/><polygon points="178.612 40.305 178.525 40.305 178.612 40.653 178.699 40.826 178.612 40.305 178.612 40.305" fill="#ed2129" fill-rule="evenodd"/><polygon points="123.829 30 127.003 31.261 127.221 31.261 127.177 31.261 126.743 31.087 126.569 31.044 123.917 30 123.829 30 123.829 29.957 123.742 29.957 123.742 30 123.829 30 123.829 30" fill="#ed2129" fill-rule="evenodd"/><polygon points="169.83 40.522 169.699 40.609 169.916 40.609 169.916 40.522 169.83 40.522 169.83 40.522" fill="#ed2129" fill-rule="evenodd"/><path d="M169.617,112.09525l1.3042-.21741h.21744Zm-2.60876.39144-1.21747.21741.43485-.087Z" transform="translate(-2.83061 -71.008)" fill="#ed2129" fill-rule="evenodd"/><polygon points="124.177 45.609 124.047 45.609 123.917 45.652 124.134 45.652 124.351 45.609 125.351 45.826 127.09 45.652 127.177 45.652 138.482 44.522 137.83 44.566 130.134 45.305 127.438 45.392 124.83 45.522 124.177 45.609 124.177 45.609" fill="#ed2129" fill-rule="evenodd"/><polygon points="136.873 35.826 128.047 34.348 127.873 34.348 128.264 34.435 130.264 34.87 135.047 35.609 136.873 35.826 136.873 35.826" fill="#ed2129" fill-rule="evenodd"/><path d="M122.53012,103.35629l-2.5217-1.1741h-.087l-.08707-.0867H119.791l.2174.17374.47821.21743a54.72527,54.72527,0,0,0,6.08679,2.17389l1.69571.43482h.43485l-2.348-.60858-3.8259-1.1305Z" transform="translate(-2.83061 -71.008)" fill="#ed2129" fill-rule="evenodd"/><polygon points="139.351 36.261 139.569 36.261 139.395 36.261 128.612 34.653 133.395 35.435 137.525 36.044 139.351 36.261 139.351 36.261" fill="#ed2129" fill-rule="evenodd"/><path d="M135.13892,115.87808l-.73929.30417h.087l.78269-.21744.826-.30413h.34781l2.08685-.30448-2.5217.21744-.86938.30444Zm-.73929.30417h-.13037l-.52188-.17377-.34784-.1304h.52191Zm4.13037-.826,2.60873-.26077,4.7392-.65228-1.39151.26083-1.3042.30441-2.47833.21741Z" transform="translate(-2.83061 -71.008)" fill="#ed2129" fill-rule="evenodd"/><polygon points="145.134 43.131 143.525 43.261 142.743 43.566 141.96 43.783 141.308 43.87 141.221 43.87 142.395 43.566 143.612 43.261 145.134 43.131 145.134 43.131" fill="#ed2129" fill-rule="evenodd"/><polygon points="126.873 45.174 126.786 45.087 127.96 44.957 137.308 44.131 137.395 44.131 127.177 45.174 126.873 45.174 126.873 45.174" fill="#ed2129" fill-rule="evenodd"/><path d="M151.31253,108.05188l-7.26065-.73926-.56525-.04336.26084.04336,7.78247.8263,16.08688,1.99987,4.17407,1.0434.21741.04367h-.04336l.04336.17374-2.6521.47824-28.4349,3.435,2.60873,2.39129,29.86948-3.21759,2.82614-.4346a11.29757,11.29757,0,0,0,3.34774-1.1304,1.30059,1.30059,0,0,0,.69562-1.522,2.81548,2.81548,0,0,0-1.565-1.52164l-2.3913-.95636c-1.26089-.34815-3.04358-.78269-5.52188-1.21753l-12.95633-1.739-7.13058-.65226h-.43482l-6.13046-.65222c-7.13031-.82605-12.34772-1.82608-15.60843-2.99994l-1.65231-.65222c-.21744-.13043-.30447-.26083-.13037-.47821q.065-.32612.65219-.65228a10.30607,10.30607,0,0,1,4.0434-1.39121L143.617,97.26913h2.60871l-2.30429-.0867H143.53l-11.5651,1.0868-.30441.087-2.17389.34778-.56521.21744-.30448.087.30448-.174a6.84231,6.84231,0,0,0-2.39133,1.3042c-.52185.43488-.52185.73929-.087.95673l4.47846,1.52163,1.739.43485.39118.1304-.60858-.0434-.69559-.21743,2.17389.47821,5.2174.95642.04337.087h.1738l-.86939-.087-4-.652a40.90363,40.90363,0,0,1-8.60879-2.47833c-.52161-.21738-.652-.56519-.43485-.913l.69593-.65228.95642-.60861a15.20231,15.20231,0,0,1,3.60876-1.0871l-.78265.08707a14.4813,14.4813,0,0,0-3.69583,1.3045l-1.30417,1.17383-.087.1304v.13037h-.04336v.087l-.21744-.1304.04339-.21738c.087-.43484.60883-.95642,1.69565-1.4783a15.49637,15.49637,0,0,1,5.00006-1.34784l.78266-.08707.34778-.0867,3.34774-.34781,7.17392-.56524h.78266l.30441-.087,3.913.087,2.17389-.52185a.45752.45752,0,0,0,.30442-.56522l-.65223-.60858-2.9132-1.00009-2.08683-.73929h-.21746l.2611.087,1.95649.65226a12.6601,12.6601,0,0,1,3.13028,1.3042l.3478.3478-.3478.52189-.52158.1304-.34781.174.08673-.087.21744-.087.47821-.21741c.52185-.21744.52185-.47821.087-.78268a16.88831,16.88831,0,0,0-2.82618-1.1738l-.3041-.1304a71.50087,71.50087,0,0,0-9.39151-2.2609l-5.739-.91308,2.30429.47824.73923.174h-.087l-2.65209-.39148,1.21719.30448,3.47842.73922a60.356,60.356,0,0,1,9,2.3043l2.08686.78268.52185.52158-2.60871.13037h-3.47842l-12.13031.95671-1.52161.2174-.34808.08674-.4346.04367.86941-.21744,3.6958-.43485-2.30429.21744-3.13055.52188-.34781.1304-2.7825.86939c-1.73935.73926-2.65234,1.47824-2.86978,2.17389-.08676.65225.34781,1.2608,1.34784,1.73935l.52191.2174-.56525-.2174-1.26086-.86972c-.47818-.47821-.43482-1.0871.2174-1.739l1.82609-1.2175h.08676l.13064-.13037-.65222.26078-.1304.087-.21741.087.1304-.174,2.82614-1.1305,4.47818-.86938,12.13028-1.0434H146.791l-1.86976-.04367h-3.26071l-1.86972.13037-10.39123.78269-5.47824,1.17379a9.42723,9.42723,0,0,0-3.65213,1.86976c-.78269.65228-.91309,1.30423-.43488,1.95645l1.4783,1.04345a52.0186,52.0186,0,0,0,13.47818,3.60877l6.13046.86938,9.13041,1.0871h-.13041l-.52157-.087H149.269l2.04352.30442.69565.087-.69565-.087Zm.69565.087,2.78277.26077ZM150.13873,97.0954l-1.652.17373h.43451l1.3479-.17373.21744-.04367h.174l-.52182.04367Z" transform="translate(-2.83061 -71.008)" fill="#ed2129" fill-rule="evenodd"/><polygon points="132.525 45.174 139.395 44.218 127.09 45.652 129.177 45.522 132.525 45.174 132.525 45.174" fill="#ed2129" fill-rule="evenodd"/><polygon points="125.916 45.739 138.916 44.087 128.96 45.652 128.612 45.652 127.09 45.739 125.916 45.739 125.916 45.739" fill="#ed2129" fill-rule="evenodd"/><path d="M116.31262,117.965l-9,1.60861c-.30417.087-.34781.1304-.21716.21744l.86938-.087,3.39139-.43481-7.60876,1.39123-.86942.21744h.3042l6.00009-.78235h-.1304l-8.78259,1.652h1.26086l5.34784-.34781,2.69547-.21738,2.73913-.43484,1.60865-.21744-4.86936.86966-.52185.21744h.39148l9.47815-1.1738,18.99979-2.04352,3.47842-.26111V114.791l-2.56537.30444-21.34772,2.73913-.65222.13041Z" transform="translate(-2.83061 -71.008)" fill="#ed2129" fill-rule="evenodd"/><path d="M180.79089,99.79086V95.44308h-1.60867v-.86935h4.087v.86935h-1.60871v4.34778Zm9.13037-5.21713v5.21713h-.78262V95.44308l-1.69574,4.34778h-.56518l-1.65207-4.34778h-.087v4.34778H184.356V94.57373h1.3045l1.52161,3.99994,1.52167-3.99994Z" transform="translate(-2.83061 -71.008)" fill="#195087" fill-rule="evenodd"/></svg>