<svg xmlns="http://www.w3.org/2000/svg" viewBox="0 0 187.091 50.74"><path d="M7.743 9.435a2.032 2.032 0 011 1.826l-2.217-.217a7.339 7.339 0 00-5.087 1.522 3.873 3.873 0 00-1.435 3.087 4.01 4.01 0 00.783 2.565 3.781 3.781 0 002.391 1.565l2.26.304L6.744 20l2-2.434v2.174h5.087v-9.13c0-2.566-1.304-4.131-4-4.783l-2.435-.218-3.87.435-2.304 4.043a10.557 10.557 0 014.435-1.174 3.613 3.613 0 012.087.522zm1 4.653v2.521l-1.652.304c-1.304 0-1.957-.434-1.957-1.39 0-.784.435-1.218 1.392-1.435l1-.174zM29.613 5.87v13.87h-5.261V16.26l-2.478 3.479-2.305.347a4.332 4.332 0 01-3.217-1.173 4.576 4.576 0 01-1.305-3.61V5.87h5.305v7.565a4.231 4.231 0 00.348 1.957 1.737 1.737 0 001.478.695 4.152 4.152 0 002.174-.782V5.87zM31.221 9.74l1.87-3.87h.391V3.566l5.261-1.652V5.87h3.26v3.87h-3.26v3.608a3.885 3.885 0 00.391 1.957 2.141 2.141 0 002 1l1.913-.261-2.608 3.74-2.479.303a4.028 4.028 0 01-4.478-4.478V9.74zM51.352 5.61a8.215 8.215 0 00-5.87 2.086 7.05 7.05 0 00-2.087 5.13 6.958 6.958 0 002.522 5.653 8.291 8.291 0 005.304 1.608c2.913 0 5-.87 6.392-2.521a7.601 7.601 0 001.565-4.87 6.476 6.476 0 00-2.217-5.217 8.235 8.235 0 00-5.61-1.87zm-.044 10.869c-1.521 0-2.26-1.261-2.26-3.653 0-2.521.739-3.739 2.26-3.739s2.218 1.218 2.218 3.696c0 2.435-.696 3.696-2.218 3.696zM66.091 0h-5.435v18.435a18.094 18.094 0 007 1.652c3.348 0 5.74-1.217 7.13-3.608a8.787 8.787 0 001-4.13 7.692 7.692 0 00-1.434-4.653 5.463 5.463 0 00-4.566-2.087l-1.478.13-2.217 3.348V0zm1.652 9.305a2.068 2.068 0 011.87 1.087 3.824 3.824 0 01.608 2.217 5.114 5.114 0 01-.522 2.478 2.35 2.35 0 01-2.086 1.174 2.533 2.533 0 01-1.522-.434V9.87a3.272 3.272 0 011.652-.565z" fill="#195087" fill-rule="evenodd"/><path d="M91.439 5.87l-5 13.26a12.676 12.676 0 01-2.61 4.436 8.934 8.934 0 01-5.956 1.739L75.352 25l1.434-3.608.957.13a2.369 2.369 0 001.609-.478 2.639 2.639 0 001-1.392L75.222 5.87h5.651l2.61 9.087 2.52-9.087zM97.656 9.74v3.608a3.886 3.886 0 00.391 1.957 2.141 2.141 0 002 1l1.913-.261-2.608 3.74-2.392.303a4.636 4.636 0 01-3.347-1.086 4.54 4.54 0 01-1.218-3.392V9.74h-2.174l1.783-3.87h.391V3.567l5.261-1.652V5.87h3.26v3.87zM103.83 7.783a7.292 7.292 0 00-1.87 5.13 6.688 6.688 0 001.305 4.13 7.16 7.16 0 003.608 2.61l3.566.434 4.173-.434 2.348-4.044a12.75 12.75 0 01-4.782 1 4.86 4.86 0 01-3.783-1.304l-.739-1.392h9.74a9.488 9.488 0 00-1.74-6.086c-1.304-1.522-3.348-2.218-6.044-2.218a7.447 7.447 0 00-5.782 2.174zm7.522 1.305a2.71 2.71 0 01.956 2.173h-4.782a3.344 3.344 0 01.782-1.956 2.163 2.163 0 011.609-.652 2.426 2.426 0 011.435.434zM118.829 0h5.522v19.739h-5.522V0z" fill="#195087" fill-rule="evenodd"/><path d="M128.395 20a2.82 2.82 0 01-2.826-2.739 2.426 2.426 0 01.74-1.87 2.718 2.718 0 011.999-.825 2.818 2.818 0 012.044.826 2.366 2.366 0 01.739 1.87 2.62 2.62 0 01-.74 1.956 2.655 2.655 0 01-1.956.782z" fill="#ed2129" fill-rule="evenodd"/><path d="M139.786 5.522a10.212 10.212 0 014.261.87v4.348a4.31 4.31 0 00-3.174-1.435 3.247 3.247 0 00-2.478.913 3.846 3.846 0 000 5.174 3.938 3.938 0 003.044 1.13l3.173-.695-2 3.825-3.26.435a7.203 7.203 0 01-7.557-6.83q-.012-.237-.009-.474a6.768 6.768 0 012.13-5 7.416 7.416 0 015.87-2.261zM147.613 7.696a6.92 6.92 0 00-2.131 5.13 6.781 6.781 0 002.609 5.653 8.291 8.291 0 005.304 1.608c2.826 0 5-.869 6.392-2.521a7.603 7.603 0 001.565-4.87 6.476 6.476 0 00-2.218-5.217 8.555 8.555 0 00-5.608-1.87 8.111 8.111 0 00-5.913 2.087zm5.869 8.783c-1.522 0-2.261-1.261-2.261-3.653 0-2.521.74-3.738 2.26-3.738 1.436 0 2.175 1.217 2.175 3.695 0 2.435-.74 3.696-2.174 3.696zM170.264 5.957l2.696-.435a4.805 4.805 0 013.13.957 4.19 4.19 0 011.348 2.652l2.348-3.174 2.74-.435a4.147 4.147 0 013.39 1.305l.827 1.304.217 1.956v9.653h-5.522v-7.566l-.347-1.87a1.79 1.79 0 00-1.74-.869 2.918 2.918 0 00-1.913.652v9.653h-5.478v-7.61c0-1.738-.652-2.608-2.043-2.608a4.196 4.196 0 00-1.957.565v9.653h-5.434V5.87h5.434v3.26l2.305-3.173z" fill="#195087" fill-rule="evenodd"/><path d="M129.569 47.826l5.783-.565 2.739-2.956 2.608 2.391-5.347.565-.087.087 1.739-.174 33.782-3.521c3.348-.522 5.522-1.044 6.435-1.696.652-.435.957-.913.74-1.565-.131-.652-.653-1.174-1.61-1.696a37.56 37.56 0 00-8.043-2.304l-6.087-.957 2.044.304 3.782.522.13.044.088-.044-.435-.087-3.13-.521-7.261-.913h-.218l6.261.695 2.957.435 2.086.391a33.198 33.198 0 018.479 2.305l.87.565a2.35 2.35 0 01.956 1.174 1.157 1.157 0 01-.435 1.434 1.226 1.226 0 00.304-1.565 3.471 3.471 0 00-1.826-1.521l-.956-.435-.435-.174 1.304.609a3.122 3.122 0 011.826 1.739c.218.652-.087 1.217-.739 1.739l-1.348.652-5.39 1.087-23.957 2.652h-.435l-3.13.391-1.305.044-7.478.826.434-.435-5.782.565.087-.087z" fill="#ed2129" fill-rule="evenodd"/><path d="M131.09 48.218l-10.738 1.217h.304l2.956-.348 1.305-.174-2.826.435L134.699 48l9-.826 15.218-1.522-.522.087h-.652l-8.261.783-1.74.217-.869.087h-.348l.435-.087 3.696-.347-15.826 1.434.217.087-3.956.305zm29.783-2.783l4.044-.652 6.608-.652 1.087-.13a17.073 17.073 0 006-1.827 1.663 1.663 0 00.87-1.565 2.455 2.455 0 00-1-1.478h.044l.652.652a1.53 1.53 0 010 2.043l-.479.435a14.419 14.419 0 01-5.217 1.609l-.87.13-1.043.13-9.13 1.088z" fill="#ed2129" fill-rule="evenodd"/><path d="M123.482 49.218l-1.174.13h-.087l1.261-.13zm21.522-2.174l2.087-.217-.304.086zM167.656 36.174h.087l.652.087h.087a40.258 40.258 0 018.391 2.392 4.57 4.57 0 011.653 1.13l-.87-.783-.913-.521-.087-.044-2.609-.956-4.696-1.087-2.173-.348h-.174l.652.13zM126.134 45.435l7.696-.565 29.13-3.26 3.826-.523 2.913-.565.087-.13-.173-.218a18.76 18.76 0 00-4.61-1.174L149.7 37.044l-1.435-.087 4.783.522 3.087.304 1.522.217.391.044-7.391-.783.13.087 14 1.783 3.696.87.696.217v.174l-.218.043-1.348.304-4.087.566-7.652.956-10.391 1.218-10.348 1.087-9 .869zm18.044-8.739l-.348-.087h-.087zM132.656 47.479l16.826-1.609-3.566-2.304-3.912.565-3.957.435-15.304 1.695-1.826 2.522 5.086-.565 6.653-.739z" fill="#ed2129" fill-rule="evenodd"/><path d="M156.873 45.522l13.566-1.609.652-.043c3.39-.522 5.652-1.174 6.565-1.826.652-.522.957-1 .74-1.652a3.202 3.202 0 00-1.74-1.74 28.844 28.844 0 00-6.304-1.912l-.435-.044-.304-.087 4.087 1 2.739 1.087-3.044-1.087.783.305 2.043.869c1.087.522 1.74 1.174 1.826 1.87a1.544 1.544 0 01-.87 1.304c-.956.652-3.043 1.174-6.39 1.696l-1.522.217-.13.043-.957.087-11.74 1.305-15.956 1.608-19.13 2.305 12.826-1.392 7.782-.869 14.913-1.435zm-35.521 3.696h.174l1.086-.218-2.39.305-.218.043zM178.612 40.305h-.087l.087.348.087.173-.087-.521zM123.829 30l3.174 1.261h.218-.044l-.434-.174-.174-.043L123.917 30h-.088v-.043h-.087V30h.087z" fill="#ed2129" fill-rule="evenodd"/><path fill="#ed2129" fill-rule="evenodd" d="M169.83 40.522l-.131.087h.217v-.087h-.086zM166.786 41.087l1.305-.217h.217zm-2.608.392l-1.218.217.435-.087zM124.177 45.609h-.13l-.13.043h.217l.217-.043 1 .217 1.739-.174h.087l11.305-1.13-.652.044-7.696.739-2.696.087-2.608.13-.653.087zM136.873 35.826l-8.826-1.478h-.174l.391.087 2 .435 4.783.739 1.826.217zM119.7 32.348l-2.522-1.174h-.087l-.087-.087h-.044l.218.174.478.218a54.725 54.725 0 006.087 2.174l1.696.434h.434l-2.348-.608-3.826-1.13z"/><path fill="#ed2129" fill-rule="evenodd" d="M139.351 36.261h.218-.174l-10.783-1.608 4.783.782 4.13.609 1.826.217zM132.308 44.87l-.739.304h.087l.783-.217.826-.304h.348l2.086-.305-2.521.218-.87.304zm-.739.304h-.13l-.522-.174-.348-.13h.522zm4.13-.826l2.61-.26 4.738-.653-1.391.261-1.304.304-2.479.218z"/><path fill="#ed2129" fill-rule="evenodd" d="M145.134 43.131l-1.609.13-.782.305-.783.217-.652.087h-.087l1.174-.304 1.217-.305 1.522-.13zM126.873 45.174l-.087-.087 1.174-.13 9.348-.826h.087l-10.218 1.043h-.304z"/><path d="M148.482 37.044l-7.26-.74-.566-.043.26.044 7.783.826 16.087 2 4.174 1.043.218.044h-.044l.044.174-2.652.478-28.435 3.435 2.608 2.391 29.87-3.217 2.826-.435a11.298 11.298 0 003.348-1.13 1.3 1.3 0 00.695-1.522 2.815 2.815 0 00-1.565-1.522l-2.39-.956c-1.262-.349-3.044-.783-5.523-1.218l-12.956-1.739-7.13-.652h-.436l-6.13-.652c-7.13-.827-12.348-1.827-15.608-3L124.047 30c-.217-.13-.304-.26-.13-.478q.065-.326.652-.652a10.306 10.306 0 014.044-1.391l12.173-1.218h2.61l-2.305-.087h-.392l-11.565 1.087-.304.087-2.174.348-.565.217-.305.087.305-.174a6.842 6.842 0 00-2.392 1.305c-.521.435-.521.739-.087.956l4.479 1.522 1.739.435.391.13-.608-.043-.696-.218 2.174.479 5.217.956.044.087h.173l-.869-.087-4-.652a40.904 40.904 0 01-8.609-2.478c-.521-.218-.652-.565-.435-.913l.696-.653.957-.608a15.202 15.202 0 013.608-1.087l-.782.087a14.481 14.481 0 00-3.696 1.304l-1.304 1.174-.087.13v.13h-.044v.088l-.217-.13.043-.218c.087-.435.61-.956 1.696-1.478a15.496 15.496 0 015-1.348l.783-.087.348-.087 3.347-.348 7.174-.565h.783l.304-.087 3.913.087 2.174-.522a.458.458 0 00.305-.565l-.653-.608-2.913-1-2.087-.74h-.217l.261.087 1.956.652a12.66 12.66 0 013.13 1.305l.349.347-.348.522-.522.13-.348.175.087-.087.218-.087.478-.218c.522-.217.522-.478.087-.782a16.888 16.888 0 00-2.826-1.174l-.305-.13a71.5 71.5 0 00-9.391-2.261l-5.74-.914 2.305.479.74.174h-.088L129.134 20l1.218.305 3.478.739a60.356 60.356 0 019 2.304l2.087.783.522.521-2.609.13h-3.478l-12.13.958-1.522.217-.348.087-.435.043.87-.217 3.695-.435-2.304.217-3.13.522-.348.13-2.783.87c-1.74.74-2.652 1.478-2.87 2.174-.087.652.348 1.26 1.348 1.74l.522.217-.565-.218-1.261-.87c-.478-.478-.435-1.086.217-1.738l1.826-1.218h.087l.13-.13-.651.26-.13.088-.218.087.13-.174 2.826-1.13 4.478-.87 12.13-1.044h5.044l-1.87-.043h-3.26l-1.87.13-10.391.783-5.478 1.173a9.427 9.427 0 00-3.652 1.87c-.783.653-.913 1.304-.435 1.957l1.478 1.043a52.019 52.019 0 0013.478 3.609l6.13.87 9.131 1.086h-.13l-.522-.087h-.13l2.043.305.696.087-.696-.087zm.696.087l2.782.26zm-1.87-11.044l-1.652.174h.435l1.348-.174.217-.043h.174l-.522.043z" fill="#ed2129" fill-rule="evenodd"/><path fill="#ed2129" fill-rule="evenodd" d="M132.525 45.174l6.87-.956-12.305 1.434 2.087-.13 3.348-.348z"/><path fill="#ed2129" fill-rule="evenodd" d="M125.916 45.739l13-1.652-9.956 1.565h-.348l-1.522.087h-1.174z"/><path d="M113.482 46.957l-9 1.609c-.304.087-.348.13-.217.217l.87-.087 3.39-.435-7.608 1.391-.87.218h.305l6-.782h-.13l-8.783 1.652h1.26l5.348-.348 2.696-.218 2.739-.434 1.609-.218-4.87.87-.522.217h.392l9.478-1.174 19-2.043 3.478-.261v-3.348l-2.565.304-21.348 2.74-.652.13z" fill="#ed2129" fill-rule="evenodd"/><path d="M177.96 28.783v-4.348h-1.608v-.87h4.087v.87h-1.61v4.348zm9.13-5.217v5.217h-.782v-4.348l-1.696 4.348h-.565l-1.652-4.348h-.087v4.348h-.783v-5.217h1.305l1.521 4 1.522-4z" fill="#195087" fill-rule="evenodd"/></svg>