<svg xmlns="http://www.w3.org/2000/svg" viewBox="0 0 40.053 21.62"><path d="M39.7 19.2a1.54 1.54 0 01-.2 2.1 1.668 1.668 0 01-2.2-.2l-3.5-4.5-3.4 4.4a1.567 1.567 0 01-2.2.2 1.461 1.461 0 01-.3-2.1l4-5.2-4-5.2a1.68 1.68 0 01.3-2.2 1.68 1.68 0 012.2.3l3.4 4.5L37.3 7a1.532 1.532 0 112.4 1.9L35.8 14zm-18.2-.6a4.61 4.61 0 01-4.7-4.6 4.701 4.701 0 019.4 0 4.739 4.739 0 01-4.7 4.6zm-13.8 0A4.61 4.61 0 013 14a4.701 4.701 0 019.4 0 4.61 4.61 0 01-4.7 4.6zM21.5 6.4a7.743 7.743 0 00-6.8 4 7.785 7.785 0 00-6.9-4 8.22 8.22 0 00-4.7 1.5V1.5A1.538 1.538 0 001.6 0 1.56 1.56 0 000 1.5v12.6a7.662 7.662 0 007.7 7.5 7.871 7.871 0 006.9-4.1 7.833 7.833 0 006.8 4.1 7.725 7.725 0 007.8-7.7 7.536 7.536 0 00-7.7-7.5z" fill="#0071f7"/></svg>