<svg xmlns="http://www.w3.org/2000/svg" viewBox="0 0 999.00002 793.61634"><path d="M483.67461,535.63125c86.89688,0,157.33571-6.533,157.33571-14.57355,0-8.05454-70.43883-14.58751-157.33571-14.58751s-157.33571,6.533-157.33571,14.58751c0,8.04058,70.43882,14.57355,157.33571,14.57355" transform="translate(-0.49999 -0.5)" fill="#b3b3b3"/><path d="M326.19926,520.72267C384.01885,381.12928,520.09449,331.434,653.14094,401.38429,481.3992,382.09248,326.19926,520.72267,326.19926,520.72267" transform="translate(-0.49999 -0.5)" fill="#363e99"/><path d="M630.51292,248.61328c-86.61769,123.931-164.98543,168.25192-345.0609,46.4846,181.20618,91.89433,345.0609-46.4846,345.0609-46.4846" transform="translate(-0.49999 -0.5)"/><path d="M483.75835,302.88718c12.87051,6.854,32.17627-4.104,43.10644-24.47073,10.93016-20.38063,9.33879-42.43639-3.53172-49.29042-12.88447-6.854-32.17627,4.10405-43.10644,24.47072s-9.35275,42.43639,3.53172,49.29043" transform="translate(-0.49999 -0.5)" fill="#f79239"/><path d="M323.78423,223.79358,284.1397,264.164l31.04557,2.61039,31.36664-45.68891-22.76768,2.70811" transform="translate(-0.49999 -0.5)" fill="#009d57"/><path d="M306.08391,156.39789l14.62939,22.05575,46.83358-20.86921L362.689,139.78627l-56.60512,16.61162" transform="translate(-0.49999 -0.5)" fill="#009d57"/><path d="M659.08769,68.52383l31.255,1.3401L720.25752,9.55959,675.51784,41.23333" transform="translate(-0.49999 -0.5)" fill="#009d57"/><path d="M364.58751,91.50079l-5.58374,25.19661,65.63682-11.82356-7.91495-30.73846L364.58751,91.50079" transform="translate(-0.49999 -0.5)" fill="#009d57"/><path d="M596.494.5,582.60446,28.22325l69.95025,13.06594L640.04714,22.20677,596.494.5" transform="translate(-0.49999 -0.5)" fill="#009d57"/><path d="M473.219,62.08859l-33.9212,49.17875L458.4361,114.478l45.39577-47.2384-30.61283-5.151" transform="translate(-0.49999 -0.5)" fill="#009d57"/><path d="M511.76079,90.1329l26.439,18.17506L557.17052,42.8945l-26.17376,3.434-19.236,43.8044" transform="translate(-0.49999 -0.5)" fill="#009d57"/><path d="M533.956,5.66479l-40.873,20.56211,22.60017,17.519,22.72581-29.49608-4.453-8.585" transform="translate(-0.49999 -0.5)" fill="#009d57"/><path d="M138.57182,645.4774c-4.66242-28.29558-26.5367-54.49726-54.944-54.49726-37.49478,0-49.59753,36.86662-49.59753,66.55813,0,38.26255,20.953,66.54418,61.70028,66.54418,29.34253,0,47.029-19.01262,58.21044-35.708l5.58374,5.80708c-17.68648,29.67755-43.77649,46.61023-78.70275,46.61023C34.491,740.79177.5,709.481.5,660.77684c0-47.99221,34.92626-80.001,84.74715-80.001,8.61291,0,21.42758,2.0939,32.37171,4.17384,11.16747,2.0939,20.49231,4.17384,22.11159,4.17384a7.58464,7.58464,0,0,0,2.56852-.22335c0,6.01648-.46065,11.82356-.46065,17.854a305.58776,305.58776,0,0,0,2.55456,38.7232h-5.821" transform="translate(-0.49999 -0.5)"/><path d="M251.112,660.31606c-5.10911-25.11285-16.69536-27.98847-36.96433-27.98847v81.0898c0,15.27151,1.368,18.66363,18.73344,20.01769v3.39212c-9.53423-.335-19.24993-.684-28.95167-.684-10.39971,0-20.61794.349-31.33872.684v-3.39212c17.36542-1.35406,18.73344-4.74618,18.73344-20.01769v-81.0898c-20.269,0-31.85522,2.87562-36.96434,27.98847h-4.42511a299.66223,299.66223,0,0,0,1.703-35.45672c17.03039.50254,33.55824,1.019,50.23966,1.019,17.04435,0,34.07474-.51649,51.27265-1.019a299.66286,299.66286,0,0,0,1.703,35.45672H251.112" transform="translate(-0.49999 -0.5)"/><path d="M328.16765,612.08644c0-17.156-9.54819-20.40856-24.21946-22.4885v-5.56977c13.9733.92131,28.18391,1.39593,42.14325,1.39593,14.434,0,28.64456-.47462,43.07852-1.39593v5.56977c-14.19665,2.07994-29.80319,5.33247-29.80319,22.4885V726.63678c4.42511,1.15863,12.80071,1.63324,21.65093,1.63324,34.46562,0,51.23078-13.68016,66.82336-43.595l5.821,2.5406a242.55377,242.55377,0,0,0-18.38444,49.86277c-21.42759-.46066-43.07852-.92132-64.50611-.92132-22.3489,0-44.93511.46066-67.284.92132v-5.56978c12.57737,0,24.68012-1.61929,24.68012-16.45807V612.08644" transform="translate(-0.49999 -0.5)"/><path d="M553.33159,692.78549c0,29.91486-26.774,47.07089-54.4833,47.07089s-54.48331-17.156-54.48331-47.07089,26.774-47.07089,54.48331-47.07089S553.33159,662.87063,553.33159,692.78549ZM501.1795,731.048c12.80071,0,20.953-11.60021,20.953-33.8514,0-29.23085-12.34005-42.6737-25.61538-42.6737-12.80072,0-20.953,11.60021-20.953,33.8514,0,29.23086,12.34,42.6737,25.61539,42.6737" transform="translate(-0.49999 -0.5)"/><path d="M548.404,657.31481v-5.33247c19.79434-1.15862,31.19912-17.156,37.95544-33.85139h4.64846v31.29684h32.1344v7.887h-32.1344v49.1648c0,13.44284,3.72714,18.0913,14.21061,18.0913,5.58374,0,12.34-4.41115,17.70044-9.52027l4.88577,5.34643c-9.08753,8.34768-24.91742,19.47327-37.02017,19.47327-16.0672,0-25.85269-7.887-25.85269-23.66108V657.31481H548.404" transform="translate(-0.49999 -0.5)"/><path d="M618.67528,657.31481v-5.33247c19.79434-1.15862,31.19912-17.156,37.95544-33.85139h4.64846v31.29684h32.1344v7.887h-32.1344v49.1648c0,13.44284,3.72714,18.0913,14.21061,18.0913,5.58374,0,12.34005-4.41115,17.70044-9.52027l4.88577,5.34643c-9.08753,8.34768-24.91742,19.47327-37.02017,19.47327-16.0672,0-25.85269-7.887-25.85269-23.66108V657.31481H618.67528" transform="translate(-0.49999 -0.5)"/><path d="M723.88689,692.562c0,19.47327,11.64209,33.39074,31.65978,33.39074,10.94412,0,22.12555-4.87181,29.10522-13.44285l5.5977,6.03044c-12.11671,13.44284-29.10523,21.32987-46.56836,21.32987-30.27781,0-49.59753-18.78927-49.59753-47.07089,0-28.29558,19.31972-47.08485,49.59753-47.08485,30.02654,0,45.17242,20.64586,47.48967,46.84754Zm29.56588-8.80835c6.05835,0,7.91494-.93527,7.91494-6.49109,0-13.4568-5.12308-22.7258-18.62176-22.7258-14.19664,0-18.85906,17.37937-18.85906,29.21689h29.56588" transform="translate(-0.49999 -0.5)"/><path d="M830.969,716.20915c0,11.1256,6.05835,15.77406,22.82352,16.23471v4.6345c-10.94412-.46065-21.6649-.92131-32.609-.92131-10.93016,0-21.65093.46066-32.59505.92131v-4.6345c10.24615-.46065,16.3045-5.10911,16.3045-16.23471V670.29689c0-11.13956-6.05835-15.77406-16.3045-16.23472v-4.6345c8.61291,0,34.4656-3.25252,42.38055-4.64846v16.23472c10.48346-8.34769,20.72962-18.552,34.92627-18.552,11.40478,0,15.36923,7.42637,15.36923,21.10653-7.45429,3.47587-21.65094,9.74361-27.01132,12.98218l-2.79187-1.85659c2.0939-1.382,6.05835-4.85785,6.05835-7.87307,0-5.56978-3.50379-8.12433-8.85022-8.12433-4.42511,0-13.9733,6.03043-17.70044,10.90224v46.61023" transform="translate(-0.49999 -0.5)"/><path d="M869.34312,648.49251c11.64209.698,23.04687.92131,34.689.92131,9.7855,0,19.557-.46065,29.34253-.92131v4.6345c-6.519.93527-13.49868,4.41115-13.49868,12.52153,0,11.83751,18.62176,45.68891,23.74484,58.6711,4.88577-12.28422,24.21945-49.38814,24.21945-59.82972,0-8.34769-6.519-11.36291-13.97329-11.36291v-4.6345c8.15225.46066,16.29054.92132,24.4428.92132,6.99363,0,14.21061-.46066,21.19028-.92132v4.6345c-9.7855,0-17.22583,8.12433-25.37809,26.20168-9.31087,20.64586-35.62423,70.034-48.66225,90.67986-9.31088,14.83878-22.34891,24.10779-40.98462,24.10779-11.16747,0-25.61539-8.11038-25.61539-21.79053,0-9.283,5.821-16.69537,15.84385-16.69537,7.67764,0,13.95934,5.55581,13.95934,13.21949,0,2.77791-.92132,5.55581-.92132,8.34768,0,4.8718,5.12308,5.79312,9.07357,5.79312,13.27533,0,25.61539-23.88443,30.73847-33.8514L892.39,672.37694c-4.64846-10.42763-10.70681-17.854-23.04687-19.24993v-4.6345" transform="translate(-0.49999 -0.5)"/></svg>