<svg xmlns="http://www.w3.org/2000/svg" viewBox="0 0 999 793.616"><path d="M483.175 535.131c86.896 0 157.335-6.533 157.335-14.573 0-8.055-70.439-14.588-157.335-14.588s-157.336 6.533-157.336 14.588c0 8.04 70.439 14.573 157.336 14.573" fill="#b3b3b3"/><path d="M325.7 520.223c57.819-139.594 193.894-189.289 326.94-119.339C480.9 381.592 325.7 520.223 325.7 520.223" fill="#363e99"/><path d="M630.013 248.113c-86.618 123.931-164.986 168.252-345.061 46.485 181.206 91.894 345.06-46.485 345.06-46.485"/><path d="M483.258 302.387c12.87 6.854 32.177-4.104 43.107-24.47 10.93-20.381 9.339-42.437-3.532-49.291-12.884-6.854-32.176 4.104-43.106 24.47s-9.353 42.437 3.531 49.291" fill="#f79239"/><path d="M323.284 223.294l-39.644 40.37 31.045 2.61 31.367-45.689-22.768 2.709M305.584 155.898l14.63 22.056 46.833-20.87-4.858-17.798-56.605 16.612M658.588 68.024l31.255 1.34L719.758 9.06l-44.74 31.673M364.088 91l-5.584 25.197 65.637-11.823-7.915-30.739-52.138 17.366M595.994 0l-13.89 27.723 69.95 13.066-12.507-19.082L595.994 0M472.719 61.589l-33.921 49.178 19.138 3.211 45.396-47.238-30.613-5.151M511.26 89.633l26.44 18.175 18.97-65.414-26.173 3.434-19.236 43.805M533.456 5.165l-40.873 20.562 22.6 17.519L537.91 13.75l-4.453-8.585" fill="#009d57"/><path d="M138.072 644.977c-4.663-28.295-26.537-54.497-54.944-54.497-37.495 0-49.598 36.867-49.598 66.558 0 38.263 20.953 66.544 61.7 66.544 29.343 0 47.03-19.012 58.211-35.708l5.584 5.808c-17.687 29.677-43.777 46.61-78.703 46.61C33.991 740.292 0 708.98 0 660.277c0-47.992 34.926-80.001 84.747-80.001 8.613 0 21.428 2.094 32.372 4.174 11.167 2.094 20.492 4.174 22.111 4.174a7.585 7.585 0 002.569-.224c0 6.017-.46 11.824-.46 17.854a305.588 305.588 0 002.554 38.723h-5.821"/><path d="M250.612 659.816c-5.11-25.113-16.695-27.988-36.964-27.988v81.09c0 15.27 1.368 18.663 18.733 20.017v3.392c-9.534-.335-19.25-.684-28.952-.684-10.4 0-20.617.35-31.338.684v-3.392c17.365-1.354 18.733-4.746 18.733-20.018v-81.09c-20.269 0-31.855 2.876-36.964 27.99h-4.425a299.662 299.662 0 001.703-35.458c17.03.503 33.558 1.02 50.24 1.02 17.044 0 34.074-.517 51.272-1.02a299.663 299.663 0 001.703 35.457h-3.741M327.668 611.586c0-17.156-9.549-20.408-24.22-22.488v-5.57a644.136 644.136 0 0042.143 1.396 672.65 672.65 0 0043.079-1.396v5.57c-14.197 2.08-29.803 5.332-29.803 22.488v114.55c4.425 1.16 12.8 1.634 21.65 1.634 34.466 0 51.231-13.68 66.824-43.595l5.821 2.54a242.554 242.554 0 00-18.384 49.863c-21.428-.46-43.079-.92-64.506-.92-22.35 0-44.936.46-67.284.92v-5.57c12.577 0 24.68-1.619 24.68-16.457V611.586"/><path d="M552.832 692.285c0 29.915-26.774 47.071-54.484 47.071s-54.483-17.156-54.483-47.07 26.774-47.071 54.483-47.071 54.484 17.156 54.484 47.07zm-52.152 38.263c12.8 0 20.953-11.6 20.953-33.851 0-29.231-12.34-42.674-25.616-42.674-12.8 0-20.953 11.6-20.953 33.851 0 29.231 12.34 42.674 25.616 42.674M547.904 656.815v-5.333c19.794-1.158 31.2-17.156 37.955-33.851h4.649v31.297h32.134v7.887h-32.134v49.165c0 13.442 3.727 18.09 14.21 18.09 5.584 0 12.34-4.41 17.701-9.52l4.886 5.347c-9.088 8.348-24.918 19.473-37.02 19.473-16.068 0-25.853-7.887-25.853-23.66v-58.895h-16.528"/><path d="M618.175 656.815v-5.333c19.795-1.158 31.2-17.156 37.956-33.851h4.648v31.297h32.135v7.887h-32.135v49.165c0 13.442 3.727 18.09 14.21 18.09 5.585 0 12.34-4.41 17.701-9.52l4.886 5.347c-9.088 8.348-24.917 19.473-37.02 19.473-16.067 0-25.853-7.887-25.853-23.66v-58.895h-16.528"/><path d="M723.387 692.062c0 19.473 11.642 33.39 31.66 33.39 10.944 0 22.125-4.871 29.105-13.442l5.598 6.03c-12.117 13.443-29.106 21.33-46.569 21.33-30.278 0-49.597-18.79-49.597-47.07 0-28.296 19.32-47.086 49.597-47.086 30.027 0 45.173 20.646 47.49 46.848zm29.566-8.808c6.058 0 7.915-.936 7.915-6.491 0-13.457-5.123-22.726-18.622-22.726-14.197 0-18.86 17.38-18.86 29.217h29.567"/><path d="M830.469 715.71c0 11.125 6.058 15.773 22.824 16.234v4.634c-10.945-.46-21.665-.92-32.61-.92-10.93 0-21.65.46-32.595.92v-4.634c10.247-.46 16.305-5.11 16.305-16.235v-45.912c0-11.14-6.058-15.774-16.305-16.235v-4.634c8.613 0 34.466-3.253 42.381-4.649v16.235c10.483-8.348 20.73-18.552 34.926-18.552 11.405 0 15.37 7.426 15.37 21.106-7.455 3.476-21.651 9.744-27.012 12.983l-2.792-1.857c2.094-1.382 6.059-4.858 6.059-7.873 0-5.57-3.504-8.124-8.85-8.124-4.426 0-13.974 6.03-17.701 10.902v46.61"/><path d="M868.843 647.993c11.642.698 23.047.92 34.69.92 9.785 0 19.556-.46 29.342-.92v4.634c-6.52.935-13.499 4.411-13.499 12.522 0 11.837 18.622 45.688 23.745 58.67 4.886-12.284 24.22-49.387 24.22-59.83 0-8.347-6.52-11.362-13.974-11.362v-4.634c8.152.46 16.29.92 24.443.92 6.993 0 14.21-.46 21.19-.92v4.634c-9.785 0-17.226 8.124-25.378 26.202-9.31 20.646-35.624 70.034-48.662 90.68-9.311 14.838-22.35 24.107-40.985 24.107-11.167 0-25.615-8.11-25.615-21.79 0-9.283 5.82-16.696 15.844-16.696 7.677 0 13.959 5.556 13.959 13.22 0 2.778-.921 5.556-.921 8.348 0 4.871 5.123 5.793 9.073 5.793 13.275 0 25.616-23.885 30.739-33.852l-35.164-76.762c-4.648-10.428-10.707-17.854-23.047-19.25v-4.634"/></svg>