<svg xmlns="http://www.w3.org/2000/svg" viewBox="0 0 1243.24905 165.54586"><path d="M185.7,143.373l-89.3-43V5.773Zm7.1,16.4-96.4-40.7v40.7Z" fill="#98002e"/><polyline points="7.1 143.373 96.4 5.773 96.4 100.373 7.1 143.373" fill="#e31837"/><polyline points="0 159.773 96.4 159.773 96.4 119.073 0 159.773" fill="#e31837"/><path d="M200.6,131.573a6.35019,6.35019,0,1,1-6.3,6.4h0A6.29641,6.29641,0,0,1,200.6,131.573Zm0,11.7a5.4,5.4,0,1,0-5.4-5.4h0a5.37753,5.37753,0,0,0,5.4,5.4Zm-1.4-1.7h-.9v-7.3h2.8c1.7,0,2.3.7,2.3,2a1.9945,1.9945,0,0,1-1.8,2.1l2.2,3.2h-1l-2.2-3.2h-1.3Zm0-4.1h1.2c1,0,2.1-.1,2.1-1.3,0-.9-.9-1.2-1.6-1.2h-1.6v2.5Z" fill="#98002e"/><path d="M268.1,143.373h43.3c44.6,0,71.1-23.1,71.1-61.4s-26.5-61.3-71.1-61.3H268.1Zm27.4-101.4h15.9c28.9,0,43.4,14.3,43.4,40s-14.5,40-43.4,40H295.5Z" fill="#003d79"/><polygon points="475.7 90.173 527.8 90.173 527.8 68.873 475.7 68.873 475.7 41.973 534.6 41.973 534.6 20.673 448.2 20.673 448.2 143.373 536.5 143.373 536.5 122.073 475.7 122.073 475.7 90.173" fill="#003d79"/><polygon points="692.7 122.073 639.8 122.073 639.8 20.673 612.3 20.673 612.3 143.373 692.7 143.373 692.7 122.073" fill="#003d79"/><polygon points="840.7 20.673 730.6 20.673 730.6 41.973 771.8 41.973 771.8 143.373 799.4 143.373 799.4 41.973 840.7 41.973 840.7 20.673" fill="#003d79"/><path d="M1000,143.373H971.3l-12-30.7H909.4l-12,30.7H870.6l51.3-123.2h27.7Zm-48.5-51.3-17.1-43.6-17.2,43.6Z" fill="#003d79"/><path d="M1217.448,35.941l-.083.082a73.6176,73.6176,0,0,1-97.88892,109.638l-.078.087A73.62354,73.62354,0,1,0,1217.448,35.941" fill="#1f508f"/><path d="M1086.939,119.657c-2.338,1.304-2.866,3.278-1.667,6.305,1.108,2.768,2.854,3.962,4.703,3.226,1.485-.593,1.73205-1.879,1.113-5.205l-.26-1.286c-.602-3.265-.71-4.681-.316-6.088a4.28427,4.28427,0,0,1,2.663-3.157c3.339-1.334,6.48706.723,8.366,5.408,2.026,5.071.93506,8.882-3.014,10.522l-.996-2.472c2.754-1.199,3.447-3.771,1.983-7.443-1.204-2.996-3.113-4.33-5.127-3.521-1.611.641-1.996,2.148-1.403,5.552l.23,1.429.225,1.256c.428,2.538.481,3.43.234,4.504a4.02422,4.02422,0,0,1-2.559,2.884c-3.126,1.247-6.127-.59-7.821-4.82-1.818-4.573-.848-7.964,2.667-9.54l.979,2.446" fill="#1f508f"/><polyline points="1084.856 93.074 1096.028 83.66 1096.097 87.146 1086.64 94.984 1089.706 98.361 1096.353 98.218 1096.413 100.938 1077.421 101.366 1077.365 98.634 1084.826 98.47 1085.861 98.478 1086.83 98.457 1086.185 97.781 1085.545 97.105 1077.131 88.042 1077.049 84.431 1084.856 93.074" fill="#1f508f"/><path d="M1093.261,63.676l7.322,2.568-.90906,2.572-7.318-2.568-13.116,3.953,1.108-3.135,8.141-2.278,1.005-.277c.411-.125.666-.165,1.381-.316a21.367,21.367,0,0,1-1.459-1.866l-5.027-6.807,1.052-2.988,7.82,11.142" fill="#1f508f"/><polyline points="1106.113 28.822 1102.099 33.724 1114.081 43.536 1111.197 47.048 1099.215 37.24 1095.218 42.116 1092.507 39.899 1103.402 26.597 1106.113 28.822" fill="#1f508f"/><polyline points="1131.735 10.821 1122.148 16.429 1124.201 19.919 1132.991 14.775 1134.636 17.581 1125.842 22.725 1128.198 26.765 1137.971 21.049 1139.746 24.08 1126.045 32.087 1116.462 15.697 1129.964 7.794 1131.735 10.821" fill="#1f508f"/><path d="M1168.499,18.196l-4.976.316-2.451-4.097-7.656,1.217-1.074,4.676-4.741,1.226,5.006-20.76,4.673-.741ZM1157.63,8.41a31.71558,31.71558,0,0,1-2.048-3.858,35.07069,35.07069,0,0,1-.797,4.309l-.792,3.624,5.512-.888L1157.63,8.41" fill="#1f508f"/><path d="M1199.002,24.28,1195,22.751l1.516-5.642c.177-.658.411-1.572.753-2.72.304-1.191.585-2.122.802-2.802.234-.762.468-1.555.719-2.373l.44995-1.355c-1.116,1.918-1.558,2.598-2.58,4.157-.442.676-.849,1.252-1.166,1.728l-5.4,7.539-3.45105-.905-1.083-9.067c-.073-.463-.13-1.126-.186-2.026-.073-1.199-.13-2.101-.156-2.724-.026-.511-.022-1.277-.009-2.3l-.476,2.291c-.558,2.508-.814,3.589-1.567,6.578l-1.576,6.114-4.20105-.667L1182.126,0l6.4,1.242.901,8.782a38.604,38.604,0,0,1,.181,6.235,31.84058,31.84058,0,0,1,1.797-3.148c.55005-.861,1.035-1.585,1.47205-2.239l4.993-7.175,6.062,2.053L1199.002,24.28" fill="#1f508f"/><path d="M1162.697,60.848c-2.308,2.018-6.864,6.391-11.272,10.622l-4.989,4.794a67.90557,67.90557,0,0,0-12.255-1.095c-9.259,0-17.72,2.546-21.58606,6.487a6.695,6.695,0,0,0-2.16894,4.876c.104,4.473,5.218,6.725,6.781,7.314,8.219,3.066,15.108,2.174,22.348-2.889a119.2316,119.2316,0,0,0,12.57105-10.899c2.91894.676,6.24,1.537,9.808,2.586l3.286.961c-4.261,4.188-8.635,8.604-12.69995,12.19l-.303.272c-5.647,4.971-9.72094,8.569-15.615,9.882-4.14795.918-7.089.039-8.067-.559-.078.017-.208.199-.208.199,3.404,2.81,6.634,4.4,12.194,3.91,5.287-.45,11.389-3.789,17.646-9.626l8.43995-8.28,5.906-5.876c0,.03,11.947,3.503,11.947,3.503.1.026.22095.061.22095.061-.121,0-7.396,7.192-7.396,7.192l-6.348,6.318c-6.50805,6.322-10.05505,9.596-13.853,12.285-6.283,4.46-11.653,6.781-16.403,7.097a15.97,15.97,0,0,1-8.951-1.74c-.125-.031-.299.13-.299.13,3.19995,2.763,7.141,6.045,13.905,5.854,7.673-.213,14.454-3.906,25.02-13.61,4.811-4.417,9.605-9.366,13.822-13.731l7.847-7.95a60.53339,60.53339,0,0,0,14.895,1.502c7.439-.143,13.801-3.707,13.887-7.777.057-3.001-2.412-4.616-3.884-5.569a17.17537,17.17537,0,0,0-9.163-2.642c-5.577,0-11.397,2.464-17.286,7.31l-3.936,3.464c.03894-.013-1.433-.398-1.433-.398l-10.934-3.057c3.22205-3.005,5.97205-5.59,8.448-7.786,5.97205-5.322,12.592-7.505,16.451-7.747,2.81494-.191,7.729.056,9.756,1.481.087-.017.22095-.216.22095-.216a19.70924,19.70924,0,0,0-13.873-5.209c-3.78894,0-9.851,1.208-17.27795,6.959a136.00336,136.00336,0,0,0-11.085,10.423c0-.03-5.525-1.702-5.525-1.702l-1.334-.416s-5.802-1.758-5.811-1.762c.13-.004,3.313-3.118,3.313-3.118,3.915-3.841,7.613-7.465,10.49695-9.895,10.484-8.816,17.087-9.968,21.677-9.989,5.014-.022,9.006,1.017,11.856,3.079.087-.013.217-.199.217-.199-5.88-5.327-10.115-7.033-17.425-7.089-6.424-.049-14.084,3.524-21.579,10.075Zm-41.181,31.429c-3.408-.229-5.067-1.611-5.067-4.218,0-.35.23-8.656,19.265-9.618a46.1934,46.1934,0,0,1,8.288.242c-.147.013-2.148,1.845-2.148,1.845l-1.199,1.078C1136.07,85.773,1128.384,92.741,1121.516,92.277Zm77.03906-6.759c5.469-3.685,10.042-5.656,12.87-5.551,1.676.056,3.681.563,3.681,2.633,0,2.117-2.01795,3.915-5.989,5.322-3.486,1.247-8.817,1.568-14.641.901a38.53123,38.53123,0,0,1,4.079-3.305" fill="#1f508f"/></svg>