<svg xmlns="http://www.w3.org/2000/svg" viewBox="0 0 1243.249 165.546"><path d="M185.7 143.373l-89.3-43v-94.6zm7.1 16.4l-96.4-40.7v40.7z" fill="#98002e"/><path fill="#e31837" d="M7.1 143.373l89.3-137.6v94.6l-89.3 43M0 159.773h96.4v-40.7L0 159.773"/><path d="M200.6 131.573a6.35 6.35 0 11-6.3 6.4 6.296 6.296 0 016.3-6.4zm0 11.7a5.4 5.4 0 10-5.4-5.4 5.378 5.378 0 005.4 5.4zm-1.4-1.7h-.9v-7.3h2.8c1.7 0 2.3.7 2.3 2a1.994 1.994 0 01-1.8 2.1l2.2 3.2h-1l-2.2-3.2h-1.3zm0-4.1h1.2c1 0 2.1-.1 2.1-1.3 0-.9-.9-1.2-1.6-1.2h-1.6v2.5z" fill="#98002e"/><path d="M268.1 143.373h43.3c44.6 0 71.1-23.1 71.1-61.4s-26.5-61.3-71.1-61.3h-43.3zm27.4-101.4h15.9c28.9 0 43.4 14.3 43.4 40s-14.5 40-43.4 40h-15.9zM475.7 90.173h52.1v-21.3h-52.1v-26.9h58.9v-21.3h-86.4v122.7h88.3v-21.3h-60.8v-31.9zM692.7 122.073h-52.9v-101.4h-27.5v122.7h80.4v-21.3zM840.7 20.673H730.6v21.3h41.2v101.4h27.6v-101.4h41.3v-21.3zM1000 143.373h-28.7l-12-30.7h-49.9l-12 30.7h-26.8l51.3-123.2h27.7zm-48.5-51.3l-17.1-43.6-17.2 43.6z" fill="#003d79"/><path d="M1217.448 35.941l-.083.082a73.618 73.618 0 01-97.889 109.638l-.078.087a73.624 73.624 0 1098.05-109.807M1086.939 119.657c-2.338 1.304-2.866 3.278-1.667 6.305 1.108 2.768 2.854 3.962 4.703 3.226 1.485-.593 1.732-1.879 1.113-5.205l-.26-1.286c-.602-3.265-.71-4.681-.316-6.088a4.284 4.284 0 012.663-3.157c3.339-1.334 6.487.723 8.366 5.408 2.026 5.071.935 8.882-3.014 10.522l-.996-2.472c2.754-1.199 3.447-3.771 1.983-7.443-1.204-2.996-3.113-4.33-5.127-3.521-1.611.641-1.996 2.148-1.403 5.552l.23 1.429.225 1.256c.428 2.538.481 3.43.234 4.504a4.024 4.024 0 01-2.559 2.884c-3.126 1.247-6.127-.59-7.821-4.82-1.818-4.573-.848-7.964 2.667-9.54l.979 2.446M1084.856 93.074l11.172-9.414.069 3.486-9.457 7.838 3.066 3.377 6.647-.143.06 2.72-18.992.428-.056-2.732 7.461-.164 1.035.008.969-.021-.645-.676-.64-.676-8.414-9.063-.082-3.611 7.807 8.643M1093.261 63.676l7.322 2.568-.91 2.572-7.317-2.568-13.116 3.953 1.108-3.135 8.14-2.278 1.006-.277c.41-.125.666-.165 1.38-.316a21.367 21.367 0 01-1.458-1.866l-5.027-6.807 1.052-2.988 7.82 11.142M1106.113 28.822l-4.014 4.902 11.982 9.812-2.884 3.512-11.982-9.808-3.997 4.876-2.711-2.217 10.895-13.302 2.711 2.225M1131.735 10.821l-9.587 5.608 2.053 3.49 8.79-5.144 1.645 2.806-8.794 5.144 2.356 4.04 9.773-5.716 1.775 3.031-13.701 8.007-9.583-16.39 13.502-7.903 1.771 3.027M1168.499 18.196l-4.976.316-2.451-4.097-7.656 1.217-1.074 4.676-4.741 1.226 5.006-20.76 4.673-.741zM1157.63 8.41a31.716 31.716 0 01-2.048-3.858 35.07 35.07 0 01-.797 4.309l-.792 3.624 5.512-.888-1.875-3.187M1199.002 24.28L1195 22.751l1.516-5.642c.177-.658.411-1.572.753-2.72.304-1.191.585-2.122.802-2.802.234-.762.468-1.555.719-2.373l.45-1.355c-1.116 1.918-1.558 2.598-2.58 4.157-.442.676-.85 1.252-1.166 1.728l-5.4 7.539-3.451-.905-1.083-9.067c-.073-.463-.13-1.126-.186-2.026-.073-1.199-.13-2.101-.156-2.724-.026-.511-.022-1.277-.01-2.3l-.475 2.291a194.223 194.223 0 01-1.567 6.578l-1.576 6.114-4.201-.667L1182.126 0l6.4 1.242.901 8.782a38.604 38.604 0 01.181 6.235 31.84 31.84 0 011.797-3.148c.55-.861 1.035-1.585 1.472-2.239l4.993-7.175 6.062 2.053-4.93 18.53" fill="#1f508f"/><path d="M1162.697 60.848c-2.308 2.018-6.864 6.391-11.272 10.622l-4.989 4.794a67.906 67.906 0 00-12.255-1.095c-9.259 0-17.72 2.546-21.586 6.487a6.695 6.695 0 00-2.169 4.876c.104 4.473 5.218 6.725 6.781 7.314 8.219 3.066 15.108 2.174 22.348-2.889a119.232 119.232 0 0012.571-10.899c2.919.676 6.24 1.537 9.808 2.586l3.286.961c-4.261 4.188-8.635 8.604-12.7 12.19l-.303.272c-5.647 4.971-9.72 8.569-15.615 9.882-4.148.918-7.089.039-8.067-.559-.078.017-.208.199-.208.199 3.404 2.81 6.634 4.4 12.194 3.91 5.287-.45 11.39-3.789 17.646-9.626l8.44-8.28 5.906-5.876c0 .03 11.947 3.503 11.947 3.503.1.026.221.061.221.061-.121 0-7.396 7.192-7.396 7.192l-6.348 6.318c-6.508 6.322-10.055 9.596-13.853 12.285-6.283 4.46-11.653 6.781-16.403 7.097a15.97 15.97 0 01-8.951-1.74c-.125-.031-.299.13-.299.13 3.2 2.763 7.141 6.045 13.905 5.854 7.673-.213 14.454-3.906 25.02-13.61 4.811-4.417 9.605-9.366 13.822-13.731l7.847-7.95a60.533 60.533 0 0014.895 1.502c7.439-.143 13.801-3.707 13.887-7.777.057-3.001-2.412-4.616-3.884-5.569a17.175 17.175 0 00-9.163-2.642c-5.577 0-11.397 2.464-17.286 7.31l-3.936 3.464c.039-.013-1.433-.398-1.433-.398l-10.934-3.057c3.222-3.005 5.972-5.59 8.448-7.786 5.972-5.322 12.592-7.505 16.451-7.747 2.815-.191 7.729.056 9.756 1.481.087-.017.22-.216.22-.216a19.71 19.71 0 00-13.872-5.209c-3.789 0-9.851 1.208-17.278 6.959a136.003 136.003 0 00-11.085 10.423c0-.03-5.525-1.702-5.525-1.702l-1.334-.416s-5.802-1.758-5.811-1.762c.13-.004 3.313-3.118 3.313-3.118 3.915-3.841 7.613-7.465 10.497-9.895 10.484-8.816 17.087-9.968 21.677-9.989 5.014-.022 9.006 1.017 11.856 3.079.087-.013.217-.199.217-.199-5.88-5.327-10.115-7.033-17.425-7.089-6.424-.049-14.084 3.524-21.58 10.075zm-41.181 31.429c-3.408-.229-5.067-1.611-5.067-4.218 0-.35.23-8.656 19.265-9.618a46.193 46.193 0 018.288.242c-.147.013-2.148 1.845-2.148 1.845l-1.199 1.078c-4.585 4.167-12.271 11.135-19.139 10.671zm77.04-6.759c5.468-3.685 10.041-5.656 12.87-5.551 1.675.056 3.68.563 3.68 2.633 0 2.117-2.018 3.915-5.989 5.322-3.486 1.247-8.817 1.568-14.64.901a38.531 38.531 0 014.078-3.305" fill="#1f508f"/></svg>