<svg xmlns="http://www.w3.org/2000/svg" viewBox="0 0 999 216.094"><defs><clipPath id="a" transform="translate(-.5 -.5)"><path fill="none" d="M-183.805-282.63h5646.662v7307.445H-183.805z"/></clipPath><clipPath id="b" transform="translate(-.5 -.5)"><path fill="none" d="M-17.727-19.562h1045.629v287.066H-17.727z"/></clipPath></defs><g clip-path="url(#a)"><g clip-path="url(#b)"><path d="M103.62 205.885A100.579 100.579 0 103.05 105.297a100.574 100.574 0 00100.57 100.588" fill="#fff"/><path d="M88.16 122.065h37.017l10.814 7.012H86.527l-22.2 68.619c-24.523-9.513-47.22-31.546-56.743-56.31-10.149-23.999-10.149-54.151.222-78.251C17.53 38.36 40.883 15.987 65.74 6.797c19.56-8.1 45.736-8.959 66.477-2.584 23.805 6.819 46.28 23.879 59.345 46.152 14.615 24.422 18.721 55.46 9.836 83.334a100.594 100.594 0 01-33.087 48.882l-27.32-45.524 38.032 21.212c.213 0 .323-.24.213-.461l-49.815-43.005 64.43 9.826c.221 0 .313-.101.313-.212l-.424-.323-60.748-21.304 63.128-15.242c.212 0 .212-.203.102-.314L131.46 91.45l50.71-38.392c.11-.212-.332-.313-.434-.092l-56.965 28.88 31.444-55.48c0-.083 0-.314-.193-.203l-41.086 48.218 7.888-63.35c0-.12-.23-.23-.443-.12l-18.896 61.514L86.942 9.066c-.11-.101-.332-.212-.452 0l4.558 65.72-39.02-50.782c-.12-.12-.22 0-.331.1l29.516 56.2-55.794-30.485c-.101 0-.322.12-.322.222l49.62 40.744-63.34-6.689c-.222.12-.222.314 0 .415l61.412 17.965-61.08 17.945a.284.284 0 000 .415l63.008-7.344-49.51 42.054c-.11 0-.212.213 0 .333l.665-.213 39.646-20.76 9.31-14.808H85.41l-7.335-5.185 24.524-39.37-14.468 46.492.028.028" fill="#b38d44"/><path d="M270.848 173.878h-49.427L261.003 32.59h101.308l-9.65 33.53h-51.697l-6.634 24.053h51.705l-8.719 30.863H285.62zM416.852 60.819h-48.855l7.954-28.225h48.854zM385.223 173.88H336.37L365.34 70.663h48.864zM475.24 101.338c-4.364 0-8.71 1.338-11.173 7.39-3.598 8.71-6.818 17.236-6.818 25.752a7.21 7.21 0 007.575 7.39 14.573 14.573 0 008.331-2.454l9.854-33.908a9.797 9.797 0 00-7.768-4.17m36.74 72.54h-47.914l3.405-11.552c-9.66 8.147-19.505 14.006-35.218 14.006-15.916 0-25.945-7.575-25.945-23.667 0-17.798 7.012-44.315 17.42-62.87 7.575-13.83 21.212-21.018 37.312-21.018 13.812 0 24.044 6.053 28.021 13.628L502.7 32.6h48.855zM601.075 94.15c-6.061 0-10.223 4.162-12.88 14.579h20.077a33.896 33.896 0 001.329-7.206c0-5.675-3.414-7.372-8.526-7.372m48.855 34.655h-67.41c-1.328 5.48-2.647 9.272-2.647 13.627 0 2.085.378 7.39 7.187 7.39 6.819 0 9.854-2.657 12.687-12.686h47.913c-6.061 29.35-40.901 39.38-62.297 39.38-28.981 0-51.512-4.162-51.512-31.999 0-15.343 7.76-40.716 17.991-54.16 12.309-16.1 33.705-22.153 53.404-22.153 30.3 0 49.99 6.247 49.99 31.998 0 6.256-2.649 20.077-5.306 28.603M699.04 173.878h-48.864L689.758 32.59h48.863zM795.214 60.819h-48.855l7.953-28.225h48.855zm-31.62 113.062H714.73l28.972-103.218h48.864zM883.052 70.663l4.254 23.297H849.91l-10.98 39.194a35.754 35.754 0 00-1.707 9.282c0 4.54 1.891 6.062 8.516 6.062h10.417l-7.197 25.383h-43.558c-14.394 0-19.884-7.013-19.884-17.623a51.608 51.608 0 012.095-14.394l26.508-94.12h48.854l-6.44 22.919zM220.422 189.748l12.18-.009-7.76 25.41h-12.143zM262.929 189.767l17.816-.01 4.568 16.94h.12l5.157-16.948 10.574-.01-7.815 25.355-17.05.055-4.937-18.102h-.083l-5.407 18.065-10.573.01zM324.253 189.78l13.407-.01 2.352 15.971 12.262-15.99 12.41-.009-20.455 25.364-14.892.019zM388.033 189.787l27.707-.027-1.559 5.148-15.934.01-1.541 5.212 14.938-.009-1.495 4.89-14.938.01-1.54 5.028 16.1-.01-1.624 5.14-27.855.018zM507.02 195.975l-9.485.009 1.873-6.164 31.14-.027-1.873 6.163-9.485.01-5.813 19.117-12.17.009zM555.743 189.756l18.454-.018.885 16.958h.083l11.008-16.967 18.527-.019-7.695 25.42-11.285.009 5.786-19.136h-.083l-13.711 19.145-11.764.01-1.67-19.137h-.12l-5.776 19.08-10.334.01zM682.23 189.767l17.798-.01 4.585 16.94h.12l5.158-16.958h10.564l-7.732 25.41-17.272-.046-4.788-18.056h-.083l-5.527 18.065-10.583.01zM749.652 195.936l-9.494.01 1.873-6.173 31.149-.019-1.873 6.164-9.495.009-5.803 19.182-12.18.01zM961.214 177.328a10.924 10.924 0 1110.925-10.925 10.923 10.923 0 01-10.925 10.925m0-24.21a13.286 13.286 0 1013.287 13.285 13.307 13.307 0 00-13.287-13.286" fill="#125d34"/><path d="M958.937 165.488v-3.838h1.836c1.541-.028 3.257.064 3.257 1.9 0 1.846-1.716 1.938-3.257 1.938zm7.603-1.836c0-2.639-1.54-4.124-4.826-4.124h-5.166v13.692h2.39v-5.6h1.835l3.414 5.6h2.648l-3.58-5.794a3.482 3.482 0 003.285-3.774M453.066 197.466a1.21 1.21 0 01-.166-1.154c.397-1.291 2.003-2.14 4.577-2.14 1.513-.01 3.847.166 4.512.701a1.769 1.769 0 01.692 2.058h10.785c1.274-4.54-1.587-7.465-13.766-7.446-11.57.009-18.13 2.491-19.818 8.027a4.336 4.336 0 00.71 4.41c2.98 2.971 16.433 4.152 17.568 5.758a1.246 1.246 0 01.175 1.153c-.618 2.039-3.506 2.565-6.025 2.565-1.606 0-3.69-.341-4.29-1.006a2.265 2.265 0 01-.24-2.343l-11.294.018c-1.125 3.94-1.614 8.036 14.08 8.027 13.166-.018 19.2-3.238 20.714-8.248.747-2.455.009-3.82-.85-4.687-2.924-3.008-15.952-4.115-17.364-5.693M629.49 189.795l27.708-.028-1.56 5.148-15.934.01-1.54 5.213 14.928-.01-1.495 4.89-14.928.01-1.541 5.037 16.091-.018-1.624 5.14-27.846.018zM949.01 70.663l-26.517 57.195.757-57.195h-49.418l9.458 103.218c-1.21 6.043-3.202 9.448-6.994 11.127-4.152 1.845-13.526 1.513-16.83 1.328l-.6.037-7.796 28.05 33.354.027c19.7 0 29.36-9.9 43.375-31.86L999 70.663zM804.771 197.404a1.24 1.24 0 01-.166-1.154c.397-1.291 2.012-2.14 4.577-2.14 1.513-.01 3.847.166 4.511.701a1.77 1.77 0 01.692 2.058h10.786c1.274-4.54-1.587-7.465-13.766-7.446-11.56.01-18.13 2.491-19.81 8.027a4.313 4.313 0 00.702 4.41c2.98 2.971 16.433 4.152 17.568 5.758a1.246 1.246 0 01.175 1.153c-.61 2.039-3.506 2.565-6.025 2.565-1.606 0-3.69-.341-4.29-1.006a2.265 2.265 0 01-.24-2.343l-11.294.018c-1.125 3.94-1.614 8.037 14.08 8.027 13.166-.018 19.2-3.238 20.723-8.248.738-2.455 0-3.82-.858-4.687-2.916-3.008-15.953-4.115-17.365-5.693" fill="#125d34"/></g></g></svg>