<svg xmlns="http://www.w3.org/2000/svg" xmlns:xlink="http://www.w3.org/1999/xlink" viewBox="0 0 999.00001 216.09423"><defs><clipPath id="a" transform="translate(-0.5 -0.49963)"><rect x="-183.80518" y="-282.63012" width="5646.66238" height="7307.44543" fill="none"/></clipPath><clipPath id="b" transform="translate(-0.5 -0.49963)"><rect x="-17.72688" y="-19.56187" width="1045.62904" height="287.06613" fill="none"/></clipPath><clipPath id="c" transform="translate(-0.5 -0.49963)"><rect x="-24.46934" y="148.95959" width="765" height="990" fill="none"/></clipPath></defs><g clip-path="url(#a)"><g clip-path="url(#b)"><path d="M104.12017,206.38441A100.57887,100.57887,0,1,0,3.55053,105.79632,100.5744,100.5744,0,0,0,104.12017,206.38441" transform="translate(-0.5 -0.49963)" fill="#fff"/><path d="M88.66012,122.56474h37.017l10.81355,7.01229H87.027L64.82788,198.19516c-24.52422-9.51265-47.22159-31.54571-56.74341-56.31C-2.06477,117.88669-2.06477,87.73421,8.30591,63.6344,18.03072,38.86108,41.38318,16.48675,66.23955,7.29678,85.79989-.80406,111.97566-1.66229,132.717,4.71307c23.80454,6.81857,46.28048,23.87849,59.34531,46.15145,14.61489,24.42249,18.72071,55.4608,9.83551,83.33424a100.59382,100.59382,0,0,1-33.08648,48.88214l-27.31987-45.5241,38.03195,21.212c.2122,0,.32293-.2399.2122-.46122l-49.81425-43.00515,64.42917,9.82632c.22143,0,.31371-.10136.31371-.2123l-.42443-.32268-60.74775-21.30435,63.1282-15.2421c.2122,0,.2122-.20273.1015-.31367l-64.76132,4.21627L182.66968,53.558c.11073-.2123-.33215-.31367-.43366-.09235L125.27117,82.34491l31.44416-55.47939c0-.08278,0-.31367-.19375-.20273L115.43566,74.881l7.88871-63.34991c0-.11995-.23068-.23089-.44288-.11995l-18.896,61.51349L87.44223,9.5657c-.11071-.10137-.33215-.21231-.4521,0l4.55792,65.72074L52.52888,24.50313c-.12-.11995-.22144,0-.33215.10136l29.5158,56.19909L25.91945,50.31883c-.10149,0-.32293.12-.32293.22132L75.217,91.28484l-63.34041-6.689c-.22144.12-.22144.31367,0,.415l61.41206,17.96433L12.20877,120.92092a.28429.28429,0,0,0,0,.415L75.217,113.99142,25.70725,156.046c-.11071,0-.21221.21231,0,.33226l.66432-.21231,39.64657-20.75979,9.30962-14.80846H85.91064l-7.33513-5.18545,24.52424-39.37L88.63247,122.5349l.02769.02759" transform="translate(-0.5 -0.49963)" fill="#b38d44"/><path d="M271.3481,174.37749H221.92135l39.582-141.2865H362.81111l-9.651,33.52936H301.46363L294.82973,90.674h51.70571l-8.71911,30.86288H286.11984Z" transform="translate(-0.5 -0.49963)" fill="#125d34"/><path d="M417.35214,61.31819h-48.8547l7.9533-28.22409h48.8547ZM385.72345,174.3806h-48.8547L365.84019,71.16293h48.86393Z" transform="translate(-0.5 -0.49963)" fill="#125d34"/><path d="M475.74066,101.83762c-4.36417,0-8.70988,1.33785-11.17338,7.39048-3.59836,8.70989-6.81843,17.23524-6.81843,25.75137a7.20935,7.20935,0,0,0,7.575,7.39048,14.57313,14.57313,0,0,0,8.3316-2.45427l9.854-33.90765a9.79746,9.79746,0,0,0-7.76878-4.17041m36.74022,72.53931H464.56729l3.4046-11.55167c-9.66022,8.14707-19.505,14.00594-35.21782,14.00594-15.91584,0-25.94513-7.575-25.94513-23.66616,0-17.79806,7.0122-44.31523,17.41977-62.86986C431.80373,76.46454,445.4406,69.277,461.541,69.277c13.81218,0,24.04445,6.05263,28.0211,13.62765l13.63688-49.805h48.85469Z" transform="translate(-0.5 -0.49963)" fill="#125d34"/><path d="M601.57541,94.65019c-6.06186,0-10.223,4.16119-12.8803,14.578h20.077a33.8961,33.8961,0,0,0,1.32862-7.206c0-5.67435-3.41383-7.372-8.52535-7.372m48.8547,34.655H583.02077c-1.32863,5.48058-2.648,9.27271-2.648,13.62765,0,2.0852.37829,7.39048,7.1875,7.39048,6.81844,0,9.854-2.65725,12.68654-12.68654h47.91359c-6.06185,29.34973-40.90139,39.379-62.29781,39.379-28.98067,0-51.512-4.16119-51.512-31.99776,0-15.34379,7.75955-40.71686,17.99181-54.16,12.30825-16.10036,33.70467-22.153,53.40341-22.153,30.30006,0,49.98957,6.24639,49.98957,31.99776,0,6.25561-2.648,20.077-5.30528,28.60237" transform="translate(-0.5 -0.49963)" fill="#125d34"/><path d="M699.53946,174.37749H650.67553l39.582-141.2865h48.86393Z" transform="translate(-0.5 -0.49963)" fill="#125d34"/><path d="M795.71362,61.31819h-48.8547l7.95331-28.22409h48.8547ZM764.09416,174.3806H715.23024L744.20168,71.16293h48.86393Z" transform="translate(-0.5 -0.49963)" fill="#125d34"/><path d="M883.55239,71.16253l4.25345,23.2971H850.41055l-10.97963,39.19448A35.75392,35.75392,0,0,0,837.724,142.936c0,4.53947,1.89145,6.06185,8.51612,6.06185h10.4168l-7.19672,25.38231H805.90156c-14.39345,0-19.88326-7.0122-19.88326-17.62275a51.60774,51.60774,0,0,1,2.09443-14.39346l26.50794-94.12026h48.85471l-6.44016,22.9188Z" transform="translate(-0.5 -0.49963)" fill="#125d34"/><path d="M220.9221,190.24805l12.17907-.00923-7.75954,25.41H213.19946Z" transform="translate(-0.5 -0.49963)" fill="#125d34"/><path d="M263.42894,190.26663l17.81651-.00922,4.56715,16.94h.12l5.15765-16.94921,10.57366-.00923L293.849,215.59357l-17.05071.05536L271.862,197.5464h-.083L266.37221,215.612l-10.57365.00922Z" transform="translate(-0.5 -0.49963)" fill="#125d34"/><path d="M324.75335,190.279l13.40621-.00922,2.35277,15.97119,12.26212-15.98965,12.40974-.00922L344.72888,215.606l-14.89169.01846Z" transform="translate(-0.5 -0.49963)" fill="#125d34"/><path d="M388.533,190.28691l27.7074-.02768-1.55929,5.14842-15.9343.00923-1.54083,5.213,14.93782-.00922-1.49471,4.89008-14.93782.00923-1.54084,5.02848,16.10037-.00923-1.62387,5.1392-27.855.01846Z" transform="translate(-0.5 -0.49963)" fill="#125d34"/><path d="M507.51973,196.47418l-9.48492.00923,1.873-6.16335,31.13969-.02768-1.873,6.16335-9.48491.00923-5.81275,19.11746-12.16984.00922Z" transform="translate(-0.5 -0.49963)" fill="#125d34"/><path d="M556.24341,190.25593l18.45314-.01845.88575,16.95844h.083l11.0073-16.96767,18.527-.01845-7.695,25.41921-11.2841.00923,5.78506-19.13591h-.083l-13.71069,19.14513-11.76388.00923-1.67-19.13591H564.658l-5.77583,19.08055-10.33376.00922Z" transform="translate(-0.5 -0.49963)" fill="#125d34"/><path d="M682.72957,190.26663l17.79806-.00922,4.58561,16.94h.11994l5.15766-16.95844h10.56442l-7.73186,25.41-17.27215-.04613-4.78859-18.0564h-.083L685.5529,215.612l-10.58287.00922Z" transform="translate(-0.5 -0.49963)" fill="#125d34"/><path d="M750.15186,196.43589l-9.49414.00923,1.873-6.17258,31.14891-.01845-1.873,6.16335-9.49415.00922L756.509,215.60871l-12.17908.00922Z" transform="translate(-0.5 -0.49963)" fill="#125d34"/><path d="M961.71443,177.82732a10.92427,10.92427,0,1,1,10.92426-10.92427,10.92315,10.92315,0,0,1-10.92426,10.92427m0-24.21053a13.28627,13.28627,0,1,0,13.28626,13.28626,13.30748,13.30748,0,0,0-13.28626-13.28626" transform="translate(-0.5 -0.49963)" fill="#125d34"/><path d="M959.43728,165.98775V162.1495h1.83609c1.54083-.02768,3.257.06458,3.257,1.90067,0,1.84531-1.71615,1.93758-3.257,1.93758Zm7.60269-1.83609c0-2.6388-1.54083-4.12428-4.82549-4.12428H957.0476v13.69224h2.38968v-5.60053h1.83609l3.41383,5.60053h2.648l-3.57991-5.79429a3.48236,3.48236,0,0,0,3.28466-3.77367" transform="translate(-0.5 -0.49963)" fill="#125d34"/><path d="M453.56646,197.96539a1.21082,1.21082,0,0,1-.16607-1.15332c.39674-1.29172,2.00216-2.14056,4.57638-2.14056,1.51315-.00923,3.84748.16607,4.51179.70122a1.76905,1.76905,0,0,1,.692,2.05752h10.78587c1.27326-4.53947-1.587-7.4643-13.76605-7.44584-11.57012.00922-18.13022,2.49117-19.81868,8.02712a4.33639,4.33639,0,0,0,.71045,4.4103c2.98018,2.97095,16.43252,4.15195,17.56739,5.75738a1.24565,1.24565,0,0,1,.17531,1.15332c-.61818,2.03907-3.5061,2.565-6.02495,2.565-1.60543,0-3.69063-.34139-4.29036-1.0057a2.26494,2.26494,0,0,1-.23989-2.34355l-11.29333.01845c-1.12564,3.93975-1.61465,8.03635,14.07975,8.02712,13.16632-.01845,19.2005-3.23852,20.71366-8.24855.74735-2.45427.00923-3.8198-.84885-4.6871-2.92482-3.00786-15.95274-4.115-17.36441-5.6928" transform="translate(-0.5 -0.49963)" fill="#125d34"/><path d="M629.99052,190.29423l27.7074-.02768-1.55929,5.14843-15.93429.00922-1.54084,5.213,14.9286-.00923-1.49471,4.89008-14.92859.00923L635.628,210.565l16.09114-.01846-1.62388,5.13921-27.84579.01845Z" transform="translate(-0.5 -0.49963)" fill="#125d34"/><path d="M949.51043,71.16253l-26.51717,57.19552.75658-57.19552H874.33232l9.45724,103.21767c-1.20868,6.0434-3.20162,9.448-6.99374,11.12725-4.152,1.84531-13.52616,1.51315-16.82927,1.32863l-.59972.0369-7.79646,28.04878,33.35406.02768c19.69873,0,29.35895-9.90011,43.37412-31.85935L999.5,71.16253Z" transform="translate(-0.5 -0.49963)" fill="#125d34"/><path d="M805.2714,197.90345a1.2398,1.2398,0,0,1-.16608-1.15333c.39674-1.29172,2.01139-2.14056,4.57638-2.14056,1.51316-.00923,3.84748.16608,4.51179.70122a1.76908,1.76908,0,0,1,.692,2.05753h10.78586c1.27327-4.53948-1.587-7.4643-13.766-7.44585-11.56089.00923-18.13021,2.49118-19.80945,8.02712a4.31338,4.31338,0,0,0,.70122,4.4103c2.98018,2.971,16.43253,4.152,17.56739,5.75738a1.24566,1.24566,0,0,1,.17531,1.15332c-.60895,2.03908-3.5061,2.565-6.02495,2.565-1.60543,0-3.69063-.34138-4.29036-1.0057a2.26492,2.26492,0,0,1-.23989-2.34354l-11.29332.01845c-1.12565,3.93974-1.61465,8.03634,14.07975,8.02712,13.16631-.01846,19.20049-3.23853,20.72288-8.24856.73812-2.45427,0-3.8198-.85807-4.6871-2.9156-3.00786-15.95275-4.115-17.36441-5.69279" transform="translate(-0.5 -0.49963)" fill="#125d34"/></g></g></svg>