<svg xmlns="http://www.w3.org/2000/svg" viewBox="0 0 99.527 22.633"><defs><clipPath id="a" transform="translate(-.289 -.253)"><path fill="none" d="M-178.932-47.896h353.091v264.818h-353.091z"/></clipPath></defs><g clip-path="url(#a)"><path d="M99.014 7.353l-.287 3.44h-1.405a3.371 3.371 0 00-3.408 3.521v7.77h-3.976V7.354h3.766l.085 1.838a4.287 4.287 0 013.877-1.839zm-27.561 14.73h-3.98v-7.787c0-1.63-.14-3.683-2.434-3.683-2.209 0-3.089 1.594-3.089 3.45v8.02h-3.977V7.354h3.687l.085 1.883a4.994 4.994 0 014.434-2.242c4.009 0 5.274 2.862 5.274 5.84zm-15.215-3.44l-.279 3.351a10.338 10.338 0 01-2.826.348c-3.749 0-4.836-1.72-4.836-5.174V3.199h3.979v4.154h3.958l-.275 3.44h-3.683v6.076c0 1.386.38 2.135 1.802 2.135a6.527 6.527 0 002.16-.361M46.99 7.353l-.308 3.44h-1.081a3.326 3.326 0 00-3.352 3.521v7.77h-3.98V7.354h3.768l.079 1.838A4.301 4.301 0 0146 7.353zM20.317 20.452a16.88 16.88 0 01-8.955 2.172C4.762 22.424 0 18.325 0 11.403 0 4.509 4.808.106 11.365.002a12.327 12.327 0 018.624 2.845l-2.8 2.833a8.672 8.672 0 00-6.086-1.83c-4.127.193-6.614 3.192-6.668 7.316-.054 4.467 2.685 7.546 6.968 7.658a10.451 10.451 0 004.708-.78v-4.567H11.66l.3-3.746h8.357zm67.844-4.334H77.253a3.603 3.603 0 003.633 3.066 4.896 4.896 0 004.104-1.82l2.596 1.98a7.954 7.954 0 01-6.58 3.1 7.439 7.439 0 01-7.76-7.726 7.391 7.391 0 017.594-7.724c4.724 0 7.321 2.862 7.321 7.942zm-3.985-3.08a3.094 3.094 0 00-3.437-2.962 3.5 3.5 0 00-3.486 2.963zm-48.41-.6v9.645h-3.508l-.087-1.452a5.739 5.739 0 01-4.622 1.813c-2.709 0-5.268-1.336-5.322-4.447-.08-4.89 5.504-5.237 9.01-5.237h.701v-.193c0-1.617-1.07-2.49-3.084-2.49a5.809 5.809 0 00-3.93 1.569L22.63 9.314a9.98 9.98 0 016.563-2.32c4.563 0 6.574 2.108 6.574 5.444m-3.828 3.222h-.553c-1.884.004-5.192.096-5.18 2.066.018 2.775 5.733 1.893 5.733-1.453zm63.972 4.71a1.61 1.61 0 111.615 1.658 1.602 1.602 0 01-1.615-1.658m1.615 1.988a1.981 1.981 0 10-2.012-1.988 1.978 1.978 0 002.012 1.988m-.42-1.83h.4l.6.99h.39l-.65-1.005a.594.594 0 00.592-.63c0-.45-.267-.65-.807-.65h-.87v2.286h.346zm0-.294v-.707h.472c.241 0 .498.053.498.336 0 .35-.262.371-.554.371z" fill="#182954"/></g></svg>