<svg xmlns="http://www.w3.org/2000/svg" xmlns:xlink="http://www.w3.org/1999/xlink" viewBox="0 0 99.52671 22.63313"><defs><clipPath id="a" transform="translate(-0.28883 -0.25289)"><rect x="-178.93176" y="-47.89578" width="353.09098" height="264.81823" fill="none"/></clipPath></defs><g clip-path="url(#a)"><path d="M99.30254,7.60612l-.28666,3.44H97.61109a3.37119,3.37119,0,0,0-3.40875,3.52111v7.76934H90.227V7.60612h3.7654L94.078,9.44468a4.28707,4.28707,0,0,1,3.87732-1.83856ZM71.74169,22.33639h-3.979V14.54921c0-1.63081-.14087-3.68338-2.43464-3.68338-2.20905,0-3.0891,1.59426-3.0891,3.45066v8.0199H58.26137V7.606H61.9492l.08427,1.88315a4.99405,4.99405,0,0,1,4.43414-2.24248c4.00883,0,5.27408,2.86218,5.27408,5.84072Zm-15.21528-3.441-.2782,3.35169a10.33793,10.33793,0,0,1-2.82606.34774c-3.74892,0-4.83627-1.71909-4.83627-5.17421V3.45214h3.9785V7.60631h3.9589l-.27507,3.43951H52.56438v6.07566c0,1.3865.3803,2.13549,1.80247,2.13549a6.52657,6.52657,0,0,0,2.15956-.36156M47.27953,7.60613l-.30807,3.44H45.89035a3.32553,3.32553,0,0,0-3.3517,3.52111v7.76934H38.5597V7.60614h3.7672l.07846,1.83857a4.30123,4.30123,0,0,1,3.884-1.83857ZM20.60538,20.70446a16.87936,16.87936,0,0,1-8.95433,2.17293C5.05066,22.67589.28883,18.57745.28883,11.65472.28883,4.76231,5.09658.35848,11.65418.25505a12.327,12.327,0,0,1,8.62353,2.84434L17.477,5.9326a8.6721,8.6721,0,0,0-6.085-1.82876C7.26506,4.296,4.77826,7.295,4.72342,11.41845c-.05394,4.46758,2.68563,7.54642,6.9682,7.65876a10.45148,10.45148,0,0,0,4.70788-.78108V13.72957H11.94841l.30049-3.74535h8.35648Zm67.84484-4.33329H77.5423a3.60307,3.60307,0,0,0,3.633,3.06592,4.8959,4.8959,0,0,0,4.1038-1.8194l2.596,1.97946a7.95411,7.95411,0,0,1-6.58077,3.09935,7.4387,7.4387,0,0,1-7.75908-7.72566,7.391,7.391,0,0,1,7.59323-7.7243c4.72436,0,7.32172,2.86218,7.32172,7.94277Zm-3.98565-3.07974a3.09355,3.09355,0,0,0-3.4364-2.96248,3.49926,3.49926,0,0,0-3.48587,2.96248ZM36.055,12.69055v9.6458H32.54727l-.08694-1.45249A5.73877,5.73877,0,0,1,27.838,22.69658c-2.70881,0-5.26827-1.33568-5.32178-4.44663-.0807-4.88977,5.50322-5.23707,9.01006-5.23707h.70082v-.19349c0-1.617-1.07-2.49036-3.08464-2.49036A5.80887,5.80887,0,0,0,25.213,11.89877L22.9175,9.56668a9.98084,9.98084,0,0,1,6.56294-2.32006c4.563,0,6.57454,2.10874,6.57454,5.44393M32.22716,15.9125h-.55327c-1.8836.004-5.192.09675-5.17956,2.06639.01784,2.7748,5.73283,1.893,5.73283-1.45338ZM96.199,20.62288a1.61057,1.61057,0,1,1,1.61477,1.65846A1.60176,1.60176,0,0,1,96.199,20.62288m1.61477,1.98793a1.98148,1.98148,0,1,0-2.01243-1.98793,1.97835,1.97835,0,0,0,2.01243,1.98793M97.3943,20.7816h.399l.60142.99018h.38876L98.134,20.76556a.59446.59446,0,0,0,.59205-.62994c0-.45028-.267-.65-.80737-.65h-.86936v2.28617h.34506Zm0-.29469v-.70662h.47124c.24163,0,.49842.05216.49842.33526,0,.35086-.26215.37137-.55461.37137Z" transform="translate(-0.28883 -0.25289)" fill="#182954"/></g></svg>