<svg xmlns="http://www.w3.org/2000/svg" version="1.0" width="1024" height="535" viewBox="-2.196 -2.196 148.455 77.6"><path d="M59.563 19.801a4.107 4.107 0 00-4.125 4.125 4.124 4.124 0 004.125 4.125 4.123 4.123 0 004.125-4.125 4.106 4.106 0 00-4.125-4.125zm28.5 3.219c-6.498 5.806-15.06 9.281-24.407 9.281-8.927 0-17.088-3.151-23.437-8.375H25.53c7.84 8.663 19.188 14.157 31.813 14.157A42.9 42.9 0 0090.03 23.02h-1.968zm-69.126 6.688C7.201 29.708 0 39.63 0 50.958c0 12.235 7.258 21.75 18.75 21.75 3.797 0 7.546-1.098 11.094-2.594V53.55H19.156v4.282h4.032v7.906c-1.436.78-2.913 1.031-4.72 1.031-5.742 0-11.343-5.827-11.343-15.687 0-9.43 4.871-15.438 12-15.438 2.565 0 5.37 1.025 7.188 2.219l2.125-4.938c-2.178-1.762-5.856-3.218-9.5-3.218zm70.688.718v41.532h6.688V55.364h3.968l6.5 16.594h7.688l-8.25-18.625c3.115-2.345 5.594-5.873 5.594-12.063 0-7.046-4.275-10.844-10.657-10.844H89.625zm6.688 5.563h3.468c2.689 0 5.313 1.605 5.313 6.312 0 3.03-1.459 7.469-6.063 7.469h-2.718V35.989zm-52 5.594c-6.777 0-12.094 5.838-12.094 14.968 0 9.809 5.363 16.157 12.531 16.157 2.709 0 6.091-.975 9.313-3.375l-1.813-4.125c-1.565 1.368-4.036 2.375-6.375 2.375-3.927 0-7.085-4.154-6.937-9.72h15.406c.469-8.865-2.624-16.28-10.031-16.28zm80.25 0c-6.738 0-12.063 5.81-12.063 14.937 0 9.806 5.379 16.156 12.5 16.156 2.753 0 6.079-.955 9.344-3.343l-1.813-4.125c-1.56 1.376-4.009 2.375-6.344 2.375-3.945 0-7.1-4.16-6.968-9.72h15.375c.467-8.868-2.61-16.28-10.031-16.28zm-67.938.687v29.719h6.313V47.395h3.875c3.264 0 4.75 2.765 4.75 6.906V71.99h6.28V53.395c0-7.465-2.924-11.125-8.468-11.125h-12.75zm67.875 3.688c3.163 0 4.421 3.09 4.219 7.593h-9.406c-.047-3.962 1.593-7.593 5.187-7.593zm-80.281.03c3.139 0 4.428 3.06 4.187 7.563h-9.375c-.047-3.966 1.563-7.562 5.188-7.562zM140 64.927c-2.358 0-4.156 1.829-4.156 4.157 0 2.285 1.801 4.125 4.094 4.125a4.13 4.13 0 004.125-4.125c0-2.263-1.838-4.157-4.063-4.157zm-.094.657c1.863 0 3.344 1.55 3.344 3.5 0 1.885-1.491 3.437-3.313 3.437-1.81 0-3.312-1.565-3.312-3.469 0-1.88 1.487-3.468 3.281-3.468zm-1.594 1.156v4.5h1.094v-1.75h.531l.813 1.812 1.125-.187-.906-1.875c.538-.249.781-.705.781-1.25 0-.408-.195-.773-.531-1-.295-.205-.523-.25-1.313-.25h-1.594zm1.094.781h.438c.406 0 .687.076.687.469 0 .454-.238.656-.687.656h-.438V67.52z" fill="#12569b"/><path d="M89.515 19.901c.91-1.651 1.475-4.62-3.054-7.618C78.87 7.226 87.311 0 87.311 0s-.623 3.47 4.92 7.11c4.875 3.204 1.522 9.053-2.212 12.791h-.504" fill="#faa61a"/></svg>