<?xml version="1.0" encoding="utf-8"?>
<!-- Generator: Adobe Illustrator 24.2.3, SVG Export Plug-In . SVG Version: 6.00 Build 0)  -->
<svg version="1.1"
	 id="svg214" xmlns:cc="http://creativecommons.org/ns#" xmlns:dc="http://purl.org/dc/elements/1.1/" xmlns:inkscape="http://www.inkscape.org/namespaces/inkscape" xmlns:rdf="http://www.w3.org/1999/02/22-rdf-syntax-ns#" xmlns:sodipodi="http://sodipodi.sourceforge.net/DTD/sodipodi-0.dtd" xmlns:svg="http://www.w3.org/2000/svg"
	 xmlns="http://www.w3.org/2000/svg" xmlns:xlink="http://www.w3.org/1999/xlink" x="0px" y="0px" viewBox="0 0 245.3 206"
	 style="enable-background:new 0 0 245.3 206;" xml:space="preserve">
<style type="text/css">
	.st0{fill:#BE955A;}
</style>
<sodipodi:namedview  bordercolor="#666666" borderopacity="1" gridtolerance="10" guidetolerance="10" id="namedview216" inkscape:current-layer="svg214" inkscape:cx="52.319043" inkscape:cy="226.25558" inkscape:document-rotation="0" inkscape:pageopacity="0" inkscape:pageshadow="2" inkscape:window-height="715" inkscape:window-maximized="1" inkscape:window-width="1366" inkscape:window-x="-8" inkscape:window-y="-8" inkscape:zoom="0.72966232" objecttolerance="10" pagecolor="#ffffff" showgrid="false">
	</sodipodi:namedview>
<path id="path1270" class="st0" d="M119.7,151.2c-5.9-0.9-5.9-0.9-7.5-4.3c-0.9-1.9-0.9-2.7,0-1.9c0.5,0.4,0.7,0.5,2.5,0.2
	c1.1-0.2,4.1-1.1,6.6-2.1c4.1-1.5,4.7-1.9,5.5-2.8c0.5-0.6,0.7-1.1,0.5-1.1s-2.5,0.8-5.2,1.8c-5.2,1.9-7.2,2.5-8,2.4
	c-0.7-0.1,0.7-0.8,4.4-2c8.3-2.8,10-3.5,10.8-4.4c0.4-0.5,0.7-1,0.7-1c-0.2-0.2-4.4,1.1-7.8,2.5c-2,0.8-3.7,1.4-3.8,1.4
	s0-0.3,0.3-0.6c0.8-0.9,8.4-3.7,11-4.1c0.9-0.1,1.5-0.4,2-1c0.4-0.4,0.7-0.9,0.6-1c-0.3-0.3-4.1,0.4-6.4,1.2
	c-1.3,0.4-2.3,0.7-2.3,0.6c0.1-1,4.4-2.5,7.7-2.7c1.5-0.1,2.1-0.3,2.6-0.8c0.6-0.6,0.6-0.7,0.2-0.8c-0.7-0.3-3.4-0.3-4.7,0l-1.1,0.3
	l0.6-0.6c0.7-0.7,3.2-1,5.1-0.5c1.1,0.3,1.3,0.2,1.9-0.3c0.4-0.3,0.5-0.7,0.4-0.8c-0.3-0.3-2.7-0.8-3.6-0.8c-0.6,0-0.7-0.1-0.4-0.4
	c0.4-0.5,0.8-0.5,3,0c1.7,0.4,1.8,0.4,2.3,0c0.3-0.3,0.5-0.6,0.4-0.7c-0.1-0.1-0.9-0.4-1.8-0.7c-0.9-0.3-1.7-0.6-1.7-0.8
	c0-0.6,0.9-0.5,2.6,0.2c1.6,0.7,1.8,0.7,2.3,0.3c0.3-0.3,0.5-0.6,0.5-0.7s-0.8-0.5-1.7-0.9c-1.4-0.6-1.6-0.7-1.3-1
	c0.3-0.3,0.8-0.2,2.2,0.4c1.7,0.7,1.8,0.7,2.2,0.2c0.2-0.3,0.4-0.6,0.4-0.7c0-0.1-0.7-0.5-1.6-0.9c-1.2-0.6-1.5-0.8-1.1-0.9
	c0.3-0.1,1.1,0.1,2,0.5l1.5,0.7l0.6-0.6l0.6-0.6l-1.7-0.8c-1.3-0.6-1.7-0.8-1.4-1.1c0.2-0.2,0.8-0.1,2.1,0.4c1,0.4,1.8,0.7,1.8,0.7
	c0,0,0.3-0.4,0.5-0.7c0.5-0.6,0.5-0.6-1.2-1.2c-1.3-0.5-1.6-0.7-1.4-1c0.2-0.3,0.7-0.2,2.1,0.3l1.8,0.7l0.6-0.8
	c0.4-0.6,0.5-0.8,0.2-0.8c-0.2,0-1.1-0.2-1.9-0.4c-1.2-0.3-1.4-0.5-1.2-0.8c0.3-0.3,0.6-0.3,2.2,0.2l1.9,0.6l0.7-0.8
	c0.4-0.4,0.6-0.8,0.5-0.9c-0.1,0-0.9-0.2-1.8-0.4c-1.1-0.2-1.6-0.5-1.6-0.7c0-0.3,0.2-0.4,1.1-0.2c0.6,0.1,1.6,0.2,2.3,0.2
	c1.1,0,1.3-0.1,2-0.9l0.7-1L151,112c-1.2,0.3-3.5-0.1-3.4-0.5c0.1-0.2,1-0.3,2.4-0.3c2.3,0,2.4-0.1,3.1-1c0.9-1.1,1-1.5,0.3-1.2
	c-0.3,0.1-1.4,0.3-2.5,0.4c-1.7,0.1-1.9,0.1-1.6-0.3c0.2-0.2,1-0.5,2-0.6c2.7-0.3,3.6-0.6,4.4-1.9c0.6-0.9,0.6-1.1,0.3-1
	c-0.6,0.2-3.1,0.9-4.2,1.2c-0.7,0.2-0.8,0.1-0.5-0.4c0.2-0.3,0.5-0.6,0.8-0.6s1.5-0.3,2.8-0.7c2.1-0.6,2.4-0.8,3-1.8
	c0.4-0.6,0.7-1.1,0.7-1.1c-0.1,0-1.2,0.4-2.6,0.8c-1.4,0.5-2.6,0.8-2.6,0.7c-0.2-0.2,0.5-1,0.8-1c0.1,0,1.3-0.4,2.7-0.9
	c2-0.7,2.5-1.1,3.1-1.9c0.4-0.6,0.6-1.1,0.6-1.1c-0.1-0.1-1.1,0.3-2.4,0.8c-2.7,1-3.2,1.1-2.5,0.4c0.3-0.3,1.7-0.9,3.1-1.5
	c2.1-0.8,2.7-1.2,3.1-1.9c0.3-0.5,0.5-1,0.4-1c-0.1-0.1-1.1,0.3-2.3,0.8c-1.2,0.5-2.2,0.8-2.3,0.7c-0.4-0.4,0.5-0.9,3-1.9
	c2.2-0.8,2.6-1.1,3-1.9c0.2-0.5,0.3-0.9,0.2-0.9c-0.1,0-1.1,0.3-2.1,0.7c-1,0.4-2,0.7-2,0.6c-0.4-0.4,0.7-1,2.7-1.7
	c1.9-0.6,2.2-0.8,2.7-1.7c0.3-0.5,0.3-1,0.2-1c-0.1,0-1.1,0.3-2.1,0.7c-1.6,0.6-1.8,0.6-1.8,0.2c0.1-0.3,0.9-0.7,2.4-1.3
	c1.9-0.7,2.3-0.9,2.6-1.6c0.4-1,0.2-1-1.8-0.4c-1.8,0.5-1.9,0.5-1.6-0.1c0.2-0.3,0.9-0.7,1.9-0.9c1.7-0.4,2.6-1.1,2.6-1.9
	c0-0.4-0.2-0.4-1.1-0.3c-0.6,0.1-1.3,0.3-1.7,0.4c-0.5,0.1-0.6,0.1-0.5-0.3c0.2-0.4,0.7-0.6,3-1.1c0.5-0.1,0.8-0.4,1-1
	c0.3-0.8,0.2-0.8-0.3-0.8c-0.3,0-1,0.1-1.6,0.3c-0.8,0.2-0.9,0.2-0.8-0.2c0.1-0.5,1-0.8,2.4-0.9c0.5,0,0.9-0.1,0.9-0.1
	c0,0,0.1-0.5,0.3-1l0.3-0.9l-1.4,0.2c-1.2,0.2-1.4,0.1-1.3-0.2c0.1-0.2,0.8-0.5,1.5-0.6c1.7-0.3,1.4-0.2,1.7-1.1
	c0.2-0.8,0.2-0.8-1-0.8c-0.8,0-1.2-0.1-1.2-0.4c0-0.3,0.3-0.4,1.2-0.4c0.9,0,1.3-0.1,1.4-0.4c0.4-1,0.2-1.2-0.8-1.2
	c-0.7,0-1-0.1-1-0.4c0-0.3,0.3-0.4,1.1-0.4c0.7,0,1.2-0.1,1.3-0.4c0.3-0.9,0.2-1.2-0.7-1.4c-1.1-0.2-0.9-0.9,0.2-0.8
	c0.7,0.1,0.9,0,1-0.7c0.2-0.8-0.1-1.2-1-1.2c-0.3,0-0.4-0.2-0.3-0.4c0.1-0.3,0.4-0.4,0.9-0.3c0.7,0.2,0.8,0.1,0.9-0.7
	c0.1-0.7,0-0.9-0.5-1c-0.4-0.1-0.7-0.4-0.7-0.6c0-0.3,0.2-0.4,0.7-0.3c0.5,0.1,0.7,0,0.8-0.5c0.3-0.9,0.2-1-0.4-1.2
	c-0.3-0.1-0.6-0.4-0.6-0.6c0-0.3,0.2-0.4,0.6-0.2c0.8,0.2,1.2-1.2,0.5-1.7c-0.6-0.4-0.6-1,0-0.9c0.6,0.1,0.8-1.5,1-10.6
	c0.2-7.2,0.2-7.2-1,1.7c-3.5,27.8-14.9,50.2-35.9,70.9c-2.9,2.9-3.7,3.5-3,2.5c1.2-1.9,2.1-3.9,3.2-7.6c0.5-1.7,1-3.4,1.1-3.7
	c0.2-0.5,0.2-0.5-0.2,0c-0.2,0.3-1.4,2.1-2.7,4.1c-2.1,3.2-5.8,8.3-7.7,10.6c-0.4,0.5-0.8,0.7-1,0.6c-0.6-0.4-5-7.3-6.9-10.7
	c-5.3-9.8-9-18.7-21.1-51c-4.5-11.9-8.9-23.7-9.9-26.2c-3-7.8-7.4-18.9-7.6-19.1c-0.1-0.1-0.2,0.5-0.2,1.3c0,1.8-0.8,3.5-2.4,4.8
	c-1.4,1.2-1.1,1.3,0.9,0.4c0.8-0.3,1.6-0.5,1.8-0.4c0.6,0.2,4.4,10.1,14.2,36.8c8.8,24.1,13.6,36.6,18.1,47.2c3,7,6.9,15.1,8.9,18.3
	l1.4,2.3l-4,3.9c-4.4,4.4-6.9,6.4-11.4,9.5c-2.4,1.7-3.1,2-3.4,1.7c-0.8-0.8-4.3-10.4-7-19.1c-3.5-11.4-6.7-23.6-13.8-53.5
	c-6-25.1-9.1-37.4-9.8-38.8c-0.7-1.4-1.4-1.8-4-2.3c-6.4-1.1-10.1-5.8-10.1-12.8c0-4.4,1.9-8.7,5.6-12.5c2.9-3,6.2-4.9,10.7-6.1
	C78.7,0.3,80,0.2,83.8,0C91.3-0.2,96,0.7,107,4.3c13.2,4.4,21.2,6,31.5,6.3c6.6,0.2,10.6-0.1,15.5-1.2c7-1.6,13.6-4.7,17.6-8.2
	c0.6-0.5,1.2-0.9,1.3-0.7c3.3,4.5,6.9,11.1,9.2,17l1.4,3.5l-1.4,1.3c-0.8,0.7-2.5,2.1-3.7,3l-2.3,1.7l-1.7-0.7
	c-1.5-0.7-2.1-0.7-5-0.7c-3.1,0-3.4,0.1-6.5,1.2c-8.1,3-9.7,3.5-12,3.6c-2.9,0.2-4.7-0.3-10.1-2.6c-2.3-1-4.8-2-5.6-2.1
	c-1.7-0.4-5.8-0.2-7.6,0.5c-1,0.3-1.5,0.4-2,0.2c-1-0.5,2.8-1.5,5.9-1.7c3.1-0.2,4.3,0.1,9.8,2.5c7.8,3.4,9.5,3.4,18.3,0
	c5.4-2.1,7.2-2.5,10-2.5c1.6,0,2.7,0.2,4.5,0.8c2.2,0.7,2.4,0.8,3,0.4c0.4-0.2,0.6-0.5,0.5-0.7c-0.3-0.4-4.6-2-6.5-2.3
	c-2.6-0.4-4.8,0-11.2,2.4c-9.4,3.5-11,3.5-19.5-0.2c-1.6-0.7-3-1.3-3.1-1.4c-0.5-0.5,2.4,0.3,5,1.4c6.9,2.9,8.7,2.8,18-0.8
	c7.9-3,10.5-3.1,17-0.3c1.3,0.5,1.3,0.5,1.8,0.1c0.2-0.3,0.4-0.6,0.4-0.7c0-0.3-5.1-2.4-6.9-2.9c-3.4-0.9-5.5-0.5-13,2.3
	c-7.3,2.7-10.4,3.1-14.1,1.7c-1.1-0.4-1.1-0.4,1.3-0.2c4.8,0.4,6.5,0.1,12.1-2.1c9.3-3.6,11.4-3.7,18.4-0.8l3.1,1.3l0.6-0.6l0.6-0.6
	l-1.9-0.9c-5.9-2.7-6.8-3-9.9-3c-1.6,0-2.9-0.1-2.9-0.2c0-1,3.7-1.1,6.7-0.2c1.1,0.3,3.2,1.2,4.7,1.8c1.5,0.7,2.9,1.2,3,1.2
	c0.1,0,0.1-0.4-0.1-0.9c-0.3-0.7-0.7-1.1-2.7-2c-2.9-1.4-5.9-2.4-7.7-2.6c-1.1-0.2-1.3-0.3-1-0.6c0.6-0.7,4.1,0.2,8.1,2.1
	c1.1,0.5,2.2,0.9,2.3,0.9s0.1-0.4-0.1-0.9c-0.2-0.7-0.7-1.1-2.3-1.8c-1.7-0.8-4.7-1.9-6.3-2.3c-0.3-0.1-0.3-0.2-0.1-0.4
	c0.4-0.4,1.7-0.1,4.9,1.1c1.5,0.6,2.7,1.1,2.8,1c0,0-0.1-0.5-0.3-1c-0.4-0.8-0.7-1.1-3.1-2c-1.5-0.6-2.8-1.1-3-1.1
	c-0.4,0-0.4-0.6,0.1-0.7c0.2-0.1,1.4,0.2,2.5,0.7c1.2,0.5,2.2,0.9,2.3,0.9s-0.1-0.5-0.4-1.1c-0.5-0.9-0.8-1.1-2.3-1.6
	c-2.4-0.7-2-1.5,0.4-0.8l0.8,0.2l-0.6-1c-0.3-0.5-0.9-1.1-1.2-1.2c-0.4-0.2-0.5-0.4-0.4-0.8c0.1-0.4-0.4-1.6-0.7-1.6
	c-0.1,0-0.3,0.8-0.5,1.9c-0.8,4.3-3.1,8.5-6.2,11.5c-3.4,3.2-7.6,5.1-13.2,6c-4.3,0.7-13.1,0.4-18.6-0.5c-8.7-1.5-16.7-3.8-27.8-7.9
	C94.5,9.1,91,8.3,84.1,8.3c-5.3,0-6.7,0.2-10,1.8c-2.4,1.2-4.7,3-5.6,4.5c-0.5,0.8-0.4,0.8,0.6-0.4c3.1-3.5,8.1-4.8,12.8-3.3
	c4.6,1.4,7.1,4.5,11.3,14.1c0.7,1.6,1.4,3.1,1.5,3.2c0.1,0.1,1.3-2.4,2.7-5.5s2.6-5.8,2.7-6c0.3-0.3,1.4,0,1.4,0.4
	c0,0.3-6.5,15.2-7.2,16.6L94,34.5l-0.4-1c-0.4-0.9-0.4-1.1,0-1.9c0.4-0.9,0.4-1-2.2-6.9c-1.5-3.3-3.1-6.7-3.7-7.5
	c-1.2-1.9-3.4-4-5-4.8c-1.7-0.8-4.5-1.3-5.9-1l-1.1,0.3l1.3,0c3.2,0.1,6.6,2.4,8.3,5.6c0.5,0.9,2.7,6.1,4.9,11.6
	c15.1,37,24.7,59.7,28.8,68.1c5.8,11.8,10.4,15.9,16.5,14.8c1.1-0.2,1.9-0.5,1.9-0.6s-0.2-0.3-0.4-0.3c-0.8,0-2.7-1.2-4.2-2.5
	c-1.6-1.5-4.1-4.5-4.1-4.8c0-0.1,0.2-0.4,0.5-0.5c0.4-0.2,0.7-0.1,1.5,1c1.8,2.6,7.1,7.6,7.4,7.1c0-0.1,1.1-1.8,2.4-3.9
	c9.9-16,15.4-32.9,17.5-54.2c1-9.7,1.6-12.3,3.1-13.4c0.3-0.2,2.6-1.1,5-1.9c3-1,4.6-1.7,5.3-2.3c1.1-0.9,1.6-2.5,1.6-5
	c0-1.3,0.1-1.7,0.4-1.7c1.3,0,2,23.4,0.9,32.5c-2,17.3-6.8,32-15,46.2c-2.5,4.3-7,11-11.7,17.3c-5.2,6.9-6.5,8.9-7.9,11.9
	c-1.9,4.2-2.2,7.1-0.8,10.2l0.7,1.6l-1.6,0.6C132.8,151.4,125.7,152.1,119.7,151.2L119.7,151.2z M121.5,148c1-0.3,1.4-0.6,1.7-1.1
	c0.2-0.4,0.3-0.8,0.2-0.9c-0.1-0.1-1.4,0.3-2.9,0.9c-1.5,0.6-3.2,1.1-3.7,1.2c-0.5,0.1-0.8,0.3-0.7,0.4
	C116.3,148.9,119.7,148.6,121.5,148L121.5,148z M118.5,146.8c4.5-1.5,5.7-2.1,6.4-3.2c0.4-0.6,0.6-1,0.4-1s-1.9,0.6-4,1.4
	c-2.1,0.8-4.8,1.6-6,1.9l-2.2,0.5l0.5,0.8C114.2,148.1,114.7,148,118.5,146.8L118.5,146.8z M110.2,140.8c1.1-0.8,1.7-1.3,1.4-1.2
	c-0.3,0.1-1.2,0.5-2,0.8c-1.8,0.7-2.5,0.5-3.5-1.1c-0.8-1.2-3.6-7.7-6.8-15.5c-0.8-2-1.6-3.7-1.6-3.6c-0.3,0.3,5.2,16.3,6.5,19
	C106.1,142.8,107.2,143.1,110.2,140.8z M112.2,129.9c1.4-0.6,2.1-1.5,2.1-2.6c0-1.8-1.5-3.3-3.4-3.3c-1.2,0-2.1,0.7-2.6,1.9
	c-0.3,0.8-0.3,1.1,0,1.9c0.4,1,0.4,1-0.2,0.7c-1.2-0.6-2.5-1.7-2.5-2.1c0-0.5-0.6-0.4-1,0.3c-0.2,0.4-0.1,0.7,0.8,1.6
	C107.5,130.4,109.8,131,112.2,129.9L112.2,129.9z M109.8,128.1c-1-1,0.1-2.6,1.7-2.4c0.7,0.1,1,0.3,1.2,0.9c0.2,0.7,0.2,0.9-0.4,1.3
	C111.6,128.5,110.3,128.6,109.8,128.1z M107.2,121.7c0.9-0.9,1.1-2.6,0.4-3.6c-0.4-0.5-0.4-0.6,0-0.8c1.1-0.4,1.5-0.2,2,1.2
	c0.5,1.3,0.6,1.4,1.3,1.4c0.5,0,0.8-0.1,0.7-0.4c-0.1-0.2-0.4-1.2-0.8-2.2c-0.4-1-0.7-1.9-0.7-1.9c0-0.1-1.2,0.2-2.6,0.5
	c-2.4,0.6-2.5,0.7-2.4,1.2c0.1,0.3,0.5,0.9,0.9,1.2c0.8,0.8,0.8,1.3,0.1,2.1c-1.3,1.3-3,0.3-2.7-1.7c0.1-0.6,0.1-1.1,0-1.1
	c-0.1,0-0.5-0.1-0.8-0.2c-1.4-0.4-1,3.3,0.6,4.5c0.4,0.3,1.1,0.5,2,0.5C106.2,122.5,106.5,122.4,107.2,121.7L107.2,121.7z
	 M108.7,112.2c0.1-0.1-0.2-1.3-0.7-2.7c-0.8-2.2-0.9-2.4-1.5-2.3c-0.9,0.3-0.8,0.2-0.2,2.1l0.6,1.7l-0.8-0.2c-4-1-7-1.3-7.3-0.6
	c-0.1,0.2,0,0.7,0.1,1.1c0.3,0.7,0.3,0.7,1.5,0.5c1.3-0.3,3-0.1,5.2,0.5C107,112.6,108.2,112.6,108.7,112.2z M101.3,104.8
	c2.2-0.8,4.1-1.5,4.2-1.6s0-0.5-0.3-0.8l-0.5-0.6l-3.9,1.4c-2.2,0.8-4,1.5-4,1.5c-0.1,0.1,0.2,1.5,0.4,1.5
	C97.2,106.2,99.1,105.6,101.3,104.8z M102.2,97.4c0.8-0.6,1-1.8,0.4-3.3l-0.3-0.9l-1.6,0.6c-0.9,0.3-1.9,0.7-2.2,0.8
	c-0.6,0.2-0.6,0.3-0.2,1.3c0.2,0.6,0.6,1.3,0.9,1.6C99.8,98.2,101.3,98.2,102.2,97.4L102.2,97.4z M99.3,96.4
	c-0.4-0.8-0.4-0.8,0.8-1.3c1.6-0.7,2-0.6,2,0.4C102.1,96.8,99.9,97.5,99.3,96.4z M97.7,97.1c0.2-0.5,0-0.7-0.7-0.7
	c-0.5,0-0.7,0.6-0.3,0.9C97,97.6,97.5,97.5,97.7,97.1z M99.9,90.1c0.1,0,0.3,0.3,0.4,0.7c0.2,0.8,0.5,0.9,0.9,0.4
	c0.4-0.5-0.8-3.7-1.4-3.8c-0.4-0.1-0.5,0-0.3,0.7c0.2,0.8,0.1,0.8-1.4,1.3c-3.1,1-3.6,1.3-3.3,1.9c0.3,0.5,0.4,0.5,2.6-0.3
	C98.6,90.5,99.7,90.1,99.9,90.1z M96,86.3c0.3-0.2,0.5-0.8,0.5-1.3c0-0.5,0.2-1.1,0.4-1.4c0.3-0.5,0.5-0.5,0.9-0.1
	c0.3,0.2,0.4,0.6,0.3,1c-0.2,0.7,0.6,1.2,1,0.6c0.3-0.5,0.3-1-0.2-1.9c-1-1.9-3.5-1.3-3.5,0.9c0,1.1-0.5,1.7-1.3,1.5
	c-0.4-0.1-0.5-0.4-0.5-1.1c0-0.7-0.1-1.1-0.4-1.2c-0.7-0.2-0.9,0.1-0.9,1.2c0,1.4,1.4,2.8,2.5,2.5C95.2,86.8,95.7,86.5,96,86.3z
	 M91.8,80.2c0-0.2-0.1-0.7-0.2-1.1c-0.2-0.6-0.1-0.8,0.7-1c0.8-0.3,0.9-0.2,1.2,0.7c0.3,0.7,0.5,0.9,0.8,0.7
	c0.3-0.2,0.3-0.4,0.1-1.1c-0.3-0.8-0.2-0.9,0.4-1.2c0.6-0.3,0.7-0.2,1.1,0.7c0.4,0.9,1.3,1.4,1.3,0.7c0-0.7-1-2.9-1.3-2.9
	c-0.2,0-1.6,0.4-3,1c-2.9,1.1-2.9,1.1-2.1,3.1C91.1,80.8,91.9,81.1,91.8,80.2z M78.3,42.1c-0.6-4-0.4-4.6,2.1-6.3
	c2.2-1.5,2.3-1.8,1.8-3.5c-0.4-1.5-1.5-4.1-1.7-4.1c-0.1,0-0.6,0.6-1.3,1.3c-1.3,1.4-2.6,2.2-4.6,2.7l-1.3,0.3l0.7,0.7
	c0.4,0.4,1,1.3,1.4,2.2c0.7,1.4,1,2.5,2.4,8.8C78.8,47.7,79,46.5,78.3,42.1z M76,25.2c1.9-0.8,3.1-3.3,2.5-5.2
	c-0.4-1.4-1.2-2.4-2.4-2.9l-0.9-0.5l0.9,0c0.5,0,1.4,0.2,2.1,0.4l1.2,0.4l-0.7-0.7c-2.8-3-7.9-2.4-10.1,1.1c-0.6,1-1.2,3.8-0.8,3.8
	c0.1,0,0.2-0.1,0.2-0.3c0-0.4,1.7-2.8,2-2.8c0.1,0,0,0.5-0.2,1.2C68.6,23.5,72.3,26.8,76,25.2L76,25.2z M126.2,103.8
	c-0.4-0.6-0.4-0.8,0.1-1.8l0.6-1.1l-1-1.5c-0.7-1.1-0.9-1.6-0.6-1.8c0.5-0.5,1-0.4,1.6,0.7c0.3,0.6,0.6,1,0.7,0.9
	c0,0,6.3-14.4,14-31.8c7.6-17.4,14-31.8,14.1-31.9c0.1-0.1,0.5-0.1,0.9,0c0.7,0.2,0.6,0.5-14.4,34.7c-8.3,18.9-15.2,34.4-15.3,34.5
	C126.7,104.5,126.5,104.2,126.2,103.8z M122.6,97.9c-0.4-0.8-0.4-0.9,0.1-2.1l0.5-1.2l-0.9-1.7c-0.7-1.3-0.8-1.8-0.5-2.1
	c0.6-0.7,1-0.5,1.5,0.7c0.3,0.6,0.6,1.1,0.7,1c0.1-0.1,5.8-13.1,12.7-28.8L149.4,35h0.8c0.5,0,0.8,0.1,0.8,0.3
	c-0.1,0.4-27.3,62.5-27.6,63C123.1,98.6,123,98.6,122.6,97.9L122.6,97.9z M119.2,91c-0.4-0.8-0.4-0.9,0.1-2l0.6-1.1L119,86
	c-0.8-1.8-0.8-1.9-0.4-2.3c0.7-0.5,0.8-0.5,1.4,0.8c0.3,0.6,0.6,1.1,0.7,1.1c0.1,0,5.2-11.6,11.4-25.8
	c11.2-25.6,11.3-25.8,12.1-25.8c0.6,0,0.8,0.1,0.7,0.5c-0.2,0.7-24.8,56.8-25,57.1C119.7,91.8,119.4,91.5,119.2,91L119.2,91z
	 M115.9,84.2c-0.4-0.9-0.3-1.2,0.3-2.7c0.3-0.8,0.3-1.1-0.4-2.5c-0.7-1.5-0.9-2.4-0.6-2.4c0.1,0,0.3-0.1,0.5-0.2
	c0.3-0.1,0.6,0.2,1,1c0.3,0.6,0.7,1.1,0.7,1.1c0.1-0.1,4.6-10.4,10.1-22.9c5.5-12.5,10.1-22.8,10.1-22.9c0.2-0.2,1.6,0.2,1.5,0.4
	c-0.1,0.1-5.2,11.7-11.3,25.8c-6.2,14.1-11.3,25.7-11.4,25.9S116.1,84.7,115.9,84.2z M112.7,77.1c-0.4-1-0.4-1.1,0.1-2.3l0.5-1.2
	l-0.8-1.9c-0.8-1.8-0.8-2-0.3-2.3c0.7-0.5,0.8-0.5,1.3,0.9c0.3,0.7,0.6,1.2,0.7,1.1c0.1-0.1,4.2-9.2,9-20.2c4.8-11,8.8-20,8.9-20.1
	c0.1-0.1,0.5,0,0.8,0.1l0.7,0.2l-10.1,23.1c-5.6,12.7-10.2,23.2-10.2,23.4C113.2,78,113,77.7,112.7,77.1L112.7,77.1z M109.5,69.9
	c-0.3-0.7-0.3-1.1,0.1-2.2l0.5-1.3l-0.9-1.9c-0.8-1.8-0.8-1.9-0.3-2.2c0.8-0.4,0.8-0.4,1.5,1c0.3,0.7,0.6,1.2,0.7,1.2
	c0-0.1,3.4-7.8,7.6-17.1c4.1-9.4,7.6-17.4,7.8-17.8c0.3-0.7,0.4-0.7,1-0.4c0.5,0.2,0.6,0.5,0.5,0.8c-0.3,1-17.7,40.4-17.9,40.7
	C109.9,70.6,109.7,70.3,109.5,69.9z M106.3,62.6c-0.5-0.9-0.4-1,0.1-2.1l0.6-1.1l-0.9-2c-0.8-1.9-0.9-2-0.4-2.4
	c0.7-0.5,0.8-0.5,1.3,0.9c0.3,0.7,0.6,1.3,0.7,1.3c0.1,0,3-6.4,6.4-14.2c3.4-7.8,6.4-14.7,6.7-15.4c0.5-1.1,0.6-1.2,1.1-0.9
	c0.3,0.2,0.7,0.4,0.7,0.4c0.1,0.1-15.7,36.2-15.8,36.4C106.8,63.6,106.5,63.2,106.3,62.6L106.3,62.6z M103.1,55.4
	c-0.4-1-0.4-1.1,0-1.9c0.6-1.1,0.6-1.4-0.4-3.5l-0.8-1.8l0.6-0.4c0.6-0.4,0.6-0.4,1.3,1l0.7,1.4l5.7-12.9c3.1-7.1,5.8-12.9,5.9-13
	c0.1,0,0.5,0.1,0.8,0.3c0.5,0.3,0,1.4-6,15.3c-3.6,8.2-6.7,15.3-6.9,15.8l-0.4,0.8L103.1,55.4z M99.9,48.1c-0.3-0.8-0.3-1.2,0.1-2.1
	c0.4-1.1,0.4-1.2-0.4-2.9c-1-2.1-1-2.4-0.3-2.8c0.5-0.3,0.6-0.2,1.2,1.1c0.3,0.8,0.7,1.4,0.8,1.4c0.1,0,2.2-4.8,4.8-10.6
	c2.5-5.8,4.8-10.6,4.9-10.6c0.2,0,0.5,0.2,0.8,0.4c0.4,0.3-0.2,1.9-5.2,13.3c-3.1,7.1-5.8,13.1-6,13.3
	C100.3,49,100.2,48.9,99.9,48.1L99.9,48.1z M96.8,41c-0.4-0.9-0.4-1.4,0.1-2.3c0.4-0.7,0.3-0.9-0.6-2.8c-0.5-1.1-0.9-2.1-0.9-2.1
	c0,0,0.4-0.2,0.7-0.4c0.6-0.3,0.7-0.2,1.2,1.1c0.3,0.8,0.7,1.4,0.8,1.3c0.1-0.1,1.1-2.2,5.7-12.8c1.7-3.8,1.8-4,2.4-3.7
	c0.3,0.2,0.6,0.4,0.7,0.4c0.1,0.1-9.2,21.6-9.5,21.9C97.2,41.6,97,41.4,96.8,41L96.8,41z M147.9,32.9c-2.2-0.3-3-0.6-7.4-2.5
	c-4.7-2.1-6.6-2.6-9.4-2.5c-2,0.1-2.9-0.1-2.5-0.5c0.1-0.1,1.2-0.2,2.4-0.3c2.8-0.2,4.6,0.3,10.1,2.6c2.4,1,5.2,2,6.4,2.3
	c2.9,0.7,5.1,0.3,11.2-2c7-2.6,7.5-2.8,10.5-2.8c2.9,0,5.3,0.5,4.4,1c-0.3,0.2-0.9,0.2-1.7,0c-2.9-0.7-5.7-0.2-12,2.2
	C153.2,33,151.2,33.4,147.9,32.9L147.9,32.9z M160,32.2c3.4-1.4,9.7-3.2,9.1-2.5c-0.3,0.3-9.4,3.3-10.1,3.3
	C158.5,32.9,158.8,32.7,160,32.2L160,32.2z M121.9,24.8c0-0.3,4-1.9,5.9-2.3c1-0.2,1.6-0.2,2.2,0c0.8,0.3,0.8,0.3,0.1,0.3
	c-0.4,0-2.2,0.5-4,1.1C122.5,25.1,121.9,25.2,121.9,24.8z M118.9,23.3c-0.1-0.2,0.1-0.4,0.3-0.5c0.3-0.1,1.5-0.6,2.6-1
	c1.4-0.5,2.3-0.8,2.8-0.6c0.6,0.2,0.3,0.4-2.1,1.3C119.5,23.7,119.2,23.8,118.9,23.3z M115.5,21.8c-0.4-0.3-0.5-0.4-0.1-0.4
	c0.3,0,1.4-0.3,2.6-0.7c1.4-0.5,2.3-0.6,2.6-0.5c0.4,0.2,0.2,0.3-0.6,0.7c-0.6,0.2-1.7,0.6-2.5,0.9
	C116.2,22.1,115.9,22.1,115.5,21.8L115.5,21.8z M114.1,19.3c1.6-0.6,3-0.7,3-0.2c0,0.2-3.1,0.9-4.1,0.8
	C112.7,19.9,113.2,19.6,114.1,19.3z"/>
<g id="g1346" transform="matrix(0.64453726,0,0,0.64453726,-98.991661,167.36419)">
	<path id="path43" d="M193,27.3v1.1c0,0,6.4-0.3,6.4,6.7v14.5c0,0.3,0,0.5,0,0.8V52c-4.2,2.3-8.8,3.5-13.6,3.4
		c-4.5,0-18.9-1-18.9-29.6S183.3-4.3,186-4.6c1.6-0.2,8.8-0.3,14.3,4.4c5.5,4.7,6.5,12.1,6.5,12.1h1.7V-5.8h-0.9
		c-0.9,1-2.2,1.5-3.6,1.4c-3.2,0-8.4-4.1-17.8-3.8c-19.1,0.6-32.6,14.8-32.6,35.6c0,20.2,16,32.2,31.8,32.2c2.2,0,4.4-0.1,6.5-0.4
		h0.1c1-0.2,2-0.2,3.2-0.5h0.2h0c1.4-0.3,2.7-0.6,3.9-0.9c3-0.5,7.1-0.8,10.3,0.7v-9.3l0,0V48l0,0V35c0-7,6.4-6.7,6.4-6.7v-1.1H193z
		 M519.3,25.2c-4.2-1.5-14.4-3.3-14.4-11.2c0-5.9,5.6-9.3,10.6-9.3c4.3-0.1,8.3,1.7,11,5c1.6,2,2.8,4.2,3.5,6.6h1l-0.1-12.8h-1
		c-0.6,0.7-1.5,1.1-2.4,1.1c-3,0-4-2.9-12.4-2.9c-8.4,0-16.7,7.4-16.7,16.5s8.5,13.6,15.6,15.9c7.8,2.6,13.8,5.8,13.8,11.7
		s-4.5,9.3-10.4,9.3s-9.2-2.2-12.7-6.1c-2.2-2.7-3.8-5.9-4.4-9.4H499v18.4h1.2c0.6-1.2,1.8-2,3.1-2.1c3.5-0.3,7,2.8,14.1,2.8
		c7.5,0,16.7-5.4,16.7-16.7S523.9,27,519.3,25.2L519.3,25.2z M479.4,25.2C475.3,23.7,465,22,465,14.1c0-5.9,5.6-9.3,10.6-9.3
		c4.3-0.1,8.3,1.7,11,5c1.6,2,2.8,4.2,3.5,6.6h1l-0.1-12.8h-1c-0.6,0.7-1.5,1.1-2.4,1.1c-3,0-4-2.9-12.4-2.9
		c-8.4,0-16.8,7.4-16.8,16.6s8.5,13.6,15.6,15.9c7.8,2.6,13.8,5.8,13.8,11.7s-4.4,9.2-10.4,9.2s-9.2-2.2-12.7-6.1
		c-2.2-2.7-3.8-5.9-4.4-9.4h-1.3v18.4h1.2c0.6-1.2,1.8-2,3.1-2.1c3.5-0.3,7,2.8,14.1,2.8c7.5,0,16.7-5.4,16.7-16.7
		S484.1,27,479.4,25.2L479.4,25.2z M453.4,44H452c-0.4,2.3-1.4,4.4-2.9,6.2c-2.3,2.5-5.6,4.1-10.3,4.1h-9.3V30.9h4.3
		c2,0,7.1,0.1,8.8,1.5c1.5,1.1,2.5,2.8,2.7,4.6h0.8V20.7h-0.8c-0.2,1.9-1.2,3.6-2.7,4.7c-1.6,1.2-6.8,1.3-8.8,1.3h-4.3V7.2h5.7
		c2.9,0,9-0.2,11.6,1.8c3.3,2.4,3.5,5.2,3.5,5.2h0.8V3.7h-36.4v1.1c0,0,6-0.3,6,6.7v38.9c0,7-6,6.7-6,6.7v1.1h36L453.4,44z
		 M253.4,3.7v1.1c1,0,7.1,0.6,7.1,6.8v29.1c0,6-2.9,15.6-12.8,15.6c-11.4,0-13.7-8.8-13.7-13.7v-0.1l0,0v-31c0-7.1,6.5-6.8,6.5-6.8
		V3.7h-23.2v1.1c0,0,6.5-0.3,6.5,6.8v31l0,0v0.7c0,4.3,1.8,16.7,21,16.7c19,0,19.4-14.9,19.4-21V11.6c0-5.9,6.3-6.8,7.2-6.8V3.7
		H253.4L253.4,3.7z M393.4,3.7v1.1c0,0,7.2,0.6,7.2,6.8v27.6L374.9,3.7h-17.2v1.1c0,0,4.9,0.4,9.4,7c0.3,0.4,34,46.5,34,46.5h3.3
		V11.6c0-5.9,7.1-6.8,7.1-6.8V3.7L393.4,3.7L393.4,3.7z M368.9,50.3V18.2l-3.8-5.4v37.5c0,5.9-7.1,6.7-7.1,6.7v1.1h18.1V57
		C376.1,57,368.9,56.5,368.9,50.3z M337.6,3.7v1.1c0,0,7.2,0.6,7.2,6.8v27.6L319.1,3.7h-17.2v1.1c0,0,4.9,0.4,9.4,7
		c0.3,0.4,34,46.5,34,46.5h3.3V11.6c0-5.9,7.1-6.8,7.1-6.8V3.7L337.6,3.7L337.6,3.7z M313.1,50.3V18.2l-3.8-5.4v37.5
		c0,5.9-7.1,6.7-7.1,6.7v1.1h18.1V57C320.3,57,313.1,56.5,313.1,50.3z M290.7,11.5c0-7,6-6.7,6-6.7V3.7h-21.2v1.1c0,0,6-0.3,6,6.7
		v38.9c0,7-6,6.7-6,6.7v1.1h21.2v-1.1c0,0-6,0.3-6-6.7V11.5z"/>
</g>
</svg>
