<svg xmlns="http://www.w3.org/2000/svg" viewBox="0 0 245.3 206"><path d="M119.7 151.2c-5.9-.9-5.9-.9-7.5-4.3-.9-1.9-.9-2.7 0-1.9.5.4.7.5 2.5.2 1.1-.2 4.1-1.1 6.6-2.1 4.1-1.5 4.7-1.9 5.5-2.8.5-.6.7-1.1.5-1.1s-2.5.8-5.2 1.8c-5.2 1.9-7.2 2.5-8 2.4-.7-.1.7-.8 4.4-2 8.3-2.8 10-3.5 10.8-4.4.4-.5.7-1 .7-1-.2-.2-4.4 1.1-7.8 2.5-2 .8-3.7 1.4-3.8 1.4s0-.3.3-.6c.8-.9 8.4-3.7 11-4.1.9-.1 1.5-.4 2-1 .4-.4.7-.9.6-1-.3-.3-4.1.4-6.4 1.2-1.3.4-2.3.7-2.3.6.1-1 4.4-2.5 7.7-2.7 1.5-.1 2.1-.3 2.6-.8.6-.6.6-.7.2-.8-.7-.3-3.4-.3-4.7 0l-1.1.3.6-.6c.7-.7 3.2-1 5.1-.5 1.1.3 1.3.2 1.9-.3.4-.3.5-.7.4-.8-.3-.3-2.7-.8-3.6-.8-.6 0-.7-.1-.4-.4.4-.5.8-.5 3 0 1.7.4 1.8.4 2.3 0 .3-.3.5-.6.4-.7-.1-.1-.9-.4-1.8-.7-.9-.3-1.7-.6-1.7-.8 0-.6.9-.5 2.6.2 1.6.7 1.8.7 2.3.3.3-.3.5-.6.5-.7s-.8-.5-1.7-.9c-1.4-.6-1.6-.7-1.3-1 .3-.3.8-.2 2.2.4 1.7.7 1.8.7 2.2.2.2-.3.4-.6.4-.7 0-.1-.7-.5-1.6-.9-1.2-.6-1.5-.8-1.1-.9.3-.1 1.1.1 2 .5l1.5.7.6-.6.6-.6-1.7-.8c-1.3-.6-1.7-.8-1.4-1.1.2-.2.8-.1 2.1.4 1 .4 1.8.7 1.8.7s.3-.4.5-.7c.5-.6.5-.6-1.2-1.2-1.3-.5-1.6-.7-1.4-1 .2-.3.7-.2 2.1.3l1.8.7.6-.8c.4-.6.5-.8.2-.8-.2 0-1.1-.2-1.9-.4-1.2-.3-1.4-.5-1.2-.8.3-.3.6-.3 2.2.2l1.9.6.7-.8c.4-.4.6-.8.5-.9-.1 0-.9-.2-1.8-.4-1.1-.2-1.6-.5-1.6-.7 0-.3.2-.4 1.1-.2.6.1 1.6.2 2.3.2 1.1 0 1.3-.1 2-.9l.7-1h-1c-1.2.3-3.5-.1-3.4-.5.1-.2 1-.3 2.4-.3 2.3 0 2.4-.1 3.1-1 .9-1.1 1-1.5.3-1.2-.3.1-1.4.3-2.5.4-1.7.1-1.9.1-1.6-.3.2-.2 1-.5 2-.6 2.7-.3 3.6-.6 4.4-1.9.6-.9.6-1.1.3-1-.6.2-3.1.9-4.2 1.2-.7.2-.8.1-.5-.4.2-.3.5-.6.8-.6s1.5-.3 2.8-.7c2.1-.6 2.4-.8 3-1.8.4-.6.7-1.1.7-1.1-.1 0-1.2.4-2.6.8-1.4.5-2.6.8-2.6.7-.2-.2.5-1 .8-1 .1 0 1.3-.4 2.7-.9 2-.7 2.5-1.1 3.1-1.9.4-.6.6-1.1.6-1.1-.1-.1-1.1.3-2.4.8-2.7 1-3.2 1.1-2.5.4.3-.3 1.7-.9 3.1-1.5 2.1-.8 2.7-1.2 3.1-1.9.3-.5.5-1 .4-1-.1-.1-1.1.3-2.3.8-1.2.5-2.2.8-2.3.7-.4-.4.5-.9 3-1.9 2.2-.8 2.6-1.1 3-1.9.2-.5.3-.9.2-.9-.1 0-1.1.3-2.1.7-1 .4-2 .7-2 .6-.4-.4.7-1 2.7-1.7 1.9-.6 2.2-.8 2.7-1.7.3-.5.3-1 .2-1-.1 0-1.1.3-2.1.7-1.6.6-1.8.6-1.8.2.1-.3.9-.7 2.4-1.3 1.9-.7 2.3-.9 2.6-1.6.4-1 .2-1-1.8-.4-1.8.5-1.9.5-1.6-.1.2-.3.9-.7 1.9-.9 1.7-.4 2.6-1.1 2.6-1.9 0-.4-.2-.4-1.1-.3-.6.1-1.3.3-1.7.4-.5.1-.6.1-.5-.3.2-.4.7-.6 3-1.1.5-.1.8-.4 1-1 .3-.8.2-.8-.3-.8-.3 0-1 .1-1.6.3-.8.2-.9.2-.8-.2.1-.5 1-.8 2.4-.9.5 0 .9-.1.9-.1s.1-.5.3-1l.3-.9-1.4.2c-1.2.2-1.4.1-1.3-.2.1-.2.8-.5 1.5-.6 1.7-.3 1.4-.2 1.7-1.1.2-.8.2-.8-1-.8-.8 0-1.2-.1-1.2-.4 0-.3.3-.4 1.2-.4.9 0 1.3-.1 1.4-.4.4-1 .2-1.2-.8-1.2-.7 0-1-.1-1-.4 0-.3.3-.4 1.1-.4.7 0 1.2-.1 1.3-.4.3-.9.2-1.2-.7-1.4-1.1-.2-.9-.9.2-.8.7.1.9 0 1-.7.2-.8-.1-1.2-1-1.2-.3 0-.4-.2-.3-.4.1-.3.4-.4.9-.3.7.2.8.1.9-.7.1-.7 0-.9-.5-1-.4-.1-.7-.4-.7-.6 0-.3.2-.4.7-.3.5.1.7 0 .8-.5.3-.9.2-1-.4-1.2-.3-.1-.6-.4-.6-.6 0-.3.2-.4.6-.2.8.2 1.2-1.2.5-1.7-.6-.4-.6-1 0-.9.6.1.8-1.5 1-10.6.2-7.2.2-7.2-1 1.7-3.5 27.8-14.9 50.2-35.9 70.9-2.9 2.9-3.7 3.5-3 2.5 1.2-1.9 2.1-3.9 3.2-7.6.5-1.7 1-3.4 1.1-3.7.2-.5.2-.5-.2 0-.2.3-1.4 2.1-2.7 4.1-2.1 3.2-5.8 8.3-7.7 10.6-.4.5-.8.7-1 .6-.6-.4-5-7.3-6.9-10.7-5.3-9.8-9-18.7-21.1-51-4.5-11.9-8.9-23.7-9.9-26.2-3-7.8-7.4-18.9-7.6-19.1-.1-.1-.2.5-.2 1.3 0 1.8-.8 3.5-2.4 4.8-1.4 1.2-1.1 1.3.9.4.8-.3 1.6-.5 1.8-.4.6.2 4.4 10.1 14.2 36.8 8.8 24.1 13.6 36.6 18.1 47.2 3 7 6.9 15.1 8.9 18.3l1.4 2.3-4 3.9c-4.4 4.4-6.9 6.4-11.4 9.5-2.4 1.7-3.1 2-3.4 1.7-.8-.8-4.3-10.4-7-19.1-3.5-11.4-6.7-23.6-13.8-53.5-6-25.1-9.1-37.4-9.8-38.8-.7-1.4-1.4-1.8-4-2.3-6.4-1.1-10.1-5.8-10.1-12.8 0-4.4 1.9-8.7 5.6-12.5 2.9-3 6.2-4.9 10.7-6.1C78.7.3 80 .2 83.8 0 91.3-.2 96 .7 107 4.3c13.2 4.4 21.2 6 31.5 6.3 6.6.2 10.6-.1 15.5-1.2 7-1.6 13.6-4.7 17.6-8.2.6-.5 1.2-.9 1.3-.7 3.3 4.5 6.9 11.1 9.2 17l1.4 3.5-1.4 1.3c-.8.7-2.5 2.1-3.7 3l-2.3 1.7-1.7-.7c-1.5-.7-2.1-.7-5-.7-3.1 0-3.4.1-6.5 1.2-8.1 3-9.7 3.5-12 3.6-2.9.2-4.7-.3-10.1-2.6-2.3-1-4.8-2-5.6-2.1-1.7-.4-5.8-.2-7.6.5-1 .3-1.5.4-2 .2-1-.5 2.8-1.5 5.9-1.7 3.1-.2 4.3.1 9.8 2.5 7.8 3.4 9.5 3.4 18.3 0 5.4-2.1 7.2-2.5 10-2.5 1.6 0 2.7.2 4.5.8 2.2.7 2.4.8 3 .4.4-.2.6-.5.5-.7-.3-.4-4.6-2-6.5-2.3-2.6-.4-4.8 0-11.2 2.4-9.4 3.5-11 3.5-19.5-.2-1.6-.7-3-1.3-3.1-1.4-.5-.5 2.4.3 5 1.4 6.9 2.9 8.7 2.8 18-.8 7.9-3 10.5-3.1 17-.3 1.3.5 1.3.5 1.8.1.2-.3.4-.6.4-.7 0-.3-5.1-2.4-6.9-2.9-3.4-.9-5.5-.5-13 2.3-7.3 2.7-10.4 3.1-14.1 1.7-1.1-.4-1.1-.4 1.3-.2 4.8.4 6.5.1 12.1-2.1 9.3-3.6 11.4-3.7 18.4-.8l3.1 1.3.6-.6.6-.6-1.9-.9c-5.9-2.7-6.8-3-9.9-3-1.6 0-2.9-.1-2.9-.2 0-1 3.7-1.1 6.7-.2 1.1.3 3.2 1.2 4.7 1.8 1.5.7 2.9 1.2 3 1.2.1 0 .1-.4-.1-.9-.3-.7-.7-1.1-2.7-2-2.9-1.4-5.9-2.4-7.7-2.6-1.1-.2-1.3-.3-1-.6.6-.7 4.1.2 8.1 2.1 1.1.5 2.2.9 2.3.9s.1-.4-.1-.9c-.2-.7-.7-1.1-2.3-1.8-1.7-.8-4.7-1.9-6.3-2.3-.3-.1-.3-.2-.1-.4.4-.4 1.7-.1 4.9 1.1 1.5.6 2.7 1.1 2.8 1 0 0-.1-.5-.3-1-.4-.8-.7-1.1-3.1-2-1.5-.6-2.8-1.1-3-1.1-.4 0-.4-.6.1-.7.2-.1 1.4.2 2.5.7 1.2.5 2.2.9 2.3.9s-.1-.5-.4-1.1c-.5-.9-.8-1.1-2.3-1.6-2.4-.7-2-1.5.4-.8l.8.2-.6-1c-.3-.5-.9-1.1-1.2-1.2-.4-.2-.5-.4-.4-.8.1-.4-.4-1.6-.7-1.6-.1 0-.3.8-.5 1.9-.8 4.3-3.1 8.5-6.2 11.5-3.4 3.2-7.6 5.1-13.2 6-4.3.7-13.1.4-18.6-.5-8.7-1.5-16.7-3.8-27.8-7.9C94.5 9.1 91 8.3 84.1 8.3c-5.3 0-6.7.2-10 1.8-2.4 1.2-4.7 3-5.6 4.5-.5.8-.4.8.6-.4 3.1-3.5 8.1-4.8 12.8-3.3 4.6 1.4 7.1 4.5 11.3 14.1.7 1.6 1.4 3.1 1.5 3.2.1.1 1.3-2.4 2.7-5.5s2.6-5.8 2.7-6c.3-.3 1.4 0 1.4.4 0 .3-6.5 15.2-7.2 16.6l-.3.8-.4-1c-.4-.9-.4-1.1 0-1.9.4-.9.4-1-2.2-6.9-1.5-3.3-3.1-6.7-3.7-7.5-1.2-1.9-3.4-4-5-4.8-1.7-.8-4.5-1.3-5.9-1l-1.1.3H77c3.2.1 6.6 2.4 8.3 5.6.5.9 2.7 6.1 4.9 11.6 15.1 37 24.7 59.7 28.8 68.1 5.8 11.8 10.4 15.9 16.5 14.8 1.1-.2 1.9-.5 1.9-.6s-.2-.3-.4-.3c-.8 0-2.7-1.2-4.2-2.5-1.6-1.5-4.1-4.5-4.1-4.8 0-.1.2-.4.5-.5.4-.2.7-.1 1.5 1 1.8 2.6 7.1 7.6 7.4 7.1 0-.1 1.1-1.8 2.4-3.9 9.9-16 15.4-32.9 17.5-54.2 1-9.7 1.6-12.3 3.1-13.4.3-.2 2.6-1.1 5-1.9 3-1 4.6-1.7 5.3-2.3 1.1-.9 1.6-2.5 1.6-5 0-1.3.1-1.7.4-1.7 1.3 0 2 23.4.9 32.5-2 17.3-6.8 32-15 46.2-2.5 4.3-7 11-11.7 17.3-5.2 6.9-6.5 8.9-7.9 11.9-1.9 4.2-2.2 7.1-.8 10.2l.7 1.6-1.6.6c-5.2 2.3-12.3 3-18.3 2.1zm1.8-3.2c1-.3 1.4-.6 1.7-1.1.2-.4.3-.8.2-.9-.1-.1-1.4.3-2.9.9-1.5.6-3.2 1.1-3.7 1.2-.5.1-.8.3-.7.4.2.4 3.6.1 5.4-.5zm-3-1.2c4.5-1.5 5.7-2.1 6.4-3.2.4-.6.6-1 .4-1s-1.9.6-4 1.4c-2.1.8-4.8 1.6-6 1.9l-2.2.5.5.8c.6.9 1.1.8 4.9-.4zm-8.3-6c1.1-.8 1.7-1.3 1.4-1.2-.3.1-1.2.5-2 .8-1.8.7-2.5.5-3.5-1.1-.8-1.2-3.6-7.7-6.8-15.5-.8-2-1.6-3.7-1.6-3.6-.3.3 5.2 16.3 6.5 19 1.9 3.6 3 3.9 6 1.6zm2-10.9c1.4-.6 2.1-1.5 2.1-2.6 0-1.8-1.5-3.3-3.4-3.3-1.2 0-2.1.7-2.6 1.9-.3.8-.3 1.1 0 1.9.4 1 .4 1-.2.7-1.2-.6-2.5-1.7-2.5-2.1 0-.5-.6-.4-1 .3-.2.4-.1.7.8 1.6 2.1 2.1 4.4 2.7 6.8 1.6zm-2.4-1.8c-1-1 .1-2.6 1.7-2.4.7.1 1 .3 1.2.9.2.7.2.9-.4 1.3-.7.6-2 .7-2.5.2zm-2.6-6.4c.9-.9 1.1-2.6.4-3.6-.4-.5-.4-.6 0-.8 1.1-.4 1.5-.2 2 1.2.5 1.3.6 1.4 1.3 1.4.5 0 .8-.1.7-.4-.1-.2-.4-1.2-.8-2.2-.4-1-.7-1.9-.7-1.9 0-.1-1.2.2-2.6.5-2.4.6-2.5.7-2.4 1.2.1.3.5.9.9 1.2.8.8.8 1.3.1 2.1-1.3 1.3-3 .3-2.7-1.7.1-.6.1-1.1 0-1.1s-.5-.1-.8-.2c-1.4-.4-1 3.3.6 4.5.4.3 1.1.5 2 .5 1 .1 1.3 0 2-.7zm1.5-9.5c.1-.1-.2-1.3-.7-2.7-.8-2.2-.9-2.4-1.5-2.3-.9.3-.8.2-.2 2.1l.6 1.7-.8-.2c-4-1-7-1.3-7.3-.6-.1.2 0 .7.1 1.1.3.7.3.7 1.5.5 1.3-.3 3-.1 5.2.5 1.4.3 2.6.3 3.1-.1zm-7.4-7.4c2.2-.8 4.1-1.5 4.2-1.6s0-.5-.3-.8l-.5-.6-3.9 1.4c-2.2.8-4 1.5-4 1.5-.1.1.2 1.5.4 1.5 0 0 1.9-.6 4.1-1.4zm.9-7.4c.8-.6 1-1.8.4-3.3l-.3-.9-1.6.6c-.9.3-1.9.7-2.2.8-.6.2-.6.3-.2 1.3.2.6.6 1.3.9 1.6.6.7 2.1.7 3-.1zm-2.9-1c-.4-.8-.4-.8.8-1.3 1.6-.7 2-.6 2 .4 0 1.3-2.2 2-2.8.9zm-1.6.7c.2-.5 0-.7-.7-.7-.5 0-.7.6-.3.9.3.3.8.2 1-.2zm2.2-7c.1 0 .3.3.4.7.2.8.5.9.9.4s-.8-3.7-1.4-3.8c-.4-.1-.5 0-.3.7.2.8.1.8-1.4 1.3-3.1 1-3.6 1.3-3.3 1.9.3.5.4.5 2.6-.3 1.2-.5 2.3-.9 2.5-.9zM96 86.3c.3-.2.5-.8.5-1.3s.2-1.1.4-1.4c.3-.5.5-.5.9-.1.3.2.4.6.3 1-.2.7.6 1.2 1 .6.3-.5.3-1-.2-1.9-1-1.9-3.5-1.3-3.5.9 0 1.1-.5 1.7-1.3 1.5-.4-.1-.5-.4-.5-1.1 0-.7-.1-1.1-.4-1.2-.7-.2-.9.1-.9 1.2 0 1.4 1.4 2.8 2.5 2.5.4-.2.9-.5 1.2-.7zm-4.2-6.1c0-.2-.1-.7-.2-1.1-.2-.6-.1-.8.7-1 .8-.3.9-.2 1.2.7.3.7.5.9.8.7.3-.2.3-.4.1-1.1-.3-.8-.2-.9.4-1.2.6-.3.7-.2 1.1.7.4.9 1.3 1.4 1.3.7s-1-2.9-1.3-2.9c-.2 0-1.6.4-3 1-2.9 1.1-2.9 1.1-2.1 3.1.3 1 1.1 1.3 1 .4zM78.3 42.1c-.6-4-.4-4.6 2.1-6.3 2.2-1.5 2.3-1.8 1.8-3.5-.4-1.5-1.5-4.1-1.7-4.1-.1 0-.6.6-1.3 1.3-1.3 1.4-2.6 2.2-4.6 2.7l-1.3.3.7.7c.4.4 1 1.3 1.4 2.2.7 1.4 1 2.5 2.4 8.8 1 3.5 1.2 2.3.5-2.1zM76 25.2c1.9-.8 3.1-3.3 2.5-5.2-.4-1.4-1.2-2.4-2.4-2.9l-.9-.5h.9c.5 0 1.4.2 2.1.4l1.2.4-.7-.7c-2.8-3-7.9-2.4-10.1 1.1-.6 1-1.2 3.8-.8 3.8.1 0 .2-.1.2-.3 0-.4 1.7-2.8 2-2.8.1 0 0 .5-.2 1.2-1.2 3.8 2.5 7.1 6.2 5.5zm50.2 78.6c-.4-.6-.4-.8.1-1.8l.6-1.1-1-1.5c-.7-1.1-.9-1.6-.6-1.8.5-.5 1-.4 1.6.7.3.6.6 1 .7.9 0 0 6.3-14.4 14-31.8 7.6-17.4 14-31.8 14.1-31.9.1-.1.5-.1.9 0 .7.2.6.5-14.4 34.7-8.3 18.9-15.2 34.4-15.3 34.5-.2-.2-.4-.5-.7-.9zm-3.6-5.9c-.4-.8-.4-.9.1-2.1l.5-1.2-.9-1.7c-.7-1.3-.8-1.8-.5-2.1.6-.7 1-.5 1.5.7.3.6.6 1.1.7 1 .1-.1 5.8-13.1 12.7-28.8L149.4 35h.8c.5 0 .8.1.8.3-.1.4-27.3 62.5-27.6 63-.3.3-.4.3-.8-.4zm-3.4-6.9c-.4-.8-.4-.9.1-2l.6-1.1-.9-1.9c-.8-1.8-.8-1.9-.4-2.3.7-.5.8-.5 1.4.8.3.6.6 1.1.7 1.1.1 0 5.2-11.6 11.4-25.8C143.3 34.2 143.4 34 144.2 34c.6 0 .8.1.7.5-.2.7-24.8 56.8-25 57.1-.2.2-.5-.1-.7-.6zm-3.3-6.8c-.4-.9-.3-1.2.3-2.7.3-.8.3-1.1-.4-2.5-.7-1.5-.9-2.4-.6-2.4.1 0 .3-.1.5-.2.3-.1.6.2 1 1 .3.6.7 1.1.7 1.1.1-.1 4.6-10.4 10.1-22.9 5.5-12.5 10.1-22.8 10.1-22.9.2-.2 1.6.2 1.5.4-.1.1-5.2 11.7-11.3 25.8-6.2 14.1-11.3 25.7-11.4 25.9s-.3-.1-.5-.6zm-3.2-7.1c-.4-1-.4-1.1.1-2.3l.5-1.2-.8-1.9c-.8-1.8-.8-2-.3-2.3.7-.5.8-.5 1.3.9.3.7.6 1.2.7 1.1.1-.1 4.2-9.2 9-20.2s8.8-20 8.9-20.1c.1-.1.5 0 .8.1l.7.2-10.1 23.1c-5.6 12.7-10.2 23.2-10.2 23.4-.1.1-.3-.2-.6-.8zm-3.2-7.2c-.3-.7-.3-1.1.1-2.2l.5-1.3-.9-1.9c-.8-1.8-.8-1.9-.3-2.2.8-.4.8-.4 1.5 1 .3.7.6 1.2.7 1.2 0-.1 3.4-7.8 7.6-17.1 4.1-9.4 7.6-17.4 7.8-17.8.3-.7.4-.7 1-.4.5.2.6.5.5.8-.3 1-17.7 40.4-17.9 40.7-.2-.1-.4-.4-.6-.8zm-3.2-7.3c-.5-.9-.4-1 .1-2.1l.6-1.1-.9-2c-.8-1.9-.9-2-.4-2.4.7-.5.8-.5 1.3.9.3.7.6 1.3.7 1.3.1 0 3-6.4 6.4-14.2 3.4-7.8 6.4-14.7 6.7-15.4.5-1.1.6-1.2 1.1-.9.3.2.7.4.7.4.1.1-15.7 36.2-15.8 36.4 0 .1-.3-.3-.5-.9zm-3.2-7.2c-.4-1-.4-1.1 0-1.9.6-1.1.6-1.4-.4-3.5l-.8-1.8.6-.4c.6-.4.6-.4 1.3 1l.7 1.4 5.7-12.9c3.1-7.1 5.8-12.9 5.9-13 .1 0 .5.1.8.3.5.3 0 1.4-6 15.3-3.6 8.2-6.7 15.3-6.9 15.8l-.4.8-.5-1.1zm-3.2-7.3c-.3-.8-.3-1.2.1-2.1.4-1.1.4-1.2-.4-2.9-1-2.1-1-2.4-.3-2.8.5-.3.6-.2 1.2 1.1.3.8.7 1.4.8 1.4.1 0 2.2-4.8 4.8-10.6 2.5-5.8 4.8-10.6 4.9-10.6.2 0 .5.2.8.4.4.3-.2 1.9-5.2 13.3-3.1 7.1-5.8 13.1-6 13.3-.3.4-.4.3-.7-.5zM96.8 41c-.4-.9-.4-1.4.1-2.3.4-.7.3-.9-.6-2.8-.5-1.1-.9-2.1-.9-2.1s.4-.2.7-.4c.6-.3.7-.2 1.2 1.1.3.8.7 1.4.8 1.3.1-.1 1.1-2.2 5.7-12.8 1.7-3.8 1.8-4 2.4-3.7.3.2.6.4.7.4.1.1-9.2 21.6-9.5 21.9-.2 0-.4-.2-.6-.6zm51.1-8.1c-2.2-.3-3-.6-7.4-2.5-4.7-2.1-6.6-2.6-9.4-2.5-2 .1-2.9-.1-2.5-.5.1-.1 1.2-.2 2.4-.3 2.8-.2 4.6.3 10.1 2.6 2.4 1 5.2 2 6.4 2.3 2.9.7 5.1.3 11.2-2 7-2.6 7.5-2.8 10.5-2.8 2.9 0 5.3.5 4.4 1-.3.2-.9.2-1.7 0-2.9-.7-5.7-.2-12 2.2-6.7 2.6-8.7 3-12 2.5zm12.1-.7c3.4-1.4 9.7-3.2 9.1-2.5-.3.3-9.4 3.3-10.1 3.3-.5-.1-.2-.3 1-.8zm-38.1-7.4c0-.3 4-1.9 5.9-2.3 1-.2 1.6-.2 2.2 0 .8.3.8.3.1.3-.4 0-2.2.5-4 1.1-3.6 1.2-4.2 1.3-4.2.9zm-3-1.5c-.1-.2.1-.4.3-.5.3-.1 1.5-.6 2.6-1 1.4-.5 2.3-.8 2.8-.6.6.2.3.4-2.1 1.3-3 1.2-3.3 1.3-3.6.8zm-3.4-1.5c-.4-.3-.5-.4-.1-.4.3 0 1.4-.3 2.6-.7 1.4-.5 2.3-.6 2.6-.5.4.2.2.3-.6.7-.6.2-1.7.6-2.5.9-1.3.3-1.6.3-2 0zm-1.4-2.5c1.6-.6 3-.7 3-.2 0 .2-3.1.9-4.1.8-.3 0 .2-.3 1.1-.6z" fill="#be955a"/><path d="M25.404 184.96v.709s4.125-.193 4.125 4.318v10.893c-2.707 1.483-5.672 2.256-8.766 2.192-2.9 0-12.181-.645-12.181-19.079s10.57-19.4 12.31-19.594c1.032-.129 5.672-.193 9.217 2.836 3.545 3.03 4.19 7.8 4.19 7.8h1.095v-11.41h-.58c-.58.645-1.418.968-2.32.903-2.063 0-5.414-2.642-11.473-2.449-12.31.387-21.012 9.54-21.012 22.946 0 13.02 10.313 20.754 20.497 20.754 1.418 0 2.836-.065 4.189-.258h.064c.645-.13 1.29-.13 2.063-.322h.129c.902-.194 1.74-.387 2.514-.58 1.933-.323 4.576-.516 6.638.45V189.924c0-4.512 4.125-4.318 4.125-4.318v-.71H25.404zm210.313-1.353c-2.708-.967-9.282-2.127-9.282-7.22 0-3.802 3.61-5.993 6.832-5.993 2.772-.065 5.35 1.095 7.09 3.222 1.031 1.29 1.805 2.707 2.256 4.254h.645l-.065-8.25h-.644a2.059 2.059 0 01-1.547.71c-1.934 0-2.578-1.87-7.993-1.87-5.414 0-10.763 4.77-10.763 10.635s5.478 8.765 10.054 10.248c5.028 1.676 8.895 3.738 8.895 7.541s-2.9 5.994-6.703 5.994-5.93-1.418-8.186-3.931c-1.418-1.74-2.449-3.803-2.836-6.06h-.838v11.86h.774a2.469 2.469 0 011.998-1.353c2.256-.194 4.512 1.805 9.088 1.805 4.834 0 10.764-3.481 10.764-10.764s-6.575-9.668-9.54-10.828zm-25.717 0c-2.643-.967-9.282-2.063-9.282-7.155 0-3.803 3.61-5.994 6.832-5.994 2.772-.064 5.35 1.096 7.09 3.223 1.031 1.289 1.805 2.707 2.256 4.254h.645l-.065-8.25h-.644a2.059 2.059 0 01-1.547.709c-1.934 0-2.578-1.87-7.993-1.87-5.414 0-10.828 4.77-10.828 10.7s5.479 8.765 10.055 10.248c5.027 1.676 8.895 3.738 8.895 7.54s-2.836 5.93-6.704 5.93-5.93-1.417-8.185-3.931c-1.418-1.74-2.45-3.803-2.836-6.059h-.838v11.86h.773a2.469 2.469 0 011.998-1.354c2.256-.193 4.512 1.805 9.088 1.805 4.834 0 10.764-3.48 10.764-10.764s-6.445-9.732-9.474-10.892zm-16.758 12.117h-.903a8.477 8.477 0 01-1.869 3.996c-1.482 1.611-3.61 2.643-6.639 2.643h-5.994V187.28h2.772c1.289 0 4.576.065 5.672.967.966.71 1.61 1.805 1.74 2.965h.515v-10.506h-.515a4.321 4.321 0 01-1.74 3.03c-1.032.773-4.383.837-5.672.837h-2.772v-12.568h3.674c1.87 0 5.8-.129 7.477 1.16 2.127 1.547 2.255 3.352 2.255 3.352h.516v-6.768h-23.461v.709s3.867-.193 3.867 4.318v25.073c0 4.512-3.867 4.318-3.867 4.318v.71H191.5l1.74-9.153zM64.334 169.749v.709c.645 0 4.576.387 4.576 4.383v18.756c0 3.867-1.869 10.055-8.25 10.055-7.348 0-8.83-5.672-8.83-8.83v-20.045c0-4.577 4.19-4.383 4.19-4.383v-.645H41.066v.709s4.19-.193 4.19 4.383V195.273c0 2.771 1.16 10.763 13.535 10.763 12.246 0 12.504-9.603 12.504-13.535v-17.66c0-3.803 4.06-4.383 4.64-4.383v-.709h-11.6zm90.235 0v.709s4.641.387 4.641 4.383v17.79l-16.565-22.882H131.56v.709s3.159.258 6.059 4.512c.193.258 21.914 29.97 21.914 29.97h2.127v-30.1c0-3.802 4.576-4.382 4.576-4.382v-.709H154.57zm-15.79 30.035v-20.69l-2.45-3.48v24.17c0 3.803-4.576 4.319-4.576 4.319v.709h11.666v-.71s-4.64-.321-4.64-4.318zm-20.175-30.035v.709s4.64.387 4.64 4.383v17.79l-16.564-22.882H95.594v.709s3.158.258 6.059 4.512c.193.258 21.914 29.97 21.914 29.97h2.127v-30.1c0-3.802 4.576-4.382 4.576-4.382v-.709h-11.666zm-15.791 30.035v-20.69l-2.45-3.48v24.17c0 3.803-4.576 4.319-4.576 4.319v.709h11.667v-.71s-4.641-.321-4.641-4.318zm-14.438-25.008c0-4.511 3.868-4.318 3.868-4.318v-.709H78.578v.709s3.868-.193 3.868 4.318v25.073c0 4.512-3.868 4.318-3.868 4.318v.71h13.665v-.71s-3.868.194-3.868-4.318v-25.073z"/></svg>