<svg xmlns="http://www.w3.org/2000/svg" width="978.99" height="289.167" viewBox="0 0 978.99 289.167" version="1.1" id="svg26"><defs id="defs4"><style id="style2"></style></defs><g id="g130" transform="translate(.092 -1.591)" fill="#2f5ebf" fill-rule="nonzero" stroke="none" stroke-width="2.703" stroke-linecap="butt" stroke-linejoin="miter" stroke-miterlimit="10" stroke-dasharray="none" stroke-dashoffset="0"><path d="M209.138 81.46c51.488 0 72.912 39.577 72.912 79.929v123.617h-49.433v-109.61c0-23.454-5.363-52.72-37.066-52.72-31.316 0-46.125 27.18-46.125 53.554v108.776H99.994V87.242h46.959v31.71h.804c8.671-19.76 32.15-37.491 61.38-37.491" id="path32" style="mix-blend-mode:normal"/><path d="M-.092 285.006V87.272H49.34v197.734z" id="path34" style="mix-blend-mode:normal"/><path d="M978.898 87.125v43.805h-55.424v154.075h-49.43V130.93h-55.42V87.125z" id="path36" style="mix-blend-mode:normal"/><path d="M898.774 61.345a29.872 29.872 0 01-29.886-29.862c-.008-16.5 13.359-29.882 29.856-29.89 16.497-.009 29.878 13.36 29.886 29.86.008 16.5-13.359 29.883-29.856 29.892" id="path38" style="mix-blend-mode:normal"/><path d="M387.35 61.345c-16.484-.011-29.844-13.375-29.856-29.862A29.878 29.878 0 01375.927 3.87a29.867 29.867 0 0132.56 6.474 29.88 29.88 0 016.472 32.565 29.87 29.87 0 01-27.61 18.437" id="path40" style="mix-blend-mode:normal"/><path d="M734.567 285.006V87.272h49.432v197.734z" id="path42" style="mix-blend-mode:normal"/><path d="M634.54 87.242h49.432v197.764h-46.959v-31.739h-.834c-8.64 19.789-32.12 37.491-61.35 37.491-51.518 0-72.912-39.547-72.912-79.928V87.242h49.432v109.581c0 23.484 5.333 52.749 37.066 52.749 31.287 0 46.125-27.21 46.125-53.554z" id="path44" style="mix-blend-mode:normal"/><path d="M307.228 87.125h160.275v43.805h-55.42v154.075h-49.435V130.93h-55.42z" id="path46" style="mix-blend-mode:normal"/></g></svg>