<svg xmlns="http://www.w3.org/2000/svg" width="415.75" height="77" viewBox="0 0 415.75 77"><path d="M84.624 3.49h49.645v14.561H102.65v12.48h29.122v14.7H102.65v13.59h31.618v14.56H84.624zm111.493 47.15c0 5.546-3.05 8.597-11.925 8.597-8.876 0-11.788-3.05-11.788-8.598V3.49h-18.027v49.23c0 10.955 6.656 22.049 29.815 22.049 23.297 0 29.953-10.956 29.953-22.05V3.49h-18.028zm122.45 22.742h18.027V3.49h-18.027zm79.46-34.53v19.692c-3.19.554-6.795.97-10.817.97-9.29 0-10.955-3.189-10.955-9.152v-24.13c0-6.517 3.05-8.597 10.817-8.597 7.35 0 15.392.832 24.129 2.08L412.865 4.6c-8.875-1.803-17.196-2.358-25.239-2.358-20.523 0-29.121 6.934-29.121 21.772v28.983c0 14.006 7.765 21.772 28.705 21.772 9.291 0 19.276-1.248 27.735-3.606v-32.31zM285.7 49.946l14.145 23.436h-20.247l-11.232-19.83h-13.73v19.83H236.61V3.49h33.005c18.86 0 24.822 7.35 24.822 20.108v9.846c.139 7.904-2.08 12.48-8.736 16.502zm-8.598-25.516c0-4.576-2.219-6.518-7.488-6.518h-14.977v21.495h14.56c5.825 0 7.905-2.08 7.905-6.795zM12.652 52.303c-6.102 0-11.094 4.993-11.094 11.233S6.55 74.77 12.652 74.77c6.101 0 11.094-4.993 11.094-11.233s-4.993-11.233-11.094-11.233zm0-25.1c-6.102 0-11.094 4.993-11.094 11.233S6.55 49.67 12.652 49.67c6.101 0 11.094-4.993 11.094-11.233s-4.993-11.233-11.094-11.233zm0-25.1c-6.102 0-11.094 4.993-11.094 11.233S6.55 24.57 12.652 24.57c6.101 0 11.094-4.993 11.094-11.233S18.753 2.103 12.652 2.103zM67.567 3.49H47.32L26.797 38.436 47.32 73.382h20.247L46.488 38.436z" fill="#222021"/></svg>