<?xml version="1.0" encoding="UTF-8" standalone="no"?>
<!-- Generator: Adobe Illustrator 20.0.0, SVG Export Plug-In . SVG Version: 6.00 Build 0)  -->

<svg
   xmlns:dc="http://purl.org/dc/elements/1.1/"
   xmlns:cc="http://creativecommons.org/ns#"
   xmlns:rdf="http://www.w3.org/1999/02/22-rdf-syntax-ns#"
   xmlns:svg="http://www.w3.org/2000/svg"
   xmlns="http://www.w3.org/2000/svg"
   xmlns:sodipodi="http://sodipodi.sourceforge.net/DTD/sodipodi-0.dtd"
   xmlns:inkscape="http://www.inkscape.org/namespaces/inkscape"
   version="1.1"
   id="svg2"
   x="0px"
   y="0px"
   width="1000"
   height="580.39697"
   viewBox="0 0 1000 580.39696"
   xml:space="preserve"
   inkscape:version="0.92.2 (5c3e80d, 2017-08-06)"
   sodipodi:docname="Konica Minolta.svg"><metadata
     id="metadata36"><rdf:RDF><cc:Work
         rdf:about=""><dc:format>image/svg+xml</dc:format><dc:type
           rdf:resource="http://purl.org/dc/dcmitype/StillImage" /><dc:title /></cc:Work></rdf:RDF></metadata><defs
     id="defs34" /><sodipodi:namedview
     pagecolor="#ffffff"
     bordercolor="#666666"
     borderopacity="1"
     objecttolerance="10"
     gridtolerance="10"
     guidetolerance="10"
     inkscape:pageopacity="0"
     inkscape:pageshadow="2"
     inkscape:window-width="1366"
     inkscape:window-height="705"
     id="namedview32"
     showgrid="false"
     inkscape:zoom="0.70710678"
     inkscape:cx="489.61407"
     inkscape:cy="365.74823"
     inkscape:window-x="-8"
     inkscape:window-y="-8"
     inkscape:window-maximized="1"
     inkscape:current-layer="svg2" /><style
     type="text/css"
     id="style3">
	.st0{fill:#FFFFFF;}
	.st1{fill:#007EC5;}
	.st2{fill:#231F20;}
</style><path
     id="path14"
     class="st0"
     d="m 254.62384,214.31626 c 28.80176,0.71431 167.98898,6.45425 238.62854,6.19914 70.61405,0.25511 209.82678,-5.45932 238.62854,-6.19914 1.98985,-0.051 2.98477,0.9439 3.11232,2.42353 0.10205,-2.39802 0.12756,-4.82155 0.12756,-7.27059 0,-2.42353 -0.051,-4.82155 -0.12756,-7.27059 -0.12755,1.53065 -1.12247,2.47455 -3.11232,2.44904 -28.80176,-0.76533 -168.04,-6.50527 -238.62854,-6.14812 -70.66507,-0.33164 -209.82678,5.38279 -238.62854,6.14812 -1.96433,0.051 -2.95926,-0.84186 -3.13783,-2.32149 -0.0765,2.347 -0.12756,4.74502 -0.12756,7.14304 0,2.39802 0.051,4.79604 0.12756,7.14304 0.17857,-1.42861 1.1735,-2.347 3.13783,-2.29598"
     inkscape:connector-curvature="0"
     style="fill:#ffffff;stroke-width:0.25510854" /><path
     id="path16"
     class="st0"
     d="m 252.99115,185.20838 c 0.56124,-2.14291 2.16842,-3.23988 4.36236,-3.16335 2.16842,0.051 163.65213,9.28595 235.89887,9.8727 72.19572,-0.61226 233.73045,-9.84719 235.89888,-9.8727 2.21944,-0.0765 3.87765,1.12248 4.38786,3.34192 -0.68879,-5.12768 -1.58167,-10.17883 -2.65312,-15.17896 0.051,1.96434 -1.58168,3.23988 -3.46948,3.23988 -30.00077,-0.56124 -186.02516,-3.97969 -234.18965,-3.97969 -48.11347,0 -204.13786,3.41845 -234.13863,3.97969 -1.96433,0 -3.59703,-1.37758 -3.46947,-3.36743 -1.07146,5.00013 -1.93883,10.05128 -2.62762,15.12794"
     inkscape:connector-curvature="0"
     style="fill:#ffffff;stroke-width:0.25510854" /><path
     id="path18"
     class="st0"
     d="m 260.05766,153.57492 c 0.7143,-1.53065 1.70922,-2.27047 3.46947,-2.21945 29.87321,1.65821 229.75076,12.83196 229.75076,12.83196 0,0 199.90306,-11.17375 229.82729,-12.83196 1.6327,0 2.60211,0.63777 3.29091,2.04087 -1.45412,-4.61746 -3.11233,-9.18391 -4.94911,-13.67382 0.84186,2.44904 -0.43369,3.9797 -2.83171,4.00521 -5.05114,0 -108.77828,1.30105 -108.77828,1.30105 H 376.7188 c 0,0 -103.75265,-1.30105 -108.75278,-1.30105 -2.39802,-0.051 -3.67356,-1.53065 -2.90824,-3.82663 -1.83678,4.43889 -3.52049,9.05635 -5.00012,13.67382"
     inkscape:connector-curvature="0"
     style="fill:#ffffff;stroke-width:0.25510854" /><path
     id="path20"
     class="st0"
     d="m 726.37057,265.59308 c -0.68879,1.4031 -1.6582,2.06638 -3.2909,2.01536 -29.92423,-1.6327 -229.82729,-12.83196 -229.82729,-12.83196 0,0 -199.87755,11.19926 -229.75076,12.83196 -1.76025,0.051 -2.72966,-0.63777 -3.46947,-2.19394 1.47962,4.61747 3.16334,9.1584 5.00012,13.64831 -0.76532,-2.32149 0.51022,-3.85214 2.85722,-3.85214 5.05115,-0.051 108.77828,-1.27554 108.77828,-1.27554 h 233.1182 c 0,0 103.75264,1.22452 108.77828,1.27554 2.39802,0 3.67357,1.6327 2.83171,3.9797 1.86229,-4.48991 3.5205,-8.97982 4.97461,-13.59729"
     inkscape:connector-curvature="0"
     style="fill:#ffffff;stroke-width:0.25510854" /><path
     id="path22"
     class="st0"
     d="m 733.56464,233.57696 c -0.51022,2.21944 -2.16843,3.41845 -4.38787,3.34192 -2.16842,-0.0765 -163.70316,-9.28595 -235.89888,-9.8727 -72.22123,0.58675 -233.70494,9.79617 -235.89887,9.8727 -2.19394,0.10204 -3.80112,-1.02043 -4.36236,-3.21437 0.68879,5.12768 1.53065,10.22986 2.65313,15.22998 -0.12756,-2.06638 1.53065,-3.46947 3.46948,-3.41845 30.00076,0.56124 186.02515,3.97969 234.13862,3.97969 48.1645,0 204.18889,-3.41845 234.18965,-3.97969 1.8878,-0.051 3.5205,1.27554 3.46948,3.23988 1.04594,-4.94911 1.93882,-10.02577 2.62762,-15.17896"
     inkscape:connector-curvature="0"
     style="fill:#ffffff;stroke-width:0.25510854" /><path
     id="path24"
     class="st1"
     d="m 493.25238,-4.3044e-4 c 105.35983,0 195.20906,58.49639044 228.06705,139.51887044 1.02043,2.52557 -0.25511,4.2348 -2.72967,4.2348 -5.05115,0 -108.77828,1.30105 -108.77828,1.30105 h -233.1182 c 0,0 -103.75264,-1.30105 -108.77828,-1.30105 -2.47455,0 -3.7501,-1.70923 -2.72966,-4.2348 C 298.04332,58.521471 387.89255,-4.3044e-4 493.25238,-4.3044e-4"
     inkscape:connector-curvature="0"
     style="fill:#007ec5;stroke-width:0.25510854" /><path
     id="path26"
     class="st1"
     d="m 493.25238,169.46818 c 48.1645,0 204.18888,3.41845 234.18965,3.97969 2.06638,0 3.80112,-1.53065 3.41845,-3.7756 -0.45919,-2.72967 -3.46947,-13.46974 -4.18378,-15.58714 -0.68879,-1.93882 -1.70922,-2.78068 -3.59703,-2.72966 -29.92423,1.65821 -229.82729,12.83196 -229.82729,12.83196 0,0 -199.87755,-11.17375 -229.75076,-12.83196 -1.93882,-0.051 -2.95926,0.81635 -3.62254,2.72966 -0.76533,2.14292 -3.72458,12.85747 -4.18378,15.58714 -0.38266,2.21944 1.32656,3.7756 3.41845,3.7756 30.00077,-0.56124 186.02516,-3.97969 234.13863,-3.97969"
     inkscape:connector-curvature="0"
     style="fill:#007ec5;stroke-width:0.25510854" /><path
     id="path28"
     class="st1"
     d="m 493.25238,198.49953 c 70.61405,-0.33164 209.82678,5.38279 238.62854,6.14812 2.16842,0.051 3.11232,-1.12248 3.11232,-2.83171 0,-3.41845 -1.02043,-13.90341 -1.37758,-16.07184 -0.38267,-2.47455 -2.14291,-3.85213 -4.48991,-3.72458 -2.16843,0.051 -163.70316,9.28595 -235.89888,9.8727 -72.22123,-0.61226 -233.70494,-9.84719 -235.89888,-9.8727 -2.34699,-0.12755 -4.10724,1.25003 -4.48991,3.72458 -0.38266,2.16843 -1.37758,12.65339 -1.37758,16.07184 -0.051,1.70923 0.9439,2.85722 3.13783,2.83171 28.82727,-0.76533 168.01449,-6.47976 238.65405,-6.14812"
     inkscape:connector-curvature="0"
     style="fill:#007ec5;stroke-width:0.25510854" /><path
     id="path30"
     class="st1"
     d="m 493.25238,419.01536 c 105.35983,0 195.20906,-58.5219 228.06705,-139.54437 1.02043,-2.5766 -0.25511,-4.23481 -2.72967,-4.23481 -5.05115,-0.051 -108.77828,-1.27554 -108.77828,-1.27554 h -233.1182 c 0,0 -103.75264,1.22452 -108.77828,1.27554 -2.47455,0 -3.7501,1.65821 -2.72966,4.23481 32.85798,81.02247 122.70721,139.54437 228.06704,139.54437"
     inkscape:connector-curvature="0"
     style="fill:#007ec5;stroke-width:0.25510854" /><path
     id="path32"
     class="st1"
     d="m 493.25238,249.49573 c 48.1645,0 204.18888,-3.41845 234.18965,-3.97969 2.06638,-0.051 3.80112,1.53065 3.41845,3.80112 -0.45919,2.67864 -3.46947,13.46973 -4.18378,15.56162 -0.68879,1.96433 -1.70922,2.78068 -3.59703,2.72966 -29.92423,-1.68372 -229.82729,-12.83196 -229.82729,-12.83196 0,0 -199.87755,11.14824 -229.75076,12.83196 -1.93882,0.051 -2.95926,-0.76533 -3.62254,-2.72966 -0.76533,-2.09189 -3.72458,-12.88298 -4.18378,-15.56162 -0.38266,-2.27047 1.32656,-3.85214 3.41845,-3.80112 30.00077,0.56124 186.02516,3.97969 234.13863,3.97969"
     inkscape:connector-curvature="0"
     style="fill:#007ec5;stroke-width:0.25510854" /><path
     id="path34"
     class="st1"
     d="m 493.25238,220.46438 c 70.61405,0.30613 209.82678,-5.43381 238.62854,-6.14812 2.16842,-0.051 3.11232,1.07146 3.11232,2.8062 0,3.39294 -1.02043,13.85239 -1.37758,16.07184 -0.38267,2.47455 -2.14291,3.80111 -4.48991,3.72458 -2.16843,-0.0765 -163.70316,-9.28595 -235.89888,-9.8727 -72.22123,0.58675 -233.70494,9.79617 -235.89888,9.8727 -2.34699,0.10204 -4.10724,-1.22452 -4.48991,-3.72458 -0.38266,-2.21945 -1.37758,-12.70441 -1.37758,-16.07184 -0.051,-1.73474 0.9439,-2.85722 3.13783,-2.8062 28.82727,0.71431 168.01449,6.45425 238.65405,6.14812"
     inkscape:connector-curvature="0"
     style="fill:#007ec5;stroke-width:0.25510854" /><path
     id="path36"
     class="st2"
     d="m 122.52864,567.97325 c -10.07679,0 -25.944543,-7.47469 -25.944543,-31.55693 0,-24.10776 15.816733,-31.78653 25.944543,-31.78653 10.12781,0 25.89351,7.67877 25.89351,31.78653 0.0255,24.15878 -15.79121,31.55693 -25.89351,31.55693 z m -0.0765,-75.48662 c -23.291407,0 -42.220461,19.66886 -42.220461,43.9552 0,24.23531 18.929054,43.9552 42.220461,43.9552 23.34244,0 42.27149,-19.71989 42.27149,-43.9552 0.0255,-24.28634 -18.92905,-43.9552 -42.27149,-43.9552"
     inkscape:connector-curvature="0"
     style="fill:#000000;stroke-width:0.25510854" /><path
     id="path38"
     class="st2"
     d="m 772.11154,567.97325 c -10.07679,0 -25.94454,-7.47469 -25.94454,-31.55693 0,-24.10776 15.81673,-31.78653 25.94454,-31.78653 10.12781,0 25.91903,7.67877 25.91903,31.78653 0,24.15878 -15.84224,31.55693 -25.91903,31.55693 z m -0.0765,-75.48662 c -23.29141,0 -42.19495,19.66886 -42.19495,43.9552 0,24.23531 18.90354,43.9552 42.19495,43.9552 23.34244,0 42.27149,-19.71989 42.27149,-43.9552 0,-24.28634 -18.92905,-43.9552 -42.27149,-43.9552"
     inkscape:connector-curvature="0"
     style="fill:#000000;stroke-width:0.25510854" /><path
     id="path40"
     class="st2"
     d="m 0,494.50198 h 15.255491 v 83.85418 H 0 Z"
     inkscape:connector-curvature="0"
     style="fill:#000000;stroke-width:0.25510854" /><path
     id="path42"
     class="st2"
     d="m 272.43042,494.50198 h 15.25549 v 83.85418 h -15.25549 z"
     inkscape:connector-curvature="0"
     style="fill:#000000;stroke-width:0.25510854" /><path
     id="path44"
     class="st2"
     d="m 607.00528,494.50198 h 15.2555 v 83.85418 h -15.2555 z"
     inkscape:connector-curvature="0"
     style="fill:#000000;stroke-width:0.25510854" /><path
     id="path46"
     class="st2"
     d="m 357.38157,505.72676 h 6.68384 l 0.76533,-10.8166 c -3.34192,-0.38267 -5.84199,-0.56124 -9.23493,-0.56124 -32.44981,0 -53.3432,17.32187 -53.3432,42.0674 0,24.79655 20.89339,42.0674 53.3432,42.0674 3.39294,0 5.89301,-0.17858 9.23493,-0.51022 l -0.76533,-10.84211 h -6.68384 c -23.0363,0 -38.21526,-11.96459 -38.21526,-30.7916 0,-18.85253 15.25549,-30.61303 38.21526,-30.61303"
     inkscape:connector-curvature="0"
     style="fill:#000000;stroke-width:0.25510854" /><path
     id="path48"
     class="st2"
     d="m 237.91423,544.55428 c 0,0.17858 -0.051,0.2296 -0.12755,0.0765 -11.14824,-20.51072 -34.94987,-42.0674 -49.44004,-50.12883 h -10.38292 v 83.85418 h 14.36262 c 0,0 -0.58675,-64.61899 -0.58675,-64.74655 0,-0.25511 0.0255,-0.30613 0.17857,-0.25511 18.0872,12.47481 37.70505,36.58257 48.03694,65.00166 h 11.78602 v -83.85418 h -14.38813 c -0.0255,0 0.56124,49.95026 0.56124,50.0523"
     inkscape:connector-curvature="0"
     style="fill:#000000;stroke-width:0.25510854" /><path
     id="path50"
     class="st2"
     d="m 702.49241,544.55428 c 0,0.17858 -0.0765,0.2296 -0.15306,0.0765 -11.12273,-20.51072 -34.92436,-42.0674 -49.41453,-50.12883 h -10.43394 v 83.85418 h 14.36261 c 0,0 -0.58675,-64.61899 -0.58675,-64.74655 0,-0.25511 0.051,-0.30613 0.20409,-0.25511 18.0872,12.47481 37.70505,36.58257 48.01143,65.00166 h 11.83704 v -83.85418 h -14.38812 c -0.051,0 0.56123,49.95026 0.56123,50.0523"
     inkscape:connector-curvature="0"
     style="fill:#000000;stroke-width:0.25510854" /><path
     id="path52"
     class="st2"
     d="m 369.52473,578.35616 h 14.43915 c 0,0 22.57711,-53.49626 23.41896,-55.30753 0.99493,1.83678 27.85786,55.30753 27.85786,55.30753 h 17.24534 l -44.8736,-85.51238 -38.08771,85.51238"
     inkscape:connector-curvature="0"
     style="fill:#000000;stroke-width:0.25510854" /><path
     id="path54"
     class="st2"
     d="m 955.1009,492.84378 -38.08771,85.51238 h 14.43915 c 0,0 22.5771,-53.49626 23.41896,-55.30753 1.02044,1.83678 27.85786,55.30753 27.85786,55.30753 H 1000 l -44.8991,-85.51238"
     inkscape:connector-curvature="0"
     style="fill:#000000;stroke-width:0.25510854" /><path
     id="path56"
     class="st2"
     d="M 42.399041,528.61 C 51.251308,519.4516 75.18049,494.50198 75.18049,494.50198 H 56.838185 L 21.964846,531.2121 c 16.760632,10.96967 30.74058,26.02108 39.363249,47.14406 H 77.348912 C 70.741601,558.53423 58.037195,540.34499 42.399041,528.61"
     inkscape:connector-curvature="0"
     style="fill:#000000;stroke-width:0.25510854" /><path
     id="path58"
     class="st2"
     d="m 842.80212,494.50198 h -15.25549 v 83.85418 h 48.47062 v -11.63295 h -33.21513 v -72.22123"
     inkscape:connector-curvature="0"
     style="fill:#000000;stroke-width:0.25510854" /><path
     id="path60"
     class="st2"
     d="m 926.63079,494.50198 h -57.83311 v 11.63295 h 21.30156 v 72.22123 h 15.25549 v -72.22123 h 21.30157 v -11.63295"
     inkscape:connector-curvature="0"
     style="fill:#000000;stroke-width:0.25510854" /><path
     id="path62"
     class="st2"
     d="m 545.09044,535.70201 c -1.53065,2.90824 -3.67356,8.46961 -5.12768,12.39828 -0.051,0.0765 -0.17858,0.0765 -0.2296,0 -1.4031,-3.85214 -3.54601,-9.46453 -5.05115,-12.32174 -7.32162,-15.17896 -18.85252,-36.04684 -25.71494,-43.34295 -4.03072,7.42366 -20.00051,71.88959 -23.34243,85.92056 h 15.30651 c 0,0 12.01561,-54.95038 12.06663,-55.12895 0.051,-0.17858 0.12756,-0.25511 0.20409,-0.12756 5.25524,8.08694 15.43407,28.9038 21.58218,47.80734 h 10.12781 c 5.6379,-17.70453 16.25042,-39.84795 21.45463,-47.90938 0.0765,-0.051 0.15307,0 0.15307,0.12755 0.051,0.12756 12.27072,55.28202 12.27072,55.28202 h 15.30651 c -3.39294,-14.00545 -19.31172,-78.47139 -23.36794,-85.92055 -6.98998,7.27059 -18.3168,28.13847 -25.63841,43.21538"
     inkscape:connector-curvature="0"
     style="fill:#000000;stroke-width:0.25510854" /></svg>