<svg xmlns="http://www.w3.org/2000/svg" version="1.1" id="svg2" x="0" y="0" width="1000" height="580.397" viewBox="0 0 1000 580.397" xml:space="preserve"><style type="text/css" id="style3">.st0{fill:#fff}.st1{fill:#007ec5}.st2{fill:#231f20}</style><path id="path14" class="st0" d="M254.624 214.316c28.802.715 167.989 6.455 238.628 6.2 70.614.255 209.827-5.46 238.629-6.2 1.99-.05 2.985.944 3.112 2.424.102-2.398.128-4.822.128-7.27 0-2.424-.051-4.822-.128-7.271-.127 1.53-1.122 2.474-3.112 2.449-28.802-.766-168.04-6.506-238.629-6.148-70.665-.332-209.826 5.382-238.628 6.148-1.964.05-2.96-.842-3.138-2.322a219.82 219.82 0 00-.128 7.143c0 2.398.051 4.796.128 7.143.179-1.428 1.174-2.347 3.138-2.296" fill="#fff" stroke-width=".255"/><path id="path16" class="st0" d="M252.991 185.208c.561-2.143 2.169-3.24 4.363-3.163 2.168.051 163.652 9.286 235.898 9.873 72.196-.613 233.73-9.847 235.9-9.873 2.219-.076 3.877 1.123 4.387 3.342a198.482 198.482 0 00-2.653-15.179c.051 1.964-1.582 3.24-3.47 3.24-30-.561-186.025-3.98-234.19-3.98-48.113 0-204.137 3.419-234.138 3.98-1.964 0-3.597-1.378-3.47-3.368-1.07 5-1.938 10.052-2.627 15.128" fill="#fff" stroke-width=".255"/><path id="path18" class="st0" d="M260.058 153.575c.714-1.53 1.709-2.27 3.47-2.22 29.872 1.659 229.75 12.832 229.75 12.832s199.903-11.173 229.827-12.832c1.633 0 2.602.638 3.291 2.041a174.888 174.888 0 00-4.949-13.673c.842 2.449-.434 3.98-2.832 4.005-5.05 0-108.778 1.3-108.778 1.3H376.719s-103.753-1.3-108.753-1.3c-2.398-.051-3.674-1.53-2.908-3.827a178.163 178.163 0 00-5 13.674" fill="#fff" stroke-width=".255"/><path id="path20" class="st0" d="M726.37 265.593c-.688 1.403-1.658 2.066-3.29 2.015-29.925-1.632-229.828-12.832-229.828-12.832s-199.877 11.2-229.75 12.832c-1.76.051-2.73-.637-3.47-2.194 1.48 4.618 3.163 9.159 5 13.649-.765-2.322.51-3.852 2.857-3.852 5.052-.051 108.779-1.276 108.779-1.276h233.118s103.753 1.225 108.778 1.276c2.398 0 3.674 1.632 2.832 3.98 1.862-4.49 3.52-8.98 4.975-13.598" fill="#fff" stroke-width=".255"/><path id="path22" class="st0" d="M733.565 233.577c-.51 2.22-2.169 3.418-4.388 3.342-2.169-.077-163.703-9.286-235.9-9.873-72.22.587-233.704 9.796-235.898 9.873-2.194.102-3.801-1.02-4.362-3.214.688 5.127 1.53 10.23 2.653 15.23-.128-2.067 1.53-3.47 3.47-3.419 30 .561 186.024 3.98 234.138 3.98 48.164 0 204.189-3.419 234.19-3.98 1.887-.051 3.52 1.276 3.469 3.24a204.61 204.61 0 002.628-15.179" fill="#fff" stroke-width=".255"/><path id="path24" class="st1" d="M493.252 0c105.36 0 195.21 58.496 228.067 139.518 1.02 2.526-.255 4.235-2.73 4.235-5.05 0-108.778 1.301-108.778 1.301H376.693s-103.752-1.3-108.778-1.3c-2.475 0-3.75-1.71-2.73-4.236C298.043 58.521 387.893 0 493.252 0" fill="#007ec5" stroke-width=".255"/><path id="path26" class="st1" d="M493.252 169.468c48.165 0 204.19 3.419 234.19 3.98 2.066 0 3.801-1.53 3.418-3.776-.459-2.73-3.469-13.47-4.183-15.587-.69-1.939-1.71-2.78-3.597-2.73-29.925 1.659-229.828 12.832-229.828 12.832s-199.877-11.173-229.75-12.832c-1.94-.05-2.96.817-3.623 2.73-.765 2.143-3.724 12.858-4.184 15.587-.382 2.22 1.327 3.776 3.419 3.776 30-.561 186.025-3.98 234.138-3.98" fill="#007ec5" stroke-width=".255"/><path id="path28" class="st1" d="M493.252 198.5c70.614-.332 209.827 5.382 238.629 6.148 2.168.05 3.112-1.123 3.112-2.832 0-3.419-1.02-13.903-1.377-16.072-.383-2.474-2.143-3.852-4.49-3.724-2.169.05-163.703 9.285-235.9 9.872-72.22-.612-233.704-9.847-235.898-9.872-2.347-.128-4.107 1.25-4.49 3.724-.383 2.169-1.377 12.653-1.377 16.072-.051 1.71.943 2.857 3.137 2.832 28.828-.766 168.015-6.48 238.654-6.148" fill="#007ec5" stroke-width=".255"/><path id="path30" class="st1" d="M493.252 419.015c105.36 0 195.21-58.522 228.067-139.544 1.02-2.577-.255-4.235-2.73-4.235-5.05-.05-108.778-1.275-108.778-1.275H376.693s-103.752 1.224-108.778 1.275c-2.475 0-3.75 1.658-2.73 4.235 32.858 81.022 122.708 139.544 228.067 139.544" fill="#007ec5" stroke-width=".255"/><path id="path32" class="st1" d="M493.252 249.496c48.165 0 204.19-3.419 234.19-3.98 2.066-.051 3.801 1.53 3.418 3.801-.459 2.679-3.469 13.47-4.183 15.562-.69 1.964-1.71 2.78-3.597 2.73-29.925-1.684-229.828-12.833-229.828-12.833s-199.877 11.149-229.75 12.832c-1.94.051-2.96-.765-3.623-2.73-.765-2.091-3.724-12.882-4.184-15.56-.382-2.271 1.327-3.853 3.419-3.802 30 .561 186.025 3.98 234.138 3.98" fill="#007ec5" stroke-width=".255"/><path id="path34" class="st1" d="M493.252 220.464c70.614.307 209.827-5.433 238.629-6.148 2.168-.05 3.112 1.072 3.112 2.806 0 3.393-1.02 13.853-1.377 16.072-.383 2.475-2.143 3.801-4.49 3.725-2.169-.077-163.703-9.286-235.9-9.873-72.22.587-233.704 9.796-235.898 9.873-2.347.102-4.107-1.225-4.49-3.725-.383-2.22-1.377-12.704-1.377-16.072-.051-1.734.943-2.857 3.137-2.806 28.828.715 168.015 6.455 238.654 6.148" fill="#007ec5" stroke-width=".255"/><path id="path36" class="st2" d="M122.529 567.973c-10.077 0-25.945-7.474-25.945-31.557 0-24.107 15.817-31.786 25.945-31.786 10.127 0 25.893 7.679 25.893 31.786.026 24.16-15.791 31.557-25.893 31.557zm-.077-75.486c-23.291 0-42.22 19.668-42.22 43.955 0 24.235 18.929 43.955 42.22 43.955 23.343 0 42.272-19.72 42.272-43.955.025-24.287-18.93-43.955-42.272-43.955" fill="#000" stroke-width=".255"/><path id="path38" class="st2" d="M772.112 567.973c-10.077 0-25.945-7.474-25.945-31.557 0-24.107 15.817-31.786 25.945-31.786 10.127 0 25.919 7.679 25.919 31.786 0 24.16-15.843 31.557-25.92 31.557zm-.077-75.486c-23.291 0-42.195 19.668-42.195 43.955 0 24.235 18.904 43.955 42.195 43.955 23.342 0 42.272-19.72 42.272-43.955 0-24.287-18.93-43.955-42.272-43.955" fill="#000" stroke-width=".255"/><path id="path40" class="st2" d="M0 494.502h15.255v83.854H0z" fill="#000" stroke-width=".255"/><path id="path42" class="st2" d="M272.43 494.502h15.256v83.854H272.43z" fill="#000" stroke-width=".255"/><path id="path44" class="st2" d="M607.005 494.502h15.256v83.854h-15.256z" fill="#000" stroke-width=".255"/><path id="path46" class="st2" d="M357.382 505.727h6.683l.766-10.817c-3.342-.383-5.842-.561-9.235-.561-32.45 0-53.343 17.322-53.343 42.067 0 24.797 20.893 42.068 53.343 42.068 3.393 0 5.893-.179 9.235-.51l-.766-10.843h-6.683c-23.037 0-38.216-11.964-38.216-30.791 0-18.853 15.256-30.613 38.216-30.613" fill="#000" stroke-width=".255"/><path id="path48" class="st2" d="M237.914 544.554c0 .179-.05.23-.127.077-11.149-20.51-34.95-42.068-49.44-50.13h-10.383v83.855h14.362s-.586-64.619-.586-64.746c0-.256.025-.307.178-.256 18.087 12.475 37.705 36.583 48.037 65.002h11.786v-83.854h-14.388c-.026 0 .561 49.95.561 50.052" fill="#000" stroke-width=".255"/><path id="path50" class="st2" d="M702.492 544.554c0 .179-.076.23-.153.077-11.122-20.51-34.924-42.068-49.414-50.13H642.49v83.855h14.362s-.586-64.619-.586-64.746c0-.256.05-.307.204-.256 18.087 12.475 37.705 36.583 48.011 65.002h11.837v-83.854h-14.388c-.05 0 .561 49.95.561 50.052" fill="#000" stroke-width=".255"/><path id="path52" class="st2" d="M369.525 578.356h14.439s22.577-53.496 23.419-55.307c.995 1.836 27.858 55.307 27.858 55.307h17.245l-44.874-85.512-38.087 85.512" fill="#000" stroke-width=".255"/><path id="path54" class="st2" d="M955.1 492.844l-38.087 85.512h14.44s22.576-53.496 23.418-55.307c1.02 1.836 27.858 55.307 27.858 55.307H1000l-44.9-85.512" fill="#000" stroke-width=".255"/><path id="path56" class="st2" d="M42.399 528.61c8.852-9.158 32.781-34.108 32.781-34.108H56.838l-34.873 36.71c16.76 10.97 30.74 26.021 39.363 47.144h16.02c-6.606-19.822-19.31-38.011-34.949-49.746" fill="#000" stroke-width=".255"/><path id="path58" class="st2" d="M842.802 494.502h-15.255v83.854h48.47v-11.633h-33.215v-72.221" fill="#000" stroke-width=".255"/><path id="path60" class="st2" d="M926.63 494.502h-57.832v11.633h21.301v72.221h15.256v-72.221h21.301v-11.633" fill="#000" stroke-width=".255"/><path id="path62" class="st2" d="M545.09 535.702c-1.53 2.908-3.673 8.47-5.127 12.398-.051.077-.179.077-.23 0-1.403-3.852-3.546-9.464-5.051-12.321-7.322-15.18-18.853-36.047-25.715-43.343-4.03 7.423-20 71.89-23.342 85.92h15.306s12.016-54.95 12.067-55.129c.05-.178.127-.255.204-.127 5.255 8.087 15.434 28.903 21.582 47.807h10.128c5.638-17.705 16.25-39.848 21.454-47.91.077-.05.154 0 .154.128.05.128 12.27 55.282 12.27 55.282h15.307c-3.393-14.005-19.312-78.471-23.368-85.92-6.99 7.27-18.317 28.138-25.639 43.215" fill="#000" stroke-width=".255"/></svg>