<svg xmlns="http://www.w3.org/2000/svg" viewBox="0 0 530.631 310.246"><path d="M379.957 271.791c-5.72 0-8.734 4.53-8.734 10.076 0 10.973 12.263 12.472 12.263 19.08 0 1.508-.778 3.58-3.015 3.58-2.906 0-2.905-3.64-2.905-5.718h-6.033c0 5.1 1.454 11.437 8.688 11.437 6.074 0 9.29-4.524 9.29-10.18 0-10.764-12.257-12.898-12.257-19.18 0-2.029.93-3.376 2.543-3.376 2.696 0 2.695 3.481 2.695 5.558h6.031c-.152-6.65-2.492-11.277-8.566-11.277zm-291.475.006c-5.976 0-9.869 4.621-9.869 19.22 0 14.601 3.893 19.223 9.87 19.223s9.872-4.622 9.872-19.222c0-14.6-3.897-19.221-9.873-19.221zm145.461 0c-5.35 0-9.609 5.087-9.609 19.22 0 12.163 2.396 19.227 9.61 19.227a6.8 6.8 0 005.35-3.174l.933 2.446h2.863v-17.248h-8.215v5.4h2.502c0 1.771-.208 6.852-2.752 6.852-2.085 0-3.225-1.39-3.225-13.551 0-11.905 1.25-13.46 2.905-13.46 2.912 0 2.502 6.498 2.502 8.214h6.025v-2.391c0-9.458-4.518-11.535-8.889-11.535zM0 272.52v36.998h4.99v-27.123h.11l4.517 27.123h3.746l4.565-27.123h.105v27.123h6.031V272.52h-8.783l-3.176 18.964h-.097L8.992 272.52zm150.772 0v36.998h15.378v-5.713h-8.623V272.52zm24.224 0v36.998h15.643v-5.713h-8.889V293.72h6.289v-6.026h-6.289v-9.457h8.527v-5.718zm77.154 0v27.748c0 7.275 3.482 9.978 8.68 9.978 5.407 0 8.625-2.703 8.625-9.978V272.52h-5.713v28.63c0 1.772-.625 3.37-2.494 3.37-1.973 0-2.344-1.703-2.344-3.37v-28.63zm27.36 0v36.998h15.635v-5.713h-8.881V293.72h6.28v-6.026h-6.28v-9.457h8.52v-5.718zm118.59 0v36.998h15.642v-5.713h-8.88V293.72h6.28v-6.026h-6.28v-9.457h8.513v-5.718zm77.42 0v36.998h15.377v-5.713h-8.623V272.52zm24.224 0v36.998h15.377v-5.713h-8.623V272.52zm-462.316.008l-5.192 36.988H37.9l.93-8.213h5.455l.994 8.213h6.49l-4.572-36.988zm25.377 0v28.164c0 2.022-.785 3.216-2.182 3.216a18.082 18.082 0 01-2.287-.16v5.873a25.411 25.411 0 003.635.313c5.35 0 7.588-1.82 7.588-7.54v-29.866zm44.855 0v36.988h6.762v-15.899h1.613l3.16 15.899h6.81l-3.995-17.455c3.016-1.772 3.947-5.928 3.947-9.041 0-7.789-4.258-10.492-10.707-10.492zm94.889 0l-5.197 36.988h5.662l.931-8.213h5.463l.987 8.213h6.49l-4.572-36.988zm117.195 0v36.988h8.623c4.99 0 9.569-3.53 9.569-10.285 0-4.677-2.14-7.9-6.762-8.99v-.106c4.163-.883 6.033-4.106 6.033-8.268 0-7.067-4.996-9.34-9.144-9.34zm30.422 0l-5.197 36.988h5.656l.938-8.213h5.455l.994 8.213h6.49l-4.564-36.988zm72.158 0v36.988h8.625c4.99 0 9.569-3.53 9.569-10.285 0-4.677-2.14-7.9-6.762-8.99v-.106c4.162-.883 6.025-4.106 6.025-8.268 0-7.067-4.991-9.34-9.146-9.34zm30.424 0l-5.2 36.988h5.665l.937-8.213h5.45l.992 8.213h6.49l-4.572-36.988zM88.482 277.51c1.557 0 2.495 1.611 2.495 9.61v7.804c0 7.998-.937 9.596-2.495 9.596s-2.502-1.598-2.502-9.596v-7.805c0-7.998.946-9.61 2.502-9.61zm238.024.416c3.37-.048 4.252.674 4.252 4.885 0 3.322-.882 4.884-4.252 4.884zm102.572 0c3.377-.048 4.26.674 4.26 4.885 0 3.322-.883 4.884-4.26 4.884zm-314.656.008h1.043c2.279 0 3.73 1.14 3.73 5.135 0 2.654-.93 5.142-3.425 5.142h-1.348zm-72.783.305h.103l1.975 17.666h-4.205zm165.115 0h.103l1.98 17.666h-4.21zm147.623 0h.098l1.98 17.666h-4.21zm102.568 0h.11l1.974 17.666h-4.21zm-130.44 15.17c3.837-.05 4.669 1.869 4.669 5.253 0 3.836-.618 5.447-4.668 5.447zm102.573 0c3.85-.05 4.678 1.869 4.678 5.253 0 3.836-.626 5.447-4.678 5.447zM530.631 273.527h-1.668v-6.532h-.048l-2.377 6.532h-1.612l-2.3-6.532h-.035v6.532h-1.682v-8.213h2.904l1.912 5.364h.041l1.987-5.364h2.878zm-11.223-6.747h-2.466v6.747h-1.675v-6.747h-2.481v-1.465h6.622z" fill="#e0003c"/><path d="M30.855 0A29.554 29.554 0 001.333 29.524v202.815a29.547 29.547 0 0029.522 29.522h453.603a29.595 29.595 0 0029.524-29.53V29.499A29.522 29.522 0 00484.458.001z" fill="#fff"/><path d="M513.982 29.498A29.522 29.522 0 00484.459 0H357.668l72.913 121.722 6.688.82 3.88 5.589v5.249l4.73.859 4.184 5.83.027 5.007 4.703.832 4.73 5.273v11.4s10.265 9.43 19.482 13.037c6.385 2.499 7.231 12.75 10.845 18.33 5.032 7.768 11.575 11.088 10.291 15.565-3.419 11.922-15.493 33.182-26.966 33.19l-45.017.036.027 19.12h56.274a29.594 29.594 0 0029.523-29.529z" fill="#e0003c"/><path d="M30.856 0A29.554 29.554 0 001.334 29.522v202.815a29.547 29.547 0 0029.522 29.522H215.06c-4.649-7.704-9.818-16.46-11.392-19.12h-21.976c-.035-54.453 18.523-84.927 40.556-90.607 2.98-.769 1.618-15.55-2.262-20.002 0 0-10.57.319-12.793-.304-2.793-.781-.85-3.577-.85-3.577l10.29-22.236-1.377-6.135-38.105.03c-.554 0 31.419-21.962 31.419-21.962 1.627-57.777 60.827-62.296 96.632-38.411 21.202 14.143 22.863 41.963 21.217 61.417-.277 1.127-5.588.303-5.588.303s-3.577 21.102 5.856 21.102h41.656c16.988 0 33.376 10.792 33.376 10.792l4.185-14.448L314.448.001zm31.462 179.54a20.292 20.292 0 11-20.226 20.307 20.317 20.317 0 0120.226-20.307z" fill="#003574"/></svg>