<svg xmlns="http://www.w3.org/2000/svg" viewBox="0 0 350.463 69.3" width="350.463" height="69.3"><path d="M344.763 0l-12.6 4.7V14h-5.3l-1.5 3.6h6.8l-.1 19.7c-.1 12.9.5 18.1 4.1 20h11.1c-1.3-1.2-2.2-2.8-2.5-5.5V17.7h4.2l1.5-4h-5.8l.1-13.7M242.363 13.9c-1.8 0-3.7.5-5 1.6l-2 1.6c-.5-.9-.6-2.1-1.5-2.8h-12c1 1.4 1.6 2.5 1.5 5l.1 30.6c.2 2.6.8 5.5 3.2 7.4h11.5c-2.1-1.9-2.8-5.5-2.7-9.5v-23c1-.9 2.5-1.5 4.1-1.5.9 0 1.8.2 2.6.5.8.4 1.3.6 1.9 1.2l5.1-7.9c-.7-1-1.8-1.7-2.9-2.3-1-.6-2.5-.9-3.9-.9M261.763 14.2h-11.1c1.9 2.5 1.3 6 1.4 8.9l-.1 18.1c.3 6.4-1 12.6 2.9 16.3h11.9c-1.4-1.5-2.2-3.5-2.6-5.4l-.2-32.7c-.3-.9-.2-2-.8-2.8-.3-.9-.7-1.9-1.4-2.4M285.263 51.3c-.1 0-.1 0 0 0-2.5-.3-3.6-2.8-4.1-4.8-.8-5.6-1.4-10.2-.8-15.7.1-3.5.3-6.6 2.1-9.3.8-.8 1.8-1.7 3-1.7.3 0 .6.1.9.2 4.6 2.6 3.6 8.5 4.4 12.8 0 5.8.4 11.3-2.2 16.4-.9.9-2 2.1-3.3 2.1m1.5-38.1c-3.3 0-6.6 2.3-9.6 3.4-2.7 1.8-6.5 3.5-7.7 6.8-.8 1.2-.6 2.8-.9 4.2-.7 4.9-.5 9.3-.2 14.4-.4 7.2 6.2 12.4 11.9 15 1.5.7 2.9 1.1 4.3 1.1 4.6 0 8.9-3.5 12.4-6.6 3.1-2.7 4.9-6.2 5.1-10.2.1-2.3.1-4.4 0-6.8 0-2.2-.4-3.8-.4-6-.4-1.6-.7-3.3-1.3-4.8-2.4-3.9-5.9-6.8-9.7-9.3-1.4-.8-2.6-1.2-3.9-1.2" fill="#b41f3a"/><path d="M318.863 0l-12.6 4.7V14h-5.3l-1.5 3.6h6.8l-.1 19.7c-.1 12.9.5 18.1 4.1 20h11.1c-1.3-1.2-2.2-2.8-2.5-5.5V17.7h4.2l1.5-4h-5.8l.1-13.7M213.963 13.9c-1.8 0-3.7.5-5 1.6l-2 1.6c-.5-.9-.6-2.1-1.5-2.8h-12c1 1.4 1.4 2.5 1.5 5l.1 30.6c.1 2.8.8 5.5 3.2 7.4h11.5c-2.1-1.9-2.8-5.5-2.7-9.5v-23c1-.9 2.5-1.5 4.1-1.5.9 0 1.8.2 2.6.5.8.4 1.3.6 1.9 1.2l5.1-7.9c-.7-1-1.8-1.7-2.9-2.3-1-.6-2.5-.9-3.9-.9M106.863.2l-13.7 7 11.3 24.2-4.4 8.9c-3 5.3-7.1 11.7-13.5 13.4-.9.3-1.7.4-2.5.4-1.5 0-3-.4-4.6-.5l-7.7 12.6c.6.6 1.4 1.1 2.2 1.4 2.9 1.1 5.4 1.7 7.7 1.7 8.5 0 14.2-8.5 24.7-32.3l12.6 26.9h16.8l-7.9-18.1 4.5-9.4 12.4 27.1 16.1.1-28.1-61.8-13 6.4 10.2 23.1-4.5 9.1-18.6-40.2M171.163 49.9c-.4 0-.8 0-1.2-.1-1-.3-2-.7-2.4-1.8-.8-1.6-.7-3.1-.7-5.2.1-1.9.4-3.8 1.6-6 1.4-2.5 3.8-4.8 6.7-5.3.9 0 2.1.2 2.2 1.9l.4 6.1c0 3.4.6 7.2-2.8 9.1-1.1.8-2.4 1.3-3.8 1.3m5.8-36.4c-4.4 0-8.9.8-12.7 2.6-.9.6-1.3 1.6-2 2.3-1.4 2.8-1.8 6-2.4 9 4.1-3.5 8.6-7 13.9-7 .8 0 1.7.1 2.6.3 1.1.4 1.7 1.3 1.6 2.5 0 1-1 1.7-1.7 2.3-4.2 2.2-9.1 3.2-13.2 5.8-4.2 2.3-6.6 6.5-6.9 10.9-1 6.1 3 12.7 7.3 14.6 1 .7 2.1 1 3.3 1 3.9 0 8.7-3.1 11.2-5.4.4 2 1.1 3.6 2.5 4.9h12c-1.3-1.8-2.3-3.8-2.4-6v-25c-.1-1.8-.1-3.9-.8-5.7-1.4-3.8-5.3-6.8-9.5-7.1h-2.8M12.563 10.6c-9.4 6.6-14.3 17.7-12 29.6 2.7 2.2 6 3.1 9.5 3.1.7 0 1.4 0 2.1-.1 4.1-.7 7.6-4.1 9-8.2 1.7-4.7-1.3-9.6-2.1-11.2l-6.5-13.2" fill="#b41f3a"/><path d="M24.363 35.1c-.2 8.4-9 15.8-17.4 15.8-.5 0-1 0-1.5-.1 4.5 8 15.8 12.8 23.3 12.8 3.6 0 6.3-1.1 7-3.4l-11.4-25.1M23.563 5.8c-.9 0-1.9.2-3.2 1.2l24.2 52.3c1-.4 2.9-1.4 3.4-3.5l-23-49.9c-.5 0-1-.1-1.4-.1M35.263 6l19.5 42.5c9.8-14.8 1.6-39.1-19.5-42.5" fill="#b41f3a"/></svg>