<svg width="148" height="28" viewBox="0 0 148 28" fill="none" xmlns="http://www.w3.org/2000/svg"><path d="M71.955 18.187l-3.775-2.21-.27.434c-.842 1.34-2.022 2.01-3.47 2.01-2.495 0-4.348-1.875-4.348-4.32 0-2.479 1.887-4.321 4.347-4.321 1.483 0 2.562.636 3.471 2.01l.27.435 3.775-2.21-.337-.47c-1.82-2.612-4.146-3.851-7.213-3.851-5.763 0-8.863 4.354-8.863 8.44 0 4.086 3.1 8.44 8.863 8.44 2.933 0 5.696-1.474 7.213-3.885l.337-.502zM71.752 22.507h5.19l1.551-3.818h7.785l1.55 3.818h5.224L83.751.167H79.1l1.247 2.981-8.594 19.36zm10.684-13.53l2.09 5.258h-4.247l2.157-5.259zM95.21 22.54h4.55V12.492h2.965v-4.22h-2.966V6.296c0-.87.573-1.775 1.652-1.775.573 0 .943.1 1.28.234l.506.201 1.887-4.12-.539-.234c-.843-.335-2.022-.469-2.865-.469-2.056 0-3.774.67-4.92 1.943-1.011 1.105-1.584 2.646-1.584 4.354v1.809h-2.022v4.22h2.022l.033 10.081zM34.073.033v22.474h4.954V9.646l4.82 3.55 4.786-3.55v12.86h4.954L53.62.034l-9.774 7.335L34.073.033zM113.038 5.727c-5.729 0-8.83 4.32-8.83 8.407 0 4.086 3.101 8.406 8.83 8.406 2.629-.033 5.089-1.205 7.01-3.382l-3.707-2.01c-.944.971-2.123 1.474-3.404 1.474-1.887 0-3.539-1.24-3.977-2.88h12.403v-1.106c0-6.129-4.887-8.909-8.325-8.909zm-3.977 6.33c.607-1.54 1.887-2.411 3.539-2.411 1.685 0 2.999.87 3.673 2.445l-7.212-.034zM131.675 5.727c-5.729 0-8.83 4.32-8.83 8.407 0 4.086 3.101 8.406 8.83 8.406 2.629-.033 5.09-1.205 7.011-3.382l-3.708-2.01c-.943.971-2.123 1.474-3.404 1.474-1.887 0-3.538-1.24-3.977-2.88H140v-1.106c0-6.129-4.853-8.909-8.325-8.909zm-3.976 6.33c.606-1.54 1.887-2.445 3.538-2.411 1.685 0 3 .87 3.674 2.445l-7.212-.034z" fill="#C01818"/><path fill-rule="evenodd" clip-rule="evenodd" d="M12 5.622L0 0v22.373L11.99 28 24 22.373V0L12 5.622zm0 5.493l.01.005v-.01l7.04-3.306V19.19L12 22.502l-7.05-3.31V7.803l7.04 3.306v.01l.01-.005z" fill="#C01818"/><path d="M142.892 5.913v.648h-1.082v3.352h-.815V6.561h-1.082v-.648h2.979zM147.913 5.913v4h-.814V7.311l-1.088 2.602h-.617L144.3 7.311v2.602h-.814v-4h.925l1.291 2.974 1.292-2.974h.919z" fill="#C01818"/></svg>