<svg xmlns="http://www.w3.org/2000/svg" width="1000" height="213.519" viewBox="0 0 1000 213.519"><path fill="#737373" d="M352.97 123.027l-5.996 16.775h-.34c-1.072-3.93-2.866-9.506-5.676-16.592l-32.08-80.472h-31.364V170.68H298.2V92.03c0-4.855-.105-10.722-.309-17.435-.106-3.398-.493-6.12-.586-8.194h.454a116.783 116.783 0 002.933 10.95l38.467 93.33h14.47l38.18-94.172c.868-2.148 1.785-6.338 2.63-10.108h.454c-.5 9.32-.924 17.838-.98 22.978v81.301h22.066V42.738h-30.12l-32.89 80.29zM436.754 78.993h21.568v91.687h-21.568zM447.76 40.028c-3.554 0-6.644 1.214-9.189 3.602-2.553 2.4-3.848 5.429-3.848 8.997 0 3.51 1.28 6.477 3.805 8.817 2.515 2.331 5.622 3.512 9.232 3.512 3.61 0 6.73-1.18 9.273-3.509 2.559-2.343 3.856-5.31 3.856-8.82 0-3.446-1.265-6.437-3.753-8.897-2.488-2.457-5.642-3.702-9.376-3.702M534.677 78.075c-4.149-.858-8.2-1.292-12.053-1.292-9.898 0-18.722 2.12-26.228 6.306-7.523 4.19-13.344 10.174-17.295 17.786-3.947 7.594-5.945 16.458-5.945 26.346 0 8.665 1.942 16.61 5.77 23.62 3.84 7.023 9.267 12.512 16.14 16.32 6.869 3.8 14.8 5.732 23.58 5.732 10.25 0 19.003-2.05 26.016-6.092l.285-.166V146.88l-.907.66a40.492 40.492 0 01-10.55 5.493c-3.815 1.33-7.29 2.006-10.335 2.006-8.463 0-15.254-2.65-20.188-7.872-4.942-5.228-7.447-12.56-7.447-21.798 0-9.298 2.608-16.829 7.76-22.382 5.137-5.54 11.944-8.35 20.229-8.35 7.094 0 13.998 2.402 20.531 7.142l.907.657V81.617l-.29-.165c-2.46-1.376-5.816-2.512-9.98-3.377M605.74 77.4c-5.417 0-10.267 1.743-14.424 5.173-3.646 3.011-6.279 7.141-8.296 12.297h-.229V78.992h-21.566v91.687h21.566v-46.903c0-7.976 1.81-14.527 5.374-19.472 3.524-4.89 8.216-7.369 13.95-7.369 1.945 0 4.125.32 6.486.952 2.336.63 4.03 1.315 5.028 2.035l.908.654V78.833l-.35-.147c-2.005-.854-4.85-1.285-8.447-1.285M664.32 76.783c-15.123 0-27.13 4.43-35.69 13.17-8.56 8.733-12.897 20.828-12.897 35.945 0 14.355 4.237 25.9 12.588 34.314 8.354 8.411 19.724 12.68 33.786 12.68 14.653 0 26.426-4.492 34.986-13.35 8.553-8.851 12.891-20.824 12.891-35.591 0-14.587-4.07-26.217-12.095-34.57-8.032-8.36-19.328-12.598-33.57-12.598m17.148 70.597c-4.052 5.083-10.148 7.657-18.122 7.657-7.923 0-14.174-2.624-18.574-7.801-4.428-5.203-6.674-12.619-6.674-22.047 0-9.718 2.246-17.33 6.674-22.62 4.407-5.265 10.596-7.93 18.399-7.93 7.567 0 13.595 2.547 17.913 7.58 4.339 5.056 6.538 12.608 6.538 22.44 0 9.961-2.071 17.603-6.154 22.721M757.816 116.878c-6.8-2.732-11.156-4.997-12.946-6.73-1.731-1.682-2.613-4.055-2.613-7.064 0-2.666 1.088-4.804 3.32-6.532 2.24-1.739 5.366-2.623 9.286-2.623 3.64 0 7.364.574 11.063 1.7 3.694 1.125 6.946 2.634 9.659 4.479l.895.608V80.778l-.348-.148c-2.5-1.07-5.797-1.99-9.803-2.734-3.996-.739-7.613-1.113-10.76-1.113-10.286 0-18.792 2.63-25.293 7.818-6.535 5.218-9.851 12.06-9.851 20.341 0 4.304.717 8.128 2.125 11.365 1.414 3.257 3.61 6.127 6.527 8.529 2.885 2.38 7.354 4.879 13.269 7.424 4.97 2.042 8.678 3.775 11.038 5.14 2.302 1.336 3.936 2.682 4.855 3.99.9 1.281 1.358 3.03 1.358 5.196 0 6.165-4.615 9.159-14.105 9.159-3.524 0-7.539-.734-11.937-2.184a44.916 44.916 0 01-12.223-6.198l-.907-.652v21.023l.33.154c3.092 1.424 6.984 2.629 11.578 3.575 4.59.95 8.749 1.43 12.36 1.43 11.164 0 20.148-2.646 26.705-7.862 6.597-5.25 9.945-12.255 9.945-20.828 0-6.18-1.8-11.481-5.35-15.753-3.524-4.239-9.64-8.134-18.177-11.572M839.334 76.783c-15.121 0-27.125 4.43-35.688 13.17-8.557 8.733-12.896 20.828-12.896 35.945 0 14.355 4.234 25.9 12.59 34.314 8.353 8.411 19.72 12.68 33.786 12.68 14.652 0 26.422-4.492 34.981-13.35 8.557-8.851 12.896-20.824 12.896-35.591 0-14.587-4.07-26.217-12.099-34.57-8.03-8.36-19.329-12.598-33.57-12.598m17.151 70.597c-4.051 5.083-10.151 7.657-18.122 7.657-7.923 0-14.174-2.624-18.575-7.801-4.428-5.203-6.674-12.619-6.674-22.047 0-9.718 2.247-17.33 6.677-22.62 4.401-5.265 10.59-7.93 18.397-7.93 7.565 0 13.595 2.547 17.914 7.58 4.338 5.056 6.538 12.608 6.538 22.44 0 9.961-2.076 17.603-6.155 22.721M1000 96.582v-17.59h-21.843V51.646l-.736.225-20.514 6.278-.404.125v20.718h-32.361V67.45c0-5.373 1.203-9.486 3.574-12.226 2.354-2.716 5.716-4.093 10-4.093 3.086 0 6.281.73 9.496 2.164l.803.358V35.126l-.376-.134c-2.996-1.08-7.076-1.626-12.131-1.626-6.372 0-12.161 1.392-17.206 4.135-5.053 2.753-9.027 6.682-11.809 11.676-2.777 4.987-4.183 10.747-4.183 17.122v12.693H887.1v17.59h15.21v74.1h21.832v-74.1h32.36v47.089c0 19.39 9.148 29.22 27.188 29.22 2.965 0 6.088-.347 9.272-1.03 3.244-.698 5.451-1.396 6.75-2.14l.288-.165v-17.76l-.889.59c-1.18.794-2.658 1.439-4.39 1.918-1.74.488-3.189.732-4.31.732-4.228 0-7.356-1.138-9.296-3.384-1.962-2.269-2.958-6.232-2.958-11.784V96.582H1000z"/><path fill="#F25022" d="M0 .002h101.458V101.46H0z"/><path fill="#7FBA00" d="M112.022 0h101.457v101.457H112.022z"/><path fill="#00A4EF" d="M0 112.062h101.457v101.457H0z"/><path fill="#FFB900" d="M112.022 112.062h101.457v101.457H112.022z"/></svg>