<?xml version="1.0" encoding="utf-8"?>
<!-- Generator: Adobe Illustrator 23.1.0, SVG Export Plug-In . SVG Version: 6.00 Build 0)  -->
<svg version="1.1" id="Layer_2" xmlns="http://www.w3.org/2000/svg" xmlns:xlink="http://www.w3.org/1999/xlink" x="0px" y="0px"
	 width="1000px" height="213.5185547px" viewBox="0 0 1000 213.5185547" enable-background="new 0 0 1000 213.5185547"
	 xml:space="preserve">
<path fill="#737373" d="M352.9692383,123.0273438l-5.9951172,16.7749023h-0.3408203
	c-1.0708008-3.9306641-2.8652344-9.5063477-5.675293-16.5922852L308.878418,42.737793h-31.3642578v127.9423828h20.6855469
	V92.0297852c0-4.8544922-0.1044922-10.722168-0.3085938-17.4350586c-0.105957-3.3979492-0.4926758-6.1191406-0.5864258-8.1938477
	h0.4545898c1.0512695,4.8222656,2.144043,8.4931641,2.9326172,10.9501953l38.4672852,93.3291016h14.4697266l38.1806641-94.1713867
	c0.8671875-2.1474609,1.7841797-6.3374023,2.6289063-10.1079102h0.4541016
	c-0.5,9.3203125-0.9238281,17.8383789-0.9804688,22.9780273v81.3012695h22.0664063V42.737793H385.859375L352.9692383,123.0273438z"
	/>
<rect x="436.7539063" y="78.9926758" fill="#737373" width="21.5683594" height="91.6865234"/>
<path fill="#737373" d="M447.7597656,40.027832c-3.5537109,0-6.6435547,1.2143555-9.1884766,3.6025391
	c-2.5537109,2.3999023-3.8486328,5.4282227-3.8486328,8.996582c0,3.5097656,1.2802734,6.4765625,3.8056641,8.8168945
	c2.5146484,2.331543,5.6220703,3.5117188,9.2314453,3.5117188c3.6103516,0,6.7304688-1.1801758,9.2734375-3.5083008
	c2.5585938-2.34375,3.8554688-5.3105469,3.8554688-8.8203125c0-3.4458008-1.2646484-6.4370117-3.7529297-8.8969727
	C454.6484375,41.2729492,451.4941406,40.027832,447.7597656,40.027832"/>
<path fill="#737373" d="M534.6767578,78.0751953c-4.1484375-0.8579102-8.2001953-1.2924805-12.0527344-1.2924805
	c-9.8984375,0-18.7216797,2.1196289-26.2285156,6.3061523c-7.5224609,4.1899414-13.34375,10.1743164-17.2949219,17.7866211
	c-3.9462891,7.59375-5.9443359,16.4570313-5.9443359,26.3457031c0,8.6650391,1.9414063,16.6103516,5.7705078,23.6196289
	c3.8388672,7.0234375,9.2666016,12.5117188,16.1396484,16.3208008c6.8681641,3.7998047,14.7998047,5.730957,23.5800781,5.730957
	c10.2490234,0,19.0029297-2.0493164,26.015625-6.0917969l0.2851563-0.1655273v-19.7553711l-0.9072266,0.659668
	c-3.1806641,2.315918-6.7324219,4.1655273-10.5507813,5.4931641c-3.8144531,1.3305664-7.2900391,2.0058594-10.3339844,2.0058594
	c-8.4628906,0-15.2539063-2.6489258-20.1884766-7.871582c-4.9414063-5.2275391-7.4472656-12.559082-7.4472656-21.7983398
	c0-9.2978516,2.6083984-16.8286133,7.7607422-22.3813477c5.1367188-5.5405273,11.9433594-8.3505859,20.2285156-8.3505859
	c7.09375,0,13.9980469,2.4018555,20.53125,7.1425781l0.9072266,0.6567383V81.6171875l-0.2900391-0.1655273
	C542.1972656,80.0761719,538.8408203,78.9404297,534.6767578,78.0751953"/>
<path fill="#737373" d="M605.7402344,77.4008789c-5.4169922,0-10.2675781,1.7416992-14.4238281,5.171875
	c-3.6464844,3.0112305-6.2792969,7.1416016-8.296875,12.296875h-0.2285156V78.9921875h-21.5664063v91.6865234h21.5664063
	v-46.9023438c0-7.9760742,1.8095703-14.527832,5.3740234-19.4726563c3.5244141-4.8901367,8.2158203-7.3686523,13.9501953-7.3686523
	c1.9443359,0,4.125,0.3208008,6.4853516,0.9516602c2.3359375,0.6308594,4.0302734,1.3154297,5.0283203,2.0351563
	l0.9082031,0.6538086V78.8325195L614.1875,78.6855469C612.1816406,77.8320313,609.3378906,77.4008789,605.7402344,77.4008789"/>
<path fill="#737373" d="M664.3193359,76.7827148c-15.1220703,0-27.1289063,4.4296875-35.6894531,13.1699219
	c-8.5595703,8.7329102-12.8964844,20.828125-12.8964844,35.9458008c0,14.3544922,4.2363281,25.8989258,12.5878906,34.3139648
	c8.3535156,8.4106445,19.7236328,12.6787109,33.7861328,12.6787109c14.6523438,0,26.4257813-4.4907227,34.9853516-13.3496094
	c8.5527344-8.8505859,12.8916016-20.8232422,12.8916016-35.5908203c0-14.5864258-4.0703125-26.2167969-12.0957031-34.5703125
	C689.8574219,81.0205078,678.5605469,76.7827148,664.3193359,76.7827148 M681.4667969,147.3803711
	c-4.0517578,5.0830078-10.1474609,7.6567383-18.1220703,7.6567383c-7.9228516,0-14.1738281-2.6245117-18.5732422-7.8012695
	c-4.4287109-5.2026367-6.6748047-12.6186523-6.6748047-22.046875c0-9.7177734,2.2460938-17.3300781,6.6748047-22.6206055
	c4.40625-5.2641602,10.5957031-7.9301758,18.3984375-7.9301758c7.5673828,0,13.5947266,2.5478516,17.9130859,7.581543
	c4.3388672,5.0556641,6.5380859,12.6069336,6.5380859,22.4399414
	C687.6210938,134.6201172,685.5498047,142.2617188,681.4667969,147.3803711"/>
<path fill="#737373" d="M757.8164063,116.8779297c-6.7998047-2.7314453-11.15625-4.9970703-12.9462891-6.7294922
	c-1.7314453-1.6821289-2.6132813-4.0551758-2.6132813-7.0644531c0-2.6660156,1.0878906-4.8041992,3.3193359-6.5322266
	c2.2412109-1.7387695,5.3671875-2.6230469,9.2871094-2.6230469c3.640625,0,7.3632813,0.5742188,11.0625,1.7006836
	c3.6943359,1.125,6.9462891,2.6337891,9.6591797,4.4785156l0.8955078,0.6079102V80.777832l-0.3486328-0.1474609
	c-2.5-1.0712891-5.796875-1.9907227-9.8027344-2.7348633c-3.9960938-0.7382813-7.6132813-1.112793-10.7597656-1.112793
	c-10.2861328,0-18.7919922,2.6303711-25.2929688,7.8178711c-6.5351563,5.2182617-9.8515625,12.0600586-9.8515625,20.3417969
	c0,4.3032227,0.7167969,8.1279297,2.125,11.3647461c1.4140625,3.2568359,3.6103516,6.1269531,6.5273438,8.5288086
	c2.8847656,2.3803711,7.3535156,4.8789063,13.2685547,7.4238281c4.9697266,2.0424805,8.6787109,3.7753906,11.0380859,5.1411133
	c2.3017578,1.3354492,3.9365234,2.6811523,4.8554688,3.9887695c0.8994141,1.2817383,1.3574219,3.03125,1.3574219,5.1967773
	c0,6.1650391-4.6142578,9.1582031-14.1044922,9.1582031c-3.5244141,0-7.5390625-0.7338867-11.9375-2.184082
	c-4.4033203-1.4472656-8.5166016-3.5317383-12.2226563-6.1972656l-0.9072266-0.6523438v21.0229492l0.3300781,0.1538086
	c3.0917969,1.4238281,6.984375,2.6289063,11.578125,3.5756836c4.5898438,0.9487305,8.7490234,1.4287109,12.359375,1.4287109
	c11.1650391,0,20.1484375-2.6455078,26.7060547-7.8608398c6.5966797-5.2504883,9.9443359-12.2548828,9.9443359-20.828125
	c0-6.1806641-1.7988281-11.4814453-5.3505859-15.7529297C772.46875,124.2114258,766.3525391,120.315918,757.8164063,116.8779297"/>
<path fill="#737373" d="M839.3339844,76.7827148c-15.1210938,0-27.125,4.4296875-35.6884766,13.1699219
	C795.0888672,98.6855469,790.75,110.7807617,790.75,125.8984375c0,14.3544922,4.234375,25.8989258,12.5898438,34.3139648
	c8.3535156,8.4106445,19.7197266,12.6787109,33.7861328,12.6787109c14.6523438,0,26.421875-4.4907227,34.9814453-13.3496094
	c8.5566406-8.8505859,12.8955078-20.8232422,12.8955078-35.5908203c0-14.5864258-4.0703125-26.2167969-12.0986328-34.5703125
	C864.8740234,81.0205078,853.5751953,76.7827148,839.3339844,76.7827148 M856.4853516,147.3803711
	c-4.0517578,5.0830078-10.1513672,7.6567383-18.1220703,7.6567383c-7.9228516,0-14.1738281-2.6245117-18.5751953-7.8012695
	c-4.4277344-5.2026367-6.6738281-12.6186523-6.6738281-22.046875c0-9.7177734,2.2470703-17.3300781,6.6767578-22.6206055
	c4.4013672-5.2641602,10.5908203-7.9301758,18.3964844-7.9301758c7.5654297,0,13.5957031,2.5478516,17.9140625,7.581543
	c4.3388672,5.0556641,6.5380859,12.6069336,6.5380859,22.4399414
	C862.6396484,134.6201172,860.5644531,142.2617188,856.4853516,147.3803711"/>
<path fill="#737373" d="M1000,96.581543V78.9916992h-21.8427734V51.6455078l-0.7363281,0.2250977l-20.5136719,6.2788086
	l-0.4042969,0.1245117v20.7177734h-32.3613281V67.4501953c0-5.3730469,1.203125-9.4863281,3.5742188-12.2260742
	c2.3544922-2.7163086,5.7158203-4.0932617,10.0009766-4.0932617c3.0849609,0,6.2802734,0.7294922,9.4951172,2.1640625
	l0.8027344,0.3579102V35.1264648l-0.3759766-0.1347656c-2.9960938-1.0791016-7.0751953-1.6254883-12.1308594-1.6254883
	c-6.3720703,0-12.1611328,1.3920898-17.2060547,4.1347656c-5.0527344,2.753418-9.0263672,6.6821289-11.8085938,11.6762695
	c-2.7773438,4.9863281-4.1835938,10.746582-4.1835938,17.1220703v12.6923828h-15.2099609V96.581543h15.2099609v74.0996094
	h21.8320313V96.581543h32.3613281v47.0893555c0,19.3901367,9.1474609,29.2202148,27.1875,29.2202148
	c2.9648438,0,6.0878906-0.3466797,9.2714844-1.0297852c3.2441406-0.6982422,5.4511719-1.3964844,6.7509766-2.1411133
	L1000,169.5561523v-17.7602539l-0.8886719,0.5908203c-1.1796875,0.793457-2.6582031,1.4379883-4.3896484,1.9169922
	c-1.7402344,0.4882813-3.1894531,0.7319336-4.3105469,0.7319336c-4.2285156,0-7.3564453-1.137207-9.2958984-3.3837891
	c-1.9619141-2.2685547-2.9580078-6.2314453-2.9580078-11.7841797V96.581543H1000z"/>
<rect y="0.0019531" fill="#F25022" width="101.4584961" height="101.4580078"/>
<rect x="112.0219727" fill="#7FBA00" width="101.4570313" height="101.4570313"/>
<rect y="112.0620117" fill="#00A4EF" width="101.4570313" height="101.456543"/>
<rect x="112.0219727" y="112.0620117" fill="#FFB900" width="101.4570313" height="101.456543"/>
</svg>
