<svg xmlns="http://www.w3.org/2000/svg" viewBox="0 0 670.557 94.191"><path d="M19.181 52.166v-25.3l-7.606 3.4A25.042 25.042 0 009.976 40.91a26.159 26.159 0 005.134 13.28zM41.455.076a13.202 13.202 0 017.04 3.047 9.08 9.08 0 012.069 8.913 9.07 9.07 0 01-4.43 6.223 11.728 11.728 0 01-6.41 1.798v12.186l5.93 4.805-5.932 4.783.003 16.617a27.034 27.034 0 009.626-11.036s.151-.414.498-1.21c.327 2.051.14 6.189-2.172 11.496a21.451 21.451 0 01-8.88 10.048c-7.037 3.892-12.316 4.266-17.976 3.1A25.505 25.505 0 014.067 59.258 27.703 27.703 0 01.007 43.64C.24 32.394 8.601 22.71 18.25 19.084a9.351 9.351 0 013.309-.872c-.768.515-1.657 1.189-2.745 1.906-3.108 2.05-5.772 6.115-6.908 9.248l18.731-8.354v26.194l-15.105 7.562c1.722 2.398 6.952 6.01 11.424 6.509 7.611.85 12.075-2.478 12.075-2.478l-.001-16.968-5.898-4.783 5.9-4.787V20.057a81.387 81.387 0 01-9.407-2.005c-3.36-.825-14.56-3.969-16.32-4.23-1.76-.263-3.931-.188-5.245.995a5.197 5.197 0 00-1.568 5.137 5.763 5.763 0 001.6 2.293 4.91 4.91 0 01-1.818-.756 8.5 8.5 0 01-3.915-6.82 11.292 11.292 0 014.71-10.055 14.248 14.248 0 019.91-2.493c5.516.781 12.932 3.908 19.538 5.495 2.56.614 4.542.819 6.342-.221a3.124 3.124 0 001.106-4.243C42.559.734 39.864.79 37.58.354a10.027 10.027 0 013.875-.277M114.349 45.572l-8.512 6.234V31.068zm-.244-19.936s-5.741 3.485-9.6 5.778c-3.858 2.294-9.035 4.827-9.035 4.827v24.14l-3.454 2.766.46.544 3.368-2.73 10.555 9.546 18.345-14.526-.434-.535-10.139 7.962-8.334-7.811.002-2.905 16.738-12.315-8.472-14.741M66.019 79.588a17.022 17.022 0 0011.78-1.641c5.67-2.841 8.526-8.873 8.486-15.05l.24-8.753.002-19.138 3.624-2.764-.42-.55-3.57 2.702-8.236-9.16-10.565 9.065V3.456L54.157 13.669c.588.378 2.46.714 2.515 3.355V60.23l-5.59 4.145.38.578 2.702-2.014 7.516 6.996 11.835-9.425-.428-.538-2.782 2.206-2.945-2.918.029-24.07 3.446-2.945 5.142 6.398s-.008 15.575.005 20.751c-.037 5.515-.056 12.404-2.955 15.733-2.898 3.327-4.058 3.59-7.008 4.462M148.154 77.414c-4.73-.547-6.713-3.408-6.66-5.668a5.159 5.159 0 014.225-4.683c2.875-.392 5.81.951 8.292 3.869L164.93 58.86l-.526-.473-2.934 3.283a19.101 19.101 0 00-11.42-6.147v-36.78l28.367 51.69s.27.585 1.437.59c1.005.005.762-.82.762-.82l-.002-52.01a12.917 12.917 0 007.53-3.122c5.46-5.609 3.23-11.729 2.63-12.331a5.911 5.911 0 01-5.822 5.382 10.05 10.05 0 01-7.253-3.309l-10.913 12.44.521.47 3.127-3.566a13.374 13.374 0 009.488 4.035v30.179l-21.043-38.238c-1.904-3.157-4.804-5.935-9.352-5.967-5.227-.035-8.967 4.575-9.413 8.545-.508 4.489.052 5.522.052 5.522s.769-4.998 3.859-4.953c2.772.04 4.219 2.593 5.331 4.507v11.078c-2.861.205-10.311.523-10.767 8.28a9.136 9.136 0 003.325 6.93 6.976 6.976 0 003.588 1.29 3.392 3.392 0 01-1.69-3.822c.647-2.27 5.377-2.643 5.548-1.698v15.63c-2.276-.02-9.566.218-12.853 6.476-1.98 3.77-1.867 7.996.252 10.979a10.978 10.978 0 0011.395 4.483M208.309 45.572l-8.512 6.234V31.068zm-.244-19.936s-5.741 3.485-9.6 5.778c-3.858 2.294-9.035 4.827-9.035 4.827v24.14l-3.453 2.766.46.544 3.367-2.73 10.555 9.546 18.345-14.526-.434-.535-10.139 7.962-8.334-7.811.002-2.905 16.738-12.315-8.472-14.741M233.707 70.688l-8.995-7.466-3.95 2.86-.402-.56 4.019-2.934V41.68c.195-8.598-7.88-6.463-7.443-15.597.191-4.013 4.078-7.048 6.038-8.049a10.72 10.72 0 014.368-1.067s-3.683 2.305-2.788 5.618c1.378 5.104 10.1 5.554 10.265 12.35v23.718l6.44 5.162 1.695-1.33V36.81l-3.472-3.45 8.94-7.908 8.17 7.243-3.117 3.38v22.745l7.649 6.31 1.36-.86V36.884l-3.478-3.26 8.96-8.186 8.375 6.919 3.345-2.958.453.525-7.53 6.61v22.32l-19.27 11.89-9.854-7.807-9.778 7.751M628.134 45.572l-8.513 6.234V31.068zm-.244-19.936s-5.741 3.485-9.6 5.778-9.036 4.827-9.036 4.827v24.14l-3.452 2.766.46.544 3.367-2.73 10.555 9.546 18.345-14.526-.435-.535-10.14 7.962-8.333-7.811v-2.905l16.74-12.315-8.471-14.741M541.762 35.74l.452.522 3.455-2.973 5.126 5.795v19.958l-2.488 2.265 7.993 9.044 8.2-8.09-3.371-3.48V34.646l2.038-1.63 5.672 6.628v19.884l-2.133 2.135 7.524 8.463 8.05-8.05-2.96-3.108-.074-24.227 2.171-1.763 5.914 6.516v19.774l-1.947 1.945 8.31 9.064 11.155-10.299-.472-.51-2.71 2.495-4.153-4.605V34.777l4.01-3.054-.417-.55-4.015 3.051-7.588-8.51-10.857 8.575-7.598-8.273-10.482 8.198-7.675-8.163-11.13 9.69"/><path d="M519.051 35.114l.453.523 2.917-2.516 4.566 5.402v22.804l-3.218 2.809.448.533 3.378-2.892 7.366 8.501 10.641-9.502-.448-.52-3.133 2.758-4.402-5.075v-22.3l3.71-3.21-.445-.53-3.527 3.038-7.748-9.033-10.558 9.21M525.004 16.772l7.87-7.205 6.396 7.095-7.905 7.169-6.361-7.06"/><path d="M489.076 52.166v-25.3l-7.607 3.4a25.053 25.053 0 00-1.6 10.643 26.17 26.17 0 005.135 13.28zM511.347.076a13.201 13.201 0 017.042 3.047 9.074 9.074 0 012.067 8.913 9.063 9.063 0 01-4.43 6.223 11.725 11.725 0 01-6.409 1.798v12.186l5.932 4.805-5.933 4.783.003 16.617a27.037 27.037 0 009.625-11.036s.152-.414.498-1.21c.328 2.051.142 6.189-2.17 11.496a21.457 21.457 0 01-8.882 10.048c-7.038 3.892-12.316 4.266-17.975 3.1a25.5 25.5 0 01-16.753-11.588 27.694 27.694 0 01-4.06-15.619c.233-11.245 8.593-20.93 18.243-24.555a9.351 9.351 0 013.307-.872c-.767.515-1.655 1.189-2.743 1.906a20.333 20.333 0 00-6.908 9.248l18.73-8.354v26.194l-15.104 7.562c1.72 2.398 6.95 6.01 11.425 6.509 7.61.85 12.073-2.478 12.073-2.478V41.831l-5.899-4.783 5.899-4.787V20.057a81.334 81.334 0 01-9.405-2.005c-3.361-.825-14.563-3.969-16.321-4.23-1.76-.263-3.932-.188-5.245.995a5.197 5.197 0 00-1.568 5.137 5.738 5.738 0 001.599 2.293 4.901 4.901 0 01-1.818-.756 8.498 8.498 0 01-3.916-6.82 11.295 11.295 0 014.713-10.055 14.248 14.248 0 019.908-2.493c5.515.781 12.933 3.908 19.54 5.495 2.56.614 4.54.819 6.34-.221a3.123 3.123 0 001.107-4.243c-1.407-2.42-4.102-2.365-6.385-2.8a10.024 10.024 0 013.873-.277M651.765 30.308v11.983l3.986 3.48s8.668-6.944 11.814-13.365c0 0-3.895 5.28-9.136 3.668-4.388-1.348-6.664-5.766-6.664-5.766zm-9.676 31.773s3.796-6.277 10.313-4.923c6.253 1.296 8.423 7.901 8.423 7.901V49.856l-4.361-3.802c-4.792 4.813-13.317 11.787-14.375 16.027zm6.213 11.552c-1.216.356-6.498-.925-7.767-6.404-1.233-5.335 2.471-8.948 8.067-14.64l-6.606-6.03V35.026s4.853-2.425 8.66-4.808c3.805-2.381 7.7-4.965 7.7-4.965s2.835 3.586 6.041 3.304c5.027-.44 4.793-4.409 4.65-5.344.855 1.534 3.15 6.088-5.676 16.269l7.186 5.805v14.979a144.101 144.101 0 00-16.246 10.11s-4.409-5.518-8.235-2.884c-2.585 1.779-1.405 4.794 2.226 6.141M359.387 56.59l9.284 8.407V39.289l-9.284-8.592zm19.14-20.994l3.237-2.98.468.523-3.156 2.93v23.817s-5.987 3.182-10.167 5.54c-4.175 2.358-8.638 5.123-8.638 5.123l-10.986-9.25-2.906 2.527-.47-.532 3.057-2.652V35.024h.039s5.182-2.343 9.554-4.81a726.731 726.731 0 008.285-4.766l11.683 10.148M400.13 33.193l6.977-7.137a10.64 10.64 0 001.858 1.282c.511.254 2.622 1.338 4.561.273a8.59 8.59 0 002.353-1.823c.232 5.55-2.428 9.461-5.75 11.07-1.357.659-5.325 1.933-9.48-3.132V59.36l4.418 3.902 3.685-3.051.427.53-11.547 9.64-8.785-7.995-3.16 2.984-.52-.55 4.815-4.348.04-22.132-3.692-4.894-3.175 2.806-.459-.516L393.88 25.68l6.25 7.512M429.55 43.87l12.904-18.784a9.807 9.807 0 004.662 2.8c4.029 1.056 7.55-2.84 7.55-2.84-.675 5.022-3.219 10.726-8.472 11.595-4.63.765-8.935-2.832-8.935-2.832l-.838 1.292 17.914 27.062 3.582-3.136.462.521-12.293 10.74-16.536-26.417"/><path d="M418.891 18.794c0-4.043-1.659-6.552-3.83-6.365l14.074-9.886v55.964h.001l3.718 3.925 2.812-2.445.445.521-11.341 9.906-7.683-7.208-3.075 2.696-.486-.523 5.365-4.673V18.794M328.527 34.533a5.74 5.74 0 01-4 1.771 5.911 5.911 0 01-4.047-1.78v7.664a5.913 5.913 0 014.047-1.779 5.847 5.847 0 014 1.687zm0-16.429l-5.427-4.773-2.62 2.078v17.974a5.718 5.718 0 004.061 2.043 5.515 5.515 0 003.986-1.968zm-8.047 50.92a6.933 6.933 0 005.671-1.097 6.518 6.518 0 002.376-5.261v-19.39a5.504 5.504 0 00-3.986-1.985 5.713 5.713 0 00-4.061 2.05zm-19.24-51.147c-.001-3.78-1.538-5.894-4.024-5.948-3.577-.078-4.425 4.97-4.425 4.97a9.432 9.432 0 012.604-7.418 10.43 10.43 0 0110.581-3.462c5.514 1.327 7.078 5.608 7.078 9.39v52.074s2.085.249 3.512.556c1.658.357 3.229.797 3.229.797V6.046h.685v8.465l11.304-9.102 8.278 7.36 3.863-3.34.437.524-4.033 3.485v48.409c-.202 3.166-.71 6.371-3.693 8.219-6.649 3.946-14.672-.598-21.821-1.643-5.303-.776-13.633-1.787-15.724 3.085a4.517 4.517 0 001.773 5.68c4.827 3.228 26.333-5.422 33.708-1.984 6.724 3.133 6.7 8.083 5.66 11.483-1.748 6.386-9.807 7.504-9.807 7.504s3.942-2.28 2.817-6.075c-.568-1.92-1.87-2.458-6.088-1.984-9.22 1.037-20.237 5.511-27.64 2.414-3.815-1.595-6.513-6.363-6.253-11.05.19-6.743 7.979-9.408 7.979-9.408l-.001-24.96c-.225-.982-4.382-.72-5.288 1.106-1.382 2.778 1.718 4.047 1.718 4.047a5.573 5.573 0 01-4.723-2.104c-1.047-1.208-3.237-5.454-.39-9.393 2.34-3.236 5.144-3.8 8.684-4.195V17.877"/></svg>