<svg xmlns="http://www.w3.org/2000/svg" width="815.426" height="172.462" viewBox="0 0 815.426 172.462"><path d="M10.276 73.119c6.342-6.85 17.753-14.086 28.791-14.086 18.015 0 28.665 11.924 28.665 25.631 0 20.171-14.716 27.271-28.408 27.271-14.337 0-22.962-6.721-29.047-13.063V73.119zM0 141.991h10.276v-32.469c9.127 6.724 15.977 11.16 29.677 11.16 28.417 0 38.052-20.422 38.052-35.768 0-15.095-10.653-34.63-36.275-34.63-15.218 0-21.947 4.316-31.454 12.05V52.313H0v89.678zM161.084 71.722c0-16.994-17.256-21.437-32.346-21.437-23.091 0-30.319 9.518-34.12 14.208l7.736 5.324c3.293-3.807 9.512-11.158 27.143-11.158 10.53 0 21.308 3.422 21.308 12.427v2.541c-25.874 3.042-60.253 3.929-60.253 26.891 0 17.129 16.113 20.165 27.02 20.165 12.686 0 23.47-3.798 33.11-10.017 0 2.663.756 5.956 1.269 7.989h10.271c-.63-3.544-1.138-6.341-1.138-10.273v-36.66zm-10.279 30.184c-6.592 3.556-19.404 10.408-33.74 10.408-5.076 0-16.744-1.397-16.744-11.797 0-12.812 20.293-15.603 50.484-18.517v19.906zM187.582 118.655h10.274V78.953c.385-1.905 10.906-18.769 25.5-18.769 4.439 0 6.975.759 8.241.881v-10.27c-1.905-.385-3.801-.507-6.085-.507-13.319 0-21.694 9.127-27.656 15.854V52.313h-10.274v66.342zM293.62 52.315h-26.384V30.248h-10.277v22.067h-14.08v8.754h14.08v41.1c0 5.332 0 18.517 21.694 18.517 4.186 0 9.384-.753 16.74-1.904v-8.876c-5.58 1.141-9.641 2.032-14.585 2.032-10.402 0-13.572-3.556-13.572-10.786V61.069h26.384v-8.754zM313.777 118.658h10.279V52.315h-10.279v66.343zm-.881-80.423h11.796V26.444h-11.796v11.791zM414.112 68.423c-5.07-8.62-14.594-18.138-34.63-18.138-20.544 0-38.052 12.175-38.052 35.015 0 19.912 14.838 35.386 38.688 35.386 20.679 0 30.313-8.876 36.147-19.03l-8.876-4.947c-6.972 12.053-16.233 15.225-27.02 15.225-16.233 0-28.659-11.035-28.659-25.623 0-19.407 14.072-27.271 27.772-27.271 16.621 0 22.834 9.763 25.748 14.457l8.882-5.074zM438.075 118.658h10.273V52.315h-10.273v66.343zm-.881-80.423h11.791V26.444h-11.791v11.791zM481.454 73.119c6.344-6.85 17.758-14.086 28.796-14.086 18.01 0 28.668 11.924 28.668 25.631 0 20.171-14.716 27.271-28.417 27.271-14.337 0-22.957-6.721-29.047-13.063V73.119zm-10.278 68.872h10.277v-32.469c9.136 6.724 15.984 11.16 29.683 11.16 28.411 0 38.046-20.422 38.046-35.768 0-15.095-10.649-34.63-36.27-34.63-15.224 0-21.944 4.316-31.459 12.05V52.313h-10.277v89.678zM629.729 71.722c0-16.994-17.251-21.437-32.347-21.437-23.085 0-30.318 9.518-34.125 14.208l7.741 5.324c3.299-3.807 9.513-11.158 27.143-11.158 10.53 0 21.312 3.422 21.312 12.427v2.541c-25.877 3.042-60.256 3.929-60.256 26.891 0 17.129 16.113 20.165 27.02 20.165 12.687 0 23.471-3.798 33.105-10.017 0 2.663.761 5.956 1.274 7.989h10.271c-.636-3.544-1.138-6.341-1.138-10.273v-36.66zm-10.276 30.184c-6.596 3.556-19.406 10.408-33.743 10.408-5.076 0-16.741-1.397-16.741-11.797 0-12.812 20.291-15.603 50.484-18.517v19.906zM653.689 118.655h10.279V72.36c5.963-6.347 15.347-13.327 26.635-13.327 7.229 0 18.646 2.161 18.395 17.89v41.732h10.271v-43.76c0-22.706-19.153-24.608-27.399-24.608-11.796 0-20.93 5.581-27.901 11.665v-9.64H653.69v66.343zM785.475 52.315h-26.384V30.248H748.82v22.067h-14.086v8.754h14.086v41.1c0 5.332 0 18.517 21.688 18.517 4.186 0 9.384-.753 16.743-1.904v-8.876c-5.577 1.141-9.643 2.032-14.588 2.032-10.401 0-13.572-3.556-13.572-10.786V61.069h26.384v-8.754z"/><path fill="#807F83" d="M591.842 172.462h3.832v-29.233h.101l13.513 29.233h3.498l13.413-29.233h.099v29.233h3.83v-32.743h-6.429l-12.718 27.561-12.709-27.561h-6.43z"/><path fill="none" stroke="#807F83" stroke-width="2.313" d="M591.842 172.462h3.832v-29.233h.101l13.513 29.233h3.498l13.413-29.233h.099v29.233h3.83v-32.743h-6.429l-12.718 27.561-12.709-27.561h-6.43z"/><path fill="#807F83" d="M641.146 172.462h31.197v-3.516h-27.031v-11.762h22.121v-3.501h-22.121v-10.454h26.464v-3.51h-30.63z"/><path fill="none" stroke="#807F83" stroke-width="2.313" d="M641.146 172.462h31.197v-3.516h-27.031v-11.762h22.121v-3.501h-22.121v-10.454h26.464v-3.51h-30.63z"/><path fill="#807F83" d="M683.367 172.462h15.646c9.067 0 19.703-3.336 19.703-16.667 0-10.724-7.704-16.079-18.383-16.079h-16.966v32.746zm4.157-29.235h12.809c6.989 0 14.126 2.84 14.126 12.435 0 12.874-11.383 13.285-14.787 13.285h-12.147v-25.72z"/><path fill="none" stroke="#807F83" stroke-width="2.313" d="M683.367 172.462h15.646c9.067 0 19.703-3.336 19.703-16.667 0-10.724-7.704-16.079-18.383-16.079h-16.966v32.746zm4.157-29.235h12.809c6.989 0 14.126 2.84 14.126 12.435 0 12.874-11.383 13.285-14.787 13.285h-12.147v-25.72z"/><path fill="#807F83" d="M729.736 139.716h4.16v32.743h-4.16z"/><path fill="none" stroke="#807F83" stroke-width="2.313" d="M729.736 139.716h4.16v32.743h-4.16z"/><path fill="#807F83" d="M755.932 160.432l9.21-17.613 9.216 17.613h-18.426zm-11.013 12.03h4.631l4.491-8.515h22.167l4.442 8.515h4.673L767.7 139.719h-5.104l-17.677 32.743z"/><path fill="none" stroke="#807F83" stroke-width="2.313" d="M755.932 160.432l9.21-17.613 9.216 17.613h-18.426zm-11.013 12.03h4.631l4.491-8.515h22.167l4.442 8.515h4.673L767.7 139.719h-5.104l-17.677 32.743z"/><path fill-rule="evenodd" clip-rule="evenodd" fill="#EF3E42" d="M798.101 0c-9.572 0-17.333 7.753-17.333 17.331 0 9.566 7.761 17.328 17.333 17.328 9.569 0 17.325-7.762 17.325-17.328C815.426 7.753 807.67 0 798.101 0m.006 26.81c-5.238 0-9.483-4.246-9.483-9.479 0-5.238 4.245-9.478 9.483-9.478 5.227 0 9.47 4.24 9.47 9.478 0 5.232-4.244 9.479-9.47 9.479"/></svg>