<svg xmlns="http://www.w3.org/2000/svg" viewBox="0 0 1000 592.672"><path d="M224.168 198.525c0-18.302-9.51-24.91-27.095-24.91h-10.995l-36.621 124.548 12.446.734c43.963.734 62.265-63.733 62.265-100.372m511.37 62.282c0-10.26-7.323-16.85-16.85-16.85-22.707 0-30.766 37.355-35.17 54.206h43.962c2.92-12.446 8.059-24.91 8.059-37.356m-447.62-46.165c0 80.601-57.878 102.574-126.75 102.574h-16.851l-23.441 72.527H59.345l62.266-215.393v-.735H94.499l5.139-18.302.734-.734H213.19c41.027 0 74.729 13.915 74.729 60.063m343.594 17.585l-95.25 139.196 56.41.734-5.857 17.586h-136.26L545.79 251.28h-55.675l5.856-19.053zm159.701 52.756c0 10.978-2.202 21.973-5.139 32.233H677.662c-4.405 13.18-9.527 29.298-9.527 43.23 0 11.711 6.59 17.567 17.585 17.567 19.77 0 27.112-29.297 32.234-43.945h63c-11.713 39.558-54.207 63.733-93.765 63.733-41.761 0-73.995-21.239-73.995-65.936 0-58.612 46.882-106.962 106.228-106.962 37.356 0 71.792 17.585 71.792 60.08M1000 295.96C1000 78.382 670.337 0 498.907 0 331.131 0 0 77.648 0 293.775c0 120.877 110.616 202.93 211.722 244.69h.735l95.967-330.413c20.522-70.324 50.553-143.584 136.26-143.584 30.048 0 69.606 13.18 69.606 49.819 0 20.504-15.383 39.558-36.639 39.558-17.568 0-32.233-13.915-32.233-31.5 0-21.256 16.117-31.5 35.17-32.234-5.856-11.729-19.788-16.117-32.234-16.117-58.611 0-71.792 118.675-83.52 158.233H471.06l-45.414 157.516H364.1l40.292-137.728h-45.414L297.446 460.8c-9.527 32.968-21.99 64.468-27.846 98.17 73.26 22.707 150.908 33.702 227.84 33.702 170.695 0 502.56-74.728 502.56-296.711m-28.563-36.622c0 18.32-14.649 33.702-32.968 33.702-15.383 0-29.314-13.931-29.314-29.314a42.973 42.973 0 011.468-9.527h-1.468c-31.5 23.458-46.149 106.962-54.941 135.543h-61.532l40.293-137.728-24.176-.735 6.59-19.053h83.522l-8.059 27.846c10.978-16.851 28.563-30.765 49.82-30.765 16.85 0 30.765 13.18 30.765 30.03" fill="#007cc2"/></svg>