<svg xmlns="http://www.w3.org/2000/svg" viewBox="0 0 747 316" style="height:45px"><style>.st-blue{fill:#0766d1}</style><path class="st-blue" d="M267 181c1.1 29.6 25 38.9 50.3 38.9 19.2 0 45.2-4.7 45.2-30 0-25.7-30.4-30-61.1-37.4-30.4-7.4-61.1-18.3-61.1-56.8 0-40.5 37.3-57.2 69.8-57.2 41.3 0 74.2 14 76.7 63H356c-2.2-25.7-23.2-33.9-43.4-33.9-18.5 0-39.8 5.5-39.8 25.7 0 23.7 32.6 27.6 61.2 35 30.8 7.4 61.2 18.3 61.2 57.2 0 47.9-41.6 63.4-79.6 63.4-42 0-77.4-18.3-79.2-68.1l30.6.2zM526.8 174.4c0 18.3-16.7 45.5-57.2 45.5-18.8 0-36.2-7.8-36.2-29.6 0-24.5 17.4-32.3 37.6-36.2 20.6-3.9 43.8-4.3 55.7-13.6v33.9h.1zm50 43.6c-4 1.6-6.9 1.9-9.4 1.9-9.8 0-9.8-7-9.8-22.6V93.9c0-47.1-36.5-55.3-70.2-55.3-41.6 0-77.5 17.5-79.3 67.3h30.8c1.5-29.6 20.6-38.1 46.7-38.1 19.5 0 41.6 4.7 41.6 33.5 0 24.9-28.9 22.6-63 29.6-31.8 6.6-63.3 16.3-63.3 61.9 0 40.1 27.9 56.4 61.9 56.4 26 0 48.8-9.7 65.8-31.1 0 21.8 10.2 31.1 26.1 31.1 9.8 0 16.6-1.9 22.1-5.4V218zM605.3 181c1.1 29.6 25 38.9 50.3 38.9 19.2 0 45.2-4.7 45.2-30 0-25.7-30.4-30-61.2-37.4-30.4-7.4-61.2-18.3-61.2-56.8 0-40.5 37.3-57.2 69.8-57.2 41.3 0 74.2 14 76.7 63h-30.8c-2.2-25.7-23.2-33.9-43.4-33.9-18.5 0-39.8 5.5-39.8 25.7 0 23.7 32.6 27.6 61.2 35 30.8 7.4 61.2 18.3 61.2 57.2 0 47.9-41.6 63.4-79.6 63.4-42 0-77.5-18.3-79.3-68.1l30.9.2zM137.4 98.3l-5.1-6.2c-7.1-8.5-18.7-8.4-27.2-1.4-8.6 7.1-11.1 18.8-4 27.4 0 0 .9 1 2.3 2.8"/><path class="st-blue" d="M103.2 120.8c16.3 19.6 38.2 45.9 38.2 45.9 27.3 33.1 15.1 74-21.9 97.2C86.9 284.4 27 277.1 6.4 243.5c16 47.2 69.6 78 128.9 63.2 51.4-12.8 108.9-79 46.1-155.2L134.6 95"/><path class="st-blue" d="M108.2 191.7C92.4 172.6 73 149.3 73 149.3c-27.3-33.1-15.1-74 21.9-97.2 32.6-20.5 92.5-13.2 113.1 20.4-16-47.2-69.6-78-129-63.2-51.3 12.9-108.8 79-46 155.3l44.5 53.8"/><path class="st-blue" d="M70.5 210.1l10.6 12.8c7.1 8.5 18.7 8.4 27.2 1.4 8.6-7.1 11.1-18.8 4-27.4 0 0-4.2-5-10.2-12.3M720.8 243.9c0-5.6 4.2-9.9 9.7-9.9 5.3 0 9.6 4.2 9.6 9.9s-4.3 9.9-9.6 9.9c-5.5.1-9.7-4.1-9.7-9.9m9.7 11.9c6.5 0 12-5 12-11.9 0-6.8-5.5-11.9-12-11.9s-12.1 5-12.1 11.9 5.5 11.9 12.1 11.9m-2.6-10.9h2.4l3.6 6h2.3l-3.9-6c2-.2 3.6-1.3 3.6-3.8 0-2.7-1.6-3.9-4.8-3.9h-5.2v13.7h2.1l-.1-6zm0-1.8v-4.3h2.8c1.5 0 3 .3 3 2 0 2.1-1.5 2.2-3.3 2.2h-2.5v.1zM215.7 243.9c0-5.6 4.2-9.9 9.7-9.9 5.4 0 9.6 4.2 9.6 9.9s-4.3 9.9-9.6 9.9c-5.5.1-9.7-4.1-9.7-9.9m9.7 11.9c6.5 0 12-5 12-11.9 0-6.8-5.5-11.9-12-11.9s-12.1 5-12.1 11.9 5.6 11.9 12.1 11.9m-2.5-10.9h2.4l3.6 6h2.3l-3.9-6c2-.2 3.6-1.3 3.6-3.8 0-2.7-1.6-3.9-4.9-3.9h-5.2v13.7h2.1v-6zm0-1.8v-4.3h2.8c1.5 0 3 .3 3 2 0 2.1-1.5 2.2-3.3 2.2h-2.5v.1z"/></svg>