<svg xmlns="http://www.w3.org/2000/svg" width="1000" height="128.311" viewBox="0 0 1000 128.311"><path fill="#FFF" d="M1000 128.311H0V.008h1000v128.303M3.727 124.487h992.555V3.816H3.727v120.671"/><path fill="#FFF" d="M76.864 51.144l-.597 44.9c0 1.322-.811 1.135-1.875.201-1.389-1.225-7.325-7.407-13.258-9.236-5.996-1.837-6.612-1.703-12.762-1.717-5.933-.023-11.179-.396-11.877-.71-.694-.298-1.68-.411-1.475-2.837l6.12-44.192c.302-1.926-.194-2.95 2.979-2.136 3.159.814 11.57.702 13.154.814 2.568.194 7.814 1.523 11.477 4.764 3.664 3.249 8.114 7.311 8.114 10.149M79.142 51.144l-.197 42.361c0 2.031.993 2.435 2.177.814 1.464-2.008 3.397-3.674 5.638-4.764 7.915-3.861 18.802-4.66 20.188-4.771 1.374-.098 8.502-.709 9.487-1.016 2.408-.732 3.035-.037 2.576-4.967l-5.533-43.078c-.209-1.926-.604-1.822-1.792-1.523-1.177.306-.848.306-6.43 1.322-2.662.485-6.317.097-10.581 1.419-4.137 1.277-7.366 3.569-10.98 6.907-1.364 1.247-4.355 3.637-4.553 7.296M197.879 36.649c1.053-.463 1.621-.829 1.726.545.168 2.031.903 11.492.956 12.373.056.918-.243 1.008-.841.418-1.43-1.404-6.276-6.706-13.557-8.744-5.347-1.494-9.805-1.158-12.959-.329-3.809.993-6.049 2.972-7.382 4.898-2.064 2.987-1.605 6.833.53 9.088 2.353 2.501 7.087 3.331 11.63 4.032 4.279.672 12.434 1.792 16.484 3.285 3.495 1.285 6.66 3.913 8.603 6.795 2.669 3.98 2.546 11-.46 15.195-3.312 4.63-7.448 7.185-12.228 8.514-6.766 1.874-14.031 1.486-20.665-.41-5.836-1.658-10.615-2.868-14.345-.732-.759.44-.982.336-1.042-.68-.067-1.098-.743-11.851-.772-13.814l.676-.238c2.038 2.352 8.431 7.026 15.483 9.4 5.97 2.001 11.141 2.65 17.992.74 3.182-.883 5.627-3.451 6.437-4.9 1.239-2.217 1.217-5.861-.519-7.892-1.161-1.353-2.793-3.458-16.219-5.392-14.009-2.031-17.899-5.533-20.584-9.7-3.282-5.108-2.793-10.955-.358-15.167 2.599-4.48 6.474-6.646 9.838-8.012 4.429-1.785 11.148-2.412 18.407-1.105 7.218 1.31 9.947 3.266 13.169 1.832M289.063 39.801c-.123-.836-.321-.918-1.116-1.367-1.333-.754-6.362-2.457-9.163-2.994-6.489-1.247-13.609-1.412-20.415.583-6.385 1.867-12.862 4.645-19.206 14.039-4.742 7.019-5.798 18.959-.362 27.561 5.253 8.326 12.534 12.307 18.918 14.494 6.202 2.121 15.401 2.405 23.019.501 3.182-.807 6.956-2.211 8.188-2.875.825-.44.948-.44 1.132-1.412a1818.17 1818.17 0 001.78-9.707c.146-.851-.272-1.001-.869-.388-2.678 2.732-6.99 5.57-11.373 7.34-5.611 2.27-13.083 3.338-20.095-.231-7.34-3.733-9.894-8.774-11.261-11.216-2.311-4.107-4.092-13.934 1.214-22.566 3.472-5.653 7.702-7.818 11.324-9.409 4.764-2.098 11.671-2.486 17.205-.313 3.479 1.374 8.251 4.085 11.051 7.497.403.493 1.03.485.941-.433l-.912-9.104M375.828 64.704H338.56V83.38c0 2.24.418 6.824 5.007 8.564l-.075.65h-19.608l-.068-.65c4.582-1.74 5.019-6.324 5.019-8.564V44.856c0-2.24-.437-6.84-5.019-8.572l.068-.649h19.608l.075.649c-4.589 1.732-5.007 6.333-5.007 8.572v14.539h37.269V44.856c0-2.24-.43-6.84-5.011-8.572l.063-.649h19.613l.067.649c-4.581 1.732-5.007 6.333-5.007 8.572V83.38c0 2.24.426 6.824 5.007 8.564l-.067.65h-19.613l-.063-.65c4.581-1.74 5.011-6.324 5.011-8.564V64.704M537.387 87.472V44.923c0-2.8.71-6.481 5.653-8.453l-.104-.769H522.52l-.074.65c4.592 1.74 5.018 6.325 5.018 8.572v38.524c0 2.24-.426 6.952-5.018 8.685l.074.657h33.76c2.949 0 5.787.716 7.931 2.017l.889-.307c.566-1.457 3.823-9.805 4.36-11.313l-.68-.448c-.545.486-5.213 4.742-12.104 4.742-6.894-.001-19.289-.008-19.289-.008M736.457 36.739c1.053-.463 1.621-.829 1.732.545.164 2.038.896 11.492.948 12.373.068.918-.238 1.008-.836.418-1.434-1.404-6.272-6.706-13.561-8.745-5.339-1.494-9.789-1.157-12.955-.329-3.809 1.001-6.05 2.979-7.378 4.898-2.069 2.995-1.605 6.84.529 9.103 2.353 2.494 7.079 3.315 11.627 4.024 4.278.672 12.434 1.785 16.495 3.286 3.479 1.285 6.646 3.913 8.588 6.788 2.673 3.986 2.554 11.006-.456 15.203-3.3 4.623-7.438 7.184-12.231 8.512-6.765 1.875-14.023 1.473-20.661-.417-5.84-1.665-10.626-2.868-14.346-.725-.762.433-.971.329-1.037-.679-.075-1.099-.747-11.844-.777-13.822l.672-.232c2.047 2.346 8.438 7.027 15.488 9.395 5.973 2.002 11.147 2.65 17.988.746 3.181-.881 5.638-3.449 6.444-4.904 1.232-2.211 1.21-5.855-.522-7.894-1.166-1.353-2.793-3.436-16.219-5.392-14.017-2.023-17.899-5.534-20.588-9.7-3.278-5.107-2.785-10.947-.351-15.159 2.591-4.495 6.474-6.653 9.842-8.02 4.42-1.777 11.141-2.405 18.399-1.098 7.215 1.302 9.955 3.266 13.166 1.825M795.038 41.601h-14.501c-3.002 0-4.779-.045-8.289 1.822-.896.485-.986-.119-.545-.687 1.695-2.217 5.257-6.847 7.004-9.199l.94-.083c.792.672 3.047 2.166 6.393 2.166h34.2c3.002 0 6.697-.358 10.268-1.583l.47.62a581.13 581.13 0 01-6.436 8.767l-1.061.09c-.65-.411-1.942-1.912-6.407-1.912h-12.307v41.922c0 2.24.426 6.832 5.004 8.572l-.067.656h-19.609l-.075-.656c4.594-1.74 5.019-6.332 5.019-8.572V41.601M875.26 45.013c0-2.248.426-6.833 5.01-8.565l-.067-.65h-19.608l-.067.65c4.577 1.732 5.003 6.317 5.003 8.565v38.523c0 2.233-.426 6.826-5.003 8.565l.067.657h19.608l.067-.657c-4.584-1.739-5.01-6.332-5.01-8.565V45.013M965.516 39.801c-.126-.836-.328-.918-1.112-1.367-1.337-.754-6.361-2.457-9.162-2.994-6.496-1.247-13.613-1.412-20.415.583-6.385 1.867-12.874 4.645-19.207 14.039-4.741 7.019-5.801 18.959-.365 27.561 5.257 8.326 12.538 12.307 18.915 14.494 6.205 2.121 15.396 2.405 23.021.501 3.181-.807 6.959-2.211 8.191-2.875.821-.44.948-.44 1.12-1.412.32-1.642 1.396-7.519 1.785-9.707.148-.851-.269-1.001-.866-.388-2.674 2.732-6.989 5.57-11.365 7.34-5.616 2.27-13.09 3.338-20.103-.231-7.341-3.733-9.895-8.774-11.253-11.216-2.308-4.107-4.1-13.934 1.209-22.566 3.473-5.653 7.699-7.818 11.321-9.409 4.764-2.098 11.679-2.486 17.204-.313 3.479 1.374 8.252 4.085 11.052 7.497.396.493 1.03.485.941-.433-.127-1.308-.911-9.104-.911-9.104M456.396 93.827h-.725c-3.252 0-15.203-.255-23.996-7.855-8.464-7.312-10.405-15.697-10.405-21.447v-.418c0-5.772 1.941-14.151 10.405-21.476 8.793-7.602 20.744-7.848 23.996-7.848h.725c3.245 0 15.196.247 23.989 7.848 8.464 7.325 10.413 15.704 10.413 21.476v.418c0 5.75-1.949 14.135-10.413 21.447-8.792 7.6-20.743 7.855-23.989 7.855m-.037-6.064c4.779 0 11.667-1.911 16.532-7.146 4.861-5.233 6.475-11.461 6.475-16.091v-.418c0-4.645-1.613-10.88-6.475-16.115-4.865-5.234-11.753-7.146-16.532-7.146h-.649c-4.787 0-11.668 1.912-16.533 7.146-4.861 5.235-6.481 11.47-6.481 16.115v.418c0 4.63 1.62 10.858 6.481 16.091 4.865 5.235 11.746 7.146 16.533 7.146h.649M621.118 35.642h9.961s26.808 47.693 28.346 50.427c1.538 2.741 3.786 5.003 5.996 5.772l-.074.895h-17.303c-.694 0-.582-.604-.104-.851.485-.238 2.912-1.517 1.12-4.823-1.143-2.068-5.354-9.708-5.354-9.708h-35.409s-4.541 8.05-5.437 9.798c-.59 1.143-.836 3.561.933 4.689l-.037.873h-12.724c-.567 0-.971-.537-.061-.934 1.068-.455 3.301-1.471 6.295-6.705 3.011-5.234 23.44-41.862 24.254-43.691.799-1.807 1.218-3.606-.597-5.271l.195-.471m5.249 9.147L611.209 71.97h29.72l-14.562-27.181"/><path fill="#ED1B2E" d="M640.929 71.978h-29.72l15.158-27.181 14.562 27.181M456.367 87.763h-.657c-4.779 0-11.668-1.911-16.533-7.139-4.854-5.241-6.474-11.469-6.474-16.099v-.418c0-4.645 1.62-10.88 6.474-16.115 4.865-5.234 11.754-7.146 16.533-7.146h.657c4.771 0 11.659 1.912 16.524 7.146 4.869 5.235 6.485 11.47 6.485 16.115v.418c0 4.63-1.616 10.858-6.485 16.099-4.865 5.228-11.752 7.139-16.524 7.139M338.56 64.711h37.276V83.38c0 2.24-.438 6.832-5.019 8.564l.071.658h19.613l.066-.658c-4.581-1.732-5.014-6.324-5.014-8.564V44.856c0-2.24.433-6.832 5.014-8.565l-.066-.657h-19.613l-.071.657c4.581 1.733 5.019 6.325 5.019 8.565v14.546H338.56V44.856c0-2.24.425-6.832 5.007-8.565l-.061-.657H323.89l-.075.657c4.582 1.733 5.019 6.325 5.019 8.565V83.38c0 2.24-.437 6.832-5.019 8.564l.075.658h19.616l.061-.658c-4.582-1.732-5.007-6.324-5.007-8.564V64.711m269.737 12.651h35.409s4.212 7.638 5.354 9.714c1.799 3.302-.635 4.57-1.12 4.823-.485.24-.591.845.104.845h17.303l.074-.89c-2.21-.783-4.458-3.039-5.996-5.779-1.538-2.732-28.338-50.426-28.338-50.426h-9.969l-.194.463c1.814 1.68 1.396 3.479.597 5.271-.813 1.83-21.243 38.464-24.246 43.698-3.002 5.242-5.234 6.251-6.303 6.706-.91.396-.507.934.061.934h12.724l.037-.867c-1.769-1.143-1.522-3.554-.925-4.695.887-1.74 5.428-9.797 5.428-9.797m171.821-35.754h14.928v41.921c0 2.24-.44 6.833-5.026 8.565l.083.656h19.609l.066-.656c-4.577-1.732-5.011-6.325-5.011-8.565V41.608h12.313c4.458 0 5.75 1.501 6.407 1.912l1.061-.089a694.68 694.68 0 006.429-8.759l-.463-.627c-3.577 1.225-7.265 1.583-10.274 1.583h-34.192c-3.354 0-5.601-1.494-6.4-2.166l-.933.082c-1.747 2.353-5.31 6.982-7.012 9.208-.313.418-.352.859.015.859.128 0 .299-.052.53-.179 3.338-1.786 5.122-1.824 7.87-1.824m80.476-5.802l-.067.649c4.577 1.732 5.003 6.325 5.003 8.565v38.516c0 2.24-.426 6.842-5.003 8.572l.067.65h19.608l.067-.65c-4.584-1.73-5.01-6.332-5.01-8.572V45.021c0-2.24.426-6.833 5.01-8.565l-.067-.649h-19.608m-404.922-1.016c-3.244 0-15.195.239-23.988 7.848-8.464 7.318-10.405 15.696-10.405 21.469v.418c0 5.75 1.941 14.135 10.405 21.447 8.793 7.601 20.744 7.855 23.988 7.855h.732c3.237 0 15.195-.255 23.981-7.855 8.472-7.312 10.413-15.697 10.413-21.447v-.418c0-5.772-1.941-14.151-10.413-21.469-8.786-7.609-20.744-7.848-23.981-7.848h-.732m-186.301-.277c-3.655 0-7.378.456-10.995 1.516-6.385 1.875-12.862 4.645-19.206 14.039-4.742 7.02-5.791 18.959-.362 27.562 5.253 8.326 12.533 12.314 18.918 14.486 3.405 1.173 7.71 1.777 12.149 1.777 3.663 0 7.426-.403 10.869-1.276 3.181-.792 6.963-2.203 8.18-2.86.833-.455.956-.455 1.139-1.411.314-1.644 1.386-7.52 1.781-9.723.094-.507-.022-.754-.25-.754-.153 0-.377.12-.62.366-2.677 2.74-6.989 5.585-11.372 7.355-3.002 1.209-6.545 2.076-10.268 2.076-3.219 0-6.567-.658-9.827-2.308-7.333-3.749-9.887-8.774-11.261-11.216-2.312-4.123-4.092-13.942 1.213-22.582 3.473-5.646 7.695-7.811 11.325-9.409 2.58-1.127 5.775-1.762 9.054-1.762 2.785 0 5.604.456 8.144 1.449 3.486 1.374 8.258 4.1 11.059 7.504.16.202.373.321.557.321.246 0 .437-.231.384-.754l-.91-9.102c-.124-.829-.322-.926-1.117-1.367-1.34-.747-6.361-2.457-9.154-2.995-3.045-.573-6.212-.932-9.43-.932m676.439 0c-3.651 0-7.369.456-10.991 1.516-6.377 1.875-12.866 4.645-19.214 14.039-4.733 7.02-5.786 18.959-.358 27.562 5.257 8.326 12.546 12.314 18.923 14.486 3.397 1.173 7.705 1.777 12.148 1.777 3.659 0 7.423-.403 10.865-1.276 3.181-.792 6.967-2.203 8.191-2.86.822-.455.948-.455 1.128-1.411.313-1.644 1.389-7.52 1.785-9.723.09-.507-.022-.754-.254-.754-.15 0-.366.12-.62.366-2.674 2.74-6.989 5.585-11.365 7.355-3.002 1.209-6.541 2.076-10.261 2.076-3.226 0-6.578-.658-9.834-2.308-7.348-3.749-9.895-8.774-11.261-11.216-2.307-4.123-4.092-13.942 1.217-22.582 3.466-5.646 7.692-7.811 11.313-9.409 2.576-1.127 5.787-1.762 9.058-1.762 2.778 0 5.608.456 8.147 1.449 3.486 1.374 8.251 4.1 11.051 7.504.173.202.374.321.561.321.246 0 .433-.231.381-.754-.12-1.307-.911-9.102-.911-9.102-.119-.829-.329-.926-1.113-1.367-1.336-.747-6.361-2.457-9.154-2.995-3.04-.573-6.214-.932-9.432-.932M160.117 90.437c2.8 0 6.004.859 9.6 1.875 3.678 1.053 7.538 1.643 11.406 1.643 3.121 0 6.242-.382 9.259-1.225 4.779-1.33 8.924-3.876 12.235-8.521 2.998-4.195 3.129-11.215.444-15.195-1.927-2.867-5.107-5.503-8.587-6.795-4.052-1.493-12.213-2.606-16.484-3.278-4.544-.702-9.285-1.538-11.63-4.018-2.136-2.27-2.596-6.115-.53-9.103 1.317-1.919 3.572-3.905 7.374-4.898 1.579-.418 3.482-.717 5.663-.717s4.626.299 7.304 1.045c7.28 2.031 12.127 7.34 13.549 8.744.247.247.452.374.59.374.198 0 .292-.261.258-.799-.06-.874-.795-10.334-.955-12.373-.061-.717-.243-.956-.557-.956-.284 0-.673.201-1.169.41a5.715 5.715 0 01-2.386.508c-2.472 0-5.361-1.344-10.79-2.33a43.956 43.956 0 00-7.654-.694c-4.208 0-7.938.665-10.745 1.8-3.364 1.359-7.247 3.532-9.846 8.02-2.427 4.197-2.916 10.051.366 15.159 2.677 4.167 6.56 7.669 20.583 9.692 13.419 1.949 15.051 4.047 16.212 5.406 1.735 2.023 1.758 5.668.519 7.893-.81 1.449-3.255 4.002-6.43 4.898-2.83.785-5.376 1.143-7.807 1.143-3.457 0-6.683-.717-10.192-1.896-7.053-2.367-13.453-7.033-15.483-9.393l-.676.238c.041 1.971.705 12.724.772 13.807.045.665.146.934.414.934.153 0 .358-.09.635-.24 1.423-.829 3.006-1.158 4.738-1.158m538.601.089c2.777 0 5.981.858 9.588 1.881 3.667 1.046 7.534 1.637 11.41 1.637 3.113 0 6.228-.39 9.244-1.227 4.794-1.32 8.932-3.882 12.239-8.504 3.002-4.196 3.121-11.225.448-15.211-1.942-2.867-5.108-5.496-8.588-6.788-4.062-1.5-12.217-2.606-16.495-3.286-4.532-.694-9.274-1.523-11.627-4.017-2.135-2.263-2.599-6.108-.529-9.103 1.328-1.919 3.569-3.905 7.378-4.899a22.613 22.613 0 015.675-.702c2.165 0 4.622.292 7.287 1.031 7.281 2.031 12.12 7.333 13.554 8.744.254.247.44.381.582.381.209 0 .291-.261.254-.807-.052-.866-.776-10.32-.94-12.366-.067-.725-.247-.963-.56-.963-.284 0-.673.194-1.181.418a5.52 5.52 0 01-2.382.508c-2.464 0-5.361-1.352-10.782-2.322a42.63 42.63 0 00-7.646-.702c-4.212 0-7.945.665-10.753 1.792-3.368 1.359-7.251 3.532-9.842 8.02-2.435 4.204-2.921 10.051.358 15.158 2.681 4.167 6.563 7.669 20.587 9.693 13.419 1.956 15.046 4.047 16.212 5.406 1.732 2.031 1.755 5.668.522 7.893-.807 1.457-3.264 4.018-6.444 4.906-2.823.784-5.361 1.135-7.788 1.135-3.465 0-6.69-.717-10.193-1.889-7.049-2.36-13.448-7.057-15.495-9.395l-.672.232c.03 1.979.702 12.724.777 13.814.045.656.148.934.418.934.142 0 .351-.09.619-.246 1.435-.828 3.01-1.156 4.765-1.156M522.52 35.701l-.074.657c4.584 1.732 5.01 6.325 5.01 8.565v38.524c0 2.24-.426 6.952-5.01 8.685l.074.657h33.752c2.957 0 5.788.724 7.945 2.022l.882-.313c.566-1.457 3.815-9.805 4.36-11.313l-.68-.448c-.545.486-5.227 4.742-12.112 4.742s-19.28-.008-19.28-.008V44.923c0-2.8.71-6.481 5.653-8.445l-.104-.777H522.52m-409.932-1.665c-.235 0-.526.075-.896.164-1.19.306-.854.313-6.429 1.322-2.67.485-6.317.097-10.581 1.419-4.145 1.277-7.367 3.569-10.988 6.907-1.355 1.247-4.354 3.644-4.544 7.295l-.205 42.369c0 1.173.336 1.8.855 1.8.377 0 .836-.313 1.325-.993 1.467-2.008 3.394-3.674 5.642-4.764 7.915-3.861 18.794-4.66 20.173-4.771 1.389-.098 8.516-.709 9.494-1.009 2.4-.739 3.043-.038 2.584-4.974l-5.541-43.078c-.138-1.321-.371-1.687-.889-1.687m-70.155 1.098c-1.284 0-1.057.941-1.277 2.419l-6.134 44.192c-.198 2.426.788 2.539 1.475 2.837.706.313 5.959.694 11.885.718 6.149.014 6.769-.128 12.754 1.717 5.933 1.821 11.876 8.013 13.258 9.229.53.464.997.748 1.341.748.336 0 .541-.284.541-.949l.598-44.9c0-2.837-4.458-6.892-8.121-10.141-3.655-3.241-8.893-4.563-11.47-4.764-1.575-.127-9.995 0-13.161-.822-.748-.187-1.294-.284-1.689-.284m953.848 89.361H3.727V3.824h992.555v120.671"/><path fill="#FFF" d="M3.727 3.816V124.48h992.555V3.816H3.727M1000 128.304H0V0h1000v128.304"/><path fill="#FFF" d="M75.733 96.993c-.336 0-.803-.284-1.341-.754-1.374-1.219-7.318-7.401-13.258-9.23-5.978-1.844-6.612-1.703-12.754-1.717-5.926-.016-11.179-.396-11.877-.71-.687-.298-1.681-.411-1.482-2.837l6.134-44.199c.229-1.479-.007-2.412 1.285-2.412.388 0 .94.097 1.68.284 3.174.814 11.586.687 13.161.814 2.569.194 7.822 1.523 11.478 4.764 3.663 3.248 8.113 7.311 8.113 10.148l-.59 44.9c0 .665-.205.949-.549.949M79.8 95.313c-.513 0-.855-.635-.855-1.808l.205-42.361c.19-3.659 3.188-6.056 4.544-7.31 3.614-3.323 6.852-5.616 10.98-6.893 4.271-1.322 7.919-.949 10.589-1.419 5.574-1.016 5.245-1.03 6.429-1.314.37-.104.669-.179.896-.179.519 0 .751.366.896 1.695l5.533 43.071c.459 4.929-.176 4.241-2.576 4.966-.986.314-8.113.918-9.495 1.023-1.386.104-12.272.91-20.18 4.764-2.248 1.098-4.175 2.764-5.635 4.764-.499.671-.954 1.001-1.331 1.001M181.123 93.946c-3.868 0-7.736-.598-11.399-1.635-3.603-1.024-6.799-1.883-9.599-1.883-1.74 0-3.315.328-4.753 1.15-.276.156-.475.238-.628.238-.269 0-.377-.261-.414-.926-.067-1.082-.743-11.843-.772-13.799l.672-.246c2.042 2.352 8.441 7.026 15.494 9.4 3.503 1.173 6.729 1.89 10.186 1.89 2.431 0 4.97-.351 7.8-1.149 3.182-.889 5.627-3.443 6.444-4.9 1.239-2.217 1.217-5.861-.526-7.892-1.165-1.353-2.793-3.45-16.204-5.399-14.023-2.023-17.914-5.533-20.584-9.692-3.297-5.108-2.8-10.962-.373-15.159 2.599-4.496 6.481-6.653 9.846-8.02 2.808-1.143 6.545-1.8 10.753-1.8 2.415 0 4.991.224 7.646.694 5.429.986 8.312 2.338 10.778 2.338.822 0 1.584-.15 2.387-.508.507-.231.903-.425 1.18-.425.313 0 .496.246.549.971.168 2.031.903 11.5.963 12.366.022.538-.06.792-.258.792-.146 0-.336-.12-.582-.366-1.438-1.404-6.284-6.706-13.557-8.744-2.67-.747-5.123-1.038-7.296-1.038-2.188 0-4.092.291-5.671.709-3.809.993-6.049 2.979-7.382 4.898-2.064 2.987-1.605 6.833.53 9.103 2.353 2.479 7.087 3.323 11.63 4.018 4.29.672 12.434 1.785 16.484 3.278 3.495 1.292 6.66 3.92 8.603 6.803 2.669 3.973 2.546 11-.46 15.188-3.304 4.637-7.448 7.198-12.228 8.521-3.021.836-6.138 1.224-9.259 1.224M269.875 93.894c-4.446 0-8.755-.612-12.149-1.777-6.385-2.18-13.665-6.168-18.926-14.494-5.429-8.602-4.38-20.542.37-27.554 6.344-9.394 12.813-12.179 19.198-14.039 3.625-1.068 7.34-1.523 11.003-1.523 3.211 0 6.385.351 9.428.934 2.793.545 7.814 2.24 9.154 2.994.795.448.993.538 1.117 1.367 0 0 .772 7.796.91 9.103.053.53-.146.754-.392.754-.183 0-.389-.112-.549-.321-2.801-3.412-7.579-6.123-11.059-7.497-2.539-1-5.365-1.449-8.151-1.449-3.271 0-6.471.627-9.046 1.762-3.63 1.598-7.853 3.756-11.332 9.409-5.306 8.632-3.524 18.458-1.214 22.574 1.382 2.434 3.936 7.475 11.269 11.208 3.26 1.657 6.608 2.315 9.827 2.315 3.715 0 7.266-.867 10.268-2.084 4.383-1.77 8.695-4.607 11.372-7.34.243-.254.452-.374.62-.374.228 0 .336.255.25.762-.403 2.188-1.475 8.072-1.781 9.707-.19.972-.306.972-1.139 1.427-1.217.649-4.999 2.054-8.188 2.86-3.434.865-7.197 1.276-10.86 1.276M390.502 92.603h-19.613l-.071-.658c4.581-1.74 5.015-6.332 5.015-8.564v-18.67h-37.276V83.38c0 2.232.429 6.824 5.018 8.564l-.074.658H323.89l-.075-.658c4.582-1.74 5.026-6.332 5.026-8.564V44.856c0-2.24-.444-6.84-5.026-8.572l.075-.649h19.609l.074.649c-4.589 1.732-5.018 6.333-5.018 8.572v14.546h37.276V44.856c0-2.24-.434-6.84-5.015-8.572l.071-.649H390.5l.066.649c-4.581 1.732-5.014 6.333-5.014 8.572V83.38c0 2.232.433 6.824 5.014 8.564l-.064.659M564.21 94.806c-2.15-1.301-4.981-2.024-7.938-2.024h-33.759l-.075-.649c4.592-1.732 5.025-6.444 5.025-8.692V44.916c0-2.24-.434-6.825-5.025-8.565l.075-.657h20.431l.09.776c-4.937 1.972-5.654 5.646-5.654 8.446v42.556s12.403.008 19.296.008c6.892 0 11.553-4.264 12.104-4.742l.673.441c-.538 1.508-3.794 9.856-4.354 11.313l-.889.314M719.716 94.044c-3.876 0-7.751-.598-11.417-1.637-3.6-1.022-6.796-1.881-9.581-1.881-1.755 0-3.33.336-4.765 1.158-.269.148-.478.238-.619.238-.27 0-.373-.27-.418-.926-.075-1.091-.747-11.836-.777-13.814l.672-.232c2.047 2.346 8.438 7.027 15.488 9.395 3.51 1.18 6.735 1.889 10.2 1.889 2.419 0 4.965-.351 7.788-1.135 3.188-.889 5.638-3.449 6.444-4.914 1.232-2.217 1.21-5.854-.522-7.893-1.166-1.352-2.793-3.442-16.212-5.398-14.023-2.023-17.906-5.534-20.587-9.693-3.279-5.107-2.786-10.955-.358-15.158 2.591-4.496 6.48-6.646 9.842-8.02 2.808-1.135 6.549-1.792 10.753-1.792 2.411 0 4.988.216 7.646.694 5.429.978 8.318 2.33 10.789 2.33.807 0 1.576-.142 2.375-.5.508-.224.896-.433 1.181-.433.313 0 .492.246.552.971.164 2.046.896 11.5.956 12.366.029.545-.06.799-.254.799-.149 0-.336-.127-.59-.374-1.434-1.403-6.265-6.706-13.561-8.744-2.658-.739-5.115-1.031-7.28-1.031a22.62 22.62 0 00-5.675.702c-3.809.994-6.05 2.987-7.378 4.899-2.069 2.994-1.598 6.84.529 9.103 2.353 2.494 7.095 3.323 11.627 4.025 4.286.672 12.434 1.785 16.495 3.278 3.479 1.292 6.646 3.929 8.588 6.796 2.673 3.988 2.554 11.007-.456 15.203-3.3 4.622-7.438 7.184-12.224 8.52-3.024.828-6.138 1.209-9.251 1.209M809.712 92.751h-19.609l-.083-.656c4.586-1.732 5.026-6.325 5.026-8.565V41.601h-14.928c-2.748 0-4.532.045-7.878 1.83-.224.127-.395.171-.522.171-.366 0-.328-.44-.015-.858 1.702-2.218 5.265-6.848 7.012-9.207l.933-.075c.8.672 3.047 2.158 6.4 2.158h34.2c3.002 0 6.689-.358 10.267-1.576l.463.62c-1.433 2.016-5.055 6.937-6.429 8.767l-1.061.082c-.657-.411-1.949-1.912-6.407-1.912h-12.313V83.53c0 2.24.434 6.833 5.011 8.565l-.067.656M880.195 92.751h-19.609l-.067-.656c4.578-1.727 5.011-6.332 5.011-8.565V45.006c0-2.241-.433-6.833-5.011-8.558l.067-.665h19.609l.074.665c-4.577 1.725-5.018 6.317-5.018 8.558v38.523c0 2.233.44 6.839 5.018 8.565l-.074.657M946.317 93.894c-4.45 0-8.758-.612-12.148-1.777-6.385-2.18-13.666-6.168-18.93-14.494-5.429-8.602-4.376-20.542.365-27.554 6.341-9.394 12.829-12.179 19.206-14.039 3.63-1.068 7.341-1.523 10.999-1.523 3.211 0 6.385.351 9.424.934 2.801.545 7.819 2.24 9.162 2.994.784.448.994.538 1.113 1.367 0 0 .784 7.796.911 9.103.052.53-.142.754-.389.754-.187 0-.396-.112-.553-.321-2.8-3.412-7.578-6.123-11.059-7.497-2.539-1-5.369-1.449-8.146-1.449-3.278 0-6.475.627-9.051 1.762-3.629 1.598-7.848 3.756-11.32 9.409-5.31 8.632-3.524 18.458-1.218 22.582 1.374 2.426 3.921 7.467 11.269 11.2 3.256 1.657 6.608 2.315 9.827 2.315 3.711 0 7.266-.867 10.268-2.084 4.376-1.77 8.691-4.607 11.365-7.34.246-.254.448-.374.62-.374.231 0 .336.255.254.762-.404 2.188-1.479 8.072-1.785 9.707-.188.972-.306.972-1.135 1.427-1.218.649-5.004 2.054-8.192 2.86-3.434.865-7.197 1.276-10.857 1.276M455.71 40.839c-4.787 0-11.668 1.912-16.533 7.153-4.861 5.235-6.481 11.47-6.481 16.115v.411c0 4.63 1.62 10.865 6.481 16.093 4.865 5.241 11.746 7.152 16.533 7.152h.649c4.779 0 11.667-1.911 16.532-7.152 4.861-5.228 6.481-11.463 6.481-16.093v-.411c0-4.645-1.62-10.88-6.481-16.115-4.865-5.242-11.753-7.153-16.532-7.153h-.649m.686 52.988h-.725c-3.244 0-15.195-.255-23.996-7.855-8.456-7.318-10.405-15.697-10.405-21.454v-.411c0-5.78 1.949-14.158 10.405-21.476 8.801-7.602 20.752-7.855 23.996-7.855h.725c3.237 0 15.196.254 23.996 7.855 8.457 7.318 10.406 15.696 10.406 21.476v.411c0 5.757-1.949 14.136-10.406 21.454-8.799 7.6-20.758 7.855-23.996 7.855M626.359 44.796l-15.158 27.181h29.72l-14.562-27.181m38.98 47.948h-17.302c-.688 0-.582-.604-.104-.845.493-.253 2.912-1.521 1.12-4.823-1.143-2.076-5.354-9.714-5.354-9.714H608.29s-4.54 8.057-5.429 9.803c-.598 1.136-.844 3.547.926 4.689l-.037.867h-12.725c-.56 0-.971-.53-.053-.934 1.061-.455 3.301-1.464 6.295-6.706 3.003-5.234 23.44-41.869 24.247-43.698.799-1.792 1.225-3.592-.59-5.265l.187-.47h9.969s26.8 47.694 28.339 50.426c1.537 2.74 3.785 4.996 6.003 5.779l-.083.891"/></svg>