<svg xmlns="http://www.w3.org/2000/svg" viewBox="0 0 243.431 98.102"><path d="M238.682 95.727a2.374 2.374 0 112.374 2.375 2.377 2.377 0 01-2.374-2.375m4.17 0a1.799 1.799 0 10-1.797 1.914 1.822 1.822 0 001.798-1.847q0-.034-.002-.067m-2.709-1.353h1c.645 0 .992.222.992.788a.671.671 0 01-.7.723l.721 1.178h-.513l-.695-1.159h-.303v1.159h-.502zm.502 1.15h.44c.295 0 .552-.04.552-.4 0-.317-.289-.37-.547-.37h-.445zM231.267 56.664c0-3.923-3.632-8.33-9.453-6.553-6.933 2.112-8.68 12.896-8.447 20.711.254 8.6 3.141 18.077 7.853 18.71 3.161.405 5.037-1.561 5.055-3.233l-.02-12.926a3.59 3.59 0 00-3.478-3.629v-5.11l13.982.003-.015 32.92-12.184-2.022c-12.384-1.252-19.275-9.859-21.151-21.057-2.724-16.19 5.909-28.232 20.427-30.225l12.749-2.032.004 14.401-5.322.042M53.639 49.332a13.465 13.465 0 0110.39 13.416c-.128 11.493-8.333 14.516-13.455 14.487l-8.519-.043.045 7.445c0 .799.693 2.103 3.235 2.705l.022 4.173c-5.325.626-10.331 1.2-15.758 1.94l.014-4.785a3.318 3.318 0 003.15-3.18V63.607c-.02-1.036-1.181-1.849-3.111-2.005l.014-5.08 12.404 1.78v13.462l7.166.043c3.637-.098 5.95-3.963 6.008-7.827.09-5.915-3.313-8.687-7.205-9.304l-33.84-4.035a2.745 2.745 0 00-2.011.623 2.894 2.894 0 00-.439 3.275s8.334 16.559 12.305 24.16c2.107 3.96 2.643 9.204-.258 12.711-3.541 4.29-9.675 3.64-23.66 6.147V84.158l5.056.032a6.798 6.798 0 003.555 6.033 5.327 5.327 0 005.36-.7c3.227-3.171.014-6.78-2.95-12.62L.99 56.31c-.35-.755-2.452-5.667.803-9.455a9.32 9.32 0 018.552-2.98l43.294 5.457M202.94 51.252a3.68 3.68 0 00-3.444 3.9l.002.032v37.01l-10.72-1.23c-3.93-8.827-11.22-26.741-11.22-26.741l.015 16.86c0 2.758 1.046 4.232 2.973 4.7v4.35c-9.066-.852-18.455-1.6-27.823-2.148l.048-4.136c2.28-.124 3.44-1.847 3.44-4.309l.022-21.05a3.012 3.012 0 00-3.4-2.568l-.041.006-.048-4.16 12.107-.856-.007 28.87a3.653 3.653 0 003.172 4.077q.164.02.33.026c1.773.152 3.384-1.055 3.384-2.572l-.03-23.718c0-1.452-1.255-2.7-3.224-2.747l.041-4.23 13.026-1.191 12.05 27.625-.01-21.063a3.332 3.332 0 00-3.412-3.248l-.037.001.047-4.168s9.699-1.179 12.76-1.486v4.164M151.59 68.778c-.436-9.918-6.792-15.817-13.865-15.86l-19.769-.078.062 4.645c2.411-.079 3.363 1.952 3.363 5.113l.005 24.33 15.743.098c6.774.035 15.018-5.623 14.461-18.248zm-15.932 13.12l-5.251.003V58.049l4.452-.003c4.48-.151 7.51 5.257 7.51 12.748 0 6.765-3.038 11.128-6.711 11.104z"/><path d="M118.407 76.535l-5.135-.029c-.028 3.161-1.507 5.266-4.004 5.437 0 0-2.722-.13-3.92-.083l-.007-29.237-12.522-.498-.05 4.54c1.35-.037 3.373.841 3.378 2.61l.014 20.086a2.48 2.48 0 01-2.284 2.893 2.334 2.334 0 01-2.45-1.57l-10.33-29.2-13.01-.953-.048 4.698c2.043.199 3.114 1.532 2.21 3.275l-8.285 22.787a6.12 6.12 0 01-4.62 3.932l-.058 5.064 13.867-1.27v-4.328a2.254 2.254 0 01-2.463-3.048l.909-2.16 11.774.006.49 2.373c.35 1.083-.407 1.9-2.366 1.845l-.014 4.725c7.312-.672 31.915-1.617 38.924-1.511.012-3.628 0-6.763 0-10.384zm-46.771-2.5l4.124-11.388 3.86 11.461zM125.919 13.556l1.198-6.359c-7.076 1.235-10.062 1.076-12.178 3.188a6.084 6.084 0 00-1.231 6.258c.692 1.984 3.653 10.988 3.774 11.347a2.495 2.495 0 01-.84 2.784 2.767 2.767 0 01-2.687.349 2.594 2.594 0 01-1.204-2.85l-2.464.362-1.226 6.255c7.08-1.23 10.063-1.075 12.174-3.182a6.073 6.073 0 001.233-6.264c-.69-1.98-3.178-9.843-3.518-11.039-.342-1.19-.59-2.107.59-3.091a2.437 2.437 0 013.91 2.622l2.469-.38"/><path d="M94.732 14.55v.064l.067.025c26.22-16.539 45.638-10.706 45.964-.636.237 7.463-4.398 13.947-15.361 19.427l-.025.076.062.036c15.53-5.25 22.469-12.551 22.454-20.678-.018-16.936-33.384-17.927-53.161 1.686"/><path d="M141.947 27.519l-.08-.021c-26.25 16.749-45.698 10.873-46.03.805-.24-7.464 4.504-13.977 15.476-19.462l-.02.01.036-.077-.067-.037C95.742 13.991 88.7 21.316 88.708 29.442c.022 16.936 33.696 17.682 53.239-1.855v-.068"/></svg>