<svg xmlns="http://www.w3.org/2000/svg" id="sh-logo" viewBox="0 0 1000.062 511.926" version="1.1" width="100%" height="100%"><style id="style3"></style><g id="g3073" transform="matrix(5.08565 0 0 -5.08565 965.384 13.191)"><path d="M0 0c-20.397 8.654-183.347-11.635-188.438-24.95-5.089-13.314 13.44-50.489 13.44-50.489l-9.379-21.3 26.115 19.03s133.892-12.645 142.699-7.77C-6.752-80.6 17.758-7.537 0 0" id="path3075" fill="#f0efef" fill-opacity="1" fill-rule="nonzero" stroke="none"/></g><g id="g3077" transform="matrix(5.08565 0 0 -5.08565 965.384 13.191)"><path d="M0 0c-20.397 8.654-183.347-11.635-188.438-24.95-5.089-13.314 13.44-50.489 13.44-50.489l-9.379-21.3 26.115 19.03s133.892-12.645 142.699-7.77C-6.752-80.6 17.758-7.537 0 0z" id="path3079" fill="none" stroke="#c8c7c7" stroke-width=".812" stroke-linecap="butt" stroke-linejoin="miter" stroke-miterlimit="4" stroke-opacity="1" stroke-dasharray="none"/></g><g id="g3081" transform="matrix(5.08565 0 0 -5.08565 948.78 34.726)"><path d="M0 0c-19.014 7.362-178.387-10.281-183.13-22.687-3.765-12.911 14.192-48.329 14.192-48.329l-7.165-15.312 20.748 15.559S-23.251-82.46-15.043-77.92C-6.833-73.376 14.917-5.834 0 0" id="path3083" fill="#fff" fill-opacity="1" fill-rule="nonzero" stroke="none"/></g><g id="g3085" transform="matrix(5.08565 0 0 -5.08565 906.104 319.239)"><path d="M0 0a5.985 5.985 0 00-5.986-5.984 5.984 5.984 0 100 11.967A5.985 5.985 0 000 0" id="path3087" fill="#c8c7c7" fill-opacity="1" fill-rule="evenodd" stroke="none"/></g><g id="g3089" transform="matrix(5.08565 0 0 -5.08565 855.138 282.606)"><path d="M0 0l3.098-.235.033.158.056.169.067.178.085.163.099.153.133.137.136.131.145.12.153.094.164.072.16.061.178.04.178.021.192.009.176-.009.18-.021.173-.04.166-.061.149-.072.155-.094.137-.12.144-.131.114-.137.119-.153.089-.163.087-.178.053-.169.046-.186.022-.191.005-.058L9.579-.73l3.682 32.479-3.872.407-.066-.114-.056-.124-.129-.231-.159-.214-.093-.103-.091-.106-.198-.192-.107-.086-.099-.091-.065-.034-.033-.014-.013-.005-.008-.016-.107-.079-.118-.06-.106-.063-.124-.047-.115-.042-.249-.073-.264-.036-.262-.017-.279.017-.258.036-.258.073-.242.089-.239.123-.224.148-.217.177-.198.192-.058.053-.038.048-.07.1-.113.146-.092.146-.088.153-.071.148-.068.16-.047.163-.044.168-.022.162-3.269.399L.005.002" id="path3091" fill="#c8c7c7" fill-opacity="1" fill-rule="evenodd" stroke="none"/></g><g id="g3093" transform="matrix(5.08565 0 0 -5.08565 709.035 193.93)"><path d="M0 0v-30.361h-6.939l.127 2.531c-3.105-2.117-5.921-3.064-6.832-3.064-1.026 0-1.884.248-2.566.735a4.407 4.407 0 00-1.53 1.942 8.523 8.523 0 00-.606 2.525c-.081.879-.116 2.619-.116 5.221V0h6.814v-20.672c0-4.312 1.038-4.879 2.416-4.879 1.171 0 2.42.503 2.42 5.108V0H0z" id="path3095" fill="#c8c7c7" fill-opacity="1" fill-rule="nonzero" stroke="none"/></g><g id="g3097" transform="matrix(5.08565 0 0 -5.08565 760.304 304.796)"><path d="M0 0c0-3.375 1.517-3.871 2.475-3.871 1.113 0 2.358.535 2.358 3.88v14.128c0 2.387-1.367 2.824-2.39 2.824-1.032 0-2.443-.558-2.443-2.824V0zm0 28.446v-8.62c3.371 2.118 6.077 2.478 6.929 2.478 1.102 0 2.047-.367 2.846-1.115.793-.737 1.307-1.597 1.53-2.576.228-.98.346-2.634.346-4.969V-.594c0-2.247-.118-3.868-.346-4.856-.223-1-.734-1.871-1.517-2.63-.783-.753-1.711-1.135-2.778-1.135-1.451 0-3.756.622-7.01 2.741v-2.207h-6.812v37.127H0z" id="path3099" fill="#c8c7c7" fill-opacity="1" fill-rule="nonzero" stroke="none"/></g><g id="g3101" transform="matrix(5.08565 0 0 -5.08565 599.694 349.142)"><path d="M0 0l-.025 37.113h-7.14V21.502H-14.751v15.611h-7.146L-21.921 0l7.17-.013v15.186h7.586V-.013L0 0z" id="path3103" fill="#c8c7c7" fill-opacity="1" fill-rule="nonzero" stroke="none"/></g><g id="g3105" transform="matrix(5.08565 0 0 -5.08565 355.374 193.985)"><path d="M0 0v-30.359h-6.931l.119 2.526c-3.094-2.115-5.917-3.062-6.826-3.062-1.029 0-1.883.249-2.568.738a4.329 4.329 0 00-1.523 1.937c-.332.81-.54 1.65-.614 2.526-.077.879-.113 2.623-.113 5.225V0h6.811v-20.674c0-4.318 1.032-4.88 2.416-4.88 1.174 0 2.417.504 2.417 5.107V0H0z" id="path3107" fill="#c8c7c7" fill-opacity="1" fill-rule="nonzero" stroke="none"/></g><g id="g3109" transform="matrix(5.08565 0 0 -5.08565 406.802 304.26)"><path d="M0 0c0-3.374 1.519-3.87 2.478-3.87 1.111 0 2.359.533 2.359 3.882v14.125c0 2.387-1.364 2.825-2.392 2.825C1.41 16.962 0 16.406 0 14.137V0zm0 28.445v-8.616c3.366 2.119 6.075 2.48 6.932 2.48a4.057 4.057 0 002.847-1.114c.794-.741 1.301-1.598 1.532-2.579.221-.978.34-2.635.34-4.972V-.594c0-2.248-.119-3.868-.34-4.861-.231-.99-.734-1.864-1.526-2.62-.786-.759-1.711-1.136-2.767-1.136-1.455 0-3.769.617-7.018 2.746v-2.211h-6.815v37.121H0z" id="path3111" fill="#c8c7c7" fill-opacity="1" fill-rule="nonzero" stroke="none"/></g><g id="g3113" transform="matrix(5.08565 0 0 -5.08565 175.281 216.284)"><path d="M0 0h-6.596v2.734c0 2.651-1.544 2.96-2.381 2.96-.96 0-2.564-.265-2.564-2.847 0-1.23-.011-2.203.373-2.781 1.022-1.537 3.387-2.869 4.641-3.721 3.674-2.492 5.038-3.198 5.854-4.822.814-1.634 1.219-4.266 1.219-7.892 0-2.641-.232-4.587-.687-5.838-.454-1.248-1.336-2.297-2.633-3.142-1.298-.843-3.843-1.275-5.839-1.275-2.292 0-4.844.489-6.178 1.471-1.337.979-2.207 2.222-2.615 3.731-.413 1.515-.62 3.663-.62 6.443v2.43h6.596v-4.491c0-2.699 1.476-3.258 2.508-3.258.91 0 2.657.441 2.657 2.989 0 2.174-.17 3.618-.645 4.268-.953 1.299-3.47 2.78-5.942 4.366-1.966 1.265-3.855 3.036-4.836 5.438-.504 1.238-.555 2.886-.555 4.849 0 2.833.267 4.914.798 6.22a6.307 6.307 0 002.586 3.079c1.188.743 3.934 1.11 5.624 1.11 1.834 0 4.717-.406 6.019-1.221 1.296-.808 2.157-1.824 2.581-3.061C-.217 6.508 0 4.424 0 1.464V0z" id="path3115" fill="#c8c7c7" fill-opacity="1" fill-rule="nonzero" stroke="none"/></g><g id="g3117" transform="matrix(5.08565 0 0 -5.08565 235.628 172.386)"><path d="M0 0v-4.803h2.244v-4.804H0v-16.262c0-1.995.072-3.114.225-3.345.157-.227.812-.341 1.968-.341v-4.899H-.572c-1.566 0-2.685.094-3.352.27-.671.172-1.257.579-1.765 1.21a4.506 4.506 0 00-.943 2.176c-.126.817-.183 2.729-.183 5.761v15.43H-8.77v4.804h1.955V0H0z" id="path3119" fill="#c8c7c7" fill-opacity="1" fill-rule="nonzero" stroke="none"/></g><g id="g3121" transform="matrix(5.08565 0 0 -5.08565 885.325 95.555)"><path d="M0 0l-.112-.261-.069-.126-.04-.059-.031-.07-.049-.052-.035-.064-.088-.121-.097-.11-.032-.022-.024-.031-.047-.06-.197-.202-.108-.086-.104-.092-.216-.145-.117-.064-.107-.059-.125-.047-.114-.047-.248-.069-.261-.036-.141-.011h-.071l-.062-.006-.285.017-.267.036-.252.069-.237.094-.239.123-.062.037c-.379.213-.702.52-.915.89l-.114.166-.07.114-.057.116-.015.037-.076.326-.055.135-3.958.272-.1-35.472 2.371-.126.19-.007L-5.533-2.68l3.542-.392.006-.14.03-.144.04-.132.062-.141.132-.26.087-.123.099-.131.152-.169.179-.151.187-.133.201-.126.202-.091.222-.075.234-.056.255-.046.323-.015.151.008.08.007h.088l.199.046.204.056.092.037.046.023.052.015.094.048.048.023.05.013.079.055.086.047.153.116.133.106.124.1.109.108.108.109.092.125.086.122.028.071.041.059.072.124 1.119-.155.602 3.495L0 0z" id="path3123" fill="#f57d14" fill-opacity="1" fill-rule="evenodd" stroke="none"/></g><g id="g3125" transform="matrix(5.08565 0 0 -5.08565 902.216 315.484)"><path d="M0 0a5.986 5.986 0 00-11.97 0A5.985 5.985 0 000 0" id="path3127" fill="#1265ab" fill-opacity="1" fill-rule="evenodd" stroke="none"/></g><g id="g3129" transform="matrix(5.08565 0 0 -5.08565 851.245 278.852)"><path d="M0 0l3.098-.239.036.161.053.169.07.176.086.163.097.155.134.137.133.129.146.119.155.097.164.071.161.059.175.043.179.021.191.01.179-.01.178-.021.171-.043.169-.059.148-.071L5.88.97l.139-.119.138-.129.115-.137.119-.155.089-.163.088-.176.052-.169.048-.185.02-.195.006-.055 2.888-.219 3.683 32.481-3.876.405-.059-.114-.06-.125-.129-.228-.161-.216-.092-.102-.088-.106-.199-.194-.109-.085-.1-.091-.065-.034-.027-.013-.02-.006-.002-.015-.111-.082-.118-.056-.107-.065-.124-.045-.115-.048-.249-.068-.263-.037-.26-.015-.277.015-.263.037-.259.068-.237.093-.242.121-.223.15-.218.176-.198.194-.058.052-.037.047-.07.102-.113.143-.092.149-.087.15-.072.149-.065.161-.051.163-.041.17-.027.161-3.262.399L.007 0" id="path3131" fill="#1265ab" fill-opacity="1" fill-rule="evenodd" stroke="none"/></g><g id="g3133" transform="matrix(5.08565 0 0 -5.08565 915.893 105.855)"><path d="M0 0h.151c.167 0 .31.062.31.222 0 .111-.079.225-.31.225A.858.858 0 010 .434V0zm0-.71h-.203V.573c.105.017.211.032.364.032.193 0 .322-.043.4-.097A.318.318 0 00.679.242C.679.074.562-.03.426-.067v-.014C.54-.103.615-.206.64-.396.671-.593.705-.672.726-.71H.509c-.031.038-.061.158-.087.326-.031.165-.114.226-.276.226H0V-.71zM.218.931c-.508 0-.924-.435-.924-.972 0-.548.416-.979.93-.979.509-.002.919.431.919.975 0 .541-.41.976-.919.976H.218zm.006.18c.628 0 1.13-.51 1.13-1.152 0-.651-.502-1.155-1.136-1.155A1.14 1.14 0 00-.925-.041c0 .642.512 1.152 1.143 1.152h.006z" id="path3135" fill="#1265ab" fill-opacity="1" fill-rule="nonzero" stroke="none"/></g><g id="g3137" transform="matrix(5.08565 0 0 -5.08565 705.162 190.186)"><path d="M0 0v-30.36h-6.941l.125 2.528c-3.102-2.115-5.918-3.06-6.83-3.06-1.026 0-1.885.246-2.565.734-.688.486-1.191 1.133-1.531 1.941a8.674 8.674 0 00-.607 2.525c-.079.88-.115 2.618-.115 5.222V0h6.815v-20.672c0-4.315 1.038-4.879 2.414-4.879 1.173 0 2.419.5 2.419 5.107V0H0z" id="path3139" fill="#f57d14" fill-opacity="1" fill-rule="nonzero" stroke="none"/></g><g id="g3141" transform="matrix(5.08565 0 0 -5.08565 756.43 301.062)"><path d="M0 0c0-3.375 1.516-3.868 2.472-3.868 1.114 0 2.36.532 2.36 3.881v14.126c0 2.39-1.367 2.825-2.392 2.825-1.032 0-2.44-.561-2.44-2.825V0zm0 28.449v-8.62c3.37 2.115 6.075 2.477 6.926 2.477 1.103 0 2.047-.369 2.846-1.115.795-.737 1.306-1.596 1.533-2.575.229-.98.344-2.634.344-4.97V-.594c0-2.242-.115-3.866-.344-4.853-.227-1-.735-1.871-1.518-2.631-.784-.752-1.715-1.136-2.776-1.136-1.453 0-3.763.623-7.011 2.744v-2.209h-6.816v37.128H0z" id="path3143" fill="#f57d14" fill-opacity="1" fill-rule="nonzero" stroke="none"/></g><g id="g3145" transform="matrix(5.08565 0 0 -5.08565 595.8 345.392)"><path d="M0 0l-.021 37.113h-7.142V21.5h-7.586v15.613h-7.146L-21.92 0l7.171-.012v15.184h7.586V-.012L0 0z" id="path3147" fill="#f57d14" fill-opacity="1" fill-rule="nonzero" stroke="none"/></g><g id="g3149" transform="matrix(5.08565 0 0 -5.08565 351.506 190.235)"><path d="M0 0v-30.36h-6.932l.12 2.528c-3.098-2.116-5.919-3.063-6.827-3.063-1.031 0-1.886.25-2.573.737a4.353 4.353 0 00-1.522 1.935 8.673 8.673 0 00-.613 2.53c-.076.878-.111 2.621-.111 5.222V0h6.811v-20.674c0-4.317 1.032-4.882 2.416-4.882 1.171 0 2.419.507 2.419 5.109V0H0z" id="path3151" fill="#1265ab" fill-opacity="1" fill-rule="nonzero" stroke="none"/></g><g id="g3153" transform="matrix(5.08565 0 0 -5.08565 402.918 300.51)"><path d="M0 0c0-3.374 1.519-3.872 2.477-3.872 1.114 0 2.362.535 2.362 3.883v14.126c0 2.388-1.366 2.826-2.392 2.826-1.036 0-2.447-.557-2.447-2.826V0zm0 28.445v-8.616c3.366 2.117 6.078 2.478 6.932 2.478a4.04 4.04 0 002.846-1.114c.796-.739 1.305-1.599 1.532-2.577.224-.978.34-2.636.34-4.973V-.595c0-2.247-.116-3.868-.34-4.86-.227-.992-.734-1.864-1.526-2.621-.786-.758-1.706-1.135-2.764-1.135-1.456 0-3.773.617-7.02 2.747v-2.213h-6.813v37.122H0z" id="path3155" fill="#1265ab" fill-opacity="1" fill-rule="nonzero" stroke="none"/></g><g id="g3157" transform="matrix(5.08565 0 0 -5.08565 171.368 212.53)"><path d="M0 0h-6.587v2.733c0 2.65-1.548 2.96-2.381 2.96-.962 0-2.566-.265-2.566-2.85 0-1.227-.01-2.202.375-2.78 1.019-1.535 3.386-2.869 4.638-3.72 3.674-2.493 5.04-3.198 5.854-4.821.812-1.635 1.22-4.266 1.22-7.894 0-2.64-.23-4.585-.686-5.839-.457-1.244-1.335-2.294-2.633-3.142-1.299-.842-3.845-1.271-5.839-1.271-2.292 0-4.842.488-6.18 1.47-1.335.979-2.207 2.221-2.615 3.731-.413 1.513-.619 3.662-.619 6.442v2.43h6.593v-4.493c0-2.696 1.476-3.254 2.514-3.254.907 0 2.655.44 2.655 2.988 0 2.174-.173 3.619-.647 4.268-.952 1.3-3.472 2.779-5.94 4.367-1.97 1.263-3.859 3.032-4.838 5.436-.502 1.239-.552 2.887-.552 4.849 0 2.831.267 4.914.799 6.221a6.318 6.318 0 002.582 3.079c1.189.743 3.935 1.11 5.624 1.11 1.833 0 4.714-.408 6.02-1.22 1.295-.809 2.157-1.827 2.58-3.063C-.21 6.506 0 4.421 0 1.464V0z" id="path3159" fill="#1265ab" fill-opacity="1" fill-rule="nonzero" stroke="none"/></g><g id="g3161" transform="matrix(5.08565 0 0 -5.08565 231.73 168.631)"><path d="M0 0v-4.805h2.247v-4.806H0v-16.258c0-1.999.074-3.118.227-3.347.161-.228.815-.341 1.971-.341v-4.898H-.569c-1.563 0-2.683.092-3.351.269-.673.172-1.256.578-1.766 1.211a4.507 4.507 0 00-.94 2.176c-.128.816-.184 2.73-.184 5.761v15.427h-1.955v4.806h1.955V0H0z" id="path3163" fill="#1265ab" fill-opacity="1" fill-rule="nonzero" stroke="none"/></g></svg>