<svg xmlns="http://www.w3.org/2000/svg" width="1000" height="201.633" viewBox="-364.296 -73.454 1000 201.633"><path fill="#15A6DF" d="M-17.092 15.368c22.103-41.799 80.636-24.471 80.58 11.69-.081 52.972-.088 60.658-.088 60.658-.185 32.609 6.466 29.677 15.076 32.434 3.729 1.187 3.302 4.563-1.621 4.563h-47.88-12.729c-5.351 0-4.742-3.4-1.445-4.563 8.846-3.135 15.791 1.011 15.375-32.434V30.902c0-10.093-2.722-17.297-10.174-21.863-7.446-4.566-16.398-3.465-23.06.723-7.355 4.62-13.508 15.224-13.504 25.771l-.018.719c-.07 47.384-.078 51.512-.078 51.512-.18 32.613 6.462 29.677 15.073 32.433 3.737 1.195 3.301 4.563-1.617 4.563H-51.082h-12.729c-5.347 0-4.746-3.396-1.445-4.563 8.843-3.123 15.8 1.022 15.372-32.433V30.708c0-10.089-2.719-17.296-10.165-21.866-7.446-4.563-16.337-3.364-23.065.723-6.729 4.081-13.783 15.616-13.783 27.864V87.76c-.178 32.613 6.948 29.677 15.558 32.434 3.729 1.194 3.301 4.563-1.621 4.563H-130.84h-12.253c-5.343 0-4.742-3.396-1.441-4.563 8.846-3.123 15.319 1.021 14.896-32.434V32.385c0-4.804-1.765-16.721-16.176-17.056-5.165-.122-4.803-4.681-.239-4.803 5.527-.144 21.819 1.475 43.482-17.3 3.604-3.12 5.658-3.033 5.658 1.536v20.542c20.021-37.867 69.276-27.073 78.716 2.123l1.105-2.059zM-171.258-5.548c-17.136 16.599-33.639 16.095-44.934 16.217-3.846.036-3.246 3.721-1.2 3.721 9.967 0 17.294 8.167 17.294 21.502V87.9c.421 33.448-6.525 29.31-15.371 32.426-3.301 1.173-3.909 4.569 1.441 4.569h59.891c4.922 0 5.354-3.375 1.617-4.569-8.606-2.741-15.015.18-14.83-32.426V-3.925c-.002-2.407-1.098-4.347-3.908-1.623zm-74.361 79.756V-64.165c30.991-2.878 67.987 11.838 73.752 49.73.604 3.994 4.561 2.763 4.561-.72v-57.897H-364.297v57.897c0 3.483 3.954 4.714 4.564.72 5.759-37.892 42.764-52.612 73.752-49.73v151.83c.601 32.912-10.158 29.847-18.26 32.664-2.476.87-3.003 4.569 1.923 4.569h36.518l.358-.122h36.034c4.926 0 4.404-3.699 1.923-4.563-8.101-2.828-18.856.244-18.26-32.668l.126-13.337zm510.15-109.545V87.665c.476 33.628-10.117 29.958-18.257 32.664-2.598.87-3.367 4.497 1.914 4.569 6.729.09 32.679 0 32.679 0h36.514c4.088 0 5.361-3.458 1.922-4.688-8.074-2.875-18.38 1.685-18.257-32.549V-35.337l.093-.871c.123-33.984 9.014-29.67 17.178-32.308 4.159-1.349 4.203-4.9-.846-4.926-6.721-.029-36.514 0-36.514 0s-25.942-.021-32.671 0c-5.526.029-4.135 3.955-1.087 4.804 8.736 2.439 17.66-.115 17.426 32.43l-.094.871zm132.858 45.02c6.729-4.08 15.616-5.282 23.064-.716 7.444 4.563 10.172 11.766 10.172 21.855v57.055c.421 33.448-6.523 29.318-15.378 32.434-3.3 1.166-3.897 4.563 1.446 4.563h60.613c4.922 0 5.354-3.367 1.615-4.563-8.614-2.749-15.249.181-15.076-32.434 0 0 .007-7.923.094-60.898.05-36.161-64.011-53.364-86.111-11.561V-5.124c0-4.566-1.676-5.214-4.706-1.529-16.616 20.222-38.913 16.979-44.44 17.3-4.199.234-4.069 4.44.241 4.804 14.363 1.194 16.174 12.251 16.174 17.055v55.371c.421 33.448-6.523 29.318-15.375 32.434-3.296 1.166-3.9 4.563 1.442 4.563h60.613c4.923 0 5.354-3.367 1.623-4.563-8.614-2.749-15.734.181-15.565-32.434v-50.33c.002-12.248 12.825-23.777 19.554-27.864zM579.75 11.86c1.763 3.307.561 6.729-.468 9.027-.997 2.231-1.217 4.278-1.217 6.495 0 8.204 5.966 14.519 13.688 14.519 7.726 0 13.63-6.314 13.63-14.519 0-2.702-.173-4.437-1.273-6.732l-.856-1.598C591.934 1.428 573.756-9.55 550.843-9.657c-33.844-.166-65.601 30.195-65.601 68.012 0 37.813 25.064 67.778 62.197 68.814 27.188.756 51.014-11.011 62.772-39.784 2.008-5.812-2.684-7.995-5.922-1.396-18.703 38.083-56.333 23.157-67.407 11.514-9.535-10.038-16.293-22.809-17.235-42.134-.237-7.308.316-10.74.438-13.252C522 18.114 536.147-.093 553.915-.093c10.945 0 19.739 1.288 25.676 11.579l.159.374zm29.454 100.301c0 7.318 5.93 13.248 13.248 13.248 7.322 0 13.252-5.926 13.252-13.248 0-7.326-5.93-13.248-13.252-13.248-7.318 0-13.248 5.922-13.248 13.248zM215.626 53.814c-2.688-35.297-31.566-62.726-66.939-62.726-37.142 0-67.262 30.656-67.262 68.469 0 37.809 30.482 67.619 67.618 68.58 29.073.763 50.677-8.614 63.965-39.651 1.647-5.156-3.455-8.261-6.865-1.76-21.291 40.605-61.058 25.907-72.125 14.264-9.798-10.313-15.258-25.331-15.891-45.549l1.838.011h92.981c2.885-.001 2.68-1.638 2.68-1.638zm-97.043-7.966c.229-27.274 13.29-45.192 31.514-45.192 18.069 0 31.628 14.381 31.351 45.214h-59.011l-3.854-.022z"/></svg>