<svg xmlns="http://www.w3.org/2000/svg" viewBox="0 0 425.33 117.734"><path d="M302.447 81.06v1.442c.009 4.16-.034 8.32.04 12.479.077 4.34 2.44 7.202 6.63 8.273a10.628 10.628 0 009.406-1.9c.32-.238.645-.473 1.2-.88v3.067h12.05a3.765 3.765 0 01-2.13-3.496 18.094 18.094 0 01-.086-1.675q-.007-10.38-.007-20.76c0-.458-.045-.917-.074-1.452l-11.959.5c1.88.887 2.126 2.495 2.148 4.126q.079 5.879-.007 11.759a9.026 9.026 0 01-.511 2.811 3.104 3.104 0 01-2.896 2.161c-2.337.17-3.777-1.268-3.789-3.88-.024-5.36-.007-10.72-.008-16.08v-1.357c-.51-.025-.9-.061-1.29-.061q-13.26-.005-26.519 0a16.158 16.158 0 00-8.84 2.2 8.681 8.681 0 00-1.615 13.875 38.09 38.09 0 004.06 3.11c-.79.23-1.715.469-2.619.772a1.686 1.686 0 00-1.24 1.935 5.835 5.835 0 005.788 5.596c.758.039 1.526-.056 2.277.024a34.289 34.289 0 015.537.75 3.516 3.516 0 012.496 3.587 3.756 3.756 0 01-2.43 3.894 9.07 9.07 0 01-6.791.246 4.045 4.045 0 01-2.885-2.805c-.348-1.476.307-2.587 1.803-3.38-2.76-.403-5.266-.545-7.637.63-3.46 1.715-3.878 5.717-.746 7.951a16.473 16.473 0 004.262 2.123c4.145 1.4 8.442 1.18 12.713.81a16.594 16.594 0 008.437-2.807 8.082 8.082 0 00-.721-13.793 11.053 11.053 0 00-4.172-1.367c-2.777-.267-5.586-.185-8.38-.282-.952-.034-2.179-.01-2.258-1.253-.083-1.31 1.176-1.125 2.045-1.243a25.669 25.669 0 009.475-2.83 7.841 7.841 0 002.527-11.913c-.176-.24-.343-.489-.58-.828.343-.037.534-.075.725-.075 2.118-.005 4.236-.003 6.57-.003z" fill="#fff" fill-rule="evenodd"/><path d="M212.144 83.37c2.1-.567 4.073-1.2 6.09-1.616a6.222 6.222 0 014.967.76c1.441.996 1.482 2.627-.002 3.538a12.004 12.004 0 01-2.994 1.138c-2.644.755-5.39 1.228-7.938 2.218a6.655 6.655 0 00-4.385 6.324c-.115 3.02 1.868 5.553 5.219 6.872 2.992 1.179 6.118 1.027 9.233.996a.801.801 0 00.61-.275c.65-1.243 1.255-2.51 1.825-3.672a19.577 19.577 0 01-3.776-.551 3.284 3.284 0 01-1.092-5.7 9.837 9.837 0 014.811-1.819v3.631c.006 4.516 2.27 7.316 6.68 8.173a14.719 14.719 0 002.743.221c5.88.02 11.759.01 17.639.01h1.273c-1.85-1.01-2.21-2.657-2.221-4.439-.028-4.08-.012-8.158-.004-12.238a7.075 7.075 0 01.113-1.192 3.792 3.792 0 014.154-3.451c1.996.146 2.938 1.365 2.946 3.891.013 4.44.003 8.879.003 13.318v4.024h12.133a4.199 4.199 0 01-2.37-4.125c-.014-.4-.01-.8-.01-1.2-.002-4.439.04-8.879-.016-13.318-.06-4.589-2.629-7.594-7.09-8.51a10.61 10.61 0 00-8.725 1.982l-1.078.789a9322.15 9322.15 0 00-.135-2.986l-11.973.488c2.013.904 2.14 2.664 2.153 4.393.04 5.8.016 11.599.011 17.398 0 .344-.055.687-.081 1.002-4.095.753-6.375-1.13-6.395-5.16-.011-2.679-.03-5.359-.069-8.038-.075-5.095-2.326-8.045-7.234-9.41a24.744 24.744 0 00-12.34.09 1.321 1.321 0 00-.818.72c-.654 1.881-1.237 3.788-1.857 5.725zM363.85 76.647c1.587.727 1.965 2.081 2.13 3.563a9.722 9.722 0 01.033 1.08q-.007 8.52-.022 17.04c-.001.381-.045.764-.068 1.116-4.28.76-6.481-1.077-6.515-5.276-.024-2.878-.02-5.76-.165-8.635-.189-3.708-1.688-6.636-5.346-8.084-4.696-1.857-9.476-1.576-14.274-.504a1.067 1.067 0 00-.673.578c-.66 1.952-1.27 3.92-1.884 5.851 2.058-.56 4.028-1.186 6.04-1.616a6.473 6.473 0 014.775.597c1.72 1.017 1.791 2.81.087 3.808a11.092 11.092 0 01-2.793 1.017c-2.238.587-4.54.963-6.737 1.674-3.694 1.196-5.686 3.866-5.637 7.186.046 3.047 2.164 5.506 5.74 6.75 2.829.983 5.753.827 8.668.808a.917.917 0 00.699-.331c.64-1.212 1.224-2.454 1.79-3.61a27.097 27.097 0 01-3.787-.549 3.186 3.186 0 01-2.26-2.84 2.896 2.896 0 011.455-3.071 42.734 42.734 0 014.57-1.878c0 1.872-.057 3.347.011 4.816a6.84 6.84 0 004.657 6.623 13.335 13.335 0 004.319.821c6.158.088 12.319.039 18.478.034.314 0 .626-.049.939-.075-1.878-.845-2.119-2.477-2.148-4.09-.07-3.92-.089-7.842-.002-11.76a4.712 4.712 0 014.6-4.903 32.437 32.437 0 013.363-.02c0-1.89-.039-3.762.018-5.63.025-.834-.297-1.134-1.083-1.19a6.66 6.66 0 00-6.2 2.677c-.17.225-.368.427-.796.92v-3.38l-11.982.483zM403.12 77.861a1.405 1.405 0 01-.289-.014c-.357-.177-.71-.36-1.066-.536a10.946 10.946 0 00-11.892.92c-6.567 4.636-7.496 15.855-1.881 21.78a11.44 11.44 0 009.98 3.903c.6-.065 1.434-.205 1.713-.614.93-1.364 1.658-2.867 2.501-4.383-4.112-.031-6.062-1.544-7.093-5.409a14.315 14.315 0 01.028-7.586 7.324 7.324 0 011.402-2.735 3.548 3.548 0 016.136 1.021 9.065 9.065 0 01.522 3.16c.052 4.957.022 9.917.026 14.875 0 .422.035.844.054 1.276h12.241a3.192 3.192 0 01-2.083-2.772 12.436 12.436 0 01-.159-2.025q-.025-16.555-.028-33.111v-1.455l-12.2.5a3.45 3.45 0 012.063 3.239c.077 3.303.026 6.61.026 9.966zM175.78 64.166l-.069.29c1.881.952 2.645 2.695 3.3 4.524 2.976 8.313 6.026 16.6 8.915 24.943 2.072 5.982 6.826 8.371 12.488 9.829l13.383-39.517h-10.566c2.799 1.96 3.165 3.075 2.173 6.234q-1.633 5.203-3.272 10.405c-1.156 3.686-2.307 7.374-3.574 11.426-.284-.766-.453-1.193-.601-1.626q-4.318-12.71-8.613-25.428a1.316 1.316 0 00-1.501-1.103c-2.799.063-5.6.023-8.4.023z" fill="#fff" fill-rule="evenodd"/><path d="M302.447 81.06c-2.335 0-4.453 0-6.57.003-.192.001-.383.04-.725.076.236.339.403.587.579.828a7.841 7.841 0 01-2.527 11.912 25.669 25.669 0 01-9.475 2.83c-.87.12-2.128-.065-2.045 1.244.08 1.242 1.306 1.22 2.258 1.253 2.794.097 5.603.015 8.38.282a11.053 11.053 0 014.172 1.367 8.082 8.082 0 01.721 13.792 16.594 16.594 0 01-8.437 2.809c-4.27.37-8.568.589-12.713-.811a16.473 16.473 0 01-4.262-2.123c-3.132-2.234-2.715-6.236.746-7.95 2.371-1.176 4.877-1.034 7.637-.631-1.496.793-2.151 1.904-1.803 3.38a4.045 4.045 0 002.885 2.804 9.07 9.07 0 006.79-.245 3.756 3.756 0 002.43-3.894 3.516 3.516 0 00-2.495-3.586 34.289 34.289 0 00-5.536-.752c-.751-.08-1.52.016-2.278-.024a5.835 5.835 0 01-5.788-5.595 1.686 1.686 0 011.24-1.935c.904-.303 1.83-.542 2.62-.772a38.09 38.09 0 01-4.061-3.11 8.681 8.681 0 011.614-13.875 16.158 16.158 0 018.841-2.2q13.26-.013 26.52 0c.39 0 .78.036 1.289.061v1.357c0 5.36-.016 10.72.008 16.08.012 2.612 1.452 4.05 3.79 3.88a3.104 3.104 0 002.895-2.161 9.026 9.026 0 00.51-2.811q.084-5.879.008-11.759c-.022-1.63-.268-3.24-2.148-4.125l11.959-.501c.03.535.074.994.074 1.453q.007 10.379.007 20.76c.001.557.032 1.118.085 1.674a3.765 3.765 0 002.13 3.496h-12.05v-3.067c-.554.407-.879.642-1.2.88a10.628 10.628 0 01-9.404 1.9c-4.19-1.071-6.554-3.932-6.631-8.273-.074-4.159-.031-8.32-.04-12.479v-1.441zm-14.511 4.93a15.655 15.655 0 00-.904-3.047 3.026 3.026 0 00-5.03-.512c-1.333 1.62-1.496 5.425-.28 7.155a3.196 3.196 0 003.072 1.48 2.793 2.793 0 002.5-2.098c.29-.899.407-1.853.642-2.978z" fill="#c41230" fill-rule="evenodd"/><path d="M212.144 83.37c.62-1.936 1.203-3.843 1.857-5.724a1.321 1.321 0 01.819-.72 24.744 24.744 0 0112.339-.09c4.908 1.365 7.159 4.315 7.234 9.41.04 2.68.058 5.359.07 8.038.019 4.03 2.3 5.913 6.394 5.16.026-.315.081-.658.081-1.002.005-5.8.028-11.599-.01-17.398-.014-1.729-.141-3.489-2.154-4.393l11.973-.488.135 2.986 1.078-.789a10.61 10.61 0 018.724-1.981c4.462.915 7.031 3.92 7.09 8.51.058 4.438.016 8.878.018 13.318 0 .4-.005.8.01 1.2a4.199 4.199 0 002.37 4.124h-12.134v-4.024c0-4.44.01-8.879-.003-13.318-.008-2.526-.95-3.745-2.946-3.891a3.792 3.792 0 00-4.154 3.451 7.075 7.075 0 00-.113 1.192c-.008 4.08-.024 8.159.004 12.238.01 1.782.372 3.429 2.221 4.44h-1.273c-5.88 0-11.759.008-17.639-.01a14.719 14.719 0 01-2.744-.222c-4.408-.857-6.673-3.657-6.679-8.173v-3.631a9.837 9.837 0 00-4.811 1.82 3.284 3.284 0 001.092 5.699 19.577 19.577 0 003.776.551c-.57 1.161-1.176 2.429-1.825 3.672a.801.801 0 01-.61.275c-3.115.03-6.24.183-9.233-.996-3.35-1.32-5.334-3.851-5.219-6.872a6.655 6.655 0 014.385-6.324c2.548-.99 5.294-1.463 7.938-2.218a12.004 12.004 0 002.994-1.138c1.484-.911 1.443-2.542.002-3.538a6.222 6.222 0 00-4.966-.76c-2.018.417-3.991 1.05-6.091 1.617zM363.85 76.647l11.982-.484v3.382c.428-.494.627-.696.795-.921a6.66 6.66 0 016.2-2.678c.787.057 1.109.357 1.084 1.192-.057 1.867-.018 3.738-.018 5.63a32.437 32.437 0 00-3.362.019 4.712 4.712 0 00-4.6 4.903c-.088 3.918-.07 7.84.001 11.76.03 1.613.27 3.245 2.148 4.09-.313.026-.625.075-.939.075-6.16.005-12.32.054-18.478-.034a13.335 13.335 0 01-4.319-.82 6.84 6.84 0 01-4.657-6.624c-.068-1.47-.012-2.944-.012-4.816a42.734 42.734 0 00-4.57 1.878 2.896 2.896 0 00-1.454 3.071 3.186 3.186 0 002.26 2.84 27.097 27.097 0 003.787.55c-.566 1.155-1.15 2.397-1.79 3.609a.917.917 0 01-.7.331c-2.914.02-5.838.175-8.667-.809-3.576-1.243-5.694-3.702-5.74-6.749-.049-3.32 1.943-5.99 5.637-7.186 2.196-.711 4.499-1.087 6.737-1.674a11.092 11.092 0 002.793-1.017c1.704-.998 1.632-2.791-.087-3.809a6.473 6.473 0 00-4.775-.596c-2.012.43-3.982 1.056-6.04 1.616.614-1.931 1.224-3.9 1.884-5.85a1.067 1.067 0 01.673-.579c4.798-1.072 9.578-1.353 14.274.504 3.658 1.448 5.157 4.376 5.346 8.084.145 2.874.141 5.757.165 8.635.034 4.2 2.234 6.036 6.515 5.276.023-.352.067-.735.068-1.117q.017-8.52.022-17.04a9.722 9.722 0 00-.033-1.079c-.165-1.482-.543-2.836-2.13-3.563zM403.12 77.861c0-3.357.052-6.663-.025-9.967a3.45 3.45 0 00-2.062-3.239l12.199-.5v1.456q.01 16.556.028 33.111a12.436 12.436 0 00.16 2.025 3.192 3.192 0 002.082 2.772h-12.24c-.02-.432-.055-.854-.055-1.276-.004-4.958.026-9.918-.026-14.876a9.065 9.065 0 00-.522-3.159 3.548 3.548 0 00-6.136-1.02 7.324 7.324 0 00-1.402 2.734 14.315 14.315 0 00-.028 7.586c1.031 3.865 2.98 5.378 7.093 5.409-.843 1.516-1.57 3.02-2.501 4.383-.28.41-1.113.549-1.714.614a11.44 11.44 0 01-9.98-3.904c-5.614-5.924-4.685-17.143 1.883-21.78a10.946 10.946 0 0111.891-.92c.357.176.71.36 1.067.537a1.405 1.405 0 00.289.014zM175.78 64.166h3.664c2.8 0 5.6.04 8.399-.023a1.316 1.316 0 011.501 1.103q4.271 12.726 8.613 25.428c.147.433.317.86.6 1.626 1.268-4.052 2.419-7.74 3.575-11.426q1.632-5.204 3.272-10.405c.992-3.16.626-4.274-2.173-6.234h10.566l-13.383 39.517c-5.662-1.458-10.416-3.847-12.488-9.83-2.889-8.342-5.94-16.629-8.915-24.941-.655-1.83-1.419-3.573-3.3-4.526l.07-.289z" fill="#c41230" fill-rule="evenodd"/><path d="M287.936 85.99c-.235 1.125-.352 2.08-.643 2.978a2.793 2.793 0 01-2.499 2.098 3.196 3.196 0 01-3.072-1.48c-1.216-1.73-1.053-5.534.28-7.155a3.026 3.026 0 015.03.512 15.655 15.655 0 01.904 3.047z" fill="#fff" fill-rule="evenodd"/><path d="M420.896 63.563a4.435 4.435 0 104.434 4.435 4.435 4.435 0 00-4.434-4.435zm0 8.24a3.805 3.805 0 113.805-3.805 3.804 3.804 0 01-3.805 3.804z" fill="#c41230" fill-rule="evenodd"/><path d="M419.159 69.97v-3.944h1.748a2.327 2.327 0 01.802.106.873.873 0 01.438.375 1.122 1.122 0 01.164.595.99.99 0 01-.271.708 1.372 1.372 0 01-.84.365 1.353 1.353 0 01.315.197 2.733 2.733 0 01.434.525l.685 1.073h-.656l-.522-.82q-.229-.356-.376-.544a1.206 1.206 0 00-.265-.264.797.797 0 00-.238-.105 1.557 1.557 0 00-.291-.019h-.606v1.752zm.521-2.203h1.122a1.684 1.684 0 00.56-.075.593.593 0 00.306-.236.637.637 0 00.106-.354.59.59 0 00-.203-.46.952.952 0 00-.642-.18h-1.249z" fill="#c41230"/><path d="M80.312 97.755h3.769l.235-1.065h1.467l.184 1.061H89.8l.237-.978c.706-.467 1.47-.044 1.68.951h3.822c.083-.346.164-.68.25-1.029.826-.111 1.648-.337 1.504 1.018h3.941l.19-1.027h1.43l.257 1.06c3.248.084 6.555.47 9.313-2.281-4.353.93-8.604.51-12.83.517-26.836.039-53.673.01-80.509.051-1.305.002-2.097-.228-2.381-1.608a2.166 2.166 0 00-1.976-1.953c-.25-.027-.455-.474-.923-1h8.689l.067-.373a4.889 4.889 0 00-1.066-.26c-1.72-.027-3.44-.044-5.159.002a1.137 1.137 0 01-1.32-.876 2.693 2.693 0 00-1.732-1.997c-.282-.088-.45-.536-.813-1.002h3.414c-.857-1.171-1.592-2.25-2.417-3.253a1.782 1.782 0 00-1.066-.386C8.68 82.816 4.954 82.33 1.23 81.83c-.413-.055-.82-.152-1.23-.229l.014-.412a9.871 9.871 0 011.127.006c1.707.197 3.418.378 5.115.642a2.818 2.818 0 002.838-.763 4.196 4.196 0 01.56-.451c1.492-1.196 1.477-1.19.814-2.959-3.304-8.82-3.185-17.51 1.024-26.035.26-.526.572-1.027.921-1.648 2.316 1.545 4.515 3.058 6.77 4.484a3.467 3.467 0 001.868.52 60.909 60.909 0 007.645-.733c-.645-.346-1.29-.69-1.745-.935a16.031 16.031 0 001.382-1.252c3.15-3.543 3.457-8.13 4.528-12.436.182-.735.327-1.478.446-2.02l-3.77-1.712c2.245-2.245 4.79-4.14 5.918-7.079l-3.812-1.578a7.093 7.093 0 001.228-1c1.555-2.073 3.067-4.178 4.482-6.119a29.306 29.306 0 013.56.898c1.58.609 2.554.137 3.668-1.1 5.645-6.27 11.406-12.438 17.118-18.649A15.817 15.817 0 0062.66 0c.683.36 1.404.8 2.173 1.133q16.384 7.105 32.772 14.2c.753.328 1.162.31 1.656-.418 1.25-1.842 2.603-3.616 4.156-5.749 3.833 3.99 7.61 8.103 11.581 12.018q21.442 21.14 42.974 42.191c.915.9 1.667 1.574 2.882.602.074-.06.22-.036.334-.038.031 0 .063.046.003-.001-5.482 4.615-10.092 10.13-15.127 15.215-5.063 5.115-10.006 10.35-14.995 15.537-.323.336-.596.721-.834 1.01a4.228 4.228 0 00-1.017-.56c-3.026-.746-6.069-1.42-9.088-2.189a1.987 1.987 0 00-2.285 1.046c-1.162 1.604-2.238 3.276-3.484 4.811a9.071 9.071 0 00-2.365 4.224c-.039.237-.41.483-.682.598a2.292 2.292 0 01-.83.023H18.536c-.508-2.381 1.173-4.743-.49-7.012h5.45l-.678 1.072h3.975l-.142-.214c.432-.291.84-.738 1.308-.813.27-.043.636.515.809 1.042h3.777l.275-1.017h1.434l.2 1.027h3.83l.255-1.031h1.451c.063.309.13.64.21 1.025h3.898l.145-1.04c.86-.082 1.76-.416 1.614 1.033H49.8l.178-.935c.675-.504 1.485-.048 1.669.937h3.783l-.14-.227c.392-.292.766-.778 1.18-.814.336-.03.72.48 1.083.75l-.158.301h3.783l.263-1.032h1.41l.247 1.04h3.832c-.054-1.16.629-1.284 1.619-1.04l.263 1.015h3.856l.183-1.036h1.43l.224 1.047h3.798l-.15-.314c.424-.263.83-.685 1.278-.735.287-.032.636.483.958.752l-.077.32zm50.668-20.251c.568.1 1.246.45 1.684.257 2.174-.961 4.285-2.065 6.418-3.119a41.14 41.14 0 01-.12-.262q-3.973 1.582-7.943 3.166l-3.184 1.196.622 1.098c2.353-.852 2.494-.984 2.523-2.336zm-15.295 12.562l2.82-.574v2.08c1.56-.44 2.036-1.814 2.959-2.721a13.52 13.52 0 00-2.976.246 27.833 27.833 0 00-2.824.946l-6.345 3.255c2.816.355 4.343-.487 6.366-3.232zM55.88 8.473a1.555 1.555 0 00-.414.233q-5.816 6.302-11.617 12.618c-.046.05-.042.147-.087.318 1.824.414 3.643.832 5.464 1.24 2.755.617 2.772.624 4.22-1.825a3.596 3.596 0 00.14-1.304c1.935-.206 5.812-5.797 6.255-9.614-1.733.373-2.793-.816-3.995-1.699 1.272-.03 2.545-.028 3.813-.11.32-.022.83-.252.901-.49.605-2.04 1.128-4.104 1.676-6.16a35.916 35.916 0 00-3.655 3.64c-.923 1.032-1.802 2.1-2.701 3.153zm28.623 82.68c.24-3.792.487-7.334.654-10.88a1.816 1.816 0 00-.697-1.131c-2.188-1.931-4.53-3.704-6.584-5.765a7.811 7.811 0 00-6.463-2.322c-3.546.147-6.992.19-10.017 2.343a.368.368 0 01-.108.052c-.634.182-.83.587-.815 1.251.046 1.958.017 3.918.017 5.877v9.298a10.204 10.204 0 011.292.565c.368.227.65.598 1.02.82a2.126 2.126 0 001.063.364c6.824-.21 13.678.533 20.638-.472zm28.209-39.364c2.061 3.68 4.113 7.153 5.962 10.731.78 1.51 1.667 2.316 3.395 1.975a2.397 2.397 0 01.764.105l.061.236c-.55.27-1.101.538-1.757.858a3.368 3.368 0 00.127 1.315c2.07 3.778 4.192 7.528 6.34 11.359l16.008-6.264-38.992-36.6c2.657 3.79 5.53 7.378 8.267 11.066 1.108 1.492 2.186 2.71 4.248 2.265.025-.006.074.105.093.133l-4.516 2.82zm-1.795-23.231c.427.502.812.957 1.2 1.409l33.228 38.65c1.777 2.068 1.777 2.073 4.263.854 2.347-1.151 4.691-2.311 7.126-3.511-.374-.345-.629-.594-.898-.826Q134.583 46.81 113.341 28.47a1.486 1.486 0 00-2.423.089zm35.77 42.29l-35.877-41.732c-2.23.679-4.25 1.275-6.252 1.92-.36.116-.88.404-.921.674-.054.355.298.77.466 1.163a1.65 1.65 0 01.022.387l-.704.466c.274.279.463.484.665.674q19.237 18.058 38.476 36.115c1.775 1.666 1.775 1.666 4.126.333zm-45.68 20.224a14.2 14.2 0 003.411-.216 28.226 28.226 0 005.487-2.275c4.36-2.487 8.62-5.148 13.09-7.843-.405-.336-.715-.577-1.01-.838-3.017-2.68-6.093-5.297-9.02-8.073-1.2-1.14-2.32-1.62-3.901-1.033a8.818 8.818 0 01-2.005.33c-2.005.242-4.012.467-6.053.702zm3.92-70.418c.19.17.394.356.603.536q25.433 21.925 50.85 43.868c1.048.905 1.635.331 2.45-.261l-52.111-51.08-.216.208c1.238 1.323 1.967 3.084 3.773 4.295l-5.35 2.434zm-39.4 6.447a1.757 1.757 0 00.29.154 60.41 60.41 0 0026.944.81 4.887 4.887 0 002.267-.86c1.656-1.498 3.174-3.15 4.716-4.771a4.033 4.033 0 00.488-1.094c-.902.057-1.576.155-2.246.132-3.503-.124-7.041-.01-10.499-.478a53.349 53.349 0 01-20.179-7.507 4.491 4.491 0 00-1.038-.315 4.029 4.029 0 00.442 1.08q1.928 2.37 3.937 4.675a7.667 7.667 0 001.23.962L65.528 27.1zm23.467 21.726q.048-.139.098-.277l-25.09-19.87a1.985 1.985 0 00.387 1.024c2.877 4.326 5.804 8.62 8.609 12.99.94 1.467 1.832 2.685 3.811 2.22.05-.012.122.067.132.073l-10.584 6.8c2.353 2.122 4.565 4.134 6.807 6.113a1.101 1.101 0 00.868.18 38.971 38.971 0 0014.8-7.523 3.995 3.995 0 00-.749-1.053 4.537 4.537 0 00-1.249-.41l.06-.267zm-21.741-36.89c.276.149.51.294.76.408a58.49 58.49 0 0015.59 4.942 109.041 109.041 0 0011.197.88c1.425.07 2.86-.286 3.402-2.121L63.977 1.248a25.038 25.038 0 002.687 3.936c.965 1.147 1.491 2.697 2.998 3.36a2.19 2.19 0 00-.537.425c-.632.966-1.235 1.952-1.871 2.968zm-54.686 38.74c-5.33 8.787-4.908 20.715-.903 28.328 1.13-.898 2.224-1.833 3.39-2.667a1.859 1.859 0 00.816-1.818c-.284-6.581-.624-13.162-.73-19.746-.034-2.041-.698-3.312-2.573-4.097zm53.333-21.419c-.048.083-.098.166-.147.248l24.432 19.35 4.546-6.199-28.83-13.399zm1.084.018l28.246 13.13 2.417-10.074a66.792 66.792 0 01-30.663-3.056zm-50.75 23.885l1.87 20.715 7.506-5.979-5.365-2.437.08-.298c.423 0 .848.022 1.27-.006.586-.039 1.376.105 1.717-.215 1.387-1.3 2.635-2.75 3.969-4.18l-11.047-7.6zm88.838 39.618h-82.11l.933 1.604.817-1.1h1.218l.2 1.076h3.807l.308-1.083h1.381l.234 1.06h3.848c.083-.4.154-.738.225-1.071h1.39l.279 1.092h3.822l.265-1.08h1.426l.143 1.057h3.891l.207-1.045h1.476l.184 1.033h3.864l.253-1.054h1.416l.192 1.064h3.86l.234-1.052h1.35l.268 1.054h3.839l.277-1.057h1.365l.213 1.062h3.86l.218-1.051h1.445l.232 1.04h3.85l.222-1.065h1.414l.268 1.083h3.852l.152-1.067h1.517l.14 1.054h3.895l.217-1.068h1.397l.235 1.078h3.84l.215-1.085h1.388l.315 1.091h3.772c.091-.387.17-.726.25-1.059h1.418l.258 1.066h4.912l-.357-1.577zM73.97 44.894l-10.544-15.85c-.134-.004-.267-.01-.4-.015a5.769 5.769 0 00-.517 1.625c-.019 2.515.069 5.031.09 7.547.019 2.424.003 4.848.003 7.41 1.752 0 3.299.003 4.846-.003.196 0 .522.018.569-.08.478-.982 1.36-.592 2.088-.621 1.188-.049 2.38-.013 3.865-.013zm18.995 7.23l-3.458-1.54a40.594 40.594 0 01-15.507 7.988c1.366 1.467 2.541 2.77 4.71 2.46 1.732-.247 3.507-.18 5.26-.295.877-.058 1.746-.21 2.874-.35l-2.652-2.292.27-.32 2.963 2.318c1.363-.974 2.67-1.89 3.952-2.84a1.468 1.468 0 00.538-.735c.38-1.466.709-2.945 1.05-4.393zm65.062 13.963a2.305 2.305 0 00-.517.077c-3.182 1.67-6.365 3.338-9.534 5.032a3.04 3.04 0 00-.88.786q-8.017 9.933-16.026 19.872a2.945 2.945 0 00-.45 2.667l27.407-28.434zm-46.125 4.265c3.723 3.31 7.359 6.551 11.02 9.764a1.015 1.015 0 00.909.095c1.1-.549 2.16-1.175 3.287-1.8q-2.748-4.912-5.492-9.821c-1.236-2.21-1.228-2.198-3.29-.909a12.697 12.697 0 01-2.016 1.05c-1.404.56-2.839 1.046-4.418 1.621zm-8.942-8.327c.024.12 0 .327.09.41 1.58 1.466 2.957 3.302 5.564 2.788a13.193 13.193 0 012.393-.028c.237-.002.609.052.69-.072.714-1.075 1.784-.57 2.7-.622 1.28-.073 2.566-.019 3.85-.019-3.71-3.15-7.425-6.048-11.155-8.925a1.1 1.1 0 00-.84-.25c-.977.347-1.927.77-2.87 1.203a.737.737 0 00-.376.521c-.034 1.176-.017 2.353-.017 3.473l1.44.297.089.321-1.558.903zm-4.834-32.138a10.078 10.078 0 01-2.717-1.035 2.29 2.29 0 00-2.162-.465 58.025 58.025 0 01-21.079.571c-2.231-.325-4.44-.803-6.987-1.271.584.271.862.417 1.153.534a60.848 60.848 0 0029.626 3.853c1.992-.216 1.988-.253 2.166-2.187zm2.384-9.893l-2.749-.881a6.944 6.944 0 00-1.799-.555c-1.712-.044-3.432.15-5.14.067a63.118 63.118 0 01-22.83-5.805c-.337-.15-.687-.273-1.03-.409a1.799 1.799 0 00.839.842c2.41 1.242 4.77 2.6 7.253 3.677a47.513 47.513 0 0024.29 4.017c.72-.076 1.276-.193 1.166-.953zM42.344 70.272a38.63 38.63 0 01-4.17 3.788 5.103 5.103 0 00-2.418 5.434 22.822 22.822 0 01.024 3.104c1.445-.436 2.614-.842 3.811-1.132a1.718 1.718 0 001.411-1.379c.67-2.419 1.371-4.834 2.178-7.21a1.93 1.93 0 00-.836-2.605zm-16.16-2.266c-1.518 1.207-3.084 2.435-4.631 3.686-1.115.901-2.672 1.633-3.174 2.807-.503 1.178.038 2.812.156 4.242.109 1.322.262 2.64.432 4.314 3.134-4.946 7.285-8.954 7.218-15.05zm59.029 11.18l.735-9a8.418 8.418 0 00-2.586-.542c-2.503.336-4.98.868-7.649 1.358l9.5 8.185zm17.642-44.093c0 3.579-.022 6.855.033 10.13a1.47 1.47 0 00.705 1.046q2.29 1.177 4.67 2.178a14.888 14.888 0 002.362.523c-2.676-4.78-5.16-9.218-7.77-13.877zm4.216 19.877l11.781 9.155.178-.16-6.635-11.837-5.324 2.842zM37.37 52.81l6.669-1.61-6.67-10.247zm26.124 5.675a23.404 23.404 0 009.401-.206l-3.55-3.206-3.306-2.98c-3.472 2.128-3.472 2.128-3.062 4.808l1.708.203-1.19 1.381zm-2.958 11.555c4.156 1.605 7.366-.101 10.403-2.44a3.66 3.66 0 00-3.621-1.612c-1.347.119-2.713.025-4.07.025h-2.712zM45.81 79.888c-1.607.53-2.966.957-4.305 1.44a1.14 1.14 0 00-.626.626c-.678 2.16-1.313 4.336-1.993 6.615l4.582.317 2.342-8.998zm-6.937-51.136c1.467 1.338 3.037 2.799 4.652 4.208a1.257 1.257 0 00.99.128c2.468-.652 2.588-3.216 4.22-4.74-2.078-.317-3.81-.585-5.542-.841a1.356 1.356 0 00-.586.033c-1.216.383-2.427.785-3.734 1.212zm91.697 62.66l.245.087 13.809-17.156c-4.616 4.158-9.069 8.457-13.51 12.77a1.228 1.228 0 00-.33.722c-.097 1.19-.147 2.385-.214 3.578zM51.652 41.024a16.927 16.927 0 01-1.51-1.415c-.576-.683-1.1-.604-1.852-.256-1.626.752-3.307 1.387-4.98 2.033-.74.285-1.516.482-2.549.804 2.781.813 5.26 1.558 7.756 2.241a1.131 1.131 0 00.967-.322c.754-.971 1.424-2.009 2.168-3.085zm69.314 50.625l9.02.804V87.9c-3.693-.42-6.548 1.032-9.02 3.749zm-63.993-46.38l2.856-12.97-.325-.245c-.9.89-2.236 1.628-2.614 2.702a69.449 69.449 0 00-1.937 7.9 1.209 1.209 0 00.218.935c.496.556 1.087 1.026 1.802 1.677zM51.5 23.86c-2.817-.64-5.337-1.222-7.865-1.768a.924.924 0 00-.723.24c-.693.703-1.34 1.452-2.032 2.214.515.695.934 1.328 1.429 1.895a1.034 1.034 0 00.797.32 31.2 31.2 0 008.394-2.901zm14.308-9.98c-1.803 1.592-3.48 3.092-2.456 5.758h7.3l-4.844-5.757zm-17.85 34.805l-9.389-7.168c1.572 2.885 3.312 5.565 5.054 8.243.908 1.397 1.319 1.606 2.766.829.628-.337.989-1.171 1.57-1.904zm76.287 33.38c-.546-.906-1.067-.98-1.898-.446-2.218 1.421-4.504 2.735-6.762 4.093q-3.05 1.837-6.1 3.68l.095.31a13.471 13.471 0 003.651-.63c2.912-1.392 5.705-3.034 8.548-4.58l-.202-1.02 2.668-1.407zM89.61 83.189l.407-.063 4.773-11.386c-1.788.22-.847 2.076-1.995 2.96l.58-3.18-1.84-.21a1.968 1.968 0 00-.203.385c-.755 3.348-1.534 6.69-2.22 10.053-.086.429.32.958.498 1.44zm-1.007-1.268l2.37-10.71-1.912-.304-1.191 5.108-.349-.077 1.06-5.155-1.43-.187c0 3.021.07 5.886-.032 8.745a2.311 2.311 0 001.484 2.58zm-44.71-10.01l-2.702 8.997c.406-.11.597-.154.783-.212 4.032-1.25 4.04-1.25 4.132-5.446a1.876 1.876 0 00-.31-1.086c-.536-.728-1.163-1.39-1.903-2.253zm5.877 5.89c.475-2.155.93-4.245 1.396-6.332.598-2.686.601-2.685-2.24-3.554-.34 1.677-.753 3.33-.992 5.008-.264 1.853-.255 3.69 1.836 4.878zm-.67-39.095c-1.048-.967-1.909-1.672-2.658-2.48a1.193 1.193 0 00-1.778-.122c-1.99 1.331-2.83 3.527-4.203 5.325l.255.418 8.385-3.141zm22.797 28.989c.999.867 1.915 1.684 2.861 2.464a1.115 1.115 0 00.755.253c2.236-.286 4.468-.61 6.7-.923-2.53-1.222-5.038-2.237-7.557-3.217a1.013 1.013 0 00-.759.123c-.647.378-1.26.813-2 1.3zm-35.984 7.874l6.234-5.683-1.52-1.786c-4.766 2.216-5.016 2.587-4.826 7.038.002.037.018.074.112.43zm-.128 12.693c2.584.509 2.584.509 3.29-1.84.171-.573.344-1.145.51-1.719.284-.966.563-1.933.886-3.048-1.496.447-2.762.796-4.006 1.216-.27.091-.642.426-.65.66-.058 1.584-.03 3.172-.03 4.73zm34.009-66.48h-6.594a29.703 29.703 0 00.039 3.456 3.116 3.116 0 00.867 1.547c.142.155.83.072 1.035-.135 1.54-1.544 3.022-3.147 4.653-4.869zm39.624 5.713l-5.855-6.816v6.816zm4.54 21.12l-9.862-12.706a1.85 1.85 0 00.293 1.021c1.812 3.239 3.743 6.418 5.394 9.736.906 1.823 2.003 2.642 4.176 1.948zM46.457 32.431c.056.088.113.175.17.261 2.185-.684 4.354-1.425 6.56-2.03a2.199 2.199 0 001.889-2.378c-1.827 0-3.653-.01-5.477.013a.83.83 0 00-.59.305c-.868 1.264-1.706 2.55-2.552 3.83zM23.227 83.99c1.193-.372 2.096-.582 2.33-1.805.39-2.038.858-4.062 1.284-6.094.344-1.64.676-3.284 1.014-4.925a9.893 9.893 0 00-2.446 3.55c-.875 2.934-1.427 5.966-2.182 9.274zm4.814-2.801a2.81 2.81 0 002.065-2.449c.147-1.303.531-2.58.801-3.87q.74-3.546 1.47-7.095l-.302-.319c-.451.274-1.223.474-1.304.831-.96 4.24-1.816 8.502-2.73 12.902zm75.459-70.5v7.068h5.401L103.5 10.69zM63.113 8.276h5.294a34081.06 34081.06 0 01-5.294-7.077zM46.464 35.681c.893.813 1.731 1.596 2.599 2.345a.815.815 0 00.633.142A5.267 5.267 0 0053.77 32.9l-7.306 2.781zm96.847 39.027c-.042-.063-.082-.126-.123-.19-3.573 2.717-7.088 5.517-10.75 8.11-1.479 1.047-1.704 2.269-1.526 4.04 4.222-4.074 8.31-8.017 12.399-11.96zM30.346 67.775l-.417-.26a2.38 2.38 0 01-.3.628c-1.154 1.259-1.272 2.883-1.6 4.435l-2.113 9.96a2.383 2.383 0 001.86-2.063c.695-3.686 1.49-7.354 2.245-11.03.114-.555.217-1.113.325-1.67zM15.97 76.152L11.754 79.5c1.412 3.273 1.751 3.527 4.215 3.324zm30.057-20.88l.206-.303L47.84 56l.785-3.19c-.675.212-1.137.334-1.583.501-.575.215-1.386.305-1.66.73-1.075 1.664-1.978 3.44-2.965 5.21l.98.81 4.29-3.316-1.661-1.473zm-8.537 5.85c.456.102.795.19 1.137.25.615.108 1.5.497 1.792.235a7.664 7.664 0 001.326-2.208c.037-.071-.115-.282-.222-.383-1.286-1.214-2.58-2.419-4.033-3.776zm73.079 9.06l.094-.42c-.451-.273-.895-.77-1.353-.782-2.743-.075-5.488-.038-8.23-.038v2.487l9.489-1.246zm-61.13-42.237c2.006-.093 3.667-.152 5.324-.27a.929.929 0 00.656-.51c.247-.704.392-1.442.599-2.256-1.223-.29-2.334-.584-3.46-.795a.971.971 0 00-.785.348c-.74 1.03-1.418 2.102-2.334 3.483zm3.658 24.904a19.144 19.144 0 00-1.021 2.012c-.25.666-.246 1.434-.53 2.078-.551 1.245-.074 1.95.963 2.626.842.548 1.222.367 1.428-.518a33.418 33.418 0 01.773-3.374c.48-1.387.01-2.191-1.613-2.824zm90.093 21.117l-.147-.173-9.203 4.847c-1.844.97-1.964 1.252-1.435 3.528l10.785-8.202zM66.057 51.522l5.03-3.35h-8.308l-.116.27 3.394 3.08zM24.614 75.914l-.208-.093-5.122 7.539 3.535.439 1.795-7.885zm20.423-41.782l.136.627c.548.074 1.165.348 1.633.187 2.183-.75 4.321-1.63 6.485-2.441a1.526 1.526 0 001.098-1.707c-2.493.73-4.946 1.402-7.364 2.181a10.548 10.548 0 00-1.988 1.153zm-29.302 18.65l-.338.04 1.146 22.04.444.071a3.778 3.778 0 00.397-1.27c-.474-6.648-.987-13.292-1.497-19.936-.024-.317-.1-.63-.152-.946zm28.64 2.033h-6.259l-.094.319 4.068 3.794 2.286-4.113zM84.626 68.9c-1.211-.464-2.152-.764-3.038-1.181-.897-.424-1.74-.964-2.446-1.362l-2.217-1.633c1.644-.51 3.385.415 4.788-.722-2.417-.077-5.003-.73-6.8 2.03 2.762.988 5.52 1.989 8.294 2.942a4.7 4.7 0 001.42-.074zM38.138 39.923l-.386.416 1.942 1.478 2.987-4.503h-4.964l.42 2.609zm-2.391 2.018c-2.822 3.131-2.376 7.283-3.646 10.948.829.257 1.33.303 1.517-.646.675-3.44 1.414-6.869 2.129-10.302zm13.803 36.757l-.313-.269c-.49.385-1.387.752-1.405 1.157-.123 2.847-.065 5.703-.065 8.703.952-2.805 1.886-5.504 2.76-8.222.073-.225-.258-.58-.531-1.14-.493 2.104-.902 3.854-1.31 5.603l-.358-.081 1.222-5.75zm51.505-43.551c-1.197 1.273-2.41 2.479-2.614 4.305a26.82 26.82 0 01-.557 2.685c-.336 1.545-.338 1.545 1.345 1.933l1.826-8.923zM50.298 77.469l.32.216c.327-.25.835-.433.953-.758.868-2.384 1.658-4.798 2.493-7.264l-1.92-.558-1.846 8.364zM37.8 34.314l4.369-.744-4.369-4.875zM57.905 19.92c1.178-.558 2.12-.898 2.4-1.987.553-2.154 1.057-4.32 1.6-6.562-2.802 2.107-3.246 5.196-4 8.549zm62.038 72.094l-.053.458 10.132 2.398v-1.974l-10.08-.882zM76.326 61.737l-.001-.245c-2.199-.236-4.408-.395-6.592-.73-2.191-.337-4.355-.849-6.531-1.284a37.76 37.76 0 004.615 2.764c.58.282 1.821.386 1.996.102.563-.916 1.307-.567 1.976-.59 1.51-.052 3.024-.017 4.537-.017zm-27.36-15.145L46.3 44.94l1.341-.066.04-.201-6.06-1.764-.139.279 6.577 5.02.907-1.615zM21.08 55.446l-.038.282c.826.553 1.634 1.135 2.487 1.641a1.284 1.284 0 00.97.126c1.456-.55 2.884-1.172 4.326-1.758a7.264 7.264 0 01.795-.227l-.4-.575-8.14.511zm82.628-3.435l-.11.255c.874.678 1.74 1.367 2.627 2.028.172.127.484.267.631.195 1.536-.75 3.052-1.54 4.573-2.32l-.12-.158zM61.266 31.04c-.894.522-3.619 11.286-3.616 14.557a1.43 1.43 0 00.686-.8c.657-3.445 1.272-6.898 1.906-10.346.071-.384.19-.76.287-1.138l.3.077-.525 3.328.34.221c.207-.243.586-.48.594-.728.054-1.7.028-3.401.028-5.171zm14.16 30.058c-1.041-1.814-2.317-2.818-4.278-2.027a1.631 1.631 0 01-.592.058q-2.933.005-5.866.002l-.038.36 10.774 1.607zm-1.246 9.524l.098-.277c-.83-.713-1.65-1.438-2.498-2.127a.69.69 0 00-.617-.082c-1.388.78-2.754 1.598-4.266 2.486zm13.828 15.683l-.34-.084a21.68 21.68 0 01.554-2.476c.379-1.105-.068-1.686-1.208-2.208v8.744c.915-2.182 1.76-4.111 2.508-6.077.116-.306-.215-.782-.34-1.18l-.337.08-.837 3.2zM46.263 73.66l.53-6.437c-.884.13-1.52.15-1.875 1.103-.782 2.088-1.144 3.967 1.345 5.334zm53.354-41.4l-.29-.36c-.455.31-1.205.539-1.317.943-.674 2.44-1.2 4.921-1.8 7.485 2.698-2.136 2.665-5.26 3.407-8.068zM34.137 67.4c-.552.307-1.253.462-1.338.782-.477 1.798-.805 3.636-1.184 5.46l.391.168c1.317-.469.371-2.146 1.313-3.119l-.216 3.016.387.201c.216-.273.61-.54.618-.82.058-1.75.03-3.503.03-5.688zm22.696 3.905l.637-5.52c-.791.286-1.635.338-1.787.69-.668 1.536-1.136 3.16-1.674 4.747.909.323 1.22-.017 1.35-.753.146-.838.38-1.66.576-2.49l.342.089c-.21 1.059-.418 2.119-.638 3.237zm1.948-23.19c-2.014.085-2.171.213-2.252 1.767l1.855-1.273.171.246a3.766 3.766 0 01-.676.59 4.383 4.383 0 00-2.212 3.566 1.184 1.184 0 00.958 1.57l.916-4.118.299.067-.166 1.512h1.107zM35.026 37.438l-.272-.332c-.334.203-.901.35-.968.62-.717 2.875-1.354 5.77-2.07 8.902 2.671-2.714 2.348-6.171 3.31-9.19zm21.09-1.712l-.19-.102-3.682 5.331 2.158 1.966 1.714-7.195zm21.406 25.807l-.055.21h3.509l.082.288-2.08 1.17a6.455 6.455 0 006.864-2.145l-8.32.477zm20.603-12.07l.968-4.77c-.56-.257-1.045-.48-1.62-.742l-1.218 5.512zm10.282-.022l.128-.363-5.54-2.576v2.939zm-79.291 6.651l-4.65 1.927 3.655 2.414.995-4.34zm66.42-12.926l-1.3 5.534 1.681.232c.284-1.29.484-2.632.888-3.91.381-1.206-.074-1.684-1.27-1.856zm31.706 40.083l-4.315 4.764c2.54.176 3.69-1.667 5.36-2.721l-1.045-2.043zM57.996 58.025c-1.95.178-2.95 1.5-4.437 2.275l2.941 2.151 1.496-4.426zm-27.741-4.72c.672-.318 1.41-.445 1.484-.74.568-2.244 1.006-4.522 1.529-6.998-2.153 2.173-2.42 4.796-3.013 7.739zm5.093-5.592l.33.013-.175 2.034c.454-.382.844-.556.847-.737.042-2.211.027-4.422.027-6.633l-.286-.016-2.165 10.538.438.092q.493-2.645.984-5.291zm59.672-4.274l-.203-.16-3.983 5.444h2.932c.428-1.805.84-3.545 1.254-5.284zM46.478 89.172l.455-.22v-9.598c-.232.307-.548.532-.567.78-.212 2.75-.396 5.503-.524 8.258-.012.25.413.52.636.78zm-2.259-62.036l-.045.178c1.523.154 3.045.319 4.57.448a.684.684 0 00.47-.306c.577-.836 1.128-1.69 1.806-2.715-2.417.85-4.61 1.622-6.8 2.395zm57.902-6.279c-2.56 1.786-2.04 4.418-2.753 6.663.539-.023 1.263-.106 1.33-.363.524-1.976.92-3.986 1.423-6.3zm-53.907 35.49c1.274-.982 2.371-1.779 3.409-2.647.663-.556.69-2.039.28-1.919a5.808 5.808 0 00-2.794 1.393c-.594.709-.579 1.929-.895 3.174zm51.419-32.504l-4.072 3.726a19.954 19.954 0 002.52-.034 1.227 1.227 0 00.816-.723c.343-1.123.572-2.282.736-2.97zm-59.335.653l-2.474-3.303v5.977l2.474-2.674zm56.838 29.39c-2.55.855-2.579 2.94-2.877 4.935 1.388.007 2.155-.491 2.262-1.906a24.366 24.366 0 01.615-3.028zM54.46 89.6l.502-2.815h-2.847l-.487 2.584 2.832.23zm-36.332-6.56l-.622-7.89-.39-.083a3.736 3.736 0 00-.47 1.27c.061 1.997.238 3.989.318 5.985.032.79.363.955 1.164.718zm93.951-55.62l-7.149-6.17c1.324 1.886 2.855 3.567 4.254 5.35a2.433 2.433 0 002.895.82zm-58.318 8.217c2.205-.836 3.425-2.29 3.334-4.658-2.534 1.073-2.847 1.501-3.334 4.658zm-20.81-8.725a12.24 12.24 0 002.058-.03 1.266 1.266 0 00.87-.667c.396-1.447.686-2.922 1.014-4.388-.313-.005-.383.182-.496.339-1.086 1.505-2.18 3.005-3.446 4.746zm18.585 59.9c-3.13-.156-2.782-.576-3.41 2.258 3.59.524 2.734.541 3.41-2.258zM99.83 44.588l.388-.01.762-4.961.32.053-.214 2.635c.76-.556.929-7.037.367-7.998a13.053 13.053 0 01-.121 1.538c-.501 2.582-1.04 5.156-1.54 7.737a4.372 4.372 0 00.038 1.006zm-.793-28.664l2.24.968c.439-1.873.843-3.604 1.247-5.335l-.231-.088-3.256 4.455zM86.216 80.53l-.365.082c-.184 3.258-.375 6.515-.536 9.773-.01.203.22.417.337.626.154-.268.43-.531.442-.805.13-2.869.227-5.74.308-8.61a5.278 5.278 0 00-.186-1.066zM47.32 57.885l-.223-.122-3.422 2.638a7.98 7.98 0 001.231 1.112c.543.311 1.245.588 1.534-.313.349-1.088.592-2.209.88-3.315zm1.16-.387v4.01l1.268.71c1.189-3.017 1.067-3.531-1.268-4.72zm6.964 29.306l-.256 2.797c.857.068 1.568.13 2.28.177a3.985 3.985 0 00.562-.037 2.489 2.489 0 00-2.586-2.937zm62.91 1.634c3.21.576 5.058-1.062 6.658-3.623l-6.657 3.623zM90.049 66.669c.272.568.429 1.3.67 1.33a13.66 13.66 0 003.214-.013c.212-.025.338-.778.55-1.317zm5.06-14.592h-1.673l-.986 4.23c2.138-.706 2.569-2.316 2.659-4.23zm.937 6.967c-2.221.271-2.394.521-2.6 3.555 1.778.129 1.824.1 2.165-1.468.142-.654.273-1.311.435-2.087zm13.628 7.639h-4.474c.308.596.485 1.32.729 1.343a14.725 14.725 0 003.244-.074c.195-.025.303-.739.5-1.27zm.09-.08c.298.641.451 1.376.68 1.4a17.425 17.425 0 003.249-.017c.153-.012.365-.573.353-.873-.006-.177-.39-.476-.615-.486-1.107-.051-2.219-.023-3.667-.023zm-54.5-.516h-2.432l-.579 2.576 1.961.561 1.05-3.137zm45.443.514c.341.688.509 1.417.75 1.442a14.829 14.829 0 003.139-.06c.167-.018.343-.635.36-.982.004-.123-.453-.371-.706-.382-1.033-.044-2.068-.018-3.543-.018zM51.2 45.029c1.087-.488 2.24.591 2.868-.747.412-.876-.242-1.684-1.991-2.633l-.877 3.38zM38.474 20.895l-.153.218 2.294 3.047 2.1-2.3-4.241-.965zm20.163 4.149l.706-3.118c-2.058-.438-2.223-.269-2.642 2.64l1.936.478zM27.87 61.567l-.218-.097-3.506 3.688c.783 0 1.568.049 2.34-.028a.988.988 0 00.676-.586c.287-.978.48-1.982.708-2.977zm33.336-39.725c-1.49-.132-1.848.495-1.999 3.321l1.999.412zm2.064 41.994c.284.588.454 1.336.685 1.355a16.43 16.43 0 003.357-.1c.176-.023.267-.738.462-1.331-1.419 0-2.533-.002-3.648.002-.156 0-.312.025-.855.074zm-30.613-7.022c-1.587 1.09-1.577 1.15-2.198 4.099-.187.895.03 1.353 1.007 1.575.392-1.87.782-3.723 1.19-5.674zm31.734 5.605l.124-.292c-1.37-.433-1.946-2.582-3.957-1.708v2zm-17.27 1.438c.25.562.387 1.244.593 1.266a16.436 16.436 0 003.33.024c.196-.02.32-.779.511-1.29zm4.546-.002c.3.593.469 1.313.709 1.337a14.455 14.455 0 003.248-.056c.189-.025.283-.799.439-1.281zm54.517-9.02l-3.14-2.442v3.77l3.14-1.327zM65.466 13.47c-.775-.905-1.455-1.7-2.23-2.603v4.992c.834-.893 1.482-1.586 2.23-2.389zm.213 38.295l-2.81-2.533v4.39c1.016-.673 1.859-1.23 2.81-1.857zm-39.84 20.767c1.102-1.49 2.658-2.697 2.69-5.05-.635.222-1.506.286-1.611.603-.478 1.443-.74 2.958-1.08 4.447zm67.54-12.817c-1.98.184-2.366.714-2.305 3.157 1.969.12 2.165-.148 2.306-3.157zM52.273 84.107c-2.606-.364-2.785-.242-3.212 2.092h2.734l.478-2.092zm42.693-18.902h4.058v-2.588l-4.058 2.588zm3.863 6.046c.113-.853-.884-2.282-1.738-2.265-1.407.028-.979 1.424-1.667 2.265zm-38.295 2.085l4.033-2.011-.058-.225-3.975-.357zm42.115-52.018l-.156-.056c-.45 2.06-.897 4.12-1.376 6.32.631-.034 1.044-.055 1.532-.08zm27.355 63.231l-3.834 2.918.096.233 3.738-.443zm-27.29-21.776c-.444.93-2.332.647-1.608 2.3h4.181l-2.574-2.3zm-3.85-8.22l.366-.018.107-2.348c-2.68 1.435-1.808 3.979-2.426 5.946 1.214-1.082.78-2.783 1.47-4.132l.483.551zM54.983 19.71a9.73 9.73 0 001.72-.024c.318-.067.765-.299.85-.557.382-1.16.655-2.355 1.032-3.784-.368.392-.567.58-.738.791-.893 1.106-1.779 2.219-2.864 3.574zm-2.607 46.368c-.461-.028-.774-.057-1.088-.062-.595-.008-1.189-.002-1.746-.002-.608 1.517-.433 1.697 2.272 2.4l.562-2.336zM43.882 35.32c-.663-.547-1.151-1.28-1.594-1.255a33.4 33.4 0 00-4.316.72c-.085.016-.128.248-.264.535zM86.89 70.452l-.551-.026-.42 9.563.536.018.435-9.555zM11.345 79.82l-2.77 2.259 4.197.501-1.427-2.76zM91.82 59.4c2.035-.182 2.306-.58 2.42-3.503a3.39 3.39 0 00-2.42 3.503zM34.472 34.48q.17.163.342.325c.3-.255.79-.461.87-.773.393-1.546.679-3.12 1.045-4.89-1.977 1.467-1.653 3.583-2.257 5.338zM56.17 24.464l.668-2.663-.246-.193-3.682 2.12 3.26.736zM39.27 52.821l.05.17h5.66l.19-.27c-.44-.342-.933-1.024-1.313-.967-1.547.232-3.061.691-4.587 1.067zm12.385 1.768l-.227-.164-2.836 2.209 2.204 1.618c.318-1.354.588-2.509.86-3.663zm.622 31.674c.767 0 1.433-.029 2.095.008.794.043.964-.617.742-.992a3.142 3.142 0 00-1.486-1.26c-.861-.323-1.023.417-1.121 1.082-.051.343-.134.681-.23 1.162zm3.099-31.74l-1.04 4.735 1.53-1.002c.158-.725.234-1.171.356-1.605.236-.837.506-1.669-.846-2.128zm-20.7-22.978l-.197-.099c-1.054 1.15-2.109 2.298-3.353 3.652.975-.103 1.65-.13 2.301-.265a.953.953 0 00.617-.549c.257-.9.429-1.824.632-2.74zm23.83 34.553l-.473-.082a20.213 20.213 0 00-.54 5.352c.431-.138.96-.385.974-.66.082-1.533.04-3.072.04-4.61zM28.32 61.602l-.797 3.55c.745-.122 1.466.43 1.764-.633.59-2.106.616-2.098-.967-2.917zm59.033 29.34c2.37.261 2.573.117 2.822-1.945-2.143-.312-2.27-.227-2.822 1.945zm-29.177-4.799v-2.077h-2.387c-.146 1.565.728 2.32 2.387 2.077zm43.696-54.087l-.484-.54c-.462.35-1.176.61-1.339 1.067a32.426 32.426 0 00-.896 3.793c1.738-1.719 2.082-2.453 1.797-3.388l.922-.932zm-70.874 56.03l.211-2.268-2.058-.234-.405 2.299 2.252.203zm21.89-51.204l-3.123 1.798 2.117 1.931 1.005-3.73zm8.148 11.242c-.597.345-.84 4.315-.42 6.816.67-.431.952-5.013.42-6.816zm7.323 15.433l-.408.459c.194.412.281 1.036.602 1.198a2.955 2.955 0 003.346-.405l-3.54-1.252zm26.988 27.475l.299-2.078c-2.348-.158-2.348-.158-2.403 2.028.31.016.623.04.936.048.352.01.705.002 1.168.002zm-39.428-63.52c2.252-.181 2.252-.181 2.519-2.037l-1.933-.477c-.208.736-.386 1.344-.548 1.956a3.335 3.335 0 00-.038.559zm-9.81 25.408c2.317-.038 3.02-.61 2.973-2.421-2.098.27-2.347.473-2.974 2.42zm-17.25 6.49c1.926-1.394 2.165-1.862 2.214-4.066-2.439.455-1.527 2.7-2.214 4.066zm11.047 3.439c-.92-.32-1.87-1.403-2.557-.232-.69 1.175.74 1.566 1.361 2.358l1.196-2.126zm.241.466l-.943 1.723h4.255l.074-.326-3.386-1.397zm-12.72 21.324c.66-.278 1.392-.362 1.511-.678a18.852 18.852 0 00.645-2.929c-1.77.406-1.99 1.728-2.156 3.607zm4.033 3.468h2.344v-1.906l-2.06-.276-.284 2.182zm61.406.89c-2.12-.272-2.211-.198-2.44 1.931 2.125.291 2.205.23 2.44-1.931zm-34.656-5.499V81.67h-2.183l-.138 1.83zm-8.22-.07c2.071.351 2.528.248 2.555-.723a1.327 1.327 0 00-.685-1.054c-1.285-.339-1.514-.075-1.87 1.778zm-13.76-28.48q-.152.02-.305.038v6.225l.305-.004zm20.13 24.227l-.231 1.9h2.143v-1.9zm-.72 1.911l.246-1.819c-2.029-.41-2.26-.228-2.341 1.82zm58.704-14.41c.248.521.327 1.066.612 1.216.847.443 2.607-.254 3.216-1.215zM29.564 84.209c2.118-.437 2.276-.65 1.954-2.537-1.78-.156-1.99.105-1.954 2.537zm4.826-41.79c.409-.942 2.047-1.408 1.384-2.512a9.652 9.652 0 00.53-1.744c.028-.29-.263-.611-.41-.918-.195.251-.501.477-.568.759-.346 1.463-.63 2.941-.936 4.415zm63.678-3.176l-.197-.13c-.508.693-1.02 1.385-1.524 2.081-.964 1.329-.89 1.513.842 1.956l.879-3.907zm-47.54 8.265c-.184.732-.35 1.396-.518 2.06 1.09-.465 2.628.148 3.193-1.448l-2.674-.612zm35 19.167H81.64a2.996 2.996 0 003.103 1.236c.298-.12.43-.65.783-1.236zm1.5-5.75c-1.12.8-2.117 1.51-3.113 2.219l.103.263 3.01-.19zm11.55 27.496v-1.87h-2.054l-.244 1.87zM90.21 63.51a11.162 11.162 0 00-1.647.132 5.383 5.383 0 00-1.11.534c.312.472.33 1.092 1.213 1.152 1.377.095 1.457-.708 1.544-1.818zm-39.762-1.13h4.64l-2.152-1.655-2.488 1.654zm36.984 4.27v1.596c1.824.284 2.5-.203 2.2-1.596zm3.633 19.89c-2.176-.205-2.276-.132-2.593 1.837 2.115.291 2.169.255 2.593-1.837zM62.304 8.274V3.59l-.095-.037-1.271 4.722zm29.624 60.717l-.361 1.838c.716.1 1.286.18 1.94.27l.396-2.108zm-35.997 9.673l.224-1.87c-1.884-.297-2.022-.166-2.047 1.87zm-8.487-11.55c-.703 1.927-.808 7.309 0 7.795zm51.19 16.725l-1.769.098-.189 2.003h1.958zM63.043 63.91h-2.46v1.564c1.981.124 2.481-.186 2.46-1.564zm33.114 22.032c.061-.436.109-.75.148-1.063.038-.299.068-.598.1-.893-1.82-.27-1.862-.23-2.072 1.956zM58.59 62.424v-4.168l-.202-.022-1.384 4.19zm2.585-18.302c-2.252-.364-2.522-.19-2.25 1.419h2.25zm21.11 20.122l.108.33c1.264 0 2.53.026 3.793-.019.282-.01.556-.267.833-.41a2.65 2.65 0 00-.9-.407 19.54 19.54 0 00-2.608.1 5.84 5.84 0 00-1.226.406zm-24.03 14.413V76.71H56.66l-.268 1.948zM27.2 85.29l-.517 2.495 1.572.071c.139-.833.258-1.554.384-2.321l-1.439-.245zm63.803 3.212c.972-.236 2.058.626 2.366-.897.123-.61.053-1.017-.63-1.14-1.516-.274-1.322.967-1.736 2.037zM47.125 63.919H43.2c.85.972 2.458 1.55 3.282 1.14.273-.136.369-.63.643-1.14zm51.479-14.622l.247.299c.254-.178.65-.302.74-.542.56-1.48.525-3.62-.09-4.067l-.897 4.31zm-64.158 6.605a11.65 11.65 0 01-.114-.023l-.925 5.206.299.252c.247-.241.697-.474.707-.725.066-1.567.033-3.14.033-4.71zm-.752-.198a14.934 14.934 0 00-1.241 5.492c1.006-1.683 1.06-3.603 1.241-5.492zm25.68-14.003l-.312 1.778h2.067V41.7zM62.23 12.64l-.176-.03-1.198 5.068.278.146c.365-.44.99-.85 1.046-1.325a33.651 33.651 0 00.05-3.859zm35.864 37.657c-.85 0-1.642-.045-2.422.031-.207.02-.376.418-.563.642a7.878 7.878 0 001.829.523c.561.027 1.359-.004 1.156-1.196zm-.997 21.6c-1.887-.4-1.905-.39-2.386 1.462 2.12.375 2.18.338 2.386-1.461zm.265-13.147l-.423-.187c-.872 1.063-.767 2.443-1.124 3.862l2.502-.545c-1.105-.259-2.144-.303-1.226-1.646a3.887 3.887 0 00.271-1.484zM33.956 79.188h-1.519l-.215 1.88h1.734zm61.763-12.534a9.068 9.068 0 001.468 1.136 1.767 1.767 0 001.325.157c.282-.151.31-.781.48-1.293zm12.01-16.56l-.093.199a1.816 1.816 0 00-.588.01 10.142 10.142 0 00-.992.48 10.073 10.073 0 00.924.69.74.74 0 00.573.072c.526-.219 1.028-.498 1.538-.754l-1.362-.696zm-65.683-23.21l-1.496-2.027-1.776 2.027zm56.79 47.177c-1.805-.28-1.857-.235-2.004 1.625h2.004zM76.331 63.869h-3.933c.347.54.482 1.009.78 1.161.806.415 2.284-.134 3.153-1.16zM19.232 86.254l2.9-1.41-.068-.254-3.01-.335c.063.7.109 1.213.178 2zm-2.986-2.406L13.84 83.5l2.405 3.138zm48.116-73.602l-.083.225 2.528 1.283 1.124-1.72-3.57.212zM92.945 63.27a6.267 6.267 0 00.452 1.513c.114.19.804.305.886.195a18.735 18.735 0 001.177-2.044l-2.515.336zm2.383-8.775c.787-.846 2.126-.953 2.111-2.395-1.939-.205-2.083-.048-2.111 2.395zM65.83 46.413c-.185 1.27.733 1.158 1.422 1.152.708-.006 1.672.167 1.595-1.152zm28.419 37.505c-.974-.068-1.95-.36-2.019.883-.044.814.645 1.132 1.519 1.195l.5-2.078zm-2.791-14.88c-2.125-.236-2.243-.153-2.099 1.47l1.707.226.392-1.695zM32.167 81.648l-.238 1.909c2.15-.38 2.15-.38 1.9-1.91zm68.882-24.894l.353.055c.664-1.115.183-2.43.295-3.637a4.23 4.23 0 00-.228-1.172l-.42.084zm6.691 38.22c.615-1.403-.85-1.859-1.023-2.906-1.131 1.187-.786 2.125 1.023 2.907zM55.588 81.702h-2.313c.43 1.417 1.02 1.88 2.097 1.68l.216-1.68zm32.52-21.049l2.429 1.875.501-2.368-2.93.493zm8.876 22.703h1.692V81.46h-1.409l-.283 1.894zm-43.625-4.246a7.533 7.533 0 00-1.555.03c-.22.051-.558.57-.511.634.395.535.866 1.015 1.544 1.766l.522-2.43zM28.355 65.906c-.182 1.165.654 1.155 1.322 1.159.698.004 1.628.138 1.462-1.159zm64.372 15.565c-1.632-.236-1.844-.051-2.128 1.853 1.745.226 1.782.194 2.128-1.853zM34.434 66.194l-.213-.344a21.068 21.068 0 00-2.23.034c-.17.018-.296.458-.442.704a9.246 9.246 0 001.987.394c.3-.001.598-.51.898-.788zm4.158-.257h-2.781c-.045 1.29.864 1.14 1.553 1.125.624-.014 1.465.03 1.228-1.125zM56.09 50.188l-.3-.385c-.85.394-1.723.749-2.537 1.207-.211.12-.296.558-.316.86-.006.081.539.346.646.27.86-.616 1.677-1.294 2.507-1.952zm73.816 31.976l-1.87 1.046.807 1.533c1.343-.472 1.33-1.406 1.063-2.58zM57.626 46.432h-2.941c-.09 1.306.852 1.132 1.538 1.132.654 0 1.552.125 1.403-1.132zm-.162-13.86l3.168-4.423c-1.317 1.239-3.416 1.896-3.168 4.423zM45.377 84.187l-.231.001-1.179 4.567.266.262c.27-.228.744-.43.778-.688.183-1.373.256-2.76.366-4.142zm52.361-66.483h3.328l.076-.33-2.345-1.086-1.059 1.416zM55.577 35.356c-2.076.556-2.582 1.988-2.757 3.986l2.757-3.986zM40.495 65.615l-1.462.715c.46.253.93.72 1.38.703.505-.02.992-.48 1.486-.749l-1.404-.67zm52.327 17.659c1.636.34 1.732.251 1.921-1.77-1.526-.288-1.56-.257-1.921 1.77zm-75.793.81l.2 2.698c1.084.084 1.273-.41 1.078-1.18-.165-.65.348-1.791-1.278-1.518zm9.721-18.501l-1.462.711c.457.265.905.717 1.374.74.436.02.893-.418 1.34-.654l-1.252-.797zM91.437 80.84c1.767.152 1.818.1 2.127-1.95-1.76-.539-1.539 1.031-2.127 1.95zm-33.66-52.997c-2.214.113-2.214.113-2.405 1.787 1.789-.43 2.371-.863 2.406-1.787zm45.028-10.47V13c-.41 1.086-.647 2.205-.957 3.304-.213.758.079 1.038.957 1.07zm-2.745 12.343c-1.48-.17-1.66.06-1.63 1.965 1.477-.03 1.49-.044 1.63-1.965zm-47.618 46.39c1.71.228 1.71.228 1.932-1.758-1.466-.258-1.466-.258-1.932 1.758zm49.19-26.646v-1.873c-1.487-.188-1.618-.01-1.444 1.873zm-10.075 8.214c-1.14.829-2.103 1.53-3.23 2.348 2.787-.034 2.917-.127 3.23-2.348zm16.225 34.435l3.809-2.073c-2.365-.135-3.623.294-3.809 2.073zm-48.03-52.648l-.204 1.727h1.616v-1.727zM28.388 52.825l.192.409c.454-.24 1.148-.375 1.314-.745a12.548 12.548 0 00.595-2.51l-.258-.193a2.758 2.758 0 01-.184.447c-.547.867-1.105 1.728-1.66 2.592zm67.093 26.11c-1.428-.186-1.55-.05-1.837 1.938h1.337l.5-1.939zm-53.235-13.05c-.075 1.41.877 1.18 1.607 1.164.687-.015 1.234-.246.939-1.163zm9.367 12.686c1.942.368 2.25.112 2.044-1.734-.777.49-2.01.366-2.044 1.734zm11.11-32.128c.287 1.275 1.143 1.296 2.015 1.042.333-.097.562-.551 1.027-1.042zm33.96 34.994c-1.521-.119-1.597-.029-1.66 1.879 1.644.233 1.7.171 1.66-1.879zm-71.956 4.595c-1.892-.04-2.115.114-2.084 1.458l1.748.116.336-1.574zm74.028-5.162v-1.973c-1.26-.084-1.403.151-1.23 1.973zM47.987 57.56l-.11-.029-1.098 4.19 1.208-.069zm25.758 8.163l-3.574.316c1.37 1.608 1.592 1.59 3.574-.316zM24.994 87.54c1.361.283 1.662-.121 1.508-2.028-1.422.164-1.47.227-1.508 2.028zm11.638-17.626l3.508-2.164c-2.506-.267-2.616-.198-3.508 2.164zm50.93-8.956v2.253l2.586-.12-2.586-2.133zm-56.906 17.64c1.51.19 1.744-.15 1.377-1.879-1.185-.053-1.185-.053-1.377 1.878zm63.307-7.447c1.71.024 1.391-1.351 1.99-2.128h-1.557l-.433 2.128zm9.019-20.852c.586 1.077 1.314 1.477 2.267 1.056a.937.937 0 00.423-.611c.025-.115-.252-.416-.404-.425-.76-.045-1.524-.02-2.286-.02zM52.75 22.95l.225.21 2.702-1.527-1.43-.953-1.497 2.27zm42.783 57.894h1.339c.063-.38.122-.688.164-1 .04-.3.064-.604.094-.903-1.257-.17-1.257-.17-1.597 1.903zm16.548-30.547c-.854 0-1.51-.026-2.161.017a.624.624 0 00-.462.373.72.72 0 00.246.584c.627.466 1.836.068 2.377-.974zM44.014 67.75h-3.106l1.51 1.748 1.596-1.748zm22.744-5.527l-4.224-2.48-.157.279c1.488.728 2.297 2.621 4.381 2.201zm25.3-11.926c.61 1.047 1.823 1.436 2.441.969a.73.73 0 00.251-.591.642.642 0 00-.484-.36c-.658-.043-1.32-.018-2.208-.018zM67.108 9.116h-4.086c.745.816 3.077.845 4.086 0zm36.56 21.68l3.5-.927-.046-.213h-3.453zM89.374 85.839l.203.316 1.876-.526-1.238-1.818-.84 2.028zM58.398 73.709v-1.83h-1.21c-.05.645-.092 1.215-.139 1.83zm61.79 17.354l.192.25 3.72-2.825c-2.287-.16-2.769 1.636-3.911 2.575zM55.48 71.85l-.39 1.929 1.464-.066.174-1.863zm2.001-42.416c-.969.574-2.562.362-2.695 2.313 1.056-.787 2.283-1.036 2.695-2.313zm11.749 16.983c-.307.87.267 1.074.837 1.058.68-.019 1.556.096 1.7-1.058zM30.067 62.839l-.415 2.275h1.194c.345-.934.77-1.841-.78-2.275zm30.2-43.476l.345.263h1.49v-2.33l-1.835 2.067zM53.186 73.65c1.583.19 1.66.1 1.67-1.785-1.555-.364-1.235.976-1.67 1.785zm6.56-60.569l2.195-2.776c-1.618-.208-1.618-.208-2.194 2.776zm65.745 66.658l-1.66 1.041c.75 1.317 1.503.878 2.343.222l-.683-1.263zM52.554 60.432l-1.55-1.18-.572 2.596c.81-.54 1.42-.949 2.122-1.416zM36.912 30.447l-.823 3.959c1.064-.115 1.064-.115.823-3.96zm9.54 48.515l.325.127c.154-.27.451-.551.434-.81-.062-.918.432-1.95-.57-2.723l-.188 3.406zM58.73 52.674c-1.613-.495-1.312.697-1.513 1.556h1.513zm-5.542-2.085l3.006-1.587c-2.471-.019-2.814.175-3.006 1.587zm-1.362-4.158a1.303 1.303 0 001.737 1.017c.327-.098.556-.518.829-.792l-.241-.225zM29.933 80.826l.212.28h1.605l.194-1.72-.241-.142-1.77 1.582zM48.42 48.458l1.117.843c.691-2.019.691-2.019-.187-2.456l-.93 1.613zm66.173 20.362l-4.02.18c.856.993 2.259.892 4.02-.18zm-22.04 9.422c1.858.431 1.523-.972 1.931-1.795-1.659-.4-1.428.973-1.93 1.795zm6.296-6.385c-1.51-.36-1.349.683-1.49 1.569h1.49zm2.414-11.297a4.443 4.443 0 00.181-3.284c-.697 1.01-.41 2.15-.181 3.284zm-56.668 7.494l-.192-.076-1.686 1.865.977 1.12.9-2.91zm11.969-4.481c-.225 1.663.375 2.102 2.274 1.714l-2.274-1.714zm-23.23-8.563c-1.735-.117-1.95.206-1.822 2.218l1.821-2.218zm68.297-4.247l.044-.31h-3.173c-.002.103-.003.207-.006.31zM29.887 61.619l.537-2.61-.196-.14-1.665 1.867 1.324.883zm3.944 21.689c-.831.531-1.408.9-1.984 1.27l1.984.672zm60.564-5.09c1.328.273 1.491.071 1.53-1.814-1.559-.226-1.054 1.166-1.53 1.814zm7.59-47.123c-.305-.565-.58-1.43-.795-1.415-1.102.075-.636 1.044-.908 1.798l1.703-.383zM34.04 76.174v-2.036c-.438.16-.968.206-1.04.412a6.583 6.583 0 00-.166 1.624zm61.788 12.15l.182-1.79h-2.2l2.018 1.79zM32.634 74.24c-1.744.001-1.241 1.124-1.478 1.905 1.832.297 1.015-1.094 1.478-1.905zm22.295.014l-.32 1.654c1.783-.622 1.783-.622 1.67-1.654zm3.214-41.827c1.328-.607 2.388-1.382 2.203-3.163l-2.203 3.163zm-21.93-5.602c1.05-.056 1.248-.974.85-3.68l-.85 3.68zm54.522 36.812l-.34 1.553h2.245c-.46-.397-.747-.657-1.047-.902-.24-.197-.493-.375-.858-.65zm7.63-1.148c-2.752.21-2.901.312-2.701 1.762l2.701-1.762zm9.76-34.15h-2.589c.726 1.033 1.6 1.053 2.589 0zm-8.617 30.467l-.84-1.785-1.16 1.785zM19.413 86.933c1.863.777 2.538.625 2.664-.521l-2.664.52zm76.73-8.701c1.24.193 1.442-.146 1.173-1.881-1.371.064-.856 1.201-1.173 1.88zm-.797-4.253c-1.569-.108-1.288 1.13-1.771 1.856 1.696.293 1.266-1.069 1.77-1.856zm2.622-45.688l-.116.508a8.597 8.597 0 001.61.28c.255-.001.508-.343.762-.53l-.14-.258zm-45.06 21.435l-.234-.223-1.942.513-.071.289c.493.223 1.006.645 1.472.596.295-.03.518-.76.774-1.175zM95.98 90.92h2.183c-.723-.62-1.26-1.08-1.95-1.669l-.233 1.669zm-58.16-25.824l.167-.322a5.384 5.384 0 00-1.47-.803c-.217-.044-.566.555-.855.861l.21.264zm-.008-37.501l.002.297h3.101l-.003-.297zm60.93 48.77c-1.318.141-.665 1.257-1.041 1.842 1.24.23 1.302.115 1.04-1.842zm-2.134 12.563l1.93 1.734v-1.734zm-65.032 1.792V89.71c-1.554-.164-1.554-.164-1.392 1.009zM87.431 68.99c-.32 1.33.467 1.265 1.295 1.257l.234-1.257zM61.185 37.32c-1.484-.173-1.083.834-1.231 1.568h1.231zm40.907 9.668l-1.182-1.656-.313.153-.254 1.503zM27.373 82.204c-.764.748-1.836.733-1.643 1.946l1.212.105.431-2.05zm10.093 8.519c-.142-.447-.163-.934-.353-1.013a1.53 1.53 0 00-1.134.033c-.173.083-.144.588-.221.98zm-11.732.268c.316-1.097.091-1.514-.677-1.346-.277.06-.491.41-.734.628l1.411.718zm101.23-10.228l1.095-.653-.686-1.19-1.14.528.73 1.315zM41.576 90.69h1.426l.222-.35c-.294-.24-.556-.616-.887-.694-.78-.182-.986.264-.761 1.044zm44.909-22.32l.39-.28v-1.388h-1.583l1.193 1.667zm8.654 7.521c1.671.008 1.18-1.154 1.56-2.022-1.369.165-1.133 1.197-1.56 2.022zM34.71 52.633l.234.33h1.34l.253-.293c-.27-.29-.59-.851-.797-.813-.379.071-.69.498-1.03.776zM22.956 65.847l-.114.4a8.59 8.59 0 001.431.516c.2.037.459-.256.691-.398-.199-.173-.379-.457-.6-.495a8.5 8.5 0 00-1.408-.023zM33.23 63.68l.258-1.277-1.418-.366c-.172 1.024-.172 1.024 1.16 1.643zM57.4 9.061c1.909.963 2.592.956 2.969 0zm-6.031 42.233l-1.548-1.15-.458 1.916 2.006-.766zm2.426 1.312l1.34.952.511-2.367-1.851 1.415zm5.152-27.068l-.284 1.604 1.815-.718-.004-.373-1.527-.513zM35.891 67.693v2.37l1.288-2.37zM49.513 44.9c2.035.01 1.288-1.566 1.675-2.397l-1.675 2.397zm7.088.623l-1.842-1.667c-.306 1.102.416 1.769 1.842 1.667zM99.074 60.57v-1.173h-1.357l-.165 1.173zM34.18 54.123l-.102-.586-2.163.27.092.654 2.173-.338zm66.386-9.86c1.311.358 1.203-.32 1.155-.852a2.279 2.279 0 00-.358-.73l-.797 1.582zM47.316 66.309l-.099-.458a10.54 10.54 0 00-1.502.024c-.18.026-.322.33-.482.507.164.137.353.412.485.387a15.778 15.778 0 001.598-.46zm-7.898-12.584c1.039.983 1.661.963 2.39 0zm-4.4-2.728l.545.512c.273-.268.635-.498.782-.823.068-.15-.287-.49-.45-.743l-.876 1.054zm23.633 5.305v-1.45H56.78l1.872 1.45zM49.198 78.17l-1.349-1.605v2.03l1.35-.425zM99.25 55.23l-.42-.294-.728 1.614c1.523.128 1.038-.79 1.148-1.32zm-40.525 1.694l-1.788-1.373-.3 1.373zM16.219 88.386l-.411.308c.229.518-.055 1.485 1.366 1.163l-.955-1.471zm49.63-67.9l-.22.304c.316.155.632.436.95.437a5.952 5.952 0 001.382-.31l-.09-.432zm-4.68 26.34l-.004-.31h-3.07l.007.31zm-29.75 18.223h2.114l-1.854-1.273-.26 1.273zm26.912 9.718c-.674.415-1.19.733-1.708 1.05l.162.31h1.546zm-.915-54.32l-.108.5a7.853 7.853 0 001.527.266c.263-.003.523-.322.784-.499l-.133-.267zm51.974 75.177c.401-1.531.401-1.531-1.161-1.474.432.548.72.913 1.16 1.474zm-91.492-7.247l-.403.361c.28.464.028 1.447 1.462 1.105l-1.06-1.466zm1.702-.004l-.408.367c.314.43.037 1.439 1.48 1.097L19.6 88.373zm5.275-3.071c-1.72-.695-1.727-.692-1.902.46l1.902-.46zm38.09-64.848c1.66 1.037 1.953 1.023 2.392 0z" fill-rule="evenodd"/></svg>