<svg xmlns="http://www.w3.org/2000/svg" width="2000" height="442.955" viewBox="0 0 2000 442.955"><defs><clipPath clipPathUnits="userSpaceOnUse" id="a"><path d="M18 720.72h50.091V774H18z"/></clipPath><clipPath clipPathUnits="userSpaceOnUse" id="b"><path d="M122.161 442.405h47.634v15.031h-47.634z"/></clipPath><clipPath clipPathUnits="userSpaceOnUse" id="c"><path d="M122.161 360.84h46.986v14.998h-46.986z"/></clipPath><clipPath clipPathUnits="userSpaceOnUse" id="d"><path d="M332.417 352.741h64.687v19.209h-64.687z"/></clipPath><clipPath clipPathUnits="userSpaceOnUse" id="e"><path d="M332.417 266.613h73.715v19.561h-73.715z"/></clipPath></defs><path d="M285.855 94.775c10.439-5.137 7.337 10.406 7.337 10.406-1.461 17.612-14.165 38.621-23.242 54.755-9.306 16.48-41.936 55.379-56.183 63.799.542-23.487 25.556-74.861 38.375-94.459 6.532-11.522 23.274-29.363 33.713-34.5m-66.048 232.232c99.301 18.054 171.733-78.325 218.052-161.655 18.547-33.418 46.597-120.802 14.82-153.695-29.083-31.842-51.422 10.127-68.574 24.144l13.311 15.675c26.623 33.418 3.726 97.118-11.916 131.159-23.47 41.903-67.853 105.374-119.9 96.675-11.308-2.627-20.713-13.558-24.669-25.064 27.952-27.82 61.009-76.633 79.572-109.1 15.577-26.44 42.51-77.437 17.48-98.364-20.795-14.329-62.288 6.483-84.495 25.326-13.492 12.228-22.602 22.24-33.106 36.503-28.526 38.9-55.641 105.554-52.638 156.796-13.738 9.98-29.396 19.976-48.09 14.297-18.515-4.071-21.896-19.828-24.555-32.17C83.117 173.28 157.305 79.33 198.913 25.346c0 0-32.925 9.01-56.954 10.078C86.695 37.936 45.563 12.33 15.773 49.36 6.795 62.54 1.641 76.376 0 92.773c12.244-10.488 30.398-8.043 47.746-7.074 29.988 2.56 44.776 6.122 71.825-1.248-24.013 34.058-63.979 101.156-71.267 143.01-3.824 27.738-3.348 71.496 20.419 91.061 39.375 26.032 78.357 7.665 113.17-16.512 10.356 11.982 23.175 22.404 37.914 24.998M1405.41 231.269c2.823-20.221 32.22-50.373 32.515-50.668 9.799-9.93 22.552-17.94 34.944-22.142 5.072-2.2 9.98-1.756 13 1.133 1.116 1.214 2.724 3.446 2.74 7.123 0 2.085-.492 4.58-1.756 7.714-3.118 7.862-26.819 30.923-33.581 36.865-7.501 7.123-28.018 21.501-43.824 24.094 0 0-2.954.476-4.76.755.23-1.542.722-4.874.722-4.874m-191.018 5.646c1.543-13.525 21.715-39.77 32.498-50.767 9.783-9.913 22.536-17.989 34.895-22.075 6.516-1.576 11.752-.345 14.46 3.463 1.084 1.575 1.658 3.414 1.69 5.4 0 2.429-.87 5.006-2.461 7.566-13.426 21.272-48.206 51.226-76.585 60.286 0 0-3.315 1.067-5.203 1.757.214-1.822.706-5.63.706-5.63M1867.2 136.449c-5.45 7.222-23.997 27.525-30.053 33.877-.263.263-3.086 2.97-3.086 2.97-50.143 50.587-88.484 79.95-110.757 84.726-15.15 3.365-22.092 4.268-29.249-9.388-.082-.279-.279-.739-.279-.739 0-.098-.755-6.434-.755-6.434-.032-18.186 23.471-58.99 55.001-86.35 12.048-10.57 13.443-15.248 13.607-16.414-4.497-7.057-7.255-10.39-13.377-12.9-8.814-.444-22.256 8.912-31.12 15.166-6.286 4.316-24.078 20.779-42.953 38.128-15.708 14.493-31.957 29.494-41.034 36.979 0 0-12.638 10.406-15.362 12.704.114-2.66.41-8.026.41-8.026.328-9.389 10.143-25.03 24.16-46.155 5.088-7.763 17.645-29.806 19.138-33.696l.18-.394-.196-.361c-4.103-6.697-11.965-11.883-18.219-12.179-.673.246-5.613 4.333-5.613 4.333-10.587 8.7-33.204 29.2-55.034 49.043-20.074 18.252-38.982 35.42-43.709 38.834-36.815 27.525-68.788 45.482-100.302 56.676-5.662 1.64-24.932 6.352-34.484-4.383 0 0-2.183-2.413-3.316-3.775 1.412-.69 4.53-2.002 4.53-2.002 27.542-11.818 62.256-28.05 87.434-49.733.345-.328 38.604-33.286 38.506-65.686 0-1.444-.131-2.79-.214-4.202-2.412-11.637-12.375-15.182-26.556-16.938-46.368.41-87.96 29.051-109.543 53.442l-3.791 4.169c-10.013 10.964-40.426 44.2-52.753 73.695 0 0-.542 1.346-.706 1.56-.098-.082-1.149.394-1.149.394-20.894 8.88-43.577 17.447-68.82 20.155-13.607 1.74-32.926 2.955-43.726-6.877 0 0-2.692-2.33-3.857-3.43 2.134-1.15 52.654-28.346 52.654-28.346 41.64-25.424 69.494-64.045 69.445-84.119-.969-23.29-22.75-28.51-40.919-28.723-27.016.246-51.866 10.275-83.232 33.5-18.17 13.475-56.215 57.151-66.293 101.927 0 0-.263 1.444-.476 2.1-.804.263-3.956 1.002-3.956 1.002-19.942 5.006-53.458 13.229-59.695-6.221-10.029-31.661 21.616-62.223 46.975-86.76 0-.034 14.263-14.1 14.263-14.1 2.003-2.265 4.415-7.5 3.742-11.62-.295-1.954-1.263-3.398-3.036-4.465-13.59-5.958-26.655-1.28-40.459 3.693-10.373 3.677-21.14 7.468-32.498 6.697 0 0-2.216-.263-3.579-.345.132-1.198.312-3.644.312-3.644.608-6.696 4.448-10.718 7.944-14.23.066-.017 1.1-1.198 1.1-1.198.607-.723.952-2.101.952-3.677 0-1.428-.246-3.004-.87-4.366-.919-2.134-2.298-3.397-3.94-3.512-8.009-1.002-21.714 6.91-34.188 19.564-11.982 12.245-19.466 25.457-19.433 34.518l.114 1.854c.066.247.033.755.033.755-1.428 20.533-19.236 40.262-44.004 67.623l-10.767 11.916c.05 0-4.12 4.284-4.12 4.284-14.87 15.248-24.242 26.64-27.131 32.942l-.87 1.822 2.052-.542c10.52-3.217 40.82-17.94 94.95-86.465 0 0 .805-.969 1.15-1.576.706.082 2.019.295 2.019.295 2.544.312 5.646-1.017 8.929-2.298 5.514-2.232 11.85-4.694 17.824-.77 0 0 2.298 1.476 3.283 2.15-1.034 1.296-10.62 13.606-10.62 13.606-15.1 19.04-30.594 38.588-30.528 61.977 0 4.464.558 9.093 1.904 13.869 2.905 13.721 16.971 20.155 28.116 21.567 22.568 3.824 50.832-8.715 75.78-19.729l12.638-5.58c7.058-1.954 9.093 2.363 10.604 5.482 1.723 3.726 4.234 8.978 15.133 13.672 36.486 16.43 89.994 8.141 159.045-24.653 0 0 2.068-1.001 3.365-1.608a199.966 199.966 0 011.395 3.627c5.022 13.393 14.427 21.633 29.708 25.999 59.564 7.78 108.574-26.41 155.927-59.45.065-.032 21.616-16.528 25.161-19.252.87.87 4.793 5.055 5.302 5.744-.772 1.15-20.796 29.446-20.796 29.446-6.992 10.291-13.508 19.926-17.595 30.759 0-.033-1.182 4.579-1.182 4.579l.542 2.363c1.05 1.855 3.578 3.119 7.304 3.644 36.142-5.088 70.856-34.681 93.77-54.197l6.86-5.843c9.88-8.65 19.286-16.709 23.06-17.546 0 0 1.429-.426 2.15-.623.526.623 1.659 1.887 1.659 1.887.131.131.131.378.131.558 0 1.79-2.626 5.958-4.58 8.863l-3.577 5.893c-3.07 6.434-9.176 19.121-9.143 30.332 0 4.087.854 8.075 3.086 11.423 10.882 16.693 20.32 17.202 30.512 17.776l3.628.18c42.642-2.855 84.38-39.95 124.807-75.895l30.135-26.228s24.308-21.37 29.248-25.802c.673 1.526 1.707 4.399 1.707 4.399 3.07 7.796 3.742 14.903 3.742 19.466l-.705 8.486c-.46 3.758-7.124 30.036-16.299 37.52-.065 0-1.937 1.051-1.937 1.051-.065 0-5.86 1.51-5.86 1.51-22.305 5.761-47.532 12.26-56.888 34.534-.049.098-.837 5.055-.837 5.055.017 3.004 1.166 7.304 6.22 10.652 15.758 4.005 32.056.066 46.385-3.43l18.514-4.005c15.051.05 29.758 1.806 43.939 3.447 19.745 2.298 38.325 4.53 58.054 2.462 25.49-6.73 45.793-35.781 52.03-59.794l.558-1.937-1.904.936c-31.661 15.773-68.247 16.56-97.938 2.117 0 0-2.068-1.034-3.004-1.526.41-.985 1.33-3.283 1.33-3.283.213-.46 18.153-44.644 18.005-101.861-.016-2.61-.05-5.252-.148-7.895h.132c-.362-1.395-.542-2.675-.542-3.956-.033-5.268 2.642-9.585 5.055-13.524 2.462-3.907 4.53-7.337 4.53-11.391 0-.607-.049-1.198-.082-1.838-.115-.066-.115-.23-.115-.345 0-.476.148-1.149.148-1.149.05-.066.05-.148.05-.246-.017-1.395-2.216-2.117-3.316-2.396-24.817-6.221-38.834 12.227-55.001 33.647M824.675 270.035l-.59-.377c-9.455-6.828-12.475-16.413-8.552-27.739 3.463-13.18 39.884-53.622 68.772-59.334 26.212-5.137 36.716 3.693 41.755 7.895 0 .082 2.774 2.216 4.087 3.381-1.1 1.182-14.148 15.264-14.148 15.264-19.204 27.247-67.295 72.006-91.324 60.91m-68.722-152.004c10.914-13.508 28.92-25.457 34.32-28 4.136-1.97 6.352.344 6.943 1.099.919 1.1 1.214 2.626 1.247 4.153 0 1.772-.542 3.561-1.182 4.316l.214.033c-9.52 33.565-70.085 104.849-104.947 129.862 0 0-4.202 2.955-6.68 4.76.344-2.675 1.05-8.059 1.05-8.059 2.889-23.848 47.927-82.116 69.035-108.164m-267.85 71.185c22.618-11.112 50.914-10.39 72.055 1.871 0 0 2.413 1.379 3.644 2.118-.969 1.428-15.478 21.73-15.478 21.73-23.882 29.167-70.036 58.17-89.814 56.413v-.049c-9.208-.755-15.658-5.268-17.267-12.13l-.345-5.81c-.065-19.696 26.065-50.224 39.77-59.547-.164.066 7.435-4.596 7.435-4.596m337.36-144.404h-.033c-32.055 3.052-62.206 21.009-97.758 58.152-14.493 13.836-81.607 97.741-92.522 161.442 0 0-.164 1.23-.279 1.74-.476.23-1.526.82-1.526.82-9.766 5.252-39.097 17.94-57.693 13.311-5.58-1.378-9.75-4.267-12.277-8.535-2.856-5.53-4.268-11.16-4.268-17.135-.049-13.886 7.567-26.278 14.181-37.423.082-.049 3.546-5.892 3.808-6.286.115.099 1.264-.246 1.264-.246 17.201-4.99 44.103-37.898 50.898-57.988l.197-.575-.525-.328c-20.09-12.26-47.057-11.883-66.08-9.487-31.366 3.742-67 17.628-95.444 37.143-34.205 23.504-63.684 71.218-69.79 101.074-3.299 17.053-5.449 34.353 6.336 42.346 24.554 14.165 72.662-11.817 105.489-43.397l6.827-6.565c-.23 3.463-1.034 12.852-1.034 12.852-.393 4.07-.771 8.731-.755 13.344.033 8.699 1.51 17.43 7.255 22.83 27.164 21.453 82.953-2.28 113.712-23.421 0 0 1.805-1.264 2.757-1.888.739.903 2.085 2.643 2.085 2.643 9.848 12.096 21.452 25.112 34.599 27.262 34.419 4.727 61.32-15.198 85.218-37.373 0 0 3.119-2.889 4.661-4.382.493 2.544 2.364 11.062 2.364 11.062 1.789 8.864 3.414 17.234 10.291 22.75 17.431 13.409 56.298-5.007 78.177-20.616 0 0 5.072-3.562 7.96-5.695-.738 3.069-2.396 9.437-2.396 9.437-3.71 14.493-10.57 28.395-17.283 41.838l-5.958 12.294-1.001 1.608-1.757 2.889c-9.322 14.985-26.557 43.02-43.413 45.53l-1.165.165c-4.333-1.543-7.107-3.973-8.585-7.222l-1.263-6.254c-.033-7.583 3.906-16.15 7.402-23.783l.706-1.493-1.625.115c-7.846 1.214-14.805 4.546-22.486 8.518-15.56 9.257-31.547 30.151-31.514 48.912 0 3.89.657 7.566 2.002 10.964 3.234 7.156 11.72 7.337 15.265 7.156C857.305 432.642 916.95 311.3 960.463 222.667l8.551-17.514c2.659-3.496 3.07-5.596 3.07-6.827l-.083-1.05c-.164-.149-1.641-1.987-1.641-1.987.131.131-1.083-6.352-1.083-6.352 1.74-8.568 22.42-26.622 22.634-26.836 0 .05 2.61-1.97 2.61-1.97 2.117-1.378 3.446-2.806 3.479-3.939 0-1.23-1.379-2.855-3.496-4.185-4.218-2.708-8.765-4.628-26.146-9.405-32.121-8.896-87.32-2.002-137.249 46.63-5.268 5.04-14.903 17.284-22.749 27.115l-10.11 12.622c-24.341 28.543-49.404 58.17-91.029 50.028-5.433-2.232-11.226-6.811-13.459-12.408-1.181-3.234-1.116-6.467.23-9.372l.525-1.034c23.028-16.25 46.663-37.308 70.906-62.847 40.77-43.807 90.618-117.405 83.987-135.624-4.924-12.704-19.515-13.114-23.947-12.9" fill="#e51636"/></svg>