<svg version="1.1" id="Layer_1" xmlns="http://www.w3.org/2000/svg" x="0" y="0" viewBox="0 0 463.4 76.2" xml:space="preserve"><style>.st0{fill:#444f45}.st1{fill:#93b873}</style><path class="st0" d="M0 24h27.1v9.9H26c-1.3 0-2.1.1-2.5.4-.5.3-.7.8-.7 1.4 0 .5.2 1.2.5 2.2l7 22.1 6.2-17.3-1.6-4.8c-.5-1.4-1.1-2.4-1.8-3s-1.7-.9-3.1-1V24h25.7v9.9h-2.1c-1.2 0-2 .2-2.4.5s-.7.8-.7 1.5c0 .6.2 1.5.6 2.7l6.2 18.3 6.2-18.3c.4-1.2.6-2.1.6-2.7 0-.6-.2-1.1-.7-1.5-.5-.3-1.5-.5-3.1-.5h-1.2V24h23v9.9c-1.7 0-2.7.1-3.2.3s-1 .5-1.3 1c-.5.6-1 1.8-1.6 3.4L62.2 75.1H48.7l-7.6-20.5-7.7 20.5H19.7L6.2 38.6c-.5-1.3-1.1-2.4-1.7-3.2-.4-.6-.8-1-1.3-1.1-.5-.3-1.5-.4-3.2-.4V24zM109.8 22.8v37.8c0 1.8.1 2.9.3 3.3.2.4.6.7 1.1.9s1.7.3 3.6.3h2.8V75H86v-9.9h2.7c1.8 0 2.9-.1 3.4-.3.5-.2.9-.5 1.1-.9s.4-1.3.4-2.7V36.9H86v-9.6c2.7-.1 5.3-.4 7.7-.9 2.5-.4 4.7-1 6.6-1.6 1.3-.4 2.8-1.1 4.7-2h4.8zM101.6 0c2.6 0 4.8.9 6.6 2.7 1.8 1.8 2.7 4 2.7 6.6s-.9 4.9-2.7 6.7c-1.8 1.8-4 2.7-6.6 2.7s-4.8-.9-6.6-2.7c-1.8-1.8-2.7-4-2.7-6.6s.9-4.8 2.8-6.6c1.8-1.9 4-2.8 6.5-2.8M146.9 0v46.1l9.8-8.3c1.1-.9 1.7-1.5 1.9-1.7.2-.3.3-.5.3-.7 0-.4-.2-.7-.7-1s-1.4-.4-2.9-.4h-1.9V24h31.3v9.9c-2.2 0-3.8.2-4.6.5-1.1.4-2.9 1.6-5.4 3.4l-9.9 7.3 14.1 16.4c1.4 1.7 2.6 2.8 3.5 3.1.9.4 2.7.6 5.3.6v9.9H156v-9.9h1.8c1.3 0 2.1-.1 2.5-.4.4-.2.6-.5.6-.9 0-.5-.5-1.4-1.6-2.9l-5.9-7.5-6.4 4.8v2.8c0 1.3.1 2.2.3 2.6.2.5.6.8 1 1.1.5.3 1.3.4 2.3.4h1.8v9.9H123v-9.9c1 0 1.8-.1 2.4-.1 1.9 0 3.1-.1 3.7-.4.5-.3.9-.7 1.2-1.3.2-.4.3-1.9.3-4.5V14.2H123v-10c5.8-.3 12.1-1.7 18.9-4.2h5zM216.7 22.8v37.8c0 1.8.1 2.9.3 3.3s.6.7 1.1.9 1.7.3 3.6.3h2.8V75h-31.6v-9.9h2.7c1.8 0 2.9-.1 3.4-.3.5-.2.9-.5 1.1-.9.2-.4.4-1.3.4-2.7V36.9h-7.6v-9.6c2.7-.1 5.3-.4 7.7-.9 2.5-.4 4.7-1 6.6-1.6 1.3-.4 2.8-1.1 4.7-2h4.8zM208.4 0c2.6 0 4.8.9 6.6 2.7s2.7 4 2.7 6.6-.9 4.9-2.7 6.7-4 2.7-6.6 2.7-4.8-.9-6.6-2.7-2.7-4-2.7-6.6.9-4.8 2.8-6.6c1.8-1.9 4-2.8 6.5-2.8"/><path class="st1" d="M237.5 3.7h34.8v9.9h-3.2c-1.8 0-3 .2-3.6.5-.6.4-1.1.9-1.4 1.5-.3.7-.4 2.1-.4 4.3v12.4h26V19.1c0-1.6-.1-2.7-.3-3.3-.3-.8-.7-1.4-1.4-1.7-.6-.3-2.1-.5-4.3-.5H281V3.7h34.9v9.9H313c-2 0-3.3.2-3.9.5s-1.1.8-1.4 1.4-.4 2.1-.4 4.5v38.7c0 2.4.2 3.9.5 4.6.3.7.8 1.2 1.5 1.5s2.2.4 4.6.4h2v9.9H281v-9.9h2.3c2.1 0 3.6-.2 4.4-.5s1.3-.8 1.6-1.5c.3-.6.4-2.2.4-4.6v-15h-26v15.1c0 2.4.1 3.9.3 4.5.3.9.9 1.4 1.6 1.7.7.3 2.2.4 4.3.4h2.4v9.9h-34.8v-9.9h2.4c2 0 3.4-.2 4.2-.5s1.3-.8 1.6-1.4c.3-.6.4-2 .4-4V20.5c0-2.4-.1-4-.4-4.7-.3-.7-.7-1.3-1.4-1.6-.6-.3-1.8-.5-3.6-.5h-3.2v-10zM348.9 22.8c5.8 0 10.9 1.1 15.2 3.4 4.3 2.3 7.7 5.4 10 9.3s3.5 8.6 3.5 13.8c0 8-2.6 14.5-7.8 19.4-5.2 5-12.1 7.5-20.8 7.5-8.8 0-15.9-2.5-21.1-7.5-5-4.8-7.6-11.2-7.6-19.4 0-5.4 1.2-10 3.5-13.8 2.3-3.9 5.6-6.9 10-9.3 4.4-2.2 9.4-3.4 15.1-3.4m.2 11.2c-1.9 0-3.8.6-5.5 1.7-1.7 1.2-3 2.9-4 5.1-.9 2.3-1.4 5.1-1.4 8.6 0 3.6.5 6.5 1.4 8.9s2.2 4.1 3.8 5.2c1.6 1.1 3.4 1.7 5.3 1.7 3 0 5.6-1.3 7.7-3.8s3.2-6.5 3.2-11.8c0-5.2-1-9.1-3-11.7-1.9-2.6-4.4-3.9-7.5-3.9M381.3 24h27.1v9.9h-1.1c-1.3 0-2.1.1-2.5.4-.5.3-.7.8-.7 1.4 0 .5.2 1.2.5 2.2l7.1 22.1 6.2-17.3-1.6-4.8c-.5-1.4-1.1-2.4-1.8-3-.7-.6-1.7-.9-3.1-1V24H437v9.9h-2.1c-1.2 0-2 .2-2.4.5s-.7.8-.7 1.5c0 .6.2 1.5.6 2.7l6.2 18.3 6.2-18.3c.4-1.2.6-2.1.6-2.7 0-.6-.2-1.1-.7-1.5-.5-.3-1.5-.5-3.1-.5h-1.2V24h23v9.9c-1.7 0-2.7.1-3.2.3s-1 .5-1.3 1c-.5.6-1 1.8-1.6 3.4l-13.8 36.5H430l-7.6-20.5-7.7 20.5H401l-13.5-36.5c-.5-1.3-1.1-2.4-1.7-3.2-.4-.6-.8-1-1.3-1.1-.5-.2-1.5-.3-3.2-.3V24z"/></svg>