<svg xmlns="http://www.w3.org/2000/svg" viewBox="0 0 48 48"><linearGradient id="a" gradientUnits="userSpaceOnUse" x1="24" x2="24" y2="48.001"><stop offset="0" stop-color="#fff"/><stop offset="1" stop-color="#eaeaea"/></linearGradient><path fill-rule="evenodd" clip-rule="evenodd" fill="url(#a)" d="M48 42a6 6 0 0 1-6 6H6a6 6 0 0 1-6-6V6a6 6 0 0 1 6-6h36a6 6 0 0 1 6 6v36z"/><path clip-rule="evenodd" fill="none" d="M27.695 29.811s1.519 5.062 5.974 4.05c4.456-1.013 4.759-6.684 2.127-9.619-2.633-2.937-9.417 1.72-8.101 5.569z"/><path fill-rule="evenodd" clip-rule="evenodd" d="M11.828 18.179s-3.344 3.499-2.763 9.192c.581 5.694 4.186 10.392 16.208 10.392 12.021 0 15.045-6.275 15.116-11.436.071-5.159-2.253-7.46-3.344-8.243 0 0 .007-3.704-.343-5.661 0 0-1.85-.219-5.845 2.07 0 0-5.454-.533-12.722.065 0 0-3.053-2.04-6.129-2.574 0 0-.51 3.212-.178 6.195z"/><path fill-rule="evenodd" clip-rule="evenodd" fill="#E2B89F" d="M17.211 23.815h14.916s4.227-.475 4.227 6.44c.034 6.086-11.139 5.693-11.139 5.693s-12.236.486-12.243-6.269c-.016-6.1 4.239-5.864 4.239-5.864z"/><path fill-rule="evenodd" clip-rule="evenodd" fill="#9C584F" d="M30.767 26.591c.959 0 1.737 1.25 1.737 2.787 0 1.54-.778 2.788-1.737 2.788-.958 0-1.736-1.248-1.736-2.788-.001-1.537.778-2.787 1.736-2.787z"/><path fill="#FFF" d="M30.767 32.666c-1.254 0-2.236-1.444-2.236-3.288 0-1.843.982-3.287 2.236-3.287 1.255 0 2.237 1.444 2.237 3.287 0 1.844-.983 3.288-2.237 3.288zm0-5.575c-.585 0-1.236.939-1.236 2.287 0 1.349.651 2.288 1.236 2.288s1.237-.939 1.237-2.288c0-1.348-.652-2.287-1.237-2.287z"/><path fill-rule="evenodd" clip-rule="evenodd" fill="#9C584F" d="M18.767 26.591c.959 0 1.737 1.25 1.737 2.787 0 1.54-.778 2.788-1.737 2.788-.958 0-1.736-1.248-1.736-2.788-.001-1.537.778-2.787 1.736-2.787z"/><path fill="#FFF" d="M18.767 32.666c-1.254 0-2.236-1.444-2.236-3.288 0-1.843.982-3.287 2.236-3.287 1.254 0 2.237 1.444 2.237 3.287 0 1.844-.983 3.288-2.237 3.288zm0-5.575c-.585 0-1.236.939-1.236 2.287 0 1.349.651 2.288 1.236 2.288s1.237-.939 1.237-2.288c0-1.348-.652-2.287-1.237-2.287z"/><path fill-rule="evenodd" clip-rule="evenodd" fill="#9C584F" d="M24.076 32.705s.499-1.418 1.109-.089c0 0-.457.297-.285.996l1.428.546h-3.23l1.28-.575s.184-1.056-.302-.878z"/></svg>