<svg xmlns="http://www.w3.org/2000/svg" viewBox="282 372 48 48"><linearGradient id="a" gradientUnits="userSpaceOnUse" x1="24.464" y1="770.423" x2="24.464" y2="766.657" gradientTransform="matrix(12.75 0 0 -12.75 -5.875 10194.875)"><stop offset="0" stop-color="#f93c2d"/><stop offset="1" stop-color="#d32d20"/></linearGradient><path fill="url(#a)" d="M330.086 413.998a6.008 6.008 0 0 1-6.011 6.002h-36.064a6.008 6.008 0 0 1-6.011-6.002v-36.01a6.008 6.008 0 0 1 6.011-6.002h36.064a6.008 6.008 0 0 1 6.011 6.002v36.01z"/><path fill="#FFF" d="M306.726 408.252s5.185 0 10.157-.252 5.881-1.625 6.357-5.883c.629-5.634-.063-13.124-.063-13.124s-.063-4.595-5.287-4.783c-5.224-.189-11.156-.252-11.156-.252h-1.081s-5.932.063-11.156.252-5.287 4.783-5.287 4.783-.692 7.49-.063 13.124c.476 4.258 1.385 5.632 6.357 5.883 4.972.252 10.157.252 10.157.252h1.065z"/><path fill="#DA281E" d="M302.616 391.133v9.816l9.315-4.844z"/><path fill="#C9221B" d="M302.616 391.133l8.165 5.57 1.15-.598z"/></svg>