<svg xmlns="http://www.w3.org/2000/svg" viewBox="0 0 48 48"><linearGradient id="a" gradientUnits="userSpaceOnUse" x1="24" x2="24" y2="48.001"><stop offset="0" stop-color="#e16d35"/><stop offset="1" stop-color="#c93d1d"/></linearGradient><path fill-rule="evenodd" clip-rule="evenodd" fill="url(#a)" d="M48 42a6 6 0 0 1-6 6H6a6 6 0 0 1-6-6V6a6 6 0 0 1 6-6h36a6 6 0 0 1 6 6v36z"/><path fill="#B7321C" d="M26.697 25.824a4.697 4.697 0 0 0-1.658-.395 68.22 68.22 0 0 1-1.945-.107 51.544 51.544 0 0 0-2.16-.107c-.49-.012-.965-.03-1.425-.055a5.605 5.605 0 0 1-1.21-.179 1.972 1.972 0 0 1-.915-.476c-.251-.232-.376-.57-.376-1.013 0-.43.149-.771.448-1.021s.585-.424.86-.52h2.169c1.673 0 3.14-.538 4.401-1.613 1.261-1.076 1.891-2.39 1.891-3.944 0-.597-.107-1.207-.322-1.829a5.208 5.208 0 0 0-.986-1.703v-.107h4.159v-1.721h-6.167c-.55-.167-1.091-.305-1.623-.412s-1.067-.162-1.604-.162c-1.948 0-3.547.538-4.795 1.614-1.249 1.076-1.874 2.45-1.874 4.123 0 1.112.316 2.089.95 2.931.633.843 1.523 1.533 2.671 2.071v.269c-.908.382-1.586.84-2.035 1.371-.448.532-.672 1.114-.672 1.748 0 .502.096.923.287 1.264.191.341.442.637.753.888.275.215.603.403.986.564.382.161.753.296 1.111.403v.251c-1.482.061-2.701.442-3.657 1.147-.956.705-1.434 1.667-1.434 2.887 0 1.506.664 2.649 1.99 3.433s3.328 1.175 6.005 1.175c1.637 0 3.012-.156 4.124-.467s2.067-.747 2.868-1.309c.753-.55 1.314-1.198 1.686-1.945.37-.747.556-1.544.556-2.393s-.138-1.56-.412-2.134a5.26 5.26 0 0 0-1.13-1.542 5.352 5.352 0 0 0-1.515-.985zm-4.159-6.355c-.556.831-1.348 1.246-2.375 1.246-.92 0-1.67-.418-2.25-1.255-.58-.836-.869-1.918-.869-3.245 0-.585.051-1.156.152-1.712s.271-1.031.511-1.425c.251-.43.577-.762.977-.995.4-.233.881-.35 1.443-.35 1.027 0 1.825.416 2.393 1.246.567.831.852 1.945.852 3.343 0 1.267-.278 2.316-.834 3.147zm2.761 14.754c-1.01.676-2.394 1.013-4.15 1.013-1.016 0-1.876-.099-2.582-.295-.705-.197-1.267-.451-1.685-.763-.442-.322-.753-.675-.932-1.058a2.797 2.797 0 0 1-.269-1.201c0-.932.272-1.693.816-2.285.543-.592 1.461-1.014 2.752-1.265 1.374 0 2.582.03 3.621.09 1.04.061 1.727.114 2.062.161.633.155 1.105.448 1.417.879.311.431.466.979.466 1.649-.002 1.374-.506 2.4-1.516 3.075zm8.349-17.915v3.505h1.368v-3.505h3.489v-1.345h-3.489V11.45h-1.368v3.513h-3.489v1.345h3.489z"/><path fill="#FFF" d="M26.697 27.199a4.697 4.697 0 0 0-1.658-.395 68.22 68.22 0 0 1-1.945-.107 51.544 51.544 0 0 0-2.16-.107c-.49-.012-.965-.03-1.425-.055a5.605 5.605 0 0 1-1.21-.179 1.972 1.972 0 0 1-.915-.476c-.251-.232-.376-.57-.376-1.013 0-.43.149-.771.448-1.021s.585-.424.86-.52h2.169c1.673 0 3.14-.538 4.401-1.613 1.261-1.076 1.891-2.39 1.891-3.944 0-.597-.107-1.207-.322-1.829a5.208 5.208 0 0 0-.986-1.703v-.107h4.159v-1.721h-6.167c-.55-.167-1.091-.305-1.623-.412s-1.067-.162-1.604-.162c-1.948 0-3.547.538-4.795 1.614-1.249 1.076-1.874 2.45-1.874 4.123 0 1.112.316 2.089.95 2.931.633.843 1.523 1.533 2.671 2.071v.269c-.908.382-1.586.84-2.035 1.371-.448.532-.672 1.114-.672 1.748 0 .502.096.923.287 1.264.191.341.442.637.753.888.275.215.603.403.986.564.382.161.753.296 1.111.403v.251c-1.482.061-2.701.442-3.657 1.147-.956.705-1.434 1.667-1.434 2.887 0 1.506.664 2.649 1.99 3.433s3.328 1.175 6.005 1.175c1.637 0 3.012-.156 4.124-.467s2.067-.747 2.868-1.309c.753-.55 1.314-1.198 1.686-1.945.37-.747.556-1.544.556-2.393s-.138-1.56-.412-2.134a5.26 5.26 0 0 0-1.13-1.542 5.352 5.352 0 0 0-1.515-.985zm-4.159-6.355c-.556.831-1.348 1.246-2.375 1.246-.92 0-1.67-.418-2.25-1.255-.58-.836-.869-1.918-.869-3.245 0-.585.051-1.156.152-1.712s.271-1.031.511-1.425c.251-.43.577-.762.977-.995.4-.233.881-.35 1.443-.35 1.027 0 1.825.416 2.393 1.246.567.831.852 1.945.852 3.343 0 1.267-.278 2.316-.834 3.147zm2.761 14.754c-1.01.676-2.394 1.013-4.15 1.013-1.016 0-1.876-.099-2.582-.295-.705-.197-1.267-.451-1.685-.763-.442-.322-.753-.675-.932-1.058a2.797 2.797 0 0 1-.269-1.201c0-.932.272-1.693.816-2.285.543-.592 1.461-1.014 2.752-1.265 1.374 0 2.582.03 3.621.09 1.04.061 1.727.114 2.062.161.633.155 1.105.448 1.417.879.311.431.466.979.466 1.649-.002 1.374-.506 2.4-1.516 3.075zm8.349-17.915v3.505h1.368v-3.505h3.489v-1.345h-3.489v-3.513h-1.368v3.513h-3.489v1.345h3.489z"/></svg>