<svg xmlns="http://www.w3.org/2000/svg" viewBox="0 0 48 48"><linearGradient id="a" gradientUnits="userSpaceOnUse" x1="24" x2="24" y2="48.001"><stop offset="0" stop-color="#f2a833"/><stop offset="1" stop-color="#e8621d"/></linearGradient><path fill-rule="evenodd" clip-rule="evenodd" fill="url(#a)" d="M48 42a6 6 0 0 1-6 6H6a6 6 0 0 1-6-6V6a6 6 0 0 1 6-6h36a6 6 0 0 1 6 6v36z"/><path fill="#E8621D" d="M10.016 8.494s27.276-1.343 29.426 27.41h-5.509s1.076-20.959-23.917-22.841V8.494z"/><path fill="#E8621D" d="M10.016 18.034s15.99-.538 19.08 17.869h-5.508s-.671-10.883-13.572-13.302v-4.567zm2.994 11.987a3.494 3.494 0 1 1 0 6.988 3.494 3.494 0 0 1 0-6.988z"/><path fill="#FFF" d="M10.016 9.597s27.276-1.343 29.426 27.41h-5.509s1.076-20.96-23.917-22.842V9.597z"/><path fill="#FFF" d="M10.016 19.138s15.99-.539 19.08 17.869h-5.508s-.671-10.882-13.572-13.304v-4.565zm2.994 11.987a3.494 3.494 0 1 1 0 6.987 3.494 3.494 0 0 1 0-6.987z"/></svg>