<svg width="981" height="980" xmlns="http://www.w3.org/2000/svg" role="img" aria-describedby="title"><title id="title">Avatar</title><g fill="none" fill-rule="evenodd"><path stroke="#979797" fill="#D8D8D8" d="M0 0h980v980H0z"/><path d="M970.7 979c7.3-2 11.7-9.5 9.7-16.8-32.3-120.3-161-148.2-230.2-163.1-16-3.5-29.9-6.5-36.6-9.4-47-20.4-77.3-50.7-90.5-90.1 130.6 9.7 189.7-42.3 192.3-44.7 3.2-2.9 4.9-7.3 4.4-11.7-.5-4.4-3-8.2-6.8-10.4-75.3-43-75.3-191.8-75.3-247.8 0-156.6-105.5-280.8-240.8-282.8-.4 0-3.3-.1-3.9-.1-137.2.8-248.9 125.1-248.9 277.1 0 56 0 204.8-75.3 247.8-4 2.3-6.5 6.4-6.9 10.9-.3 4.6 1.6 9 5.2 11.8 3.8 2.9 87.4 66.9 190.3 47.5-13.8 37.8-43.7 66.8-89.3 86.7-6.6 2.9-19.8 6-35 9.7C163.5 810.2 33.8 841 1.3 962.1c-1.9 7.3 2.4 14.8 9.7 16.8 7.4 1.8 958.5.4 959.7.1z" stroke="#000" stroke-width="20" fill="#FFF"/></g></svg>