<svg xmlns="http://www.w3.org/2000/svg" viewBox="0 0 225.80845 71.98468"><path d="M6.21512,11.07971c.72259-.31711,1.4169-.6539,2.14329-1.02371.7791-.29919,1.5289-.6012,2.3192-.93051.7536-.37259,1.4809-.7471,2.23931-1.15351.7696-.4046,1.50819-.80261,2.2713-1.2156.7339-.3133,1.41879-.61719,2.1499-.9437,1.003-.35849,1.9655-.71039,2.97031-1.0942,1.0124-.17121,1.9749-.3331,2.98919-.50712.6144.1439,1.1996.27469,1.81211.40641.26719.31329.51649.60309.7743.91171-.1618.0687-.3199.14111-.48449.21451-.144.70379-.27851,1.36429-.43,2.0473.1185.62759.2305,1.21561.35,1.814.7565-.0781,1.4922-.15052,2.2458-.24649.7565-.03672,1.4856-.08191,2.24111-.1186.6972-.21078,1.37269-.41778,2.0746-.63791.9098-.19848,1.7848-.38571,2.6965-.59368.923-.1167,1.799-.22861,2.73039-.35.9164-.1618,1.7961-.30859,2.7219-.48169.9277.08,1.82339.15991,2.7577.2305.92771,0,1.83.01129,2.75861.016.9277.16461,1.8121.31989,2.7398.4892.923.096,1.80741.18539,2.7426.29071.9249.13461,1.81681.26251,2.73981.4046.80631.1741,1.5694.34061,2.3738.5184.0753-.8703.15519-1.75659.2305-2.673-.07531-.67832-.1411-1.33222-.2164-2.01529-.9164-.12991-1.80741-.2493-2.73511-.38391-.923-.13932-1.8008-.28791-2.7191-.4206-.923-.1571-1.8008-.2926-2.7257-.445-.9324-.04611-1.8253-.09131-2.76049-.14209-.939.032-1.8234.05551-2.7558.08661-.82421-.02069-1.6127-.0546-2.4265-.07059-.827.016-1.61079.03479-2.42931.05459-.8233.1073-1.59759.22391-2.4199.33591-.764.17121-1.49691.3086-2.2647.47049-.8345.3472-1.6362.66519-2.47729,1.01239-.91451.11389-1.7914.21921-2.7238.34909-.8082.1167-1.5788.22861-2.3832.3519.016.67181.0405,1.31631.05741,1.97022-.00661.61911-.016,1.19018-.0226,1.78009.19189-.7565.3773-1.50071.5739-2.29862.19569-.77249.381-1.527.57769-2.3352-.15049-.80912-.30859-1.59479-.4573-2.43592C25.548,1.70959,25.05017,1.115,24.51767.4827,23.79137.32458,23.09888.16281,22.37437,0c-.8844.26529-1.719.5184-2.58929.78369-.8242.366-1.60139.7085-2.4086,1.06229-.8571.31048-1.6776.60971-2.5338.92489-.76961.5344-1.5101,1.03022-2.2807,1.5355-.7489.43188-1.4715.82229-2.2252,1.23541-.6944.4798-1.3577.91449-2.0454,1.3577-.7489.35189-1.47619.68121-2.228,1.00769.02259.60119.04049,1.14221.0659,1.686,0,.51-.0094.96161-.01131,1.40289a.7297.7297,0,0,1,.09714.08365" transform="translate(0.00004)" fill="#ffe666"/><path d="M13.33282,21.49231a18.38729,18.38729,0,0,1,5.68291,14.82342c-.2926.22388.6633.68592.9578.02259.5984-1.54859,3.3815-4.94428,3.99209-5.60279.2945-.88537-.7565-1.72747-1.0491-2.60907q-2.2581-5.98113-8.98911-9.9544a51.43924,51.43924,0,0,0-12.8598-5.09571c-1.1996-.21258-1.1996.8938-.9042,1.33222.9042.66711,2.39169.66711,3.5941.8891a27.6609,27.6609,0,0,1,9.57531,6.19464" transform="translate(0.00004)" fill="#00498f"/><path d="M21.41112,36.088c-1.193,1.99182-2.9939,3.97992-2.68711,6.18708,0,.45257.58991.67651,1.4941.67651.29919,0,.29919.43939.29919.43939-1.7942.22388-1.5016,1.32941-2.1,1.98242-1.1949,1.11591.8957,1.77362.5984,2.88013,0,.44781-.8957,1.11108-1.1902,1.54858v2.212c-.90041,6.19751-2.7012,11.95093-3.2968,18.13812-.302.44409.89571.89581,1.19679.67182,4.4917-4.423,4.7918-9.73432,5.3902-14.83.2945-.43842.8891-.65772,1.19679-1.09613,0-.89112.60311-1.33039.89571-1.9928.5965-1.77362,1.4969-3.3222,1.193-5.0863,0-.223.9023-.67182.9023-.44788a4.63724,4.63724,0,0,1,.2992,1.99268c.3011.88171,1.79139.88171,1.79139,1.32483-.29449,1.11108.3058,2.21582.59841,3.53772,0,.67181,1.4969.67181,1.4969,1.11022,1.2043,4.86713,2.705,9.28638,4.1972,14.15821.1919.63977.5918,1.99267,2.08591,1.5534.60311-.45172.9917-.86853.9023-1.5534-.84489-6.42047-3.2883-12.60858-3.8839-19.24921,0-.88171-.60589-1.76788-.60589-2.64947-.2992-.22388-.2992-.4488-.5965-.67182-.5984-1.9834,1.20151-4.19537-1.193-5.96417-.2964-.67181,1.48939-1.51758.2973-1.96082-1.2043-.21917-1.97391.90052-2.8678,1.33893-.29919.21918-.1261.62189-.1261.8421-1.79609.44788-2.39639,2.212-4.1878,2.212,2.39169-2.212,5.3761-4.2,7.18159-6.85053.589-.89569-.15339-2.0332-1.6522-1.59478a38.46447,38.46447,0,0,0-4.0354,2.24872c-.6059.22387,0-.21833-.30111-.44318,1.79331-1.32483,4.09-2.53662,5.283-4.08148,1.4969-1.99182,3.0004-3.76538,4.49741-5.97742a37.00889,37.00889,0,0,1,14.4593-12.28311c.6012-.43839-.2625-1.25421-.5993-1.10831C32.964,20.36792,22.31343,34.97693,21.41112,36.088" transform="translate(0.00004)" fill="#0080c5"/><path d="M28.59752,20.8251c0-.477.3152-1.17419,0-1.6456-.9531-.6972-2.2186,0-2.85651.47049-.95309,1.1742-2.2167,2.577-1.91,3.98459,0,.95032-.9456,2.35309,0,2.57611,3.1783.95118,6.66319-1.40747,6.66319-3.50851v-.9418c-.62837-.238-1.58157-.46946-1.89668-.93528m-.6332,1.529c-1.273.2333-.637,1.64093-1.9053,2.1029h-.95309a3.1521,3.1521,0,0,1,1.5863-3.9837c.95309-.4704,1.273.4667,1.9053.9371C28.91263,21.87421,28.398,22.26663,27.96432,22.35413Z" transform="translate(0.00004)" fill="#00498f"/><path d="M122.50562,58.38a.23935.23935,0,0,0-.1919-.08752H120.957a.2382.2382,0,0,0-.22861.16931c-1.8413,7.20239-6.63128,11.51148-12.80429,11.51148-6.1853,0-8.82721-3.15369-8.82721-10.54712v-9.245h22.58271a.2312.2312,0,0,0,.23809-.2334V49.929c-.64068-9.38239-7.58621-16.72584-15.81228-16.72584-8.8131,0-15.7163,8.60993-15.7163,19.61048,0,10.565,7.701,19.17108,17.16991,19.17108,7.21842,0,12.83249-5.01758,14.99179-13.39893a.27407.27407,0,0,0-.04522-.20575M99.09592,44.665c0-6.53442,2.18469-9.72022,6.65188-9.72022,4.71842,0,6.81851,2.60529,6.81851,8.45v5.04028H99.0968C99.09592,48.0285,99.09592,44.665,99.09592,44.665Z" transform="translate(0.00004)" fill="#00498f"/><path d="M223.31323,66.50073l-.9917-.90991a.23121.23121,0,0,0-.17691-.05463.25.25,0,0,0-.174.09131c-1.60791,2.12073-2.849,3.35419-4.423,3.35419-1.67292,0-2.49051-1.79138-2.49051-5.47961V45.30566c0-4.22271-.35379-6.34338-3.8021-8.88842a17.0235,17.0235,0,0,0-10.28091-3.21308c-8.5986,0-13.72821,5.04969-13.72821,9.92151a4.201,4.201,0,0,0,4.4014,4.49262c2.5065,0,4.12671-1.7641,4.12671-4.49262a4.16185,4.16185,0,0,0-1.9166-3.327c-.29071-.24183-.62381-.51178-.62381-.65772,0-1.28333,2.85361-4.19531,7.55332-4.19531,4.79,0,6.7366,1.81958,6.7366,6.27472V50.137H207.308c-14.4226,0-22.6947,4.54718-22.6947,12.46271,0,5.2915,4.57919,9.29962,10.6525,9.29962,6.046,0,10.32889-1.92877,12.77038-5.68939a7.12123,7.12123,0,0,0,7.33789,5.41089c2.9289,0,5.24341-1.39337,7.972-4.79468a.24025.24025,0,0,0-.03281-.32538m-15.7897-2.60058a9.60213,9.60213,0,0,1-8.45181,5.52008c-3.8801,0-6.1081-2.84229-6.1081-7.81482,0-6.64069,3.84342-9.72492,12.08359-9.72492.73761,0,1.5769,0,2.4773.07343C207.52353,52.38379,207.52353,63.76373,207.52353,63.90015Z" transform="translate(0.00004)" fill="#00498f"/><path d="M95.991,69.13794h-1.5609c-2.9572,0-2.943-.68121-3.7155-2.33533-3.7973-10.57068-19.1777-53.431-19.1777-53.431a.2108.2108,0,0,0-.2145-.1618h-.9456a.22775.22775,0,0,0-.2173.1665L53.64822,64.1795c-1.177,3.70978-1.57879,4.95838-5.8983,4.95838H46.64153a.24209.24209,0,0,0-.23711.24267v1.1836a.23625.23625,0,0,0,.23711.238H61.416a.23522.23522,0,0,0,.2352-.238v-1.1836a.23928.23928,0,0,0-.2352-.24267c-5.5596,0-6.68111-.38391-6.68111-1.81488a5.68682,5.68682,0,0,1,.33121-1.4527c0-.0047,4.42211-14.098,4.9386-15.73041h15.4557c.0781.23328,3.7428,10.34668,5.697,15.73041a5.8907,5.8907,0,0,1,.33121,1.4574c0,1.38489-.22391,1.81018-5.48151,1.81018h-.6765a.25109.25109,0,0,0-.2399.24267v1.1836a.24422.24422,0,0,0,.2399.238h.2719s.016.01789.0292.01789h20.112c.0141,0,.016-.01789.016-.01789h.2314a.23862.23862,0,0,0,.23711-.238v-1.1836a.24558.24558,0,0,0-.23723-.24261M60.58043,48.47729c.19479-.5805,6.4252-19.67828,6.8232-20.89392.42709,1.19678,7.24839,20.29462,7.46009,20.89392Z" transform="translate(0.00004)" fill="#00498f"/><path d="M144.554,64.63684a.25681.25681,0,0,0-.1966-.10528h-1.35681a.24106.24106,0,0,0-.21921.15618c-1.05569,3.07953-3.31939,4.83039-6.21438,4.83039-2.6984,0-3.65149-1.38019-3.65149-5.28772V36.02881h7.73959a.23787.23787,0,0,0,.238-.23328V34.52161a.24445.24445,0,0,0-.238-.23328h-3.82281c-3.18482,0-3.85471.04608-3.9159-2.7323V22.48322a.23839.23839,0,0,0-.2399-.23331h-1.0848a.24113.24113,0,0,0-.24091.20041c-1.25891,8.29571-4.79181,11.83807-11.8107,11.83807a.23863.23863,0,0,0-.22861.23328v1.27392a.23226.23226,0,0,0,.22861.23328h6.01682V62.87274c0,2.34.1571,4.424,2.0671,6.238a10.90639,10.90639,0,0,0,7.58442,2.78778c4.65451,0,7.99081-2.51312,9.37759-7.0603a.24263.24263,0,0,0-.032-.20136" transform="translate(0.00004)" fill="#00498f"/><path d="M185.622,69.06921l-1.09711-.0047c-2.2919,0-3.16409.04139-3.23471-2.68621V44.76648c0-7.14313-4.5011-11.56238-11.7496-11.56238-5.18421,0-9.17441,2.41712-12.522,7.52228V33.43744a.23992.23992,0,0,0-.1044-.19672.25915.25915,0,0,0-.21729-.02258c-1.782.7132-4.58289,1.06982-8.337,1.06982h-4.35339a.241.241,0,0,0-.2305.23328v1.27393a.23044.23044,0,0,0,.2305.22857h4.92169s.01129,23.5904.01129,30.11157c0,3.00232-.92678,2.9289-3.5913,2.9289v.0047h-.98981a.22679.22679,0,0,0-.23239.23328V70.5639a.23063.23063,0,0,0,.23239.238h17.40521a.22864.22864,0,0,0,.22861-.238V69.30219a.2253.2253,0,0,0-.22861-.23328h-.8204v-.0047c-3.1171,0-3.866.04608-3.9234-2.73688V44.09924c3.2055-5.86352,6.97839-8.70587,11.537-8.70587,3.405,0,4.5933,1.39337,4.725,5.81738.0094.28882.01221.59931.01221.91919V66.13623h-.00281c0,3.00232-.8223,2.929-3.92529,2.929V69.07h-.90509a.23125.23125,0,0,0-.2352.23327v1.26172a.23533.23533,0,0,0,.2352.238H185.6232a.22987.22987,0,0,0,.22861-.238V69.30322a.22772.22772,0,0,0-.22977-.234" transform="translate(0.00004)" fill="#00498f"/><path d="M217.75833,37.25751a4.02618,4.02618,0,1,1,4.03449,4.12188,4.07819,4.07819,0,0,1-4.03449-4.12188m7.34821,0a3.326,3.326,0,1,0-3.31281,3.46429A3.42288,3.42288,0,0,0,225.10654,37.25751Zm-4.917-2.34h1.66629c.95029,0,1.702.37921,1.702,1.13379a1.40222,1.40222,0,0,1-.97571,1.27478l1.44229,1.87329-.8063.192-1.36151-1.89679h-.87781v1.814l-.78851.0047V34.91754Zm.78852,2.13385h.48449c1.03022,0,1.24289-.5758,1.24289-.95032,0-.53442-.478-.74047-1.01049-.74047H220.978v1.69079Z" transform="translate(0.00004)" fill="#00498f"/><path d="M217.75833,37.25751a4.02618,4.02618,0,1,1,4.03449,4.12188,4.07819,4.07819,0,0,1-4.03449-4.12188m7.34821,0a3.326,3.326,0,1,0-3.31281,3.46429A3.42288,3.42288,0,0,0,225.10654,37.25751Zm-4.917-2.34h1.66629c.95029,0,1.702.37921,1.702,1.13379a1.40222,1.40222,0,0,1-.97571,1.27478l1.44229,1.87329-.8063.192-1.36151-1.89679h-.87781v1.814l-.78851.0047V34.91754Zm.78852,2.13385h.48449c1.03022,0,1.24289-.5758,1.24289-.95032,0-.53442-.478-.74047-1.01049-.74047H220.978v1.69079Z" transform="translate(0.00004)" fill="#00498f"/></svg>