<svg xmlns="http://www.w3.org/2000/svg" viewBox="0 0 40.05314 21.62014"><path d="M39.7,19.2a1.5393,1.5393,0,0,1-.2,2.1,1.66829,1.66829,0,0,1-2.2-.2l-3.5-4.5L30.4,21a1.5674,1.5674,0,0,1-2.2.2,1.46128,1.46128,0,0,1-.3-2.1l4-5.2-4-5.2a1.6804,1.6804,0,0,1,.3-2.2,1.6804,1.6804,0,0,1,2.2.3l3.4,4.5L37.3,7a1.53206,1.53206,0,1,1,2.4,1.9L35.8,14Zm-18.2-.6A4.61038,4.61038,0,0,1,16.8,14a4.70109,4.70109,0,0,1,9.4,0A4.73888,4.73888,0,0,1,21.5,18.6Zm-13.8,0A4.61038,4.61038,0,0,1,3,14a4.70109,4.70109,0,0,1,9.4,0A4.61038,4.61038,0,0,1,7.7,18.6ZM21.5,6.4a7.74252,7.74252,0,0,0-6.8,4,7.78451,7.78451,0,0,0-6.9-4A8.21966,8.21966,0,0,0,3.1,7.9V1.5A1.538,1.538,0,0,0,1.6,0,1.56054,1.56054,0,0,0,0,1.5V14.1a7.66222,7.66222,0,0,0,7.7,7.5,7.8713,7.8713,0,0,0,6.9-4.1,7.83305,7.83305,0,0,0,6.8,4.1,7.72515,7.72515,0,0,0,7.8-7.7A7.53578,7.53578,0,0,0,21.5,6.4Z" fill="#0071f7"/></svg>