<svg xmlns="http://www.w3.org/2000/svg" viewBox="0 0 1000 400"><path d="M0,0V27.367H194.64844V0ZM222.22656,0V27.367H499.60938S471.27625,0,433.75,0ZM554.02344,0V27.367h167.8125L711.875,0Zm288.125,0L832.1875,27.367H998.47656V0ZM0,53.22221v27.367H194.64844v-27.367Zm222.22656.03876V80.5892H531.79688S528.18127,59.52639,521.875,53.261Zm331.79688,0V80.5892H740.23438L731.01562,53.261Zm268.20312,0L813.00781,80.5892H998.47656V53.261ZM55.9375,106.44442v27.40575h84.29688V106.44442Zm222.22656,0v27.40575h84.29688V106.44442Zm166.28906,0v27.40575H528.75s5.35156-14.473,5.35156-27.40575Zm165.50782,0v27.40575H759.41406l-9.96094-27.40575Zm193.90625,0-10,27.40575H944.0625V106.44442ZM55.9375,159.7054v27.367h84.29688v-27.367Zm222.22656,0v27.367h215.3125s18.01126-14.04226,23.75-27.367Zm331.79688,0v27.367h84.29687v-15.234l5.35157,15.234H854.02344l5.74218-15.234v15.234H944.0625v-27.367H785.82031l-8.39843,23.18053-8.4375-23.18053ZM55.9375,212.92761v27.367h84.29688v-27.367Zm222.22656,0v27.367h239.0625c-5.74-13.28128-23.75-27.367-23.75-27.367Zm331.79688,0v27.367h84.29687v-27.367Zm99.60937,0,10.19531,27.367H835.54688l9.6875-27.367Zm150.19531,0v27.367H944.0625v-27.367ZM55.9375,266.14981v27.367h84.29688v-27.367Zm222.22656,0v27.367h84.29688v-27.367Zm166.28906,0v27.367h89.64844c0-12.91535-5.35156-27.367-5.35156-27.367Zm165.50782,0v27.367h84.29687v-27.367Zm118.75,0,9.88281,27.367h77.61719l9.96094-27.367Zm131.05468,0v27.367H944.0625v-27.367ZM1.52343,319.372v27.40573H196.17188V319.372Zm220.70313,0v27.40573H521.875c6.30627-6.27533,9.92188-27.40573,9.92188-27.40573Zm333.32032,0v27.40573H694.25781V319.372Zm192.34374,0,10.15626,27.40573h39.49218l9.53125-27.40573Zm111.875,0v27.40573H1000V319.372ZM1.52343,372.633V400H196.17188V372.633Zm220.70313,0v27.32824H433.75c37.52625,0,65.85938-27.32824,65.85938-27.32824Zm333.32032,0V400H694.25781V372.633Zm211.60156,0,9.76562,27.28945,1.67969.03879,9.92187-27.32824Zm92.61718,0V400H1000V372.633Z" fill="#1f70c1"/></svg>