<svg xmlns="http://www.w3.org/2000/svg" viewBox="0 0 530.63141 310.24609"><path d="M379.957,271.791c-5.71912,0-8.73437,4.53057-8.73437,10.07617,0,10.97253,12.26367,12.472,12.26367,19.08008,0,1.50756-.778,3.58007-3.01563,3.58007-2.90527,0-2.90429-3.64044-2.90429-5.71875h-6.03321c0,5.10053,1.45429,11.4375,8.6875,11.4375,6.07386,0,9.291-4.52368,9.291-10.17968,0-10.76416-12.25781-12.89856-12.25781-19.17969,0-2.02936.92981-3.37695,2.543-3.37695,2.69581,0,2.69532,3.48138,2.69532,5.55859h6.03125C388.37051,276.41885,386.03085,271.791,379.957,271.791Zm-291.47461.006c-5.97647,0-9.86914,4.62146-9.86914,19.2207,0,14.60028,3.89322,19.22266,9.86914,19.22266s9.87305-4.62238,9.87305-19.22266C98.35544,276.41849,94.45831,271.797,88.48239,271.797Zm145.46094,0c-5.35022,0-9.60938,5.08667-9.60938,19.2207,0,12.16186,2.39631,19.22656,9.60938,19.22656a6.80078,6.80078,0,0,0,5.35156-3.17383l.93164,2.44532h2.86328V292.26755H234.875v5.40039h2.502c0,1.77142-.20849,6.85156-2.752,6.85156-2.08484,0-3.22461-1.39-3.22461-13.55078,0-11.90448,1.25037-13.459,2.9043-13.459,2.9118,0,2.50195,6.49694,2.50195,8.21289H242.832V283.332c0-9.45843-4.5177-11.53516-8.88867-11.53516ZM0,272.5195v36.99805H4.9902V282.3945h.10938l4.51758,27.12305h3.74609L17.9277,282.3945h.10547v27.12305h6.03125V272.5195h-8.7832l-3.17578,18.96484h-.09769L8.99213,272.5195Zm150.77148,0v36.99805h15.37891v-5.71289h-8.62305V272.5195Zm24.22461,0v36.99805h15.64258v-5.71289H181.75v-10.084H188.039v-6.02539H181.75v-9.457h8.52734V272.5195Zm77.1543,0v27.74805c0,7.27569,3.48175,9.97851,8.67969,9.97851,5.40686,0,8.625-2.70282,8.625-9.97851V272.5195h-5.71289v28.63086c0,1.772-.62476,3.36914-2.49414,3.36914-1.97327,0-2.34375-1.70215-2.34375-3.36914V272.5195Zm27.35938,0v36.99805H295.1445v-5.71289h-8.88086v-10.084h6.28125v-6.02539h-6.28125v-9.457h8.51953V272.5195Zm118.58984,0v36.99805h15.64258v-5.71289H404.8613v-10.084h6.28125v-6.02539H404.8613v-9.457H413.375V272.5195Zm77.41992,0v36.99805h15.377v-5.71289h-8.623V272.5195Zm24.22461,0v36.99805h15.377v-5.71289h-8.623V272.5195Zm-462.31641.008-5.1914,36.98828h5.66406l.92969-8.21289h5.45508l.99414,8.21289H51.7695L47.19724,272.5275Zm25.377,0v28.16406c0,2.02228-.78507,3.2168-2.18164,3.2168a18.082,18.082,0,0,1-2.28711-.16016v5.873a25.41117,25.41117,0,0,0,3.63476.3125c5.35025,0,7.58789-1.81995,7.58789-7.53907V272.5275Zm44.85547,0v36.98828h6.76171V293.61734h1.61329l3.16015,15.89844h6.81055l-3.99609-17.45508c3.01571-1.77142,3.94726-5.92737,3.94726-9.041,0-7.78869-4.25833-10.49218-10.707-10.49218Zm94.88867,0-5.19727,36.98828h5.66211l.93164-8.21289h5.46289l.98633,8.21289h6.49024l-4.57227-36.98828Zm117.19531,0v36.98828h8.62305c4.99011,0,9.56836-3.53015,9.56836-10.28516,0-4.67615-2.14051-7.89886-6.76172-8.99023v-.10547c4.16314-.883,6.0332-4.10553,6.0332-8.26758,0-7.06732-4.99609-9.33984-9.14453-9.33984Zm30.42188,0-5.19727,36.98828H350.625l.9375-8.21289h5.45508l.99414,8.21289h6.49023l-4.56445-36.98828Zm72.1582,0v36.98828h8.625c4.989,0,9.56836-3.53015,9.56836-10.28516,0-4.67615-2.14051-7.89886-6.76172-8.99023v-.10547c4.16205-.883,6.02539-4.10553,6.02539-8.26758,0-7.06732-4.99152-9.33984-9.14648-9.33984Zm30.42383,0-5.19922,36.98828h5.66406l.9375-8.21289h5.44922l.99219,8.21289H467.082l-4.57226-36.98828ZM88.48239,277.50992c1.55655,0,2.49414,1.6112,2.49414,9.60937V294.924c0,7.99817-.937,9.5957-2.49414,9.5957s-2.50195-1.59753-2.50195-9.5957v-7.80469C85.98044,279.12112,86.92584,277.50992,88.48239,277.50992Zm238.02344.416c3.37042-.0484,4.252.67377,4.252,4.88477,0,3.322-.88153,4.88477-4.252,4.88477Zm102.57226,0c3.377-.0484,4.25977.67377,4.25977,4.88477,0,3.322-.88281,4.88477-4.25977,4.88477Zm-314.65625.008h1.043c2.27906,0,3.73047,1.13922,3.73047,5.13477,0,2.65448-.93127,5.14257-3.42578,5.14257h-1.34766Zm-72.7832.30469h.10352l1.97461,17.666H39.51169Zm165.11524,0h.10351l1.98047,17.666h-4.21094Zm147.623,0h.09772l1.98047,17.666h-4.21094Zm102.56836,0h.10938l1.97461,17.666h-4.21094ZM326.50583,293.40817c3.83612-.049,4.668,1.86933,4.668,5.25391,0,3.83612-.6175,5.44726-4.668,5.44726Zm102.57226,0c3.84974-.049,4.67774,1.86933,4.67774,5.25391,0,3.83612-.62616,5.44726-4.67774,5.44726Z" transform="translate(0.00003 0.00003)" fill="#e0003c"/><path d="M530.63138,273.52719h-1.66809v-6.53192h-.04792l-2.377,6.53192H524.9263l-2.30078-6.53192h-.0343v6.53192H520.909v-8.21307h2.90417L525.725,270.678h.04132l1.98687-5.36383h2.87806Zm-11.22333-6.74737h-2.46619v6.74737h-1.67462v-6.74737H512.7858v-1.46515h6.62225Z" transform="translate(0.00003 0.00003)" fill="#e0003c"/><path d="M30.85526.00076A29.55393,29.55393,0,0,0,1.33344,29.52255V232.33823A29.54744,29.54744,0,0,0,30.85526,261.86H484.45834A29.59513,29.59513,0,0,0,513.982,232.33066V29.49805A29.52171,29.52171,0,0,0,484.45834.00073Z" transform="translate(0.00003 0.00003)" fill="#fff"/><path d="M513.9816,29.49777A29.5219,29.5219,0,0,0,484.45877,0H357.66794l72.913,121.72177,6.68781.82077,3.88031,5.58807v5.24918l4.72973.85922,4.18433,5.82947.02679,5.00778,4.70289.83152,4.72973,5.27331v11.39963s10.26514,9.43106,19.48224,13.0376c6.38477,2.49826,7.23138,12.74948,10.84528,18.32882,5.032,7.76862,11.57513,11.08863,10.291,15.5661-3.41907,11.92127-15.49261,33.18164-26.96576,33.19056l-45.01739.03491.02679,19.12054h56.274a29.59392,29.59392,0,0,0,29.52282-29.52881Z" transform="translate(0.00003 0.00003)" fill="#e0003c"/><path d="M30.8558,0A29.55393,29.55393,0,0,0,1.334,29.52179V232.33743A29.54745,29.54745,0,0,0,30.8558,261.85922H215.06143c-4.64923-7.70434-9.81848-16.45971-11.39209-19.12048H181.69327c-.0358-54.4527,18.52234-84.9267,40.556-90.60724,2.98047-.7684,1.6181-15.54947-2.26221-20.002,0,0-10.56982.319-12.79346-.30326-2.7929-.78161-.84948-3.577-.84948-3.577l10.29016-22.236-1.3769-6.13492-38.1054.03009c-.55432,0,31.41858-21.96286,31.41858-21.96286,1.62725-57.77695,60.827-62.29535,96.63287-38.41056,21.20135,14.14264,22.86212,41.96335,21.217,61.417-.27716,1.12744-5.58868.30325-5.58868.30325s-3.57654,21.10208,5.85614,21.10208h41.656c16.9884,0,33.37567,10.7912,33.37567,10.7912l4.18537-14.44724L314.44815.00006ZM62.31772,179.53989a20.29218,20.29218,0,1,1-20.22617,20.30719,20.31685,20.31685,0,0,1,20.22617-20.30719Z" transform="translate(0.00003 0.00003)" fill="#003574"/></svg>