<?xml version="1.0" encoding="UTF-8" standalone="no"?>
<!-- Generator: Adobe Illustrator 18.0.0, SVG Export Plug-In . SVG Version: 6.00 Build 0)  -->

<svg
   xmlns:dc="http://purl.org/dc/elements/1.1/"
   xmlns:cc="http://creativecommons.org/ns#"
   xmlns:rdf="http://www.w3.org/1999/02/22-rdf-syntax-ns#"
   xmlns:svg="http://www.w3.org/2000/svg"
   xmlns="http://www.w3.org/2000/svg"
   xmlns:sodipodi="http://sodipodi.sourceforge.net/DTD/sodipodi-0.dtd"
   xmlns:inkscape="http://www.inkscape.org/namespaces/inkscape"
   version="1.1"
   id="Layer_1"
   x="0px"
   y="0px"
   viewBox="0 0 350.46301 69.3"
   enable-background="new 0 0 358.5 69.3"
   xml:space="preserve"
   sodipodi:docname="Marriott.svg"
   width="350.46301"
   height="69.300003"
   inkscape:version="0.92.2 5c3e80d, 2017-08-06"><metadata
     id="metadata33"><rdf:RDF><cc:Work
         rdf:about=""><dc:format>image/svg+xml</dc:format><dc:type
           rdf:resource="http://purl.org/dc/dcmitype/StillImage" /><dc:title></dc:title></cc:Work></rdf:RDF></metadata><defs
     id="defs31" /><sodipodi:namedview
     pagecolor="#ffffff"
     bordercolor="#666666"
     borderopacity="1"
     objecttolerance="10"
     gridtolerance="10"
     guidetolerance="10"
     inkscape:pageopacity="0"
     inkscape:pageshadow="2"
     inkscape:window-width="1680"
     inkscape:window-height="933"
     id="namedview29"
     showgrid="false"
     inkscape:zoom="0.9539749"
     inkscape:cx="179.25"
     inkscape:cy="34.650002"
     inkscape:window-x="0"
     inkscape:window-y="1"
     inkscape:window-maximized="1"
     inkscape:current-layer="Layer_1" /><path
     d="m 344.76257,0 -12.6,4.7 V 14 h -5.3 l -1.5,3.6 h 6.8 l -0.1,19.7 c -0.1,12.9 0.5,18.1 4.1,20 h 11.1 c -1.3,-1.2 -2.2,-2.8 -2.5,-5.5 V 17.7 h 4.2 l 1.5,-4 h -5.8 l 0.1,-13.7"
     id="path2"
     inkscape:connector-curvature="0"
     style="fill:#b41f3a" /><path
     d="m 242.36257,13.9 c -1.8,0 -3.7,0.5 -5,1.6 l -2,1.6 c -0.5,-0.9 -0.6,-2.1 -1.5,-2.8 h -12 c 1,1.4 1.6,2.5 1.5,5 l 0.1,30.6 c 0.2,2.6 0.8,5.5 3.2,7.4 h 11.5 c -2.1,-1.9 -2.8,-5.5 -2.7,-9.5 v -23 c 1,-0.9 2.5,-1.5 4.1,-1.5 0.9,0 1.8,0.2 2.6,0.5 0.8,0.4 1.3,0.6 1.9,1.2 l 5.1,-7.9 c -0.7,-1 -1.8,-1.7 -2.9,-2.3 -1,-0.6 -2.5,-0.9 -3.9,-0.9"
     id="path4"
     inkscape:connector-curvature="0"
     style="fill:#b41f3a" /><path
     d="m 261.76257,14.2 h -11.1 c 1.9,2.5 1.3,6 1.4,8.9 l -0.1,18.1 c 0.3,6.4 -1,12.6 2.9,16.3 h 11.9 c -1.4,-1.5 -2.2,-3.5 -2.6,-5.4 l -0.2,-32.7 c -0.3,-0.9 -0.2,-2 -0.8,-2.8 -0.3,-0.9 -0.7,-1.9 -1.4,-2.4"
     id="path6"
     inkscape:connector-curvature="0"
     style="fill:#b41f3a" /><path
     d="m 285.26257,51.3 c -0.1,0 -0.1,0 0,0 -2.5,-0.3 -3.6,-2.8 -4.1,-4.8 -0.8,-5.6 -1.4,-10.2 -0.8,-15.7 0.1,-3.5 0.3,-6.6 2.1,-9.3 0.8,-0.8 1.8,-1.7 3,-1.7 0.3,0 0.6,0.1 0.9,0.2 4.6,2.6 3.6,8.5 4.4,12.8 0,5.8 0.4,11.3 -2.2,16.4 -0.9,0.9 -2,2.1 -3.3,2.1 m 1.5,-38.1 c -3.3,0 -6.6,2.3 -9.6,3.4 -2.7,1.8 -6.5,3.5 -7.7,6.8 -0.8,1.2 -0.6,2.8 -0.9,4.2 -0.7,4.9 -0.5,9.3 -0.2,14.4 -0.4,7.2 6.2,12.4 11.9,15 1.5,0.7 2.9,1.1 4.3,1.1 4.6,0 8.9,-3.5 12.4,-6.6 3.1,-2.7 4.9,-6.2 5.1,-10.2 0.1,-2.3 0.1,-4.4 0,-6.8 0,-2.2 -0.4,-3.8 -0.4,-6 -0.4,-1.6 -0.7,-3.3 -1.3,-4.8 -2.4,-3.9 -5.9,-6.8 -9.7,-9.3 -1.4,-0.8 -2.6,-1.2 -3.9,-1.2"
     id="path8"
     inkscape:connector-curvature="0"
     style="fill:#b41f3a" /><path
     d="m 318.86257,0 -12.6,4.7 V 14 h -5.3 l -1.5,3.6 h 6.8 l -0.1,19.7 c -0.1,12.9 0.5,18.1 4.1,20 h 11.1 c -1.3,-1.2 -2.2,-2.8 -2.5,-5.5 V 17.7 h 4.2 l 1.5,-4 h -5.8 l 0.1,-13.7"
     id="path10"
     inkscape:connector-curvature="0"
     style="fill:#b41f3a" /><path
     d="m 213.96257,13.9 c -1.8,0 -3.7,0.5 -5,1.6 l -2,1.6 c -0.5,-0.9 -0.6,-2.1 -1.5,-2.8 h -12 c 1,1.4 1.4,2.5 1.5,5 l 0.1,30.6 c 0.1,2.8 0.8,5.5 3.2,7.4 h 11.5 c -2.1,-1.9 -2.8,-5.5 -2.7,-9.5 v -23 c 1,-0.9 2.5,-1.5 4.1,-1.5 0.9,0 1.8,0.2 2.6,0.5 0.8,0.4 1.3,0.6 1.9,1.2 l 5.1,-7.9 c -0.7,-1 -1.8,-1.7 -2.9,-2.3 -1,-0.6 -2.5,-0.9 -3.9,-0.9"
     id="path12"
     inkscape:connector-curvature="0"
     style="fill:#b41f3a" /><path
     d="m 106.86257,0.2 -13.700001,7 11.300001,24.2 -4.4,8.9 c -3.000001,5.3 -7.100001,11.7 -13.500001,13.4 -0.9,0.3 -1.7,0.4 -2.5,0.4 -1.5,0 -3,-0.4 -4.6,-0.5 l -7.7,12.6 c 0.6,0.6 1.4,1.1 2.2,1.4 2.9,1.1 5.4,1.7 7.7,1.7 8.5,0 14.2,-8.5 24.700001,-32.3 l 12.6,26.9 h 16.8 l -7.9,-18.1 4.5,-9.4 12.4,27.1 16.1,0.1 -28.1,-61.8 -13,6.4 10.2,23.1 -4.5,9.1 -18.6,-40.2"
     id="path14"
     inkscape:connector-curvature="0"
     style="fill:#b41f3a" /><path
     d="m 171.16257,49.9 c -0.4,0 -0.8,0 -1.2,-0.1 -1,-0.3 -2,-0.7 -2.4,-1.8 -0.8,-1.6 -0.7,-3.1 -0.7,-5.2 0.1,-1.9 0.4,-3.8 1.6,-6 1.4,-2.5 3.8,-4.8 6.7,-5.3 0.9,0 2.1,0.2 2.2,1.9 l 0.4,6.1 c 0,3.4 0.6,7.2 -2.8,9.1 -1.1,0.8 -2.4,1.3 -3.8,1.3 m 5.8,-36.4 c -4.4,0 -8.9,0.8 -12.7,2.6 -0.9,0.6 -1.3,1.6 -2,2.3 -1.4,2.8 -1.8,6 -2.4,9 4.1,-3.5 8.6,-7 13.9,-7 0.8,0 1.7,0.1 2.6,0.3 1.1,0.4 1.7,1.3 1.6,2.5 0,1 -1,1.7 -1.7,2.3 -4.2,2.2 -9.1,3.2 -13.2,5.8 -4.2,2.3 -6.6,6.5 -6.9,10.9 -1,6.1 3,12.7 7.3,14.6 1,0.7 2.1,1 3.3,1 3.9,0 8.7,-3.1 11.2,-5.4 0.4,2 1.1,3.6 2.5,4.9 h 12 c -1.3,-1.8 -2.3,-3.8 -2.4,-6 v -25 c -0.1,-1.8 -0.1,-3.9 -0.8,-5.7 -1.4,-3.8 -5.3,-6.8 -9.5,-7.1 -1,0 -1.9,0 -2.8,0"
     id="path16"
     inkscape:connector-curvature="0"
     style="fill:#b41f3a" /><path
     d="M 12.562569,10.6 C 3.1625694,17.2 -1.7374306,28.3 0.56256943,40.2 c 2.69999997,2.2 5.99999997,3.1 9.49999957,3.1 0.7,0 1.4,0 2.1,-0.1 4.1,-0.7 7.6,-4.1 9,-8.2 1.7,-4.7 -1.3,-9.6 -2.1,-11.2 l -6.5,-13.2"
     id="path20"
     inkscape:connector-curvature="0"
     style="fill:#b41f3a" /><path
     d="m 24.362569,35.1 c -0.2,8.4 -9,15.8 -17.3999996,15.8 -0.5,0 -1,0 -1.5,-0.1 4.5,8 15.7999996,12.8 23.2999996,12.8 3.6,0 6.3,-1.1 7,-3.4 l -11.4,-25.1"
     id="path22"
     inkscape:connector-curvature="0"
     style="fill:#b41f3a" /><path
     d="m 23.562569,5.8 c -0.9,0 -1.9,0.2 -3.2,1.2 l 24.2,52.3 c 1,-0.4 2.9,-1.4 3.4,-3.5 l -23,-49.9 c -0.5,0 -1,-0.1 -1.4,-0.1"
     id="path24"
     inkscape:connector-curvature="0"
     style="fill:#b41f3a" /><path
     d="m 35.262569,6 19.5,42.5 c 9.8,-14.8 1.6,-39.1 -19.5,-42.5"
     id="path26"
     inkscape:connector-curvature="0"
     style="fill:#b41f3a" /></svg>