<?xml version="1.0" encoding="utf-8"?>
<!-- Generator: Adobe Illustrator 16.0.0, SVG Export Plug-In . SVG Version: 6.00 Build 0)  -->
<!DOCTYPE svg PUBLIC "-//W3C//DTD SVG 1.1//EN" "http://www.w3.org/Graphics/SVG/1.1/DTD/svg11.dtd">
<svg version="1.1" id="Layer_1" xmlns="http://www.w3.org/2000/svg" xmlns:xlink="http://www.w3.org/1999/xlink" x="0px" y="0px"
	 width="815.426px" height="172.462px" viewBox="0 0 815.426 172.462" enable-background="new 0 0 815.426 172.462"
	 xml:space="preserve">
<g>
	<path d="M10.276,73.119c6.342-6.85,17.753-14.086,28.791-14.086c18.015,0,28.665,11.924,28.665,25.631
		c0,20.171-14.716,27.271-28.408,27.271c-14.337,0-22.962-6.721-29.047-13.063V73.119z M0,141.991h10.276v-32.469
		c9.127,6.724,15.977,11.16,29.677,11.16c28.417,0,38.052-20.422,38.052-35.768c0-15.095-10.653-34.63-36.275-34.63
		c-15.218,0-21.947,4.316-31.454,12.05V52.313H0V141.991z"/>
	<path d="M161.084,71.722c0-16.994-17.256-21.437-32.346-21.437c-23.091,0-30.319,9.518-34.12,14.208l7.736,5.324
		c3.293-3.807,9.512-11.158,27.143-11.158c10.53,0,21.308,3.422,21.308,12.427v2.541c-25.874,3.042-60.253,3.929-60.253,26.891
		c0,17.129,16.113,20.165,27.02,20.165c12.686,0,23.47-3.798,33.11-10.017c0,2.663,0.756,5.956,1.269,7.989h10.271
		c-0.63-3.544-1.138-6.341-1.138-10.273V71.722z M150.805,101.906c-6.592,3.556-19.404,10.408-33.74,10.408
		c-5.076,0-16.744-1.397-16.744-11.797c0-12.812,20.293-15.603,50.484-18.517V101.906z"/>
	<path d="M187.582,118.655h10.274V78.953c0.385-1.905,10.906-18.769,25.5-18.769c4.439,0,6.975,0.759,8.241,0.881V50.795
		c-1.905-0.385-3.801-0.507-6.085-0.507c-13.319,0-21.694,9.127-27.656,15.854V52.313h-10.274V118.655z"/>
	<path d="M293.62,52.315h-26.384V30.248h-10.277v22.067h-14.08v8.754h14.08v41.1c0,5.332,0,18.517,21.694,18.517
		c4.186,0,9.384-0.753,16.74-1.904v-8.876c-5.58,1.141-9.641,2.032-14.585,2.032c-10.402,0-13.572-3.556-13.572-10.786V61.069
		h26.384V52.315z"/>
	<path d="M313.777,118.658h10.279V52.315h-10.279V118.658z M312.896,38.235h11.796V26.444h-11.796V38.235z"/>
	<path d="M414.112,68.423c-5.07-8.62-14.594-18.138-34.63-18.138c-20.544,0-38.052,12.175-38.052,35.015
		c0,19.912,14.838,35.386,38.688,35.386c20.679,0,30.313-8.876,36.147-19.03l-8.876-4.947c-6.972,12.053-16.233,15.225-27.02,15.225
		c-16.233,0-28.659-11.035-28.659-25.623c0-19.407,14.072-27.271,27.772-27.271c16.621,0,22.834,9.763,25.748,14.457L414.112,68.423
		z"/>
	<path d="M438.075,118.658h10.273V52.315h-10.273V118.658z M437.194,38.235h11.791V26.444h-11.791V38.235z"/>
	<path d="M481.454,73.119c6.344-6.85,17.758-14.086,28.796-14.086c18.01,0,28.668,11.924,28.668,25.631
		c0,20.171-14.716,27.271-28.417,27.271c-14.337,0-22.957-6.721-29.047-13.063V73.119z M471.176,141.991h10.277v-32.469
		c9.136,6.724,15.984,11.16,29.683,11.16c28.411,0,38.046-20.422,38.046-35.768c0-15.095-10.649-34.63-36.27-34.63
		c-15.224,0-21.944,4.316-31.459,12.05V52.313h-10.277V141.991z"/>
	<path d="M629.729,71.722c0-16.994-17.251-21.437-32.347-21.437c-23.085,0-30.318,9.518-34.125,14.208l7.741,5.324
		c3.299-3.807,9.513-11.158,27.143-11.158c10.53,0,21.312,3.422,21.312,12.427v2.541c-25.877,3.042-60.256,3.929-60.256,26.891
		c0,17.129,16.113,20.165,27.02,20.165c12.687,0,23.471-3.798,33.105-10.017c0,2.663,0.761,5.956,1.274,7.989h10.271
		c-0.636-3.544-1.138-6.341-1.138-10.273V71.722z M619.453,101.906c-6.596,3.556-19.406,10.408-33.743,10.408
		c-5.076,0-16.741-1.397-16.741-11.797c0-12.812,20.291-15.603,50.484-18.517V101.906z"/>
	<path d="M653.689,118.655h10.279V72.36c5.963-6.347,15.347-13.327,26.635-13.327c7.229,0,18.646,2.161,18.395,17.89v41.732h10.271
		v-43.76c0-22.706-19.153-24.608-27.399-24.608c-11.796,0-20.93,5.581-27.901,11.665v-9.64h-10.279V118.655z"/>
	<path d="M785.475,52.315h-26.384V30.248h-10.271v22.067h-14.086v8.754h14.086v41.1c0,5.332,0,18.517,21.688,18.517
		c4.186,0,9.384-0.753,16.743-1.904v-8.876c-5.577,1.141-9.643,2.032-14.588,2.032c-10.401,0-13.572-3.556-13.572-10.786V61.069
		h26.384V52.315z"/>
	<polygon fill="#807F83" points="591.842,172.462 595.674,172.462 595.674,143.229 595.775,143.229 609.288,172.462 
		612.786,172.462 626.199,143.229 626.298,143.229 626.298,172.462 630.128,172.462 630.128,139.719 623.699,139.719 
		610.981,167.28 598.272,139.719 591.842,139.719 	"/>
	<polygon fill="none" stroke="#807F83" stroke-width="2.3125" points="591.842,172.462 595.674,172.462 595.674,143.229 
		595.775,143.229 609.288,172.462 612.786,172.462 626.199,143.229 626.298,143.229 626.298,172.462 630.128,172.462 
		630.128,139.719 623.699,139.719 610.981,167.28 598.272,139.719 591.842,139.719 	"/>
	<polygon fill="#807F83" points="641.146,172.462 672.343,172.462 672.343,168.946 645.312,168.946 645.312,157.184 
		667.433,157.184 667.433,153.683 645.312,153.683 645.312,143.229 671.776,143.229 671.776,139.719 641.146,139.719 	"/>
	<polygon fill="none" stroke="#807F83" stroke-width="2.3125" points="641.146,172.462 672.343,172.462 672.343,168.946 
		645.312,168.946 645.312,157.184 667.433,157.184 667.433,153.683 645.312,153.683 645.312,143.229 671.776,143.229 
		671.776,139.719 641.146,139.719 	"/>
	<path fill="#807F83" d="M683.367,172.462h15.646c9.067,0,19.703-3.336,19.703-16.667c0-10.724-7.704-16.079-18.383-16.079h-16.966
		V172.462z M687.524,143.227h12.809c6.989,0,14.126,2.84,14.126,12.435c0,12.874-11.383,13.285-14.787,13.285h-12.147V143.227z"/>
	<path fill="none" stroke="#807F83" stroke-width="2.3125" d="M683.367,172.462h15.646c9.067,0,19.703-3.336,19.703-16.667
		c0-10.724-7.704-16.079-18.383-16.079h-16.966V172.462z M687.524,143.227h12.809c6.989,0,14.126,2.84,14.126,12.435
		c0,12.874-11.383,13.285-14.787,13.285h-12.147V143.227z"/>
	<rect x="729.736" y="139.716" fill="#807F83" width="4.16" height="32.743"/>
	<rect x="729.736" y="139.716" fill="none" stroke="#807F83" stroke-width="2.3125" width="4.16" height="32.743"/>
	<path fill="#807F83" d="M755.932,160.432l9.21-17.613l9.216,17.613H755.932z M744.919,172.462h4.631l4.491-8.515h22.167
		l4.442,8.515h4.673L767.7,139.719h-5.104L744.919,172.462z"/>
	<path fill="none" stroke="#807F83" stroke-width="2.3125" d="M755.932,160.432l9.21-17.613l9.216,17.613H755.932z M744.919,172.462
		h4.631l4.491-8.515h22.167l4.442,8.515h4.673L767.7,139.719h-5.104L744.919,172.462z"/>
	<path fill-rule="evenodd" clip-rule="evenodd" fill="#EF3E42" d="M798.101,0c-9.572,0-17.333,7.753-17.333,17.331
		c0,9.566,7.761,17.328,17.333,17.328c9.569,0,17.325-7.762,17.325-17.328C815.426,7.753,807.67,0,798.101,0 M798.107,26.81
		c-5.238,0-9.483-4.246-9.483-9.479c0-5.238,4.245-9.478,9.483-9.478c5.227,0,9.47,4.24,9.47,9.478
		C807.577,22.563,803.333,26.81,798.107,26.81"/>
</g>
</svg>
