<svg xmlns="http://www.w3.org/2000/svg" viewBox="0 0 1000 592.67232"><path d="M224.16849,198.52458c0-18.30227-9.50958-24.90951-27.09473-24.90951h-10.995L149.45718,298.16264l12.44614.73414c43.96317.73414,62.26532-63.73352,62.26532-100.3722m511.37054,62.28234c0-10.26089-7.32421-16.851-16.85089-16.851-22.70721,0-30.76568,37.35573-35.17044,54.20677h43.963c2.91946-12.44621,8.05831-24.90951,8.05831-37.35572M287.91925,214.64153c0,80.60165-57.8775,102.57459-126.75,102.57459h-16.851l-23.44132,72.52613H59.34579l62.26532-215.393v-.73414H94.4993l5.13885-18.30226.73426-.73414H213.19086c41.02646,0,74.72854,13.91449,74.72854,60.06283m343.59421,17.58518-95.25024,139.1962,56.40915.73414-5.856,17.5852H450.55673L545.79,251.28017H490.115l5.85617-19.0535Zm159.70093,52.75558c0,10.97794-2.2023,21.97294-5.13886,32.23383H677.662c-4.40476,13.18037-9.52668,29.29728-9.52668,43.22886,0,11.71207,6.59012,17.56811,17.5853,17.56811,19.77051,0,27.11182-29.29726,32.23374-43.94591h62.99942c-11.71219,39.55815-54.2067,63.73352-93.76481,63.73352-41.76055,0-73.99444-21.23882-73.99444-65.93593,0-58.61164,46.88232-106.9624,106.22818-106.9624,37.3558,0,71.792,17.58519,71.792,60.07992m208.78571,10.97794c0-217.57836-329.66263-295.96054-501.09269-295.96054C331.13123-.00031.0004,77.6477.0004,293.7749c0,120.87687,110.616,202.92973,211.72241,244.69031h.7341l95.96725-330.41388c20.52185-70.32371,50.55329-143.584,136.25962-143.584,30.04867,0,69.60678,13.18036,69.60678,49.819,0,20.50468-15.38269,39.55814-36.6388,39.55814-17.56805,0-32.23373-13.91449-32.23373-31.49971,0-21.25588,16.11694-31.49967,35.17044-32.23381-5.856-11.72917-19.7876-16.11691-32.23373-16.11691-58.61161,0-71.79215,118.67443-83.52112,158.23258H471.0618L425.64767,389.74227h-61.5483l40.2922-137.72793H358.97745L297.44638,460.80013c-9.52682,32.968-21.99,64.46765-27.84607,98.16977C342.8605,581.677,420.50851,592.672,497.43951,592.672c170.6958,0,502.56089-74.72854,502.56089-296.71174m-28.56308-36.62159c0,18.31932-14.64859,33.70212-32.96784,33.70212-15.38284,0-29.31457-13.93158-29.31457-29.31434a42.97345,42.97345,0,0,1,1.46835-9.52675h-1.46835C877.65527,277.658,863.00668,361.16208,854.214,389.74229H792.68289l40.29236-137.728-24.17557-.73414L815.39,232.22671h83.52112l-8.05832,27.84607c10.97794-16.85105,28.56293-30.76554,49.81888-30.76554,16.8512,0,30.76569,13.18035,30.76569,30.0314" transform="translate(-0.0004 0.00031)" fill="#007cc2"/></svg>