<?xml version="1.0" encoding="utf-8"?>
<!-- Generator: Adobe Illustrator 16.0.0, SVG Export Plug-In . SVG Version: 6.00 Build 0)  -->
<!DOCTYPE svg PUBLIC "-//W3C//DTD SVG 1.1//EN" "http://www.w3.org/Graphics/SVG/1.1/DTD/svg11.dtd">
<svg version="1.1" id="Layer_1" xmlns="http://www.w3.org/2000/svg" xmlns:xlink="http://www.w3.org/1999/xlink" x="0px" y="0px"
	 width="1000px" height="128.311px" viewBox="0 0 1000 128.311" enable-background="new 0 0 1000 128.311" xml:space="preserve">
<g>
	<path fill="#FFFFFF" d="M1000,128.311H0V0.008h1000V128.311 M3.727,124.487h992.555V3.816H3.727V124.487"/>
	<path fill="#FFFFFF" d="M76.864,51.144l-0.597,44.9c0,1.322-0.811,1.135-1.875,0.201c-1.389-1.225-7.325-7.407-13.258-9.236
		c-5.996-1.837-6.612-1.703-12.762-1.717c-5.933-0.023-11.179-0.396-11.877-0.71c-0.694-0.298-1.68-0.411-1.475-2.837l6.12-44.192
		c0.302-1.926-0.194-2.95,2.979-2.136c3.159,0.814,11.57,0.702,13.154,0.814c2.568,0.194,7.814,1.523,11.477,4.764
		C72.414,44.244,76.864,48.306,76.864,51.144"/>
	<path fill="#FFFFFF" d="M79.142,51.144l-0.197,42.361c0,2.031,0.993,2.435,2.177,0.814c1.464-2.008,3.397-3.674,5.638-4.764
		c7.915-3.861,18.802-4.66,20.188-4.771c1.374-0.098,8.502-0.709,9.487-1.016c2.408-0.732,3.035-0.037,2.576-4.967l-5.533-43.078
		c-0.209-1.926-0.604-1.822-1.792-1.523c-1.177,0.306-0.848,0.306-6.43,1.322c-2.662,0.485-6.317,0.097-10.581,1.419
		c-4.137,1.277-7.366,3.569-10.98,6.907C82.331,45.095,79.34,47.485,79.142,51.144"/>
	<path fill="#FFFFFF" d="M197.879,36.649c1.053-0.463,1.621-0.829,1.726,0.545c0.168,2.031,0.903,11.492,0.956,12.373
		c0.056,0.918-0.243,1.008-0.841,0.418c-1.43-1.404-6.276-6.706-13.557-8.744c-5.347-1.494-9.805-1.158-12.959-0.329
		c-3.809,0.993-6.049,2.972-7.382,4.898c-2.064,2.987-1.605,6.833,0.53,9.088c2.353,2.501,7.087,3.331,11.63,4.032
		c4.279,0.672,12.434,1.792,16.484,3.285c3.495,1.285,6.66,3.913,8.603,6.795c2.669,3.98,2.546,11-0.46,15.195
		c-3.312,4.63-7.448,7.185-12.228,8.514c-6.766,1.874-14.031,1.486-20.665-0.41c-5.836-1.658-10.615-2.868-14.345-0.732
		c-0.759,0.44-0.982,0.336-1.042-0.68c-0.067-1.098-0.743-11.851-0.772-13.814l0.676-0.238c2.038,2.352,8.431,7.026,15.483,9.4
		c5.97,2.001,11.141,2.65,17.992,0.74c3.182-0.883,5.627-3.451,6.437-4.9c1.239-2.217,1.217-5.861-0.519-7.892
		c-1.161-1.353-2.793-3.458-16.219-5.392c-14.009-2.031-17.899-5.533-20.584-9.7c-3.282-5.108-2.793-10.955-0.358-15.167
		c2.599-4.48,6.474-6.646,9.838-8.012c4.429-1.785,11.148-2.412,18.407-1.105C191.928,36.127,194.657,38.083,197.879,36.649"/>
	<path fill="#FFFFFF" d="M289.063,39.801c-0.123-0.836-0.321-0.918-1.116-1.367c-1.333-0.754-6.362-2.457-9.163-2.994
		c-6.489-1.247-13.609-1.412-20.415,0.583c-6.385,1.867-12.862,4.645-19.206,14.039c-4.742,7.019-5.798,18.959-0.362,27.561
		c5.253,8.326,12.534,12.307,18.918,14.494c6.202,2.121,15.401,2.405,23.019,0.501c3.182-0.807,6.956-2.211,8.188-2.875
		c0.825-0.44,0.948-0.44,1.132-1.412c0.313-1.642,1.385-7.519,1.78-9.707c0.146-0.851-0.272-1.001-0.869-0.388
		c-2.678,2.732-6.99,5.57-11.373,7.34c-5.611,2.27-13.083,3.338-20.095-0.231c-7.34-3.733-9.894-8.774-11.261-11.216
		c-2.311-4.107-4.092-13.934,1.214-22.566c3.472-5.653,7.702-7.818,11.324-9.409c4.764-2.098,11.671-2.486,17.205-0.313
		c3.479,1.374,8.251,4.085,11.051,7.497c0.403,0.493,1.03,0.485,0.941-0.433C289.843,47.597,289.063,39.801,289.063,39.801"/>
	<path fill="#FFFFFF" d="M375.828,64.704H338.56V83.38c0,2.24,0.418,6.824,5.007,8.564l-0.075,0.65h-19.608l-0.068-0.65
		c4.582-1.74,5.019-6.324,5.019-8.564V44.856c0-2.24-0.437-6.84-5.019-8.572l0.068-0.649h19.608l0.075,0.649
		c-4.589,1.732-5.007,6.333-5.007,8.572v14.539h37.269V44.856c0-2.24-0.43-6.84-5.011-8.572l0.063-0.649h19.613l0.067,0.649
		c-4.581,1.732-5.007,6.333-5.007,8.572V83.38c0,2.24,0.426,6.824,5.007,8.564l-0.067,0.65h-19.613l-0.063-0.65
		c4.581-1.74,5.011-6.324,5.011-8.564V64.704"/>
	<path fill="#FFFFFF" d="M537.387,87.472V44.923c0-2.8,0.71-6.481,5.653-8.453l-0.104-0.769H522.52l-0.074,0.65
		c4.592,1.74,5.018,6.325,5.018,8.572v38.524c0,2.24-0.426,6.952-5.018,8.685l0.074,0.657h33.76c2.949,0,5.787,0.716,7.931,2.017
		l0.889-0.307c0.566-1.457,3.823-9.805,4.36-11.313l-0.68-0.448c-0.545,0.486-5.213,4.742-12.104,4.742
		C549.782,87.479,537.387,87.472,537.387,87.472"/>
	<path fill="#FFFFFF" d="M736.457,36.739c1.053-0.463,1.621-0.829,1.732,0.545c0.164,2.038,0.896,11.492,0.948,12.373
		c0.068,0.918-0.238,1.008-0.836,0.418c-1.434-1.404-6.272-6.706-13.561-8.745c-5.339-1.494-9.789-1.157-12.955-0.329
		c-3.809,1.001-6.05,2.979-7.378,4.898c-2.069,2.995-1.605,6.84,0.529,9.103c2.353,2.494,7.079,3.315,11.627,4.024
		c4.278,0.672,12.434,1.785,16.495,3.286c3.479,1.285,6.646,3.913,8.588,6.788c2.673,3.986,2.554,11.006-0.456,15.203
		c-3.3,4.623-7.438,7.184-12.231,8.512c-6.765,1.875-14.023,1.473-20.661-0.417c-5.84-1.665-10.626-2.868-14.346-0.725
		c-0.762,0.433-0.971,0.329-1.037-0.679c-0.075-1.099-0.747-11.844-0.777-13.822l0.672-0.232c2.047,2.346,8.438,7.027,15.488,9.395
		c5.973,2.002,11.147,2.65,17.988,0.746c3.181-0.881,5.638-3.449,6.444-4.904c1.232-2.211,1.21-5.855-0.522-7.894
		c-1.166-1.353-2.793-3.436-16.219-5.392c-14.017-2.023-17.899-5.534-20.588-9.7c-3.278-5.107-2.785-10.947-0.351-15.159
		c2.591-4.495,6.474-6.653,9.842-8.02c4.42-1.777,11.141-2.405,18.399-1.098C730.506,36.216,733.246,38.18,736.457,36.739"/>
	<path fill="#FFFFFF" d="M795.038,41.601h-14.501c-3.002,0-4.779-0.045-8.289,1.822c-0.896,0.485-0.986-0.119-0.545-0.687
		c1.695-2.217,5.257-6.847,7.004-9.199l0.94-0.083c0.792,0.672,3.047,2.166,6.393,2.166h34.2c3.002,0,6.697-0.358,10.268-1.583
		l0.47,0.62c-1.44,2.017-5.055,6.945-6.436,8.767l-1.061,0.09c-0.65-0.411-1.942-1.912-6.407-1.912h-12.307v41.922
		c0,2.24,0.426,6.832,5.004,8.572l-0.067,0.656h-19.609l-0.075-0.656c4.594-1.74,5.019-6.332,5.019-8.572V41.601"/>
	<path fill="#FFFFFF" d="M875.26,45.013c0-2.248,0.426-6.833,5.01-8.565l-0.067-0.65h-19.608l-0.067,0.65
		c4.577,1.732,5.003,6.317,5.003,8.565v38.523c0,2.233-0.426,6.826-5.003,8.565l0.067,0.657h19.608l0.067-0.657
		c-4.584-1.739-5.01-6.332-5.01-8.565V45.013"/>
	<path fill="#FFFFFF" d="M965.516,39.801c-0.126-0.836-0.328-0.918-1.112-1.367c-1.337-0.754-6.361-2.457-9.162-2.994
		c-6.496-1.247-13.613-1.412-20.415,0.583c-6.385,1.867-12.874,4.645-19.207,14.039c-4.741,7.019-5.801,18.959-0.365,27.561
		c5.257,8.326,12.538,12.307,18.915,14.494c6.205,2.121,15.396,2.405,23.021,0.501c3.181-0.807,6.959-2.211,8.191-2.875
		c0.821-0.44,0.948-0.44,1.12-1.412c0.32-1.642,1.396-7.519,1.785-9.707c0.148-0.851-0.269-1.001-0.866-0.388
		c-2.674,2.732-6.989,5.57-11.365,7.34c-5.616,2.27-13.09,3.338-20.103-0.231c-7.341-3.733-9.895-8.774-11.253-11.216
		c-2.308-4.107-4.1-13.934,1.209-22.566c3.473-5.653,7.699-7.818,11.321-9.409c4.764-2.098,11.679-2.486,17.204-0.313
		c3.479,1.374,8.252,4.085,11.052,7.497c0.396,0.493,1.03,0.485,0.941-0.433C966.3,47.597,965.516,39.801,965.516,39.801"/>
	<path fill="#FFFFFF" d="M456.396,93.827h-0.725c-3.252,0-15.203-0.255-23.996-7.855c-8.464-7.312-10.405-15.697-10.405-21.447
		v-0.418c0-5.772,1.941-14.151,10.405-21.476c8.793-7.602,20.744-7.848,23.996-7.848h0.725c3.245,0,15.196,0.247,23.989,7.848
		c8.464,7.325,10.413,15.704,10.413,21.476v0.418c0,5.75-1.949,14.135-10.413,21.447C471.593,93.572,459.642,93.827,456.396,93.827
		 M456.359,87.763c4.779,0,11.667-1.911,16.532-7.146c4.861-5.233,6.475-11.461,6.475-16.091v-0.418
		c0-4.645-1.613-10.88-6.475-16.115c-4.865-5.234-11.753-7.146-16.532-7.146h-0.649c-4.787,0-11.668,1.912-16.533,7.146
		c-4.861,5.235-6.481,11.47-6.481,16.115v0.418c0,4.63,1.62,10.858,6.481,16.091c4.865,5.235,11.746,7.146,16.533,7.146H456.359"/>
	<path fill="#FFFFFF" d="M621.118,35.642h9.961c0,0,26.808,47.693,28.346,50.427c1.538,2.741,3.786,5.003,5.996,5.772l-0.074,0.895
		h-17.303c-0.694,0-0.582-0.604-0.104-0.851c0.485-0.238,2.912-1.517,1.12-4.823c-1.143-2.068-5.354-9.708-5.354-9.708h-35.409
		c0,0-4.541,8.05-5.437,9.798c-0.59,1.143-0.836,3.561,0.933,4.689l-0.037,0.873h-12.724c-0.567,0-0.971-0.537-0.061-0.934
		c1.068-0.455,3.301-1.471,6.295-6.705c3.011-5.234,23.44-41.862,24.254-43.691c0.799-1.807,1.218-3.606-0.597-5.271L621.118,35.642
		 M626.367,44.789L611.209,71.97h29.72L626.367,44.789"/>
	<path fill="#ED1B2E" d="M640.929,71.978h-29.72l15.158-27.181L640.929,71.978 M456.367,87.763h-0.657
		c-4.779,0-11.668-1.911-16.533-7.139c-4.854-5.241-6.474-11.469-6.474-16.099v-0.418c0-4.645,1.62-10.88,6.474-16.115
		c4.865-5.234,11.754-7.146,16.533-7.146h0.657c4.771,0,11.659,1.912,16.524,7.146c4.869,5.235,6.485,11.47,6.485,16.115v0.418
		c0,4.63-1.616,10.858-6.485,16.099C468.026,85.852,461.139,87.763,456.367,87.763 M338.56,64.711h37.276V83.38
		c0,2.24-0.438,6.832-5.019,8.564l0.071,0.658h19.613l0.066-0.658c-4.581-1.732-5.014-6.324-5.014-8.564V44.856
		c0-2.24,0.433-6.832,5.014-8.565l-0.066-0.657h-19.613l-0.071,0.657c4.581,1.733,5.019,6.325,5.019,8.565v14.546H338.56V44.856
		c0-2.24,0.425-6.832,5.007-8.565l-0.061-0.657H323.89l-0.075,0.657c4.582,1.733,5.019,6.325,5.019,8.565V83.38
		c0,2.24-0.437,6.832-5.019,8.564l0.075,0.658h19.616l0.061-0.658c-4.582-1.732-5.007-6.324-5.007-8.564V64.711 M608.297,77.362
		h35.409c0,0,4.212,7.638,5.354,9.714c1.799,3.302-0.635,4.57-1.12,4.823c-0.485,0.24-0.591,0.845,0.104,0.845h17.303l0.074-0.89
		c-2.21-0.783-4.458-3.039-5.996-5.779c-1.538-2.732-28.338-50.426-28.338-50.426h-9.969l-0.194,0.463
		c1.814,1.68,1.396,3.479,0.597,5.271c-0.813,1.83-21.243,38.464-24.246,43.698c-3.002,5.242-5.234,6.251-6.303,6.706
		c-0.91,0.396-0.507,0.934,0.061,0.934h12.724l0.037-0.867c-1.769-1.143-1.522-3.554-0.925-4.695
		C603.756,85.419,608.297,77.362,608.297,77.362 M780.118,41.608h14.928v41.921c0,2.24-0.44,6.833-5.026,8.565l0.083,0.656h19.609
		l0.066-0.656c-4.577-1.732-5.011-6.325-5.011-8.565V41.608h12.313c4.458,0,5.75,1.501,6.407,1.912l1.061-0.089
		c1.374-1.822,4.988-6.75,6.429-8.759l-0.463-0.627c-3.577,1.225-7.265,1.583-10.274,1.583h-34.192c-3.354,0-5.601-1.494-6.4-2.166
		l-0.933,0.082c-1.747,2.353-5.31,6.982-7.012,9.208c-0.313,0.418-0.352,0.859,0.015,0.859c0.128,0,0.299-0.052,0.53-0.179
		C775.586,41.646,777.37,41.608,780.118,41.608 M860.594,35.806l-0.067,0.649c4.577,1.732,5.003,6.325,5.003,8.565v38.516
		c0,2.24-0.426,6.842-5.003,8.572l0.067,0.65h19.608l0.067-0.65c-4.584-1.73-5.01-6.332-5.01-8.572V45.021
		c0-2.24,0.426-6.833,5.01-8.565l-0.067-0.649H860.594 M455.672,34.791c-3.244,0-15.195,0.239-23.988,7.848
		c-8.464,7.318-10.405,15.696-10.405,21.469v0.418c0,5.75,1.941,14.135,10.405,21.447c8.793,7.601,20.744,7.855,23.988,7.855h0.732
		c3.237,0,15.195-0.255,23.981-7.855c8.472-7.312,10.413-15.697,10.413-21.447v-0.418c0-5.772-1.941-14.151-10.413-21.469
		c-8.786-7.609-20.744-7.848-23.981-7.848H455.672 M269.371,34.514c-3.655,0-7.378,0.456-10.995,1.516
		c-6.385,1.875-12.862,4.645-19.206,14.039c-4.742,7.02-5.791,18.959-0.362,27.562c5.253,8.326,12.533,12.314,18.918,14.486
		c3.405,1.173,7.71,1.777,12.149,1.777c3.663,0,7.426-0.403,10.869-1.276c3.181-0.792,6.963-2.203,8.18-2.86
		c0.833-0.455,0.956-0.455,1.139-1.411c0.314-1.644,1.386-7.52,1.781-9.723c0.094-0.507-0.022-0.754-0.25-0.754
		c-0.153,0-0.377,0.12-0.62,0.366c-2.677,2.74-6.989,5.585-11.372,7.355c-3.002,1.209-6.545,2.076-10.268,2.076
		c-3.219,0-6.567-0.658-9.827-2.308c-7.333-3.749-9.887-8.774-11.261-11.216c-2.312-4.123-4.092-13.942,1.213-22.582
		c3.473-5.646,7.695-7.811,11.325-9.409c2.58-1.127,5.775-1.762,9.054-1.762c2.785,0,5.604,0.456,8.144,1.449
		c3.486,1.374,8.258,4.1,11.059,7.504c0.16,0.202,0.373,0.321,0.557,0.321c0.246,0,0.437-0.231,0.384-0.754
		c-0.131-1.307-0.91-9.102-0.91-9.102c-0.124-0.829-0.322-0.926-1.117-1.367c-1.34-0.747-6.361-2.457-9.154-2.995
		C275.756,34.873,272.589,34.514,269.371,34.514 M945.81,34.514c-3.651,0-7.369,0.456-10.991,1.516
		c-6.377,1.875-12.866,4.645-19.214,14.039c-4.733,7.02-5.786,18.959-0.358,27.562c5.257,8.326,12.546,12.314,18.923,14.486
		c3.397,1.173,7.705,1.777,12.148,1.777c3.659,0,7.423-0.403,10.865-1.276c3.181-0.792,6.967-2.203,8.191-2.86
		c0.822-0.455,0.948-0.455,1.128-1.411c0.313-1.644,1.389-7.52,1.785-9.723c0.09-0.507-0.022-0.754-0.254-0.754
		c-0.15,0-0.366,0.12-0.62,0.366c-2.674,2.74-6.989,5.585-11.365,7.355c-3.002,1.209-6.541,2.076-10.261,2.076
		c-3.226,0-6.578-0.658-9.834-2.308c-7.348-3.749-9.895-8.774-11.261-11.216c-2.307-4.123-4.092-13.942,1.217-22.582
		c3.466-5.646,7.692-7.811,11.313-9.409c2.576-1.127,5.787-1.762,9.058-1.762c2.778,0,5.608,0.456,8.147,1.449
		c3.486,1.374,8.251,4.1,11.051,7.504c0.173,0.202,0.374,0.321,0.561,0.321c0.246,0,0.433-0.231,0.381-0.754
		c-0.12-1.307-0.911-9.102-0.911-9.102c-0.119-0.829-0.329-0.926-1.113-1.367c-1.336-0.747-6.361-2.457-9.154-2.995
		C952.202,34.873,949.028,34.514,945.81,34.514 M160.117,90.437c2.8,0,6.004,0.859,9.6,1.875c3.678,1.053,7.538,1.643,11.406,1.643
		c3.121,0,6.242-0.382,9.259-1.225c4.779-1.33,8.924-3.876,12.235-8.521c2.998-4.195,3.129-11.215,0.444-15.195
		c-1.927-2.867-5.107-5.503-8.587-6.795c-4.052-1.493-12.213-2.606-16.484-3.278c-4.544-0.702-9.285-1.538-11.63-4.018
		c-2.136-2.27-2.596-6.115-0.53-9.103c1.317-1.919,3.572-3.905,7.374-4.898c1.579-0.418,3.482-0.717,5.663-0.717
		s4.626,0.299,7.304,1.045c7.28,2.031,12.127,7.34,13.549,8.744c0.247,0.247,0.452,0.374,0.59,0.374
		c0.198,0,0.292-0.261,0.258-0.799c-0.06-0.874-0.795-10.334-0.955-12.373c-0.061-0.717-0.243-0.956-0.557-0.956
		c-0.284,0-0.673,0.201-1.169,0.41c-0.807,0.358-1.575,0.508-2.386,0.508c-2.472,0-5.361-1.344-10.79-2.33
		c-2.647-0.47-5.224-0.694-7.654-0.694c-4.208,0-7.938,0.665-10.745,1.8c-3.364,1.359-7.247,3.532-9.846,8.02
		c-2.427,4.197-2.916,10.051,0.366,15.159c2.677,4.167,6.56,7.669,20.583,9.692c13.419,1.949,15.051,4.047,16.212,5.406
		c1.735,2.023,1.758,5.668,0.519,7.893c-0.81,1.449-3.255,4.002-6.43,4.898c-2.83,0.785-5.376,1.143-7.807,1.143
		c-3.457,0-6.683-0.717-10.192-1.896c-7.053-2.367-13.453-7.033-15.483-9.393l-0.676,0.238c0.041,1.971,0.705,12.724,0.772,13.807
		c0.045,0.665,0.146,0.934,0.414,0.934c0.153,0,0.358-0.09,0.635-0.24C156.802,90.766,158.385,90.437,160.117,90.437
		 M698.718,90.526c2.777,0,5.981,0.858,9.588,1.881c3.667,1.046,7.534,1.637,11.41,1.637c3.113,0,6.228-0.39,9.244-1.227
		c4.794-1.32,8.932-3.882,12.239-8.504c3.002-4.196,3.121-11.225,0.448-15.211c-1.942-2.867-5.108-5.496-8.588-6.788
		c-4.062-1.5-12.217-2.606-16.495-3.286c-4.532-0.694-9.274-1.523-11.627-4.017c-2.135-2.263-2.599-6.108-0.529-9.103
		c1.328-1.919,3.569-3.905,7.378-4.899c1.582-0.41,3.486-0.702,5.675-0.702c2.165,0,4.622,0.292,7.287,1.031
		c7.281,2.031,12.12,7.333,13.554,8.744c0.254,0.247,0.44,0.381,0.582,0.381c0.209,0,0.291-0.261,0.254-0.807
		c-0.052-0.866-0.776-10.32-0.94-12.366c-0.067-0.725-0.247-0.963-0.56-0.963c-0.284,0-0.673,0.194-1.181,0.418
		c-0.792,0.366-1.568,0.508-2.382,0.508c-2.464,0-5.361-1.352-10.782-2.322c-2.645-0.485-5.235-0.702-7.646-0.702
		c-4.212,0-7.945,0.665-10.753,1.792c-3.368,1.359-7.251,3.532-9.842,8.02c-2.435,4.204-2.921,10.051,0.358,15.158
		c2.681,4.167,6.563,7.669,20.587,9.693c13.419,1.956,15.046,4.047,16.212,5.406c1.732,2.031,1.755,5.668,0.522,7.893
		c-0.807,1.457-3.264,4.018-6.444,4.906c-2.823,0.784-5.361,1.135-7.788,1.135c-3.465,0-6.69-0.717-10.193-1.889
		c-7.049-2.36-13.448-7.057-15.495-9.395l-0.672,0.232c0.03,1.979,0.702,12.724,0.777,13.814c0.045,0.656,0.148,0.934,0.418,0.934
		c0.142,0,0.351-0.09,0.619-0.246C695.388,90.854,696.963,90.526,698.718,90.526 M522.52,35.701l-0.074,0.657
		c4.584,1.732,5.01,6.325,5.01,8.565v38.524c0,2.24-0.426,6.952-5.01,8.685l0.074,0.657h33.752c2.957,0,5.788,0.724,7.945,2.022
		l0.882-0.313c0.566-1.457,3.815-9.805,4.36-11.313l-0.68-0.448c-0.545,0.486-5.227,4.742-12.112,4.742
		c-6.885,0-19.28-0.008-19.28-0.008V44.923c0-2.8,0.71-6.481,5.653-8.445l-0.104-0.777H522.52 M112.588,34.036
		c-0.235,0-0.526,0.075-0.896,0.164c-1.19,0.306-0.854,0.313-6.429,1.322c-2.67,0.485-6.317,0.097-10.581,1.419
		c-4.145,1.277-7.367,3.569-10.988,6.907c-1.355,1.247-4.354,3.644-4.544,7.295l-0.205,42.369c0,1.173,0.336,1.8,0.855,1.8
		c0.377,0,0.836-0.313,1.325-0.993c1.467-2.008,3.394-3.674,5.642-4.764c7.915-3.861,18.794-4.66,20.173-4.771
		c1.389-0.098,8.516-0.709,9.494-1.009c2.4-0.739,3.043-0.038,2.584-4.974l-5.541-43.078
		C113.339,34.402,113.106,34.036,112.588,34.036 M42.433,35.134c-1.284,0-1.057,0.941-1.277,2.419l-6.134,44.192
		c-0.198,2.426,0.788,2.539,1.475,2.837c0.706,0.313,5.959,0.694,11.885,0.718c6.149,0.014,6.769-0.128,12.754,1.717
		c5.933,1.821,11.876,8.013,13.258,9.229c0.53,0.464,0.997,0.748,1.341,0.748c0.336,0,0.541-0.284,0.541-0.949l0.598-44.9
		c0-2.837-4.458-6.892-8.121-10.141c-3.655-3.241-8.893-4.563-11.47-4.764c-1.575-0.127-9.995,0-13.161-0.822
		C43.374,35.231,42.828,35.134,42.433,35.134 M996.281,124.495H3.727V3.824h992.555V124.495"/>
	<path fill="#FFFFFF" d="M3.727,3.816v120.664h992.555V3.816H3.727 M1000,128.304H0V0h1000V128.304"/>
	<path fill="#FFFFFF" d="M75.733,96.993c-0.336,0-0.803-0.284-1.341-0.754c-1.374-1.219-7.318-7.401-13.258-9.23
		c-5.978-1.844-6.612-1.703-12.754-1.717c-5.926-0.016-11.179-0.396-11.877-0.71c-0.687-0.298-1.681-0.411-1.482-2.837l6.134-44.199
		c0.229-1.479-0.007-2.412,1.285-2.412c0.388,0,0.94,0.097,1.68,0.284c3.174,0.814,11.586,0.687,13.161,0.814
		c2.569,0.194,7.822,1.523,11.478,4.764c3.663,3.248,8.113,7.311,8.113,10.148l-0.59,44.9
		C76.282,96.709,76.077,96.993,75.733,96.993"/>
	<path fill="#FFFFFF" d="M79.8,95.313c-0.513,0-0.855-0.635-0.855-1.808l0.205-42.361c0.19-3.659,3.188-6.056,4.544-7.31
		c3.614-3.323,6.852-5.616,10.98-6.893c4.271-1.322,7.919-0.949,10.589-1.419c5.574-1.016,5.245-1.03,6.429-1.314
		c0.37-0.104,0.669-0.179,0.896-0.179c0.519,0,0.751,0.366,0.896,1.695l5.533,43.071c0.459,4.929-0.176,4.241-2.576,4.966
		c-0.986,0.314-8.113,0.918-9.495,1.023c-1.386,0.104-12.272,0.91-20.18,4.764c-2.248,1.098-4.175,2.764-5.635,4.764
		C80.632,94.983,80.177,95.313,79.8,95.313"/>
	<path fill="#FFFFFF" d="M181.123,93.946c-3.868,0-7.736-0.598-11.399-1.635c-3.603-1.024-6.799-1.883-9.599-1.883
		c-1.74,0-3.315,0.328-4.753,1.15c-0.276,0.156-0.475,0.238-0.628,0.238c-0.269,0-0.377-0.261-0.414-0.926
		c-0.067-1.082-0.743-11.843-0.772-13.799l0.672-0.246c2.042,2.352,8.441,7.026,15.494,9.4c3.503,1.173,6.729,1.89,10.186,1.89
		c2.431,0,4.97-0.351,7.8-1.149c3.182-0.889,5.627-3.443,6.444-4.9c1.239-2.217,1.217-5.861-0.526-7.892
		c-1.165-1.353-2.793-3.45-16.204-5.399c-14.023-2.023-17.914-5.533-20.584-9.692c-3.297-5.108-2.8-10.962-0.373-15.159
		c2.599-4.496,6.481-6.653,9.846-8.02c2.808-1.143,6.545-1.8,10.753-1.8c2.415,0,4.991,0.224,7.646,0.694
		c5.429,0.986,8.312,2.338,10.778,2.338c0.822,0,1.584-0.15,2.387-0.508c0.507-0.231,0.903-0.425,1.18-0.425
		c0.313,0,0.496,0.246,0.549,0.971c0.168,2.031,0.903,11.5,0.963,12.366c0.022,0.538-0.06,0.792-0.258,0.792
		c-0.146,0-0.336-0.12-0.582-0.366c-1.438-1.404-6.284-6.706-13.557-8.744c-2.67-0.747-5.123-1.038-7.296-1.038
		c-2.188,0-4.092,0.291-5.671,0.709c-3.809,0.993-6.049,2.979-7.382,4.898c-2.064,2.987-1.605,6.833,0.53,9.103
		c2.353,2.479,7.087,3.323,11.63,4.018c4.29,0.672,12.434,1.785,16.484,3.278c3.495,1.292,6.66,3.92,8.603,6.803
		c2.669,3.973,2.546,11-0.46,15.188c-3.304,4.637-7.448,7.198-12.228,8.521C187.361,93.558,184.244,93.946,181.123,93.946"/>
	<path fill="#FFFFFF" d="M269.875,93.894c-4.446,0-8.755-0.612-12.149-1.777c-6.385-2.18-13.665-6.168-18.926-14.494
		c-5.429-8.602-4.38-20.542,0.37-27.554c6.344-9.394,12.813-12.179,19.198-14.039c3.625-1.068,7.34-1.523,11.003-1.523
		c3.211,0,6.385,0.351,9.428,0.934c2.793,0.545,7.814,2.24,9.154,2.994c0.795,0.448,0.993,0.538,1.117,1.367
		c0,0,0.772,7.796,0.91,9.103c0.053,0.53-0.146,0.754-0.392,0.754c-0.183,0-0.389-0.112-0.549-0.321
		c-2.801-3.412-7.579-6.123-11.059-7.497c-2.539-1-5.365-1.449-8.151-1.449c-3.271,0-6.471,0.627-9.046,1.762
		c-3.63,1.598-7.853,3.756-11.332,9.409c-5.306,8.632-3.524,18.458-1.214,22.574c1.382,2.434,3.936,7.475,11.269,11.208
		c3.26,1.657,6.608,2.315,9.827,2.315c3.715,0,7.266-0.867,10.268-2.084c4.383-1.77,8.695-4.607,11.372-7.34
		c0.243-0.254,0.452-0.374,0.62-0.374c0.228,0,0.336,0.255,0.25,0.762c-0.403,2.188-1.475,8.072-1.781,9.707
		c-0.19,0.972-0.306,0.972-1.139,1.427c-1.217,0.649-4.999,2.054-8.188,2.86C277.301,93.483,273.538,93.894,269.875,93.894"/>
	<path fill="#FFFFFF" d="M390.502,92.603h-19.613l-0.071-0.658c4.581-1.74,5.015-6.332,5.015-8.564V64.711h-37.276V83.38
		c0,2.232,0.429,6.824,5.018,8.564l-0.074,0.658H323.89l-0.075-0.658c4.582-1.74,5.026-6.332,5.026-8.564V44.856
		c0-2.24-0.444-6.84-5.026-8.572l0.075-0.649h19.609l0.074,0.649c-4.589,1.732-5.018,6.333-5.018,8.572v14.546h37.276V44.856
		c0-2.24-0.434-6.84-5.015-8.572l0.071-0.649h19.613l0.066,0.649c-4.581,1.732-5.014,6.333-5.014,8.572V83.38
		c0,2.232,0.433,6.824,5.014,8.564L390.502,92.603"/>
	<path fill="#FFFFFF" d="M564.21,94.806c-2.15-1.301-4.981-2.024-7.938-2.024h-33.759l-0.075-0.649
		c4.592-1.732,5.025-6.444,5.025-8.692V44.916c0-2.24-0.434-6.825-5.025-8.565l0.075-0.657h20.431l0.09,0.776
		c-4.937,1.972-5.654,5.646-5.654,8.446v42.556c0,0,12.403,0.008,19.296,0.008c6.892,0,11.553-4.264,12.104-4.742l0.673,0.441
		c-0.538,1.508-3.794,9.856-4.354,11.313L564.21,94.806"/>
	<path fill="#FFFFFF" d="M719.716,94.044c-3.876,0-7.751-0.598-11.417-1.637c-3.6-1.022-6.796-1.881-9.581-1.881
		c-1.755,0-3.33,0.336-4.765,1.158c-0.269,0.148-0.478,0.238-0.619,0.238c-0.27,0-0.373-0.27-0.418-0.926
		c-0.075-1.091-0.747-11.836-0.777-13.814l0.672-0.232c2.047,2.346,8.438,7.027,15.488,9.395c3.51,1.18,6.735,1.889,10.2,1.889
		c2.419,0,4.965-0.351,7.788-1.135c3.188-0.889,5.638-3.449,6.444-4.914c1.232-2.217,1.21-5.854-0.522-7.893
		c-1.166-1.352-2.793-3.442-16.212-5.398c-14.023-2.023-17.906-5.534-20.587-9.693c-3.279-5.107-2.786-10.955-0.358-15.158
		c2.591-4.496,6.48-6.646,9.842-8.02c2.808-1.135,6.549-1.792,10.753-1.792c2.411,0,4.988,0.216,7.646,0.694
		c5.429,0.978,8.318,2.33,10.789,2.33c0.807,0,1.576-0.142,2.375-0.5c0.508-0.224,0.896-0.433,1.181-0.433
		c0.313,0,0.492,0.246,0.552,0.971c0.164,2.046,0.896,11.5,0.956,12.366c0.029,0.545-0.06,0.799-0.254,0.799
		c-0.149,0-0.336-0.127-0.59-0.374c-1.434-1.403-6.265-6.706-13.561-8.744c-2.658-0.739-5.115-1.031-7.28-1.031
		c-2.188,0-4.093,0.292-5.675,0.702c-3.809,0.994-6.05,2.987-7.378,4.899c-2.069,2.994-1.598,6.84,0.529,9.103
		c2.353,2.494,7.095,3.323,11.627,4.025c4.286,0.672,12.434,1.785,16.495,3.278c3.479,1.292,6.646,3.929,8.588,6.796
		c2.673,3.988,2.554,11.007-0.456,15.203c-3.3,4.622-7.438,7.184-12.224,8.52C725.943,93.663,722.829,94.044,719.716,94.044"/>
	<path fill="#FFFFFF" d="M809.712,92.751h-19.609l-0.083-0.656c4.586-1.732,5.026-6.325,5.026-8.565V41.601h-14.928
		c-2.748,0-4.532,0.045-7.878,1.83c-0.224,0.127-0.395,0.171-0.522,0.171c-0.366,0-0.328-0.44-0.015-0.858
		c1.702-2.218,5.265-6.848,7.012-9.207l0.933-0.075c0.8,0.672,3.047,2.158,6.4,2.158h34.2c3.002,0,6.689-0.358,10.267-1.576
		l0.463,0.62c-1.433,2.016-5.055,6.937-6.429,8.767l-1.061,0.082c-0.657-0.411-1.949-1.912-6.407-1.912h-12.313v41.929
		c0,2.24,0.434,6.833,5.011,8.565L809.712,92.751"/>
	<path fill="#FFFFFF" d="M880.195,92.751h-19.609l-0.067-0.656c4.578-1.727,5.011-6.332,5.011-8.565V45.006
		c0-2.241-0.433-6.833-5.011-8.558l0.067-0.665h19.609l0.074,0.665c-4.577,1.725-5.018,6.317-5.018,8.558v38.523
		c0,2.233,0.44,6.839,5.018,8.565L880.195,92.751"/>
	<path fill="#FFFFFF" d="M946.317,93.894c-4.45,0-8.758-0.612-12.148-1.777c-6.385-2.18-13.666-6.168-18.93-14.494
		c-5.429-8.602-4.376-20.542,0.365-27.554c6.341-9.394,12.829-12.179,19.206-14.039c3.63-1.068,7.341-1.523,10.999-1.523
		c3.211,0,6.385,0.351,9.424,0.934c2.801,0.545,7.819,2.24,9.162,2.994c0.784,0.448,0.994,0.538,1.113,1.367
		c0,0,0.784,7.796,0.911,9.103c0.052,0.53-0.142,0.754-0.389,0.754c-0.187,0-0.396-0.112-0.553-0.321
		c-2.8-3.412-7.578-6.123-11.059-7.497c-2.539-1-5.369-1.449-8.146-1.449c-3.278,0-6.475,0.627-9.051,1.762
		c-3.629,1.598-7.848,3.756-11.32,9.409c-5.31,8.632-3.524,18.458-1.218,22.582c1.374,2.426,3.921,7.467,11.269,11.2
		c3.256,1.657,6.608,2.315,9.827,2.315c3.711,0,7.266-0.867,10.268-2.084c4.376-1.77,8.691-4.607,11.365-7.34
		c0.246-0.254,0.448-0.374,0.62-0.374c0.231,0,0.336,0.255,0.254,0.762c-0.404,2.188-1.479,8.072-1.785,9.707
		c-0.188,0.972-0.306,0.972-1.135,1.427c-1.218,0.649-5.004,2.054-8.192,2.86C953.74,93.483,949.977,93.894,946.317,93.894"/>
	<path fill="#FFFFFF" d="M455.71,40.839c-4.787,0-11.668,1.912-16.533,7.153c-4.861,5.235-6.481,11.47-6.481,16.115v0.411
		c0,4.63,1.62,10.865,6.481,16.093c4.865,5.241,11.746,7.152,16.533,7.152h0.649c4.779,0,11.667-1.911,16.532-7.152
		c4.861-5.228,6.481-11.463,6.481-16.093v-0.411c0-4.645-1.62-10.88-6.481-16.115c-4.865-5.242-11.753-7.153-16.532-7.153H455.71
		 M456.396,93.827h-0.725c-3.244,0-15.195-0.255-23.996-7.855c-8.456-7.318-10.405-15.697-10.405-21.454v-0.411
		c0-5.78,1.949-14.158,10.405-21.476c8.801-7.602,20.752-7.855,23.996-7.855h0.725c3.237,0,15.196,0.254,23.996,7.855
		c8.457,7.318,10.406,15.696,10.406,21.476v0.411c0,5.757-1.949,14.136-10.406,21.454C471.593,93.572,459.634,93.827,456.396,93.827
		"/>
	<path fill="#FFFFFF" d="M626.359,44.796l-15.158,27.181h29.72L626.359,44.796 M665.339,92.744h-17.302
		c-0.688,0-0.582-0.604-0.104-0.845c0.493-0.253,2.912-1.521,1.12-4.823c-1.143-2.076-5.354-9.714-5.354-9.714h-35.409
		c0,0-4.54,8.057-5.429,9.803c-0.598,1.136-0.844,3.547,0.926,4.689l-0.037,0.867h-12.725c-0.56,0-0.971-0.53-0.053-0.934
		c1.061-0.455,3.301-1.464,6.295-6.706c3.003-5.234,23.44-41.869,24.247-43.698c0.799-1.792,1.225-3.592-0.59-5.265l0.187-0.47
		h9.969c0,0,26.8,47.694,28.339,50.426c1.537,2.74,3.785,4.996,6.003,5.779L665.339,92.744"/>
</g>
</svg>
