<?xml version="1.0" encoding="UTF-8" standalone="no"?>
<svg
   xmlns:dc="http://purl.org/dc/elements/1.1/"
   xmlns:cc="http://creativecommons.org/ns#"
   xmlns:rdf="http://www.w3.org/1999/02/22-rdf-syntax-ns#"
   xmlns:svg="http://www.w3.org/2000/svg"
   xmlns="http://www.w3.org/2000/svg"
   xmlns:sodipodi="http://sodipodi.sourceforge.net/DTD/sodipodi-0.dtd"
   xmlns:inkscape="http://www.inkscape.org/namespaces/inkscape"
   id="sh-logo"
   viewBox="0 0 1000.0615 511.92569"
   version="1.1"
   inkscape:version="0.48.5 r10040"
   width="100%"
   height="100%"
   sodipodi:docname="A.svg">
  <metadata
     id="metadata11">
    <rdf:RDF>
      <cc:Work
         rdf:about="">
        <dc:format>image/svg+xml</dc:format>
        <dc:type
           rdf:resource="http://purl.org/dc/dcmitype/StillImage" />
        <dc:title></dc:title>
      </cc:Work>
    </rdf:RDF>
  </metadata>
  <defs
     id="defs9" />
  <sodipodi:namedview
     pagecolor="#ffffff"
     bordercolor="#666666"
     borderopacity="1"
     objecttolerance="10"
     gridtolerance="10"
     guidetolerance="10"
     inkscape:pageopacity="0"
     inkscape:pageshadow="2"
     inkscape:window-width="1050"
     inkscape:window-height="1027"
     id="namedview7"
     showgrid="false"
     fit-margin-left="0.5"
     fit-margin-bottom="0.5"
     fit-margin-top="0.5"
     fit-margin-right="0.5"
     inkscape:zoom="1.1915345"
     inkscape:cx="326.31223"
     inkscape:cy="147.64728"
     inkscape:window-x="863"
     inkscape:window-y="-7"
     inkscape:window-maximized="0"
     inkscape:current-layer="sh-logo" />
  <style
     id="style3">.back{fill:#FFF}</style>
  <g
     id="g3073"
     transform="matrix(5.0856455,0,0,-5.0856455,965.38394,13.191356)">
    <path
       inkscape:connector-curvature="0"
       d="m 0,0 c -20.397,8.654 -183.347,-11.635 -188.438,-24.95 -5.089,-13.314 13.44,-50.489 13.44,-50.489 l -9.379,-21.3 26.115,19.03 c 0,0 133.892,-12.645 142.699,-7.77 C -6.752,-80.6 17.758,-7.537 0,0"
       style="fill:#f0efef;fill-opacity:1;fill-rule:nonzero;stroke:none"
       id="path3075" />
  </g>
  <g
     id="g3077"
     transform="matrix(5.0856455,0,0,-5.0856455,965.38394,13.191356)">
    <path
       inkscape:connector-curvature="0"
       d="m 0,0 c -20.397,8.654 -183.347,-11.635 -188.438,-24.95 -5.089,-13.314 13.44,-50.489 13.44,-50.489 l -9.379,-21.3 26.115,19.03 c 0,0 133.892,-12.645 142.699,-7.77 C -6.752,-80.6 17.758,-7.537 0,0 z"
       style="fill:none;stroke:#c8c7c7;stroke-width:0.81199998;stroke-linecap:butt;stroke-linejoin:miter;stroke-miterlimit:4;stroke-opacity:1;stroke-dasharray:none"
       id="path3079" />
  </g>
  <g
     id="g3081"
     transform="matrix(5.0856455,0,0,-5.0856455,948.78084,34.726016)">
    <path
       inkscape:connector-curvature="0"
       d="m 0,0 c -19.014,7.362 -178.387,-10.281 -183.13,-22.687 -3.765,-12.911 14.192,-48.329 14.192,-48.329 l -7.165,-15.312 20.748,15.559 c 0,0 132.104,-11.691 140.312,-7.151 C -6.833,-73.376 14.917,-5.834 0,0"
       style="fill:#ffffff;fill-opacity:1;fill-rule:nonzero;stroke:none"
       id="path3083" />
  </g>
  <g
     id="g3085"
     transform="matrix(5.0856455,0,0,-5.0856455,906.10414,319.23888)">
    <path
       inkscape:connector-curvature="0"
       d="m 0,0 c 0,-3.306 -2.681,-5.984 -5.986,-5.984 -3.305,0 -5.985,2.678 -5.985,5.984 0,3.304 2.68,5.983 5.985,5.983 C -2.681,5.983 0,3.304 0,0"
       style="fill:#c8c7c7;fill-opacity:1;fill-rule:evenodd;stroke:none"
       id="path3087" />
  </g>
  <g
     id="g3089"
     transform="matrix(5.0856455,0,0,-5.0856455,855.13834,282.60644)">
    <path
       inkscape:connector-curvature="0"
       d="M 0,0 3.098,-0.235 3.131,-0.077 3.187,0.092 3.254,0.27 3.339,0.433 3.438,0.586 3.571,0.723 3.707,0.854 3.852,0.974 4.005,1.068 4.169,1.14 4.329,1.201 4.507,1.241 4.685,1.262 4.877,1.271 5.053,1.262 5.233,1.241 5.406,1.201 5.572,1.14 5.721,1.068 5.876,0.974 6.013,0.854 6.157,0.723 6.271,0.586 6.39,0.433 6.479,0.27 6.566,0.092 6.619,-0.077 6.665,-0.263 6.687,-0.454 6.692,-0.512 9.579,-0.73 13.261,31.749 9.389,32.156 9.323,32.042 9.267,31.918 9.138,31.687 8.979,31.473 8.886,31.37 8.795,31.264 8.597,31.072 8.49,30.986 8.391,30.895 8.326,30.861 8.293,30.847 8.28,30.842 8.272,30.826 8.165,30.747 8.047,30.687 7.941,30.624 7.817,30.577 7.702,30.535 7.453,30.462 7.189,30.426 6.927,30.409 6.648,30.426 6.39,30.462 6.132,30.535 5.89,30.624 5.651,30.747 5.427,30.895 5.21,31.072 5.012,31.264 4.954,31.317 4.916,31.365 4.846,31.465 4.733,31.611 4.641,31.757 4.553,31.91 4.482,32.058 4.414,32.218 4.367,32.381 4.323,32.549 4.301,32.711 1.032,33.11 0.005,0.002"
       style="fill:#c8c7c7;fill-opacity:1;fill-rule:evenodd;stroke:none"
       id="path3091" />
  </g>
  <g
     id="g3093"
     transform="matrix(5.0856455,0,0,-5.0856455,709.03535,193.93008)">
    <path
       inkscape:connector-curvature="0"
       d="m 0,0 0,-30.361 -6.939,0 0.127,2.531 c -3.105,-2.117 -5.921,-3.064 -6.832,-3.064 -1.026,0 -1.884,0.248 -2.566,0.735 -0.686,0.49 -1.194,1.134 -1.53,1.942 -0.329,0.807 -0.533,1.648 -0.606,2.525 -0.081,0.879 -0.116,2.619 -0.116,5.221 l 0,20.471 6.814,0 0,-20.672 c 0,-4.312 1.038,-4.879 2.416,-4.879 1.171,0 2.42,0.503 2.42,5.108 L -6.812,0 0,0 z"
       style="fill:#c8c7c7;fill-opacity:1;fill-rule:nonzero;stroke:none"
       id="path3095" />
  </g>
  <g
     id="g3097"
     transform="matrix(5.0856455,0,0,-5.0856455,760.30424,304.79613)">
    <path
       inkscape:connector-curvature="0"
       d="m 0,0 c 0,-3.375 1.517,-3.871 2.475,-3.871 1.113,0 2.358,0.535 2.358,3.88 l 0,14.128 c 0,2.387 -1.367,2.824 -2.39,2.824 C 1.411,16.961 0,16.403 0,14.137 L 0,0 z m 0,28.446 0,-8.62 c 3.371,2.118 6.077,2.478 6.929,2.478 1.102,0 2.047,-0.367 2.846,-1.115 0.793,-0.737 1.307,-1.597 1.53,-2.576 0.228,-0.98 0.346,-2.634 0.346,-4.969 l 0,-14.238 c 0,-2.247 -0.118,-3.868 -0.346,-4.856 -0.223,-1 -0.734,-1.871 -1.517,-2.63 C 9.005,-8.833 8.077,-9.215 7.01,-9.215 5.559,-9.215 3.254,-8.593 0,-6.474 l 0,-2.207 -6.812,0 0,37.127 6.812,0 z"
       style="fill:#c8c7c7;fill-opacity:1;fill-rule:nonzero;stroke:none"
       id="path3099" />
  </g>
  <g
     id="g3101"
     transform="matrix(5.0856455,0,0,-5.0856455,599.69397,349.14198)">
    <path
       inkscape:connector-curvature="0"
       d="m 0,0 -0.025,37.113 -7.14,0 0,-15.611 -0.008,0 -7.571,0 -0.007,0 0,15.611 -7.146,0 L -21.921,0 l 7.17,-0.013 0,15.186 3.792,0 3.794,0 0,-15.186 L 0,0 z"
       style="fill:#c8c7c7;fill-opacity:1;fill-rule:nonzero;stroke:none"
       id="path3103" />
  </g>
  <g
     id="g3105"
     transform="matrix(5.0856455,0,0,-5.0856455,355.37447,193.985)">
    <path
       inkscape:connector-curvature="0"
       d="m 0,0 0,-30.359 -6.931,0 0.119,2.526 c -3.094,-2.115 -5.917,-3.062 -6.826,-3.062 -1.029,0 -1.883,0.249 -2.568,0.738 -0.685,0.486 -1.196,1.134 -1.523,1.937 -0.332,0.81 -0.54,1.65 -0.614,2.526 -0.077,0.879 -0.113,2.623 -0.113,5.225 l 0,20.469 6.811,0 0,-20.674 c 0,-4.318 1.032,-4.88 2.416,-4.88 1.174,0 2.417,0.504 2.417,5.107 L -6.812,0 0,0 z"
       style="fill:#c8c7c7;fill-opacity:1;fill-rule:nonzero;stroke:none"
       id="path3107" />
  </g>
  <g
     id="g3109"
     transform="matrix(5.0856455,0,0,-5.0856455,406.80202,304.2601)">
    <path
       inkscape:connector-curvature="0"
       d="m 0,0 c 0,-3.374 1.519,-3.87 2.478,-3.87 1.111,0 2.359,0.533 2.359,3.882 l 0,14.125 c 0,2.387 -1.364,2.825 -2.392,2.825 C 1.41,16.962 0,16.406 0,14.137 L 0,0 z m 0,28.445 0,-8.616 c 3.366,2.119 6.075,2.48 6.932,2.48 1.099,0 2.045,-0.374 2.847,-1.114 0.794,-0.741 1.301,-1.598 1.532,-2.579 0.221,-0.978 0.34,-2.635 0.34,-4.972 l 0,-14.238 c 0,-2.248 -0.119,-3.868 -0.34,-4.861 C 11.08,-6.445 10.577,-7.319 9.785,-8.075 8.999,-8.834 8.074,-9.211 7.018,-9.211 5.563,-9.211 3.249,-8.594 0,-6.465 l 0,-2.211 -6.815,0 0,37.121 6.815,0 z"
       style="fill:#c8c7c7;fill-opacity:1;fill-rule:nonzero;stroke:none"
       id="path3111" />
  </g>
  <g
     id="g3113"
     transform="matrix(5.0856455,0,0,-5.0856455,175.28106,216.28405)">
    <path
       inkscape:connector-curvature="0"
       d="m 0,0 -6.596,0 0,2.734 c 0,2.651 -1.544,2.96 -2.381,2.96 -0.96,0 -2.564,-0.265 -2.564,-2.847 0,-1.23 -0.011,-2.203 0.373,-2.781 1.022,-1.537 3.387,-2.869 4.641,-3.721 3.674,-2.492 5.038,-3.198 5.854,-4.822 0.814,-1.634 1.219,-4.266 1.219,-7.892 0,-2.641 -0.232,-4.587 -0.687,-5.838 -0.454,-1.248 -1.336,-2.297 -2.633,-3.142 -1.298,-0.843 -3.843,-1.275 -5.839,-1.275 -2.292,0 -4.844,0.489 -6.178,1.471 -1.337,0.979 -2.207,2.222 -2.615,3.731 -0.413,1.515 -0.62,3.663 -0.62,6.443 l 0,2.43 6.596,0 0,-4.491 c 0,-2.699 1.476,-3.258 2.508,-3.258 0.91,0 2.657,0.441 2.657,2.989 0,2.174 -0.17,3.618 -0.645,4.268 -0.953,1.299 -3.47,2.78 -5.942,4.366 -1.966,1.265 -3.855,3.036 -4.836,5.438 -0.504,1.238 -0.555,2.886 -0.555,4.849 0,2.833 0.267,4.914 0.798,6.22 0.533,1.318 1.391,2.337 2.586,3.079 1.188,0.743 3.934,1.11 5.624,1.11 1.834,0 4.717,-0.406 6.019,-1.221 C -1.92,9.992 -1.059,8.976 -0.635,7.739 -0.217,6.508 0,4.424 0,1.464 L 0,0 z"
       style="fill:#c8c7c7;fill-opacity:1;fill-rule:nonzero;stroke:none"
       id="path3115" />
  </g>
  <g
     id="g3117"
     transform="matrix(5.0856455,0,0,-5.0856455,235.62835,172.38578)">
    <path
       inkscape:connector-curvature="0"
       d="m 0,0 0,-4.803 2.244,0 0,-4.804 -2.244,0 0,-16.262 c 0,-1.995 0.072,-3.114 0.225,-3.345 0.157,-0.227 0.812,-0.341 1.968,-0.341 l 0,-4.899 -2.765,0 c -1.566,0 -2.685,0.094 -3.352,0.27 -0.671,0.172 -1.257,0.579 -1.765,1.21 -0.507,0.638 -0.82,1.359 -0.943,2.176 -0.126,0.817 -0.183,2.729 -0.183,5.761 l 0,15.43 -1.955,0 0,4.804 1.955,0 0,4.803 L 0,0 z"
       style="fill:#c8c7c7;fill-opacity:1;fill-rule:nonzero;stroke:none"
       id="path3119" />
  </g>
  <g
     id="g3121"
     transform="matrix(5.0856455,0,0,-5.0856455,885.32464,95.554896)">
    <path
       inkscape:connector-curvature="0"
       d="m 0,0 -0.112,-0.261 -0.069,-0.126 -0.04,-0.059 -0.031,-0.07 -0.049,-0.052 -0.035,-0.064 -0.088,-0.121 -0.097,-0.11 -0.032,-0.022 -0.024,-0.031 -0.047,-0.06 -0.197,-0.202 -0.108,-0.086 -0.104,-0.092 -0.216,-0.145 -0.117,-0.064 -0.107,-0.059 -0.125,-0.047 -0.114,-0.047 -0.248,-0.069 -0.261,-0.036 -0.141,-0.011 -0.071,0 -0.062,-0.006 -0.285,0.017 -0.267,0.036 -0.252,0.069 -0.237,0.094 -0.239,0.123 -0.062,0.037 c -0.379,0.213 -0.702,0.52 -0.915,0.89 l -0.114,0.166 -0.07,0.114 -0.057,0.116 -0.015,0.037 -0.076,0.326 -0.055,0.135 -3.958,0.272 -0.1,-35.472 2.371,-0.126 0.19,-0.007 1.103,32.333 3.542,-0.392 0.006,-0.14 0.03,-0.144 0.04,-0.132 0.062,-0.141 0.132,-0.26 0.087,-0.123 0.099,-0.131 0.152,-0.169 0.179,-0.151 0.187,-0.133 0.201,-0.126 0.202,-0.091 0.222,-0.075 0.234,-0.056 0.255,-0.046 0.323,-0.015 0.151,0.008 0.08,0.007 0.088,0 0.199,0.046 0.204,0.056 0.092,0.037 0.046,0.023 0.052,0.015 0.094,0.048 0.048,0.023 0.05,0.013 0.079,0.055 0.086,0.047 0.153,0.116 0.133,0.106 0.124,0.1 0.109,0.108 0.108,0.109 0.092,0.125 0.086,0.122 0.028,0.071 0.041,0.059 0.072,0.124 1.119,-0.155 0.602,3.495 L 0,0 z"
       style="fill:#f57d14;fill-opacity:1;fill-rule:evenodd;stroke:none"
       id="path3123" />
  </g>
  <g
     id="g3125"
     transform="matrix(5.0856455,0,0,-5.0856455,902.21564,315.48412)">
    <path
       inkscape:connector-curvature="0"
       d="m 0,0 c 0,-3.307 -2.677,-5.986 -5.983,-5.986 -3.306,0 -5.987,2.679 -5.987,5.986 0,3.303 2.681,5.982 5.987,5.982 C -2.677,5.982 0,3.303 0,0"
       style="fill:#1265ab;fill-opacity:1;fill-rule:evenodd;stroke:none"
       id="path3127" />
  </g>
  <g
     id="g3129"
     transform="matrix(5.0856455,0,0,-5.0856455,851.24474,278.85173)">
    <path
       inkscape:connector-curvature="0"
       d="M 0,0 3.098,-0.239 3.134,-0.078 3.187,0.091 3.257,0.267 3.343,0.43 3.44,0.585 3.574,0.722 3.707,0.851 3.853,0.97 4.008,1.067 4.172,1.138 4.333,1.197 4.508,1.24 4.687,1.261 4.878,1.271 5.057,1.261 5.235,1.24 5.406,1.197 5.575,1.138 5.723,1.067 5.88,0.97 6.019,0.851 6.157,0.722 6.272,0.585 6.391,0.43 6.48,0.267 6.568,0.091 6.62,-0.078 6.668,-0.263 6.688,-0.458 6.694,-0.513 9.582,-0.732 13.265,31.749 9.389,32.154 9.33,32.04 9.27,31.915 9.141,31.687 8.98,31.471 8.888,31.369 8.8,31.263 8.601,31.069 8.492,30.984 8.392,30.893 8.327,30.859 8.3,30.846 8.28,30.84 8.278,30.825 8.167,30.743 8.049,30.687 7.942,30.622 7.818,30.577 7.703,30.529 7.454,30.461 7.191,30.424 6.931,30.409 6.654,30.424 6.391,30.461 6.132,30.529 5.895,30.622 5.653,30.743 5.43,30.893 5.212,31.069 5.014,31.263 4.956,31.315 4.919,31.362 4.849,31.464 4.736,31.607 4.644,31.756 4.557,31.906 4.485,32.055 4.42,32.216 4.369,32.379 4.328,32.549 4.301,32.71 1.039,33.109 0.007,0"
       style="fill:#1265ab;fill-opacity:1;fill-rule:evenodd;stroke:none"
       id="path3131" />
  </g>
  <g
     id="g3133"
     transform="matrix(5.0856455,0,0,-5.0856455,915.89294,105.85536)">
    <path
       inkscape:connector-curvature="0"
       d="m 0,0 0.151,0 c 0.167,0 0.31,0.062 0.31,0.222 0,0.111 -0.079,0.225 -0.31,0.225 C 0.082,0.447 0.037,0.44 0,0.434 L 0,0 z m 0,-0.71 -0.203,0 0,1.283 c 0.105,0.017 0.211,0.032 0.364,0.032 0.193,0 0.322,-0.043 0.4,-0.097 C 0.636,0.449 0.679,0.363 0.679,0.242 0.679,0.074 0.562,-0.03 0.426,-0.067 l 0,-0.014 C 0.54,-0.103 0.615,-0.206 0.64,-0.396 0.671,-0.593 0.705,-0.672 0.726,-0.71 l -0.217,0 C 0.478,-0.672 0.448,-0.552 0.422,-0.384 0.391,-0.219 0.308,-0.158 0.146,-0.158 L 0,-0.158 0,-0.71 z m 0.218,1.641 c -0.508,0 -0.924,-0.435 -0.924,-0.972 0,-0.548 0.416,-0.979 0.93,-0.979 0.509,-0.002 0.919,0.431 0.919,0.975 0,0.541 -0.41,0.976 -0.919,0.976 l -0.006,0 z m 0.006,0.18 c 0.628,0 1.13,-0.51 1.13,-1.152 0,-0.651 -0.502,-1.155 -1.136,-1.155 -0.631,0 -1.143,0.504 -1.143,1.155 0,0.642 0.512,1.152 1.143,1.152 l 0.006,0 z"
       style="fill:#1265ab;fill-opacity:1;fill-rule:nonzero;stroke:none"
       id="path3135" />
  </g>
  <g
     id="g3137"
     transform="matrix(5.0856455,0,0,-5.0856455,705.16159,190.18553)">
    <path
       inkscape:connector-curvature="0"
       d="m 0,0 0,-30.36 -6.941,0 0.125,2.528 c -3.102,-2.115 -5.918,-3.06 -6.83,-3.06 -1.026,0 -1.885,0.246 -2.565,0.734 -0.688,0.486 -1.191,1.133 -1.531,1.941 -0.327,0.805 -0.531,1.649 -0.607,2.525 -0.079,0.88 -0.115,2.618 -0.115,5.222 l 0,20.47 6.815,0 0,-20.672 c 0,-4.315 1.038,-4.879 2.414,-4.879 1.173,0 2.419,0.5 2.419,5.107 L -6.816,0 0,0 z"
       style="fill:#f57d14;fill-opacity:1;fill-rule:nonzero;stroke:none"
       id="path3139" />
  </g>
  <g
     id="g3141"
     transform="matrix(5.0856455,0,0,-5.0856455,756.43051,301.06176)">
    <path
       inkscape:connector-curvature="0"
       d="m 0,0 c 0,-3.375 1.516,-3.868 2.472,-3.868 1.114,0 2.36,0.532 2.36,3.881 l 0,14.126 c 0,2.39 -1.367,2.825 -2.392,2.825 C 1.408,16.964 0,16.403 0,14.139 L 0,0 z m 0,28.449 0,-8.62 c 3.37,2.115 6.075,2.477 6.926,2.477 1.103,0 2.047,-0.369 2.846,-1.115 0.795,-0.737 1.306,-1.596 1.533,-2.575 0.229,-0.98 0.344,-2.634 0.344,-4.97 l 0,-14.24 c 0,-2.242 -0.115,-3.866 -0.344,-4.853 -0.227,-1 -0.735,-1.871 -1.518,-2.631 C 9.003,-8.83 8.072,-9.214 7.011,-9.214 5.558,-9.214 3.248,-8.591 0,-6.47 l 0,-2.209 -6.816,0 0,37.128 6.816,0 z"
       style="fill:#f57d14;fill-opacity:1;fill-rule:nonzero;stroke:none"
       id="path3143" />
  </g>
  <g
     id="g3145"
     transform="matrix(5.0856455,0,0,-5.0856455,595.8004,345.39232)">
    <path
       inkscape:connector-curvature="0"
       d="m 0,0 -0.021,37.113 -7.142,0 0,-15.613 -0.008,0 -7.57,0 -0.008,0 0,15.613 -7.146,0 L -21.92,0 l 7.171,-0.012 0,15.184 3.793,0 3.793,0 0,-15.184 L 0,0 z"
       style="fill:#f57d14;fill-opacity:1;fill-rule:nonzero;stroke:none"
       id="path3147" />
  </g>
  <g
     id="g3149"
     transform="matrix(5.0856455,0,0,-5.0856455,351.5058,190.23537)">
    <path
       inkscape:connector-curvature="0"
       d="m 0,0 0,-30.36 -6.932,0 0.12,2.528 c -3.098,-2.116 -5.919,-3.063 -6.827,-3.063 -1.031,0 -1.886,0.25 -2.573,0.737 -0.681,0.483 -1.192,1.132 -1.522,1.935 -0.329,0.812 -0.538,1.654 -0.613,2.53 -0.076,0.878 -0.111,2.621 -0.111,5.222 l 0,20.471 6.811,0 0,-20.674 c 0,-4.317 1.032,-4.882 2.416,-4.882 1.171,0 2.419,0.507 2.419,5.109 L -6.812,0 0,0 z"
       style="fill:#1265ab;fill-opacity:1;fill-rule:nonzero;stroke:none"
       id="path3151" />
  </g>
  <g
     id="g3153"
     transform="matrix(5.0856455,0,0,-5.0856455,402.91814,300.51048)">
    <path
       inkscape:connector-curvature="0"
       d="m 0,0 c 0,-3.374 1.519,-3.872 2.477,-3.872 1.114,0 2.362,0.535 2.362,3.883 l 0,14.126 c 0,2.388 -1.366,2.826 -2.392,2.826 C 1.411,16.963 0,16.406 0,14.137 L 0,0 z m 0,28.445 0,-8.616 c 3.366,2.117 6.078,2.478 6.932,2.478 1.1,0 2.044,-0.371 2.846,-1.114 0.796,-0.739 1.305,-1.599 1.532,-2.577 0.224,-0.978 0.34,-2.636 0.34,-4.973 l 0,-14.238 c 0,-2.247 -0.116,-3.868 -0.34,-4.86 C 11.083,-6.447 10.576,-7.319 9.784,-8.076 8.998,-8.834 8.078,-9.211 7.02,-9.211 5.564,-9.211 3.247,-8.594 0,-6.464 l 0,-2.213 -6.813,0 0,37.122 6.813,0 z"
       style="fill:#1265ab;fill-opacity:1;fill-rule:nonzero;stroke:none"
       id="path3155" />
  </g>
  <g
     id="g3157"
     transform="matrix(5.0856455,0,0,-5.0856455,171.36768,212.52983)">
    <path
       inkscape:connector-curvature="0"
       d="m 0,0 -6.587,0 0,2.733 c 0,2.65 -1.548,2.96 -2.381,2.96 -0.962,0 -2.566,-0.265 -2.566,-2.85 0,-1.227 -0.01,-2.202 0.375,-2.78 1.019,-1.535 3.386,-2.869 4.638,-3.72 3.674,-2.493 5.04,-3.198 5.854,-4.821 0.812,-1.635 1.22,-4.266 1.22,-7.894 0,-2.64 -0.23,-4.585 -0.686,-5.839 -0.457,-1.244 -1.335,-2.294 -2.633,-3.142 -1.299,-0.842 -3.845,-1.271 -5.839,-1.271 -2.292,0 -4.842,0.488 -6.18,1.47 -1.335,0.979 -2.207,2.221 -2.615,3.731 -0.413,1.513 -0.619,3.662 -0.619,6.442 l 0,2.43 6.593,0 0,-4.493 c 0,-2.696 1.476,-3.254 2.514,-3.254 0.907,0 2.655,0.44 2.655,2.988 0,2.174 -0.173,3.619 -0.647,4.268 -0.952,1.3 -3.472,2.779 -5.94,4.367 -1.97,1.263 -3.859,3.032 -4.838,5.436 -0.502,1.239 -0.552,2.887 -0.552,4.849 0,2.831 0.267,4.914 0.799,6.221 0.532,1.316 1.389,2.336 2.582,3.079 1.189,0.743 3.935,1.11 5.624,1.11 1.833,0 4.714,-0.408 6.02,-1.22 1.295,-0.809 2.157,-1.827 2.58,-3.063 C -0.21,6.506 0,4.421 0,1.464 L 0,0 z"
       style="fill:#1265ab;fill-opacity:1;fill-rule:nonzero;stroke:none"
       id="path3159" />
  </g>
  <g
     id="g3161"
     transform="matrix(5.0856455,0,0,-5.0856455,231.72969,168.63107)">
    <path
       inkscape:connector-curvature="0"
       d="m 0,0 0,-4.805 2.247,0 0,-4.806 -2.247,0 0,-16.258 c 0,-1.999 0.074,-3.118 0.227,-3.347 0.161,-0.228 0.815,-0.341 1.971,-0.341 l 0,-4.898 -2.767,0 c -1.563,0 -2.683,0.092 -3.351,0.269 -0.673,0.172 -1.256,0.578 -1.766,1.211 -0.506,0.639 -0.817,1.357 -0.94,2.176 -0.128,0.816 -0.184,2.73 -0.184,5.761 l 0,15.427 -1.955,0 0,4.806 1.955,0 L -6.81,0 0,0 z"
       style="fill:#1265ab;fill-opacity:1;fill-rule:nonzero;stroke:none"
       id="path3163" />
  </g>
</svg>
