  <svg xmlns="http://www.w3.org/2000/svg" version="1.1" width="1006" height="309" viewBox="-179 380.3 100.6 30.9" xml:space="preserve"><style type="text/css">.st0{fill:#0071bc;}</style><path class="st0" d="m-154 392.1c-1.2 4.3-5 7.3-9.5 7.4-4.5-0.1-8.3-3.1-9.5-7.4 0 0 2.2 2.3 0 0 0.6 0.7 1.5 1 2.4 1s1.8-0.3 2.4-1c0.6 0.7 1.5 1 2.4 1s1.8-0.3 2.4-1c0.6 0.7 1.5 1 2.4 1s1.8-0.3 2.4-1c0.6 0.7 1.5 1 2.4 1s1.6-0.3 2.2-1m0.1-2.2c0-5.3-4.3-9.6-9.6-9.6s-9.6 4.3-9.6 9.6h8.6c-1.1-0.4-1.8-1.4-1.8-2.6 0-1.5 1.3-2.8 2.8-2.8s2.8 1.3 2.8 2.8c0 1.1-0.7 2.2-1.7 2.6h8.5m-9 21.3c0.2-8.2 6.6-15.3 14.8-15.6 0 8.3-6.5 15.1-14.8 15.6m-1.2 0c-0.2-8.2-6.6-15.3-14.9-15.6 0.1 8.3 6.6 15.1 14.9 15.6"/><polyline class="st0" points="-125.8 381 -145.3 381 -145.3 410.5 -125.8 410.5 -125.8 405.9 -139.2 405.9 -139.2 398 -125.8 398 -125.8 393.3 -139.2 393.3 -139.2 385.5 -125.8 385.5 -125.8 381"/><path class="st0" d="M-118.5 393.3h6c2 0 3.4-1.9 3.4-3.9 0.1-2-1.4-3.6-3.3-3.8h-5.6v24.9h-6.3V381h13.8c4.5 0 7.8 3.9 7.8 8.4s-3.3 8.6-7.8 8.6h-8V393.3"/><polyline class="st0" points="-109 410.5 -102.4 410.5 -99.5 402.7 -87.5 402.7 -89.3 397.8 -97.8 397.8 -93.6 386.6 -84.9 410.5 -78.4 410.5 -90.1 381 -97.6 381 -109 410.5"/></svg>
