<?xml version="1.0" encoding="utf-8"?>
<!-- Generator: Adobe Illustrator 23.0.5, SVG Export Plug-In . SVG Version: 6.00 Build 0)  -->
<svg version="1.1" id="Layer_1" xmlns="http://www.w3.org/2000/svg" xmlns:xlink="http://www.w3.org/1999/xlink" x="0px" y="0px"
	 viewBox="0 0 463.4 76.2" style="enable-background:new 0 0 463.4 76.2;" xml:space="preserve">
<style type="text/css">
	.st0{fill:#444F45;}
	.st1{fill:#93B873;}
</style>
<g>
	<path class="st0" d="M0,24h27.1v9.9H26c-1.3,0-2.1,0.1-2.5,0.4c-0.5,0.3-0.7,0.8-0.7,1.4c0,0.5,0.2,1.2,0.5,2.2l7,22.1l6.2-17.3
		l-1.6-4.8c-0.5-1.4-1.1-2.4-1.8-3s-1.7-0.9-3.1-1V24h25.7v9.9h-2.1c-1.2,0-2,0.2-2.4,0.5s-0.7,0.8-0.7,1.5c0,0.6,0.2,1.5,0.6,2.7
		l6.2,18.3l6.2-18.3c0.4-1.2,0.6-2.1,0.6-2.7c0-0.6-0.2-1.1-0.7-1.5c-0.5-0.3-1.5-0.5-3.1-0.5h-1.2V24h23v9.9
		c-1.7,0-2.7,0.1-3.2,0.3s-1,0.5-1.3,1c-0.5,0.6-1,1.8-1.6,3.4L62.2,75.1H48.7l-7.6-20.5l-7.7,20.5H19.7L6.2,38.6
		c-0.5-1.3-1.1-2.4-1.7-3.2c-0.4-0.6-0.8-1-1.3-1.1C2.7,34,1.7,33.9,0,33.9V24z"/>
	<path class="st0" d="M109.8,22.8v37.8c0,1.8,0.1,2.9,0.3,3.3c0.2,0.4,0.6,0.7,1.1,0.9s1.7,0.3,3.6,0.3h2.8V75H86v-9.9h2.7
		c1.8,0,2.9-0.1,3.4-0.3c0.5-0.2,0.9-0.5,1.1-0.9s0.4-1.3,0.4-2.7V36.9H86v-9.6c2.7-0.1,5.3-0.4,7.7-0.9c2.5-0.4,4.7-1,6.6-1.6
		c1.3-0.4,2.8-1.1,4.7-2C105,22.8,109.8,22.8,109.8,22.8z M101.6,0c2.6,0,4.8,0.9,6.6,2.7c1.8,1.8,2.7,4,2.7,6.6s-0.9,4.9-2.7,6.7
		c-1.8,1.8-4,2.7-6.6,2.7S96.8,17.8,95,16c-1.8-1.8-2.7-4-2.7-6.6s0.9-4.8,2.8-6.6C96.9,0.9,99.1,0,101.6,0"/>
	<path class="st0" d="M146.9,0v46.1l9.8-8.3c1.1-0.9,1.7-1.5,1.9-1.7c0.2-0.3,0.3-0.5,0.3-0.7c0-0.4-0.2-0.7-0.7-1s-1.4-0.4-2.9-0.4
		h-1.9V24h31.3v9.9c-2.2,0-3.8,0.2-4.6,0.5c-1.1,0.4-2.9,1.6-5.4,3.4l-9.9,7.3l14.1,16.4c1.4,1.7,2.6,2.8,3.5,3.1
		c0.9,0.4,2.7,0.6,5.3,0.6v9.9H156v-9.9h1.8c1.3,0,2.1-0.1,2.5-0.4c0.4-0.2,0.6-0.5,0.6-0.9c0-0.5-0.5-1.4-1.6-2.9l-5.9-7.5
		l-6.4,4.8v2.8c0,1.3,0.1,2.2,0.3,2.6c0.2,0.5,0.6,0.8,1,1.1c0.5,0.3,1.3,0.4,2.3,0.4h1.8v9.9H123v-9.9c1,0,1.8-0.1,2.4-0.1
		c1.9,0,3.1-0.1,3.7-0.4c0.5-0.3,0.9-0.7,1.2-1.3c0.2-0.4,0.3-1.9,0.3-4.5V14.2H123v-10c5.8-0.3,12.1-1.7,18.9-4.2H146.9z"/>
	<path class="st0" d="M216.7,22.8v37.8c0,1.8,0.1,2.9,0.3,3.3s0.6,0.7,1.1,0.9s1.7,0.3,3.6,0.3h2.8V75h-31.6v-9.9h2.7
		c1.8,0,2.9-0.1,3.4-0.3c0.5-0.2,0.9-0.5,1.1-0.9c0.2-0.4,0.4-1.3,0.4-2.7V36.9h-7.6v-9.6c2.7-0.1,5.3-0.4,7.7-0.9
		c2.5-0.4,4.7-1,6.6-1.6c1.3-0.4,2.8-1.1,4.7-2C211.9,22.8,216.7,22.8,216.7,22.8z M208.4,0c2.6,0,4.8,0.9,6.6,2.7s2.7,4,2.7,6.6
		s-0.9,4.9-2.7,6.7s-4,2.7-6.6,2.7s-4.8-0.9-6.6-2.7s-2.7-4-2.7-6.6s0.9-4.8,2.8-6.6C203.7,0.9,205.9,0,208.4,0"/>
	<path class="st1" d="M237.5,3.7h34.8v9.9h-3.2c-1.8,0-3,0.2-3.6,0.5c-0.6,0.4-1.1,0.9-1.4,1.5c-0.3,0.7-0.4,2.1-0.4,4.3v12.4h26
		V19.1c0-1.6-0.1-2.7-0.3-3.3c-0.3-0.8-0.7-1.4-1.4-1.7c-0.6-0.3-2.1-0.5-4.3-0.5H281V3.7h34.9v9.9H313c-2,0-3.3,0.2-3.9,0.5
		s-1.1,0.8-1.4,1.4s-0.4,2.1-0.4,4.5v38.7c0,2.4,0.2,3.9,0.5,4.6c0.3,0.7,0.8,1.2,1.5,1.5s2.2,0.4,4.6,0.4h2v9.9H281v-9.9h2.3
		c2.1,0,3.6-0.2,4.4-0.5s1.3-0.8,1.6-1.5c0.3-0.6,0.4-2.2,0.4-4.6v-15h-26v15.1c0,2.4,0.1,3.9,0.3,4.5c0.3,0.9,0.9,1.4,1.6,1.7
		c0.7,0.3,2.2,0.4,4.3,0.4h2.4v9.9h-34.8v-9.9h2.4c2,0,3.4-0.2,4.2-0.5s1.3-0.8,1.6-1.4c0.3-0.6,0.4-2,0.4-4V20.5
		c0-2.4-0.1-4-0.4-4.7c-0.3-0.7-0.7-1.3-1.4-1.6c-0.6-0.3-1.8-0.5-3.6-0.5h-3.2L237.5,3.7L237.5,3.7z"/>
	<path class="st1" d="M348.9,22.8c5.8,0,10.9,1.1,15.2,3.4c4.3,2.3,7.7,5.4,10,9.3s3.5,8.6,3.5,13.8c0,8-2.6,14.5-7.8,19.4
		c-5.2,5-12.1,7.5-20.8,7.5c-8.8,0-15.9-2.5-21.1-7.5c-5-4.8-7.6-11.2-7.6-19.4c0-5.4,1.2-10,3.5-13.8c2.3-3.9,5.6-6.9,10-9.3
		C338.2,24,343.2,22.8,348.9,22.8 M349.1,34c-1.9,0-3.8,0.6-5.5,1.7c-1.7,1.2-3,2.9-4,5.1c-0.9,2.3-1.4,5.1-1.4,8.6
		c0,3.6,0.5,6.5,1.4,8.9s2.2,4.1,3.8,5.2c1.6,1.1,3.4,1.7,5.3,1.7c3,0,5.6-1.3,7.7-3.8s3.2-6.5,3.2-11.8c0-5.2-1-9.1-3-11.7
		C354.7,35.3,352.2,34,349.1,34"/>
	<path class="st1" d="M381.3,24h27.1v9.9h-1.1c-1.3,0-2.1,0.1-2.5,0.4c-0.5,0.3-0.7,0.8-0.7,1.4c0,0.5,0.2,1.2,0.5,2.2l7.1,22.1
		l6.2-17.3l-1.6-4.8c-0.5-1.4-1.1-2.4-1.8-3c-0.7-0.6-1.7-0.9-3.1-1V24H437v9.9h-2.1c-1.2,0-2,0.2-2.4,0.5s-0.7,0.8-0.7,1.5
		c0,0.6,0.2,1.5,0.6,2.7l6.2,18.3l6.2-18.3c0.4-1.2,0.6-2.1,0.6-2.7c0-0.6-0.2-1.1-0.7-1.5c-0.5-0.3-1.5-0.5-3.1-0.5h-1.2V24h23v9.9
		c-1.7,0-2.7,0.1-3.2,0.3s-1,0.5-1.3,1c-0.5,0.6-1,1.8-1.6,3.4l-13.8,36.5H430l-7.6-20.5l-7.7,20.5H401l-13.5-36.5
		c-0.5-1.3-1.1-2.4-1.7-3.2c-0.4-0.6-0.8-1-1.3-1.1c-0.5-0.2-1.5-0.3-3.2-0.3V24z"/>
</g>
</svg>
